<?xml version="1.0" encoding="iso-8859-1"?>
<!-- Generator: Adobe Illustrator 19.0.0, SVG Export Plug-In . SVG Version: 6.00 Build 0)  -->
<svg xmlns="http://www.w3.org/2000/svg" xmlns:xlink="http://www.w3.org/1999/xlink" version="1.1" id="Layer_1" x="0px" y="0px" viewBox="0 0 512 512" style="enable-background:new 0 0 512 512;" xml:space="preserve">
<polygon style="fill:#7F8C8D;" points="382.83,512 129.161,512 70.616,150.069 441.375,150.069 "/>
<path style="fill:#35495E;" d="M388.409,185.379h-17.302c-4.211,0-7.83,2.966-8.66,7.097l-9.172,70.621  c-0.953,4.785,2.145,9.428,6.921,10.39c0.574,0.106,1.148,0.168,1.73,0.168h17.302c4.211,0,7.83-2.966,8.66-7.097l9.172-70.621  c0.953-4.785-2.145-9.428-6.921-10.39C389.566,185.441,388.992,185.379,388.409,185.379z"/>
<path style="fill:#BDC3C7;" d="M76.999,90.58c13.7-28.831,31.62-55.455,53.186-78.989C136.903,4.211,146.419,0.009,156.403,0  h199.194c9.975,0.009,19.491,4.211,26.218,11.591c21.566,23.534,39.495,50.158,53.186,78.989c4.237,9.198,6.418,19.209,6.382,29.334  v30.155H70.616v-30.155C70.581,109.789,72.761,99.778,76.999,90.58z"/>
<path style="fill:#35495E;" d="M377.498,114.759H134.493c-9.754,0-17.655-7.901-17.655-17.655c0-2.737,0.636-5.447,1.863-7.892  l17.655-35.31c2.993-5.985,9.11-9.763,15.793-9.763h207.695c6.691,0,12.8,3.778,15.793,9.763l17.655,35.31  c4.361,8.722,0.83,19.324-7.892,23.684C382.945,114.123,380.235,114.759,377.498,114.759z"/>
<path style="fill:#2C2F38;" d="M335.444,88.276H176.547c-4.873,0-8.828-3.955-8.828-8.828c0-4.873,3.955-8.828,8.828-8.828h158.897  c4.873,0,8.828,3.955,8.828,8.828C344.271,84.321,340.317,88.276,335.444,88.276z"/>
<g>
</g>
<g>
</g>
<g>
</g>
<g>
</g>
<g>
</g>
<g>
</g>
<g>
</g>
<g>
</g>
<g>
</g>
<g>
</g>
<g>
</g>
<g>
</g>
<g>
</g>
<g>
</g>
<g>
</g>
</svg>
