<?xml version="1.0" encoding="iso-8859-1"?>
<!-- Generator: Adobe Illustrator 19.0.0, SVG Export Plug-In . SVG Version: 6.00 Build 0)  -->
<svg xmlns="http://www.w3.org/2000/svg" xmlns:xlink="http://www.w3.org/1999/xlink" version="1.1" id="Layer_1" x="0px" y="0px" viewBox="0 0 512.002 512.002" style="enable-background:new 0 0 512.002 512.002;" xml:space="preserve">
<path style="fill:#2C3E50;" d="M122.152,245.484l64.425,32.213V112.815h-59.505c-5.129-0.321-9.554,3.558-9.919,8.678v116.458  C117.249,241.214,119.184,244.13,122.152,245.484z"/>
<g>
	<rect x="177.899" y="112.815" style="fill:#2C2F38;" width="78.102" height="312.407"/>
	<path style="fill:#2C2F38;" d="M256.001,468.612h34.712l0,0v26.034c0,9.589-7.767,17.356-17.356,17.356l0,0   c-9.589,0-17.356-7.767-17.356-17.356V468.612L256.001,468.612z"/>
	<path style="fill:#2C2F38;" d="M39.052,468.612h34.712l0,0v26.034c0,9.589-7.767,17.356-17.356,17.356l0,0   c-9.589,0-17.356-7.767-17.356-17.356V468.612L39.052,468.612z"/>
	<path style="fill:#2C2F38;" d="M186.577,468.612h34.712l0,0v26.034c0,9.589-7.767,17.356-17.356,17.356l0,0   c-9.589,0-17.356-7.767-17.356-17.356V468.612L186.577,468.612z"/>
	<path style="fill:#2C2F38;" d="M429.56,468.612h34.712l0,0v26.034c0,9.589-7.767,17.356-17.356,17.356l0,0   c-9.589,0-17.356-7.767-17.356-17.356V468.612L429.56,468.612z"/>
</g>
<g>
	<path style="fill:#35495E;" d="M445.632,112.815h35.996V78.103c-0.208-9.745-8.244-17.503-17.998-17.356h-80.367   c-5.953,0.052-11.542-2.838-14.935-7.723l-25.374-36.621c-3.402-4.877-8.99-7.767-14.943-7.723h-71.368   c-9.754-0.148-17.79,7.611-17.998,17.356v86.78h107.989"/>
	<rect x="238.645" y="269.019" style="fill:#35495E;" width="242.983" height="69.424"/>
</g>
<g>
	<rect x="238.645" y="112.815" style="fill:#2C3E50;" width="242.983" height="156.203"/>
	<rect x="238.645" y="338.442" style="fill:#2C3E50;" width="242.983" height="69.424"/>
</g>
<path style="fill:#35495E;" d="M481.628,407.866v52.068c-0.191,9.745-8.218,17.495-17.963,17.356h-225.02v-69.424H481.628z"/>
<path d="M373.162,60.747c-2.89,0-5.719-1.449-7.368-4.079c-2.543-4.061-1.302-9.416,2.751-11.958l69.424-43.39  c4.079-2.543,9.424-1.302,11.958,2.76c2.543,4.061,1.302,9.416-2.751,11.958l-69.424,43.39  C376.321,60.331,374.733,60.747,373.162,60.747z"/>
<path style="fill:#2FA8CC;" d="M360.136,95.459h69.424c4.79,0,8.678,3.888,8.678,8.678v52.068c0,4.79-3.888,8.678-8.678,8.678  h-69.424c-4.79,0-8.678-3.888-8.678-8.678v-52.068C351.458,99.347,355.346,95.459,360.136,95.459z"/>
<g>
	<path style="fill:#2C2F38;" d="M386.17,312.408h-52.068c-4.79,0-8.678-3.888-8.678-8.678s3.888-8.678,8.678-8.678h52.068   c4.79,0,8.678,3.888,8.678,8.678S390.969,312.408,386.17,312.408z"/>
	<path style="fill:#2C2F38;" d="M386.17,381.832h-52.068c-4.79,0-8.678-3.888-8.678-8.678s3.888-8.678,8.678-8.678h52.068   c4.79,0,8.678,3.888,8.678,8.678S390.969,381.832,386.17,381.832z"/>
	<path style="fill:#2C2F38;" d="M386.17,451.256h-52.068c-4.79,0-8.678-3.888-8.678-8.678s3.888-8.678,8.678-8.678h52.068   c4.79,0,8.678,3.888,8.678,8.678S390.969,451.256,386.17,451.256z"/>
</g>
<path style="fill:#FFFFFF;" d="M342.78,199.595h34.712c4.79,0,8.678,3.888,8.678,8.678v17.356c0,4.79-3.888,8.678-8.678,8.678  H342.78c-4.79,0-8.678-3.888-8.678-8.678v-17.356C334.102,203.483,337.99,199.595,342.78,199.595z"/>
<path style="fill:#35495E;" d="M238.645,407.866v69.424H39.052c-4.79,0-8.678-3.888-8.678-8.678v-18.684  c0-4.244,3.063-7.862,7.255-8.556l148.949-24.828L238.645,407.866z"/>
<path style="fill:#B0D3F0;" d="M403.526,130.171H386.17c-4.79,0-8.678-3.888-8.678-8.678s3.888-8.678,8.678-8.678h17.356  c4.79,0,8.678,3.888,8.678,8.678S408.325,130.171,403.526,130.171z"/>
<g>
</g>
<g>
</g>
<g>
</g>
<g>
</g>
<g>
</g>
<g>
</g>
<g>
</g>
<g>
</g>
<g>
</g>
<g>
</g>
<g>
</g>
<g>
</g>
<g>
</g>
<g>
</g>
<g>
</g>
</svg>
