<?xml version="1.0" encoding="iso-8859-1"?>
<!-- Generator: Adobe Illustrator 19.0.0, SVG Export Plug-In . SVG Version: 6.00 Build 0)  -->
<svg xmlns="http://www.w3.org/2000/svg" xmlns:xlink="http://www.w3.org/1999/xlink" version="1.1" id="Layer_1" x="0px" y="0px" viewBox="0 0 512.001 512.001" style="enable-background:new 0 0 512.001 512.001;" xml:space="preserve">
<path style="fill:#95A5A5;" d="M66.207,0H348.69c9.754,0,17.655,7.901,17.655,17.655v476.69c0,9.754-7.901,17.655-17.655,17.655  H66.207c-9.754,0-17.655-7.901-17.655-17.655V17.655C48.552,7.901,56.453,0,66.207,0z"/>
<path style="fill:#7F8C8D;" d="M119.173,0c0,48.755,39.521,88.276,88.276,88.276S295.724,48.755,295.724,0H119.173z"/>
<g>
	<path style="fill:#547580;" d="M189.793,267.917V141.241c0.026-9.737,7.918-17.629,17.655-17.655   c9.719,0.071,17.585,7.936,17.655,17.655v126.676"/>
	<path style="fill:#547580;" d="M225.104,367.669v91.366c0,9.754-7.901,17.655-17.655,17.655c-9.754,0-17.655-7.901-17.655-17.655   v-91.366"/>
</g>
<g>
	<circle style="fill:#2C3E50;" cx="207.449" cy="317.793" r="52.966"/>
	<path style="fill:#2C3E50;" d="M83.862,132.414c-1.156-0.018-2.295-0.256-3.354-0.706c-2.216-0.803-3.964-2.551-4.767-4.767   c-0.936-2.136-0.936-4.573,0-6.709c0.45-1.068,1.077-2.057,1.854-2.913c3.434-3.46,9.022-3.487,12.482-0.053   c1.686,1.668,2.622,3.946,2.613,6.321c-0.018,1.156-0.256,2.295-0.706,3.354c-0.45,1.068-1.077,2.057-1.854,2.913   c-0.856,0.777-1.845,1.404-2.913,1.854C86.158,132.158,85.019,132.396,83.862,132.414z"/>
	<path style="fill:#2C3E50;" d="M119.173,132.414c-1.156-0.018-2.295-0.256-3.354-0.706c-2.216-0.803-3.964-2.551-4.767-4.767   c-0.936-2.136-0.936-4.573,0-6.709c0.45-1.068,1.077-2.057,1.854-2.913c3.434-3.46,9.022-3.487,12.482-0.053   c1.686,1.668,2.622,3.946,2.613,6.321c-0.018,1.156-0.256,2.295-0.706,3.354c-0.45,1.068-1.077,2.057-1.854,2.913   c-0.856,0.777-1.845,1.404-2.913,1.854C121.468,132.158,120.329,132.396,119.173,132.414z"/>
	<path style="fill:#2C3E50;" d="M154.483,132.414c-2.348,0.018-4.608-0.9-6.268-2.56c-0.777-0.856-1.404-1.845-1.854-2.913   c-0.936-2.136-0.936-4.573,0-6.709c0.424-1.077,1.059-2.074,1.854-2.913c0.415-0.38,0.865-0.733,1.324-1.059   c0.494-0.335,1.024-0.6,1.589-0.794c0.503-0.256,1.033-0.433,1.589-0.538c2.904-0.574,5.914,0.318,8.033,2.392   c1.615,1.695,2.525,3.928,2.56,6.268c-0.018,1.156-0.256,2.295-0.706,3.354c-0.45,1.068-1.077,2.057-1.854,2.913   c-0.856,0.777-1.845,1.404-2.913,1.854C156.778,132.158,155.639,132.396,154.483,132.414z"/>
	<path style="fill:#2C3E50;" d="M83.862,167.724c-1.156,0.026-2.313-0.212-3.354-0.706c-1.068-0.45-2.048-1.077-2.913-1.854   c-2.525-2.525-3.257-6.338-1.854-9.622c0.424-1.077,1.059-2.074,1.854-2.913c0.856-0.777,1.845-1.404,2.913-1.854   c2.145-0.892,4.564-0.892,6.709,0c1.095,0.406,2.083,1.042,2.913,1.854c1.615,1.695,2.525,3.928,2.56,6.268   c-0.009,2.339-0.927,4.59-2.56,6.268c-0.856,0.777-1.845,1.404-2.913,1.854C86.166,167.512,85.019,167.751,83.862,167.724z"/>
	<path style="fill:#2C3E50;" d="M119.173,167.724c-1.156,0.026-2.313-0.212-3.354-0.706c-1.068-0.45-2.048-1.077-2.913-1.854   c-2.525-2.525-3.257-6.338-1.854-9.622c0.803-2.216,2.551-3.964,4.767-4.767c2.145-0.892,4.564-0.892,6.709,0   c1.095,0.406,2.083,1.042,2.913,1.854c1.615,1.695,2.525,3.928,2.56,6.268c-0.009,2.339-0.927,4.59-2.56,6.268   C123.781,166.824,121.521,167.742,119.173,167.724z"/>
	<path style="fill:#2C3E50;" d="M154.483,167.724c-1.156,0.026-2.313-0.212-3.354-0.706c-1.068-0.45-2.048-1.077-2.913-1.854   c-2.525-2.525-3.257-6.338-1.854-9.622c0.803-2.216,2.551-3.964,4.767-4.767c2.145-0.892,4.564-0.892,6.709,0   c1.077,0.424,2.066,1.059,2.913,1.854c1.615,1.695,2.525,3.928,2.56,6.268c0.044,4.829-3.831,8.783-8.66,8.828   C154.598,167.724,154.536,167.724,154.483,167.724z"/>
	<path style="fill:#2C3E50;" d="M83.862,203.034c-2.339-0.018-4.582-0.936-6.268-2.56c-0.777-0.856-1.404-1.845-1.854-2.913   c-0.936-2.136-0.936-4.573,0-6.709c0.45-1.068,1.077-2.057,1.854-2.913c2.534-2.507,6.338-3.24,9.622-1.854   c1.077,0.424,2.066,1.059,2.913,1.854c1.615,1.695,2.525,3.928,2.56,6.268c0.018,2.348-0.9,4.608-2.56,6.268   c-0.856,0.777-1.845,1.404-2.913,1.854C86.158,202.778,85.019,203.017,83.862,203.034z"/>
	<path style="fill:#2C3E50;" d="M119.173,203.034c-1.156-0.018-2.295-0.256-3.354-0.706c-1.068-0.45-2.048-1.077-2.913-1.854   c-2.525-2.525-3.257-6.338-1.854-9.622c0.424-1.077,1.059-2.074,1.854-2.913c0.415-0.38,0.865-0.733,1.324-1.059   c0.494-0.335,1.024-0.6,1.589-0.794c0.53-0.265,1.095-0.45,1.677-0.538c2.878-0.538,5.835,0.353,7.945,2.392   c0.794,0.847,1.43,1.836,1.854,2.913c1.412,3.284,0.671,7.097-1.854,9.622C123.754,202.099,121.512,203.017,119.173,203.034z"/>
	<path style="fill:#2C3E50;" d="M154.483,203.034c-1.156-0.018-2.295-0.256-3.354-0.706c-1.068-0.45-2.048-1.077-2.913-1.854   c-2.525-2.525-3.257-6.338-1.854-9.622c0.424-1.077,1.059-2.074,1.854-2.913c0.856-0.777,1.845-1.404,2.913-1.854   c3.284-1.386,7.089-0.653,9.622,1.854c0.777,0.856,1.404,1.845,1.854,2.913c0.945,2.136,0.945,4.573,0,6.709   c-0.45,1.068-1.077,2.057-1.854,2.913C159.065,202.099,156.822,203.017,154.483,203.034z"/>
	<path style="fill:#2C3E50;" d="M83.862,238.345c-2.348-0.044-4.599-0.989-6.268-2.648c-1.668-1.615-2.595-3.858-2.56-6.179   c0.009-1.156,0.247-2.295,0.706-3.354c0.45-1.068,1.077-2.057,1.854-2.913c3.54-3.266,8.995-3.266,12.535,0   c0.777,0.856,1.404,1.845,1.854,2.913c0.45,1.059,0.689,2.198,0.706,3.354C92.655,234.381,88.726,238.31,83.862,238.345z"/>
	<path style="fill:#2C3E50;" d="M119.173,238.345c-2.366,0.026-4.634-0.927-6.268-2.648c-0.794-0.812-1.43-1.774-1.854-2.825   c-0.936-2.136-0.936-4.573,0-6.709c0.45-1.068,1.077-2.057,1.854-2.913c3.54-3.266,8.995-3.266,12.535,0   c0.777,0.856,1.404,1.845,1.854,2.913c0.945,2.136,0.945,4.573,0,6.709C125.908,236.147,122.721,238.292,119.173,238.345z"/>
	<path style="fill:#2C3E50;" d="M154.483,238.345c-2.348-0.044-4.599-0.989-6.268-2.648c-1.668-1.615-2.595-3.858-2.56-6.179   c0.009-1.156,0.247-2.295,0.706-3.354c0.803-2.216,2.551-3.964,4.767-4.767c3.293-1.377,7.08-0.644,9.622,1.854   c0.777,0.856,1.404,1.845,1.854,2.913c0.45,1.059,0.689,2.198,0.706,3.354C163.275,234.381,159.347,238.31,154.483,238.345z"/>
	<path style="fill:#2C3E50;" d="M83.862,379.586c-4.829,0.044-8.783-3.831-8.828-8.66c-0.009-1.209,0.23-2.41,0.706-3.513   c0.424-1.077,1.059-2.074,1.854-2.913c3.328-3.46,8.836-3.566,12.297-0.238c0.918,0.883,1.633,1.96,2.083,3.151   c1.898,4.44-0.159,9.578-4.59,11.476C86.272,379.357,85.072,379.595,83.862,379.586z"/>
	<path style="fill:#2C3E50;" d="M119.173,379.586c-4.829,0.044-8.783-3.831-8.828-8.66c-0.009-1.209,0.23-2.41,0.706-3.513   c0.424-1.077,1.059-2.074,1.854-2.913c3.328-3.46,8.836-3.566,12.297-0.238c0.918,0.883,1.633,1.96,2.083,3.151   c1.412,3.284,0.68,7.097-1.854,9.622c-0.856,0.777-1.845,1.404-2.913,1.854C121.468,379.33,120.329,379.569,119.173,379.586z"/>
	<path style="fill:#2C3E50;" d="M83.862,414.897c-2.348,0.018-4.608-0.9-6.268-2.56c-1.651-1.668-2.569-3.919-2.56-6.268   c0.035-2.339,0.945-4.573,2.56-6.268c0.856-0.777,1.845-1.404,2.913-1.854c2.145-0.892,4.564-0.892,6.709,0   c1.068,0.45,2.057,1.077,2.913,1.854c1.615,1.695,2.525,3.928,2.56,6.268c0.009,2.348-0.918,4.599-2.56,6.268   C88.47,413.996,86.21,414.914,83.862,414.897z"/>
	<path style="fill:#2C3E50;" d="M119.173,414.897c-4.829,0.044-8.783-3.831-8.828-8.66c0-0.053,0-0.115,0-0.168   c0-4.873,3.955-8.828,8.828-8.828c4.873,0,8.828,3.955,8.828,8.828c0.044,4.829-3.831,8.783-8.66,8.828   C119.287,414.897,119.226,414.897,119.173,414.897z"/>
	<path style="fill:#2C3E50;" d="M154.483,414.897c-1.156-0.018-2.295-0.256-3.354-0.706c-1.068-0.45-2.048-1.077-2.913-1.854   c-1.66-1.66-2.586-3.919-2.56-6.268c0-4.873,3.955-8.828,8.828-8.828s8.828,3.955,8.828,8.828c0.044,4.829-3.831,8.783-8.66,8.828   C154.598,414.897,154.536,414.897,154.483,414.897z"/>
	<path style="fill:#2C3E50;" d="M83.862,450.207c-4.829,0.044-8.783-3.831-8.828-8.66c0-0.053,0-0.115,0-0.168   c0.018-2.339,0.936-4.582,2.56-6.268c2.56-2.463,6.329-3.187,9.622-1.854c1.068,0.45,2.057,1.077,2.913,1.854   c0.353,0.441,0.706,0.883,1.059,1.315c0.335,0.494,0.6,1.033,0.794,1.598c0.256,0.503,0.433,1.033,0.53,1.589   c0.106,0.583,0.159,1.174,0.177,1.766c0.009,2.348-0.918,4.599-2.56,6.268C88.47,449.306,86.21,450.225,83.862,450.207z"/>
	<path style="fill:#2C3E50;" d="M119.173,450.207c-2.348,0.018-4.608-0.9-6.268-2.56c-1.651-1.668-2.569-3.919-2.56-6.268   c0.018-0.591,0.071-1.183,0.177-1.766c0.097-0.556,0.274-1.086,0.53-1.589c0.194-0.565,0.459-1.103,0.794-1.598l1.059-1.315   c3.54-3.266,8.995-3.266,12.535,0c1.624,1.686,2.542,3.928,2.56,6.268c0.044,4.829-3.831,8.783-8.66,8.828   C119.287,450.207,119.226,450.207,119.173,450.207z"/>
	<path style="fill:#2C3E50;" d="M154.483,450.207c-4.829,0.044-8.783-3.831-8.828-8.66c0-0.053,0-0.115,0-0.168   c0.018-2.339,0.936-4.582,2.56-6.268c2.534-2.507,6.338-3.24,9.622-1.854c1.077,0.424,2.066,1.059,2.913,1.854   c0.38,0.415,0.733,0.856,1.059,1.315c0.335,0.494,0.6,1.033,0.794,1.598c0.256,0.503,0.433,1.033,0.53,1.589   c0.106,0.583,0.159,1.174,0.177,1.766c0.009,2.348-0.918,4.599-2.56,6.268C159.091,449.306,156.831,450.225,154.483,450.207z"/>
	<path style="fill:#2C3E50;" d="M83.862,485.517c-2.348,0.018-4.608-0.9-6.268-2.56c-0.777-0.856-1.404-1.845-1.854-2.913   c-0.936-2.136-0.936-4.573,0-6.709c0.803-2.216,2.551-3.964,4.767-4.767c3.284-1.386,7.089-0.653,9.622,1.854   c0.794,0.847,1.43,1.836,1.854,2.913c0.945,2.136,0.945,4.573,0,6.709c-0.45,1.068-1.077,2.057-1.854,2.913   C88.47,484.617,86.21,485.535,83.862,485.517z"/>
	<path style="fill:#2C3E50;" d="M119.173,485.517c-2.348,0.018-4.608-0.9-6.268-2.56c-0.777-0.856-1.404-1.845-1.854-2.913   c-0.936-2.136-0.936-4.573,0-6.709c0.45-1.068,1.077-2.057,1.854-2.913c3.54-3.266,8.995-3.266,12.535,0   c0.777,0.856,1.404,1.845,1.854,2.913c0.945,2.136,0.945,4.573,0,6.709c-0.45,1.068-1.077,2.057-1.854,2.913   c-0.856,0.777-1.845,1.404-2.913,1.854C121.468,485.261,120.329,485.5,119.173,485.517z"/>
	<path style="fill:#2C3E50;" d="M154.483,485.517c-2.348,0.018-4.608-0.9-6.268-2.56c-0.777-0.856-1.404-1.845-1.854-2.913   c-0.936-2.136-0.936-4.573,0-6.709c0.424-1.077,1.059-2.074,1.854-2.913c2.534-2.507,6.338-3.24,9.622-1.854   c2.216,0.803,3.964,2.551,4.767,4.767c0.945,2.136,0.945,4.573,0,6.709c-0.45,1.068-1.077,2.057-1.854,2.913   C159.091,484.617,156.831,485.535,154.483,485.517z"/>
	<path style="fill:#2C3E50;" d="M83.862,273.655c-2.366,0.026-4.634-0.927-6.268-2.648c-1.668-1.615-2.595-3.858-2.56-6.179   c0-4.873,3.955-8.828,8.828-8.828s8.828,3.955,8.828,8.828c0.035,2.322-0.892,4.564-2.56,6.179   C88.453,272.658,86.21,273.611,83.862,273.655z"/>
	<path style="fill:#2C3E50;" d="M119.173,273.655c-3.566-0.009-6.78-2.172-8.121-5.473c-0.494-1.05-0.733-2.198-0.706-3.354   c0.035-2.339,0.945-4.573,2.56-6.268c0.839-0.794,1.827-1.43,2.913-1.854c3.284-1.386,7.089-0.653,9.622,1.854   c0.794,0.847,1.43,1.836,1.854,2.913c0.45,1.059,0.689,2.198,0.706,3.354C127.965,269.692,124.037,273.62,119.173,273.655z"/>
	<path style="fill:#2C3E50;" d="M83.862,308.966c-4.829,0.044-8.783-3.831-8.828-8.66c0-0.053,0-0.115,0-0.168   c0.035-2.339,0.945-4.573,2.56-6.268c0.856-0.777,1.845-1.404,2.913-1.854c3.284-1.386,7.089-0.653,9.622,1.854   c1.615,1.695,2.525,3.928,2.56,6.268c0.026,1.156-0.212,2.304-0.706,3.354c-0.45,1.068-1.077,2.057-1.854,2.913   c-0.856,0.777-1.845,1.404-2.913,1.854C86.166,308.754,85.019,308.992,83.862,308.966z"/>
	<path style="fill:#2C3E50;" d="M119.173,308.966c-4.829,0.044-8.783-3.831-8.828-8.66c0-0.053,0-0.115,0-0.168   c0-4.873,3.955-8.828,8.828-8.828c4.873,0,8.828,3.955,8.828,8.828c0.044,4.829-3.831,8.783-8.66,8.828   C119.287,308.966,119.226,308.966,119.173,308.966z"/>
	<path style="fill:#2C3E50;" d="M83.862,344.276c-4.829,0.044-8.783-3.831-8.828-8.66c-0.009-1.209,0.23-2.41,0.706-3.513   c0.424-1.077,1.059-2.074,1.854-2.913c3.328-3.46,8.836-3.566,12.297-0.238c0.918,0.883,1.633,1.96,2.083,3.151   c1.898,4.44-0.159,9.578-4.59,11.476C86.272,344.046,85.072,344.285,83.862,344.276z"/>
	<path style="fill:#2C3E50;" d="M119.173,344.276c-4.829,0.044-8.783-3.831-8.828-8.66c-0.009-1.209,0.23-2.41,0.706-3.513   c0.424-1.077,1.059-2.074,1.854-2.913c2.534-2.507,6.338-3.24,9.622-1.854c1.068,0.45,2.057,1.077,2.913,1.854   c0.794,0.847,1.43,1.836,1.854,2.913c1.898,4.44-0.159,9.578-4.59,11.476C121.583,344.046,120.382,344.285,119.173,344.276z"/>
	<path style="fill:#2C3E50;" d="M331.035,132.414c-1.156-0.018-2.295-0.256-3.354-0.706c-2.216-0.803-3.964-2.551-4.767-4.767   c-0.494-1.05-0.733-2.198-0.706-3.354c0.035-2.339,0.945-4.573,2.56-6.268c0.83-0.821,1.818-1.448,2.913-1.854   c1.607-0.706,3.399-0.892,5.12-0.538c0.556,0.097,1.086,0.282,1.589,0.538c0.565,0.194,1.103,0.459,1.589,0.794   c0.459,0.327,0.9,0.68,1.324,1.059c1.615,1.695,2.525,3.928,2.56,6.268c0.026,1.156-0.212,2.304-0.706,3.354   c-0.45,1.068-1.077,2.057-1.854,2.913C335.643,131.513,333.383,132.431,331.035,132.414z"/>
	<path style="fill:#2C3E50;" d="M295.724,132.414c-2.348,0.018-4.608-0.9-6.268-2.56c-0.777-0.856-1.404-1.845-1.854-2.913   c-0.45-1.059-0.689-2.198-0.706-3.354c0.035-2.339,0.945-4.573,2.56-6.268c2.11-2.083,5.12-2.975,8.033-2.392   c0.556,0.097,1.086,0.282,1.589,0.538c0.565,0.194,1.103,0.459,1.589,0.794c0.459,0.327,0.9,0.68,1.324,1.059   c1.615,1.695,2.525,3.928,2.56,6.268c-0.018,1.156-0.256,2.295-0.706,3.354c-0.45,1.068-1.077,2.057-1.854,2.913   C300.332,131.513,298.073,132.431,295.724,132.414z"/>
	<path style="fill:#2C3E50;" d="M83.862,97.103c-2.348,0.018-4.608-0.9-6.268-2.56c-0.777-0.856-1.404-1.845-1.854-2.913   c-0.936-2.136-0.936-4.573,0-6.709c0.803-2.216,2.551-3.964,4.767-4.767c2.145-0.892,4.564-0.892,6.709,0   c1.068,0.45,2.057,1.077,2.913,1.854c1.615,1.695,2.525,3.928,2.56,6.268c0.044,4.829-3.831,8.783-8.66,8.828   C83.977,97.103,83.915,97.103,83.862,97.103z"/>
	<path style="fill:#2C3E50;" d="M119.173,97.103c-2.348,0.018-4.608-0.9-6.268-2.56c-0.777-0.856-1.404-1.845-1.854-2.913   c-0.936-2.136-0.936-4.573,0-6.709c0.424-1.077,1.059-2.074,1.854-2.913c0.856-0.777,1.845-1.404,2.913-1.854   c2.145-0.892,4.564-0.892,6.709,0c2.216,0.803,3.964,2.551,4.767,4.767c0.945,2.136,0.945,4.573,0,6.709   c-0.45,1.068-1.077,2.057-1.854,2.913c-0.856,0.777-1.845,1.404-2.913,1.854C121.468,96.847,120.329,97.086,119.173,97.103z"/>
	<path style="fill:#2C3E50;" d="M331.035,97.103c-1.156-0.018-2.295-0.256-3.354-0.706c-1.068-0.45-2.048-1.077-2.913-1.854   c-1.66-1.66-2.586-3.919-2.56-6.268c0.035-2.339,0.945-4.573,2.56-6.268c0.83-0.821,1.818-1.448,2.913-1.854   c2.145-0.892,4.564-0.892,6.709,0c1.095,0.406,2.083,1.042,2.913,1.854c1.615,1.695,2.525,3.928,2.56,6.268   c0.018,2.348-0.9,4.608-2.56,6.268C335.634,96.185,333.383,97.112,331.035,97.103z"/>
	<path style="fill:#2C3E50;" d="M83.862,61.793c-2.348,0.018-4.608-0.9-6.268-2.56c-0.777-0.856-1.404-1.845-1.854-2.913   c-0.936-2.136-0.936-4.573,0-6.709c0.424-1.077,1.059-2.074,1.854-2.913c0.856-0.777,1.845-1.404,2.913-1.854   c1.607-0.706,3.399-0.892,5.12-0.538c0.547,0.106,1.086,0.282,1.589,0.538c0.565,0.194,1.103,0.459,1.589,0.794   c0.459,0.327,0.9,0.68,1.324,1.059c1.615,1.695,2.525,3.928,2.56,6.268c0.044,4.829-3.831,8.783-8.66,8.828   C83.977,61.793,83.915,61.793,83.862,61.793z"/>
	<path style="fill:#2C3E50;" d="M331.035,61.793c-1.156-0.018-2.295-0.256-3.354-0.706c-1.068-0.45-2.057-1.077-2.913-1.854   c-0.777-0.856-1.404-1.845-1.854-2.913c-0.936-2.136-0.936-4.573,0-6.709c0.803-2.216,2.551-3.964,4.767-4.767   c3.284-1.386,7.089-0.653,9.622,1.854c1.615,1.695,2.525,3.928,2.56,6.268c-0.018,1.156-0.256,2.295-0.706,3.354   c-0.415,1.086-1.05,2.074-1.854,2.913c-0.856,0.777-1.845,1.404-2.913,1.854C333.33,61.537,332.191,61.775,331.035,61.793z"/>
	<path style="fill:#2C3E50;" d="M295.724,97.103c-4.829,0.044-8.783-3.831-8.828-8.66c0-0.053,0-0.115,0-0.168   c0.035-2.339,0.945-4.573,2.56-6.268c0.415-0.38,0.856-0.733,1.324-1.059c0.494-0.335,1.024-0.6,1.589-0.794   c0.503-0.256,1.033-0.433,1.589-0.538c1.721-0.353,3.513-0.168,5.12,0.538c2.216,0.803,3.964,2.551,4.767,4.767   c0.945,2.136,0.945,4.573,0,6.709c-0.45,1.068-1.077,2.057-1.854,2.913c-0.856,0.777-1.845,1.404-2.913,1.854   C298.02,96.847,296.881,97.086,295.724,97.103z"/>
	<path style="fill:#2C3E50;" d="M260.414,132.414c-1.156-0.018-2.295-0.256-3.354-0.706c-2.216-0.803-3.964-2.551-4.767-4.767   c-0.45-1.059-0.689-2.198-0.706-3.354c0.035-2.339,0.945-4.573,2.56-6.268c0.415-0.38,0.856-0.733,1.324-1.059   c0.494-0.335,1.024-0.6,1.589-0.794c0.53-0.265,1.095-0.45,1.677-0.538c2.878-0.574,5.862,0.318,7.945,2.392   c1.615,1.695,2.525,3.928,2.56,6.268c-0.018,1.156-0.256,2.295-0.706,3.354c-0.45,1.068-1.077,2.057-1.854,2.913   C265.022,131.513,262.762,132.431,260.414,132.414z"/>
	<path style="fill:#2C3E50;" d="M331.035,167.724c-1.156,0.026-2.313-0.212-3.354-0.706c-1.068-0.45-2.048-1.077-2.913-1.854   c-2.525-2.525-3.257-6.338-1.854-9.622c1.518-3.981,5.729-6.241,9.887-5.305c0.556,0.097,1.086,0.282,1.589,0.538   c0.565,0.194,1.103,0.459,1.589,0.794c0.459,0.327,0.9,0.68,1.324,1.059c1.615,1.695,2.525,3.928,2.56,6.268   c0.044,4.829-3.831,8.783-8.66,8.828C331.15,167.724,331.088,167.724,331.035,167.724z"/>
	<path style="fill:#2C3E50;" d="M295.724,167.724c-1.156,0.026-2.313-0.212-3.354-0.706c-1.068-0.45-2.048-1.077-2.913-1.854   c-1.66-1.66-2.586-3.919-2.56-6.268c0.035-2.339,0.945-4.573,2.56-6.268c3.513-3.328,9.022-3.328,12.535,0   c1.615,1.695,2.525,3.928,2.56,6.268c0.044,4.829-3.831,8.783-8.66,8.828C295.839,167.724,295.777,167.724,295.724,167.724z"/>
	<path style="fill:#2C3E50;" d="M260.414,167.724c-1.156,0.026-2.313-0.212-3.354-0.706c-1.068-0.45-2.048-1.077-2.913-1.854   c-1.66-1.66-2.586-3.919-2.56-6.268c0.035-2.339,0.945-4.573,2.56-6.268c2.534-2.507,6.338-3.24,9.622-1.854   c1.068,0.45,2.057,1.077,2.913,1.854c0.794,0.847,1.43,1.836,1.854,2.913c1.412,3.284,0.671,7.097-1.854,9.622   c-0.856,0.777-1.845,1.404-2.913,1.854C262.718,167.512,261.57,167.751,260.414,167.724z"/>
	<path style="fill:#2C3E50;" d="M331.035,203.034c-1.156-0.018-2.295-0.256-3.354-0.706c-1.077-0.424-2.066-1.059-2.913-1.854   c-0.777-0.856-1.404-1.845-1.854-2.913c-0.494-1.05-0.733-2.198-0.706-3.354c0.035-2.339,0.945-4.573,2.56-6.268   c0.83-0.821,1.818-1.448,2.913-1.854c2.145-0.892,4.564-0.892,6.709,0c1.077,0.424,2.066,1.059,2.913,1.854   c1.615,1.695,2.525,3.928,2.56,6.268c0.018,2.348-0.9,4.608-2.56,6.268c-0.856,0.777-1.845,1.404-2.913,1.854   C333.33,202.778,332.191,203.017,331.035,203.034z"/>
	<path style="fill:#2C3E50;" d="M295.724,203.034c-1.156-0.018-2.295-0.256-3.354-0.706c-1.068-0.45-2.048-1.077-2.913-1.854   c-1.66-1.66-2.586-3.919-2.56-6.268c0.035-2.339,0.945-4.573,2.56-6.268c3.513-3.328,9.022-3.328,12.535,0   c0.777,0.856,1.404,1.845,1.854,2.913c0.945,2.136,0.945,4.573,0,6.709c-0.45,1.068-1.077,2.057-1.854,2.913   C300.306,202.099,298.064,203.017,295.724,203.034z"/>
	<path style="fill:#2C3E50;" d="M260.414,203.034c-1.156-0.018-2.295-0.256-3.354-0.706c-1.068-0.45-2.048-1.077-2.913-1.854   c-2.525-2.525-3.257-6.338-1.854-9.622c0.424-1.077,1.059-2.074,1.854-2.913c0.856-0.777,1.845-1.404,2.913-1.854   c1.607-0.706,3.399-0.892,5.12-0.538c0.556,0.097,1.086,0.282,1.589,0.538c0.565,0.194,1.103,0.459,1.589,0.794   c0.459,0.327,0.9,0.68,1.324,1.059c0.777,0.856,1.404,1.845,1.854,2.913c0.494,1.05,0.733,2.198,0.706,3.354   c0.018,1.148-0.194,2.286-0.618,3.354c-0.512,1.05-1.165,2.03-1.942,2.913C264.996,202.099,262.753,203.017,260.414,203.034z"/>
	<path style="fill:#2C3E50;" d="M331.035,238.345c-2.348-0.044-4.599-0.989-6.268-2.648c-1.668-1.615-2.595-3.858-2.56-6.179   c0.009-1.156,0.247-2.295,0.706-3.354c0.45-1.068,1.077-2.057,1.854-2.913c2.119-2.074,5.12-2.966,8.033-2.392   c0.556,0.097,1.086,0.282,1.589,0.538c0.565,0.194,1.103,0.459,1.589,0.794c0.459,0.327,0.9,0.68,1.324,1.059   c0.777,0.856,1.404,1.845,1.854,2.913c0.45,1.059,0.689,2.198,0.706,3.354C339.827,234.381,335.899,238.31,331.035,238.345z"/>
	<path style="fill:#2C3E50;" d="M295.724,238.345c-2.366,0.026-4.634-0.927-6.268-2.648c-1.668-1.615-2.595-3.858-2.56-6.179   c0.009-1.156,0.247-2.295,0.706-3.354c0.45-1.068,1.077-2.057,1.854-2.913c3.54-3.266,8.995-3.266,12.535,0   c0.777,0.856,1.404,1.845,1.854,2.913c0.45,1.059,0.689,2.198,0.706,3.354c0.026,1.156-0.212,2.304-0.706,3.354   C302.46,236.147,299.273,238.292,295.724,238.345z"/>
	<path style="fill:#2C3E50;" d="M260.414,238.345c-4.829,0.044-8.783-3.831-8.828-8.66c-0.009-1.209,0.23-2.41,0.706-3.513   c0.45-1.068,1.077-2.057,1.854-2.913c3.54-3.266,8.995-3.266,12.535,0c0.777,0.856,1.404,1.845,1.854,2.913   c0.945,2.136,0.945,4.573,0,6.709c-0.433,1.05-1.059,2.013-1.854,2.825C265.049,237.418,262.78,238.371,260.414,238.345z"/>
	<path style="fill:#2C3E50;" d="M331.035,379.586c-2.348,0.018-4.608-0.9-6.268-2.56c-1.651-1.668-2.569-3.919-2.56-6.268   c-0.026-1.156,0.212-2.304,0.706-3.354c0.45-1.068,1.077-2.057,1.854-2.913c3.328-3.46,8.836-3.566,12.297-0.238   c0.918,0.883,1.633,1.96,2.083,3.151c1.898,4.44-0.159,9.578-4.59,11.476C333.445,379.357,332.244,379.595,331.035,379.586z"/>
	<path style="fill:#2C3E50;" d="M295.724,379.586c-2.348,0.018-4.608-0.9-6.268-2.56c-2.525-2.525-3.257-6.338-1.854-9.622   c0.803-2.216,2.551-3.964,4.767-4.767c2.127-0.971,4.582-0.971,6.709,0c2.216,0.803,3.964,2.551,4.767,4.767   c1.898,4.44-0.159,9.578-4.59,11.476C298.134,379.357,296.934,379.595,295.724,379.586z"/>
	<path style="fill:#2C3E50;" d="M331.035,414.897c-4.829,0.044-8.783-3.831-8.828-8.66c0-0.053,0-0.115,0-0.168   c0.035-2.339,0.945-4.573,2.56-6.268c2.56-2.472,6.329-3.196,9.622-1.854c1.068,0.45,2.057,1.077,2.913,1.854   c1.615,1.695,2.525,3.928,2.56,6.268c0.044,4.829-3.831,8.783-8.66,8.828C331.15,414.897,331.088,414.897,331.035,414.897z"/>
	<path style="fill:#2C3E50;" d="M295.724,414.897c-2.348,0.018-4.608-0.9-6.268-2.56c-1.651-1.668-2.569-3.919-2.56-6.268   c0-4.873,3.955-8.828,8.828-8.828c4.873,0,8.828,3.955,8.828,8.828c0.009,2.348-0.918,4.599-2.56,6.268   C300.332,413.996,298.073,414.914,295.724,414.897z"/>
	<path style="fill:#2C3E50;" d="M260.414,414.897c-4.829,0.044-8.783-3.831-8.828-8.66c0-0.053,0-0.115,0-0.168   c0-4.873,3.955-8.828,8.828-8.828c4.873,0,8.828,3.955,8.828,8.828c0.018,2.348-0.9,4.608-2.56,6.268   c-0.856,0.777-1.845,1.404-2.913,1.854C262.709,414.641,261.57,414.879,260.414,414.897z"/>
	<path style="fill:#2C3E50;" d="M331.035,450.207c-1.156-0.018-2.295-0.256-3.354-0.706c-1.068-0.45-2.048-1.077-2.913-1.854   c-1.66-1.66-2.586-3.919-2.56-6.268c0.018-0.591,0.071-1.183,0.177-1.766c0.097-0.556,0.274-1.086,0.53-1.589   c0.194-0.565,0.459-1.103,0.794-1.598l1.059-1.315c3.54-3.266,8.995-3.266,12.535,0c1.624,1.686,2.542,3.928,2.56,6.268   c0.018,2.348-0.9,4.608-2.56,6.268c-0.856,0.777-1.845,1.404-2.913,1.854C333.33,449.951,332.191,450.189,331.035,450.207z"/>
	<path style="fill:#2C3E50;" d="M295.724,450.207c-4.829,0.044-8.783-3.831-8.828-8.66c0-0.053,0-0.115,0-0.168   c0.018-2.339,0.936-4.582,2.56-6.268c2.56-2.463,6.329-3.187,9.622-1.854c1.077,0.424,2.066,1.059,2.913,1.854   c0.38,0.415,0.733,0.856,1.059,1.315c0.335,0.494,0.6,1.033,0.794,1.598c0.256,0.503,0.433,1.033,0.53,1.589   c0.106,0.583,0.159,1.174,0.177,1.766c0.009,2.348-0.918,4.599-2.56,6.268C300.332,449.306,298.073,450.225,295.724,450.207z"/>
	<path style="fill:#2C3E50;" d="M260.414,450.207c-4.829,0.044-8.783-3.831-8.828-8.66c0-0.053,0-0.115,0-0.168   c0.018-0.591,0.071-1.183,0.177-1.766c0.097-0.556,0.274-1.086,0.53-1.589c0.194-0.565,0.459-1.103,0.794-1.598l1.059-1.315   c3.54-3.266,8.995-3.266,12.535,0c1.624,1.686,2.542,3.928,2.56,6.268c0.018,2.348-0.9,4.608-2.56,6.268   c-0.856,0.777-1.845,1.404-2.913,1.854C262.709,449.951,261.57,450.189,260.414,450.207z"/>
	<path style="fill:#2C3E50;" d="M331.035,485.517c-1.156-0.018-2.295-0.256-3.354-0.706c-2.216-0.803-3.964-2.551-4.767-4.767   c-0.494-1.05-0.733-2.198-0.706-3.354c0.009-1.156,0.247-2.295,0.706-3.354c0.45-1.068,1.077-2.057,1.854-2.913   c3.54-3.266,8.995-3.266,12.535,0c0.777,0.856,1.404,1.845,1.854,2.913c0.945,2.136,0.945,4.573,0,6.709   c-0.45,1.068-1.077,2.057-1.854,2.913C335.643,484.617,333.383,485.535,331.035,485.517z"/>
	<path style="fill:#2C3E50;" d="M295.724,485.517c-2.348,0.018-4.608-0.9-6.268-2.56c-0.777-0.856-1.404-1.845-1.854-2.913   c-0.936-2.136-0.936-4.573,0-6.709c0.803-2.216,2.551-3.964,4.767-4.767c3.284-1.386,7.089-0.653,9.622,1.854   c0.794,0.847,1.43,1.836,1.854,2.913c0.945,2.136,0.945,4.573,0,6.709c-0.45,1.068-1.077,2.057-1.854,2.913   C300.332,484.617,298.073,485.535,295.724,485.517z"/>
	<path style="fill:#2C3E50;" d="M260.414,485.517c-2.348,0.018-4.608-0.9-6.268-2.56c-0.777-0.856-1.404-1.845-1.854-2.913   c-0.936-2.136-0.936-4.573,0-6.709c0.424-1.077,1.059-2.074,1.854-2.913c2.534-2.507,6.338-3.24,9.622-1.854   c2.216,0.803,3.964,2.551,4.767,4.767c0.945,2.136,0.945,4.573,0,6.709c-0.45,1.068-1.077,2.057-1.854,2.913   C265.022,484.617,262.762,485.535,260.414,485.517z"/>
	<path style="fill:#2C3E50;" d="M331.035,273.655c-2.348-0.044-4.599-0.989-6.268-2.648c-1.668-1.615-2.595-3.858-2.56-6.179   c0.035-2.339,0.945-4.573,2.56-6.268c0.856-0.777,1.845-1.404,2.913-1.854c3.293-1.342,7.071-0.618,9.622,1.854   c1.615,1.695,2.525,3.928,2.56,6.268c-0.044,2.313-0.962,4.52-2.56,6.179C335.669,272.728,333.401,273.682,331.035,273.655z"/>
	<path style="fill:#2C3E50;" d="M295.724,273.655c-2.366,0.026-4.634-0.927-6.268-2.648c-1.668-1.615-2.595-3.858-2.56-6.179   c0.035-2.339,0.945-4.573,2.56-6.268c0.83-0.821,1.818-1.448,2.913-1.854c3.293-1.342,7.071-0.618,9.622,1.854   c0.794,0.847,1.43,1.836,1.854,2.913c0.45,1.059,0.689,2.198,0.706,3.354C304.517,269.692,300.588,273.62,295.724,273.655z"/>
	<path style="fill:#2C3E50;" d="M331.035,308.966c-4.829,0.044-8.783-3.831-8.828-8.66c0-0.053,0-0.115,0-0.168   c0-4.873,3.955-8.828,8.828-8.828s8.828,3.955,8.828,8.828c0.018,2.348-0.9,4.608-2.56,6.268c-0.856,0.777-1.845,1.404-2.913,1.854   C333.339,308.754,332.191,308.992,331.035,308.966z"/>
	<path style="fill:#2C3E50;" d="M295.724,308.966c-4.829,0.044-8.783-3.831-8.828-8.66c0-0.053,0-0.115,0-0.168   c0-4.873,3.955-8.828,8.828-8.828c4.873,0,8.828,3.955,8.828,8.828c0.018,2.348-0.9,4.608-2.56,6.268   c-0.856,0.777-1.845,1.404-2.913,1.854C298.028,308.754,296.881,308.992,295.724,308.966z"/>
	<path style="fill:#2C3E50;" d="M331.035,344.276c-4.829,0.044-8.783-3.831-8.828-8.66c-0.009-1.209,0.23-2.41,0.706-3.513   c0.424-1.077,1.059-2.074,1.854-2.913c3.434-3.46,9.022-3.487,12.482-0.053c1.686,1.668,2.622,3.946,2.613,6.321   c0.026,1.156-0.212,2.304-0.706,3.354c-0.45,1.068-1.077,2.057-1.854,2.913C335.643,343.375,333.383,344.294,331.035,344.276z"/>
	<path style="fill:#2C3E50;" d="M295.724,344.276c-4.829,0.044-8.783-3.831-8.828-8.66c-0.009-1.209,0.23-2.41,0.706-3.513   c0.424-1.077,1.059-2.074,1.854-2.913c3.434-3.46,9.022-3.487,12.482-0.053c1.686,1.668,2.622,3.946,2.613,6.321   c0.044,4.829-3.831,8.783-8.66,8.828C295.839,344.276,295.777,344.276,295.724,344.276z"/>
</g>
<path style="fill:#894B9D;" d="M463.449,384c-0.009,12.253-1.766,24.435-5.208,36.193c-12.403,42.002-45.391,74.761-87.481,86.863  c-11.476,3.31-23.367,4.979-35.31,4.943c-70.691,0-128-57.309-128-128s57.309-128,128-128S463.449,313.309,463.449,384L463.449,384z  "/>
<path style="fill:#F0C419;" d="M342.97,458.567c28.734-4.034,50.052-28.716,49.858-57.741v-54.599  c0.018-5.155-4.14-9.34-9.295-9.357c-0.265,0-0.53,0.009-0.803,0.035c-1.395,0.132-2.807,0.203-4.246,0.203  c-18.714,0.194-35.708-10.92-43.034-28.142l0,0c-7.327,17.223-24.32,28.337-43.034,28.142c-1.439,0-2.86-0.071-4.246-0.203  c-5.138-0.424-9.64,3.399-10.063,8.527c-0.018,0.265-0.035,0.53-0.035,0.803v56.532c0.388,31.506,26.244,56.735,57.759,56.346  C338.212,459.07,340.604,458.893,342.97,458.567z"/>
<g>
</g>
<g>
</g>
<g>
</g>
<g>
</g>
<g>
</g>
<g>
</g>
<g>
</g>
<g>
</g>
<g>
</g>
<g>
</g>
<g>
</g>
<g>
</g>
<g>
</g>
<g>
</g>
<g>
</g>
</svg>
