<?xml version="1.0" encoding="iso-8859-1"?>
<!-- Generator: Adobe Illustrator 19.0.0, SVG Export Plug-In . SVG Version: 6.00 Build 0)  -->
<svg xmlns="http://www.w3.org/2000/svg" xmlns:xlink="http://www.w3.org/1999/xlink" version="1.1" id="Layer_1" x="0px" y="0px" viewBox="0 0 512 512" style="enable-background:new 0 0 512 512;" xml:space="preserve">
<path style="fill:#95A5A5;" d="M114.759,0h282.483c9.754,0,17.655,7.901,17.655,17.655v476.69c0,9.754-7.901,17.655-17.655,17.655  H114.759c-9.754,0-17.655-7.901-17.655-17.655V17.655C97.103,7.901,105.004,0,114.759,0z"/>
<path style="fill:#7F8C8D;" d="M167.724,0c0,48.755,39.521,88.276,88.276,88.276S344.276,48.755,344.276,0H167.724z"/>
<g>
	<path style="fill:#547580;" d="M238.345,267.917V141.241c0.026-9.737,7.918-17.629,17.655-17.655   c9.719,0.071,17.585,7.936,17.655,17.655v126.676"/>
	<path style="fill:#547580;" d="M273.655,367.669v91.366c0,9.754-7.901,17.655-17.655,17.655s-17.655-7.901-17.655-17.655v-91.366"/>
</g>
<g>
	<circle style="fill:#2C3E50;" cx="256" cy="317.793" r="52.966"/>
	<path style="fill:#2C3E50;" d="M132.414,132.414c-1.156-0.018-2.295-0.256-3.354-0.706c-2.216-0.803-3.964-2.551-4.767-4.767   c-0.936-2.136-0.936-4.573,0-6.709c0.45-1.068,1.077-2.057,1.854-2.913c3.434-3.46,9.022-3.487,12.482-0.053   c1.686,1.668,2.631,3.946,2.613,6.321c-0.018,1.156-0.256,2.295-0.706,3.354c-0.45,1.068-1.077,2.057-1.854,2.913   c-0.856,0.777-1.845,1.404-2.913,1.854C134.709,132.158,133.57,132.396,132.414,132.414z"/>
	<path style="fill:#2C3E50;" d="M167.724,132.414c-1.156-0.018-2.295-0.256-3.354-0.706c-2.216-0.803-3.964-2.551-4.767-4.767   c-0.936-2.136-0.936-4.573,0-6.709c0.45-1.068,1.077-2.057,1.854-2.913c3.434-3.46,9.022-3.487,12.482-0.053   c1.686,1.668,2.631,3.946,2.613,6.321c-0.018,1.156-0.256,2.295-0.706,3.354c-0.45,1.068-1.077,2.057-1.854,2.913   c-0.856,0.777-1.845,1.404-2.913,1.854C170.019,132.158,168.881,132.396,167.724,132.414z"/>
	<path style="fill:#2C3E50;" d="M203.034,132.414c-2.348,0.018-4.608-0.9-6.268-2.56c-0.777-0.856-1.404-1.845-1.854-2.913   c-0.936-2.136-0.936-4.573,0-6.709c0.424-1.077,1.059-2.074,1.854-2.913c0.415-0.38,0.865-0.733,1.324-1.059   c0.494-0.335,1.024-0.6,1.589-0.794c0.503-0.256,1.033-0.433,1.589-0.538c2.904-0.574,5.914,0.318,8.033,2.392   c1.615,1.695,2.525,3.928,2.56,6.268c-0.018,1.156-0.256,2.295-0.706,3.354c-0.45,1.068-1.077,2.057-1.854,2.913   c-0.856,0.777-1.845,1.404-2.913,1.854C205.33,132.158,204.191,132.396,203.034,132.414z"/>
	<path style="fill:#2C3E50;" d="M132.414,167.724c-1.156,0.026-2.313-0.212-3.354-0.706c-1.068-0.45-2.048-1.077-2.913-1.854   c-2.525-2.525-3.257-6.338-1.854-9.622c0.424-1.077,1.059-2.074,1.854-2.913c0.856-0.777,1.845-1.404,2.913-1.854   c2.145-0.892,4.564-0.892,6.709,0c1.095,0.406,2.083,1.042,2.913,1.854c1.615,1.695,2.525,3.928,2.56,6.268   c-0.009,2.339-0.927,4.59-2.56,6.268c-0.856,0.777-1.845,1.404-2.913,1.854C134.718,167.512,133.57,167.751,132.414,167.724z"/>
	<path style="fill:#2C3E50;" d="M167.724,167.724c-1.156,0.026-2.313-0.212-3.354-0.706c-1.068-0.45-2.048-1.077-2.913-1.854   c-2.525-2.525-3.257-6.338-1.854-9.622c0.803-2.216,2.551-3.964,4.767-4.767c2.145-0.892,4.564-0.892,6.709,0   c1.095,0.406,2.083,1.042,2.913,1.854c1.615,1.695,2.525,3.928,2.56,6.268c-0.009,2.339-0.927,4.59-2.56,6.268   C172.332,166.824,170.072,167.742,167.724,167.724z"/>
	<path style="fill:#2C3E50;" d="M203.034,167.724c-1.156,0.026-2.313-0.212-3.354-0.706c-1.068-0.45-2.048-1.077-2.913-1.854   c-2.525-2.525-3.257-6.338-1.854-9.622c0.803-2.216,2.551-3.964,4.767-4.767c2.145-0.892,4.564-0.892,6.709,0   c1.077,0.424,2.066,1.059,2.913,1.854c1.615,1.695,2.525,3.928,2.56,6.268c0.044,4.829-3.831,8.783-8.66,8.828   C203.149,167.724,203.087,167.724,203.034,167.724z"/>
	<path style="fill:#2C3E50;" d="M132.414,203.034c-2.339-0.018-4.582-0.936-6.268-2.56c-0.777-0.856-1.404-1.845-1.854-2.913   c-0.936-2.136-0.936-4.573,0-6.709c0.45-1.068,1.077-2.057,1.854-2.913c2.534-2.507,6.338-3.24,9.622-1.854   c1.077,0.424,2.066,1.059,2.913,1.854c1.615,1.695,2.525,3.928,2.56,6.268c0.018,2.348-0.9,4.608-2.56,6.268   c-0.856,0.777-1.845,1.404-2.913,1.854C134.709,202.778,133.57,203.017,132.414,203.034z"/>
	<path style="fill:#2C3E50;" d="M167.724,203.034c-1.156-0.018-2.295-0.256-3.354-0.706c-1.068-0.45-2.048-1.077-2.913-1.854   c-2.525-2.525-3.257-6.338-1.854-9.622c0.424-1.077,1.059-2.074,1.854-2.913c0.415-0.38,0.865-0.733,1.324-1.059   c0.494-0.335,1.024-0.6,1.589-0.794c0.53-0.265,1.095-0.45,1.677-0.538c2.878-0.538,5.835,0.353,7.945,2.392   c0.794,0.847,1.43,1.836,1.854,2.913c1.412,3.284,0.671,7.097-1.854,9.622C172.306,202.099,170.063,203.017,167.724,203.034z"/>
	<path style="fill:#2C3E50;" d="M203.034,203.034c-1.156-0.018-2.295-0.256-3.354-0.706c-1.068-0.45-2.048-1.077-2.913-1.854   c-2.525-2.525-3.257-6.338-1.854-9.622c0.424-1.077,1.059-2.074,1.854-2.913c0.856-0.777,1.845-1.404,2.913-1.854   c3.284-1.386,7.089-0.653,9.622,1.854c0.777,0.856,1.404,1.845,1.854,2.913c0.945,2.136,0.945,4.573,0,6.709   c-0.45,1.068-1.077,2.057-1.854,2.913C207.616,202.099,205.374,203.017,203.034,203.034z"/>
	<path style="fill:#2C3E50;" d="M132.414,238.345c-2.348-0.044-4.599-0.989-6.268-2.648c-1.668-1.615-2.595-3.858-2.56-6.179   c0.009-1.156,0.247-2.295,0.706-3.354c0.45-1.068,1.077-2.057,1.854-2.913c3.54-3.266,8.995-3.266,12.535,0   c0.777,0.856,1.404,1.845,1.854,2.913c0.45,1.059,0.689,2.198,0.706,3.354C141.206,234.381,137.278,238.31,132.414,238.345z"/>
	<path style="fill:#2C3E50;" d="M167.724,238.345c-2.366,0.026-4.634-0.927-6.268-2.648c-0.794-0.812-1.43-1.774-1.854-2.825   c-0.936-2.136-0.936-4.573,0-6.709c0.45-1.068,1.077-2.057,1.854-2.913c3.54-3.266,8.995-3.266,12.535,0   c0.777,0.856,1.404,1.845,1.854,2.913c0.945,2.136,0.945,4.573,0,6.709C174.46,236.147,171.273,238.292,167.724,238.345z"/>
	<path style="fill:#2C3E50;" d="M203.034,238.345c-2.348-0.044-4.599-0.989-6.268-2.648c-1.668-1.615-2.595-3.858-2.56-6.179   c0.009-1.156,0.247-2.295,0.706-3.354c0.803-2.216,2.551-3.964,4.767-4.767c3.293-1.377,7.08-0.644,9.622,1.854   c0.777,0.856,1.404,1.845,1.854,2.913c0.45,1.059,0.689,2.198,0.706,3.354C211.827,234.381,207.898,238.31,203.034,238.345z"/>
	<path style="fill:#2C3E50;" d="M132.414,379.586c-4.829,0.044-8.783-3.831-8.828-8.66c-0.009-1.209,0.23-2.41,0.706-3.513   c0.424-1.077,1.059-2.074,1.854-2.913c3.328-3.46,8.836-3.566,12.297-0.238c0.918,0.883,1.633,1.96,2.083,3.151   c1.898,4.44-0.159,9.578-4.59,11.476C134.824,379.357,133.623,379.595,132.414,379.586z"/>
	<path style="fill:#2C3E50;" d="M167.724,379.586c-4.829,0.044-8.783-3.831-8.828-8.66c-0.009-1.209,0.23-2.41,0.706-3.513   c0.424-1.077,1.059-2.074,1.854-2.913c3.328-3.46,8.836-3.566,12.297-0.238c0.918,0.883,1.633,1.96,2.083,3.151   c1.412,3.284,0.68,7.097-1.854,9.622c-0.856,0.777-1.845,1.404-2.913,1.854C170.019,379.33,168.881,379.569,167.724,379.586z"/>
	<path style="fill:#2C3E50;" d="M132.414,414.897c-2.348,0.018-4.608-0.9-6.268-2.56c-1.651-1.668-2.569-3.919-2.56-6.268   c0.035-2.339,0.945-4.573,2.56-6.268c0.856-0.777,1.845-1.404,2.913-1.854c2.145-0.892,4.564-0.892,6.709,0   c1.068,0.45,2.057,1.077,2.913,1.854c1.615,1.695,2.525,3.928,2.56,6.268c0.009,2.348-0.918,4.599-2.56,6.268   C137.022,413.996,134.762,414.914,132.414,414.897z"/>
	<path style="fill:#2C3E50;" d="M167.724,414.897c-4.829,0.044-8.783-3.831-8.828-8.66c0-0.053,0-0.115,0-0.168   c0-4.873,3.955-8.828,8.828-8.828s8.828,3.955,8.828,8.828c0.044,4.829-3.831,8.783-8.66,8.828   C167.839,414.897,167.777,414.897,167.724,414.897z"/>
	<path style="fill:#2C3E50;" d="M203.034,414.897c-1.156-0.018-2.295-0.256-3.354-0.706c-1.068-0.45-2.048-1.077-2.913-1.854   c-1.66-1.66-2.587-3.919-2.56-6.268c0-4.873,3.955-8.828,8.828-8.828c4.873,0,8.828,3.955,8.828,8.828   c0.044,4.829-3.831,8.783-8.66,8.828C203.149,414.897,203.087,414.897,203.034,414.897z"/>
	<path style="fill:#2C3E50;" d="M132.414,450.207c-4.829,0.044-8.783-3.831-8.828-8.66c0-0.053,0-0.115,0-0.168   c0.018-2.339,0.936-4.582,2.56-6.268c2.56-2.463,6.329-3.187,9.622-1.854c1.068,0.45,2.057,1.077,2.913,1.854   c0.353,0.441,0.706,0.883,1.059,1.315c0.335,0.494,0.6,1.033,0.794,1.598c0.256,0.503,0.433,1.033,0.53,1.589   c0.106,0.583,0.159,1.174,0.177,1.766c0.009,2.348-0.918,4.599-2.56,6.268C137.022,449.306,134.762,450.225,132.414,450.207z"/>
	<path style="fill:#2C3E50;" d="M167.724,450.207c-2.348,0.018-4.608-0.9-6.268-2.56c-1.651-1.668-2.569-3.919-2.56-6.268   c0.018-0.591,0.071-1.183,0.177-1.766c0.097-0.556,0.274-1.086,0.53-1.589c0.194-0.565,0.459-1.103,0.794-1.598l1.059-1.315   c3.54-3.266,8.995-3.266,12.535,0c1.624,1.686,2.542,3.928,2.56,6.268c0.044,4.829-3.831,8.783-8.66,8.828   C167.839,450.207,167.777,450.207,167.724,450.207z"/>
	<path style="fill:#2C3E50;" d="M203.034,450.207c-4.829,0.044-8.783-3.831-8.828-8.66c0-0.053,0-0.115,0-0.168   c0.018-2.339,0.936-4.582,2.56-6.268c2.534-2.507,6.338-3.24,9.622-1.854c1.077,0.424,2.066,1.059,2.913,1.854   c0.38,0.415,0.733,0.856,1.059,1.315c0.335,0.494,0.6,1.033,0.794,1.598c0.256,0.503,0.433,1.033,0.53,1.589   c0.106,0.583,0.159,1.174,0.177,1.766c0.009,2.348-0.918,4.599-2.56,6.268C207.642,449.306,205.383,450.225,203.034,450.207z"/>
	<path style="fill:#2C3E50;" d="M132.414,485.517c-2.348,0.018-4.608-0.9-6.268-2.56c-0.777-0.856-1.404-1.845-1.854-2.913   c-0.936-2.136-0.936-4.573,0-6.709c0.803-2.216,2.551-3.964,4.767-4.767c3.284-1.386,7.089-0.653,9.622,1.854   c0.794,0.847,1.43,1.836,1.854,2.913c0.945,2.136,0.945,4.573,0,6.709c-0.45,1.068-1.077,2.057-1.854,2.913   C137.022,484.617,134.762,485.535,132.414,485.517z"/>
	<path style="fill:#2C3E50;" d="M167.724,485.517c-2.348,0.018-4.608-0.9-6.268-2.56c-0.777-0.856-1.404-1.845-1.854-2.913   c-0.936-2.136-0.936-4.573,0-6.709c0.45-1.068,1.077-2.057,1.854-2.913c3.54-3.266,8.995-3.266,12.535,0   c0.777,0.856,1.404,1.845,1.854,2.913c0.945,2.136,0.945,4.573,0,6.709c-0.45,1.068-1.077,2.057-1.854,2.913   c-0.856,0.777-1.845,1.404-2.913,1.854C170.019,485.261,168.881,485.5,167.724,485.517z"/>
	<path style="fill:#2C3E50;" d="M203.034,485.517c-2.348,0.018-4.608-0.9-6.268-2.56c-0.777-0.856-1.404-1.845-1.854-2.913   c-0.936-2.136-0.936-4.573,0-6.709c0.424-1.077,1.059-2.074,1.854-2.913c2.534-2.507,6.338-3.24,9.622-1.854   c2.216,0.803,3.964,2.551,4.767,4.767c0.945,2.136,0.945,4.573,0,6.709c-0.45,1.068-1.077,2.057-1.854,2.913   C207.642,484.617,205.383,485.535,203.034,485.517z"/>
	<path style="fill:#2C3E50;" d="M132.414,273.655c-2.366,0.026-4.634-0.927-6.268-2.648c-1.668-1.615-2.595-3.858-2.56-6.179   c0-4.873,3.955-8.828,8.828-8.828c4.873,0,8.828,3.955,8.828,8.828c0.035,2.322-0.892,4.564-2.56,6.179   C137.004,272.658,134.762,273.611,132.414,273.655z"/>
	<path style="fill:#2C3E50;" d="M167.724,273.655c-3.566-0.009-6.78-2.172-8.121-5.473c-0.494-1.05-0.733-2.198-0.706-3.354   c0.035-2.339,0.945-4.573,2.56-6.268c0.839-0.794,1.827-1.43,2.913-1.854c3.284-1.386,7.089-0.653,9.622,1.854   c0.794,0.847,1.43,1.836,1.854,2.913c0.45,1.059,0.689,2.198,0.706,3.354C176.516,269.692,172.588,273.62,167.724,273.655z"/>
	<path style="fill:#2C3E50;" d="M132.414,308.966c-4.829,0.044-8.783-3.831-8.828-8.66c0-0.053,0-0.115,0-0.168   c0.035-2.339,0.945-4.573,2.56-6.268c0.856-0.777,1.845-1.404,2.913-1.854c3.284-1.386,7.089-0.653,9.622,1.854   c1.615,1.695,2.525,3.928,2.56,6.268c0.026,1.156-0.212,2.304-0.706,3.354c-0.45,1.068-1.077,2.057-1.854,2.913   c-0.856,0.777-1.845,1.404-2.913,1.854C134.718,308.754,133.57,308.992,132.414,308.966z"/>
	<path style="fill:#2C3E50;" d="M167.724,308.966c-4.829,0.044-8.783-3.831-8.828-8.66c0-0.053,0-0.115,0-0.168   c0-4.873,3.955-8.828,8.828-8.828s8.828,3.955,8.828,8.828c0.044,4.829-3.831,8.783-8.66,8.828   C167.839,308.966,167.777,308.966,167.724,308.966z"/>
	<path style="fill:#2C3E50;" d="M132.414,344.276c-4.829,0.044-8.783-3.831-8.828-8.66c-0.009-1.209,0.23-2.41,0.706-3.513   c0.424-1.077,1.059-2.074,1.854-2.913c3.328-3.46,8.836-3.566,12.297-0.238c0.918,0.883,1.633,1.96,2.083,3.151   c1.898,4.44-0.159,9.578-4.59,11.476C134.824,344.046,133.623,344.285,132.414,344.276z"/>
	<path style="fill:#2C3E50;" d="M167.724,344.276c-4.829,0.044-8.783-3.831-8.828-8.66c-0.009-1.209,0.23-2.41,0.706-3.513   c0.424-1.077,1.059-2.074,1.854-2.913c2.534-2.507,6.338-3.24,9.622-1.854c1.068,0.45,2.057,1.077,2.913,1.854   c0.794,0.847,1.43,1.836,1.854,2.913c1.898,4.44-0.159,9.578-4.59,11.476C170.134,344.046,168.934,344.285,167.724,344.276z"/>
	<path style="fill:#2C3E50;" d="M379.586,132.414c-1.156-0.018-2.295-0.256-3.354-0.706c-2.216-0.803-3.964-2.551-4.767-4.767   c-0.494-1.05-0.733-2.198-0.706-3.354c0.035-2.339,0.945-4.573,2.56-6.268c0.83-0.821,1.818-1.448,2.913-1.854   c1.607-0.706,3.399-0.892,5.12-0.538c0.556,0.097,1.086,0.282,1.589,0.538c0.565,0.194,1.103,0.459,1.589,0.794   c0.459,0.327,0.9,0.68,1.324,1.059c1.615,1.695,2.525,3.928,2.56,6.268c0.026,1.156-0.212,2.304-0.706,3.354   c-0.45,1.068-1.077,2.057-1.854,2.913C384.194,131.513,381.934,132.431,379.586,132.414z"/>
	<path style="fill:#2C3E50;" d="M344.276,132.414c-2.348,0.018-4.608-0.9-6.268-2.56c-0.777-0.856-1.404-1.845-1.854-2.913   c-0.459-1.059-0.697-2.198-0.706-3.354c0.035-2.339,0.945-4.573,2.56-6.268c2.11-2.083,5.12-2.975,8.033-2.392   c0.556,0.097,1.086,0.282,1.589,0.538c0.565,0.194,1.103,0.459,1.589,0.794c0.459,0.327,0.9,0.68,1.324,1.059   c1.615,1.695,2.525,3.928,2.56,6.268c-0.018,1.156-0.256,2.295-0.706,3.354c-0.45,1.068-1.077,2.057-1.854,2.913   C348.884,131.513,346.624,132.431,344.276,132.414z"/>
	<path style="fill:#2C3E50;" d="M132.414,97.103c-2.348,0.018-4.608-0.9-6.268-2.56c-0.777-0.856-1.404-1.845-1.854-2.913   c-0.936-2.136-0.936-4.573,0-6.709c0.803-2.216,2.551-3.964,4.767-4.767c2.145-0.892,4.564-0.892,6.709,0   c1.068,0.45,2.057,1.077,2.913,1.854c1.607,1.695,2.525,3.928,2.56,6.268c0.044,4.829-3.831,8.783-8.66,8.828   C132.529,97.103,132.467,97.103,132.414,97.103z"/>
	<path style="fill:#2C3E50;" d="M167.724,97.103c-2.348,0.018-4.608-0.9-6.268-2.56c-0.777-0.856-1.404-1.845-1.854-2.913   c-0.936-2.136-0.936-4.573,0-6.709c0.424-1.077,1.059-2.074,1.854-2.913c0.856-0.777,1.845-1.404,2.913-1.854   c2.145-0.892,4.564-0.892,6.709,0c2.216,0.803,3.964,2.551,4.767,4.767c0.945,2.136,0.945,4.573,0,6.709   c-0.45,1.068-1.077,2.057-1.854,2.913c-0.856,0.777-1.845,1.404-2.913,1.854C170.019,96.847,168.881,97.086,167.724,97.103z"/>
	<path style="fill:#2C3E50;" d="M379.586,97.103c-1.156-0.018-2.295-0.256-3.354-0.706c-1.068-0.45-2.048-1.077-2.913-1.854   c-1.66-1.66-2.586-3.919-2.56-6.268c0.035-2.339,0.945-4.573,2.56-6.268c0.83-0.821,1.818-1.448,2.913-1.854   c2.145-0.892,4.564-0.892,6.709,0c1.095,0.406,2.083,1.042,2.913,1.854c1.607,1.695,2.525,3.928,2.56,6.268   c0.018,2.348-0.9,4.608-2.56,6.268C384.185,96.185,381.934,97.112,379.586,97.103z"/>
	<path style="fill:#2C3E50;" d="M132.414,61.793c-2.348,0.018-4.608-0.9-6.268-2.56c-0.777-0.856-1.404-1.845-1.854-2.913   c-0.936-2.136-0.936-4.573,0-6.709c0.424-1.077,1.059-2.074,1.854-2.913c0.856-0.777,1.845-1.404,2.913-1.854   c1.607-0.706,3.399-0.892,5.12-0.538c0.556,0.097,1.086,0.282,1.589,0.538c0.565,0.194,1.103,0.459,1.589,0.794   c0.459,0.327,0.9,0.68,1.324,1.059c1.615,1.695,2.525,3.928,2.56,6.268c0.044,4.829-3.831,8.783-8.66,8.828   C132.529,61.793,132.467,61.793,132.414,61.793z"/>
	<path style="fill:#2C3E50;" d="M379.586,61.793c-1.156-0.018-2.295-0.256-3.354-0.706c-1.068-0.45-2.057-1.077-2.913-1.854   c-0.777-0.856-1.404-1.845-1.854-2.913c-0.936-2.136-0.936-4.573,0-6.709c0.803-2.216,2.551-3.964,4.767-4.767   c3.284-1.386,7.089-0.653,9.622,1.854c1.615,1.695,2.525,3.928,2.56,6.268c-0.018,1.156-0.256,2.295-0.706,3.354   c-0.415,1.086-1.05,2.074-1.854,2.913c-0.856,0.777-1.845,1.404-2.913,1.854C381.881,61.537,380.743,61.775,379.586,61.793z"/>
	<path style="fill:#2C3E50;" d="M344.276,97.103c-4.829,0.044-8.783-3.831-8.828-8.66c0-0.053,0-0.115,0-0.168   c0.035-2.339,0.945-4.573,2.56-6.268c0.415-0.38,0.856-0.733,1.324-1.059c0.494-0.335,1.024-0.6,1.589-0.794   c0.503-0.256,1.033-0.433,1.589-0.538c1.721-0.353,3.513-0.168,5.12,0.538c2.216,0.803,3.964,2.551,4.767,4.767   c0.945,2.136,0.945,4.573,0,6.709c-0.45,1.068-1.077,2.057-1.854,2.913c-0.856,0.777-1.845,1.404-2.913,1.854   C346.571,96.847,345.432,97.086,344.276,97.103z"/>
	<path style="fill:#2C3E50;" d="M308.966,132.414c-1.156-0.018-2.295-0.256-3.354-0.706c-2.216-0.803-3.964-2.551-4.767-4.767   c-0.459-1.059-0.697-2.198-0.706-3.354c0.035-2.339,0.945-4.573,2.56-6.268c0.415-0.38,0.856-0.733,1.324-1.059   c0.494-0.335,1.024-0.6,1.589-0.794c0.53-0.265,1.095-0.45,1.677-0.538c2.878-0.574,5.862,0.318,7.945,2.392   c1.615,1.695,2.525,3.928,2.56,6.268c-0.018,1.156-0.256,2.295-0.706,3.354c-0.45,1.068-1.077,2.057-1.854,2.913   C313.574,131.513,311.314,132.431,308.966,132.414z"/>
	<path style="fill:#2C3E50;" d="M379.586,167.724c-1.156,0.026-2.313-0.212-3.354-0.706c-1.068-0.45-2.048-1.077-2.913-1.854   c-2.525-2.525-3.257-6.338-1.854-9.622c1.518-3.981,5.729-6.241,9.887-5.305c0.556,0.097,1.086,0.282,1.589,0.538   c0.565,0.194,1.103,0.459,1.589,0.794c0.459,0.327,0.9,0.68,1.324,1.059c1.615,1.695,2.525,3.928,2.56,6.268   c0.044,4.829-3.831,8.783-8.66,8.828C379.701,167.724,379.639,167.724,379.586,167.724z"/>
	<path style="fill:#2C3E50;" d="M344.276,167.724c-1.156,0.026-2.313-0.212-3.354-0.706c-1.068-0.45-2.048-1.077-2.913-1.854   c-1.66-1.66-2.586-3.919-2.56-6.268c0.035-2.339,0.945-4.573,2.56-6.268c3.513-3.328,9.022-3.328,12.535,0   c1.615,1.695,2.525,3.928,2.56,6.268c0.044,4.829-3.831,8.783-8.66,8.828C344.391,167.724,344.329,167.724,344.276,167.724z"/>
	<path style="fill:#2C3E50;" d="M308.966,167.724c-1.156,0.026-2.313-0.212-3.354-0.706c-1.068-0.45-2.048-1.077-2.913-1.854   c-1.66-1.66-2.586-3.919-2.56-6.268c0.035-2.339,0.945-4.573,2.56-6.268c2.534-2.507,6.338-3.24,9.622-1.854   c1.068,0.45,2.057,1.077,2.913,1.854c0.794,0.847,1.43,1.836,1.854,2.913c1.412,3.284,0.671,7.097-1.854,9.622   c-0.856,0.777-1.845,1.404-2.913,1.854C311.27,167.512,310.122,167.751,308.966,167.724z"/>
	<path style="fill:#2C3E50;" d="M379.586,203.034c-1.156-0.018-2.295-0.256-3.354-0.706c-1.077-0.424-2.066-1.059-2.913-1.854   c-0.777-0.856-1.404-1.845-1.854-2.913c-0.494-1.05-0.733-2.198-0.706-3.354c0.035-2.339,0.945-4.573,2.56-6.268   c0.83-0.821,1.818-1.448,2.913-1.854c2.145-0.892,4.564-0.892,6.709,0c1.077,0.424,2.066,1.059,2.913,1.854   c1.615,1.695,2.525,3.928,2.56,6.268c0.018,2.348-0.9,4.608-2.56,6.268c-0.856,0.777-1.845,1.404-2.913,1.854   C381.881,202.778,380.743,203.017,379.586,203.034z"/>
	<path style="fill:#2C3E50;" d="M344.276,203.034c-1.156-0.018-2.295-0.256-3.354-0.706c-1.068-0.45-2.048-1.077-2.913-1.854   c-1.66-1.66-2.586-3.919-2.56-6.268c0.035-2.339,0.945-4.573,2.56-6.268c3.513-3.328,9.022-3.328,12.535,0   c0.777,0.856,1.404,1.845,1.854,2.913c0.945,2.136,0.945,4.573,0,6.709c-0.45,1.068-1.077,2.057-1.854,2.913   C348.857,202.099,346.615,203.017,344.276,203.034z"/>
	<path style="fill:#2C3E50;" d="M308.966,203.034c-1.156-0.018-2.295-0.256-3.354-0.706c-1.068-0.45-2.048-1.077-2.913-1.854   c-2.525-2.525-3.257-6.338-1.854-9.622c0.424-1.077,1.059-2.074,1.854-2.913c0.856-0.777,1.845-1.404,2.913-1.854   c1.607-0.706,3.399-0.892,5.12-0.538c0.556,0.097,1.086,0.282,1.589,0.538c0.565,0.194,1.103,0.459,1.589,0.794   c0.459,0.327,0.9,0.68,1.324,1.059c0.777,0.856,1.404,1.845,1.854,2.913c0.494,1.05,0.733,2.198,0.706,3.354   c0.018,1.148-0.194,2.286-0.618,3.354c-0.512,1.05-1.165,2.03-1.942,2.913C313.547,202.099,311.305,203.017,308.966,203.034z"/>
	<path style="fill:#2C3E50;" d="M379.586,238.345c-2.348-0.044-4.599-0.989-6.268-2.648c-1.668-1.615-2.595-3.858-2.56-6.179   c0.009-1.156,0.247-2.295,0.706-3.354c0.45-1.068,1.077-2.057,1.854-2.913c2.119-2.074,5.12-2.966,8.033-2.392   c0.556,0.097,1.086,0.282,1.589,0.538c0.565,0.194,1.103,0.459,1.589,0.794c0.459,0.327,0.9,0.68,1.324,1.059   c0.777,0.856,1.404,1.845,1.854,2.913c0.45,1.059,0.689,2.198,0.706,3.354C388.378,234.381,384.45,238.31,379.586,238.345z"/>
	<path style="fill:#2C3E50;" d="M344.276,238.345c-2.366,0.026-4.634-0.927-6.268-2.648c-1.668-1.615-2.595-3.858-2.56-6.179   c0.009-1.156,0.247-2.295,0.706-3.354c0.45-1.068,1.077-2.057,1.854-2.913c3.54-3.266,8.995-3.266,12.535,0   c0.777,0.856,1.404,1.845,1.854,2.913c0.45,1.059,0.689,2.198,0.706,3.354c0.026,1.156-0.212,2.304-0.706,3.354   C351.011,236.147,347.825,238.292,344.276,238.345z"/>
	<path style="fill:#2C3E50;" d="M308.966,238.345c-4.829,0.044-8.783-3.831-8.828-8.66c-0.009-1.209,0.23-2.41,0.706-3.513   c0.45-1.068,1.077-2.057,1.854-2.913c3.54-3.266,8.995-3.266,12.535,0c0.777,0.856,1.404,1.845,1.854,2.913   c0.945,2.136,0.945,4.573,0,6.709c-0.433,1.05-1.059,2.013-1.854,2.825C313.6,237.418,311.331,238.371,308.966,238.345z"/>
	<path style="fill:#2C3E50;" d="M379.586,379.586c-2.348,0.018-4.608-0.9-6.268-2.56c-1.651-1.668-2.569-3.919-2.56-6.268   c-0.026-1.156,0.212-2.304,0.706-3.354c0.45-1.068,1.077-2.057,1.854-2.913c3.328-3.46,8.836-3.566,12.297-0.238   c0.918,0.883,1.633,1.96,2.083,3.151c1.898,4.44-0.159,9.578-4.59,11.476C381.996,379.357,380.796,379.595,379.586,379.586z"/>
	<path style="fill:#2C3E50;" d="M344.276,379.586c-2.348,0.018-4.608-0.9-6.268-2.56c-2.525-2.525-3.257-6.338-1.854-9.622   c0.803-2.216,2.551-3.964,4.767-4.767c2.127-0.971,4.582-0.971,6.709,0c2.216,0.803,3.964,2.551,4.767,4.767   c1.898,4.44-0.159,9.578-4.59,11.476C346.686,379.357,345.485,379.595,344.276,379.586z"/>
	<path style="fill:#2C3E50;" d="M379.586,414.897c-4.829,0.044-8.783-3.831-8.828-8.66c0-0.053,0-0.115,0-0.168   c0.035-2.339,0.945-4.573,2.56-6.268c2.56-2.472,6.329-3.196,9.622-1.854c1.068,0.45,2.057,1.077,2.913,1.854   c1.615,1.695,2.525,3.928,2.56,6.268c0.044,4.829-3.831,8.783-8.66,8.828C379.701,414.897,379.639,414.897,379.586,414.897z"/>
	<path style="fill:#2C3E50;" d="M344.276,414.897c-2.348,0.018-4.608-0.9-6.268-2.56c-1.651-1.668-2.569-3.919-2.56-6.268   c0-4.873,3.955-8.828,8.828-8.828c4.873,0,8.828,3.955,8.828,8.828c0.009,2.348-0.918,4.599-2.56,6.268   C348.884,413.996,346.624,414.914,344.276,414.897z"/>
	<path style="fill:#2C3E50;" d="M308.966,414.897c-4.829,0.044-8.783-3.831-8.828-8.66c0-0.053,0-0.115,0-0.168   c0-4.873,3.955-8.828,8.828-8.828s8.828,3.955,8.828,8.828c0.018,2.348-0.9,4.608-2.56,6.268c-0.856,0.777-1.845,1.404-2.913,1.854   C311.261,414.641,310.122,414.879,308.966,414.897z"/>
	<path style="fill:#2C3E50;" d="M379.586,450.207c-1.156-0.018-2.295-0.256-3.354-0.706c-1.068-0.45-2.048-1.077-2.913-1.854   c-1.66-1.66-2.586-3.919-2.56-6.268c0.018-0.591,0.071-1.183,0.177-1.766c0.097-0.556,0.274-1.086,0.53-1.589   c0.194-0.565,0.459-1.103,0.794-1.598l1.059-1.315c3.54-3.266,8.995-3.266,12.535,0c1.624,1.686,2.542,3.928,2.56,6.268   c0.018,2.348-0.9,4.608-2.56,6.268c-0.856,0.777-1.845,1.404-2.913,1.854C381.881,449.951,380.743,450.189,379.586,450.207z"/>
	<path style="fill:#2C3E50;" d="M344.276,450.207c-4.829,0.044-8.783-3.831-8.828-8.66c0-0.053,0-0.115,0-0.168   c0.018-2.339,0.936-4.582,2.56-6.268c2.56-2.463,6.329-3.187,9.622-1.854c1.077,0.424,2.066,1.059,2.913,1.854   c0.38,0.415,0.733,0.856,1.059,1.315c0.335,0.494,0.6,1.033,0.794,1.598c0.256,0.503,0.433,1.033,0.53,1.589   c0.106,0.583,0.159,1.174,0.177,1.766c0.009,2.348-0.918,4.599-2.56,6.268C348.884,449.306,346.624,450.225,344.276,450.207z"/>
	<path style="fill:#2C3E50;" d="M308.966,450.207c-4.829,0.044-8.783-3.831-8.828-8.66c0-0.053,0-0.115,0-0.168   c0.018-0.591,0.071-1.183,0.177-1.766c0.097-0.556,0.274-1.086,0.53-1.589c0.194-0.565,0.459-1.103,0.794-1.598l1.059-1.315   c3.54-3.266,8.995-3.266,12.535,0c1.624,1.686,2.542,3.928,2.56,6.268c0.018,2.348-0.9,4.608-2.56,6.268   c-0.856,0.777-1.845,1.404-2.913,1.854C311.261,449.951,310.122,450.189,308.966,450.207z"/>
	<path style="fill:#2C3E50;" d="M379.586,485.517c-1.156-0.018-2.295-0.256-3.354-0.706c-2.216-0.803-3.964-2.551-4.767-4.767   c-0.494-1.05-0.733-2.198-0.706-3.354c0.009-1.156,0.247-2.295,0.706-3.354c0.45-1.068,1.077-2.057,1.854-2.913   c3.54-3.266,8.995-3.266,12.535,0c0.777,0.856,1.404,1.845,1.854,2.913c0.945,2.136,0.945,4.573,0,6.709   c-0.45,1.068-1.077,2.057-1.854,2.913C384.194,484.617,381.934,485.535,379.586,485.517z"/>
	<path style="fill:#2C3E50;" d="M344.276,485.517c-2.348,0.018-4.608-0.9-6.268-2.56c-0.777-0.856-1.404-1.845-1.854-2.913   c-0.936-2.136-0.936-4.573,0-6.709c0.803-2.216,2.551-3.964,4.767-4.767c3.284-1.386,7.089-0.653,9.622,1.854   c0.794,0.847,1.43,1.836,1.854,2.913c0.945,2.136,0.945,4.573,0,6.709c-0.45,1.068-1.077,2.057-1.854,2.913   C348.884,484.617,346.624,485.535,344.276,485.517z"/>
	<path style="fill:#2C3E50;" d="M308.966,485.517c-2.348,0.018-4.608-0.9-6.268-2.56c-0.777-0.856-1.404-1.845-1.854-2.913   c-0.936-2.136-0.936-4.573,0-6.709c0.424-1.077,1.059-2.074,1.854-2.913c2.534-2.507,6.338-3.24,9.622-1.854   c2.216,0.803,3.964,2.551,4.767,4.767c0.945,2.136,0.945,4.573,0,6.709c-0.45,1.068-1.077,2.057-1.854,2.913   C313.574,484.617,311.314,485.535,308.966,485.517z"/>
	<path style="fill:#2C3E50;" d="M379.586,273.655c-2.348-0.044-4.599-0.989-6.268-2.648c-1.668-1.615-2.595-3.858-2.56-6.179   c0.035-2.339,0.945-4.573,2.56-6.268c0.856-0.777,1.845-1.404,2.913-1.854c3.293-1.342,7.071-0.618,9.622,1.854   c1.615,1.695,2.525,3.928,2.56,6.268c-0.044,2.313-0.962,4.52-2.56,6.179C384.221,272.728,381.952,273.682,379.586,273.655z"/>
	<path style="fill:#2C3E50;" d="M344.276,273.655c-2.366,0.026-4.634-0.927-6.268-2.648c-1.668-1.615-2.595-3.858-2.56-6.179   c0.035-2.339,0.945-4.573,2.56-6.268c0.83-0.821,1.819-1.448,2.913-1.854c3.293-1.342,7.071-0.618,9.622,1.854   c0.794,0.847,1.43,1.836,1.854,2.913c0.45,1.059,0.689,2.198,0.706,3.354C353.068,269.692,349.14,273.62,344.276,273.655z"/>
	<path style="fill:#2C3E50;" d="M379.586,308.966c-4.829,0.044-8.783-3.831-8.828-8.66c0-0.053,0-0.115,0-0.168   c0-4.873,3.955-8.828,8.828-8.828s8.828,3.955,8.828,8.828c0.018,2.348-0.9,4.608-2.56,6.268c-0.856,0.777-1.845,1.404-2.913,1.854   C381.89,308.754,380.743,308.992,379.586,308.966z"/>
	<path style="fill:#2C3E50;" d="M344.276,308.966c-4.829,0.044-8.783-3.831-8.828-8.66c0-0.053,0-0.115,0-0.168   c0-4.873,3.955-8.828,8.828-8.828c4.873,0,8.828,3.955,8.828,8.828c0.018,2.348-0.9,4.608-2.56,6.268   c-0.856,0.777-1.845,1.404-2.913,1.854C346.58,308.754,345.432,308.992,344.276,308.966z"/>
	<path style="fill:#2C3E50;" d="M379.586,344.276c-4.829,0.044-8.783-3.831-8.828-8.66c-0.009-1.209,0.23-2.41,0.706-3.513   c0.424-1.077,1.059-2.074,1.854-2.913c3.434-3.46,9.022-3.487,12.482-0.053c1.686,1.66,2.631,3.937,2.613,6.312   c0.026,1.156-0.212,2.304-0.706,3.354c-0.45,1.068-1.077,2.057-1.854,2.913C384.194,343.375,381.934,344.294,379.586,344.276z"/>
	<path style="fill:#2C3E50;" d="M344.276,344.276c-4.829,0.044-8.783-3.831-8.828-8.66c-0.009-1.209,0.23-2.41,0.706-3.513   c0.424-1.077,1.059-2.074,1.854-2.913c3.434-3.46,9.022-3.487,12.482-0.053c1.686,1.66,2.631,3.937,2.613,6.312   c0.044,4.829-3.831,8.783-8.66,8.828C344.391,344.276,344.329,344.276,344.276,344.276z"/>
</g>
<g>
</g>
<g>
</g>
<g>
</g>
<g>
</g>
<g>
</g>
<g>
</g>
<g>
</g>
<g>
</g>
<g>
</g>
<g>
</g>
<g>
</g>
<g>
</g>
<g>
</g>
<g>
</g>
<g>
</g>
</svg>
