<?xml version="1.0" encoding="iso-8859-1"?>
<!-- Generator: Adobe Illustrator 19.0.0, SVG Export Plug-In . SVG Version: 6.00 Build 0)  -->
<svg xmlns="http://www.w3.org/2000/svg" xmlns:xlink="http://www.w3.org/1999/xlink" version="1.1" id="Layer_1" x="0px" y="0px" viewBox="0 0 512 512" style="enable-background:new 0 0 512 512;" xml:space="preserve">
<path style="fill:#2C3E50;" d="M446.649,116.268c-3.354-3.769-8.157-5.923-13.197-5.923H78.548c-5.041,0-9.843,2.154-13.197,5.923  L0,189.793V384c0,9.754,7.901,17.655,17.655,17.655h476.69c9.754,0,17.655-7.901,17.655-17.655V189.793L446.649,116.268z"/>
<path style="fill:#285680;" d="M0,189.793h512l0,0V384c0,9.754-7.901,17.655-17.655,17.655H17.655C7.901,401.655,0,393.754,0,384  V189.793L0,189.793z"/>
<rect y="220.69" style="fill:#90BAE1;" width="512" height="150.069"/>
<g>
	<polygon style="fill:#2C3E50;" points="70.621,260.414 70.621,278.069 97.103,278.069 97.103,260.414 123.586,260.414    123.586,331.034 44.138,331.034 44.138,260.414  "/>
	<polygon style="fill:#2C3E50;" points="185.379,260.414 185.379,278.069 211.862,278.069 211.862,260.414 238.345,260.414    238.345,331.034 158.897,331.034 158.897,260.414  "/>
	<polygon style="fill:#2C3E50;" points="300.138,260.414 300.138,278.069 326.621,278.069 326.621,260.414 353.103,260.414    353.103,331.034 273.655,331.034 273.655,260.414  "/>
	<polygon style="fill:#2C3E50;" points="414.897,260.414 414.897,278.069 441.379,278.069 441.379,260.414 467.862,260.414    467.862,331.034 388.414,331.034 388.414,260.414  "/>
</g>
<g>
</g>
<g>
</g>
<g>
</g>
<g>
</g>
<g>
</g>
<g>
</g>
<g>
</g>
<g>
</g>
<g>
</g>
<g>
</g>
<g>
</g>
<g>
</g>
<g>
</g>
<g>
</g>
<g>
</g>
</svg>
