<?xml version="1.0" encoding="iso-8859-1"?>
<!-- Generator: Adobe Illustrator 19.0.0, SVG Export Plug-In . SVG Version: 6.00 Build 0)  -->
<svg xmlns="http://www.w3.org/2000/svg" xmlns:xlink="http://www.w3.org/1999/xlink" version="1.1" id="Layer_1" x="0px" y="0px" viewBox="0 0 512 512" style="enable-background:new 0 0 512 512;" xml:space="preserve">
<path style="fill:#2C2F38;" d="M158.897,0h194.207c19.5,0,35.31,15.81,35.31,35.31V476.69c0,19.5-15.81,35.31-35.31,35.31H158.897  c-19.5,0-35.31-15.81-35.31-35.31V35.31C123.586,15.81,139.396,0,158.897,0z"/>
<rect x="123.586" y="70.621" style="fill:#3F5C6C;" width="264.828" height="335.448"/>
<g>
	<circle style="fill:#464F5D;" cx="256" cy="459.034" r="17.655"/>
	<path style="fill:#464F5D;" d="M220.69,44.138c-4.829,0.044-8.783-3.831-8.828-8.66c-0.009-1.209,0.23-2.41,0.706-3.513   c0.424-1.077,1.059-2.074,1.854-2.913c0.856-0.777,1.845-1.404,2.913-1.854c3.284-1.386,7.089-0.653,9.622,1.854   c0.794,0.847,1.43,1.836,1.854,2.913c1.898,4.44-0.159,9.578-4.59,11.476C223.1,43.908,221.899,44.147,220.69,44.138z"/>
	<path style="fill:#464F5D;" d="M291.31,44.138H256c-4.873,0-8.828-3.955-8.828-8.828s3.955-8.828,8.828-8.828h35.31   c4.873,0,8.828,3.955,8.828,8.828S296.183,44.138,291.31,44.138z"/>
</g>
<g>
	<path style="fill:#24AE5F;" d="M220.125,217.785c-3.116,3.143-3.513,8.086-0.927,11.679c6.1,8.43,12.844,16.375,20.189,23.746   c8.183,8.271,17.081,15.801,26.598,22.502c3.566,2.507,8.413,2.083,11.485-1.015l16.922-17.046   c4.608-4.661,12.12-4.696,16.781-0.088c0.026,0.026,0.062,0.062,0.088,0.088l29.519,29.731c4.661,4.705,4.661,12.288,0,16.993   l-8.015,8.068c-11.582,11.838-28.531,16.702-44.623,12.818c-14.963-3.981-29.184-10.364-42.116-18.891   c-11.908-7.671-22.943-16.631-32.892-26.721c-9.163-9.19-17.39-19.271-24.558-30.093c-7.901-11.741-14.159-24.505-18.582-37.941   c-5.438-17.117-0.918-35.84,11.732-48.596l9.366-9.437c4.608-4.661,12.12-4.696,16.781-0.088c0.026,0.026,0.062,0.062,0.088,0.088   l29.519,29.731c4.661,4.705,4.661,12.288,0,16.993L220.125,217.785z"/>
	<path style="fill:#24AE5F;" d="M282.483,211.862c-1.156-0.018-2.295-0.256-3.354-0.706c-2.216-0.803-3.964-2.551-4.767-4.767   c-0.936-2.136-0.936-4.573,0-6.709c0.424-1.077,1.059-2.074,1.854-2.913c3.328-3.46,8.836-3.566,12.297-0.238   c0.918,0.883,1.633,1.96,2.083,3.151c0.945,2.136,0.945,4.573,0,6.709c-0.45,1.068-1.077,2.057-1.854,2.913   C287.091,210.962,284.831,211.88,282.483,211.862z"/>
	<path style="fill:#24AE5F;" d="M317.793,211.862c-1.156-0.018-2.295-0.256-3.354-0.706c-2.216-0.803-3.964-2.551-4.767-4.767   c-0.936-2.136-0.936-4.573,0-6.709c0.424-1.077,1.059-2.074,1.854-2.913c2.119-2.074,5.12-2.966,8.033-2.392   c0.556,0.097,1.086,0.282,1.589,0.538c2.216,0.803,3.964,2.551,4.767,4.767c0.945,2.136,0.945,4.573,0,6.709   c-0.45,1.068-1.077,2.057-1.854,2.913C322.401,210.962,320.141,211.88,317.793,211.862z"/>
	<path style="fill:#24AE5F;" d="M353.103,211.862c-2.348,0.018-4.608-0.9-6.268-2.56c-0.777-0.856-1.404-1.845-1.854-2.913   c-0.936-2.136-0.936-4.573,0-6.709c0.424-1.077,1.059-2.074,1.854-2.913c3.434-3.46,9.022-3.487,12.482-0.053   c1.686,1.668,2.631,3.946,2.613,6.321c0.026,1.156-0.212,2.304-0.706,3.354c-0.45,1.068-1.077,2.057-1.854,2.913   C357.711,210.962,355.452,211.88,353.103,211.862z"/>
</g>
<g>
</g>
<g>
</g>
<g>
</g>
<g>
</g>
<g>
</g>
<g>
</g>
<g>
</g>
<g>
</g>
<g>
</g>
<g>
</g>
<g>
</g>
<g>
</g>
<g>
</g>
<g>
</g>
<g>
</g>
</svg>
