<?xml version="1.0" encoding="iso-8859-1"?>
<!-- Generator: Adobe Illustrator 19.0.0, SVG Export Plug-In . SVG Version: 6.00 Build 0)  -->
<svg xmlns="http://www.w3.org/2000/svg" xmlns:xlink="http://www.w3.org/1999/xlink" version="1.1" id="Layer_1" x="0px" y="0px" viewBox="0 0 512.001 512.001" style="enable-background:new 0 0 512.001 512.001;" xml:space="preserve">
<path style="fill:#464F5D;" d="M61.793,0h282.483c4.873,0,8.828,3.955,8.828,8.828v494.345c0,4.873-3.955,8.828-8.828,8.828H61.793  c-4.873,0-8.828-3.955-8.828-8.828V8.828C52.966,3.955,56.921,0,61.793,0z"/>
<g>
	<path style="fill:#2C2F38;" d="M353.104,308.966v194.207c-0.018,4.873-3.955,8.81-8.828,8.828H61.793   c-4.873-0.018-8.81-3.955-8.828-8.828V308.966H353.104z"/>
	<path style="fill:#2C2F38;" d="M105.931,35.31h194.207c9.754,0,17.655,7.901,17.655,17.655v8.828   c0,9.754-7.901,17.655-17.655,17.655H105.931c-9.754,0-17.655-7.901-17.655-17.655v-8.828   C88.276,43.211,96.177,35.31,105.931,35.31z"/>
	<path style="fill:#2C2F38;" d="M105.931,114.759h194.207c9.754,0,17.655,7.901,17.655,17.655v8.828   c0,9.754-7.901,17.655-17.655,17.655H105.931c-9.754,0-17.655-7.901-17.655-17.655v-8.828   C88.276,122.659,96.177,114.759,105.931,114.759z"/>
	<path style="fill:#2C2F38;" d="M105.931,194.207h194.207c9.754,0,17.655,7.901,17.655,17.655v8.828   c0,9.754-7.901,17.655-17.655,17.655H105.931c-9.754,0-17.655-7.901-17.655-17.655v-8.828   C88.276,202.108,96.177,194.207,105.931,194.207z"/>
</g>
<circle style="fill:#5E5F62;" cx="203.035" cy="335.448" r="52.966"/>
<circle style="fill:#2FA8CC;" cx="203.035" cy="335.448" r="17.655"/>
<g>
	<path style="fill:#464F5D;" d="M97.104,485.517c-4.873,0-8.828-3.946-8.828-8.819v-0.009v-52.966c0-4.873,3.955-8.828,8.828-8.828   s8.828,3.955,8.828,8.828v52.966c0,4.873-3.946,8.828-8.819,8.828H97.104z"/>
	<path style="fill:#464F5D;" d="M132.414,485.517c-4.873,0-8.828-3.946-8.828-8.819v-0.009v-52.966c0-4.873,3.955-8.828,8.828-8.828   c4.873,0,8.828,3.955,8.828,8.828v52.966c0,4.873-3.946,8.828-8.819,8.828H132.414z"/>
	<path style="fill:#464F5D;" d="M167.724,485.517c-4.873,0-8.828-3.946-8.828-8.819v-0.009v-52.966c0-4.873,3.955-8.828,8.828-8.828   s8.828,3.955,8.828,8.828v52.966c0,4.873-3.946,8.828-8.819,8.828H167.724z"/>
	<path style="fill:#464F5D;" d="M203.035,485.517c-4.873,0-8.828-3.946-8.828-8.819v-0.009v-52.966c0-4.873,3.955-8.828,8.828-8.828   c4.873,0,8.828,3.955,8.828,8.828v52.966c0,4.873-3.946,8.828-8.819,8.828H203.035z"/>
	<path style="fill:#464F5D;" d="M238.345,485.517c-4.873,0-8.828-3.946-8.828-8.819v-0.009v-52.966c0-4.873,3.955-8.828,8.828-8.828   c4.873,0,8.828,3.955,8.828,8.828v52.966c0,4.873-3.946,8.828-8.819,8.828H238.345z"/>
	<path style="fill:#464F5D;" d="M273.655,485.517c-4.873,0-8.828-3.946-8.828-8.819v-0.009v-52.966c0-4.873,3.955-8.828,8.828-8.828   c4.873,0,8.828,3.955,8.828,8.828v52.966c0,4.873-3.946,8.828-8.819,8.828H273.655z"/>
	<path style="fill:#464F5D;" d="M308.966,485.517c-4.873,0-8.828-3.946-8.828-8.819v-0.009v-52.966c0-4.873,3.955-8.828,8.828-8.828   s8.828,3.955,8.828,8.828v52.966c0,4.873-3.946,8.828-8.819,8.828H308.966z"/>
</g>
<path style="fill:#E64C3C;" d="M114.759,361.931c-4.829,0.044-8.783-3.831-8.828-8.66c0-0.053,0-0.115,0-0.168  c0.026-2.339,0.945-4.573,2.56-6.268c0.847-0.794,1.836-1.43,2.913-1.854c3.284-1.377,7.08-0.644,9.622,1.854  c0.794,0.847,1.43,1.836,1.854,2.913c1.898,4.44-0.159,9.578-4.59,11.476C117.169,361.702,115.968,361.94,114.759,361.931z"/>
<path style="fill:#F0C419;" d="M291.311,361.931c-4.829,0.053-8.775-3.822-8.828-8.642c-0.009-1.218,0.23-2.419,0.706-3.531  c0.424-1.077,1.059-2.066,1.854-2.913c3.54-3.266,8.995-3.266,12.535,0c0.794,0.847,1.43,1.836,1.854,2.913  c1.412,3.284,0.671,7.097-1.854,9.622c-0.856,0.803-1.845,1.457-2.913,1.942C293.597,361.737,292.458,361.949,291.311,361.931z"/>
<path style="fill:#802F34;" d="M459.035,384c-0.009,12.253-1.766,24.435-5.208,36.193c-12.403,42.002-45.391,74.761-87.481,86.863  c-11.476,3.31-23.367,4.979-35.31,4.943c-70.691,0-128-57.309-128-128s57.309-128,128-128S459.035,313.309,459.035,384L459.035,384z  "/>
<path style="fill:#F0C419;" d="M317.802,311.905l-58.553,92.857c-5.517,8.174-3.354,19.279,4.829,24.788  c2.551,1.721,5.508,2.754,8.58,2.993h117.116c9.834-0.777,17.178-9.375,16.402-19.209c-0.238-3.072-1.271-6.029-2.993-8.58  l-58.562-92.857c-4.334-7.406-13.85-9.896-21.257-5.561C321.068,307.694,319.153,309.61,317.802,311.905z"/>
<g>
	<path style="fill:#2C2F38;" d="M331.22,385.236c-4.873,0-8.828-3.946-8.828-8.819v-0.009v-23.305c0-4.873,3.955-8.828,8.828-8.828   c4.873,0,8.828,3.955,8.828,8.828v23.305c0,4.873-3.946,8.828-8.819,8.828C331.22,385.236,331.22,385.236,331.22,385.236z"/>
	<path style="fill:#2C2F38;" d="M331.211,409.238c-1.148,0.018-2.286-0.185-3.354-0.609c-1.095-0.45-2.083-1.112-2.913-1.951   c-0.794-0.812-1.43-1.766-1.854-2.816c-0.503-1.077-0.742-2.26-0.706-3.452c-0.026-0.565,0.035-1.13,0.185-1.668   c0.088-0.583,0.265-1.148,0.53-1.677c0.177-0.538,0.441-1.05,0.794-1.501c0.353-0.441,0.706-0.962,1.059-1.315   c3.522-3.31,9.013-3.31,12.535,0c0.353,0.353,0.706,0.883,1.059,1.315c0.353,0.45,0.618,0.953,0.794,1.501   c0.256,0.53,0.441,1.095,0.538,1.677c0.097,0.556,0.159,1.112,0.177,1.668c0.079,4.793-3.734,8.748-8.527,8.828   C331.406,409.247,331.308,409.247,331.211,409.238L331.211,409.238z"/>
</g>
<g>
</g>
<g>
</g>
<g>
</g>
<g>
</g>
<g>
</g>
<g>
</g>
<g>
</g>
<g>
</g>
<g>
</g>
<g>
</g>
<g>
</g>
<g>
</g>
<g>
</g>
<g>
</g>
<g>
</g>
</svg>
