<?xml version="1.0" encoding="iso-8859-1"?>
<!-- Generator: Adobe Illustrator 19.0.0, SVG Export Plug-In . SVG Version: 6.00 Build 0)  -->
<svg xmlns="http://www.w3.org/2000/svg" xmlns:xlink="http://www.w3.org/1999/xlink" version="1.1" id="Layer_1" x="0px" y="0px" viewBox="0 0 512 512" style="enable-background:new 0 0 512 512;" xml:space="preserve">
<path style="fill:#464F5D;" d="M64.66,0h278.313c4.801,0,8.697,3.896,8.697,8.697v487.048c0,4.801-3.896,8.697-8.697,8.697H64.66  c-4.801,0-8.697-3.896-8.697-8.697V8.697C55.963,3.896,59.85,0,64.66,0z"/>
<g>
	<path style="fill:#2C2F38;" d="M351.67,304.405v191.34c-0.017,4.801-3.896,8.68-8.697,8.697H64.66   c-4.801-0.017-8.68-3.896-8.697-8.697v-191.34H351.67z"/>
	<path style="fill:#2C2F38;" d="M108.146,34.789h191.34c9.61,0,17.395,7.784,17.395,17.395v8.697c0,9.61-7.784,17.395-17.395,17.395   h-191.34c-9.61,0-17.395-7.784-17.395-17.395v-8.697C90.752,42.573,98.536,34.789,108.146,34.789z"/>
	<path style="fill:#2C2F38;" d="M108.146,113.065h191.34c9.61,0,17.395,7.784,17.395,17.395v8.697   c0,9.61-7.784,17.395-17.395,17.395h-191.34c-9.61,0-17.395-7.784-17.395-17.395v-8.697   C90.752,120.849,98.536,113.065,108.146,113.065z"/>
	<path style="fill:#2C2F38;" d="M108.146,191.34h191.34c9.61,0,17.395,7.784,17.395,17.395v8.697c0,9.61-7.784,17.395-17.395,17.395   h-191.34c-9.61,0-17.395-7.784-17.395-17.395v-8.697C90.752,199.124,98.536,191.34,108.146,191.34z"/>
</g>
<circle style="fill:#5E5F62;" cx="203.816" cy="330.497" r="52.184"/>
<circle style="fill:#2FA8CC;" cx="203.816" cy="330.497" r="17.395"/>
<g>
	<path style="fill:#464F5D;" d="M99.449,478.35c-4.801,0-8.697-3.888-8.697-8.689v-0.009v-52.184c0-4.801,3.896-8.697,8.697-8.697   s8.697,3.896,8.697,8.697v52.184c0,4.801-3.888,8.697-8.689,8.697C99.449,478.35,99.449,478.35,99.449,478.35z"/>
	<path style="fill:#464F5D;" d="M134.238,478.35c-4.801,0-8.697-3.888-8.697-8.689v-0.009v-52.184c0-4.801,3.896-8.697,8.697-8.697   s8.697,3.896,8.697,8.697v52.184c0,4.801-3.888,8.697-8.689,8.697C134.238,478.35,134.238,478.35,134.238,478.35z"/>
	<path style="fill:#464F5D;" d="M169.027,478.35c-4.801,0-8.697-3.888-8.697-8.689v-0.009v-52.184c0-4.801,3.896-8.697,8.697-8.697   c4.801,0,8.697,3.896,8.697,8.697v52.184c0,4.801-3.888,8.697-8.689,8.697C169.027,478.35,169.027,478.35,169.027,478.35z"/>
	<path style="fill:#464F5D;" d="M203.816,478.35c-4.801,0-8.697-3.888-8.697-8.689v-0.009v-52.184c0-4.801,3.896-8.697,8.697-8.697   c4.801,0,8.697,3.896,8.697,8.697v52.184c0,4.801-3.888,8.697-8.689,8.697C203.816,478.35,203.816,478.35,203.816,478.35z"/>
	<path style="fill:#464F5D;" d="M238.605,478.35c-4.801,0-8.697-3.888-8.697-8.689v-0.009v-52.184c0-4.801,3.896-8.697,8.697-8.697   c4.801,0,8.697,3.896,8.697,8.697v52.184c0,4.801-3.888,8.697-8.689,8.697C238.605,478.35,238.605,478.35,238.605,478.35z"/>
	<path style="fill:#464F5D;" d="M273.395,478.35c-4.801,0-8.697-3.888-8.697-8.689v-0.009v-52.184c0-4.801,3.896-8.697,8.697-8.697   s8.697,3.896,8.697,8.697v52.184c0,4.801-3.888,8.697-8.689,8.697C273.395,478.35,273.395,478.35,273.395,478.35z"/>
	<path style="fill:#464F5D;" d="M308.184,478.35c-4.801,0-8.697-3.888-8.697-8.689v-0.009v-52.184c0-4.801,3.896-8.697,8.697-8.697   s8.697,3.896,8.697,8.697v52.184c0,4.801-3.888,8.697-8.689,8.697C308.184,478.35,308.184,478.35,308.184,478.35z"/>
</g>
<path style="fill:#E64C3C;" d="M116.844,356.588c-4.757,0.044-8.654-3.775-8.697-8.532c0-0.052,0-0.113,0-0.165  c0.026-2.305,0.931-4.505,2.522-6.175c0.835-0.783,1.809-1.409,2.87-1.826c3.235-1.357,6.975-0.635,9.48,1.826  c0.783,0.835,1.409,1.809,1.826,2.87c1.87,4.375-0.157,9.437-4.523,11.306C119.218,356.362,118.035,356.597,116.844,356.588z"/>
<path style="fill:#F0C419;" d="M290.789,356.588c-4.757,0.052-8.645-3.766-8.697-8.515c-0.009-1.2,0.226-2.383,0.696-3.479  c0.417-1.061,1.044-2.035,1.826-2.87c3.488-3.218,8.863-3.218,12.35,0c0.783,0.835,1.409,1.809,1.826,2.87  c1.392,3.235,0.661,6.993-1.826,9.48c-0.844,0.791-1.818,1.435-2.87,1.913C293.042,356.397,291.92,356.606,290.789,356.588z"/>
<path style="fill:#894B9D;" d="M456.037,378.332c-0.009,12.072-1.739,24.074-5.131,35.659c-12.22,41.382-44.721,73.657-86.19,85.581  c-11.306,3.261-23.022,4.905-34.789,4.87c-69.648,0-126.111-56.463-126.111-126.111s56.454-126.111,126.111-126.111  S456.037,308.684,456.037,378.332L456.037,378.332z"/>
<path style="fill:#F0C419;" d="M337.337,451.797c28.31-3.975,49.314-28.292,49.122-56.889v-53.793  c0.017-5.079-4.079-9.202-9.158-9.219c-0.261,0-0.522,0.009-0.791,0.035c-1.374,0.13-2.766,0.2-4.183,0.2  c-18.438,0.191-35.18-10.75-42.399-27.727l0,0c-7.219,16.968-23.961,27.918-42.399,27.727c-1.418,0-2.818-0.07-4.183-0.2  c-5.062-0.417-9.497,3.348-9.915,8.402c-0.017,0.261-0.035,0.522-0.035,0.791v55.697c0.383,31.041,25.857,55.897,56.906,55.515  C332.649,452.293,334.997,452.119,337.337,451.797z"/>
<path d="M347.147,512c-4.81,0-8.697-3.888-8.697-8.697c0-4.81,3.975-8.776,8.784-8.776s8.697,3.888,8.697,8.697  c0,2.592-1.131,4.905-2.922,6.506C351.461,511.148,349.409,512,347.147,512z"/>
<g>
</g>
<g>
</g>
<g>
</g>
<g>
</g>
<g>
</g>
<g>
</g>
<g>
</g>
<g>
</g>
<g>
</g>
<g>
</g>
<g>
</g>
<g>
</g>
<g>
</g>
<g>
</g>
<g>
</g>
</svg>
