<?xml version="1.0" encoding="iso-8859-1"?>
<!-- Generator: Adobe Illustrator 19.0.0, SVG Export Plug-In . SVG Version: 6.00 Build 0)  -->
<svg xmlns="http://www.w3.org/2000/svg" xmlns:xlink="http://www.w3.org/1999/xlink" version="1.1" id="Layer_1" x="0px" y="0px" viewBox="0 0 512.002 512.002" style="enable-background:new 0 0 512.002 512.002;" xml:space="preserve">
<path style="fill:#804169;" d="M299.443,62.272l100.499,100.499l12.324,12.324c6.761,6.743,6.769,17.687,0.026,24.448  c-0.009,0.009-0.017,0.017-0.026,0.026l-12.324,12.324L293.195,318.554c-1.597,1.623-2.499,3.801-2.517,6.075v74.55h-34.715v-85.312  c0-4.626,1.849-9.061,5.12-12.324l6.509-6.509L369.22,193.494c3.385-3.411,3.385-8.913,0-12.324l-93.383-93.383L299.443,62.272z"/>
<path style="fill:#7D6599;" d="M238.606,390.501h69.43c9.59,0,17.357,7.767,17.357,17.357v43.393l0,0H221.248l0,0v-43.393  C221.248,398.277,229.016,390.501,238.606,390.501z"/>
<path style="fill:#804169;" d="M293.585,29.588c-4.791,0-8.679-3.888-8.679-8.679c0-2.3,0.911-4.504,2.543-6.136l12.272-12.272  c3.411-3.367,8.904-3.333,12.272,0.087c3.333,3.376,3.333,8.809,0,12.185l-12.272,12.272  C298.098,28.677,295.885,29.588,293.585,29.588z"/>
<path style="fill:#F0C419;" d="M117.972,112.782c-23.702,23.745-23.667,62.209,0.087,85.91c23.719,23.667,62.113,23.667,85.832,0  L117.972,112.782z"/>
<path style="fill:#7D6599;" d="M262.064,101.526l29.924-29.924c14.424-13.565,15.136-36.242,1.588-50.684  c-14.441-13.539-37.119-12.827-50.684,1.588L212.969,52.43"/>
<g>
	<path style="fill:#3D324C;" d="M244.49,70.005L244.49,70.005c37.284,37.284,37.284,97.731,0,135.006l0,0l-12.272,12.272   c-3.393,3.393-8.887,3.393-12.272,0L97.204,94.557c-3.393-3.393-3.393-8.887,0-12.272l12.272-12.272   C146.759,32.721,207.206,32.721,244.49,70.005z"/>
	<path style="fill:#3D324C;" d="M203.891,442.573H342.75c38.342,0,69.43,31.087,69.43,69.43l0,0l0,0H134.461l0,0l0,0   C134.461,473.66,165.549,442.573,203.891,442.573z"/>
</g>
<g>
	<path style="fill:#7D6599;" d="M212.57,485.966h-8.679c-4.791,0-8.679-3.888-8.679-8.679c0-4.791,3.888-8.679,8.679-8.679h8.679   c4.791,0,8.679,3.888,8.679,8.679C221.248,482.078,217.36,485.966,212.57,485.966z"/>
	<path style="fill:#7D6599;" d="M255.963,485.966h-8.679c-4.791,0-8.679-3.888-8.679-8.679c0-4.791,3.888-8.679,8.679-8.679h8.679   c4.791,0,8.679,3.888,8.679,8.679C264.642,482.078,260.754,485.966,255.963,485.966z"/>
	<path style="fill:#7D6599;" d="M299.357,485.966h-8.679c-4.791,0-8.679-3.888-8.679-8.679c0-4.791,3.888-8.679,8.679-8.679h8.679   c4.791,0,8.679,3.888,8.679,8.679C308.035,482.078,304.147,485.966,299.357,485.966z"/>
	<path style="fill:#7D6599;" d="M342.75,485.966h-8.679c-4.791,0-8.679-3.888-8.679-8.679c0-4.791,3.888-8.679,8.679-8.679h8.679   c4.791,0,8.679,3.888,8.679,8.679C351.429,482.078,347.541,485.966,342.75,485.966z"/>
</g>
<g>
</g>
<g>
</g>
<g>
</g>
<g>
</g>
<g>
</g>
<g>
</g>
<g>
</g>
<g>
</g>
<g>
</g>
<g>
</g>
<g>
</g>
<g>
</g>
<g>
</g>
<g>
</g>
<g>
</g>
</svg>
