<?xml version="1.0" encoding="iso-8859-1"?>
<!-- Generator: Adobe Illustrator 19.0.0, SVG Export Plug-In . SVG Version: 6.00 Build 0)  -->
<svg xmlns="http://www.w3.org/2000/svg" xmlns:xlink="http://www.w3.org/1999/xlink" version="1.1" id="Layer_1" x="0px" y="0px" viewBox="0 0 512 512" style="enable-background:new 0 0 512 512;" xml:space="preserve">
<path style="fill:#3F5C6C;" d="M158.897,0h194.207c29.255,0,52.966,23.711,52.966,52.966v441.379  c0,9.754-7.901,17.655-17.655,17.655H123.586c-9.754,0-17.655-7.901-17.655-17.655V52.966C105.931,23.711,129.642,0,158.897,0z"/>
<rect x="176.552" y="229.517" style="fill:#3D324C;" width="158.897" height="211.862"/>
<path style="fill:#2C3E50;" d="M299.343,256.353c58.686-23.94,86.855-90.915,62.914-149.601s-90.915-86.855-149.601-62.914  s-86.855,90.915-62.914,149.601c11.661,28.575,34.339,51.262,62.914,62.914"/>
<path style="fill:#D1D4D1;" d="M167.724,432.552h176.552c9.754,0,17.655,7.901,17.655,17.655V512l0,0H150.069l0,0v-61.793  C150.069,440.452,157.97,432.552,167.724,432.552z"/>
<path style="fill:#F0C419;" d="M273.655,305.346v38.93c0,9.754-7.901,17.655-17.655,17.655s-17.655-7.901-17.655-17.655v-38.93"/>
<g>
	<path style="fill:#2C2F38;" d="M185.379,485.517c-1.156-0.018-2.295-0.256-3.354-0.706c-1.077-0.424-2.066-1.059-2.913-1.854   c-1.66-1.66-2.586-3.919-2.56-6.268c0.026-2.339,0.945-4.573,2.56-6.268c2.092-2.057,5.058-2.948,7.936-2.392   c0.583,0.088,1.156,0.265,1.677,0.539c0.538,0.177,1.05,0.441,1.501,0.794c0.503,0.3,0.98,0.662,1.412,1.059   c0.821,0.83,1.448,1.818,1.854,2.913c1.898,4.44-0.159,9.578-4.59,11.476C187.789,485.288,186.589,485.526,185.379,485.517z"/>
	<path style="fill:#2C2F38;" d="M220.69,485.517c-1.156-0.018-2.295-0.256-3.354-0.706c-1.068-0.45-2.057-1.077-2.913-1.854   c-1.66-1.66-2.586-3.919-2.56-6.268c0.018-1.156,0.256-2.295,0.706-3.354c0.406-1.095,1.033-2.083,1.854-2.913   c0.856-0.777,1.845-1.404,2.913-1.854c1.58-0.706,3.337-0.892,5.023-0.539c0.583,0.088,1.156,0.265,1.677,0.539   c0.565,0.194,1.095,0.459,1.589,0.794c0.459,0.327,0.909,0.68,1.324,1.059c0.821,0.83,1.448,1.819,1.854,2.913   c1.412,3.284,0.671,7.097-1.854,9.622c-0.856,0.777-1.845,1.404-2.913,1.854C222.985,485.261,221.846,485.5,220.69,485.517z"/>
	<path style="fill:#2C2F38;" d="M256,485.517c-4.829,0.044-8.783-3.831-8.828-8.66c0-0.053,0-0.115,0-0.168   c-0.035-1.156,0.212-2.304,0.706-3.354c0.406-1.095,1.033-2.083,1.854-2.913c0.415-0.38,0.856-0.733,1.315-1.059   c0.494-0.335,1.033-0.6,1.598-0.794c0.503-0.256,1.033-0.433,1.589-0.539c2.904-0.538,5.888,0.353,8.033,2.383   c0.821,0.83,1.448,1.819,1.854,2.913c1.898,4.44-0.159,9.578-4.59,11.476C258.41,485.288,257.209,485.526,256,485.517z"/>
	<path style="fill:#2C2F38;" d="M291.31,485.517c-1.156-0.018-2.295-0.256-3.354-0.706c-1.068-0.45-2.057-1.077-2.913-1.854   c-1.66-1.66-2.586-3.919-2.56-6.268c-0.035-1.156,0.212-2.304,0.706-3.354c0.406-1.095,1.033-2.083,1.854-2.913   c0.415-0.38,0.856-0.733,1.315-1.059c0.494-0.335,1.033-0.6,1.598-0.794c0.503-0.256,1.033-0.433,1.589-0.539   c1.721-0.362,3.513-0.177,5.12,0.539c1.068,0.45,2.057,1.077,2.913,1.854c0.821,0.83,1.448,1.819,1.854,2.913   c1.412,3.284,0.671,7.097-1.854,9.622c-0.856,0.777-1.845,1.404-2.913,1.854C293.605,485.261,292.467,485.5,291.31,485.517z"/>
	<path style="fill:#2C2F38;" d="M326.621,485.517c-1.156-0.018-2.295-0.256-3.354-0.706c-1.068-0.45-2.057-1.077-2.913-1.854   c-1.66-1.66-2.586-3.919-2.56-6.268c0.018-1.156,0.256-2.295,0.706-3.354c0.406-1.095,1.033-2.083,1.854-2.913   c2.136-2.048,5.129-2.94,8.033-2.392c0.547,0.097,1.086,0.283,1.589,0.539c0.547,0.177,1.05,0.441,1.501,0.794   c0.503,0.3,0.98,0.662,1.412,1.059c0.821,0.83,1.448,1.819,1.854,2.913c1.898,4.44-0.159,9.578-4.59,11.476   C329.031,485.288,327.83,485.526,326.621,485.517z"/>
</g>
<path style="fill:#D1D4D1;" d="M370.759,150.069H141.241C141.241,86.687,192.618,35.31,256,35.31S370.759,86.687,370.759,150.069z"/>
<circle style="fill:#E6E7E8;" cx="256" cy="264.828" r="44.138"/>
<g>
</g>
<g>
</g>
<g>
</g>
<g>
</g>
<g>
</g>
<g>
</g>
<g>
</g>
<g>
</g>
<g>
</g>
<g>
</g>
<g>
</g>
<g>
</g>
<g>
</g>
<g>
</g>
<g>
</g>
</svg>
