<?xml version="1.0" encoding="iso-8859-1"?>
<!-- Generator: Adobe Illustrator 19.0.0, SVG Export Plug-In . SVG Version: 6.00 Build 0)  -->
<svg xmlns="http://www.w3.org/2000/svg" xmlns:xlink="http://www.w3.org/1999/xlink" version="1.1" id="Layer_1" x="0px" y="0px" viewBox="0 0 512 512" style="enable-background:new 0 0 512 512;" xml:space="preserve">
<g>
	<path style="fill:#2C3E50;" d="M26.483,441.379h79.448l0,0v44.138l0,0H44.138c-9.754,0-17.655-7.901-17.655-17.655V441.379   L26.483,441.379z"/>
	<path style="fill:#2C3E50;" d="M467.862,485.517h-61.793l0,0v-44.138l0,0h79.448l0,0v26.483   C485.517,477.617,477.617,485.517,467.862,485.517z"/>
	<path style="fill:#2C3E50;" d="M203.034,44.138h105.931c14.627,0,26.483,11.855,26.483,26.483v44.138l0,0H176.552l0,0V70.621   C176.552,55.993,188.407,44.138,203.034,44.138z"/>
</g>
<path style="fill:#4482C3;" d="M97.103,450.207H17.655C7.918,450.18,0.026,442.289,0,432.552V123.586  c0.026-9.737,7.918-17.629,17.655-17.655h476.69c9.737,0.026,17.629,7.918,17.655,17.655v308.966  c-0.026,9.737-7.918,17.629-17.655,17.655h-79.448"/>
<path style="fill:#2C3E50;" d="M256,52.966c-4.873,0-8.828-3.946-8.828-8.819c0-0.009,0-0.009,0-0.009V26.483  c0-4.873,3.955-8.828,8.828-8.828s8.828,3.955,8.828,8.828v17.655C264.828,49.011,260.882,52.966,256,52.966L256,52.966z"/>
<path style="fill:#D1D4D1;" d="M105.931,423.724h300.138c4.873,0,8.828,3.955,8.828,8.828v44.138  c0,9.754-7.901,17.655-17.655,17.655H114.759c-9.754,0-17.655-7.901-17.655-17.655v-44.138  C97.103,427.679,101.058,423.724,105.931,423.724z"/>
<path style="fill:#E64C3C;" d="M167.724,467.862h-35.31c-4.873,0-8.828-3.955-8.828-8.828s3.955-8.828,8.828-8.828h35.31  c4.873,0,8.828,3.955,8.828,8.828S172.597,467.862,167.724,467.862z"/>
<path style="fill:#24AE5F;" d="M238.345,467.862h-35.31c-4.873,0-8.828-3.955-8.828-8.828s3.955-8.828,8.828-8.828h35.31  c4.873,0,8.828,3.955,8.828,8.828S243.218,467.862,238.345,467.862z"/>
<path style="fill:#2980BA;" d="M308.966,467.862h-35.31c-4.873,0-8.828-3.955-8.828-8.828s3.955-8.828,8.828-8.828h35.31  c4.873,0,8.828,3.955,8.828,8.828S313.838,467.862,308.966,467.862z"/>
<path style="fill:#2C2F38;" d="M379.586,467.862h-35.31c-4.873,0-8.828-3.955-8.828-8.828s3.955-8.828,8.828-8.828h35.31  c4.873,0,8.828,3.955,8.828,8.828S384.459,467.862,379.586,467.862z"/>
<path style="fill:#ECF0F1;" d="M185.379,256c0,39-31.62,70.621-70.621,70.621S44.138,295,44.138,256s31.62-70.621,70.621-70.621V256  H185.379z"/>
<path style="fill:#F0C419;" d="M220.69,220.69h-70.621v-70.621c38.991-0.009,70.612,31.594,70.621,70.585  C220.69,220.663,220.69,220.681,220.69,220.69z"/>
<g>
	<path style="fill:#B49ACA;" d="M388.414,158.897H256c-4.873,0-8.828-3.955-8.828-8.828c0-4.873,3.955-8.828,8.828-8.828h132.414   c4.873,0,8.828,3.955,8.828,8.828C397.241,154.942,393.287,158.897,388.414,158.897z"/>
	<path style="fill:#B49ACA;" d="M388.414,194.207H256c-4.873,0-8.828-3.955-8.828-8.828c0-4.873,3.955-8.828,8.828-8.828h132.414   c4.873,0,8.828,3.955,8.828,8.828C397.241,190.252,393.287,194.207,388.414,194.207z"/>
</g>
<path style="fill:#F0C419;" d="M379.586,388.414h-17.655c-4.873,0-8.828-3.955-8.828-8.828V247.172c0-4.873,3.955-8.828,8.828-8.828  h17.655c4.873,0,8.828,3.955,8.828,8.828v132.414C388.414,384.459,384.459,388.414,379.586,388.414z"/>
<path style="fill:#E57E25;" d="M450.207,388.414h-17.655c-4.873,0-8.828-3.955-8.828-8.828V176.552c0-4.873,3.955-8.828,8.828-8.828  h17.655c4.873,0,8.828,3.955,8.828,8.828v203.034C459.034,384.459,455.08,388.414,450.207,388.414z"/>
<path style="fill:#FF5364;" d="M308.966,388.414H291.31c-4.873,0-8.828-3.955-8.828-8.828v-52.966c0-4.873,3.955-8.828,8.828-8.828  h17.655c4.873,0,8.828,3.955,8.828,8.828v52.966C317.793,384.459,313.838,388.414,308.966,388.414z"/>
<path style="fill:#FFFFFF;" d="M238.345,388.414H220.69c-4.873,0-8.828-3.955-8.828-8.828v-35.31c0-4.873,3.955-8.828,8.828-8.828  h17.655c4.873,0,8.828,3.955,8.828,8.828v35.31C247.172,384.459,243.218,388.414,238.345,388.414z"/>
<g>
</g>
<g>
</g>
<g>
</g>
<g>
</g>
<g>
</g>
<g>
</g>
<g>
</g>
<g>
</g>
<g>
</g>
<g>
</g>
<g>
</g>
<g>
</g>
<g>
</g>
<g>
</g>
<g>
</g>
</svg>
