<?xml version="1.0" encoding="iso-8859-1"?>
<!-- Generator: Adobe Illustrator 19.0.0, SVG Export Plug-In . SVG Version: 6.00 Build 0)  -->
<svg xmlns="http://www.w3.org/2000/svg" xmlns:xlink="http://www.w3.org/1999/xlink" version="1.1" id="Layer_1" x="0px" y="0px" viewBox="0 0 512 512" style="enable-background:new 0 0 512 512;" xml:space="preserve">
<g>
	<path style="fill:#2C3E50;" d="M26.483,441.379h79.448l0,0v44.138l0,0H44.138c-9.754,0-17.655-7.901-17.655-17.655V441.379   L26.483,441.379z"/>
	<path style="fill:#2C3E50;" d="M467.862,485.517h-61.793l0,0v-44.138l0,0h79.448l0,0v26.483   C485.517,477.617,477.617,485.517,467.862,485.517z"/>
	<path style="fill:#2C3E50;" d="M203.034,44.138h105.931c14.627,0,26.483,11.855,26.483,26.483v44.138l0,0H176.552l0,0V70.621   C176.552,55.993,188.407,44.138,203.034,44.138z"/>
</g>
<path style="fill:#4482C3;" d="M97.103,450.207H17.655C7.918,450.18,0.026,442.289,0,432.552V123.586  c0.026-9.737,7.918-17.629,17.655-17.655h476.69c9.737,0.026,17.629,7.918,17.655,17.655v308.966  c-0.026,9.737-7.918,17.629-17.655,17.655h-79.448"/>
<g>
	<path style="fill:#FFFFFF;" d="M232.086,359.812c-4.873,0-8.828-3.946-8.836-8.819c0-2.622,1.156-5.111,3.169-6.788l47.846-39.901   c3.743-3.125,9.304-2.631,12.429,1.112c3.125,3.743,2.631,9.304-1.112,12.429l-0.009,0.009l-47.846,39.901   C236.147,359.089,234.152,359.812,232.086,359.812z"/>
	<path style="fill:#FFFFFF;" d="M364.314,365.197c-2.101,0-4.14-0.75-5.738-2.119l-52.789-45.197   c-3.716-3.16-4.158-8.73-0.997-12.447s8.73-4.158,12.447-0.998c0.009,0.009,0.026,0.026,0.035,0.035l52.789,45.197   c3.708,3.169,4.14,8.739,0.971,12.447C369.346,364.076,366.892,365.197,364.314,365.197z"/>
	<path style="fill:#FFFFFF;" d="M399.086,359.106c-4.873,0-8.828-3.955-8.819-8.828c0-1.739,0.521-3.443,1.483-4.899l42.284-63.382   c2.675-4.078,8.148-5.208,12.226-2.534c4.078,2.675,5.208,8.148,2.533,12.226c-0.026,0.035-0.044,0.071-0.071,0.106l-42.284,63.382   C404.798,357.632,402.044,359.106,399.086,359.106z"/>
</g>
<g>
	<path style="fill:#B49ACA;" d="M467.862,158.897H282.483c-4.873,0-8.828-3.955-8.828-8.828c0-4.873,3.955-8.828,8.828-8.828   h185.379c4.873,0,8.828,3.955,8.828,8.828C476.69,154.942,472.735,158.897,467.862,158.897z"/>
	<path style="fill:#B49ACA;" d="M467.862,194.207H282.483c-4.873,0-8.828-3.955-8.828-8.828c0-4.873,3.955-8.828,8.828-8.828   h185.379c4.873,0,8.828,3.955,8.828,8.828C476.69,190.252,472.735,194.207,467.862,194.207z"/>
</g>
<path style="fill:#2C3E50;" d="M256,52.966c-4.873,0-8.828-3.946-8.828-8.819c0-0.009,0-0.009,0-0.009V26.483  c0-4.873,3.955-8.828,8.828-8.828s8.828,3.955,8.828,8.828v17.655C264.828,49.011,260.882,52.966,256,52.966L256,52.966z"/>
<path style="fill:#D1D4D1;" d="M105.931,423.724h300.138c4.873,0,8.828,3.955,8.828,8.828v44.138  c0,9.754-7.901,17.655-17.655,17.655H114.759c-9.754,0-17.655-7.901-17.655-17.655v-44.138  C97.103,427.679,101.058,423.724,105.931,423.724z"/>
<path style="fill:#E64C3C;" d="M167.724,467.862h-35.31c-4.873,0-8.828-3.955-8.828-8.828s3.955-8.828,8.828-8.828h35.31  c4.873,0,8.828,3.955,8.828,8.828S172.597,467.862,167.724,467.862z"/>
<path style="fill:#24AE5F;" d="M238.345,467.862h-35.31c-4.873,0-8.828-3.955-8.828-8.828s3.955-8.828,8.828-8.828h35.31  c4.873,0,8.828,3.955,8.828,8.828S243.218,467.862,238.345,467.862z"/>
<path style="fill:#2980BA;" d="M308.966,467.862h-35.31c-4.873,0-8.828-3.955-8.828-8.828s3.955-8.828,8.828-8.828h35.31  c4.873,0,8.828,3.955,8.828,8.828S313.838,467.862,308.966,467.862z"/>
<path style="fill:#2C2F38;" d="M379.586,467.862h-35.31c-4.873,0-8.828-3.955-8.828-8.828s3.955-8.828,8.828-8.828h35.31  c4.873,0,8.828,3.955,8.828,8.828S384.459,467.862,379.586,467.862z"/>
<path style="fill:#ECF0F1;" d="M185.379,256c0,39-31.62,70.621-70.621,70.621S44.138,295,44.138,256s31.62-70.621,70.621-70.621V256  H185.379z"/>
<g>
	<path style="fill:#F0C419;" d="M220.69,220.69h-70.621v-70.621c38.991-0.009,70.612,31.594,70.621,70.585   C220.69,220.663,220.69,220.681,220.69,220.69z"/>
	<path style="fill:#F0C419;" d="M384,388.414c-12.191,0.018-22.087-9.843-22.104-22.034c-0.018-12.191,9.843-22.087,22.034-22.104   c5.632-0.009,11.061,2.136,15.166,6.003c4.476,4.14,7.009,9.966,6.974,16.066C406.06,378.536,396.191,388.405,384,388.414z"/>
	<circle style="fill:#F0C419;" cx="216.276" cy="366.345" r="22.069"/>
	<circle style="fill:#F0C419;" cx="295.724" cy="295.724" r="22.069"/>
	<circle style="fill:#F0C419;" cx="454.621" cy="269.241" r="22.069"/>
</g>
<g>
</g>
<g>
</g>
<g>
</g>
<g>
</g>
<g>
</g>
<g>
</g>
<g>
</g>
<g>
</g>
<g>
</g>
<g>
</g>
<g>
</g>
<g>
</g>
<g>
</g>
<g>
</g>
<g>
</g>
</svg>
