<?xml version="1.0" encoding="iso-8859-1"?>
<!-- Generator: Adobe Illustrator 19.0.0, SVG Export Plug-In . SVG Version: 6.00 Build 0)  -->
<svg xmlns="http://www.w3.org/2000/svg" xmlns:xlink="http://www.w3.org/1999/xlink" version="1.1" id="Layer_1" x="0px" y="0px" viewBox="0 0 512 512" style="enable-background:new 0 0 512 512;" xml:space="preserve">
<path style="fill:#2FA8CC;" d="M158.897,26.483h194.207l0,0v158.897c0,39-31.62,70.621-70.621,70.621h-52.966  c-39,0-70.621-31.62-70.621-70.621V26.483L158.897,26.483z"/>
<g>
	<path style="fill:#2C2F38;" d="M300.138,467.862h52.966l0,0v26.483c0,9.754-7.901,17.655-17.655,17.655h-17.655   c-9.754,0-17.655-7.901-17.655-17.655V467.862L300.138,467.862z"/>
	<path style="fill:#2C2F38;" d="M158.897,467.862h52.966l0,0v26.483c0,9.754-7.901,17.655-17.655,17.655h-17.655   c-9.754,0-17.655-7.901-17.655-17.655V467.862L158.897,467.862z"/>
</g>
<g>
	<path style="fill:#464F5D;" d="M158.897,0h194.207c9.754,0,17.655,7.901,17.655,17.655V35.31c0,4.873-3.955,8.828-8.828,8.828   H150.069c-4.873,0-8.828-3.955-8.828-8.828V17.655C141.241,7.901,149.142,0,158.897,0z"/>
	<path style="fill:#464F5D;" d="M158.897,256h194.207c9.754,0,17.655,7.901,17.655,17.655v185.379   c0,9.754-7.901,17.655-17.655,17.655H158.897c-9.754,0-17.655-7.901-17.655-17.655V273.655   C141.241,263.901,149.142,256,158.897,256z"/>
</g>
<path style="fill:#2C2F38;" d="M238.345,291.31v17.655c0.026,9.737,7.918,17.629,17.655,17.655l0,0  c9.737-0.026,17.629-7.918,17.655-17.655V291.31h52.966c4.873,0.018,8.81,3.955,8.828,8.828v132.414  c-0.018,4.873-3.955,8.81-8.828,8.828H185.379c-4.873-0.018-8.81-3.955-8.828-8.828V300.138c0.018-4.873,3.955-8.81,8.828-8.828  H238.345z"/>
<path style="fill:#E6E7E8;" d="M282.483,441.379h-52.966l-7.742-69.65c-0.538-4.846,2.957-9.207,7.795-9.746  c0.335-0.035,0.653-0.053,0.98-0.053h50.891c4.873,0,8.828,3.955,8.828,8.828c0,0.327-0.018,0.653-0.053,0.971L282.483,441.379z"/>
<g>
	<path style="fill:#B0D3F0;" d="M247.172,220.69c-2.348,0.018-4.608-0.9-6.268-2.56c-0.777-0.856-1.404-1.845-1.854-2.913   c-0.936-2.136-0.936-4.573,0-6.709c0.45-1.068,1.077-2.057,1.854-2.913c3.54-3.266,8.995-3.266,12.535,0   c0.777,0.856,1.404,1.845,1.854,2.913c0.45,1.059,0.689,2.198,0.706,3.354c0.026,1.156-0.212,2.304-0.706,3.354   c-0.415,1.086-1.05,2.074-1.854,2.913c-0.856,0.777-1.845,1.404-2.913,1.854C249.468,220.434,248.329,220.672,247.172,220.69z"/>
	<path style="fill:#B0D3F0;" d="M282.483,185.379c-2.348,0.018-4.608-0.9-6.268-2.56c-0.777-0.856-1.404-1.845-1.854-2.913   c-0.459-1.059-0.697-2.198-0.706-3.354c0-4.873,3.955-8.828,8.828-8.828s8.828,3.955,8.828,8.828   c0.026,1.156-0.212,2.304-0.706,3.354c-0.45,1.068-1.077,2.057-1.854,2.913C287.091,184.479,284.831,185.397,282.483,185.379z"/>
	<circle style="fill:#B0D3F0;" cx="256" cy="123.586" r="17.655"/>
	<path style="fill:#B0D3F0;" d="M317.44,44.138c0.256,1.457,0.371,2.931,0.353,4.414c0,17.064-13.833,30.897-30.897,30.897   S256,65.615,256,48.552c-0.018-1.483,0.097-2.957,0.353-4.414H317.44z"/>
</g>
<g>
</g>
<g>
</g>
<g>
</g>
<g>
</g>
<g>
</g>
<g>
</g>
<g>
</g>
<g>
</g>
<g>
</g>
<g>
</g>
<g>
</g>
<g>
</g>
<g>
</g>
<g>
</g>
<g>
</g>
</svg>
