<?xml version="1.0" encoding="iso-8859-1"?>
<!-- Generator: Adobe Illustrator 19.0.0, SVG Export Plug-In . SVG Version: 6.00 Build 0)  -->
<svg xmlns="http://www.w3.org/2000/svg" xmlns:xlink="http://www.w3.org/1999/xlink" version="1.1" id="Layer_1" x="0px" y="0px" viewBox="0 0 512 512" style="enable-background:new 0 0 512 512;" xml:space="preserve">
<polygon style="fill:#2C2F38;" points="326.378,332.193 377.492,468.61 134.508,468.61 185.622,332.193 "/>
<path style="fill:#285680;" d="M299.39,341.652v40.179c0,23.96-19.43,43.39-43.39,43.39s-43.39-19.43-43.39-43.39v-40.179"/>
<circle style="fill:#464F5D;" cx="256" cy="173.559" r="173.559"/>
<path style="fill:#285680;" d="M256,260.339c-47.928,0-86.78-38.851-86.78-86.78S208.072,86.78,256,86.78s86.78,38.851,86.78,86.78  C342.728,221.462,303.902,260.287,256,260.339z"/>
<circle style="fill:#4482C3;" cx="256" cy="173.559" r="52.068"/>
<path style="fill:#464F5D;" d="M412.203,485.966V512l0,0H99.797l0,0v-26.034c0-14.379,11.655-26.034,26.034-26.034h260.339  C400.549,459.932,412.203,471.587,412.203,485.966z"/>
<path style="fill:#2980BA;" d="M290.712,3.471v5.207c0,19.17-15.542,34.712-34.712,34.712s-34.712-15.542-34.712-34.712V3.471  C244.198-1.154,267.802-1.154,290.712,3.471z"/>
<g>
</g>
<g>
</g>
<g>
</g>
<g>
</g>
<g>
</g>
<g>
</g>
<g>
</g>
<g>
</g>
<g>
</g>
<g>
</g>
<g>
</g>
<g>
</g>
<g>
</g>
<g>
</g>
<g>
</g>
</svg>
