<?xml version="1.0" encoding="iso-8859-1"?>
<!-- Generator: Adobe Illustrator 19.0.0, SVG Export Plug-In . SVG Version: 6.00 Build 0)  -->
<svg xmlns="http://www.w3.org/2000/svg" xmlns:xlink="http://www.w3.org/1999/xlink" version="1.1" id="Layer_1" x="0px" y="0px" viewBox="0 0 512 512" style="enable-background:new 0 0 512 512;" xml:space="preserve">
<rect x="220.69" y="278.069" style="fill:#464F5D;" width="70.621" height="176.552"/>
<path style="fill:#2C2F38;" d="M176.552,225.103h158.897l0,0v44.138c0,19.5-15.81,35.31-35.31,35.31h-88.276  c-19.5,0-35.31-15.81-35.31-35.31V225.103L176.552,225.103z"/>
<path style="fill:#464F5D;" d="M17.655,39.724h476.69c9.754,0,17.655,7.901,17.655,17.655v167.724  c0,9.754-7.901,17.655-17.655,17.655H17.655C7.901,242.759,0,234.858,0,225.103V57.379C0,47.625,7.901,39.724,17.655,39.724z"/>
<path style="fill:#4482C3;" d="M141.241,83.862h229.517c9.754,0,17.655,7.901,17.655,17.655v79.448  c0,9.754-7.901,17.655-17.655,17.655H141.241c-9.754,0-17.655-7.901-17.655-17.655v-79.448  C123.586,91.763,131.487,83.862,141.241,83.862z"/>
<circle style="fill:#2C3E50;" cx="256" cy="141.241" r="57.379"/>
<circle style="fill:#2FA8CC;" cx="256" cy="141.241" r="22.069"/>
<g>
	<path style="fill:#90BAE1;" d="M35.31,101.517c-4.873,0-8.828-3.955-8.828-8.828c0-2.339,0.927-4.582,2.586-6.241l17.655-17.655   c3.478-3.416,9.066-3.363,12.482,0.115c3.372,3.434,3.372,8.934,0,12.367L41.551,98.931C39.901,100.59,37.65,101.517,35.31,101.517   z"/>
	<path style="fill:#90BAE1;" d="M35.31,145.655c-4.873,0-8.828-3.955-8.828-8.828c0-2.339,0.927-4.582,2.586-6.241l61.793-61.793   c3.478-3.416,9.066-3.363,12.482,0.115c3.372,3.434,3.372,8.934,0,12.367l-61.793,61.793   C39.901,144.728,37.65,145.655,35.31,145.655z"/>
</g>
<path style="fill:#2C2F38;" d="M141.241,436.966h229.517c9.754,0,17.655,7.901,17.655,17.655v17.655l0,0H123.586l0,0v-17.655  C123.586,444.866,131.487,436.966,141.241,436.966z"/>
<g>
</g>
<g>
</g>
<g>
</g>
<g>
</g>
<g>
</g>
<g>
</g>
<g>
</g>
<g>
</g>
<g>
</g>
<g>
</g>
<g>
</g>
<g>
</g>
<g>
</g>
<g>
</g>
<g>
</g>
</svg>
