<?xml version="1.0" encoding="iso-8859-1"?>
<!-- Generator: Adobe Illustrator 19.0.0, SVG Export Plug-In . SVG Version: 6.00 Build 0)  -->
<svg xmlns="http://www.w3.org/2000/svg" xmlns:xlink="http://www.w3.org/1999/xlink" version="1.1" id="Layer_1" x="0px" y="0px" viewBox="0 0 511.998 511.998" style="enable-background:new 0 0 511.998 511.998;" xml:space="preserve">
<path style="fill:#547580;" d="M354.666,256.343c19.612,43.997,31.5,93.113,31.5,125.481c0,70.334-55.876,127.937-126.176,130.081  c-1.302,0.087-2.69,0.087-3.992,0.087s-2.69,0-3.992-0.087c-70.299-2.143-126.175-59.747-126.175-130.081  c0-32.368,11.889-81.485,31.5-125.481v-0.087"/>
<path style="fill:#2C3E50;" d="M360.133,208.268l-26.814,234.735c-4.877,42.704-43.45,73.362-86.153,68.485  c-35.987-4.113-64.372-32.498-68.485-68.485l-26.814-234.735c0.009-54.15,41.497-99.257,95.456-103.787  c2.864-0.26,5.727-0.347,8.678-0.347c2.95,0,5.814,0.087,8.678,0.347C318.679,108.933,360.211,154.092,360.133,208.268z"/>
<path style="fill:#547580;" d="M264.677,477.28h-17.356c-4.79,0-8.678-3.888-8.678-8.678s3.888-8.678,8.678-8.678h17.356  c4.79,0,8.678,3.888,8.678,8.678S269.476,477.28,264.677,477.28z"/>
<path style="fill:#2C2F38;" d="M290.71,110.122V86.778c-0.026-9.572-7.784-17.33-17.356-17.356h-34.711  c-9.572,0.026-17.33,7.784-17.356,17.356v23.343"/>
<path style="fill:#464F5D;" d="M255.999,78.1c-4.79,0-8.678-3.879-8.678-8.669v-0.009V47.728  c0.017-11.975,9.719-21.686,21.695-21.695c2.395-0.009,4.33-1.944,4.339-4.339V8.678c0-4.79,3.888-8.678,8.678-8.678  s8.678,3.888,8.678,8.678v13.017C290.702,33.67,281,43.38,269.016,43.389c-2.395,0.009-4.33,1.944-4.339,4.339v21.695  c0,4.79-3.879,8.678-8.669,8.678C256.008,78.1,256.008,78.1,255.999,78.1z"/>
<path style="fill:#2C2F38;" d="M264.677,104.481v164.531c0,4.79-3.888,8.678-8.678,8.678c-4.79,0-8.678-3.888-8.678-8.678V104.481  c2.864-0.26,5.727-0.347,8.678-0.347C258.949,104.134,261.813,104.221,264.677,104.481z"/>
<path style="fill:#A5A5A4;" d="M255.999,147.523L255.999,147.523c9.589,0,17.356,7.767,17.356,17.356v60.745  c0,9.589-7.767,17.356-17.356,17.356l0,0c-9.589,0-17.356-7.767-17.356-17.356v-60.745  C238.643,155.29,246.419,147.523,255.999,147.523z"/>
<g>
</g>
<g>
</g>
<g>
</g>
<g>
</g>
<g>
</g>
<g>
</g>
<g>
</g>
<g>
</g>
<g>
</g>
<g>
</g>
<g>
</g>
<g>
</g>
<g>
</g>
<g>
</g>
<g>
</g>
</svg>
