<?xml version="1.0" encoding="iso-8859-1"?>
<!-- Generator: Adobe Illustrator 19.0.0, SVG Export Plug-In . SVG Version: 6.00 Build 0)  -->
<svg xmlns="http://www.w3.org/2000/svg" xmlns:xlink="http://www.w3.org/1999/xlink" version="1.1" id="Layer_1" x="0px" y="0px" viewBox="0 0 512 512" style="enable-background:new 0 0 512 512;" xml:space="preserve">
<polygon style="fill:#2C3E50;" points="135.777,384 61.793,384 61.793,419.31 135.777,419.31 376.223,419.31 450.207,419.31   450.207,384 376.223,384 "/>
<path style="fill:#5E5F62;" d="M423.724,48.552H88.276c-19.5-0.009-35.302,15.793-35.31,35.293c0,0,0,0.009,0,0.018v88.276h406.069  V83.862c0.009-19.5-15.793-35.302-35.293-35.31C423.742,48.552,423.733,48.552,423.724,48.552z"/>
<rect x="35.31" y="260.414" style="fill:#2C2F38;" width="35.31" height="203.034"/>
<path style="fill:#5E5F62;" d="M35.31,454.621h35.31c9.754,0,17.655,7.901,17.655,17.655v26.483l0,0H17.655l0,0v-26.483  C17.655,462.521,25.556,454.621,35.31,454.621z"/>
<path style="fill:#2C3E50;" d="M17.655,92.69h70.621c9.754,0,17.655,7.901,17.655,17.655v150.069c0,4.873-3.955,8.828-8.828,8.828  H8.828c-4.873,0-8.828-3.955-8.828-8.828V110.345C0,100.59,7.901,92.69,17.655,92.69z"/>
<path style="fill:#2980BA;" d="M70.621,145.655H35.31c-4.873,0-8.828-3.955-8.828-8.828c0-4.873,3.955-8.828,8.828-8.828h35.31  c4.873,0,8.828,3.955,8.828,8.828C79.448,141.7,75.494,145.655,70.621,145.655z"/>
<rect x="441.379" y="260.414" style="fill:#2C2F38;" width="35.31" height="203.034"/>
<path style="fill:#5E5F62;" d="M441.379,454.621h35.31c9.754,0,17.655,7.901,17.655,17.655v26.483l0,0h-70.621l0,0v-26.483  C423.724,462.521,431.625,454.621,441.379,454.621z"/>
<path style="fill:#2C3E50;" d="M423.724,92.69h70.621c9.754,0,17.655,7.901,17.655,17.655v150.069c0,4.873-3.955,8.828-8.828,8.828  h-88.276c-4.873,0-8.828-3.955-8.828-8.828V110.345C406.069,100.59,413.97,92.69,423.724,92.69z"/>
<path style="fill:#2980BA;" d="M476.69,145.655h-35.31c-4.873,0-8.828-3.955-8.828-8.828c0-4.873,3.955-8.828,8.828-8.828h35.31  c4.873,0,8.828,3.955,8.828,8.828C485.517,141.7,481.562,145.655,476.69,145.655z"/>
<polygon style="fill:#2C2F38;" points="141.241,251.586 105.931,251.586 105.931,163.31 406.069,163.31 406.069,251.586   370.759,251.586 "/>
<path style="fill:#2C3E50;" d="M123.586,13.241h264.828c9.754,0,17.655,7.901,17.655,17.655v17.655l0,0H105.931l0,0V30.897  C105.931,21.142,113.832,13.241,123.586,13.241z"/>
<path style="fill:#BDC3C7;" d="M370.759,101.517H141.241c-4.873,0-8.828-3.955-8.828-8.828c0-4.873,3.955-8.828,8.828-8.828h229.517  c4.873,0,8.828,3.955,8.828,8.828C379.586,97.562,375.631,101.517,370.759,101.517z"/>
<path style="fill:#CBB292;" d="M141.241,163.31h229.517l0,0v273.655c0,9.754-7.901,17.655-17.655,17.655H158.897  c-9.754,0-17.655-7.901-17.655-17.655V163.31L141.241,163.31z"/>
<g>
	<path style="fill:#2C2F38;" d="M335.448,384H176.552c-4.873,0-8.828-3.946-8.828-8.819v-0.009V233.931   c0-4.873,3.946-8.828,8.819-8.828h0.009h158.897c4.873,0,8.828,3.946,8.828,8.819v0.009v141.241c0,4.873-3.946,8.828-8.819,8.828   H335.448z M185.379,366.345h141.241V242.759H185.379V366.345z"/>
	<path style="fill:#2C2F38;" d="M220.69,286.897c-4.873,0-8.828-3.946-8.828-8.819v-0.009v-44.138c0-4.873,3.955-8.828,8.828-8.828   c4.873,0,8.828,3.955,8.828,8.828v44.138c0,4.873-3.946,8.828-8.819,8.828H220.69z"/>
	<path style="fill:#2C2F38;" d="M220.69,384c-4.873,0-8.828-3.946-8.828-8.819v-0.009v-61.793c0-4.873,3.955-8.828,8.828-8.828   c4.873,0,8.828,3.955,8.828,8.828v61.793c0,4.873-3.946,8.828-8.819,8.828H220.69z"/>
	<path style="fill:#2C2F38;" d="M256,339.862h-35.31c-4.873,0-8.828-3.955-8.828-8.828s3.955-8.828,8.828-8.828H256   c4.873,0,8.828,3.955,8.828,8.828S260.873,339.862,256,339.862z"/>
	<path style="fill:#2C2F38;" d="M326.621,339.862h-35.31c-4.873,0-8.828-3.955-8.828-8.828s3.955-8.828,8.828-8.828h35.31   c4.873,0,8.828,3.955,8.828,8.828S331.493,339.862,326.621,339.862z"/>
	<path style="fill:#2C2F38;" d="M335.448,286.897c-29.237-0.035-52.93-23.729-52.966-52.966c0-4.873,3.955-8.828,8.828-8.828   c4.873,0,8.828,3.955,8.828,8.828c0.018,19.491,15.819,35.293,35.31,35.31c4.873,0,8.828,3.955,8.828,8.828   S340.321,286.897,335.448,286.897z"/>
</g>
<g>
</g>
<g>
</g>
<g>
</g>
<g>
</g>
<g>
</g>
<g>
</g>
<g>
</g>
<g>
</g>
<g>
</g>
<g>
</g>
<g>
</g>
<g>
</g>
<g>
</g>
<g>
</g>
<g>
</g>
</svg>
