<?xml version="1.0" encoding="iso-8859-1"?>
<!-- Generator: Adobe Illustrator 19.0.0, SVG Export Plug-In . SVG Version: 6.00 Build 0)  -->
<svg xmlns="http://www.w3.org/2000/svg" xmlns:xlink="http://www.w3.org/1999/xlink" version="1.1" id="Layer_1" x="0px" y="0px" viewBox="0 0 512 512" style="enable-background:new 0 0 512 512;" xml:space="preserve">
<polygon style="fill:#2C3E50;" points="135.777,384 61.793,384 61.793,419.31 135.777,419.31 376.223,419.31 450.207,419.31   450.207,384 376.223,384 "/>
<path style="fill:#5E5F62;" d="M423.724,48.552H88.276c-19.5-0.009-35.302,15.793-35.31,35.293c0,0,0,0.009,0,0.018v88.276h406.069  V83.862c0.009-19.5-15.793-35.302-35.293-35.31C423.742,48.552,423.733,48.552,423.724,48.552z"/>
<rect x="35.31" y="260.414" style="fill:#2C2F38;" width="35.31" height="203.034"/>
<path style="fill:#5E5F62;" d="M35.31,454.621h35.31c9.754,0,17.655,7.901,17.655,17.655v26.483l0,0H17.655l0,0v-26.483  C17.655,462.521,25.556,454.621,35.31,454.621z"/>
<path style="fill:#2C3E50;" d="M17.655,92.69h70.621c9.754,0,17.655,7.901,17.655,17.655v150.069c0,4.873-3.955,8.828-8.828,8.828  H8.828c-4.873,0-8.828-3.955-8.828-8.828V110.345C0,100.59,7.901,92.69,17.655,92.69z"/>
<path style="fill:#2980BA;" d="M70.621,145.655H35.31c-4.873,0-8.828-3.955-8.828-8.828c0-4.873,3.955-8.828,8.828-8.828h35.31  c4.873,0,8.828,3.955,8.828,8.828C79.448,141.7,75.494,145.655,70.621,145.655z"/>
<rect x="441.379" y="260.414" style="fill:#2C2F38;" width="35.31" height="203.034"/>
<path style="fill:#5E5F62;" d="M441.379,454.621h35.31c9.754,0,17.655,7.901,17.655,17.655v26.483l0,0h-70.621l0,0v-26.483  C423.724,462.521,431.625,454.621,441.379,454.621z"/>
<path style="fill:#2C3E50;" d="M423.724,92.69h70.621c9.754,0,17.655,7.901,17.655,17.655v150.069c0,4.873-3.955,8.828-8.828,8.828  h-88.276c-4.873,0-8.828-3.955-8.828-8.828V110.345C406.069,100.59,413.97,92.69,423.724,92.69z"/>
<path style="fill:#2980BA;" d="M476.69,145.655h-35.31c-4.873,0-8.828-3.955-8.828-8.828c0-4.873,3.955-8.828,8.828-8.828h35.31  c4.873,0,8.828,3.955,8.828,8.828C485.517,141.7,481.562,145.655,476.69,145.655z"/>
<polygon style="fill:#2C2F38;" points="141.241,251.586 105.931,251.586 105.931,163.31 406.069,163.31 406.069,251.586   370.759,251.586 "/>
<path style="fill:#2C3E50;" d="M123.586,13.241h264.828c9.754,0,17.655,7.901,17.655,17.655v17.655l0,0H105.931l0,0V30.897  C105.931,21.142,113.832,13.241,123.586,13.241z"/>
<path style="fill:#BDC3C7;" d="M370.759,101.517H141.241c-4.873,0-8.828-3.955-8.828-8.828c0-4.873,3.955-8.828,8.828-8.828h229.517  c4.873,0,8.828,3.955,8.828,8.828C379.586,97.562,375.631,101.517,370.759,101.517z"/>
<path style="fill:#CBB292;" d="M141.241,163.31h229.517l0,0v273.655c0,9.754-7.901,17.655-17.655,17.655H158.897  c-9.754,0-17.655-7.901-17.655-17.655V163.31L141.241,163.31z"/>
<g>
	<path style="fill:#2C2F38;" d="M185.379,207.448c-4.829,0.044-8.783-3.831-8.828-8.66c0-0.053,0-0.115,0-0.168   c-0.035-1.156,0.212-2.304,0.706-3.354c0.424-1.077,1.059-2.066,1.854-2.913c3.54-3.266,8.995-3.266,12.535,0   c0.794,0.847,1.43,1.836,1.854,2.913c0.45,1.059,0.689,2.198,0.706,3.354c-0.018,2.339-0.936,4.582-2.56,6.268   C189.987,206.548,187.727,207.466,185.379,207.448z"/>
	<path style="fill:#2C2F38;" d="M220.69,207.448c-4.829,0.053-8.775-3.822-8.828-8.642c-0.009-1.218,0.23-2.419,0.706-3.531   c0.424-1.077,1.059-2.066,1.854-2.913c3.54-3.266,8.995-3.266,12.535,0c0.794,0.847,1.43,1.836,1.854,2.913   c1.898,4.44-0.159,9.578-4.59,11.476C223.1,207.219,221.899,207.457,220.69,207.448z"/>
	<path style="fill:#2C2F38;" d="M256,207.448c-2.348,0.026-4.608-0.9-6.268-2.56c-0.777-0.856-1.404-1.845-1.854-2.913   c-0.945-2.136-0.945-4.573,0-6.709c0.424-1.077,1.059-2.066,1.854-2.913c3.54-3.266,8.995-3.266,12.535,0   c0.794,0.847,1.43,1.836,1.854,2.913c1.412,3.284,0.671,7.097-1.854,9.622c-0.856,0.777-1.845,1.404-2.913,1.854   C258.295,207.192,257.156,207.431,256,207.448z"/>
	<path style="fill:#2C2F38;" d="M291.31,207.448c-4.829,0.053-8.775-3.822-8.828-8.642c-0.009-1.218,0.23-2.419,0.706-3.531   c1.88-4.52,7.071-6.656,11.591-4.767c1.042,0.433,1.986,1.059,2.798,1.854c0.777,0.856,1.404,1.845,1.854,2.913   c0.945,2.136,0.945,4.573,0,6.709c-0.803,2.216-2.551,3.964-4.767,4.767C293.605,207.192,292.467,207.431,291.31,207.448z"/>
	<path style="fill:#2C2F38;" d="M326.621,207.448c-1.156-0.018-2.295-0.256-3.354-0.706c-1.068-0.45-2.057-1.077-2.913-1.854   c-1.66-1.66-2.586-3.919-2.56-6.268c0.018-1.156,0.256-2.295,0.706-3.354c0.803-2.216,2.551-3.964,4.767-4.767   c2.145-0.892,4.564-0.892,6.709,0c1.077,0.424,2.066,1.059,2.913,1.854c0.777,0.856,1.404,1.845,1.854,2.913   c1.412,3.284,0.671,7.097-1.854,9.622c-0.856,0.777-1.845,1.404-2.913,1.854C328.916,207.192,327.777,207.431,326.621,207.448z"/>
	<path style="fill:#2C2F38;" d="M203.034,233.931c-2.348,0.026-4.608-0.9-6.268-2.56c-0.777-0.856-1.404-1.845-1.854-2.913   c-0.945-2.136-0.945-4.573,0-6.709c0.803-2.216,2.551-3.964,4.767-4.767c3.293-1.342,7.062-0.618,9.622,1.854   c0.794,0.847,1.43,1.836,1.854,2.913c0.945,2.136,0.945,4.573,0,6.709c-0.803,2.216-2.551,3.964-4.767,4.767   C205.33,233.675,204.191,233.913,203.034,233.931z"/>
	<path style="fill:#2C2F38;" d="M238.345,233.931c-2.348,0.026-4.608-0.9-6.268-2.56c-0.777-0.883-1.43-1.863-1.951-2.913   c-0.424-1.068-0.627-2.207-0.609-3.354c0.018-1.156,0.256-2.295,0.706-3.354c0.424-1.077,1.059-2.066,1.854-2.913l1.315-1.059   c0.494-0.335,1.033-0.6,1.598-0.794c0.503-0.256,1.033-0.433,1.589-0.538c1.13-0.256,2.304-0.256,3.443,0   c0.583,0.088,1.156,0.265,1.677,0.538c0.538,0.177,1.05,0.441,1.501,0.794c0.53,0.353,0.971,0.706,1.412,1.059   c0.794,0.847,1.43,1.836,1.854,2.913c0.945,2.136,0.945,4.573,0,6.709c-0.45,1.068-1.077,2.057-1.854,2.913   C242.953,233.031,240.693,233.949,238.345,233.931z"/>
	<path style="fill:#2C2F38;" d="M273.655,233.931c-2.348,0.026-4.608-0.9-6.268-2.56c-0.777-0.856-1.404-1.845-1.854-2.913   c-0.945-2.136-0.945-4.573,0-6.709c0.803-2.216,2.551-3.964,4.767-4.767c2.136-0.927,4.564-0.927,6.709,0   c1.068,0.45,2.057,1.077,2.913,1.854c0.794,0.847,1.43,1.836,1.854,2.913c0.945,2.136,0.945,4.573,0,6.709   c-0.803,2.216-2.551,3.964-4.767,4.767C275.95,233.675,274.812,233.913,273.655,233.931z"/>
	<path style="fill:#2C2F38;" d="M308.966,233.931c-2.348,0.026-4.608-0.9-6.268-2.56c-0.777-0.856-1.404-1.845-1.854-2.913   c-0.945-2.136-0.945-4.573,0-6.709c0.424-1.077,1.059-2.066,1.854-2.913l1.315-1.059c0.494-0.335,1.033-0.6,1.598-0.794   c0.503-0.256,1.033-0.433,1.589-0.538c1.13-0.256,2.304-0.256,3.443,0c0.583,0.088,1.156,0.265,1.677,0.538   c0.547,0.177,1.05,0.441,1.501,0.794c0.53,0.353,0.971,0.706,1.412,1.059c0.794,0.847,1.43,1.836,1.854,2.913   c0.945,2.136,0.945,4.573,0,6.709c-0.45,1.068-1.077,2.057-1.854,2.913C313.574,233.031,311.314,233.949,308.966,233.931z"/>
</g>
<g>
</g>
<g>
</g>
<g>
</g>
<g>
</g>
<g>
</g>
<g>
</g>
<g>
</g>
<g>
</g>
<g>
</g>
<g>
</g>
<g>
</g>
<g>
</g>
<g>
</g>
<g>
</g>
<g>
</g>
</svg>
