<?xml version="1.0" encoding="iso-8859-1"?>
<!-- Generator: Adobe Illustrator 19.0.0, SVG Export Plug-In . SVG Version: 6.00 Build 0)  -->
<svg xmlns="http://www.w3.org/2000/svg" xmlns:xlink="http://www.w3.org/1999/xlink" version="1.1" id="Layer_1" x="0px" y="0px" viewBox="0 0 512 512" style="enable-background:new 0 0 512 512;" xml:space="preserve">
<path style="fill:#7F8C8D;" d="M507.661,442.576H4.339L49.43,284.759c4.487-14.683,18.137-24.637,33.488-24.42h346.164  c15.351-0.226,29.002,9.728,33.488,24.42L507.661,442.576z"/>
<path style="fill:#2C2F38;" d="M4.339,442.576h503.322l0,0v52.068c0,9.589-7.767,17.356-17.356,17.356H21.695  c-9.589,0-17.356-7.767-17.356-17.356V442.576L4.339,442.576z"/>
<path style="fill:#9BC8C2;" d="M56.407,477.288h86.78c4.79,0,8.678,3.888,8.678,8.678V512l0,0H47.729l0,0v-26.034  C47.729,481.176,51.617,477.288,56.407,477.288z"/>
<g>
	<path style="fill:#FF5364;" d="M195.254,477.288h26.034c4.79,0,8.678,3.888,8.678,8.678V512l0,0h-43.39l0,0v-26.034   C186.576,481.176,190.464,477.288,195.254,477.288z"/>
	<path style="fill:#FF5364;" d="M273.356,477.288h26.034c4.79,0,8.678,3.888,8.678,8.678V512l0,0h-43.39l0,0v-26.034   C264.678,481.176,268.566,477.288,273.356,477.288z"/>
	<path style="fill:#FF5364;" d="M351.458,477.288h26.034c4.79,0,8.678,3.888,8.678,8.678V512l0,0h-43.39l0,0v-26.034   C342.78,481.176,346.667,477.288,351.458,477.288z"/>
</g>
<g>
	<path style="fill:#2C2F38;" d="M420.881,312.407H308.068c-4.79,0-8.678-3.888-8.678-8.678s3.888-8.678,8.678-8.678h112.814   c4.79,0,8.678,3.888,8.678,8.678S425.672,312.407,420.881,312.407z"/>
	<path style="fill:#2C2F38;" d="M429.559,347.119H308.068c-4.79,0-8.678-3.888-8.678-8.678s3.888-8.678,8.678-8.678h121.492   c4.79,0,8.678,3.888,8.678,8.678S434.35,347.119,429.559,347.119z"/>
	<path style="fill:#2C2F38;" d="M438.237,381.831H308.068c-4.79,0-8.678-3.888-8.678-8.678c0-4.79,3.888-8.678,8.678-8.678h130.169   c4.79,0,8.678,3.888,8.678,8.678C446.915,377.943,443.027,381.831,438.237,381.831z"/>
	<path style="fill:#2C2F38;" d="M446.915,416.542H308.068c-4.79,0-8.678-3.888-8.678-8.678s3.888-8.678,8.678-8.678h138.847   c4.79,0,8.678,3.888,8.678,8.678S451.705,416.542,446.915,416.542z"/>
	<path style="fill:#2C2F38;" d="M91.119,225.627h34.712c4.79,0,8.678,3.888,8.678,8.678v26.034l0,0H82.441l0,0v-26.034   C82.441,229.515,86.328,225.627,91.119,225.627z"/>
</g>
<g>
	<path style="fill:#7F8C8D;" d="M107.095,227.762c-3.645,0-6.908-2.282-8.149-5.71l-8.904-24.463   c-1.64-4.504,0.677-9.485,5.181-11.125c4.504-1.64,9.485,0.677,11.125,5.181c0,0,0,0.009,0.009,0.009l8.904,24.463   c1.64,4.504-0.694,9.485-5.198,11.125C109.099,227.588,108.101,227.762,107.095,227.762L107.095,227.762z"/>
	<path style="fill:#7F8C8D;" d="M41.793,48.362c-3.645,0-6.908-2.282-8.149-5.71l-8.904-24.463   c-1.64-4.504,0.686-9.485,5.189-11.116c4.495-1.631,9.468,0.686,11.108,5.181l8.904,24.463c1.64,4.504-0.694,9.485-5.198,11.125   C43.806,48.189,42.8,48.362,41.793,48.362L41.793,48.362z"/>
</g>
<g>
	<path style="fill:#2C2F38;" d="M23.274,64.903c-4.912-13.529,2.074-28.472,15.594-33.384c3.732-1.354,7.723-1.84,11.672-1.415   c10.24,1.406,18.805,8.478,22.12,18.267l47.026,129.189c1.64,4.504-0.686,9.485-5.189,11.125l0,0l-32.612,11.871   c-4.504,1.64-9.485-0.686-11.125-5.189L23.274,64.903z"/>
	<path style="fill:#2C2F38;" d="M429.559,260.339h-52.068l0,0v-26.034c0-4.79,3.888-8.678,8.678-8.678h34.712   c4.79,0,8.678,3.888,8.678,8.678V260.339L429.559,260.339z"/>
</g>
<g>
	<path style="fill:#7F8C8D;" d="M404.905,227.762c-4.799-0.009-8.678-3.896-8.669-8.687c0-1.007,0.174-2.005,0.521-2.951   l8.904-24.463c1.64-4.504,6.621-6.821,11.125-5.181c4.495,1.64,6.812,6.613,5.181,11.108l-8.904,24.463   C411.813,225.48,408.559,227.762,404.905,227.762z"/>
	<path style="fill:#7F8C8D;" d="M470.207,48.362c-4.799-0.009-8.678-3.896-8.669-8.687c0-1.007,0.174-2.005,0.521-2.951   l8.904-24.463c1.64-4.504,6.621-6.821,11.125-5.181c4.495,1.64,6.812,6.613,5.181,11.108l-8.904,24.463   C477.106,46.08,473.852,48.362,470.207,48.362z"/>
</g>
<g>
	<path style="fill:#2C2F38;" d="M392.314,177.569L439.339,48.38c3.315-9.789,11.88-16.87,22.12-18.267   c14.31-1.536,27.145,8.817,28.681,23.127c0.425,3.948-0.061,7.94-1.414,11.672L441.24,195.384c-1.64,4.504-6.621,6.83-11.125,5.189   l-32.612-11.871C392.999,187.054,390.673,182.072,392.314,177.569L392.314,177.569z"/>
	<path style="fill:#2C2F38;" d="M238.644,225.627h34.712c4.79,0,8.678,3.888,8.678,8.678v26.034l0,0h-52.068l0,0v-26.034   C229.966,229.515,233.854,225.627,238.644,225.627z"/>
</g>
<g>
	<path style="fill:#7F8C8D;" d="M256,234.305c-4.79,0-8.678-3.879-8.678-8.669v-0.009v-26.034c0-4.79,3.888-8.678,8.678-8.678   c4.79,0,8.678,3.888,8.678,8.678v26.034c0,4.79-3.879,8.678-8.669,8.678H256z"/>
	<path style="fill:#7F8C8D;" d="M256,43.39c-4.79,0-8.678-3.879-8.678-8.669v-0.009V8.678C247.322,3.888,251.21,0,256,0   c4.79,0,8.678,3.888,8.678,8.678v26.034c0,4.79-3.879,8.678-8.669,8.678H256z"/>
</g>
<path style="fill:#2C2F38;" d="M229.966,190.915V53.092c-0.234-12.679,8.478-23.769,20.844-26.555  c14.119-2.846,27.865,6.3,30.711,20.419c0.338,1.684,0.512,3.393,0.512,5.111v138.847c0,4.79-3.888,8.678-8.678,8.678h-34.712  C233.854,199.593,229.966,195.705,229.966,190.915z"/>
<g>
</g>
<g>
</g>
<g>
</g>
<g>
</g>
<g>
</g>
<g>
</g>
<g>
</g>
<g>
</g>
<g>
</g>
<g>
</g>
<g>
</g>
<g>
</g>
<g>
</g>
<g>
</g>
<g>
</g>
</svg>
