<?xml version="1.0" encoding="iso-8859-1"?>
<!-- Generator: Adobe Illustrator 19.0.0, SVG Export Plug-In . SVG Version: 6.00 Build 0)  -->
<svg xmlns="http://www.w3.org/2000/svg" xmlns:xlink="http://www.w3.org/1999/xlink" version="1.1" id="Layer_1" x="0px" y="0px" viewBox="0 0 512 512" style="enable-background:new 0 0 512 512;" xml:space="preserve">
<path style="fill:#A5A5A4;" d="M17.655,251.586h476.69c9.754,0,17.655,7.901,17.655,17.655v211.862  c0,9.754-7.901,17.655-17.655,17.655H17.655C7.901,498.759,0,490.858,0,481.103V269.241C0,259.487,7.901,251.586,17.655,251.586z"/>
<path style="fill:#464F5D;" d="M441.379,384v114.759H70.621V384c0.026-9.737,7.918-17.629,17.655-17.655h335.448  C433.461,366.371,441.353,374.263,441.379,384z"/>
<rect x="70.621" y="401.655" style="fill:#2C2F38;" width="370.759" height="17.655"/>
<path style="fill:#5E5F62;" d="M406.069,136.828h17.655c9.737,0.026,17.629,7.918,17.655,17.655v97.103H70.621v-97.103  c0.026-9.737,7.918-17.629,17.655-17.655H406.069z"/>
<path style="fill:#CBB292;" d="M406.069,75.034v176.552H105.931V30.897c0.026-9.737,7.918-17.629,17.655-17.655h220.69"/>
<g>
	<path style="fill:#2C2F38;" d="M167.724,119.172h-26.483c-4.873,0-8.828-3.955-8.828-8.828s3.955-8.828,8.828-8.828h26.483   c4.873,0,8.828,3.955,8.828,8.828S172.597,119.172,167.724,119.172z"/>
	<path style="fill:#2C2F38;" d="M370.759,119.172h-35.31c-4.873,0-8.828-3.955-8.828-8.828s3.955-8.828,8.828-8.828h35.31   c4.873,0,8.828,3.955,8.828,8.828S375.631,119.172,370.759,119.172z"/>
	<path style="fill:#2C2F38;" d="M300.138,119.172h-97.103c-4.873,0-8.828-3.955-8.828-8.828s3.955-8.828,8.828-8.828h97.103   c4.873,0,8.828,3.955,8.828,8.828S305.011,119.172,300.138,119.172z"/>
	<path style="fill:#2C2F38;" d="M167.724,189.793h-26.483c-4.873,0-8.828-3.955-8.828-8.828s3.955-8.828,8.828-8.828h26.483   c4.873,0,8.828,3.955,8.828,8.828S172.597,189.793,167.724,189.793z"/>
	<path style="fill:#2C2F38;" d="M370.759,189.793H203.034c-4.873,0-8.828-3.955-8.828-8.828s3.955-8.828,8.828-8.828h167.724   c4.873,0,8.828,3.955,8.828,8.828S375.631,189.793,370.759,189.793z"/>
	<path style="fill:#2C2F38;" d="M203.034,154.483h-61.793c-4.873,0-8.828-3.955-8.828-8.828c0-4.873,3.955-8.828,8.828-8.828h61.793   c4.873,0,8.828,3.955,8.828,8.828C211.862,150.528,207.907,154.483,203.034,154.483z"/>
	<path style="fill:#2C2F38;" d="M370.759,154.483h-61.793c-4.873,0-8.828-3.955-8.828-8.828c0-4.873,3.955-8.828,8.828-8.828h61.793   c4.873,0,8.828,3.955,8.828,8.828C379.586,150.528,375.631,154.483,370.759,154.483z"/>
	<path style="fill:#2C2F38;" d="M273.655,154.483h-35.31c-4.873,0-8.828-3.955-8.828-8.828c0-4.873,3.955-8.828,8.828-8.828h35.31   c4.873,0,8.828,3.955,8.828,8.828C282.483,150.528,278.528,154.483,273.655,154.483z"/>
</g>
<path style="fill:#7F6E5D;" d="M406.069,75.034h-52.966c-4.873,0-8.828-3.955-8.828-8.828V13.241L406.069,75.034z"/>
<path style="fill:#3F5C6C;" d="M512,269.241v61.793H0v-61.793c0.026-9.737,7.918-17.629,17.655-17.655h476.69  C504.082,251.613,511.974,259.505,512,269.241z"/>
<g>
	<path style="fill:#A5A5A4;" d="M61.793,295.724H35.31c-4.873,0-8.828-3.955-8.828-8.828s3.955-8.828,8.828-8.828h26.483   c4.873,0,8.828,3.955,8.828,8.828C70.621,291.769,66.666,295.724,61.793,295.724z"/>
	<path style="fill:#A5A5A4;" d="M238.345,295.724H97.103c-4.873,0-8.828-3.955-8.828-8.828s3.955-8.828,8.828-8.828h141.241   c4.873,0,8.828,3.955,8.828,8.828C247.172,291.769,243.218,295.724,238.345,295.724z"/>
</g>
<g>
</g>
<g>
</g>
<g>
</g>
<g>
</g>
<g>
</g>
<g>
</g>
<g>
</g>
<g>
</g>
<g>
</g>
<g>
</g>
<g>
</g>
<g>
</g>
<g>
</g>
<g>
</g>
<g>
</g>
</svg>
