<?xml version="1.0" encoding="iso-8859-1"?>
<!-- Generator: Adobe Illustrator 19.0.0, SVG Export Plug-In . SVG Version: 6.00 Build 0)  -->
<svg xmlns="http://www.w3.org/2000/svg" xmlns:xlink="http://www.w3.org/1999/xlink" version="1.1" id="Layer_1" x="0px" y="0px" viewBox="0 0 512 512" style="enable-background:new 0 0 512 512;" xml:space="preserve">
<g>
	<path style="fill:#2C3E50;" d="M97.103,450.207h44.138l0,0v44.138c0,9.754-7.901,17.655-17.655,17.655h-8.828   c-9.754,0-17.655-7.901-17.655-17.655V450.207L97.103,450.207z"/>
	<path style="fill:#2C3E50;" d="M379.586,450.207h44.138l0,0v44.138c0,9.754-7.901,17.655-17.655,17.655h-8.828   c-9.754,0-17.655-7.901-17.655-17.655V450.207L379.586,450.207z"/>
</g>
<path style="fill:#7F8C8D;" d="M88.276,0h335.448c9.754,0,17.655,7.901,17.655,17.655v441.379c0,9.754-7.901,17.655-17.655,17.655  H88.276c-9.754,0-17.655-7.901-17.655-17.655V17.655C70.621,7.901,78.521,0,88.276,0z"/>
<path style="fill:#84B5CB;" d="M406.069,44.138v388.414c0,4.873-3.955,8.828-8.828,8.828H114.759c-4.873,0-8.828-3.955-8.828-8.828  V44.138c0-4.873,3.955-8.828,8.828-8.828h282.483C402.114,35.31,406.069,39.265,406.069,44.138z"/>
<circle style="fill:#464F5D;" cx="256" cy="220.69" r="52.966"/>
<g>
	<circle style="fill:#2C3E50;" cx="256" cy="220.69" r="17.655"/>
	<path style="fill:#2C3E50;" d="M256,211.862c-4.873,0-8.828-3.946-8.828-8.819c0,0,0,0,0-0.009v-44.138   c0-4.873,3.955-8.828,8.828-8.828s8.828,3.955,8.828,8.828v44.138C264.828,207.907,260.882,211.862,256,211.862L256,211.862z"/>
	<path style="fill:#2C3E50;" d="M271.96,383.241L271.96,383.241c-6.894-6.894-6.894-18.07,0-24.964l68.661-68.661   c6.894-6.894,18.07-6.894,24.964,0l0,0c6.894,6.894,6.894,18.07,0,24.964l-68.661,68.661   C290.03,390.135,278.855,390.135,271.96,383.241z"/>
</g>
<g>
	<path style="fill:#B0D3F0;" d="M141.241,97.103c-4.873,0-8.828-3.955-8.828-8.828c0-2.339,0.927-4.582,2.586-6.241l17.655-17.655   c3.478-3.416,9.066-3.363,12.482,0.115c3.372,3.434,3.372,8.934,0,12.367l-17.655,17.655   C145.832,96.177,143.581,97.103,141.241,97.103z"/>
	<path style="fill:#B0D3F0;" d="M141.241,141.241c-4.873,0-8.828-3.955-8.828-8.828c0-2.339,0.927-4.582,2.586-6.241l61.793-61.793   c3.478-3.416,9.066-3.363,12.482,0.115c3.372,3.434,3.372,8.934,0,12.367l-61.793,61.793   C145.832,140.314,143.581,141.241,141.241,141.241z"/>
</g>
<g>
</g>
<g>
</g>
<g>
</g>
<g>
</g>
<g>
</g>
<g>
</g>
<g>
</g>
<g>
</g>
<g>
</g>
<g>
</g>
<g>
</g>
<g>
</g>
<g>
</g>
<g>
</g>
<g>
</g>
</svg>
