<?xml version="1.0" encoding="iso-8859-1"?>
<!-- Generator: Adobe Illustrator 19.0.0, SVG Export Plug-In . SVG Version: 6.00 Build 0)  -->
<svg xmlns="http://www.w3.org/2000/svg" xmlns:xlink="http://www.w3.org/1999/xlink" version="1.1" id="Layer_1" x="0px" y="0px" viewBox="0 0 512 512" style="enable-background:new 0 0 512 512;" xml:space="preserve">
<path style="fill:#2C2F38;" d="M273.664,97.103c-0.75,0-1.501-0.097-2.225-0.282L33.095,35.028  c-4.714-1.227-7.548-6.047-6.329-10.761c1.227-4.714,6.038-7.548,10.761-6.329l238.345,61.793c4.723,1.227,7.548,6.038,6.329,10.761  C281.185,94.385,277.681,97.103,273.664,97.103z"/>
<path d="M317.793,450.207H194.207c-9.737,0-17.655-7.918-17.655-17.655v-17.655c0-4.882,3.955-8.828,8.828-8.828h141.241  c4.882,0,8.828,3.946,8.828,8.828v17.655C335.448,442.289,327.53,450.207,317.793,450.207z M194.207,423.724v8.828h123.586v-8.828  H194.207z"/>
<path d="M317.793,353.103H194.207c-9.737,0-17.655-7.918-17.655-17.655v-17.655c0-4.882,3.955-8.828,8.828-8.828h141.241  c4.882,0,8.828,3.946,8.828,8.828v17.655C335.448,345.185,327.53,353.103,317.793,353.103z M194.207,326.621v8.828h123.586v-8.828  H194.207z"/>
<path style="fill:#3F5C6C;" d="M494.345,0H333.683c-10.081,0-19.686,4.299-26.395,11.829l-54.819,61.705  c-3.363,3.778-8.183,5.932-13.241,5.914H17.655C7.918,79.475,0.026,87.367,0,97.103v406.069C0,508.045,3.955,512,8.828,512h52.966  c4.873,0,8.828-3.955,8.828-8.828V476.69h370.759v26.483c0,4.873,3.955,8.828,8.828,8.828h52.966c4.873,0,8.828-3.955,8.828-8.828  V17.655C511.974,7.918,504.082,0.026,494.345,0z"/>
<g>
	<path style="fill:#2C2F38;" d="M0,467.862h70.621l0,0v35.31c0,4.873-3.955,8.828-8.828,8.828H8.828C3.955,512,0,508.045,0,503.172   V467.862L0,467.862z"/>
	<path style="fill:#2C2F38;" d="M441.379,467.862H512l0,0v35.31c0,4.873-3.955,8.828-8.828,8.828h-52.966   c-4.873,0-8.828-3.955-8.828-8.828V467.862L441.379,467.862z"/>
</g>
<g>
	<rect y="123.586" style="fill:#2C3E50;" width="512" height="158.897"/>
	<rect y="379.586" style="fill:#2C3E50;" width="512" height="97.103"/>
</g>
<path style="fill:#2C2F38;" d="M476.69,167.724v70.621c0,4.873-3.955,8.828-8.828,8.828H326.621v-88.276h141.241  C472.735,158.897,476.69,162.851,476.69,167.724z"/>
<path style="fill:#BBD1B5;" d="M326.621,158.897v88.276H194.207c-4.873,0-8.828-3.955-8.828-8.828v-70.621  c0-4.873,3.955-8.828,8.828-8.828H326.621z"/>
<g>
	<path style="fill:#FFFFFF;" d="M220.69,211.862c-4.873,0-8.828-3.955-8.828-8.828c0-2.339,0.927-4.582,2.586-6.241l8.828-8.828   c3.478-3.416,9.066-3.363,12.482,0.115c3.372,3.434,3.372,8.934,0,12.367l-8.828,8.828   C225.28,210.935,223.029,211.862,220.69,211.862z"/>
	<path style="fill:#FFFFFF;" d="M256,220.69c-4.873,0-8.828-3.955-8.828-8.828c0-2.339,0.927-4.581,2.586-6.241l17.655-17.655   c3.478-3.416,9.066-3.363,12.482,0.115c3.372,3.434,3.372,8.934,0,12.367l-17.655,17.655C260.59,219.763,258.339,220.69,256,220.69   z"/>
</g>
<g>
</g>
<g>
</g>
<g>
</g>
<g>
</g>
<g>
</g>
<g>
</g>
<g>
</g>
<g>
</g>
<g>
</g>
<g>
</g>
<g>
</g>
<g>
</g>
<g>
</g>
<g>
</g>
<g>
</g>
</svg>
