<?xml version="1.0" encoding="iso-8859-1"?>
<!-- Generator: Adobe Illustrator 19.0.0, SVG Export Plug-In . SVG Version: 6.00 Build 0)  -->
<svg xmlns="http://www.w3.org/2000/svg" xmlns:xlink="http://www.w3.org/1999/xlink" version="1.1" id="Layer_1" x="0px" y="0px" viewBox="0 0 512 512" style="enable-background:new 0 0 512 512;" xml:space="preserve">
<g>
	<path style="fill:#7F6E5D;" d="M13.017,512c-4.79,0-8.678-3.879-8.678-8.669v-0.009v-26.034c0-4.79,3.888-8.678,8.678-8.678   s8.678,3.888,8.678,8.678v26.034c0,4.79-3.879,8.678-8.669,8.678C13.026,512,13.017,512,13.017,512z"/>
	<path style="fill:#7F6E5D;" d="M134.508,512c-4.79,0-8.678-3.879-8.678-8.669v-0.009v-26.034c0-4.79,3.888-8.678,8.678-8.678   s8.678,3.888,8.678,8.678v26.034c0,4.79-3.879,8.678-8.669,8.678H134.508z"/>
	<path style="fill:#7F6E5D;" d="M377.492,512c-4.79,0-8.678-3.879-8.678-8.669v-0.009v-26.034c0-4.79,3.888-8.678,8.678-8.678   s8.678,3.888,8.678,8.678v26.034c0,4.79-3.879,8.678-8.669,8.678H377.492z"/>
	<path style="fill:#7F6E5D;" d="M498.983,512c-4.79,0-8.678-3.879-8.678-8.669v-0.009v-26.034c0-4.79,3.888-8.678,8.678-8.678   s8.678,3.888,8.678,8.678v26.034c0,4.79-3.879,8.678-8.669,8.678H498.983z"/>
</g>
<g>
	<rect x="4.339" y="260.339" style="fill:#B19046;" width="138.847" height="216.949"/>
	<rect x="368.814" y="260.339" style="fill:#B19046;" width="138.847" height="216.949"/>
</g>
<rect x="143.186" y="242.983" style="fill:#7F6E5D;" width="225.627" height="164.881"/>
<rect x="4.339" y="269.017" style="fill:#B19046;" width="138.847" height="69.424"/>
<rect x="4.339" y="338.441" style="fill:#E4C05C;" width="138.847" height="69.424"/>
<g>
	<path style="fill:#2C2F38;" d="M82.441,312.407H65.085c-4.79,0-8.678-3.888-8.678-8.678s3.888-8.678,8.678-8.678h17.356   c4.79,0,8.678,3.888,8.678,8.678S87.231,312.407,82.441,312.407z"/>
	<path style="fill:#2C2F38;" d="M82.441,381.831H65.085c-4.79,0-8.678-3.888-8.678-8.678c0-4.79,3.888-8.678,8.678-8.678h17.356   c4.79,0,8.678,3.888,8.678,8.678C91.119,377.943,87.231,381.831,82.441,381.831z"/>
	<path style="fill:#2C2F38;" d="M82.441,451.254H65.085c-4.79,0-8.678-3.888-8.678-8.678s3.888-8.678,8.678-8.678h17.356   c4.79,0,8.678,3.888,8.678,8.678S87.231,451.254,82.441,451.254z"/>
</g>
<rect x="368.814" y="269.017" style="fill:#B19046;" width="138.847" height="69.424"/>
<rect x="368.814" y="338.441" style="fill:#E4C05C;" width="138.847" height="69.424"/>
<g>
	<path style="fill:#2C2F38;" d="M446.915,312.407h-17.356c-4.79,0-8.678-3.888-8.678-8.678s3.888-8.678,8.678-8.678h17.356   c4.79,0,8.678,3.888,8.678,8.678S451.705,312.407,446.915,312.407z"/>
	<path style="fill:#2C2F38;" d="M446.915,381.831h-17.356c-4.79,0-8.678-3.888-8.678-8.678c0-4.79,3.888-8.678,8.678-8.678h17.356   c4.79,0,8.678,3.888,8.678,8.678C455.593,377.943,451.705,381.831,446.915,381.831z"/>
	<path style="fill:#2C2F38;" d="M446.915,451.254h-17.356c-4.79,0-8.678-3.888-8.678-8.678s3.888-8.678,8.678-8.678h17.356   c4.79,0,8.678,3.888,8.678,8.678S451.705,451.254,446.915,451.254z"/>
</g>
<path style="fill:#285680;" d="M143.186,0h225.627c9.589,0,17.356,7.767,17.356,17.356v130.169c0,9.589-7.767,17.356-17.356,17.356  H143.186c-9.589,0-17.356-7.767-17.356-17.356V17.356C125.831,7.767,133.597,0,143.186,0z"/>
<polygon style="fill:#2C2F38;" points="308.068,216.949 282.034,190.915 282.034,164.881 229.966,164.881 229.966,190.915   203.932,216.949 "/>
<g>
	<path style="fill:#2FA8CC;" d="M160.542,60.746c-4.79,0-8.678-3.888-8.678-8.678c0-2.3,0.911-4.504,2.543-6.135l17.356-17.356   c3.419-3.358,8.912-3.306,12.271,0.113c3.315,3.376,3.315,8.782,0,12.158l-17.356,17.356   C165.055,59.835,162.842,60.746,160.542,60.746z"/>
	<path style="fill:#2FA8CC;" d="M177.898,95.458c-4.79,0-8.678-3.888-8.678-8.678c0-2.3,0.911-4.504,2.543-6.135l52.068-52.068   c3.419-3.358,8.912-3.306,12.271,0.113c3.315,3.376,3.315,8.782,0,12.158l-52.068,52.068   C182.411,94.546,180.198,95.458,177.898,95.458z"/>
</g>
<path style="fill:#2C2F38;" d="M39.051,182.237h43.39c9.589,0,17.356,7.767,17.356,17.356v26.034l0,0H21.695l0,0v-26.034  C21.695,190.004,29.462,182.237,39.051,182.237z"/>
<path style="fill:#5E5F62;" d="M429.559,130.169h17.356c4.79,0,8.678,3.888,8.678,8.678v52.068l0,0h-34.712l0,0v-52.068  C420.881,134.057,424.769,130.169,429.559,130.169z"/>
<path style="fill:#2C2F38;" d="M420.881,182.237h34.712c9.589,0,17.356,7.767,17.356,17.356v17.356l0,0h-69.424l0,0v-17.356  C403.525,190.004,411.292,182.237,420.881,182.237z"/>
<path style="fill:#E4C05C;" d="M21.695,216.949h468.61c9.589,0,17.356,7.767,17.356,17.356v34.712l0,0H4.339l0,0v-34.712  C4.339,224.716,12.106,216.949,21.695,216.949z"/>
<g>
</g>
<g>
</g>
<g>
</g>
<g>
</g>
<g>
</g>
<g>
</g>
<g>
</g>
<g>
</g>
<g>
</g>
<g>
</g>
<g>
</g>
<g>
</g>
<g>
</g>
<g>
</g>
<g>
</g>
</svg>
