<?xml version="1.0" encoding="iso-8859-1"?>
<!-- Generator: Adobe Illustrator 19.0.0, SVG Export Plug-In . SVG Version: 6.00 Build 0)  -->
<svg xmlns="http://www.w3.org/2000/svg" xmlns:xlink="http://www.w3.org/1999/xlink" version="1.1" id="Layer_1" x="0px" y="0px" viewBox="0 0 512 512" style="enable-background:new 0 0 512 512;" xml:space="preserve">
<g>
	<path style="fill:#464F5D;" d="M17.655,428.138h35.31l0,0v26.483c0,9.754-7.901,17.655-17.655,17.655l0,0   c-9.754,0-17.655-7.901-17.655-17.655V428.138L17.655,428.138z"/>
	<path style="fill:#464F5D;" d="M459.034,428.138h35.31l0,0v26.483c0,9.754-7.901,17.655-17.655,17.655l0,0   c-9.754,0-17.655-7.901-17.655-17.655V428.138L459.034,428.138z"/>
</g>
<path style="fill:#7F8C8D;" d="M512,278.069L403.297,49.788c-2.931-6.144-9.137-10.063-15.943-10.063H124.646  c-6.806,0-13.012,3.919-15.943,10.063L0,278.069"/>
<path style="fill:#2C2F38;" d="M88.541,269.241H17.655C7.918,269.268,0.026,277.16,0,286.897V419.31  c0.026,9.737,7.918,17.629,17.655,17.655h476.69c9.737-0.026,17.629-7.918,17.655-17.655V286.897  c-0.026-9.737-7.918-17.629-17.655-17.655H88.541z"/>
<circle style="fill:#464F5D;" cx="145.655" cy="353.103" r="101.517"/>
<circle style="fill:#2FA8CC;" cx="145.655" cy="353.103" r="66.207"/>
<g>
	<path style="fill:#FFFFFF;" d="M114.759,361.931c-4.873,0-8.828-3.946-8.828-8.819v-0.009   c0.026-21.928,17.796-39.698,39.724-39.724c4.873,0,8.828,3.955,8.828,8.828c0,4.873-3.955,8.828-8.828,8.828   c-12.182,0.009-22.06,9.887-22.069,22.069c0,4.873-3.946,8.828-8.819,8.828H114.759z"/>
	<path style="fill:#FFFFFF;" d="M158.897,375.172c-2.348,0.026-4.608-0.9-6.268-2.56c-0.777-0.856-1.404-1.845-1.854-2.913   c-0.945-2.136-0.945-4.573,0-6.709c0.45-1.068,1.077-2.057,1.854-2.913c3.54-3.266,8.995-3.266,12.535,0   c0.794,0.847,1.43,1.836,1.854,2.913c0.945,2.136,0.945,4.573,0,6.709c-0.803,2.216-2.551,3.964-4.767,4.767   C161.192,374.916,160.053,375.155,158.897,375.172z"/>
</g>
<g>
	<path style="fill:#464F5D;" d="M291.31,401.655c-4.873,0-8.828-3.946-8.828-8.819v-0.009v-79.448c0-4.873,3.955-8.828,8.828-8.828   c4.873,0,8.828,3.955,8.828,8.828v79.448c0,4.873-3.946,8.828-8.819,8.828H291.31z"/>
	<path style="fill:#464F5D;" d="M326.621,401.655c-4.873,0-8.828-3.946-8.828-8.819v-0.009v-79.448c0-4.873,3.955-8.828,8.828-8.828   c4.873,0,8.828,3.955,8.828,8.828v79.448c0,4.873-3.946,8.828-8.819,8.828H326.621z"/>
	<path style="fill:#464F5D;" d="M361.931,401.655c-4.873,0-8.828-3.946-8.828-8.819v-0.009v-79.448c0-4.873,3.955-8.828,8.828-8.828   s8.828,3.955,8.828,8.828v79.448c0,4.873-3.946,8.828-8.819,8.828H361.931z"/>
	<path style="fill:#464F5D;" d="M397.241,401.655c-4.873,0-8.828-3.946-8.828-8.819v-0.009v-79.448c0-4.873,3.955-8.828,8.828-8.828   c4.873,0,8.828,3.955,8.828,8.828v79.448c0,4.873-3.946,8.828-8.819,8.828H397.241z"/>
	<path style="fill:#464F5D;" d="M432.552,401.655c-4.873,0-8.828-3.946-8.828-8.819v-0.009v-79.448c0-4.873,3.955-8.828,8.828-8.828   s8.828,3.955,8.828,8.828v79.448c0,4.873-3.946,8.828-8.819,8.828H432.552z"/>
	<path style="fill:#464F5D;" d="M467.862,401.655c-4.873,0-8.828-3.946-8.828-8.819v-0.009v-79.448c0-4.873,3.955-8.828,8.828-8.828   s8.828,3.955,8.828,8.828v79.448c0,4.873-3.946,8.828-8.819,8.828H467.862z"/>
</g>
<g>
	<ellipse style="fill:#2C2F38;" cx="322.207" cy="198.621" rx="39.724" ry="26.483"/>
	<path style="fill:#2C2F38;" d="M406.069,242.759h-17.655c-4.873,0-8.828-3.955-8.828-8.828c0-4.873,3.955-8.828,8.828-8.828h17.655   c4.873,0,8.828,3.955,8.828,8.828C414.897,238.804,410.942,242.759,406.069,242.759z"/>
	<path style="fill:#2C2F38;" d="M406.069,172.138h-17.655c-4.873,0-8.828-3.955-8.828-8.828c0-4.873,3.955-8.828,8.828-8.828h17.655   c4.873,0,8.828,3.955,8.828,8.828C414.897,168.183,410.942,172.138,406.069,172.138z"/>
	<path style="fill:#2C2F38;" d="M414.897,207.448h-17.655c-4.873,0-8.828-3.955-8.828-8.828c0-4.873,3.955-8.828,8.828-8.828h17.655   c4.873,0,8.828,3.955,8.828,8.828C423.724,203.494,419.769,207.448,414.897,207.448z"/>
</g>
<g>
</g>
<g>
</g>
<g>
</g>
<g>
</g>
<g>
</g>
<g>
</g>
<g>
</g>
<g>
</g>
<g>
</g>
<g>
</g>
<g>
</g>
<g>
</g>
<g>
</g>
<g>
</g>
<g>
</g>
</svg>
