<?xml version="1.0" encoding="iso-8859-1"?>
<!-- Generator: Adobe Illustrator 19.0.0, SVG Export Plug-In . SVG Version: 6.00 Build 0)  -->
<svg xmlns="http://www.w3.org/2000/svg" xmlns:xlink="http://www.w3.org/1999/xlink" version="1.1" id="Layer_1" x="0px" y="0px" viewBox="0 0 512 512" style="enable-background:new 0 0 512 512;" xml:space="preserve">
<path style="fill:#464F5D;" d="M114.759,0h282.483c4.873,0,8.828,3.955,8.828,8.828v494.345c0,4.873-3.955,8.828-8.828,8.828  H114.759c-4.873,0-8.828-3.955-8.828-8.828V8.828C105.931,3.955,109.886,0,114.759,0z"/>
<g>
	<path style="fill:#2C2F38;" d="M406.069,308.966v194.207c-0.018,4.873-3.955,8.81-8.828,8.828H114.759   c-4.873-0.018-8.81-3.955-8.828-8.828V308.966H406.069z"/>
	<path style="fill:#2C2F38;" d="M158.897,35.31h194.207c9.754,0,17.655,7.901,17.655,17.655v8.828   c0,9.754-7.901,17.655-17.655,17.655H158.897c-9.754,0-17.655-7.901-17.655-17.655v-8.828   C141.241,43.211,149.142,35.31,158.897,35.31z"/>
	<path style="fill:#2C2F38;" d="M158.897,114.759h194.207c9.754,0,17.655,7.901,17.655,17.655v8.828   c0,9.754-7.901,17.655-17.655,17.655H158.897c-9.754,0-17.655-7.901-17.655-17.655v-8.828   C141.241,122.659,149.142,114.759,158.897,114.759z"/>
	<path style="fill:#2C2F38;" d="M158.897,194.207h194.207c9.754,0,17.655,7.901,17.655,17.655v8.828   c0,9.754-7.901,17.655-17.655,17.655H158.897c-9.754,0-17.655-7.901-17.655-17.655v-8.828   C141.241,202.108,149.142,194.207,158.897,194.207z"/>
</g>
<circle style="fill:#5E5F62;" cx="256" cy="335.448" r="52.966"/>
<circle style="fill:#2FA8CC;" cx="256" cy="335.448" r="17.655"/>
<g>
	<path style="fill:#464F5D;" d="M150.069,485.517c-4.873,0-8.828-3.946-8.828-8.819v-0.009v-52.966c0-4.873,3.955-8.828,8.828-8.828   c4.873,0,8.828,3.955,8.828,8.828v52.966c0,4.873-3.946,8.828-8.819,8.828H150.069z"/>
	<path style="fill:#464F5D;" d="M185.379,485.517c-4.873,0-8.828-3.946-8.828-8.819v-0.009v-52.966c0-4.873,3.955-8.828,8.828-8.828   c4.873,0,8.828,3.955,8.828,8.828v52.966c0,4.873-3.946,8.828-8.819,8.828H185.379z"/>
	<path style="fill:#464F5D;" d="M220.69,485.517c-4.873,0-8.828-3.946-8.828-8.819v-0.009v-52.966c0-4.873,3.955-8.828,8.828-8.828   c4.873,0,8.828,3.955,8.828,8.828v52.966c0,4.873-3.946,8.828-8.819,8.828H220.69z"/>
	<path style="fill:#464F5D;" d="M256,485.517c-4.873,0-8.828-3.946-8.828-8.819v-0.009v-52.966c0-4.873,3.955-8.828,8.828-8.828   s8.828,3.955,8.828,8.828v52.966c0,4.873-3.946,8.828-8.819,8.828H256z"/>
	<path style="fill:#464F5D;" d="M291.31,485.517c-4.873,0-8.828-3.946-8.828-8.819v-0.009v-52.966c0-4.873,3.955-8.828,8.828-8.828   c4.873,0,8.828,3.955,8.828,8.828v52.966c0,4.873-3.946,8.828-8.819,8.828H291.31z"/>
	<path style="fill:#464F5D;" d="M326.621,485.517c-4.873,0-8.828-3.946-8.828-8.819v-0.009v-52.966c0-4.873,3.955-8.828,8.828-8.828   c4.873,0,8.828,3.955,8.828,8.828v52.966c0,4.873-3.946,8.828-8.819,8.828H326.621z"/>
	<path style="fill:#464F5D;" d="M361.931,485.517c-4.873,0-8.828-3.946-8.828-8.819v-0.009v-52.966c0-4.873,3.955-8.828,8.828-8.828   s8.828,3.955,8.828,8.828v52.966c0,4.873-3.946,8.828-8.819,8.828H361.931z"/>
</g>
<path style="fill:#E64C3C;" d="M167.724,361.931c-4.829,0.044-8.783-3.831-8.828-8.66c0-0.053,0-0.115,0-0.168  c0.026-2.339,0.945-4.573,2.56-6.268c0.847-0.794,1.836-1.43,2.913-1.854c3.284-1.377,7.08-0.644,9.622,1.854  c0.794,0.847,1.43,1.836,1.854,2.913c1.898,4.44-0.159,9.578-4.59,11.476C170.134,361.702,168.934,361.94,167.724,361.931z"/>
<path style="fill:#F0C419;" d="M344.276,361.931c-4.829,0.053-8.775-3.822-8.828-8.642c-0.009-1.218,0.23-2.419,0.706-3.531  c0.424-1.077,1.059-2.066,1.854-2.913c3.54-3.266,8.995-3.266,12.535,0c0.794,0.847,1.43,1.836,1.854,2.913  c1.412,3.284,0.671,7.097-1.854,9.622c-0.856,0.803-1.845,1.457-2.913,1.942C346.562,361.737,345.423,361.949,344.276,361.931z"/>
<g>
</g>
<g>
</g>
<g>
</g>
<g>
</g>
<g>
</g>
<g>
</g>
<g>
</g>
<g>
</g>
<g>
</g>
<g>
</g>
<g>
</g>
<g>
</g>
<g>
</g>
<g>
</g>
<g>
</g>
</svg>
