<?xml version="1.0" encoding="iso-8859-1"?>
<!-- Generator: Adobe Illustrator 19.0.0, SVG Export Plug-In . SVG Version: 6.00 Build 0)  -->
<svg xmlns="http://www.w3.org/2000/svg" xmlns:xlink="http://www.w3.org/1999/xlink" version="1.1" id="Layer_1" x="0px" y="0px" viewBox="0 0 512 512" style="enable-background:new 0 0 512 512;" xml:space="preserve">
<path style="fill:#2C2F38;" d="M97.103,0h317.793c9.754,0,17.655,7.901,17.655,17.655v476.69c0,9.754-7.901,17.655-17.655,17.655  H97.103c-9.754,0-17.655-7.901-17.655-17.655V17.655C79.448,7.901,87.349,0,97.103,0z"/>
<g>
	<circle style="fill:#464F5D;" cx="256" cy="454.621" r="22.069"/>
	<path style="fill:#464F5D;" d="M256,44.138c-4.829,0.044-8.783-3.831-8.828-8.66c0-0.053,0-0.115,0-0.168   c0.035-2.339,0.945-4.573,2.56-6.268c2.534-2.507,6.329-3.24,9.622-1.854c1.068,0.45,2.057,1.077,2.913,1.854   c3.416,3.478,3.416,9.057,0,12.535c-0.856,0.777-1.845,1.404-2.913,1.854C258.295,43.882,257.156,44.12,256,44.138z"/>
</g>
<rect x="79.448" y="70.621" style="fill:#3F5C6C;" width="353.103" height="326.621"/>
<g>
	<path style="fill:#547580;" d="M114.759,132.414c-4.873,0-8.828-3.955-8.828-8.828c0-2.339,0.927-4.582,2.586-6.241l17.655-17.655   c3.478-3.416,9.066-3.363,12.482,0.115c3.372,3.434,3.372,8.934,0,12.367L121,129.827   C119.349,131.487,117.098,132.414,114.759,132.414z"/>
	<path style="fill:#547580;" d="M132.414,167.724c-4.873,0-8.828-3.955-8.828-8.828c0-2.339,0.927-4.581,2.586-6.241l52.966-52.966   c3.478-3.416,9.066-3.363,12.482,0.115c3.372,3.434,3.372,8.934,0,12.367l-52.966,52.966   C137.004,166.797,134.753,167.724,132.414,167.724z"/>
</g>
<g>
	<path style="fill:#81CCB8;" d="M397.241,123.586h-88.276c-4.873,0-8.828-3.955-8.828-8.828s3.955-8.828,8.828-8.828h88.276   c4.873,0,8.828,3.955,8.828,8.828S402.114,123.586,397.241,123.586z"/>
	<path style="fill:#81CCB8;" d="M397.241,158.897h-88.276c-4.873,0-8.828-3.955-8.828-8.828c0-4.873,3.955-8.828,8.828-8.828h88.276   c4.873,0,8.828,3.955,8.828,8.828C406.069,154.942,402.114,158.897,397.241,158.897z"/>
	<path style="fill:#81CCB8;" d="M397.241,326.621h-88.276c-4.873,0-8.828-3.955-8.828-8.828c0-4.873,3.955-8.828,8.828-8.828h88.276   c4.873,0,8.828,3.955,8.828,8.828C406.069,322.666,402.114,326.621,397.241,326.621z"/>
	<path style="fill:#81CCB8;" d="M397.241,361.931h-88.276c-4.873,0-8.828-3.955-8.828-8.828c0-4.873,3.955-8.828,8.828-8.828h88.276   c4.873,0,8.828,3.955,8.828,8.828C406.069,357.976,402.114,361.931,397.241,361.931z"/>
</g>
<path style="fill:#F0C419;" d="M256,291.31c0,39-31.62,70.621-70.621,70.621s-70.621-31.62-70.621-70.621  s31.62-70.621,70.621-70.621v70.621H256z"/>
<path style="fill:#CC66A1;" d="M291.31,256H220.69v-70.621c38.991-0.009,70.612,31.594,70.621,70.585  C291.31,255.974,291.31,255.991,291.31,256z"/>
<g>
</g>
<g>
</g>
<g>
</g>
<g>
</g>
<g>
</g>
<g>
</g>
<g>
</g>
<g>
</g>
<g>
</g>
<g>
</g>
<g>
</g>
<g>
</g>
<g>
</g>
<g>
</g>
<g>
</g>
</svg>
