<?xml version="1.0" encoding="iso-8859-1"?>
<!-- Generator: Adobe Illustrator 19.0.0, SVG Export Plug-In . SVG Version: 6.00 Build 0)  -->
<svg xmlns="http://www.w3.org/2000/svg" xmlns:xlink="http://www.w3.org/1999/xlink" version="1.1" id="Layer_1" x="0px" y="0px" viewBox="0 0 512 512" style="enable-background:new 0 0 512 512;" xml:space="preserve">
<path style="fill:#2C2F38;" d="M97.103,0h317.793c9.754,0,17.655,7.901,17.655,17.655v476.69c0,9.754-7.901,17.655-17.655,17.655  H97.103c-9.754,0-17.655-7.901-17.655-17.655V17.655C79.448,7.901,87.349,0,97.103,0z"/>
<g>
	<circle style="fill:#464F5D;" cx="256" cy="454.621" r="22.069"/>
	<path style="fill:#464F5D;" d="M256,44.138c-4.829,0.044-8.783-3.831-8.828-8.66c0-0.053,0-0.115,0-0.168   c0.035-2.339,0.945-4.573,2.56-6.268c2.534-2.507,6.329-3.24,9.622-1.854c1.068,0.45,2.057,1.077,2.913,1.854   c3.416,3.478,3.416,9.057,0,12.535c-0.856,0.777-1.845,1.404-2.913,1.854C258.295,43.882,257.156,44.12,256,44.138z"/>
</g>
<rect x="79.448" y="70.621" style="fill:#3F5C6C;" width="353.103" height="326.621"/>
<g>
	<path style="fill:#547580;" d="M114.759,132.414c-4.873,0-8.828-3.955-8.828-8.828c0-2.339,0.927-4.582,2.586-6.241l17.655-17.655   c3.478-3.416,9.066-3.363,12.482,0.115c3.372,3.434,3.372,8.934,0,12.367L121,129.827   C119.349,131.487,117.098,132.414,114.759,132.414z"/>
	<path style="fill:#547580;" d="M132.414,167.724c-4.873,0-8.828-3.955-8.828-8.828c0-2.339,0.927-4.581,2.586-6.241l52.966-52.966   c3.478-3.416,9.066-3.363,12.482,0.115c3.372,3.434,3.372,8.934,0,12.367l-52.966,52.966   C137.004,166.797,134.753,167.724,132.414,167.724z"/>
</g>
<path style="fill:#F0C419;" d="M266.417,340.904c40.06-5.323,69.032-42.84,69.032-84.904v-80.287  c0.265-7.318-5.455-13.462-12.773-13.727c-0.406-0.018-0.803-0.009-1.209,0.009c-1.951,0.203-3.919,0.3-5.888,0.3  c-26.509-0.132-50.202-16.587-59.586-41.384l0,0c-9.384,24.797-33.077,41.242-59.586,41.375c-1.969,0-3.928-0.097-5.888-0.3  c-7.309-0.397-13.568,5.199-13.965,12.509c-0.026,0.406-0.026,0.803-0.009,1.209v83.129c-1.024,44.579,34.295,81.54,78.874,82.564  C259.09,341.486,262.771,341.327,266.417,340.904z"/>
<path style="fill:#24AE5F;" d="M247.172,297.463c-2.339,0-4.582-0.927-6.241-2.586l-26.483-26.483  c-3.425-3.469-3.381-9.057,0.088-12.482c3.434-3.39,8.951-3.39,12.394,0l18.494,18.494l47.148-78.583  c2.507-4.184,7.936-5.535,12.111-3.028s5.535,7.936,3.028,12.111l0,0l-52.966,88.276c-1.395,2.331-3.796,3.884-6.488,4.22  C247.896,297.446,247.534,297.463,247.172,297.463z"/>
<g>
</g>
<g>
</g>
<g>
</g>
<g>
</g>
<g>
</g>
<g>
</g>
<g>
</g>
<g>
</g>
<g>
</g>
<g>
</g>
<g>
</g>
<g>
</g>
<g>
</g>
<g>
</g>
<g>
</g>
</svg>
