<?xml version="1.0" encoding="iso-8859-1"?>
<!-- Generator: Adobe Illustrator 19.0.0, SVG Export Plug-In . SVG Version: 6.00 Build 0)  -->
<svg xmlns="http://www.w3.org/2000/svg" xmlns:xlink="http://www.w3.org/1999/xlink" version="1.1" id="Layer_1" x="0px" y="0px" viewBox="0 0 512 512" style="enable-background:new 0 0 512 512;" xml:space="preserve">
<path style="fill:#2C2F38;" d="M158.897,0h194.207c19.5,0,35.31,15.81,35.31,35.31V476.69c0,19.5-15.81,35.31-35.31,35.31H158.897  c-19.5,0-35.31-15.81-35.31-35.31V35.31C123.586,15.81,139.396,0,158.897,0z"/>
<rect x="123.586" y="70.621" style="fill:#3F5C6C;" width="264.828" height="335.448"/>
<g>
	<circle style="fill:#464F5D;" cx="256" cy="459.034" r="17.655"/>
	<path style="fill:#464F5D;" d="M220.69,44.138c-4.829,0.044-8.783-3.831-8.828-8.66c-0.009-1.209,0.23-2.41,0.706-3.513   c0.424-1.077,1.059-2.074,1.854-2.913c0.856-0.777,1.845-1.404,2.913-1.854c3.284-1.386,7.089-0.653,9.622,1.854   c0.794,0.847,1.43,1.836,1.854,2.913c1.898,4.44-0.159,9.578-4.59,11.476C223.1,43.908,221.899,44.147,220.69,44.138z"/>
	<path style="fill:#464F5D;" d="M291.31,44.138H256c-4.873,0-8.828-3.955-8.828-8.828s3.955-8.828,8.828-8.828h35.31   c4.873,0,8.828,3.955,8.828,8.828S296.183,44.138,291.31,44.138z"/>
</g>
<g>
	<path style="fill:#547580;" d="M158.897,132.414c-4.873,0-8.828-3.955-8.828-8.828c0-2.339,0.927-4.582,2.586-6.241l17.655-17.655   c3.478-3.416,9.066-3.363,12.482,0.115c3.372,3.434,3.372,8.934,0,12.367l-17.655,17.655   C163.487,131.487,161.236,132.414,158.897,132.414z"/>
	<path style="fill:#547580;" d="M176.552,167.724c-4.873,0-8.828-3.955-8.828-8.828c0-2.339,0.927-4.581,2.586-6.241l52.966-52.966   c3.478-3.416,9.066-3.363,12.482,0.115c3.372,3.434,3.372,8.934,0,12.367l-52.966,52.966   C181.142,166.797,178.891,167.724,176.552,167.724z"/>
</g>
<path style="fill:#F3D55B;" d="M344.276,273.655h-26.924c0.265-2.913,0.441-5.826,0.441-8.828c0-3.001-0.177-5.914-0.441-8.828  h26.924c4.873,0,8.828-3.955,8.828-8.828c0-4.873-3.955-8.828-8.828-8.828h-30.102c-1.589-5.817-3.743-11.467-6.444-16.861  c10.505-0.026,20.701-3.505,29.043-9.887c4.873-4.458,7.601-10.787,7.503-17.39c0-4.873-3.955-8.828-8.828-8.828  s-8.828,3.955-8.828,8.828c0.106,1.677-0.583,3.31-1.854,4.414c-8.863,4.926-19.103,6.788-29.131,5.297  c-18.282-21.892-50.847-24.814-72.739-6.532c-2.366,1.977-4.555,4.167-6.532,6.532c-10.028,1.492-20.268-0.371-29.131-5.297  c-1.271-1.103-1.96-2.737-1.854-4.414c0-4.873-3.955-8.828-8.828-8.828s-8.828,3.955-8.828,8.828  c-0.097,6.603,2.631,12.932,7.503,17.39c8.342,6.382,18.538,9.86,29.043,9.887c-2.701,5.394-4.855,11.043-6.444,16.861h-30.102  c-4.873,0-8.828,3.955-8.828,8.828c0,4.873,3.955,8.828,8.828,8.828h26.924c-0.265,2.913-0.441,5.826-0.441,8.828  c0,3.001,0.177,5.914,0.441,8.828h-26.924c-4.873,0-8.828,3.955-8.828,8.828s3.955,8.828,8.828,8.828h30.102  c1.589,5.817,3.743,11.467,6.444,16.861c-10.505,0.026-20.701,3.505-29.043,9.887c-4.873,4.458-7.601,10.787-7.503,17.39  c0,4.873,3.955,8.828,8.828,8.828c4.873,0,8.828-3.955,8.828-8.828c-0.106-1.677,0.583-3.31,1.854-4.414  c8.863-4.926,19.103-6.788,29.131-5.297c18.282,21.892,50.847,24.814,72.739,6.532c2.366-1.977,4.555-4.167,6.532-6.532  c10.028-1.492,20.268,0.371,29.131,5.297c1.271,1.103,1.96,2.737,1.854,4.414c0,4.873,3.955,8.828,8.828,8.828  s8.828-3.955,8.828-8.828c0.097-6.603-2.631-12.932-7.503-17.39c-8.342-6.382-18.538-9.86-29.043-9.887  c2.701-5.394,4.855-11.043,6.444-16.861h30.102c4.873,0,8.828-3.955,8.828-8.828S349.149,273.655,344.276,273.655z M247.172,325.385  c-20.127-5.738-35.31-30.72-35.31-60.557c0-2.948,0.177-5.897,0.53-8.828h34.781V325.385z M216.188,238.345  c7.062-20.833,22.246-35.31,39.812-35.31s32.75,14.477,39.812,35.31H216.188z M264.828,325.385V256h34.781  c0.353,2.931,0.53,5.879,0.53,8.828C300.138,294.665,284.954,319.647,264.828,325.385z"/>
<g>
	<path style="fill:#E57E25;" d="M295.812,238.345h-79.625c7.062-20.833,22.246-35.31,39.812-35.31S288.75,217.512,295.812,238.345z"/>
	<path style="fill:#E57E25;" d="M300.138,264.828c0,29.837-15.183,54.819-35.31,60.557V256h34.781   C299.961,258.931,300.138,261.879,300.138,264.828z"/>
	<path style="fill:#E57E25;" d="M247.172,256v69.385c-20.127-5.738-35.31-30.72-35.31-60.557c0-2.948,0.177-5.897,0.53-8.828   H247.172z"/>
</g>
<g>
</g>
<g>
</g>
<g>
</g>
<g>
</g>
<g>
</g>
<g>
</g>
<g>
</g>
<g>
</g>
<g>
</g>
<g>
</g>
<g>
</g>
<g>
</g>
<g>
</g>
<g>
</g>
<g>
</g>
</svg>
