<?xml version="1.0" encoding="iso-8859-1"?>
<!-- Generator: Adobe Illustrator 19.0.0, SVG Export Plug-In . SVG Version: 6.00 Build 0)  -->
<svg xmlns="http://www.w3.org/2000/svg" xmlns:xlink="http://www.w3.org/1999/xlink" version="1.1" id="Layer_1" x="0px" y="0px" viewBox="0 0 512 512" style="enable-background:new 0 0 512 512;" xml:space="preserve">
<path style="fill:#2C2F38;" d="M158.897,0h194.207c19.5,0,35.31,15.81,35.31,35.31V476.69c0,19.5-15.81,35.31-35.31,35.31H158.897  c-19.5,0-35.31-15.81-35.31-35.31V35.31C123.586,15.81,139.396,0,158.897,0z"/>
<rect x="123.586" y="70.621" style="fill:#3F5C6C;" width="264.828" height="335.448"/>
<g>
	<circle style="fill:#464F5D;" cx="256" cy="459.034" r="17.655"/>
	<path style="fill:#464F5D;" d="M220.69,44.138c-4.829,0.044-8.783-3.831-8.828-8.66c-0.009-1.209,0.23-2.41,0.706-3.513   c0.424-1.077,1.059-2.074,1.854-2.913c0.856-0.777,1.845-1.404,2.913-1.854c3.284-1.386,7.089-0.653,9.622,1.854   c0.794,0.847,1.43,1.836,1.854,2.913c1.898,4.44-0.159,9.578-4.59,11.476C223.1,43.908,221.899,44.147,220.69,44.138z"/>
	<path style="fill:#464F5D;" d="M291.31,44.138H256c-4.873,0-8.828-3.955-8.828-8.828s3.955-8.828,8.828-8.828h35.31   c4.873,0,8.828,3.955,8.828,8.828S296.183,44.138,291.31,44.138z"/>
</g>
<g>
	<path style="fill:#547580;" d="M158.897,132.414c-4.873,0-8.828-3.955-8.828-8.828c0-2.339,0.927-4.582,2.586-6.241l17.655-17.655   c3.478-3.416,9.066-3.363,12.482,0.115c3.372,3.434,3.372,8.934,0,12.367l-17.655,17.655   C163.487,131.487,161.236,132.414,158.897,132.414z"/>
	<path style="fill:#547580;" d="M176.552,167.724c-4.873,0-8.828-3.955-8.828-8.828c0-2.339,0.927-4.581,2.586-6.241l52.966-52.966   c3.478-3.416,9.066-3.363,12.482,0.115c3.372,3.434,3.372,8.934,0,12.367l-52.966,52.966   C181.142,166.797,178.891,167.724,176.552,167.724z"/>
</g>
<path style="fill:#71C285;" d="M300.138,203.034v17.655h-88.276v-17.655c0.026-9.737,7.918-17.629,17.655-17.655h52.966  C292.22,185.406,300.111,193.298,300.138,203.034z"/>
<rect x="211.862" y="220.69" style="fill:#24AE5F;" width="88.276" height="35.31"/>
<rect x="211.862" y="256" style="fill:#71C285;" width="88.276" height="35.31"/>
<path style="fill:#24AE5F;" d="M300.138,291.31v17.655c-0.026,9.737-7.918,17.629-17.655,17.655h-52.966  c-9.737-0.026-17.629-7.918-17.655-17.655V291.31H300.138z"/>
<path style="fill:#F0C419;" d="M247.172,158.897h17.655c4.873,0,8.828,3.955,8.828,8.828v17.655l0,0h-35.31l0,0v-17.655  C238.345,162.851,242.3,158.897,247.172,158.897z"/>
<g>
</g>
<g>
</g>
<g>
</g>
<g>
</g>
<g>
</g>
<g>
</g>
<g>
</g>
<g>
</g>
<g>
</g>
<g>
</g>
<g>
</g>
<g>
</g>
<g>
</g>
<g>
</g>
<g>
</g>
</svg>
