<?xml version="1.0" encoding="iso-8859-1"?>
<!-- Generator: Adobe Illustrator 19.0.0, SVG Export Plug-In . SVG Version: 6.00 Build 0)  -->
<svg xmlns="http://www.w3.org/2000/svg" xmlns:xlink="http://www.w3.org/1999/xlink" version="1.1" id="Layer_1" x="0px" y="0px" viewBox="0 0 512 512" style="enable-background:new 0 0 512 512;" xml:space="preserve">
<path style="fill:#2C2F38;" d="M158.897,0h194.207c19.5,0,35.31,15.81,35.31,35.31V476.69c0,19.5-15.81,35.31-35.31,35.31H158.897  c-19.5,0-35.31-15.81-35.31-35.31V35.31C123.586,15.81,139.396,0,158.897,0z"/>
<rect x="123.586" y="70.621" style="fill:#3F5C6C;" width="264.828" height="335.448"/>
<g>
	<circle style="fill:#464F5D;" cx="256" cy="459.034" r="17.655"/>
	<path style="fill:#464F5D;" d="M220.69,44.138c-4.829,0.044-8.783-3.831-8.828-8.66c-0.009-1.209,0.23-2.41,0.706-3.513   c0.424-1.077,1.059-2.074,1.854-2.913c0.856-0.777,1.845-1.404,2.913-1.854c3.284-1.386,7.089-0.653,9.622,1.854   c0.794,0.847,1.43,1.836,1.854,2.913c1.898,4.44-0.159,9.578-4.59,11.476C223.1,43.908,221.899,44.147,220.69,44.138z"/>
	<path style="fill:#464F5D;" d="M291.31,44.138H256c-4.873,0-8.828-3.955-8.828-8.828s3.955-8.828,8.828-8.828h35.31   c4.873,0,8.828,3.955,8.828,8.828S296.183,44.138,291.31,44.138z"/>
</g>
<path style="fill:#BDC3C7;" d="M300.138,203.034h-17.655V166.4c-0.035-6.691-2.825-13.065-7.706-17.638  c-5.032-4.873-11.776-7.574-18.776-7.521c-14.248-0.344-26.094,10.911-26.483,25.159v36.634h-17.655V166.4  c0.397-23.993,20.145-43.14,44.138-42.814c11.582-0.071,22.731,4.414,31.047,12.473c8.342,7.883,13.082,18.856,13.091,30.34V203.034  z"/>
<path style="fill:#F0C419;" d="M307.103,194.26c-5.756-4.131-11.997-7.53-18.582-10.125c-20.886-8.298-44.156-8.298-65.042,0  c-6.585,2.595-12.835,5.994-18.582,10.125c-39.751,28.222-49.099,83.332-20.868,123.083s83.332,49.099,123.083,20.868  c39.751-28.231,49.099-83.332,20.868-123.083C322.242,207.051,315.189,199.998,307.103,194.26L307.103,194.26z"/>
<path style="fill:#2C2F38;" d="M291.31,247.102c-0.079,12.262-6.85,23.508-17.655,29.308v29.987  c-0.406,9.754-8.633,17.329-18.388,16.922c-9.19-0.38-16.543-7.742-16.922-16.922v-29.987c-10.805-5.8-17.576-17.046-17.655-29.308  c0.803-19.5,17.267-34.657,36.767-33.854C275.836,214.007,290.551,228.732,291.31,247.102z"/>
<g>
</g>
<g>
</g>
<g>
</g>
<g>
</g>
<g>
</g>
<g>
</g>
<g>
</g>
<g>
</g>
<g>
</g>
<g>
</g>
<g>
</g>
<g>
</g>
<g>
</g>
<g>
</g>
<g>
</g>
</svg>
