<?xml version="1.0" encoding="iso-8859-1"?>
<!-- Generator: Adobe Illustrator 19.0.0, SVG Export Plug-In . SVG Version: 6.00 Build 0)  -->
<svg xmlns="http://www.w3.org/2000/svg" xmlns:xlink="http://www.w3.org/1999/xlink" version="1.1" id="Layer_1" x="0px" y="0px" viewBox="0 0 512 512" style="enable-background:new 0 0 512 512;" xml:space="preserve">
<path style="fill:#2C2F38;" d="M158.897,0h194.207c19.5,0,35.31,15.81,35.31,35.31V476.69c0,19.5-15.81,35.31-35.31,35.31H158.897  c-19.5,0-35.31-15.81-35.31-35.31V35.31C123.586,15.81,139.396,0,158.897,0z"/>
<rect x="123.586" y="70.621" style="fill:#3F5C6C;" width="264.828" height="335.448"/>
<g>
	<circle style="fill:#464F5D;" cx="256" cy="459.034" r="17.655"/>
	<path style="fill:#464F5D;" d="M220.69,44.138c-4.829,0.044-8.783-3.831-8.828-8.66c-0.009-1.209,0.23-2.41,0.706-3.513   c0.424-1.077,1.059-2.074,1.854-2.913c0.856-0.777,1.845-1.404,2.913-1.854c3.284-1.386,7.089-0.653,9.622,1.854   c0.794,0.847,1.43,1.836,1.854,2.913c1.898,4.44-0.159,9.578-4.59,11.476C223.1,43.908,221.899,44.147,220.69,44.138z"/>
	<path style="fill:#464F5D;" d="M291.31,44.138H256c-4.873,0-8.828-3.955-8.828-8.828s3.955-8.828,8.828-8.828h35.31   c4.873,0,8.828,3.955,8.828,8.828S296.183,44.138,291.31,44.138z"/>
</g>
<path d="M379.586,79.448v0.177l0.177-0.177H379.586z M379.586,79.448v0.177l0.177-0.177H379.586z M379.586,79.448v0.177l0.177-0.177  H379.586z M379.586,79.448v0.177l0.177-0.177H379.586z M379.586,79.448v0.177l0.177-0.177H379.586z M379.586,79.448v0.177  l0.177-0.177H379.586z M379.586,79.448v0.177l0.177-0.177H379.586z M379.586,79.448v0.177l0.177-0.177H379.586z"/>
<g>
	<polygon style="fill:#2C2F38;" points="179.015,70.621 123.586,125.228 123.586,98.763 152.152,70.621  "/>
	<polygon style="fill:#2C2F38;" points="235.758,70.621 123.586,181.133 123.586,154.668 208.896,70.621  "/>
	<polygon style="fill:#2C2F38;" points="292.511,70.621 123.586,237.038 123.586,210.573 265.649,70.621  "/>
	<polygon style="fill:#2C2F38;" points="353.421,70.621 123.586,297.048 123.586,270.583 326.559,70.621  "/>
	<polygon style="fill:#2C2F38;" points="388.414,70.806 388.414,97.271 123.586,358.171 123.586,331.714  "/>
	<polygon style="fill:#2C2F38;" points="388.414,126.711 388.414,153.176 131.716,406.069 123.586,406.069 123.586,387.619  "/>
	<polygon style="fill:#2C2F38;" points="388.414,182.625 388.414,209.09 188.469,406.069 161.607,406.069  "/>
	<polygon style="fill:#2C2F38;" points="388.414,238.53 388.414,264.995 245.222,406.069 218.359,406.069  "/>
	<polygon style="fill:#2C2F38;" points="388.414,294.435 388.414,320.9 301.965,406.069 275.103,406.069  "/>
	<polygon style="fill:#2C2F38;" points="388.414,350.349 388.414,376.814 358.718,406.069 331.855,406.069  "/>
</g>
<g>
</g>
<g>
</g>
<g>
</g>
<g>
</g>
<g>
</g>
<g>
</g>
<g>
</g>
<g>
</g>
<g>
</g>
<g>
</g>
<g>
</g>
<g>
</g>
<g>
</g>
<g>
</g>
<g>
</g>
</svg>
