<?xml version="1.0" encoding="iso-8859-1"?>
<!-- Generator: Adobe Illustrator 19.0.0, SVG Export Plug-In . SVG Version: 6.00 Build 0)  -->
<svg xmlns="http://www.w3.org/2000/svg" xmlns:xlink="http://www.w3.org/1999/xlink" version="1.1" id="Layer_1" x="0px" y="0px" viewBox="0 0 512 512" style="enable-background:new 0 0 512 512;" xml:space="preserve">
<path style="fill:#3F5C6C;" d="M17.655,8.828h476.69c9.754,0,17.655,7.901,17.655,17.655v370.759  c0,9.754-7.901,17.655-17.655,17.655H17.655C7.901,414.897,0,406.996,0,397.241V26.483C0,16.728,7.901,8.828,17.655,8.828z"/>
<path style="fill:#A5A5A4;" d="M512,300.138v97.103c-0.026,9.737-7.918,17.629-17.655,17.655H17.655  C7.918,414.87,0.026,406.978,0,397.241v-97.103H512z"/>
<circle style="fill:#2C3E50;" cx="256" cy="357.517" r="22.069"/>
<path style="fill:#5E5F62;" d="M361.931,494.345H150.069c35.31,0,35.31-35.31,35.31-35.31v-44.138h141.241v44.138  C326.621,459.034,326.621,494.345,361.931,494.345z"/>
<g>
	<path style="fill:#2C3E50;" d="M220.69,459.034c-0.591-0.018-1.183-0.079-1.766-0.177c-0.556-0.097-1.086-0.274-1.589-0.53   c-0.565-0.194-1.095-0.459-1.589-0.794c-0.441-0.353-0.883-0.706-1.324-1.059c-0.794-0.847-1.43-1.836-1.854-2.913   c-0.936-2.136-0.936-4.573,0-6.709c0.45-1.068,1.077-2.057,1.854-2.913c2.56-2.472,6.329-3.196,9.622-1.854   c1.077,0.433,2.066,1.059,2.913,1.854c3.46,3.434,3.487,9.022,0.053,12.482C225.342,458.108,223.064,459.052,220.69,459.034z"/>
	<path style="fill:#2C3E50;" d="M256,459.034c-2.339-0.035-4.573-0.945-6.268-2.56c-0.777-0.856-1.412-1.845-1.854-2.913   c-0.459-1.059-0.697-2.198-0.706-3.354c0.035-2.339,0.945-4.573,2.56-6.268c0.839-0.803,1.827-1.43,2.913-1.854   c2.154-0.883,4.564-0.883,6.709,0c1.077,0.433,2.066,1.059,2.913,1.854c3.46,3.434,3.487,9.022,0.053,12.482   C260.652,458.108,258.375,459.052,256,459.034z"/>
	<path style="fill:#2C3E50;" d="M291.31,459.034c-4.899-0.018-8.845-3.999-8.828-8.898c0.009-2.322,0.927-4.546,2.56-6.197   c3.513-3.337,9.022-3.337,12.535,0c0.777,0.856,1.404,1.845,1.854,2.913c0.945,2.136,0.945,4.573,0,6.709   c-0.45,1.068-1.077,2.057-1.854,2.913C295.883,458.081,293.65,458.999,291.31,459.034z"/>
</g>
<g>
	<path style="fill:#547580;" d="M35.31,70.621c-4.873,0-8.828-3.955-8.828-8.828c0-2.339,0.936-4.59,2.586-6.241l17.655-17.655   c3.478-3.416,9.066-3.363,12.482,0.115c3.372,3.434,3.372,8.934,0,12.367L41.551,68.034C39.901,69.694,37.65,70.621,35.31,70.621z"/>
	<path style="fill:#547580;" d="M52.966,105.931c-4.873,0-8.828-3.955-8.828-8.828c0-2.339,0.927-4.582,2.586-6.241L99.69,37.897   c3.478-3.416,9.066-3.363,12.482,0.115c3.372,3.434,3.372,8.934,0,12.367l-52.966,52.966   C57.556,105.004,55.305,105.931,52.966,105.931z"/>
</g>
<path style="fill:#2C3E50;" d="M414.897,503.172H97.103c-4.873,0-8.828-3.955-8.828-8.828c0-4.873,3.955-8.828,8.828-8.828h317.793  c4.873,0,8.828,3.955,8.828,8.828C423.724,499.218,419.769,503.172,414.897,503.172z"/>
<path style="fill:#F3D55B;" d="M344.276,176.552h-26.924c0.265-2.913,0.441-5.826,0.441-8.828c0-3.001-0.177-5.914-0.441-8.828  h26.924c4.873,0,8.828-3.955,8.828-8.828c0-4.873-3.955-8.828-8.828-8.828h-30.102c-1.589-5.817-3.743-11.467-6.444-16.861  c10.505-0.026,20.701-3.505,29.043-9.887c4.873-4.458,7.601-10.787,7.503-17.39c0-4.873-3.955-8.828-8.828-8.828  s-8.828,3.955-8.828,8.828c0.106,1.677-0.583,3.31-1.854,4.414c-8.863,4.926-19.103,6.788-29.131,5.297  c-18.282-21.892-50.847-24.814-72.739-6.532c-2.366,1.977-4.555,4.167-6.532,6.532c-10.028,1.501-20.268-0.362-29.131-5.297  c-1.271-1.103-1.96-2.737-1.854-4.414c0-4.873-3.955-8.828-8.828-8.828s-8.828,3.955-8.828,8.828  c-0.097,6.603,2.631,12.932,7.503,17.39c8.342,6.382,18.538,9.86,29.043,9.887c-2.701,5.394-4.855,11.043-6.444,16.861h-30.102  c-4.873,0-8.828,3.955-8.828,8.828c0,4.873,3.955,8.828,8.828,8.828h26.924c-0.265,2.913-0.441,5.826-0.441,8.828  c0,3.001,0.177,5.914,0.441,8.828h-26.924c-4.873,0-8.828,3.955-8.828,8.828c0,4.873,3.955,8.828,8.828,8.828h30.102  c1.589,5.817,3.743,11.467,6.444,16.861c-10.505,0.026-20.701,3.505-29.043,9.887c-4.873,4.458-7.601,10.787-7.503,17.39  c0,4.873,3.955,8.828,8.828,8.828c4.873,0,8.828-3.955,8.828-8.828c-0.106-1.677,0.583-3.31,1.854-4.414  c8.863-4.926,19.103-6.788,29.131-5.297c18.282,21.892,50.847,24.814,72.739,6.532c2.366-1.977,4.555-4.167,6.532-6.532  c10.028-1.501,20.268,0.362,29.131,5.297c1.271,1.103,1.96,2.737,1.854,4.414c0,4.873,3.955,8.828,8.828,8.828  s8.828-3.955,8.828-8.828c0.097-6.603-2.631-12.932-7.503-17.39c-8.342-6.382-18.538-9.86-29.043-9.887  c2.701-5.394,4.855-11.043,6.444-16.861h30.102c4.873,0,8.828-3.955,8.828-8.828C353.103,180.506,349.149,176.552,344.276,176.552z   M247.172,228.281c-20.127-5.738-35.31-30.72-35.31-60.557c0-2.948,0.177-5.897,0.53-8.828h34.781V228.281z M216.188,141.241  c7.062-20.833,22.246-35.31,39.812-35.31s32.75,14.477,39.812,35.31H216.188z M264.828,228.281v-69.385h34.781  c0.353,2.931,0.53,5.879,0.53,8.828C300.138,197.561,284.954,222.543,264.828,228.281z"/>
<g>
	<path style="fill:#E57E25;" d="M295.812,141.241h-79.625c7.062-20.833,22.246-35.31,39.812-35.31S288.75,120.408,295.812,141.241z"/>
	<path style="fill:#E57E25;" d="M247.172,158.897v69.385c-20.127-5.738-35.31-30.72-35.31-60.557c0-2.948,0.177-5.897,0.53-8.828   H247.172z"/>
	<path style="fill:#E57E25;" d="M300.138,167.724c0,29.837-15.183,54.819-35.31,60.557v-69.385h34.781   C299.961,161.827,300.138,164.776,300.138,167.724z"/>
</g>
<g>
</g>
<g>
</g>
<g>
</g>
<g>
</g>
<g>
</g>
<g>
</g>
<g>
</g>
<g>
</g>
<g>
</g>
<g>
</g>
<g>
</g>
<g>
</g>
<g>
</g>
<g>
</g>
<g>
</g>
</svg>
