<?xml version="1.0" encoding="iso-8859-1"?>
<!-- Generator: Adobe Illustrator 19.0.0, SVG Export Plug-In . SVG Version: 6.00 Build 0)  -->
<svg xmlns="http://www.w3.org/2000/svg" xmlns:xlink="http://www.w3.org/1999/xlink" version="1.1" id="Layer_1" x="0px" y="0px" viewBox="0 0 512 512" style="enable-background:new 0 0 512 512;" xml:space="preserve">
<path style="fill:#3F5C6C;" d="M17.655,8.828h476.69c9.754,0,17.655,7.901,17.655,17.655v370.759  c0,9.754-7.901,17.655-17.655,17.655H17.655C7.901,414.897,0,406.996,0,397.241V26.483C0,16.728,7.901,8.828,17.655,8.828z"/>
<path style="fill:#A5A5A4;" d="M512,300.138v97.103c-0.026,9.737-7.918,17.629-17.655,17.655H17.655  C7.918,414.87,0.026,406.978,0,397.241v-97.103H512z"/>
<circle style="fill:#2C3E50;" cx="256" cy="357.517" r="22.069"/>
<path style="fill:#5E5F62;" d="M361.931,494.345H150.069c35.31,0,35.31-35.31,35.31-35.31v-44.138h141.241v44.138  C326.621,459.034,326.621,494.345,361.931,494.345z"/>
<g>
	<path style="fill:#2C3E50;" d="M220.69,459.034c-0.591-0.018-1.183-0.079-1.766-0.177c-0.556-0.097-1.086-0.274-1.589-0.53   c-0.565-0.194-1.095-0.459-1.589-0.794c-0.441-0.353-0.883-0.706-1.324-1.059c-0.794-0.847-1.43-1.836-1.854-2.913   c-0.936-2.136-0.936-4.573,0-6.709c0.45-1.068,1.077-2.057,1.854-2.913c2.56-2.472,6.329-3.196,9.622-1.854   c1.077,0.433,2.066,1.059,2.913,1.854c3.46,3.434,3.487,9.022,0.053,12.482C225.342,458.108,223.064,459.052,220.69,459.034z"/>
	<path style="fill:#2C3E50;" d="M256,459.034c-2.339-0.035-4.573-0.945-6.268-2.56c-0.777-0.856-1.412-1.845-1.854-2.913   c-0.459-1.059-0.697-2.198-0.706-3.354c0.035-2.339,0.945-4.573,2.56-6.268c0.839-0.803,1.827-1.43,2.913-1.854   c2.154-0.883,4.564-0.883,6.709,0c1.077,0.433,2.066,1.059,2.913,1.854c3.46,3.434,3.487,9.022,0.053,12.482   C260.652,458.108,258.375,459.052,256,459.034z"/>
	<path style="fill:#2C3E50;" d="M291.31,459.034c-4.899-0.018-8.845-3.999-8.828-8.898c0.009-2.322,0.927-4.546,2.56-6.197   c3.513-3.337,9.022-3.337,12.535,0c0.777,0.856,1.404,1.845,1.854,2.913c0.945,2.136,0.945,4.573,0,6.709   c-0.45,1.068-1.077,2.057-1.854,2.913C295.883,458.081,293.65,458.999,291.31,459.034z"/>
</g>
<g>
	<path style="fill:#547580;" d="M35.31,70.621c-4.873,0-8.828-3.955-8.828-8.828c0-2.339,0.936-4.59,2.586-6.241l17.655-17.655   c3.478-3.416,9.066-3.363,12.482,0.115c3.372,3.434,3.372,8.934,0,12.367L41.551,68.034C39.901,69.694,37.65,70.621,35.31,70.621z"/>
	<path style="fill:#547580;" d="M52.966,105.931c-4.873,0-8.828-3.955-8.828-8.828c0-2.339,0.927-4.582,2.586-6.241L99.69,37.897   c3.478-3.416,9.066-3.363,12.482,0.115c3.372,3.434,3.372,8.934,0,12.367l-52.966,52.966   C57.556,105.004,55.305,105.931,52.966,105.931z"/>
</g>
<path style="fill:#2C3E50;" d="M414.897,503.172H97.103c-4.873,0-8.828-3.955-8.828-8.828c0-4.873,3.955-8.828,8.828-8.828h317.793  c4.873,0,8.828,3.955,8.828,8.828C423.724,499.218,419.769,503.172,414.897,503.172z"/>
<g>
	<path style="fill:#FFFFFF;" d="M232.086,236.226c-4.873,0-8.828-3.946-8.836-8.828c0-2.622,1.156-5.102,3.169-6.78l47.846-39.901   c3.743-3.125,9.313-2.622,12.438,1.121c3.125,3.743,2.622,9.313-1.121,12.438l-47.846,39.901   C236.147,235.502,234.152,236.226,232.086,236.226z"/>
	<path style="fill:#FFFFFF;" d="M364.314,241.611c-2.11,0-4.14-0.75-5.738-2.119l-52.78-45.197c-3.716-3.16-4.167-8.73-1.006-12.447   s8.73-4.167,12.447-1.006c0.018,0.009,0.026,0.026,0.044,0.035l52.78,45.197c3.708,3.169,4.14,8.739,0.971,12.447   C369.337,240.481,366.892,241.611,364.314,241.611z"/>
	<path style="fill:#FFFFFF;" d="M399.086,235.52c-4.873-0.009-8.828-3.964-8.819-8.836c0-1.739,0.521-3.443,1.483-4.89   l42.284-63.382c2.719-4.052,8.201-5.129,12.253-2.41c4.034,2.71,5.12,8.166,2.436,12.209l-42.284,63.382   C404.798,234.055,402.044,235.529,399.086,235.52z"/>
</g>
<path style="fill:#F0C419;" d="M158.897,194.207c0,34.127-27.666,61.793-61.793,61.793S35.31,228.334,35.31,194.207  s27.666-61.793,61.793-61.793v61.793H158.897z"/>
<path style="fill:#CC66A1;" d="M158.897,194.207H97.103v-61.793c34.119-0.009,61.784,27.639,61.793,61.758  C158.897,194.18,158.897,194.198,158.897,194.207z"/>
<g>
	<path style="fill:#81CCB8;" d="M300.138,61.793h-97.103c-4.873,0-8.828-3.955-8.828-8.828s3.955-8.828,8.828-8.828h97.103   c4.873,0,8.828,3.955,8.828,8.828S305.011,61.793,300.138,61.793z"/>
	<path style="fill:#81CCB8;" d="M476.69,61.793H344.276c-4.873,0-8.828-3.955-8.828-8.828s3.955-8.828,8.828-8.828H476.69   c4.873,0,8.828,3.955,8.828,8.828S481.562,61.793,476.69,61.793z"/>
	<path style="fill:#81CCB8;" d="M388.414,97.103H203.034c-4.873,0-8.828-3.955-8.828-8.828c0-4.873,3.955-8.828,8.828-8.828h185.379   c4.873,0,8.828,3.955,8.828,8.828C397.241,93.149,393.287,97.103,388.414,97.103z"/>
	<path style="fill:#81CCB8;" d="M476.69,97.103h-44.138c-4.873,0-8.828-3.955-8.828-8.828c0-4.873,3.955-8.828,8.828-8.828h44.138   c4.873,0,8.828,3.955,8.828,8.828C485.517,93.149,481.562,97.103,476.69,97.103z"/>
</g>
<g>
	<path style="fill:#CC66A1;" d="M384,264.828c-12.191,0.018-22.087-9.843-22.104-22.034s9.843-22.087,22.034-22.104   c5.632-0.009,11.061,2.136,15.166,6.003c4.476,4.14,7.009,9.966,6.974,16.066C406.06,254.95,396.191,264.819,384,264.828z"/>
	<circle style="fill:#CC66A1;" cx="216.276" cy="242.759" r="22.069"/>
	<circle style="fill:#CC66A1;" cx="295.724" cy="172.138" r="22.069"/>
	<circle style="fill:#CC66A1;" cx="454.621" cy="145.655" r="22.069"/>
</g>
<g>
</g>
<g>
</g>
<g>
</g>
<g>
</g>
<g>
</g>
<g>
</g>
<g>
</g>
<g>
</g>
<g>
</g>
<g>
</g>
<g>
</g>
<g>
</g>
<g>
</g>
<g>
</g>
<g>
</g>
</svg>
