<?xml version="1.0" encoding="iso-8859-1"?>
<!-- Generator: Adobe Illustrator 19.0.0, SVG Export Plug-In . SVG Version: 6.00 Build 0)  -->
<svg xmlns="http://www.w3.org/2000/svg" xmlns:xlink="http://www.w3.org/1999/xlink" version="1.1" id="Layer_1" x="0px" y="0px" viewBox="0 0 512 512" style="enable-background:new 0 0 512 512;" xml:space="preserve">
<path style="fill:#3F5C6C;" d="M17.655,8.828h476.69c9.754,0,17.655,7.901,17.655,17.655v370.759  c0,9.754-7.901,17.655-17.655,17.655H17.655C7.901,414.897,0,406.996,0,397.241V26.483C0,16.728,7.901,8.828,17.655,8.828z"/>
<path style="fill:#A5A5A4;" d="M512,300.138v97.103c-0.026,9.737-7.918,17.629-17.655,17.655H17.655  C7.918,414.87,0.026,406.978,0,397.241v-97.103H512z"/>
<circle style="fill:#2C3E50;" cx="256" cy="357.517" r="22.069"/>
<path style="fill:#5E5F62;" d="M361.931,494.345H150.069c35.31,0,35.31-35.31,35.31-35.31v-44.138h141.241v44.138  C326.621,459.034,326.621,494.345,361.931,494.345z"/>
<g>
	<path style="fill:#2C3E50;" d="M220.69,459.034c-0.591-0.018-1.183-0.079-1.766-0.177c-0.556-0.097-1.086-0.274-1.589-0.53   c-0.565-0.194-1.095-0.459-1.589-0.794c-0.441-0.353-0.883-0.706-1.324-1.059c-0.794-0.847-1.43-1.836-1.854-2.913   c-0.936-2.136-0.936-4.573,0-6.709c0.45-1.068,1.077-2.057,1.854-2.913c2.56-2.472,6.329-3.196,9.622-1.854   c1.077,0.433,2.066,1.059,2.913,1.854c3.46,3.434,3.487,9.022,0.053,12.482C225.342,458.108,223.064,459.052,220.69,459.034z"/>
	<path style="fill:#2C3E50;" d="M256,459.034c-2.339-0.035-4.573-0.945-6.268-2.56c-0.777-0.856-1.412-1.845-1.854-2.913   c-0.459-1.059-0.697-2.198-0.706-3.354c0.035-2.339,0.945-4.573,2.56-6.268c0.839-0.803,1.827-1.43,2.913-1.854   c2.154-0.883,4.564-0.883,6.709,0c1.077,0.433,2.066,1.059,2.913,1.854c3.46,3.434,3.487,9.022,0.053,12.482   C260.652,458.108,258.375,459.052,256,459.034z"/>
	<path style="fill:#2C3E50;" d="M291.31,459.034c-4.899-0.018-8.845-3.999-8.828-8.898c0.009-2.322,0.927-4.546,2.56-6.197   c3.513-3.337,9.022-3.337,12.535,0c0.777,0.856,1.404,1.845,1.854,2.913c0.945,2.136,0.945,4.573,0,6.709   c-0.45,1.068-1.077,2.057-1.854,2.913C295.883,458.081,293.65,458.999,291.31,459.034z"/>
</g>
<g>
	<path style="fill:#547580;" d="M35.31,70.621c-4.873,0-8.828-3.955-8.828-8.828c0-2.339,0.936-4.59,2.586-6.241l17.655-17.655   c3.478-3.416,9.066-3.363,12.482,0.115c3.372,3.434,3.372,8.934,0,12.367L41.551,68.034C39.901,69.694,37.65,70.621,35.31,70.621z"/>
	<path style="fill:#547580;" d="M52.966,105.931c-4.873,0-8.828-3.955-8.828-8.828c0-2.339,0.927-4.582,2.586-6.241L99.69,37.897   c3.478-3.416,9.066-3.363,12.482,0.115c3.372,3.434,3.372,8.934,0,12.367l-52.966,52.966   C57.556,105.004,55.305,105.931,52.966,105.931z"/>
</g>
<path style="fill:#2C3E50;" d="M414.897,503.172H97.103c-4.873,0-8.828-3.955-8.828-8.828c0-4.873,3.955-8.828,8.828-8.828h317.793  c4.873,0,8.828,3.955,8.828,8.828C423.724,499.218,419.769,503.172,414.897,503.172z"/>
<path style="fill:#F0C419;" d="M241.77,96.742l-62.146,102.197c-7.883,12.95,0.318,30.579,14.23,30.579h124.292  c13.903,0,22.104-17.629,14.23-30.579L270.23,96.742c-4.273-7.857-14.106-10.77-21.963-6.497  C245.522,91.736,243.262,93.987,241.77,96.742z"/>
<g>
	<path style="fill:#C03A2B;" d="M256,176.552c-4.873,0-8.828-3.946-8.828-8.819c0,0,0,0,0-0.009v-35.31   c0-4.873,3.955-8.828,8.828-8.828s8.828,3.955,8.828,8.828v35.31C264.828,172.597,260.882,176.552,256,176.552L256,176.552z"/>
	<path style="fill:#C03A2B;" d="M256,203.034c-2.339-0.035-4.573-0.945-6.268-2.56c-0.794-0.847-1.43-1.836-1.854-2.913   c-0.45-1.059-0.689-2.198-0.706-3.354c0.018-0.565,0.071-1.121,0.177-1.677c0.088-0.583,0.265-1.156,0.538-1.677   c0.177-0.538,0.441-1.05,0.794-1.501c0.3-0.503,0.662-0.98,1.059-1.412c2.083-2.066,5.058-2.966,7.936-2.383   c0.583,0.079,1.156,0.256,1.677,0.53c0.538,0.177,1.05,0.45,1.501,0.794c0.53,0.353,0.971,0.706,1.412,1.059   c1.615,1.695,2.525,3.928,2.56,6.268c-0.018,1.156-0.256,2.295-0.706,3.354c-0.406,1.095-1.042,2.083-1.854,2.913   c-0.433,0.397-0.909,0.75-1.412,1.059c-0.45,0.353-0.953,0.618-1.501,0.794c-0.53,0.265-1.095,0.441-1.677,0.53   C257.121,202.955,256.565,203.017,256,203.034z"/>
</g>
<g>
</g>
<g>
</g>
<g>
</g>
<g>
</g>
<g>
</g>
<g>
</g>
<g>
</g>
<g>
</g>
<g>
</g>
<g>
</g>
<g>
</g>
<g>
</g>
<g>
</g>
<g>
</g>
<g>
</g>
</svg>
