<?xml version="1.0" encoding="iso-8859-1"?>
<!-- Generator: Adobe Illustrator 19.0.0, SVG Export Plug-In . SVG Version: 6.00 Build 0)  -->
<svg xmlns="http://www.w3.org/2000/svg" xmlns:xlink="http://www.w3.org/1999/xlink" version="1.1" id="Layer_1" x="0px" y="0px" viewBox="0 0 512 512" style="enable-background:new 0 0 512 512;" xml:space="preserve">
<g>
	<rect x="35.31" y="216.276" style="fill:#2C2F38;" width="35.31" height="220.69"/>
	<rect x="414.897" y="216.276" style="fill:#2C2F38;" width="35.31" height="220.69"/>
</g>
<path style="fill:#5E5F62;" d="M485.517,48.552v167.724c-0.026,9.737-7.918,17.629-17.655,17.655H17.655  C7.918,233.905,0.026,226.013,0,216.276V48.552c0.026-9.737,7.918-17.629,17.655-17.655h52.966V92.69h300.138V30.897h97.103  C477.599,30.923,485.491,38.815,485.517,48.552z"/>
<rect x="70.621" y="30.897" style="fill:#2C3E50;" width="300.138" height="61.793"/>
<rect x="70.621" y="92.69" style="fill:#2C2F38;" width="300.138" height="61.793"/>
<rect x="70.621" y="154.483" style="fill:#35495E;" width="300.138" height="79.448"/>
<path style="fill:#84B5CB;" d="M414.897,66.207h26.483c4.873,0,8.828,3.955,8.828,8.828V92.69c0,4.873-3.955,8.828-8.828,8.828  h-26.483c-4.873,0-8.828-3.955-8.828-8.828V75.034C406.069,70.162,410.024,66.207,414.897,66.207z"/>
<path style="fill:#2C3E50;" d="M370.759,136.828h123.586c9.754,0,17.655,7.901,17.655,17.655v26.483  c0,9.754-7.901,17.655-17.655,17.655H370.759l0,0V136.828L370.759,136.828z"/>
<g>
	<path style="fill:#5E5F62;" d="M35.31,436.966h35.31c9.754,0,17.655,7.901,17.655,17.655v26.483l0,0H17.655l0,0v-26.483   C17.655,444.866,25.556,436.966,35.31,436.966z"/>
	<path style="fill:#5E5F62;" d="M414.897,436.966h35.31c9.754,0,17.655,7.901,17.655,17.655v26.483l0,0h-70.621l0,0v-26.483   C397.241,444.866,405.142,436.966,414.897,436.966z"/>
</g>
<path style="fill:#CBB292;" d="M105.931,128h229.517l0,0v194.207c0,9.754-7.901,17.655-17.655,17.655H123.586  c-9.754,0-17.655-7.901-17.655-17.655V128L105.931,128z"/>
<rect x="70.621" y="375.172" style="fill:#2C3E50;" width="344.276" height="35.31"/>
<path style="fill:#2C2F38;" d="M300.138,154.483H141.241c-4.873,0-8.828,3.955-8.828,8.828v141.241c0,4.873,3.955,8.828,8.828,8.828  h158.897c4.873,0,8.828-3.955,8.828-8.828V163.31C308.966,158.438,305.011,154.483,300.138,154.483z M291.31,172.138v25.229  c-12.359-3.222-22.007-12.871-25.229-25.229H291.31z M291.31,295.724h-97.103v-26.483h26.483c4.873,0,8.828-3.955,8.828-8.828  c0-4.873-3.955-8.828-8.828-8.828h-26.483v-8.828c0-4.873-3.955-8.828-8.828-8.828c-4.873,0-8.828,3.955-8.828,8.828v52.966h-26.483  V172.138h26.483v35.31c0,4.873,3.955,8.828,8.828,8.828c4.873,0,8.828-3.955,8.828-8.828v-35.31h53.76  c3.787,22.184,21.16,39.556,43.343,43.343v36.105H256c-4.873,0-8.828,3.955-8.828,8.828c0,4.873,3.955,8.828,8.828,8.828h35.31  V295.724z"/>
<g>
</g>
<g>
</g>
<g>
</g>
<g>
</g>
<g>
</g>
<g>
</g>
<g>
</g>
<g>
</g>
<g>
</g>
<g>
</g>
<g>
</g>
<g>
</g>
<g>
</g>
<g>
</g>
<g>
</g>
</svg>
