<?xml version="1.0" encoding="iso-8859-1"?>
<!-- Generator: Adobe Illustrator 19.0.0, SVG Export Plug-In . SVG Version: 6.00 Build 0)  -->
<svg xmlns="http://www.w3.org/2000/svg" xmlns:xlink="http://www.w3.org/1999/xlink" version="1.1" id="Layer_1" x="0px" y="0px" viewBox="0 0 512 512" style="enable-background:new 0 0 512 512;" xml:space="preserve">
<g>
	<rect x="35.31" y="216.276" style="fill:#2C2F38;" width="35.31" height="220.69"/>
	<rect x="414.897" y="216.276" style="fill:#2C2F38;" width="35.31" height="220.69"/>
</g>
<path style="fill:#5E5F62;" d="M485.517,48.552v167.724c-0.026,9.737-7.918,17.629-17.655,17.655H17.655  C7.918,233.905,0.026,226.013,0,216.276V48.552c0.026-9.737,7.918-17.629,17.655-17.655h52.966V92.69h300.138V30.897h97.103  C477.599,30.923,485.491,38.815,485.517,48.552z"/>
<rect x="70.621" y="30.897" style="fill:#2C3E50;" width="300.138" height="61.793"/>
<rect x="70.621" y="92.69" style="fill:#2C2F38;" width="300.138" height="61.793"/>
<rect x="70.621" y="154.483" style="fill:#35495E;" width="300.138" height="79.448"/>
<path style="fill:#84B5CB;" d="M414.897,66.207h26.483c4.873,0,8.828,3.955,8.828,8.828V92.69c0,4.873-3.955,8.828-8.828,8.828  h-26.483c-4.873,0-8.828-3.955-8.828-8.828V75.034C406.069,70.162,410.024,66.207,414.897,66.207z"/>
<path style="fill:#2C3E50;" d="M370.759,136.828h123.586c9.754,0,17.655,7.901,17.655,17.655v26.483  c0,9.754-7.901,17.655-17.655,17.655H370.759l0,0V136.828L370.759,136.828z"/>
<g>
	<path style="fill:#5E5F62;" d="M35.31,436.966h35.31c9.754,0,17.655,7.901,17.655,17.655v26.483l0,0H17.655l0,0v-26.483   C17.655,444.866,25.556,436.966,35.31,436.966z"/>
	<path style="fill:#5E5F62;" d="M414.897,436.966h35.31c9.754,0,17.655,7.901,17.655,17.655v26.483l0,0h-70.621l0,0v-26.483   C397.241,444.866,405.142,436.966,414.897,436.966z"/>
</g>
<path style="fill:#CBB292;" d="M105.931,128h229.517l0,0v194.207c0,9.754-7.901,17.655-17.655,17.655H123.586  c-9.754,0-17.655-7.901-17.655-17.655V128L105.931,128z"/>
<g>
	<rect x="70.621" y="375.172" style="fill:#2C3E50;" width="344.276" height="35.31"/>
	<path style="fill:#2C3E50;" d="M150.069,172.138c-1.156,0.026-2.313-0.212-3.354-0.706c-1.068-0.45-2.048-1.077-2.913-1.854   c-1.615-1.695-2.525-3.928-2.56-6.268c0.009-1.156,0.247-2.295,0.706-3.354c0.812-2.216,2.551-3.955,4.767-4.767   c2.154-0.883,4.564-0.883,6.709,0c2.216,0.803,3.964,2.551,4.767,4.767c0.45,1.059,0.697,2.207,0.706,3.354   c-0.035,2.339-0.953,4.573-2.56,6.268c-0.856,0.777-1.845,1.404-2.913,1.854C152.373,171.926,151.225,172.164,150.069,172.138z"/>
	<path style="fill:#2C3E50;" d="M185.379,172.138c-0.591-0.018-1.183-0.071-1.766-0.177c-0.556-0.097-1.086-0.274-1.589-0.53   c-0.538-0.177-1.05-0.45-1.501-0.794c-0.53-0.353-0.971-0.706-1.412-1.059c-1.615-1.695-2.525-3.928-2.56-6.268   c0.009-1.156,0.247-2.295,0.706-3.354c0.45-1.068,1.077-2.057,1.854-2.913c3.54-3.266,8.995-3.266,12.535,0   c0.777,0.856,1.404,1.845,1.854,2.913c0.494,1.05,0.742,2.198,0.706,3.354c-0.018,0.591-0.079,1.183-0.177,1.766   c-0.097,0.556-0.274,1.086-0.53,1.589c-0.194,0.565-0.459,1.095-0.794,1.589c-0.327,0.459-0.68,0.9-1.059,1.324   C189.952,171.185,187.719,172.103,185.379,172.138z"/>
	<path style="fill:#2C3E50;" d="M220.69,172.138c-4.829,0.044-8.783-3.831-8.828-8.66c0-0.053,0-0.115,0-0.168   c0.009-1.156,0.247-2.295,0.706-3.354c0.45-1.068,1.077-2.057,1.854-2.913c3.54-3.266,8.995-3.266,12.535,0   c0.777,0.856,1.404,1.845,1.854,2.913c0.45,1.059,0.697,2.207,0.706,3.354c0.044,4.829-3.831,8.783-8.66,8.828   C220.804,172.138,220.743,172.138,220.69,172.138z"/>
	<path style="fill:#2C3E50;" d="M256,172.138c-4.829,0.044-8.783-3.831-8.828-8.66c0-0.053,0-0.115,0-0.168   c0.009-1.156,0.247-2.295,0.706-3.354c0.45-1.068,1.077-2.057,1.854-2.913c3.54-3.266,8.995-3.266,12.535,0   c0.777,0.856,1.404,1.845,1.854,2.913c0.45,1.059,0.697,2.207,0.706,3.354c-0.035,2.339-0.953,4.573-2.56,6.268   c-0.441,0.353-0.883,0.706-1.324,1.059c-0.494,0.335-1.024,0.6-1.589,0.794c-0.503,0.256-1.042,0.433-1.589,0.53   C257.183,172.067,256.591,172.12,256,172.138z"/>
	<path style="fill:#2C3E50;" d="M291.31,172.138c-0.591-0.018-1.183-0.079-1.766-0.177c-0.556-0.097-1.086-0.274-1.589-0.53   c-0.565-0.194-1.095-0.459-1.589-0.794c-0.441-0.353-0.883-0.706-1.324-1.059c-1.615-1.695-2.525-3.928-2.56-6.268   c0.009-1.156,0.247-2.295,0.706-3.354c0.45-1.068,1.077-2.057,1.854-2.913c2.11-2.083,5.12-2.975,8.033-2.383   c0.556,0.097,1.086,0.274,1.589,0.53c0.538,0.177,1.05,0.45,1.501,0.794c0.53,0.353,0.971,0.706,1.412,1.059   c0.777,0.856,1.404,1.845,1.854,2.913c0.45,1.059,0.697,2.207,0.706,3.354c-0.035,2.339-0.953,4.573-2.56,6.268   c-0.441,0.353-0.883,0.706-1.412,1.059c-0.45,0.353-0.953,0.618-1.501,0.794c-0.503,0.256-1.042,0.433-1.589,0.53   C292.493,172.067,291.902,172.12,291.31,172.138z"/>
	<path style="fill:#2C3E50;" d="M167.724,198.621c-0.591-0.018-1.183-0.079-1.766-0.177c-0.556-0.097-1.086-0.274-1.589-0.53   c-0.565-0.194-1.095-0.459-1.589-0.794c-0.468-0.327-0.909-0.68-1.324-1.059c-0.353-0.441-0.706-0.883-1.059-1.324   c-0.335-0.494-0.6-1.024-0.794-1.589c-0.256-0.503-0.433-1.033-0.53-1.589c-0.106-0.583-0.159-1.174-0.177-1.766   c0.026-4.873,4.008-8.801,8.881-8.775c4.873,0.026,8.801,4.008,8.775,8.881c-0.018,2.313-0.936,4.529-2.56,6.162   c-0.424,0.38-0.865,0.733-1.324,1.059c-0.494,0.335-1.024,0.6-1.589,0.794c-0.503,0.256-1.042,0.433-1.589,0.53   C168.907,198.55,168.316,198.603,167.724,198.621z"/>
	<path style="fill:#2C3E50;" d="M203.034,198.621c-0.591-0.018-1.183-0.071-1.766-0.177c-0.556-0.097-1.086-0.274-1.589-0.53   c-0.565-0.194-1.095-0.459-1.589-0.794c-0.468-0.327-0.909-0.68-1.324-1.059c-0.38-0.424-0.733-0.865-1.059-1.324   c-0.335-0.494-0.6-1.024-0.794-1.589c-0.256-0.503-0.433-1.033-0.53-1.589c-0.106-0.583-0.159-1.174-0.177-1.766   c0.026-4.873,4.008-8.801,8.881-8.775c4.873,0.026,8.801,4.008,8.775,8.881c-0.018,2.313-0.936,4.529-2.56,6.162   c-0.424,0.38-0.865,0.733-1.324,1.059c-0.494,0.335-1.024,0.6-1.589,0.794c-0.503,0.256-1.042,0.433-1.589,0.53   C204.217,198.541,203.626,198.603,203.034,198.621z"/>
	<path style="fill:#2C3E50;" d="M238.345,198.621c-2.339-0.035-4.573-0.945-6.268-2.56c-0.38-0.424-0.733-0.865-1.059-1.324   c-0.335-0.494-0.6-1.024-0.794-1.589c-0.256-0.503-0.433-1.033-0.53-1.589c-0.106-0.583-0.159-1.174-0.177-1.766   c0.026-4.873,4.008-8.801,8.881-8.775c4.873,0.026,8.801,4.008,8.775,8.881c-0.018,2.313-0.936,4.529-2.56,6.162   c-0.424,0.38-0.865,0.733-1.324,1.059c-0.494,0.335-1.024,0.6-1.589,0.794c-0.503,0.256-1.042,0.433-1.589,0.53   C239.528,198.55,238.936,198.603,238.345,198.621z"/>
	<path style="fill:#2C3E50;" d="M273.655,198.621c-4.899-0.018-8.845-3.999-8.828-8.898c0.009-2.322,0.927-4.546,2.56-6.197   c0.839-0.803,1.827-1.43,2.913-1.854c2.136-0.971,4.582-0.971,6.709,0c1.068,0.45,2.057,1.077,2.913,1.854   c3.46,3.434,3.487,9.022,0.053,12.482C278.307,197.694,276.03,198.638,273.655,198.621z"/>
</g>
<g>
</g>
<g>
</g>
<g>
</g>
<g>
</g>
<g>
</g>
<g>
</g>
<g>
</g>
<g>
</g>
<g>
</g>
<g>
</g>
<g>
</g>
<g>
</g>
<g>
</g>
<g>
</g>
<g>
</g>
</svg>
