<?xml version="1.0" encoding="iso-8859-1"?>
<!-- Generator: Adobe Illustrator 19.0.0, SVG Export Plug-In . SVG Version: 6.00 Build 0)  -->
<svg xmlns="http://www.w3.org/2000/svg" xmlns:xlink="http://www.w3.org/1999/xlink" version="1.1" id="Layer_1" x="0px" y="0px" viewBox="0 0 512.003 512.003" style="enable-background:new 0 0 512.003 512.003;" xml:space="preserve">
<path style="fill:#5E5F62;" d="M300.139,347.542v23.217c0,9.754-7.901,17.655-17.655,17.655h-52.965  c-9.754,0-17.655-7.901-17.655-17.655v-23.217"/>
<circle style="fill:#7F8C8D;" cx="256.001" cy="176.552" r="176.552"/>
<path style="fill:#B0D3F0;" d="M256.001,317.793c-78.009,0-141.241-63.232-141.241-141.241S178.001,35.31,256.001,35.31  s141.241,63.232,141.241,141.241C397.155,254.517,333.976,317.705,256.001,317.793z"/>
<g>
	<path style="fill:#90BAE1;" d="M328.299,297.843c-21.848,13.065-46.839,19.959-72.298,19.95c-3.09,0-6.179-0.088-9.269-0.265   c-20.948-1.359-41.313-7.424-59.586-17.743l52.966-91.719c11.255,5.711,24.7,4.935,35.222-2.03L328.299,297.843z"/>
	<path style="fill:#90BAE1;" d="M397.243,176.552H291.312c0.018-11.9-6.003-22.996-15.978-29.484l52.966-91.807   C371.016,80.755,397.19,126.808,397.243,176.552z"/>
</g>
<path style="fill:#5E5F62;" d="M291.312,176.552c0.018,11.9-6.003,22.996-15.978,29.484c-10.522,6.965-23.967,7.742-35.222,2.03  c-17.408-8.792-24.382-30.04-15.59-47.439c6.003-11.882,18.176-19.368,31.479-19.385c6.877-0.018,13.612,2.004,19.332,5.826  C285.309,153.556,291.329,164.652,291.312,176.552z"/>
<rect x="229.519" y="388.414" style="fill:#7F8C8D;" width="52.966" height="88.276"/>
<path style="fill:#5E5F62;" d="M282.484,459.034h56.761c4.793-0.035,9.393,1.836,12.8,5.208l33.721,32.662  c3.46,3.434,3.478,9.031,0.044,12.491c-1.713,1.721-4.061,2.666-6.488,2.604H132.68c-4.873,0.124-8.925-3.734-9.048-8.607  c-0.062-2.428,0.883-4.776,2.604-6.488l33.721-32.662c3.407-3.372,8.007-5.244,12.8-5.208h56.761"/>
<path style="fill:#90BAE1;" d="M240.112,145.037c-11.917,5.985-19.438,18.176-19.421,31.514H114.76  c0.035-51.156,27.719-98.295,72.386-123.233L240.112,145.037z"/>
<g>
</g>
<g>
</g>
<g>
</g>
<g>
</g>
<g>
</g>
<g>
</g>
<g>
</g>
<g>
</g>
<g>
</g>
<g>
</g>
<g>
</g>
<g>
</g>
<g>
</g>
<g>
</g>
<g>
</g>
</svg>
