<?xml version="1.0" encoding="iso-8859-1"?>
<!-- Generator: Adobe Illustrator 19.0.0, SVG Export Plug-In . SVG Version: 6.00 Build 0)  -->
<svg xmlns="http://www.w3.org/2000/svg" xmlns:xlink="http://www.w3.org/1999/xlink" version="1.1" id="Layer_1" x="0px" y="0px" viewBox="0 0 512 512" style="enable-background:new 0 0 512 512;" xml:space="preserve">
<g>
	<path style="fill:#464F5D;" d="M105.931,459.034h52.966l0,0v35.31c0,9.754-7.901,17.655-17.655,17.655h-17.655   c-9.754,0-17.655-7.901-17.655-17.655V459.034L105.931,459.034z"/>
	<path style="fill:#464F5D;" d="M353.103,459.034h52.966l0,0v35.31c0,9.754-7.901,17.655-17.655,17.655h-17.655   c-9.754,0-17.655-7.901-17.655-17.655V459.034L353.103,459.034z"/>
</g>
<path style="fill:#7F8C8D;" d="M88.276,0h335.448c9.754,0,17.655,7.901,17.655,17.655v441.379c0,9.754-7.901,17.655-17.655,17.655  H88.276c-9.754,0-17.655-7.901-17.655-17.655V17.655C70.621,7.901,78.521,0,88.276,0z"/>
<path style="fill:#464F5D;" d="M123.586,35.31h114.759c9.754,0,17.655,7.901,17.655,17.655v370.759  c0,9.754-7.901,17.655-17.655,17.655H123.586c-9.754,0-17.655-7.901-17.655-17.655V52.966  C105.931,43.211,113.832,35.31,123.586,35.31z"/>
<path style="fill:#3F5C6C;" d="M273.655,35.31h114.759c9.754,0,17.655,7.901,17.655,17.655v370.759  c0,9.754-7.901,17.655-17.655,17.655H273.655c-9.754,0-17.655-7.901-17.655-17.655V52.966C256,43.211,263.901,35.31,273.655,35.31z"/>
<g>
	<path style="fill:#84B5CB;" d="M220.69,264.828c-4.873,0-8.828-3.946-8.828-8.819c0,0,0,0,0-0.009v-44.138   c0-4.873,3.955-8.828,8.828-8.828c4.873,0,8.828,3.955,8.828,8.828V256C229.517,260.873,225.571,264.828,220.69,264.828   L220.69,264.828z"/>
	<path style="fill:#84B5CB;" d="M291.31,264.828c-4.873,0-8.828-3.946-8.828-8.819c0,0,0,0,0-0.009v-44.138   c0-4.873,3.955-8.828,8.828-8.828c4.873,0,8.828,3.955,8.828,8.828V256C300.138,260.873,296.192,264.828,291.31,264.828   L291.31,264.828z"/>
</g>
<g>
	<path style="fill:#5E5F62;" d="M141.241,97.103c-4.873,0-8.828-3.955-8.828-8.828c0-2.339,0.927-4.582,2.586-6.241l17.655-17.655   c3.478-3.416,9.066-3.363,12.482,0.115c3.372,3.434,3.372,8.934,0,12.367l-17.655,17.655   C145.832,96.177,143.581,97.103,141.241,97.103z"/>
	<path style="fill:#5E5F62;" d="M141.241,141.241c-4.873,0-8.828-3.955-8.828-8.828c0-2.339,0.927-4.582,2.586-6.241l61.793-61.793   c3.478-3.416,9.066-3.363,12.482,0.115c3.372,3.434,3.372,8.934,0,12.367l-61.793,61.793   C145.832,140.314,143.581,141.241,141.241,141.241z"/>
</g>
<g>
	<path style="fill:#547580;" d="M291.31,97.103c-4.873,0-8.828-3.955-8.828-8.828c0-2.339,0.927-4.582,2.586-6.241l17.655-17.655   c3.478-3.416,9.066-3.363,12.482,0.115c3.372,3.434,3.372,8.934,0,12.367l-17.655,17.655   C295.901,96.177,293.65,97.103,291.31,97.103z"/>
	<path style="fill:#547580;" d="M291.31,141.241c-4.873,0-8.828-3.955-8.828-8.828c0-2.339,0.927-4.582,2.586-6.241l61.793-61.793   c3.478-3.416,9.066-3.363,12.482,0.115c3.372,3.434,3.372,8.934,0,12.367l-61.793,61.793   C295.901,140.314,293.65,141.241,291.31,141.241z"/>
</g>
<g>
</g>
<g>
</g>
<g>
</g>
<g>
</g>
<g>
</g>
<g>
</g>
<g>
</g>
<g>
</g>
<g>
</g>
<g>
</g>
<g>
</g>
<g>
</g>
<g>
</g>
<g>
</g>
<g>
</g>
</svg>
