<?xml version="1.0" encoding="iso-8859-1"?>
<!-- Generator: Adobe Illustrator 19.0.0, SVG Export Plug-In . SVG Version: 6.00 Build 0)  -->
<svg xmlns="http://www.w3.org/2000/svg" xmlns:xlink="http://www.w3.org/1999/xlink" version="1.1" id="Layer_1" x="0px" y="0px" viewBox="0 0 512 512" style="enable-background:new 0 0 512 512;" xml:space="preserve">
<path style="fill:#2C2F38;" d="M97.103,0h317.793c9.754,0,17.655,7.901,17.655,17.655v476.69c0,9.754-7.901,17.655-17.655,17.655  H97.103c-9.754,0-17.655-7.901-17.655-17.655V17.655C79.448,7.901,87.349,0,97.103,0z"/>
<rect x="79.448" y="70.621" style="fill:#3F5C6C;" width="353.103" height="326.621"/>
<g>
	<circle style="fill:#464F5D;" cx="256" cy="454.621" r="22.069"/>
	<path style="fill:#464F5D;" d="M256,44.138c-4.829,0.044-8.783-3.831-8.828-8.66c0-0.053,0-0.115,0-0.168   c0.035-2.339,0.945-4.573,2.56-6.268c2.534-2.507,6.329-3.24,9.622-1.854c1.068,0.45,2.057,1.077,2.913,1.854   c3.416,3.478,3.416,9.057,0,12.535c-0.856,0.777-1.845,1.404-2.913,1.854C258.295,43.882,257.156,44.12,256,44.138z"/>
</g>
<g>
	<path style="fill:#547580;" d="M114.759,132.414c-4.873,0-8.828-3.955-8.828-8.828c0-2.339,0.927-4.582,2.586-6.241l17.655-17.655   c3.478-3.416,9.066-3.363,12.482,0.115c3.372,3.434,3.372,8.934,0,12.367L121,129.827   C119.349,131.487,117.098,132.414,114.759,132.414z"/>
	<path style="fill:#547580;" d="M132.414,167.724c-4.873,0-8.828-3.955-8.828-8.828c0-2.339,0.927-4.581,2.586-6.241l52.966-52.966   c3.478-3.416,9.066-3.363,12.482,0.115c3.372,3.434,3.372,8.934,0,12.367l-52.966,52.966   C137.004,166.797,134.753,167.724,132.414,167.724z"/>
</g>
<path style="fill:#D1D4D1;" d="M300.138,203.034h-17.655v-59.754c1.086-14.627-9.896-27.366-24.514-28.451  c-14.618-1.086-27.366,9.896-28.451,24.514c-0.097,1.306-0.097,2.622,0,3.928v59.763h-17.655v-59.754  c-1.103-24.373,17.77-45.03,42.143-46.133c24.373-1.103,45.03,17.77,46.133,42.143c0.062,1.333,0.062,2.657,0,3.99V203.034z"/>
<path style="fill:#F0C419;" d="M307.103,201.737c-5.756-4.131-11.997-7.53-18.582-10.125c-20.886-8.298-44.156-8.298-65.042,0  c-6.585,2.595-12.835,5.994-18.582,10.125c-39.751,28.222-49.099,83.332-20.868,123.083s83.332,49.099,123.083,20.868  c39.751-28.222,49.099-83.332,20.868-123.083C322.242,214.528,315.189,207.466,307.103,201.737L307.103,201.737z"/>
<path style="fill:#2C2F38;" d="M291.31,254.57c-0.079,12.262-6.85,23.508-17.655,29.308v29.987  c-0.406,9.754-8.633,17.329-18.388,16.922c-9.19-0.38-16.543-7.742-16.922-16.922v-29.987c-10.805-5.8-17.576-17.046-17.655-29.308  c0.803-19.5,17.267-34.657,36.767-33.854C275.836,221.484,290.551,236.2,291.31,254.57z"/>
<g>
</g>
<g>
</g>
<g>
</g>
<g>
</g>
<g>
</g>
<g>
</g>
<g>
</g>
<g>
</g>
<g>
</g>
<g>
</g>
<g>
</g>
<g>
</g>
<g>
</g>
<g>
</g>
<g>
</g>
</svg>
