<?xml version="1.0" encoding="iso-8859-1"?>
<!-- Generator: Adobe Illustrator 19.0.0, SVG Export Plug-In . SVG Version: 6.00 Build 0)  -->
<svg xmlns="http://www.w3.org/2000/svg" xmlns:xlink="http://www.w3.org/1999/xlink" version="1.1" id="Layer_1" x="0px" y="0px" viewBox="0 0 512 512" style="enable-background:new 0 0 512 512;" xml:space="preserve">
<path style="fill:#2C2F38;" d="M97.103,0h317.793c9.754,0,17.655,7.901,17.655,17.655v476.69c0,9.754-7.901,17.655-17.655,17.655  H97.103c-9.754,0-17.655-7.901-17.655-17.655V17.655C79.448,7.901,87.349,0,97.103,0z"/>
<rect x="79.448" y="70.621" style="fill:#3F5C6C;" width="353.103" height="326.621"/>
<g>
	<path style="fill:#FFFFFF;" d="M152.638,280.364c-4.873,0-8.828-3.946-8.836-8.819c0-2.622,1.165-5.111,3.178-6.788l47.846-39.901   c3.743-3.125,9.313-2.622,12.438,1.121c3.125,3.743,2.622,9.313-1.121,12.438l-47.846,39.901   C156.698,279.64,154.703,280.364,152.638,280.364z"/>
	<path style="fill:#FFFFFF;" d="M284.866,285.749c-2.101,0-4.14-0.75-5.738-2.119l-52.789-45.197   c-3.716-3.16-4.167-8.73-1.006-12.447c3.16-3.716,8.73-4.167,12.447-1.006c0.018,0.009,0.026,0.026,0.044,0.035l52.789,45.197   c3.708,3.169,4.14,8.739,0.971,12.447C289.898,284.628,287.444,285.749,284.866,285.749z"/>
	<path style="fill:#FFFFFF;" d="M319.638,279.658c-4.873,0-8.828-3.955-8.819-8.828c0-1.739,0.521-3.452,1.483-4.899l42.284-63.382   c2.719-4.052,8.201-5.129,12.253-2.41c4.034,2.71,5.12,8.166,2.436,12.209l-42.284,63.382   C325.35,278.193,322.595,279.667,319.638,279.658z"/>
</g>
<g>
	<circle style="fill:#464F5D;" cx="256" cy="454.621" r="22.069"/>
	<path style="fill:#464F5D;" d="M256,44.138c-4.829,0.044-8.783-3.831-8.828-8.66c0-0.053,0-0.115,0-0.168   c0.035-2.339,0.945-4.573,2.56-6.268c2.534-2.507,6.329-3.24,9.622-1.854c1.068,0.45,2.057,1.077,2.913,1.854   c3.416,3.478,3.416,9.057,0,12.535c-0.856,0.777-1.845,1.404-2.913,1.854C258.295,43.882,257.156,44.12,256,44.138z"/>
</g>
<g>
	<path style="fill:#547580;" d="M114.759,132.414c-4.873,0-8.828-3.955-8.828-8.828c0-2.339,0.927-4.582,2.586-6.241l17.655-17.655   c3.478-3.416,9.066-3.363,12.482,0.115c3.372,3.434,3.372,8.934,0,12.367L121,129.827   C119.349,131.487,117.098,132.414,114.759,132.414z"/>
	<path style="fill:#547580;" d="M132.414,167.724c-4.873,0-8.828-3.955-8.828-8.828c0-2.339,0.927-4.581,2.586-6.241l52.966-52.966   c3.478-3.416,9.066-3.363,12.482,0.115c3.372,3.434,3.372,8.934,0,12.367l-52.966,52.966   C137.004,166.797,134.753,167.724,132.414,167.724z"/>
</g>
<g>
	<path style="fill:#C03A2B;" d="M304.552,308.966c-12.191,0.018-22.087-9.843-22.104-22.034   c-0.018-12.191,9.843-22.087,22.034-22.104c5.632-0.009,11.061,2.136,15.166,6.003c4.476,4.14,7.009,9.966,6.974,16.066   C326.612,299.087,316.743,308.957,304.552,308.966z"/>
	<circle style="fill:#C03A2B;" cx="136.828" cy="286.897" r="22.069"/>
</g>
<g>
	<circle style="fill:#F0C419;" cx="216.276" cy="216.276" r="22.069"/>
	<circle style="fill:#F0C419;" cx="375.172" cy="189.793" r="22.069"/>
</g>
<g>
</g>
<g>
</g>
<g>
</g>
<g>
</g>
<g>
</g>
<g>
</g>
<g>
</g>
<g>
</g>
<g>
</g>
<g>
</g>
<g>
</g>
<g>
</g>
<g>
</g>
<g>
</g>
<g>
</g>
</svg>
