<?xml version="1.0" encoding="iso-8859-1"?>
<!-- Generator: Adobe Illustrator 19.0.0, SVG Export Plug-In . SVG Version: 6.00 Build 0)  -->
<svg xmlns="http://www.w3.org/2000/svg" xmlns:xlink="http://www.w3.org/1999/xlink" version="1.1" id="Layer_1" x="0px" y="0px" viewBox="0 0 512 512" style="enable-background:new 0 0 512 512;" xml:space="preserve">
<path style="fill:#2C2F38;" d="M97.103,0h317.793c9.754,0,17.655,7.901,17.655,17.655v476.69c0,9.754-7.901,17.655-17.655,17.655  H97.103c-9.754,0-17.655-7.901-17.655-17.655V17.655C79.448,7.901,87.349,0,97.103,0z"/>
<g>
	<circle style="fill:#464F5D;" cx="256" cy="454.621" r="22.069"/>
	<path style="fill:#464F5D;" d="M256,44.138c-4.829,0.044-8.783-3.831-8.828-8.66c0-0.053,0-0.115,0-0.168   c0.035-2.339,0.945-4.573,2.56-6.268c2.534-2.507,6.329-3.24,9.622-1.854c1.068,0.45,2.057,1.077,2.913,1.854   c3.416,3.478,3.416,9.057,0,12.535c-0.856,0.777-1.845,1.404-2.913,1.854C258.295,43.882,257.156,44.12,256,44.138z"/>
</g>
<rect x="79.448" y="70.621" style="fill:#3F5C6C;" width="353.103" height="326.621"/>
<g>
	<path style="fill:#547580;" d="M114.759,132.414c-4.873,0-8.828-3.955-8.828-8.828c0-2.339,0.927-4.582,2.586-6.241l17.655-17.655   c3.478-3.416,9.066-3.363,12.482,0.115c3.372,3.434,3.372,8.934,0,12.367L121,129.827   C119.349,131.487,117.098,132.414,114.759,132.414z"/>
	<path style="fill:#547580;" d="M132.414,167.724c-4.873,0-8.828-3.955-8.828-8.828c0-2.339,0.927-4.581,2.586-6.241l52.966-52.966   c3.478-3.416,9.066-3.363,12.482,0.115c3.372,3.434,3.372,8.934,0,12.367l-52.966,52.966   C137.004,166.797,134.753,167.724,132.414,167.724z"/>
</g>
<path style="fill:#F0C419;" d="M241.77,176.19l-62.146,102.197c-7.883,12.95,0.318,30.579,14.23,30.579h124.292  c13.903,0,22.104-17.629,14.23-30.579L270.23,176.19c-4.273-7.857-14.106-10.77-21.963-6.497  C245.522,171.185,243.262,173.436,241.77,176.19z"/>
<g>
	<path style="fill:#C03A2B;" d="M256,256c-4.873,0-8.828-3.946-8.828-8.819c0,0,0,0,0-0.009v-35.31c0-4.873,3.955-8.828,8.828-8.828   s8.828,3.955,8.828,8.828v35.31C264.828,252.045,260.882,256,256,256L256,256z"/>
	<path style="fill:#C03A2B;" d="M256,282.483c-1.156-0.018-2.295-0.256-3.354-0.706c-1.077-0.424-2.066-1.059-2.913-1.854   c-0.777-0.856-1.404-1.845-1.854-2.913c-0.945-2.136-0.945-4.573,0-6.709c1.73-4.484,6.762-6.718,11.246-4.996   c2.295,0.883,4.105,2.701,4.996,4.996c0.945,2.136,0.945,4.573,0,6.709c-0.45,1.068-1.077,2.057-1.854,2.913   C260.573,281.529,258.339,282.447,256,282.483z"/>
</g>
<g>
</g>
<g>
</g>
<g>
</g>
<g>
</g>
<g>
</g>
<g>
</g>
<g>
</g>
<g>
</g>
<g>
</g>
<g>
</g>
<g>
</g>
<g>
</g>
<g>
</g>
<g>
</g>
<g>
</g>
</svg>
