<?xml version="1.0" encoding="iso-8859-1"?>
<!-- Generator: Adobe Illustrator 19.0.0, SVG Export Plug-In . SVG Version: 6.00 Build 0)  -->
<svg xmlns="http://www.w3.org/2000/svg" xmlns:xlink="http://www.w3.org/1999/xlink" version="1.1" id="Layer_1" x="0px" y="0px" viewBox="0 0 512 512" style="enable-background:new 0 0 512 512;" xml:space="preserve">
<rect x="238.345" y="370.759" style="fill:#2C3E50;" width="35.31" height="79.448"/>
<path style="fill:#464F5D;" d="M229.517,308.966h52.966c4.873,0,8.828,3.955,8.828,8.828v52.966c0,4.873-3.955,8.828-8.828,8.828  h-52.966c-4.873,0-8.828-3.955-8.828-8.828v-52.966C220.69,312.92,224.644,308.966,229.517,308.966z"/>
<rect x="203.034" y="229.517" style="fill:#2C3E50;" width="105.931" height="61.793"/>
<g>
	<path style="fill:#4482C3;" d="M343.102,247.172H168.898c-9.754,0-17.655-7.901-17.655-17.655c0-0.38,0.009-0.759,0.035-1.139   l15.378-211.862C167.256,7.23,174.972,0,184.276,0h143.448c9.313,0,17.02,7.23,17.62,16.516l15.378,211.862   c0.627,9.728-6.753,18.123-16.481,18.759C343.861,247.164,343.481,247.172,343.102,247.172z"/>
	<path style="fill:#4482C3;" d="M167.724,282.483h176.552c19.5,0,35.31,15.81,35.31,35.31v8.828c0,4.873-3.955,8.828-8.828,8.828   H141.241c-4.873,0-8.828-3.955-8.828-8.828v-8.828C132.414,298.293,148.224,282.483,167.724,282.483z"/>
</g>
<g>
	<path style="fill:#464F5D;" d="M396.094,485.605c-4.034,0-7.556-2.737-8.554-6.647c-2.975-11.723-13.524-19.933-25.609-19.924   H150.069c-12.085-0.009-22.634,8.201-25.609,19.915c-1.201,4.723-6.012,7.583-10.734,6.382c-4.723-1.201-7.583-6.012-6.382-10.734   c4.961-19.544,22.563-33.227,42.726-33.218h211.862c20.162-0.009,37.764,13.674,42.717,33.218   c1.201,4.723-1.651,9.525-6.374,10.734C397.559,485.508,396.826,485.605,396.094,485.605L396.094,485.605z"/>
	<path style="fill:#464F5D;" d="M256,485.517c-4.873,0-8.828-3.955-8.828-8.828v-26.483c0-4.873,3.955-8.828,8.828-8.828   s8.828,3.955,8.828,8.828v26.483C264.828,481.562,260.873,485.517,256,485.517z"/>
</g>
<g>
	<circle style="fill:#2C3E50;" cx="114.759" cy="494.345" r="17.655"/>
	<circle style="fill:#2C3E50;" cx="256" cy="494.345" r="17.655"/>
	<circle style="fill:#2C3E50;" cx="397.241" cy="494.345" r="17.655"/>
	<path style="fill:#2C3E50;" d="M397.241,317.793h-18.803c-4.873,0-8.828-3.955-8.828-8.828s3.955-8.828,8.828-8.828h18.803   c9.746-0.009,17.646-7.91,17.655-17.655v-70.621c0-4.873,3.955-8.828,8.828-8.828c4.873,0,8.828,3.955,8.828,8.828v70.621   C432.525,301.974,416.733,317.767,397.241,317.793z"/>
</g>
<path style="fill:#285680;" d="M414.897,176.552h17.655c9.754,0,17.655,7.901,17.655,17.655l0,0c0,9.754-7.901,17.655-17.655,17.655  h-17.655c-9.754,0-17.655-7.901-17.655-17.655l0,0C397.241,184.452,405.142,176.552,414.897,176.552z"/>
<path style="fill:#2C3E50;" d="M133.561,317.793h-18.803c-19.491-0.026-35.284-15.819-35.31-35.31v-70.621  c0-4.873,3.955-8.828,8.828-8.828c4.873,0,8.828,3.955,8.828,8.828v70.621c0.009,9.746,7.91,17.646,17.655,17.655h18.803  c4.873,0,8.828,3.955,8.828,8.828S138.434,317.793,133.561,317.793z"/>
<g>
	<path style="fill:#285680;" d="M97.103,211.862H79.448c-9.754,0-17.655-7.901-17.655-17.655l0,0   c0-9.754,7.901-17.655,17.655-17.655h17.655c9.754,0,17.655,7.901,17.655,17.655l0,0   C114.759,203.961,106.858,211.862,97.103,211.862z"/>
	<path style="fill:#285680;" d="M203.034,0h105.931l0,0v123.586c0,19.5-15.81,35.31-35.31,35.31h-35.31   c-19.5,0-35.31-15.81-35.31-35.31V0L203.034,0z"/>
</g>
<g>
</g>
<g>
</g>
<g>
</g>
<g>
</g>
<g>
</g>
<g>
</g>
<g>
</g>
<g>
</g>
<g>
</g>
<g>
</g>
<g>
</g>
<g>
</g>
<g>
</g>
<g>
</g>
<g>
</g>
</svg>
