<?xml version="1.0" encoding="iso-8859-1"?>
<!-- Generator: Adobe Illustrator 19.0.0, SVG Export Plug-In . SVG Version: 6.00 Build 0)  -->
<svg xmlns="http://www.w3.org/2000/svg" xmlns:xlink="http://www.w3.org/1999/xlink" version="1.1" id="Layer_1" x="0px" y="0px" viewBox="0 0 512.003 512.003" style="enable-background:new 0 0 512.003 512.003;" xml:space="preserve">
<path style="fill:#4482C3;" d="M467.864,158.897h26.483c9.525-0.185,17.408,7.353,17.655,16.87V495.13  c-0.247,9.516-8.13,17.055-17.655,16.87H17.657c-9.525,0.185-17.408-7.353-17.655-16.87V175.766  c0.247-9.516,8.139-17.055,17.655-16.87h291.31"/>
<path style="fill:#BBD1B5;" d="M44.14,194.207h211.862c4.873,0,8.828,3.955,8.828,8.828V256c0,4.873-3.955,8.828-8.828,8.828H44.14  c-4.873,0-8.828-3.955-8.828-8.828v-52.966C35.312,198.162,39.267,194.207,44.14,194.207z"/>
<g>
	<path style="fill:#527F72;" d="M70.622,238.345c-1.156,0.026-2.313-0.212-3.354-0.706c-1.068-0.45-2.048-1.077-2.913-1.854   c-0.794-0.847-1.43-1.836-1.854-2.913c-0.45-1.059-0.689-2.198-0.706-3.354c0.018-2.339,0.936-4.582,2.56-6.268   c0.856-0.777,1.845-1.412,2.913-1.854c3.293-1.386,7.089-0.653,9.622,1.854c0.353,0.441,0.706,0.883,1.059,1.324   c0.335,0.494,0.6,1.024,0.794,1.589c0.256,0.503,0.433,1.042,0.53,1.589c0.106,0.583,0.159,1.174,0.177,1.766   c-0.018,1.156-0.256,2.295-0.706,3.354c-0.45,1.068-1.077,2.057-1.854,2.913C75.195,237.391,72.962,238.31,70.622,238.345z"/>
	<path style="fill:#527F72;" d="M150.071,238.345h-44.138c-4.873,0-8.828-3.955-8.828-8.828s3.955-8.828,8.828-8.828h44.138   c4.873,0,8.828,3.955,8.828,8.828S154.943,238.345,150.071,238.345z"/>
</g>
<g>
	<path style="fill:#285680;" d="M44.14,300.138h35.31c4.873,0,8.828,3.955,8.828,8.828v17.655c0,4.873-3.955,8.828-8.828,8.828   H44.14c-4.873,0-8.828-3.955-8.828-8.828v-17.655C35.312,304.093,39.267,300.138,44.14,300.138z"/>
	<path style="fill:#285680;" d="M132.415,300.138h35.31c4.873,0,8.828,3.955,8.828,8.828v17.655c0,4.873-3.955,8.828-8.828,8.828   h-35.31c-4.873,0-8.828-3.955-8.828-8.828v-17.655C123.588,304.093,127.543,300.138,132.415,300.138z"/>
	<path style="fill:#285680;" d="M220.691,300.138h35.31c4.873,0,8.828,3.955,8.828,8.828v17.655c0,4.873-3.955,8.828-8.828,8.828   h-35.31c-4.873,0-8.828-3.955-8.828-8.828v-17.655C211.864,304.093,215.818,300.138,220.691,300.138z"/>
	<path style="fill:#285680;" d="M44.14,370.759h35.31c4.873,0,8.828,3.955,8.828,8.828v17.655c0,4.873-3.955,8.828-8.828,8.828   H44.14c-4.873,0-8.828-3.955-8.828-8.828v-17.655C35.312,374.713,39.267,370.759,44.14,370.759z"/>
	<path style="fill:#285680;" d="M132.415,370.759h35.31c4.873,0,8.828,3.955,8.828,8.828v17.655c0,4.873-3.955,8.828-8.828,8.828   h-35.31c-4.873,0-8.828-3.955-8.828-8.828v-17.655C123.588,374.713,127.543,370.759,132.415,370.759z"/>
	<path style="fill:#285680;" d="M220.691,370.759h35.31c4.873,0,8.828,3.955,8.828,8.828v17.655c0,4.873-3.955,8.828-8.828,8.828   h-35.31c-4.873,0-8.828-3.955-8.828-8.828v-17.655C211.864,374.713,215.818,370.759,220.691,370.759z"/>
	<path style="fill:#285680;" d="M44.14,441.379h35.31c4.873,0,8.828,3.955,8.828,8.828v17.655c0,4.873-3.955,8.828-8.828,8.828   H44.14c-4.873,0-8.828-3.955-8.828-8.828v-17.655C35.312,445.334,39.267,441.379,44.14,441.379z"/>
	<path style="fill:#285680;" d="M132.415,441.379h35.31c4.873,0,8.828,3.955,8.828,8.828v17.655c0,4.873-3.955,8.828-8.828,8.828   h-35.31c-4.873,0-8.828-3.955-8.828-8.828v-17.655C123.588,445.334,127.543,441.379,132.415,441.379z"/>
	<path style="fill:#285680;" d="M220.691,441.379h35.31c4.873,0,8.828,3.955,8.828,8.828v17.655c0,4.873-3.955,8.828-8.828,8.828   h-35.31c-4.873,0-8.828-3.955-8.828-8.828v-17.655C211.864,445.334,215.818,441.379,220.691,441.379z"/>
</g>
<path style="fill:#BDC3C7;" d="M308.967,158.897H44.14V35.31c0-19.5,15.793-35.302,35.293-35.31c0.009,0,0.009,0,0.018,0h353.103  c19.5-0.009,35.31,15.793,35.31,35.293c0,0.009,0,0.009,0,0.018v123.586"/>
<g>
	<path style="fill:#2C3E50;" d="M432.553,44.138H79.45c-4.873,0-8.828-3.955-8.828-8.828s3.955-8.828,8.828-8.828h353.103   c4.873,0,8.828,3.955,8.828,8.828S437.426,44.138,432.553,44.138z"/>
	<path style="fill:#2C3E50;" d="M432.553,88.276H79.45c-4.873,0-8.828-3.955-8.828-8.828s3.955-8.828,8.828-8.828h353.103   c4.873,0,8.828,3.955,8.828,8.828S437.426,88.276,432.553,88.276z"/>
	<path style="fill:#2C3E50;" d="M273.657,132.414H79.45c-4.873,0-8.828-3.955-8.828-8.828s3.955-8.828,8.828-8.828h194.207   c4.873,0,8.828,3.955,8.828,8.828S278.53,132.414,273.657,132.414z"/>
</g>
<path style="fill:#285680;" d="M353.105,114.759h70.621c24.373,0,44.138,19.765,44.138,44.138v273.655  c0,24.373-19.765,44.138-44.138,44.138h-70.621c-24.373,0-44.138-19.765-44.138-44.138V158.897  C308.967,134.524,328.732,114.759,353.105,114.759z"/>
<g>
</g>
<g>
</g>
<g>
</g>
<g>
</g>
<g>
</g>
<g>
</g>
<g>
</g>
<g>
</g>
<g>
</g>
<g>
</g>
<g>
</g>
<g>
</g>
<g>
</g>
<g>
</g>
<g>
</g>
</svg>
