<?xml version="1.0" encoding="iso-8859-1"?>
<!-- Generator: Adobe Illustrator 19.0.0, SVG Export Plug-In . SVG Version: 6.00 Build 0)  -->
<svg xmlns="http://www.w3.org/2000/svg" xmlns:xlink="http://www.w3.org/1999/xlink" version="1.1" id="Layer_1" x="0px" y="0px" viewBox="0 0 512.003 512.003" style="enable-background:new 0 0 512.003 512.003;" xml:space="preserve">
<g>
	<path style="fill:#5E5F62;" d="M282.484,459.034h56.761c4.793-0.035,9.393,1.836,12.8,5.208l33.721,32.662   c3.46,3.434,3.478,9.031,0.044,12.491c-1.713,1.721-4.061,2.666-6.488,2.604H132.68c-4.873,0.124-8.925-3.734-9.048-8.607   c-0.062-2.428,0.883-4.776,2.604-6.488l33.721-32.662c3.407-3.372,8.007-5.244,12.8-5.208H282.484z"/>
	<path style="fill:#5E5F62;" d="M300.139,347.542v23.217c0,9.754-7.901,17.655-17.655,17.655h-52.965   c-9.754,0-17.655-7.901-17.655-17.655v-23.217"/>
</g>
<circle style="fill:#7F8C8D;" cx="256.001" cy="176.552" r="176.552"/>
<path style="fill:#90BAE1;" d="M256.001,317.793c-78.009,0-141.241-63.232-141.241-141.241S178.001,35.31,256.001,35.31  s141.241,63.232,141.241,141.241C397.155,254.517,333.976,317.705,256.001,317.793z"/>
<circle style="fill:#2980BA;" cx="256.001" cy="176.552" r="35.31"/>
<rect x="229.519" y="388.414" style="fill:#7F8C8D;" width="52.966" height="88.276"/>
<g>
	<path style="fill:#2980BA;" d="M193.59,272.772c-0.591-0.018-1.183-0.079-1.766-0.177c-0.556-0.097-1.086-0.274-1.589-0.53   c-1.077-0.424-2.066-1.059-2.913-1.854c-3.416-3.478-3.416-9.057,0-12.535c0.415-0.38,0.865-0.733,1.324-1.059   c0.494-0.335,1.024-0.6,1.589-0.794c0.494-0.256,1.033-0.433,1.589-0.53c2.904-0.565,5.906,0.318,8.033,2.383l1.059,1.324   c0.335,0.494,0.6,1.024,0.794,1.589c0.256,0.503,0.433,1.033,0.538,1.589c0.097,0.583,0.159,1.174,0.177,1.766   c-0.018,0.565-0.071,1.121-0.177,1.677c-0.088,0.583-0.265,1.148-0.538,1.677c-0.194,0.565-0.459,1.103-0.794,1.589l-1.059,1.324   C198.163,271.828,195.93,272.737,193.59,272.772z"/>
	<path style="fill:#2980BA;" d="M168.608,247.79c-2.339-0.035-4.573-0.945-6.268-2.56l-1.059-1.324   c-0.335-0.494-0.6-1.024-0.794-1.589c-0.256-0.503-0.433-1.033-0.53-1.589c-0.106-0.583-0.168-1.174-0.185-1.766   c0.018-1.156,0.256-2.295,0.706-3.354c0.45-1.068,1.077-2.057,1.854-2.913c2.119-2.083,5.129-2.975,8.033-2.383   c0.556,0.097,1.086,0.274,1.589,0.53c0.547,0.177,1.05,0.441,1.501,0.794c0.538,0.353,0.971,0.706,1.412,1.059   c0.777,0.856,1.404,1.845,1.854,2.913c0.494,1.05,0.742,2.198,0.706,3.354c0.026,0.591-0.026,1.192-0.177,1.766   c-0.097,0.556-0.282,1.086-0.538,1.589c-0.194,0.565-0.459,1.103-0.794,1.589l-1.059,1.324c-0.433,0.406-0.909,0.759-1.412,1.059   c-0.45,0.353-0.953,0.618-1.501,0.794c-0.494,0.256-1.033,0.433-1.589,0.53C169.791,247.72,169.2,247.773,168.608,247.79z"/>
	<path style="fill:#2980BA;" d="M206.037,235.343c-0.565-0.018-1.13-0.071-1.677-0.177c-0.609-0.177-1.148-0.353-1.668-0.53   c-0.538-0.265-1.059-0.53-1.501-0.794c-0.503-0.309-0.945-0.697-1.324-1.148c-0.45-0.38-0.839-0.83-1.148-1.324   c-0.318-0.468-0.583-0.971-0.794-1.501c-0.23-0.538-0.406-1.103-0.538-1.677c-0.097-0.556-0.159-1.112-0.177-1.677   c0.009-2.357,0.962-4.617,2.648-6.268c0.362-0.45,0.812-0.812,1.324-1.059c0.468-0.344,0.971-0.636,1.501-0.883   c0.538-0.203,1.103-0.344,1.668-0.441c1.139-0.265,2.313-0.265,3.452,0c0.538,0.106,1.068,0.256,1.589,0.441   c0.547,0.256,1.077,0.556,1.589,0.883c0.486,0.3,0.927,0.653,1.324,1.059c1.642,1.677,2.56,3.928,2.56,6.268   c0.026,0.565-0.035,1.13-0.185,1.677c-0.088,0.574-0.238,1.139-0.441,1.677c-0.238,0.53-0.53,1.033-0.883,1.501   c-0.282,0.494-0.636,0.945-1.059,1.324C210.654,234.381,208.394,235.335,206.037,235.343z"/>
	<path style="fill:#2980BA;" d="M343.395,122.968c-0.591-0.018-1.174-0.071-1.757-0.177c-0.556-0.097-1.095-0.274-1.598-0.53   c-0.565-0.194-1.095-0.459-1.589-0.794c-0.441-0.353-0.883-0.706-1.324-1.059c-0.777-0.856-1.404-1.845-1.854-2.913   c-0.945-2.136-0.945-4.573,0-6.709c0.406-1.086,1.042-2.083,1.854-2.913c0.424-0.38,0.865-0.733,1.324-1.059   c0.494-0.335,1.024-0.6,1.589-0.794c0.503-0.256,1.042-0.433,1.598-0.53c1.721-0.362,3.513-0.177,5.12,0.53   c1.068,0.45,2.048,1.077,2.904,1.854c1.615,1.695,2.525,3.928,2.56,6.268c-0.009,1.156-0.247,2.295-0.706,3.354   c-0.441,1.068-1.068,2.057-1.854,2.913C347.967,122.024,345.725,122.933,343.395,122.968z"/>
	<path style="fill:#2980BA;" d="M318.404,97.986c-0.565-0.018-1.121-0.071-1.668-0.177c-0.583-0.079-1.156-0.256-1.677-0.53   c-0.538-0.177-1.05-0.45-1.501-0.794c-0.503-0.309-0.98-0.662-1.412-1.059c-0.812-0.83-1.448-1.827-1.854-2.913   c-0.945-2.136-0.945-4.573,0-6.709c0.45-1.068,1.077-2.057,1.854-2.913c0.45-0.353,0.892-0.706,1.412-1.059   c0.45-0.353,0.953-0.618,1.501-0.794c0.53-0.265,1.095-0.441,1.677-0.53c2.878-0.565,5.853,0.327,7.945,2.383   c0.812,0.83,1.448,1.827,1.854,2.913c0.927,2.136,0.927,4.573,0,6.709c-0.406,1.086-1.042,2.083-1.854,2.913   C322.985,97.033,320.743,97.951,318.404,97.986z"/>
	<path style="fill:#2980BA;" d="M305.966,135.415c-0.591,0.026-1.192-0.026-1.766-0.177c-0.574-0.106-1.13-0.247-1.677-0.441   c-0.521-0.265-1.015-0.556-1.501-0.883c-0.477-0.3-0.927-0.653-1.315-1.059c-1.66-1.66-2.586-3.919-2.56-6.268   c-0.026-0.565,0.026-1.13,0.177-1.677c0.097-0.574,0.238-1.13,0.441-1.677c0.247-0.53,0.538-1.033,0.892-1.501   c0.247-0.521,0.609-0.971,1.059-1.324c0.415-0.406,0.856-0.786,1.315-1.148c0.486-0.3,0.98-0.565,1.501-0.794   c0.538-0.177,1.148-0.353,1.677-0.53c1.721-0.353,3.505-0.168,5.12,0.53c1.077,0.424,2.039,1.086,2.816,1.942   c0.45,0.38,0.847,0.83,1.156,1.324c0.309,0.477,0.583,0.971,0.794,1.501c0.23,0.538,0.406,1.103,0.53,1.677   c0.106,0.556,0.168,1.112,0.185,1.677c-0.009,2.357-0.962,4.617-2.657,6.268c-0.803,0.821-1.766,1.483-2.816,1.942   C308.252,135.221,307.113,135.433,305.966,135.415z"/>
	<path style="fill:#2980BA;" d="M343.395,247.79c-0.591-0.018-1.174-0.071-1.757-0.177c-0.556-0.097-1.095-0.274-1.598-0.53   c-0.565-0.194-1.095-0.459-1.589-0.794c-0.459-0.327-0.9-0.68-1.324-1.059c-1.624-1.686-2.542-3.928-2.56-6.268   c-0.026-1.156,0.212-2.304,0.706-3.354c0.45-1.068,1.077-2.057,1.854-2.913c0.45-0.353,0.892-0.706,1.324-1.059   c0.494-0.335,1.024-0.6,1.589-0.794c0.503-0.256,1.042-0.433,1.598-0.53c4.74-1.006,9.393,2.022,10.399,6.753   c0.132,0.627,0.194,1.262,0.194,1.898c-0.018,0.591-0.071,1.183-0.177,1.766c-0.097,0.556-0.274,1.086-0.538,1.589   c-0.194,0.565-0.459,1.103-0.794,1.589l-1.059,1.324c-0.856,0.777-1.836,1.404-2.904,1.854   C345.707,247.578,344.551,247.817,343.395,247.79z"/>
	<path style="fill:#2980BA;" d="M318.404,272.772c-0.565-0.018-1.121-0.079-1.668-0.177c-0.583-0.088-1.156-0.265-1.677-0.53   c-0.538-0.177-1.05-0.441-1.501-0.794c-0.53-0.353-0.962-0.706-1.412-1.059c-0.353-0.441-0.697-0.883-1.05-1.412   c-0.353-0.45-0.618-0.953-0.803-1.501c-0.265-0.53-0.441-1.095-0.53-1.677c-0.106-0.556-0.168-1.112-0.185-1.677   c0.018-1.156,0.256-2.295,0.706-3.354c0.45-1.068,1.077-2.057,1.854-2.913c0.433-0.397,0.909-0.759,1.412-1.059   c0.45-0.353,0.962-0.618,1.501-0.794c0.53-0.274,1.095-0.45,1.677-0.53c2.878-0.583,5.862,0.318,7.945,2.383   c0.794,0.847,1.421,1.836,1.854,2.913c0.45,1.059,0.689,2.198,0.697,3.354c-0.018,2.339-0.927,4.582-2.551,6.268   C322.985,271.828,320.752,272.737,318.404,272.772z"/>
	<path style="fill:#2980BA;" d="M305.966,235.343c-0.591-0.018-1.183-0.071-1.766-0.177c-0.538-0.177-1.148-0.353-1.677-0.53   c-0.521-0.23-1.015-0.494-1.501-0.794l-1.315-1.059c-0.803-0.856-1.465-1.836-1.951-2.913c-1.28-3.31-0.521-7.071,1.951-9.622   c0.397-0.406,0.839-0.759,1.315-1.059c0.486-0.327,0.98-0.618,1.501-0.883c0.547-0.185,1.112-0.335,1.677-0.441   c1.713-0.335,3.487-0.185,5.12,0.441c1.059,0.459,2.013,1.121,2.816,1.942c3.46,3.434,3.487,9.022,0.053,12.482   c-0.018,0.018-0.035,0.035-0.053,0.053c-0.812,0.794-1.766,1.43-2.816,1.854C308.261,235.087,307.122,235.326,305.966,235.343z"/>
	<path style="fill:#2980BA;" d="M193.59,97.986c-0.591-0.018-1.183-0.071-1.766-0.177c-0.556-0.097-1.086-0.274-1.589-0.53   c-0.565-0.194-1.095-0.459-1.589-0.794c-0.468-0.327-0.909-0.68-1.324-1.059c-0.777-0.856-1.404-1.845-1.854-2.913   c-0.945-2.136-0.945-4.573,0-6.709c0.45-1.068,1.077-2.057,1.854-2.913c0.441-0.353,0.883-0.706,1.324-1.059   c0.494-0.335,1.024-0.6,1.589-0.794c0.503-0.256,1.033-0.433,1.589-0.53c2.904-0.583,5.914,0.309,8.033,2.383   c3.46,3.434,3.487,9.022,0.062,12.482C198.243,97.059,195.965,97.995,193.59,97.986L193.59,97.986z"/>
	<path style="fill:#2980BA;" d="M168.608,122.968c-4.829,0.044-8.783-3.831-8.828-8.66c0-0.053,0-0.115,0-0.168   c0.018-1.156,0.256-2.295,0.706-3.354c0.406-1.095,1.042-2.083,1.854-2.913c2.119-2.083,5.129-2.975,8.033-2.383   c0.538,0.106,1.068,0.256,1.589,0.441c2.198,0.874,3.937,2.639,4.767,4.855c0.494,1.05,0.742,2.198,0.706,3.354   c0.026,0.565-0.026,1.13-0.177,1.677c-0.088,0.583-0.265,1.156-0.538,1.677c-0.177,0.538-0.441,1.05-0.794,1.501   c-0.353,0.53-0.706,0.971-1.059,1.412c-0.441,0.353-0.883,0.706-1.412,1.059c-0.45,0.353-0.953,0.618-1.501,0.794   c-0.494,0.256-1.033,0.433-1.589,0.53C169.791,122.889,169.2,122.951,168.608,122.968z"/>
	<path style="fill:#2980BA;" d="M206.037,135.415c-0.565,0.026-1.13-0.035-1.677-0.177c-0.574-0.097-1.13-0.238-1.668-0.441   c-0.53-0.238-1.033-0.538-1.501-0.883c-0.512-0.256-0.971-0.618-1.324-1.059c-0.847-0.786-1.51-1.748-1.942-2.825   c-0.45-1.095-0.689-2.26-0.706-3.443c0.018-1.156,0.256-2.295,0.706-3.354c0.424-1.077,1.095-2.039,1.942-2.825   c0.38-0.45,0.83-0.839,1.324-1.148c0.468-0.318,0.971-0.583,1.501-0.794c0.538-0.23,1.103-0.406,1.668-0.53   c2.895-0.547,5.87,0.38,7.945,2.472c0.794,0.83,1.448,1.783,1.942,2.825c0.424,1.068,0.636,2.207,0.618,3.354   c0.018,1.174-0.194,2.348-0.618,3.443c-0.494,1.042-1.148,1.995-1.942,2.825C210.645,134.515,208.385,135.433,206.037,135.415z"/>
</g>
<g>
</g>
<g>
</g>
<g>
</g>
<g>
</g>
<g>
</g>
<g>
</g>
<g>
</g>
<g>
</g>
<g>
</g>
<g>
</g>
<g>
</g>
<g>
</g>
<g>
</g>
<g>
</g>
<g>
</g>
</svg>
