<?xml version="1.0" encoding="iso-8859-1"?>
<!-- Generator: Adobe Illustrator 19.0.0, SVG Export Plug-In . SVG Version: 6.00 Build 0)  -->
<svg xmlns="http://www.w3.org/2000/svg" xmlns:xlink="http://www.w3.org/1999/xlink" version="1.1" id="Layer_1" x="0px" y="0px" viewBox="0 0 512 512" style="enable-background:new 0 0 512 512;" xml:space="preserve">
<path style="fill:#464F5D;" d="M349.131,481.103H162.869c-9.746,0.018-17.664-7.874-17.673-17.629c0-3.072,0.794-6.1,2.313-8.766  l15.095-26.483c3.134-5.526,9.004-8.934,15.36-8.916h25.07v26.483h105.931V419.31h25.07c6.356-0.018,12.226,3.39,15.36,8.916  l15.095,26.483c4.829,8.466,1.88,19.253-6.594,24.082C355.231,480.309,352.203,481.112,349.131,481.103z"/>
<path style="fill:#2C2F38;" d="M194.207,357.517h123.586l0,0v88.276c0,4.873-3.955,8.828-8.828,8.828H203.034  c-4.873,0-8.828-3.955-8.828-8.828V357.517L194.207,357.517z"/>
<path style="fill:#464F5D;" d="M494.345,30.897H17.655C7.901,30.897,0,38.797,0,48.552V348.69c0,9.754,7.901,17.655,17.655,17.655  h353.103l15.219,30.429c1.492,2.993,4.555,4.882,7.892,4.882h68.537c3.346,0,6.4-1.889,7.892-4.882l15.219-30.429h8.828  c9.754,0,17.655-7.901,17.655-17.655V48.552C512,38.797,504.099,30.897,494.345,30.897z"/>
<path style="fill:#B0D3F0;" d="M476.69,75.034v247.172c0,4.873-3.955,8.828-8.828,8.828H44.138c-4.873,0-8.828-3.955-8.828-8.828  V75.034c0-4.873,3.955-8.828,8.828-8.828h423.724C472.735,66.207,476.69,70.162,476.69,75.034z"/>
<g>
	<path style="fill:#2C2F38;" d="M406.069,375.172c-0.565-0.018-1.13-0.079-1.677-0.177c-0.583-0.088-1.148-0.265-1.668-0.53   c-0.565-0.194-1.103-0.459-1.598-0.794c-0.459-0.327-0.9-0.68-1.315-1.059c-0.794-0.847-1.43-1.836-1.854-2.913   c-0.45-1.059-0.689-2.198-0.706-3.354c0.018-2.339,0.927-4.59,2.56-6.268l1.315-1.059c0.494-0.335,1.033-0.6,1.598-0.794   c0.521-0.265,1.086-0.441,1.668-0.53c1.103-0.221,2.251-0.221,3.354,0c0.583,0.079,1.156,0.256,1.677,0.53   c0.565,0.194,1.095,0.459,1.589,0.794c0.441,0.353,0.892,0.706,1.324,1.059c0.353,0.441,0.706,0.883,1.059,1.324   c0.335,0.494,0.6,1.024,0.794,1.589c0.256,0.503,0.433,1.033,0.53,1.589c0.106,0.583,0.168,1.174,0.185,1.766   c-0.018,1.156-0.256,2.295-0.706,3.354c-0.45,1.068-1.077,2.057-1.854,2.913c-0.424,0.38-0.865,0.733-1.324,1.059   c-0.494,0.335-1.024,0.6-1.589,0.794c-0.53,0.265-1.095,0.441-1.677,0.53C407.19,375.093,406.634,375.155,406.069,375.172z"/>
	<path style="fill:#2C2F38;" d="M450.207,375.172h-8.828c-4.873,0-8.828-3.955-8.828-8.828s3.955-8.828,8.828-8.828h8.828   c4.873,0,8.828,3.955,8.828,8.828S455.08,375.172,450.207,375.172z"/>
</g>
<g>
	<path style="fill:#FFFFFF;" d="M70.621,128c-4.873,0-8.828-3.955-8.828-8.828c0-2.339,0.927-4.582,2.586-6.241l17.655-17.655   c3.478-3.416,9.066-3.363,12.482,0.115c3.372,3.434,3.372,8.934,0,12.367l-17.655,17.655C75.211,127.073,72.96,128,70.621,128z"/>
	<path style="fill:#FFFFFF;" d="M88.276,163.31c-4.873,0-8.828-3.955-8.828-8.828c0-2.339,0.927-4.582,2.586-6.241L135,95.276   c3.478-3.416,9.066-3.363,12.482,0.115c3.372,3.434,3.372,8.934,0,12.367l-52.966,52.966   C92.866,162.383,90.615,163.31,88.276,163.31z"/>
</g>
<path style="fill:#C03A2B;" d="M241.77,136.466l-62.146,102.197c-7.874,12.95,0.327,30.579,14.23,30.579h124.292  c13.903,0,22.104-17.629,14.23-30.579L270.23,136.466c-4.273-7.857-14.106-10.77-21.963-6.497  C245.522,131.46,243.262,133.711,241.77,136.466z"/>
<g>
	<path style="fill:#F0C419;" d="M256,216.276c-4.873,0-8.828-3.946-8.828-8.819c0,0,0,0,0-0.009v-35.31   c0-4.873,3.955-8.828,8.828-8.828s8.828,3.955,8.828,8.828v35.31C264.828,212.321,260.882,216.276,256,216.276L256,216.276z"/>
	<path style="fill:#F0C419;" d="M256,242.759c-1.156-0.018-2.295-0.256-3.354-0.706c-1.077-0.424-2.066-1.059-2.913-1.854   c-0.777-0.856-1.404-1.845-1.854-2.913c-0.945-2.136-0.945-4.573,0-6.709c1.73-4.484,6.762-6.718,11.246-4.996   c2.295,0.883,4.105,2.701,4.996,4.996c0.945,2.136,0.945,4.573,0,6.709c-0.45,1.068-1.077,2.057-1.854,2.913   C260.573,241.805,258.339,242.723,256,242.759z"/>
</g>
<g>
</g>
<g>
</g>
<g>
</g>
<g>
</g>
<g>
</g>
<g>
</g>
<g>
</g>
<g>
</g>
<g>
</g>
<g>
</g>
<g>
</g>
<g>
</g>
<g>
</g>
<g>
</g>
<g>
</g>
</svg>
