<?xml version="1.0" encoding="iso-8859-1"?>
<!-- Generator: Adobe Illustrator 19.0.0, SVG Export Plug-In . SVG Version: 6.00 Build 0)  -->
<svg xmlns="http://www.w3.org/2000/svg" xmlns:xlink="http://www.w3.org/1999/xlink" version="1.1" id="Layer_1" x="0px" y="0px" viewBox="0 0 512 512" style="enable-background:new 0 0 512 512;" xml:space="preserve">
<path style="fill:#464F5D;" d="M349.131,481.103H162.869c-9.746,0.018-17.664-7.874-17.673-17.629c0-3.072,0.794-6.1,2.313-8.766  l15.095-26.483c3.134-5.526,9.004-8.934,15.36-8.916h25.07v26.483h105.931V419.31h25.07c6.356-0.018,12.226,3.39,15.36,8.916  l15.095,26.483c4.829,8.466,1.88,19.253-6.594,24.082C355.231,480.309,352.203,481.112,349.131,481.103z"/>
<path style="fill:#2C2F38;" d="M194.207,357.517h123.586l0,0v88.276c0,4.873-3.955,8.828-8.828,8.828H203.034  c-4.873,0-8.828-3.955-8.828-8.828V357.517L194.207,357.517z"/>
<path style="fill:#464F5D;" d="M494.345,30.897H17.655C7.901,30.897,0,38.797,0,48.552V348.69c0,9.754,7.901,17.655,17.655,17.655  h353.103l15.219,30.429c1.492,2.993,4.555,4.882,7.892,4.882h68.537c3.346,0,6.4-1.889,7.892-4.882l15.219-30.429h8.828  c9.754,0,17.655-7.901,17.655-17.655V48.552C512,38.797,504.099,30.897,494.345,30.897z"/>
<path style="fill:#B0D3F0;" d="M476.69,75.034v247.172c0,4.873-3.955,8.828-8.828,8.828H44.138c-4.873,0-8.828-3.955-8.828-8.828  V75.034c0-4.873,3.955-8.828,8.828-8.828h423.724C472.735,66.207,476.69,70.162,476.69,75.034z"/>
<g>
	<path style="fill:#2C2F38;" d="M406.069,375.172c-0.565-0.018-1.13-0.079-1.677-0.177c-0.583-0.088-1.148-0.265-1.668-0.53   c-0.565-0.194-1.103-0.459-1.598-0.794c-0.459-0.327-0.9-0.68-1.315-1.059c-0.794-0.847-1.43-1.836-1.854-2.913   c-0.45-1.059-0.689-2.198-0.706-3.354c0.018-2.339,0.927-4.59,2.56-6.268l1.315-1.059c0.494-0.335,1.033-0.6,1.598-0.794   c0.521-0.265,1.086-0.441,1.668-0.53c1.103-0.221,2.251-0.221,3.354,0c0.583,0.079,1.156,0.256,1.677,0.53   c0.565,0.194,1.095,0.459,1.589,0.794c0.441,0.353,0.892,0.706,1.324,1.059c0.353,0.441,0.706,0.883,1.059,1.324   c0.335,0.494,0.6,1.024,0.794,1.589c0.256,0.503,0.433,1.033,0.53,1.589c0.106,0.583,0.168,1.174,0.185,1.766   c-0.018,1.156-0.256,2.295-0.706,3.354c-0.45,1.068-1.077,2.057-1.854,2.913c-0.424,0.38-0.865,0.733-1.324,1.059   c-0.494,0.335-1.024,0.6-1.589,0.794c-0.53,0.265-1.095,0.441-1.677,0.53C407.19,375.093,406.634,375.155,406.069,375.172z"/>
	<path style="fill:#2C2F38;" d="M450.207,375.172h-8.828c-4.873,0-8.828-3.955-8.828-8.828s3.955-8.828,8.828-8.828h8.828   c4.873,0,8.828,3.955,8.828,8.828S455.08,375.172,450.207,375.172z"/>
</g>
<g>
	<path style="fill:#FFFFFF;" d="M70.621,128c-4.873,0-8.828-3.955-8.828-8.828c0-2.339,0.927-4.582,2.586-6.241l17.655-17.655   c3.478-3.416,9.066-3.363,12.482,0.115c3.372,3.434,3.372,8.934,0,12.367l-17.655,17.655C75.211,127.073,72.96,128,70.621,128z"/>
	<path style="fill:#FFFFFF;" d="M88.276,163.31c-4.873,0-8.828-3.955-8.828-8.828c0-2.339,0.927-4.582,2.586-6.241L135,95.276   c3.478-3.416,9.066-3.363,12.482,0.115c3.372,3.434,3.372,8.934,0,12.367l-52.966,52.966   C92.866,162.383,90.615,163.31,88.276,163.31z"/>
</g>
<path style="fill:#804169;" d="M344.276,207.448h-26.924c0.265-2.913,0.441-5.826,0.441-8.828c0-3.001-0.177-5.914-0.441-8.828  h26.924c4.873,0,8.828-3.955,8.828-8.828c0-4.873-3.955-8.828-8.828-8.828h-30.102c-1.589-5.817-3.743-11.467-6.444-16.861  c10.505-0.026,20.701-3.505,29.043-9.887c4.873-4.458,7.601-10.787,7.503-17.39c0-4.873-3.955-8.828-8.828-8.828  s-8.828,3.955-8.828,8.828c0.106,1.677-0.583,3.31-1.854,4.414c-8.863,4.926-19.103,6.788-29.131,5.297  c-18.282-21.892-50.847-24.814-72.739-6.532c-2.366,1.977-4.555,4.167-6.532,6.532c-10.028,1.501-20.268-0.362-29.131-5.297  c-1.271-1.103-1.96-2.737-1.854-4.414c0-4.873-3.955-8.828-8.828-8.828s-8.828,3.955-8.828,8.828  c-0.097,6.603,2.631,12.932,7.503,17.39c8.342,6.382,18.538,9.86,29.043,9.887c-2.701,5.394-4.855,11.043-6.444,16.861h-30.102  c-4.873,0-8.828,3.955-8.828,8.828c0,4.873,3.955,8.828,8.828,8.828h26.924c-0.265,2.913-0.441,5.826-0.441,8.828  c0,3.001,0.177,5.914,0.441,8.828h-26.924c-4.873,0-8.828,3.955-8.828,8.828c0,4.873,3.955,8.828,8.828,8.828h30.102  c1.589,5.817,3.743,11.467,6.444,16.861c-10.505,0.026-20.701,3.505-29.043,9.887c-4.873,4.458-7.601,10.787-7.503,17.39  c0,4.873,3.955,8.828,8.828,8.828c4.873,0,8.828-3.955,8.828-8.828c-0.106-1.677,0.583-3.31,1.854-4.414  c8.863-4.926,19.103-6.788,29.131-5.297c18.282,21.892,50.847,24.814,72.739,6.532c2.366-1.977,4.555-4.167,6.532-6.532  c10.028-1.501,20.268,0.362,29.131,5.297c1.271,1.103,1.96,2.737,1.854,4.414c0,4.873,3.955,8.828,8.828,8.828  s8.828-3.955,8.828-8.828c0.097-6.603-2.631-12.932-7.503-17.39c-8.342-6.382-18.538-9.86-29.043-9.887  c2.701-5.394,4.855-11.043,6.444-16.861h30.102c4.873,0,8.828-3.955,8.828-8.828C353.103,211.403,349.149,207.448,344.276,207.448z   M247.172,259.178c-20.127-5.738-35.31-30.72-35.31-60.557c0-2.948,0.177-5.897,0.53-8.828h34.781V259.178z M216.188,172.138  c7.062-20.833,22.246-35.31,39.812-35.31s32.75,14.477,39.812,35.31H216.188z M264.828,259.178v-69.385h34.781  c0.353,2.931,0.53,5.879,0.53,8.828C300.138,228.458,284.954,253.44,264.828,259.178z"/>
<g>
	<path style="fill:#FF5364;" d="M295.812,172.138h-79.625c7.062-20.833,22.246-35.31,39.812-35.31S288.75,151.305,295.812,172.138z"/>
	<path style="fill:#FF5364;" d="M247.172,189.793v69.385c-20.127-5.738-35.31-30.72-35.31-60.557c0-2.948,0.177-5.897,0.53-8.828   H247.172z"/>
	<path style="fill:#FF5364;" d="M300.138,198.621c0,29.837-15.183,54.819-35.31,60.557v-69.385h34.781   C299.961,192.724,300.138,195.672,300.138,198.621z"/>
</g>
<g>
</g>
<g>
</g>
<g>
</g>
<g>
</g>
<g>
</g>
<g>
</g>
<g>
</g>
<g>
</g>
<g>
</g>
<g>
</g>
<g>
</g>
<g>
</g>
<g>
</g>
<g>
</g>
<g>
</g>
</svg>
