<?xml version="1.0" encoding="iso-8859-1"?>
<!-- Generator: Adobe Illustrator 19.0.0, SVG Export Plug-In . SVG Version: 6.00 Build 0)  -->
<svg xmlns="http://www.w3.org/2000/svg" xmlns:xlink="http://www.w3.org/1999/xlink" version="1.1" id="Layer_1" x="0px" y="0px" viewBox="0 0 512 512" style="enable-background:new 0 0 512 512;" xml:space="preserve">
<path style="fill:#464F5D;" d="M349.131,481.103H162.869c-9.746,0.018-17.664-7.874-17.673-17.629c0-3.072,0.794-6.1,2.313-8.766  l15.095-26.483c3.134-5.526,9.004-8.934,15.36-8.916h25.07v26.483h105.931V419.31h25.07c6.356-0.018,12.226,3.39,15.36,8.916  l15.095,26.483c4.829,8.466,1.88,19.253-6.594,24.082C355.231,480.309,352.203,481.112,349.131,481.103z"/>
<path style="fill:#2C2F38;" d="M194.207,357.517h123.586l0,0v88.276c0,4.873-3.955,8.828-8.828,8.828H203.034  c-4.873,0-8.828-3.955-8.828-8.828V357.517L194.207,357.517z"/>
<path style="fill:#464F5D;" d="M494.345,30.897H17.655C7.901,30.897,0,38.797,0,48.552V348.69c0,9.754,7.901,17.655,17.655,17.655  h353.103l15.219,30.429c1.492,2.993,4.555,4.882,7.892,4.882h68.537c3.346,0,6.4-1.889,7.892-4.882l15.219-30.429h8.828  c9.754,0,17.655-7.901,17.655-17.655V48.552C512,38.797,504.099,30.897,494.345,30.897z"/>
<g>
	<path style="fill:#2C2F38;" d="M476.69,75.034v247.172c0,4.873-3.955,8.828-8.828,8.828H44.138c-4.873,0-8.828-3.955-8.828-8.828   V75.034c0-4.873,3.955-8.828,8.828-8.828h423.724C472.735,66.207,476.69,70.162,476.69,75.034z"/>
	<path style="fill:#2C2F38;" d="M406.069,375.172c-0.565-0.018-1.13-0.079-1.677-0.177c-0.583-0.088-1.148-0.265-1.668-0.53   c-0.565-0.194-1.103-0.459-1.598-0.794c-0.459-0.327-0.9-0.68-1.315-1.059c-0.794-0.847-1.43-1.836-1.854-2.913   c-0.45-1.059-0.689-2.198-0.706-3.354c0.018-2.339,0.927-4.59,2.56-6.268l1.315-1.059c0.494-0.335,1.033-0.6,1.598-0.794   c0.521-0.265,1.086-0.441,1.668-0.53c1.103-0.221,2.251-0.221,3.354,0c0.583,0.079,1.156,0.256,1.677,0.53   c0.565,0.194,1.095,0.459,1.589,0.794c0.441,0.353,0.892,0.706,1.324,1.059c0.353,0.441,0.706,0.883,1.059,1.324   c0.335,0.494,0.6,1.024,0.794,1.589c0.256,0.503,0.433,1.033,0.53,1.589c0.106,0.583,0.168,1.174,0.185,1.766   c-0.018,1.156-0.256,2.295-0.706,3.354c-0.45,1.068-1.077,2.057-1.854,2.913c-0.424,0.38-0.865,0.733-1.324,1.059   c-0.494,0.335-1.024,0.6-1.589,0.794c-0.53,0.265-1.095,0.441-1.677,0.53C407.19,375.093,406.634,375.155,406.069,375.172z"/>
	<path style="fill:#2C2F38;" d="M450.207,375.172h-8.828c-4.873,0-8.828-3.955-8.828-8.828s3.955-8.828,8.828-8.828h8.828   c4.873,0,8.828,3.955,8.828,8.828S455.08,375.172,450.207,375.172z"/>
</g>
<g>
	<polygon style="fill:#556080;" points="97.836,66.207 35.31,129.765 35.31,103.283 71.724,66.207  "/>
	<polygon style="fill:#556080;" points="153.009,66.207 35.31,185.759 35.31,159.276 126.897,66.207  "/>
	<polygon style="fill:#556080;" points="208.181,66.207 35.31,241.841 35.31,215.358 182.069,66.207  "/>
	<polygon style="fill:#556080;" points="263.353,66.207 35.31,297.931 35.31,271.448 237.241,66.207  "/>
	<polygon style="fill:#556080;" points="318.526,66.207 58.024,331.034 35.31,331.034 35.31,327.627 292.414,66.207  "/>
	<polygon style="fill:#556080;" points="373.698,66.207 113.196,331.034 87.084,331.034 347.586,66.207  "/>
	<polygon style="fill:#556080;" points="428.871,66.207 168.369,331.034 142.257,331.034 402.759,66.207  "/>
	<polygon style="fill:#556080;" points="457.931,66.207 476.69,66.207 476.69,73.675 223.541,331.034 197.429,331.034  "/>
	<polygon style="fill:#556080;" points="476.69,103.283 476.69,129.765 278.713,331.034 252.601,331.034  "/>
	<polygon style="fill:#556080;" points="476.69,159.373 476.69,185.856 333.886,331.034 307.774,331.034  "/>
	<polygon style="fill:#556080;" points="476.69,215.455 476.69,241.938 389.058,331.034 362.946,331.034  "/>
	<polygon style="fill:#556080;" points="476.69,271.545 476.69,298.028 444.231,331.034 418.119,331.034  "/>
</g>
<g>
</g>
<g>
</g>
<g>
</g>
<g>
</g>
<g>
</g>
<g>
</g>
<g>
</g>
<g>
</g>
<g>
</g>
<g>
</g>
<g>
</g>
<g>
</g>
<g>
</g>
<g>
</g>
<g>
</g>
</svg>
