<?xml version="1.0" encoding="iso-8859-1"?>
<!-- Generator: Adobe Illustrator 19.0.0, SVG Export Plug-In . SVG Version: 6.00 Build 0)  -->
<svg xmlns="http://www.w3.org/2000/svg" xmlns:xlink="http://www.w3.org/1999/xlink" version="1.1" id="Layer_1" x="0px" y="0px" viewBox="0 0 512 512" style="enable-background:new 0 0 512 512;" xml:space="preserve">
<path style="fill:#B0D3F0;" d="M61.793,0h388.414c9.754,0,17.655,7.901,17.655,17.655v247.172c0,9.754-7.901,17.655-17.655,17.655  H61.793c-9.754,0-17.655-7.901-17.655-17.655V17.655C44.138,7.901,52.039,0,61.793,0z"/>
<path style="fill:#BDC3C7;" d="M432.552,44.138v194.207c0,4.873-3.955,8.828-8.828,8.828H88.276c-4.873,0-8.828-3.955-8.828-8.828  V44.138c0-4.873,3.955-8.828,8.828-8.828h335.448C428.597,35.31,432.552,39.265,432.552,44.138z"/>
<path style="fill:#90BAE1;" d="M493.815,459.034H18.185c-9.772,0.221-17.876-7.53-18.097-17.302  c-0.044-2.101,0.282-4.193,0.971-6.179l23.305-64.794l6.356-17.655l25.423-70.621h399.713l25.423,70.621l6.356,17.655l23.305,64.794  c3.196,9.242-1.713,19.324-10.946,22.51C498.008,458.752,495.916,459.079,493.815,459.034z"/>
<path style="fill:#556080;" d="M512,441.468v44.05c0.018,14.61-11.802,26.465-26.412,26.483c-0.026,0-0.044,0-0.071,0H26.483  C11.873,512.018,0.018,500.198,0,485.588c0-0.026,0-0.044,0-0.071v-44.05"/>
<path style="fill:#2C2F38;" d="M308.966,485.517H203.034c-9.746-0.009-17.646-7.91-17.655-17.655v-8.828  c0-4.873,3.955-8.828,8.828-8.828s8.828,3.955,8.828,8.828v8.828h105.931v-8.828c0-4.873,3.955-8.828,8.828-8.828  c4.873,0,8.828,3.955,8.828,8.828v8.828C326.612,477.608,318.711,485.508,308.966,485.517z"/>
<g>
	<path style="fill:#556080;" d="M304.269,361.931h-96.538c-4.034-0.053-7.636,2.551-8.845,6.4l-13.144,44.138   c-1.298,4.749,1.501,9.64,6.241,10.937c0.847,0.23,1.73,0.335,2.604,0.309h122.827c4.917,0.141,9.022-3.734,9.163-8.651   c0.026-0.883-0.079-1.757-0.309-2.604l-13.144-44.138C311.905,364.482,308.303,361.878,304.269,361.931z"/>
	<polygon style="fill:#556080;" points="487.636,370.759 24.364,370.759 30.72,353.103 481.28,353.103  "/>
</g>
<path style="fill:#804169;" d="M344.276,150.069h-26.924c0.265-2.913,0.441-5.826,0.441-8.828s-0.177-5.914-0.441-8.828h26.924  c4.873,0,8.828-3.955,8.828-8.828s-3.955-8.828-8.828-8.828h-30.102c-1.589-5.817-3.743-11.467-6.444-16.861  c10.505-0.026,20.701-3.505,29.043-9.887c4.873-4.458,7.601-10.787,7.503-17.39c0-4.873-3.955-8.828-8.828-8.828  s-8.828,3.955-8.828,8.828c0.106,1.677-0.583,3.31-1.854,4.414c-8.863,4.926-19.103,6.788-29.131,5.297  c-18.282-21.892-50.847-24.814-72.739-6.532c-2.366,1.977-4.555,4.167-6.532,6.532c-10.028,1.501-20.268-0.362-29.131-5.297  c-1.271-1.103-1.96-2.737-1.854-4.414c0-4.873-3.955-8.828-8.828-8.828c-4.873,0-8.828,3.955-8.828,8.828  c-0.097,6.603,2.631,12.932,7.503,17.39c8.342,6.382,18.538,9.86,29.043,9.887c-2.701,5.394-4.855,11.043-6.444,16.861h-30.102  c-4.873,0-8.828,3.955-8.828,8.828s3.955,8.828,8.828,8.828h26.924c-0.265,2.913-0.441,5.826-0.441,8.828s0.177,5.914,0.441,8.828  h-26.924c-4.873,0-8.828,3.955-8.828,8.828c0,4.873,3.955,8.828,8.828,8.828h30.102c1.589,5.817,3.743,11.467,6.444,16.861  c-10.505,0.026-20.701,3.505-29.043,9.887c-4.873,4.458-7.601,10.787-7.503,17.39c0,4.873,3.955,8.828,8.828,8.828  c4.873,0,8.828-3.955,8.828-8.828c-0.106-1.677,0.583-3.31,1.854-4.414c8.863-4.926,19.103-6.788,29.131-5.297  c18.282,21.892,50.847,24.814,72.739,6.532c2.366-1.977,4.555-4.167,6.532-6.532c10.028-1.501,20.268,0.362,29.131,5.297  c1.271,1.103,1.96,2.737,1.854,4.414c0,4.873,3.955,8.828,8.828,8.828s8.828-3.955,8.828-8.828  c0.097-6.603-2.631-12.932-7.503-17.39c-8.342-6.382-18.538-9.86-29.043-9.887c2.701-5.394,4.855-11.043,6.444-16.861h30.102  c4.873,0,8.828-3.955,8.828-8.828C353.103,154.024,349.149,150.069,344.276,150.069z M247.172,201.799  c-20.127-5.738-35.31-30.72-35.31-60.557c0-2.948,0.177-5.897,0.53-8.828h34.781V201.799z M216.188,114.759  c7.062-20.833,22.246-35.31,39.812-35.31s32.75,14.477,39.812,35.31H216.188z M264.828,201.799v-69.385h34.781  c0.353,2.931,0.53,5.879,0.53,8.828C300.138,171.079,284.954,196.061,264.828,201.799z"/>
<g>
	<path style="fill:#FF5364;" d="M295.812,114.759h-79.625c7.062-20.833,22.246-35.31,39.812-35.31S288.75,93.926,295.812,114.759z"/>
	<path style="fill:#FF5364;" d="M247.172,132.414v69.385c-20.127-5.738-35.31-30.72-35.31-60.557c0-2.948,0.177-5.897,0.53-8.828   H247.172z"/>
	<path style="fill:#FF5364;" d="M300.138,141.241c0,29.837-15.183,54.819-35.31,60.557v-69.385h34.781   C299.961,135.345,300.138,138.293,300.138,141.241z"/>
</g>
<g>
</g>
<g>
</g>
<g>
</g>
<g>
</g>
<g>
</g>
<g>
</g>
<g>
</g>
<g>
</g>
<g>
</g>
<g>
</g>
<g>
</g>
<g>
</g>
<g>
</g>
<g>
</g>
<g>
</g>
</svg>
