<?xml version="1.0" encoding="iso-8859-1"?>
<!-- Generator: Adobe Illustrator 19.0.0, SVG Export Plug-In . SVG Version: 6.00 Build 0)  -->
<svg xmlns="http://www.w3.org/2000/svg" xmlns:xlink="http://www.w3.org/1999/xlink" version="1.1" id="Layer_1" x="0px" y="0px" viewBox="0 0 512 512" style="enable-background:new 0 0 512 512;" xml:space="preserve">
<path style="fill:#B0D3F0;" d="M61.793,0h388.414c9.754,0,17.655,7.901,17.655,17.655v247.172c0,9.754-7.901,17.655-17.655,17.655  H61.793c-9.754,0-17.655-7.901-17.655-17.655V17.655C44.138,7.901,52.039,0,61.793,0z"/>
<path style="fill:#BDC3C7;" d="M432.552,44.138v194.207c0,4.873-3.955,8.828-8.828,8.828H88.276c-4.873,0-8.828-3.955-8.828-8.828  V44.138c0-4.873,3.955-8.828,8.828-8.828h335.448C428.597,35.31,432.552,39.265,432.552,44.138z"/>
<path style="fill:#90BAE1;" d="M493.815,459.034H18.185c-9.772,0.221-17.876-7.53-18.097-17.302  c-0.044-2.101,0.282-4.193,0.971-6.179l23.305-64.794l6.356-17.655l25.423-70.621h399.713l25.423,70.621l6.356,17.655l23.305,64.794  c3.196,9.242-1.713,19.324-10.946,22.51C498.008,458.752,495.916,459.079,493.815,459.034z"/>
<path style="fill:#556080;" d="M512,441.468v44.05c0.018,14.61-11.802,26.465-26.412,26.483c-0.026,0-0.044,0-0.071,0H26.483  C11.873,512.018,0.018,500.198,0,485.588c0-0.026,0-0.044,0-0.071v-44.05"/>
<path style="fill:#2C2F38;" d="M308.966,485.517H203.034c-9.746-0.009-17.646-7.91-17.655-17.655v-8.828  c0-4.873,3.955-8.828,8.828-8.828s8.828,3.955,8.828,8.828v8.828h105.931v-8.828c0-4.873,3.955-8.828,8.828-8.828  c4.873,0,8.828,3.955,8.828,8.828v8.828C326.612,477.608,318.711,485.508,308.966,485.517z"/>
<g>
	<path style="fill:#556080;" d="M304.269,361.931h-96.538c-4.034-0.053-7.636,2.551-8.845,6.4l-13.144,44.138   c-1.298,4.749,1.501,9.64,6.241,10.937c0.847,0.23,1.73,0.335,2.604,0.309h122.827c4.917,0.141,9.022-3.734,9.163-8.651   c0.026-0.883-0.079-1.757-0.309-2.604l-13.144-44.138C311.905,364.482,308.303,361.878,304.269,361.931z"/>
	<polygon style="fill:#556080;" points="487.636,370.759 24.364,370.759 30.72,353.103 481.28,353.103  "/>
</g>
<path style="fill:#FFFFFF;" d="M256,141.241c0,39-31.62,70.621-70.621,70.621s-70.621-31.62-70.621-70.621  s31.62-70.621,70.621-70.621v70.621H256z"/>
<path style="fill:#C03A2B;" d="M256,141.241h-70.621V70.621c38.991-0.009,70.612,31.594,70.621,70.585  C256,141.215,256,141.233,256,141.241z"/>
<g>
	<path style="fill:#CC66A1;" d="M397.241,79.448H291.31c-4.873,0-8.828-3.955-8.828-8.828s3.955-8.828,8.828-8.828h105.931   c4.873,0,8.828,3.955,8.828,8.828S402.114,79.448,397.241,79.448z"/>
	<path style="fill:#CC66A1;" d="M397.241,114.759H291.31c-4.873,0-8.828-3.955-8.828-8.828c0-4.873,3.955-8.828,8.828-8.828h105.931   c4.873,0,8.828,3.955,8.828,8.828C406.069,110.804,402.114,114.759,397.241,114.759z"/>
	<path style="fill:#CC66A1;" d="M397.241,150.069H291.31c-4.873,0-8.828-3.955-8.828-8.828s3.955-8.828,8.828-8.828h105.931   c4.873,0,8.828,3.955,8.828,8.828S402.114,150.069,397.241,150.069z"/>
	<path style="fill:#CC66A1;" d="M397.241,185.379H291.31c-4.873,0-8.828-3.955-8.828-8.828c0-4.873,3.955-8.828,8.828-8.828h105.931   c4.873,0,8.828,3.955,8.828,8.828C406.069,181.425,402.114,185.379,397.241,185.379z"/>
	<path style="fill:#CC66A1;" d="M397.241,220.69H291.31c-4.873,0-8.828-3.955-8.828-8.828c0-4.873,3.955-8.828,8.828-8.828h105.931   c4.873,0,8.828,3.955,8.828,8.828C406.069,216.735,402.114,220.69,397.241,220.69z"/>
</g>
<g>
</g>
<g>
</g>
<g>
</g>
<g>
</g>
<g>
</g>
<g>
</g>
<g>
</g>
<g>
</g>
<g>
</g>
<g>
</g>
<g>
</g>
<g>
</g>
<g>
</g>
<g>
</g>
<g>
</g>
</svg>
