<?xml version="1.0" encoding="iso-8859-1"?>
<!-- Generator: Adobe Illustrator 19.0.0, SVG Export Plug-In . SVG Version: 6.00 Build 0)  -->
<svg xmlns="http://www.w3.org/2000/svg" xmlns:xlink="http://www.w3.org/1999/xlink" version="1.1" id="Layer_1" x="0px" y="0px" viewBox="0 0 512 512" style="enable-background:new 0 0 512 512;" xml:space="preserve">
<path style="fill:#B0D3F0;" d="M61.793,0h388.414c9.754,0,17.655,7.901,17.655,17.655v247.172c0,9.754-7.901,17.655-17.655,17.655  H61.793c-9.754,0-17.655-7.901-17.655-17.655V17.655C44.138,7.901,52.039,0,61.793,0z"/>
<path style="fill:#2C2F38;" d="M432.552,44.138v194.207c0,4.873-3.955,8.828-8.828,8.828H88.276c-4.873,0-8.828-3.955-8.828-8.828  V44.138c0-4.873,3.955-8.828,8.828-8.828h335.448C428.597,35.31,432.552,39.265,432.552,44.138z"/>
<path style="fill:#90BAE1;" d="M493.815,459.034H18.185c-9.772,0.221-17.876-7.53-18.097-17.302  c-0.044-2.101,0.282-4.193,0.971-6.179l23.305-64.794l6.356-17.655l25.423-70.621h399.713l25.423,70.621l6.356,17.655l23.305,64.794  c3.196,9.242-1.713,19.324-10.946,22.51C498.008,458.752,495.916,459.079,493.815,459.034z"/>
<path style="fill:#556080;" d="M512,441.468v44.05c0.018,14.61-11.802,26.465-26.412,26.483c-0.026,0-0.044,0-0.071,0H26.483  C11.873,512.018,0.018,500.198,0,485.588c0-0.026,0-0.044,0-0.071v-44.05"/>
<path style="fill:#2C2F38;" d="M308.966,485.517H203.034c-9.746-0.009-17.646-7.91-17.655-17.655v-8.828  c0-4.873,3.955-8.828,8.828-8.828s8.828,3.955,8.828,8.828v8.828h105.931v-8.828c0-4.873,3.955-8.828,8.828-8.828  c4.873,0,8.828,3.955,8.828,8.828v8.828C326.612,477.608,318.711,485.508,308.966,485.517z"/>
<g>
	<path style="fill:#556080;" d="M304.269,361.931h-96.538c-4.034-0.053-7.636,2.551-8.845,6.4l-13.144,44.138   c-1.298,4.749,1.501,9.64,6.241,10.937c0.847,0.23,1.73,0.335,2.604,0.309h122.827c4.917,0.141,9.022-3.734,9.163-8.651   c0.026-0.883-0.079-1.757-0.309-2.604l-13.144-44.138C311.905,364.482,308.303,361.878,304.269,361.931z"/>
	<polygon style="fill:#556080;" points="487.636,370.759 24.364,370.759 30.72,353.103 481.28,353.103  "/>
	<polygon style="fill:#556080;" points="148.401,35.31 79.448,106.77 79.448,79.413 122.006,35.31  "/>
	<polygon style="fill:#556080;" points="204.147,35.31 79.448,164.546 79.448,137.198 177.761,35.31  "/>
	<polygon style="fill:#556080;" points="259.902,35.31 79.448,222.323 79.448,194.975 233.516,35.31  "/>
	<polygon style="fill:#556080;" points="315.657,35.31 111.228,247.172 84.842,247.172 289.262,35.31  "/>
	<polygon style="fill:#556080;" points="371.412,35.31 166.983,247.172 140.588,247.172 345.017,35.31  "/>
	<polygon style="fill:#556080;" points="427.158,35.31 222.738,247.172 196.343,247.172 400.772,35.31  "/>
	<polygon style="fill:#556080;" points="432.552,60.151 432.552,87.508 278.484,247.172 252.098,247.172  "/>
	<polygon style="fill:#556080;" points="432.552,117.937 432.552,145.284 334.239,247.172 307.853,247.172  "/>
	<polygon style="fill:#556080;" points="432.552,175.713 432.552,203.07 389.994,247.172 363.599,247.172  "/>
</g>
<g>
</g>
<g>
</g>
<g>
</g>
<g>
</g>
<g>
</g>
<g>
</g>
<g>
</g>
<g>
</g>
<g>
</g>
<g>
</g>
<g>
</g>
<g>
</g>
<g>
</g>
<g>
</g>
<g>
</g>
</svg>
