<?xml version="1.0" encoding="iso-8859-1"?>
<!-- Generator: Adobe Illustrator 19.0.0, SVG Export Plug-In . SVG Version: 6.00 Build 0)  -->
<svg xmlns="http://www.w3.org/2000/svg" xmlns:xlink="http://www.w3.org/1999/xlink" version="1.1" id="Layer_1" x="0px" y="0px" viewBox="0 0 512 512" style="enable-background:new 0 0 512 512;" xml:space="preserve">
<g>
	<path style="fill:#464F5D;" d="M88.276,467.862h70.621l0,0v26.483c0,9.754-7.901,17.655-17.655,17.655h-35.31   c-9.754,0-17.655-7.901-17.655-17.655V467.862L88.276,467.862z"/>
	<path style="fill:#464F5D;" d="M353.103,467.862h70.621l0,0v26.483c0,9.754-7.901,17.655-17.655,17.655h-35.31   c-9.754,0-17.655-7.901-17.655-17.655V467.862L353.103,467.862z"/>
</g>
<path style="fill:#7F8C8D;" d="M70.621,0h370.759c9.754,0,17.655,7.901,17.655,17.655v441.379c0,9.754-7.901,17.655-17.655,17.655  H70.621c-9.754,0-17.655-7.901-17.655-17.655V17.655C52.966,7.901,60.866,0,70.621,0z"/>
<path style="fill:#3F5C6C;" d="M105.931,52.966h300.138c9.754,0,17.655,7.901,17.655,17.655v88.276  c0,9.754-7.901,17.655-17.655,17.655H105.931c-9.754,0-17.655-7.901-17.655-17.655V70.621  C88.276,60.866,96.177,52.966,105.931,52.966z"/>
<path style="fill:#464F5D;" d="M105.931,176.552h300.138c9.754,0,17.655,7.901,17.655,17.655v88.276  c0,9.754-7.901,17.655-17.655,17.655H105.931c-9.754,0-17.655-7.901-17.655-17.655v-88.276  C88.276,184.452,96.177,176.552,105.931,176.552z"/>
<path style="fill:#3F5C6C;" d="M105.931,300.138h300.138c9.754,0,17.655,7.901,17.655,17.655v88.276  c0,9.754-7.901,17.655-17.655,17.655H105.931c-9.754,0-17.655-7.901-17.655-17.655v-88.276  C88.276,308.039,96.177,300.138,105.931,300.138z"/>
<g>
	<path style="fill:#547580;" d="M123.586,114.759c-4.873,0-8.828-3.955-8.828-8.828c0-2.339,0.927-4.582,2.586-6.241L135,82.035   c3.478-3.416,9.066-3.363,12.482,0.115c3.372,3.434,3.372,8.934,0,12.367l-17.655,17.655   C128.177,113.832,125.926,114.759,123.586,114.759z"/>
	<path style="fill:#547580;" d="M141.241,150.069c-4.873,0-8.828-3.955-8.828-8.828c0-2.339,0.927-4.582,2.586-6.241l52.966-52.966   c3.478-3.416,9.066-3.363,12.482,0.115c3.372,3.434,3.372,8.934,0,12.367l-52.966,52.966   C145.832,149.142,143.581,150.069,141.241,150.069z"/>
</g>
<circle style="fill:#84B5CB;" cx="256" cy="114.759" r="26.483"/>
<g>
	<path style="fill:#5E5F62;" d="M123.586,238.345c-4.873,0-8.828-3.955-8.828-8.828c0-2.339,0.927-4.582,2.586-6.241L135,205.621   c3.478-3.416,9.066-3.363,12.482,0.115c3.372,3.434,3.372,8.934,0,12.367l-17.655,17.655   C128.177,237.418,125.926,238.345,123.586,238.345z"/>
	<path style="fill:#5E5F62;" d="M141.241,273.655c-4.873,0-8.828-3.955-8.828-8.828c0-2.339,0.927-4.582,2.586-6.241l52.966-52.966   c3.478-3.416,9.066-3.363,12.482,0.115c3.372,3.434,3.372,8.934,0,12.367l-52.966,52.966   C145.832,272.728,143.581,273.655,141.241,273.655z"/>
</g>
<circle style="fill:#84B5CB;" cx="256" cy="238.345" r="26.483"/>
<g>
	<path style="fill:#547580;" d="M123.586,361.931c-4.873,0-8.828-3.955-8.828-8.828c0-2.339,0.927-4.582,2.586-6.241L135,329.207   c3.478-3.416,9.066-3.363,12.482,0.115c3.372,3.434,3.372,8.934,0,12.367l-17.655,17.655   C128.177,361.004,125.926,361.931,123.586,361.931z"/>
	<path style="fill:#547580;" d="M141.241,397.241c-4.873,0-8.828-3.955-8.828-8.828c0-2.339,0.927-4.582,2.586-6.241l52.966-52.966   c3.478-3.416,9.066-3.363,12.482,0.115c3.372,3.434,3.372,8.934,0,12.367l-52.966,52.966   C145.832,396.314,143.581,397.241,141.241,397.241z"/>
</g>
<circle style="fill:#84B5CB;" cx="256" cy="361.931" r="26.483"/>
<g>
</g>
<g>
</g>
<g>
</g>
<g>
</g>
<g>
</g>
<g>
</g>
<g>
</g>
<g>
</g>
<g>
</g>
<g>
</g>
<g>
</g>
<g>
</g>
<g>
</g>
<g>
</g>
<g>
</g>
</svg>
