<?xml version="1.0" encoding="iso-8859-1"?>
<!-- Generator: Adobe Illustrator 19.0.0, SVG Export Plug-In . SVG Version: 6.00 Build 0)  -->
<svg xmlns="http://www.w3.org/2000/svg" xmlns:xlink="http://www.w3.org/1999/xlink" version="1.1" id="Layer_1" x="0px" y="0px" viewBox="0 0 512 512" style="enable-background:new 0 0 512 512;" xml:space="preserve">
<path style="fill:#7F8C8D;" d="M70.621,0h370.759c9.754,0,17.655,7.901,17.655,17.655v476.69c0,9.754-7.901,17.655-17.655,17.655  H70.621c-9.754,0-17.655-7.901-17.655-17.655V17.655C52.966,7.901,60.866,0,70.621,0z"/>
<g>
	<path style="fill:#84B5CB;" d="M423.724,44.138v185.379c0,4.873-3.955,8.828-8.828,8.828H97.103c-4.873,0-8.828-3.955-8.828-8.828   V44.138c0-4.873,3.955-8.828,8.828-8.828h317.793C419.769,35.31,423.724,39.265,423.724,44.138z"/>
	<path style="fill:#84B5CB;" d="M423.724,282.483v185.379c0,4.873-3.955,8.828-8.828,8.828H97.103c-4.873,0-8.828-3.955-8.828-8.828   V282.483c0-4.873,3.955-8.828,8.828-8.828h317.793C419.769,273.655,423.724,277.61,423.724,282.483z"/>
</g>
<path style="fill:#FFFFFF;" d="M229.517,70.621h52.966c4.873,0,8.828,3.955,8.828,8.828v26.483c0,4.873-3.955,8.828-8.828,8.828  h-52.966c-4.873,0-8.828-3.955-8.828-8.828V79.448C220.69,74.575,224.644,70.621,229.517,70.621z"/>
<path style="fill:#2C3E50;" d="M285.422,203.034h-58.854c-8.324-0.221-14.901-7.124-14.716-15.448v-19.862  c0-4.873,3.955-8.828,8.828-8.828s8.828,3.955,8.828,8.828v17.655h52.966v-17.655c0-4.873,3.955-8.828,8.828-8.828  c4.873,0,8.828,3.955,8.828,8.828v19.862C300.323,195.911,293.747,202.814,285.422,203.034z"/>
<path style="fill:#FFFFFF;" d="M229.517,308.966h52.966c4.873,0,8.828,3.955,8.828,8.828v26.483c0,4.873-3.955,8.828-8.828,8.828  h-52.966c-4.873,0-8.828-3.955-8.828-8.828v-26.483C220.69,312.92,224.644,308.966,229.517,308.966z"/>
<path style="fill:#2C3E50;" d="M285.422,441.379h-58.854c-8.324-0.221-14.901-7.124-14.716-15.448v-19.862  c0-4.873,3.955-8.828,8.828-8.828s8.828,3.955,8.828,8.828v17.655h52.966v-17.655c0-4.873,3.955-8.828,8.828-8.828  c4.873,0,8.828,3.955,8.828,8.828v19.862C300.323,434.255,293.747,441.159,285.422,441.379z"/>
<g>
	<path style="fill:#B0D3F0;" d="M123.586,97.103c-4.873,0-8.828-3.955-8.828-8.828c0-2.339,0.927-4.582,2.586-6.241L135,64.38   c3.478-3.416,9.066-3.363,12.482,0.115c3.372,3.434,3.372,8.934,0,12.367l-17.655,17.655   C128.177,96.177,125.926,97.103,123.586,97.103z"/>
	<path style="fill:#B0D3F0;" d="M123.586,141.241c-4.873,0-8.828-3.955-8.828-8.828c0-2.339,0.927-4.582,2.586-6.241l61.793-61.793   c3.478-3.416,9.066-3.363,12.482,0.115c3.372,3.434,3.372,8.934,0,12.367l-61.793,61.793   C128.177,140.314,125.926,141.241,123.586,141.241z"/>
	<path style="fill:#B0D3F0;" d="M123.586,335.448c-4.873,0-8.828-3.955-8.828-8.828c0-2.339,0.927-4.582,2.586-6.241L135,302.724   c3.478-3.416,9.066-3.363,12.482,0.115c3.372,3.434,3.372,8.934,0,12.367l-17.655,17.655   C128.177,334.521,125.926,335.448,123.586,335.448z"/>
	<path style="fill:#B0D3F0;" d="M123.586,379.586c-4.873,0-8.828-3.955-8.828-8.828c0-2.339,0.927-4.582,2.586-6.241l61.793-61.793   c3.478-3.416,9.066-3.363,12.482,0.115c3.372,3.434,3.372,8.934,0,12.367L129.827,377   C128.177,378.659,125.926,379.586,123.586,379.586z"/>
</g>
<g>
</g>
<g>
</g>
<g>
</g>
<g>
</g>
<g>
</g>
<g>
</g>
<g>
</g>
<g>
</g>
<g>
</g>
<g>
</g>
<g>
</g>
<g>
</g>
<g>
</g>
<g>
</g>
<g>
</g>
</svg>
