<?xml version="1.0" encoding="iso-8859-1"?>
<!-- Generator: Adobe Illustrator 19.0.0, SVG Export Plug-In . SVG Version: 6.00 Build 0)  -->
<svg xmlns="http://www.w3.org/2000/svg" xmlns:xlink="http://www.w3.org/1999/xlink" version="1.1" id="Capa_1" x="0px" y="0px" viewBox="0 0 409.6 409.6" style="enable-background:new 0 0 409.6 409.6;" xml:space="preserve">
<rect y="18.125" style="fill:#D5D6DB;" width="280.796" height="373.35"/>
<g>
	<rect x="29.732" y="216.371" style="fill:#3A556A;" width="221.338" height="21.473"/>
	<rect x="34.514" y="48.159" style="fill:#3A556A;" width="221.338" height="21.473"/>
	<rect x="34.514" y="89.452" style="fill:#3A556A;" width="221.338" height="21.473"/>
	<rect x="34.514" y="130.744" style="fill:#3A556A;" width="221.338" height="21.473"/>
	<rect x="34.514" y="173.691" style="fill:#3A556A;" width="221.338" height="21.473"/>
</g>
<g>
	<polygon style="fill:#DC8744;" points="216.508,325.029 205.435,375.878 249.707,349.022  "/>
	<polygon style="fill:#DC8744;" points="306.67,157.521 296.631,150.214 339.56,91.233 374.341,115.934 367.147,126.054    342.373,108.458  "/>
</g>
<rect x="289.769" y="110.24" transform="matrix(0.8105 0.5858 -0.5858 0.8105 193.7141 -138.08)" style="fill:#2F4859;" width="40.96" height="240.18"/>
<path style="fill:#DC8744;" d="M370.743,111.62c8.189-11.33,22.259-15.145,31.427-8.519c9.168,6.626,9.961,21.182,1.772,32.512"/>
<g>
	
		<rect x="363.479" y="122.526" transform="matrix(0.8105 0.5858 -0.5858 0.8105 147.9233 -200.5909)" style="fill:#D15241;" width="40.96" height="11.566"/>
	
		<rect x="216.016" y="326.57" transform="matrix(0.8105 0.5858 -0.5858 0.8105 239.4975 -75.5436)" style="fill:#D15241;" width="40.96" height="11.566"/>
</g>
<polygon style="fill:#2F4859;" points="205.435,375.878 219.915,367.094 209.086,359.111 "/>
<g>
</g>
<g>
</g>
<g>
</g>
<g>
</g>
<g>
</g>
<g>
</g>
<g>
</g>
<g>
</g>
<g>
</g>
<g>
</g>
<g>
</g>
<g>
</g>
<g>
</g>
<g>
</g>
<g>
</g>
</svg>
