<?xml version="1.0" encoding="iso-8859-1"?>
<!-- Generator: Adobe Illustrator 19.0.0, SVG Export Plug-In . SVG Version: 6.00 Build 0)  -->
<svg xmlns="http://www.w3.org/2000/svg" xmlns:xlink="http://www.w3.org/1999/xlink" version="1.1" id="Capa_1" x="0px" y="0px" viewBox="0 0 409.6 409.6" style="enable-background:new 0 0 409.6 409.6;" xml:space="preserve">
<g>
	<path style="fill:#3A556A;" d="M12.759,177.62h340.524c4.806,0,8.701,3.895,8.701,8.701c0,4.806-3.895,8.701-8.701,8.701H12.759"/>
	<path style="fill:#3A556A;" d="M186.147,111.441c-80.815,0-134.746-35.547-135.548-36.091l9.741-14.421   c1.115,0.761,113.741,74.486,256.005-0.483l8.116,15.396C273.828,102.522,226.613,111.441,186.147,111.441z"/>
	<path style="fill:#3A556A;" d="M315.496,309.847c-129.688-88.564-249.867-3.793-254.917-0.139l-10.217-14.084   c1.332-0.969,134.915-95.752,274.949-0.146L315.496,309.847z"/>
	<path style="fill:#3A556A;" d="M149.217,355.92C19.094,146.243,149.047,8.748,150.379,7.382l12.466,12.14l-6.233-6.07l6.247,6.06   c-5.023,5.193-121.579,129.477,1.149,327.232L149.217,355.92z"/>
	<rect x="177.554" y="8.704" style="fill:#3A556A;" width="17.403" height="347.377"/>
	<path style="fill:#3A556A;" d="M218.469,355.92l-14.791-9.177c122.728-197.754,6.172-322.039,1.149-327.232l12.48-12.13   C218.639,8.748,348.592,146.243,218.469,355.92z"/>
	<path style="fill:#3A556A;" d="M185.746,364.784c-99.596,0-180.628-81.821-180.628-182.392S86.15,0,185.746,0   s180.628,81.821,180.628,182.392S285.342,364.784,185.746,364.784z M185.746,17.401c-90.005,0-163.227,74.014-163.227,164.991   s73.222,164.991,163.227,164.991s163.227-74.014,163.227-164.991S275.751,17.401,185.746,17.401z"/>
</g>
<path style="fill:#E56353;" d="M400.214,235.918c-0.283-2.235-1.959-4.07-3.783-4.098l-32.869-0.51  c-3.578-9.106-8.334-17.538-14.118-25.131l14.851-28.644c0.84-1.62,0.02-3.965-1.815-5.274l-27.447-19.575  c-1.835-1.308-4.32-1.32-5.578,0.001l-20.342,21.372c-9.565-4.344-19.827-7.267-30.533-8.577l-8.049-29.546  c-0.48-1.76-2.673-2.93-4.908-2.649l-33.45,4.195c-2.236,0.28-4.073,1.955-4.102,3.779l-0.503,30.618  c-9.532,3.711-18.319,8.724-26.194,14.839l-26.442-14.872c-1.591-0.895-3.963-0.154-5.333,1.635l-20.496,26.766  c-1.371,1.789-1.467,4.272-0.189,5.574l20.829,21.221c-4.167,9.333-6.987,19.317-8.283,29.725l-31.133,8.967  c-1.754,0.505-2.891,2.715-2.577,4.946l4.679,33.386c0.313,2.231,2.014,4.043,3.838,4.046l31.635,0.061  c3.714,9.488,8.719,18.235,14.818,26.076l-17.032,28.309c-0.941,1.564-0.27,3.956,1.478,5.378l26.155,21.272  c1.747,1.421,4.227,1.591,5.565,0.351l25.148-23.278c8.95,3.881,18.485,6.52,28.406,7.782l8.947,32.845  c0.479,1.76,2.673,2.93,4.907,2.649l33.451-4.195c2.235-0.28,4.072-1.955,4.102-3.779l0.558-34.036  c9.293-3.669,17.871-8.573,25.58-14.536l26.955,16.507c1.555,0.953,3.954,0.3,5.389-1.436l21.475-25.986  c1.436-1.737,1.625-4.215,0.396-5.564l-22.238-24.405c4.047-9.173,6.791-18.968,8.073-29.171l31.756-8.681  c1.76-0.481,2.927-2.675,2.645-4.911L400.214,235.918z"/>
<g transform="matrix(0.99223 -0.12445 0.12445 0.99223 -7.32 8.204)">
	
		<ellipse transform="matrix(-0.9922 -0.1244 0.1244 -0.9922 438.4252 614.4835)" style="fill:#EBF0F3;" cx="238.405" cy="293.548" rx="70.001" ry="70.001"/>
	
		<ellipse transform="matrix(-0.9922 -0.1244 0.1244 -0.9922 438.4252 614.4835)" style="fill:#E56353;" cx="238.405" cy="293.548" rx="41.318" ry="41.318"/>
</g>
<g>
</g>
<g>
</g>
<g>
</g>
<g>
</g>
<g>
</g>
<g>
</g>
<g>
</g>
<g>
</g>
<g>
</g>
<g>
</g>
<g>
</g>
<g>
</g>
<g>
</g>
<g>
</g>
<g>
</g>
</svg>
