<?xml version="1.0" encoding="iso-8859-1"?>
<!-- Generator: Adobe Illustrator 19.0.0, SVG Export Plug-In . SVG Version: 6.00 Build 0)  -->
<svg xmlns="http://www.w3.org/2000/svg" xmlns:xlink="http://www.w3.org/1999/xlink" version="1.1" id="Capa_1" x="0px" y="0px" viewBox="0 0 408.639 408.639" style="enable-background:new 0 0 408.639 408.639;" xml:space="preserve">
<g>
	<path style="fill:#31978C;" d="M6.926,185.94h308.682c4.356,0,7.887,3.531,7.887,7.887c0,4.356-3.531,7.887-7.887,7.887H6.926"/>
	<path style="fill:#31978C;" d="M164.101,125.949c-73.258,0-122.145-32.223-122.872-32.716l8.83-13.072   c1.011,0.69,103.105,67.521,232.066-0.437l7.357,13.956C243.582,117.864,200.782,125.949,164.101,125.949z"/>
	<path style="fill:#31978C;" d="M281.354,305.802c-117.561-80.282-226.502-3.438-231.08-0.126l-9.261-12.767   c1.208-0.878,122.299-86.798,249.239-0.132L281.354,305.802z"/>
	<path style="fill:#31978C;" d="M130.624,347.567c-117.955-190.07-0.154-314.708,1.054-315.946l11.301,11.005l-5.65-5.502   l5.663,5.493c-4.554,4.708-110.21,117.37,1.041,296.632L130.624,347.567z"/>
	<rect x="156.315" y="32.82" style="fill:#31978C;" width="15.775" height="314.88"/>
	<path style="fill:#31978C;" d="M193.4,347.567l-13.408-8.318c111.251-179.262,5.595-291.925,1.041-296.632l11.313-10.996   C193.555,32.859,311.356,157.497,193.4,347.567z"/>
	<path style="fill:#31978C;" d="M163.738,355.602C73.455,355.602,0,281.432,0,190.266S73.455,24.929,163.738,24.929   s163.738,74.17,163.738,165.337S254.02,355.602,163.738,355.602z M163.738,40.703c-81.588,0-147.963,67.093-147.963,149.562   s66.375,149.562,147.963,149.562s147.963-67.093,147.963-149.562S245.326,40.703,163.738,40.703z"/>
</g>
<rect x="292.079" y="240.426" transform="matrix(-0.7935 0.6086 -0.6086 -0.7935 702.5251 271.2349)" style="fill:#E1E6E9;" width="26.332" height="28.764"/>
<path style="fill:#D15241;" d="M401.255,379.99L401.255,379.99c-10.999,8.435-29.072,1.907-39.529-13.36l-61.083-90.177  l26.704-20.48l71.255,82.375C410.634,352.407,412.253,371.555,401.255,379.99z"/>
<g transform="matrix(0.7935 -0.60857 0.60857 0.7935 -16.613 45.891)">
	
		<ellipse transform="matrix(-0.7935 -0.6086 0.6086 -0.7935 53.6572 575.1331)" style="fill:#64798A;" cx="124.405" cy="278.463" rx="81.208" ry="81.208"/>
	
		<ellipse transform="matrix(-0.7935 -0.6086 0.6086 -0.7935 53.6572 575.1331)" style="fill:#D5D6DB;" cx="124.405" cy="278.463" rx="56.474" ry="56.474"/>
</g>
<circle style="fill:#3A556A;" cx="251.557" cy="166.841" r="18.821"/>
<path style="fill:#2F4859;" d="M283.402,225.129c4.345,0,7.644-3.997,6.74-8.246c-3.792-17.84-19.636-31.223-38.606-31.223  s-34.814,13.383-38.606,31.223c-0.903,4.25,2.396,8.246,6.74,8.246H283.402z"/>
<path style="fill:#3A556A;" d="M212.93,216.883c3.792-17.84,19.636-31.223,38.606-31.223v39.469H219.67  C215.325,225.129,212.026,221.133,212.93,216.883z"/>
<path style="fill:#2F4859;" d="M251.536,185.66c10.394,0,18.819-8.426,18.819-18.819c0-10.394-8.426-18.819-18.819-18.819V185.66z"/>
<g>
</g>
<g>
</g>
<g>
</g>
<g>
</g>
<g>
</g>
<g>
</g>
<g>
</g>
<g>
</g>
<g>
</g>
<g>
</g>
<g>
</g>
<g>
</g>
<g>
</g>
<g>
</g>
<g>
</g>
</svg>
