<?xml version="1.0" encoding="iso-8859-1"?>
<!-- Generator: Adobe Illustrator 19.0.0, SVG Export Plug-In . SVG Version: 6.00 Build 0)  -->
<svg xmlns="http://www.w3.org/2000/svg" xmlns:xlink="http://www.w3.org/1999/xlink" version="1.1" id="Capa_1" x="0px" y="0px" viewBox="0 0 410.661 410.661" style="enable-background:new 0 0 410.661 410.661;" xml:space="preserve">
<path style="fill:#3EA69B;" d="M175.142,410.661c-91.512,0-165.967-75.179-165.967-167.587S83.631,75.487,175.142,75.487  s165.966,75.179,165.966,167.587S266.654,410.661,175.142,410.661z"/>
<path style="fill:#D5D6DB;" d="M175.142,91.476c-82.699,0-149.978,68.006-149.978,151.598s67.278,151.598,149.978,151.598  S325.12,326.666,325.12,243.074S257.842,91.476,175.142,91.476z"/>
<g>
	<path style="fill:#3EA69B;" d="M16.196,238.69H329.08c4.416,0,7.994,3.579,7.994,7.994c0,4.416-3.579,7.994-7.994,7.994H16.196"/>
	<path style="fill:#3EA69B;" d="M175.511,177.882c-74.255,0-123.808-32.662-124.545-33.161l8.95-13.25   c1.024,0.7,104.509,68.44,235.225-0.443l7.457,14.146C256.074,169.687,212.691,177.882,175.511,177.882z"/>
	<path style="fill:#3EA69B;" d="M294.36,360.184c-119.161-81.375-229.585-3.485-234.226-0.128l-9.387-12.941   c1.224-0.89,123.964-87.98,252.632-0.134L294.36,360.184z"/>
	<path style="fill:#3EA69B;" d="M141.578,402.517C22.017,209.86,141.422,83.525,142.646,82.27l11.455,11.155l-5.727-5.577   l5.74,5.568c-4.616,4.772-111.71,118.968,1.056,300.67L141.578,402.517z"/>
	<rect x="167.616" y="83.475" style="fill:#3EA69B;" width="15.99" height="319.181"/>
	<path style="fill:#3EA69B;" d="M205.209,402.517l-13.591-8.432c112.766-181.702,5.671-295.899,1.056-300.67l11.467-11.145   C205.365,83.525,324.77,209.86,205.209,402.517z"/>
</g>
<g>
	<path style="fill:#3A556A;" d="M349.959,44.57l0.74-9.54c16.961,1.317,32.095,10.198,41.536,24.311   c8.546,12.802,11.341,28.722,7.67,43.679l-9.293-2.281c3.033-12.357,0.724-25.509-6.336-36.085   C376.492,53.013,363.973,45.658,349.959,44.57z"/>
	<path style="fill:#3A556A;" d="M347.32,64.845l0.74-9.54c10.904,0.846,20.62,6.552,26.701,15.629   c5.493,8.228,7.291,18.462,4.931,28.078l-9.293-2.281c1.722-7.016,0.41-14.481-3.597-20.484   C362.386,69.616,355.278,65.462,347.32,64.845z"/>
	<path style="fill:#3A556A;" d="M338.136,81.423l0.74-9.54c7.618,0.592,14.421,4.569,18.655,10.919   c3.838,5.75,5.094,12.901,3.446,19.617l-9.293-2.279c1.01-4.119,0.241-8.502-2.112-12.026   C346.972,84.206,342.807,81.787,338.136,81.423z"/>
</g>
<path style="fill:#E56353;" d="M277.532,86.373l-41.978,33.215c-2.864,2.266-7.023,1.782-9.29-1.083l-59.006-74.573  c-2.266-2.864-1.782-7.023,1.083-9.29l41.978-33.215c2.864-2.266,7.023-1.782,9.29,1.083l59.006,74.573  C280.881,79.947,280.396,84.106,277.532,86.373z"/>
<path style="fill:#D15241;" d="M257.86,101.938l-22.389,17.715c-2.818,2.23-6.911,1.753-9.141-1.065l-59.137-74.739  c-2.23-2.818-1.753-6.911,1.065-9.141l22.389-17.715L257.86,101.938z"/>
<path style="fill:#FCD462;" d="M288.242,183.368l46.662-36.922l-48.456-61.24l-46.662,36.922c-3.141,2.486-3.673,7.047-1.187,10.189  l39.455,49.863C280.539,185.322,285.101,185.854,288.242,183.368z"/>
<path style="fill:#F6C358;" d="M260.108,106.048L239.695,122.2c-3.091,2.446-3.614,6.935-1.168,10.026l39.599,50.045  c2.446,3.091,6.935,3.614,10.026,1.168l20.413-16.152L260.108,106.048z"/>
<polygon style="fill:#FCD462;" points="273.175,176.016 257.99,183.213 232.98,151.605 243.476,138.482 "/>
<g>
	
		<rect x="231.154" y="101.85" transform="matrix(-0.7842 0.6205 -0.6205 -0.7842 526.3546 25.2625)" style="fill:#64798A;" width="55.26" height="4.618"/>
	
		<rect x="282.476" y="166.72" transform="matrix(-0.7842 0.6205 -0.6205 -0.7842 658.1752 109.1573)" style="fill:#64798A;" width="55.26" height="4.618"/>
</g>
<path style="fill:#E56353;" d="M398.933,239.801l-41.978,33.215c-2.864,2.266-7.023,1.782-9.29-1.083l-59.006-74.573  c-2.266-2.864-1.782-7.023,1.083-9.29l41.978-33.215c2.864-2.266,7.023-1.782,9.29,1.083l59.006,74.573  C402.282,233.375,401.797,237.535,398.933,239.801z"/>
<path style="fill:#D15241;" d="M379.261,255.366l-22.389,17.715c-2.818,2.23-6.911,1.753-9.141-1.065l-59.137-74.739  c-2.23-2.818-1.753-6.911,1.065-9.141l22.389-17.715L379.261,255.366z"/>
<path style="fill:#64798A;" d="M352.855,132.486c-9.849,7.793-28.593,0.512-41.866-16.263c-13.273-16.774-16.049-36.69-6.2-44.483"/>
<ellipse transform="matrix(-0.6205 -0.7842 0.7842 -0.6205 452.7398 423.3389)" style="fill:#3A556A;" cx="328.801" cy="102.124" rx="38.733" ry="3.087"/>
<g>
</g>
<g>
</g>
<g>
</g>
<g>
</g>
<g>
</g>
<g>
</g>
<g>
</g>
<g>
</g>
<g>
</g>
<g>
</g>
<g>
</g>
<g>
</g>
<g>
</g>
<g>
</g>
<g>
</g>
</svg>
