<?xml version="1.0" encoding="iso-8859-1"?>
<!-- Generator: Adobe Illustrator 19.0.0, SVG Export Plug-In . SVG Version: 6.00 Build 0)  -->
<svg xmlns="http://www.w3.org/2000/svg" xmlns:xlink="http://www.w3.org/1999/xlink" version="1.1" id="Capa_1" x="0px" y="0px" viewBox="0 0 409.6 409.6" style="enable-background:new 0 0 409.6 409.6;" xml:space="preserve">
<g>
	<path style="fill:#EBF0F3;" d="M326.831,198.351H8.143c-4.498,0-8.143-3.645-8.143-8.143c0-4.498,3.645-8.143,8.143-8.143h318.688   c4.498,0,8.143,3.645,8.143,8.143C334.973,194.706,331.328,198.351,326.831,198.351z"/>
	<path style="fill:#EBF0F3;" d="M170.413,120.129c-75.632,0-126.105-33.268-126.856-33.777l9.116-13.496   c1.043,0.712,106.448,69.71,239.588-0.452l7.596,14.409C252.471,111.783,208.283,120.129,170.413,120.129z"/>
	<path style="fill:#EBF0F3;" d="M291.467,305.813c-121.372-82.885-233.844-3.55-238.571-0.13l-9.561-13.181   c1.247-0.907,126.264-89.612,257.318-0.137L291.467,305.813z"/>
	<path style="fill:#EBF0F3;" d="M135.851,348.932C14.072,152.7,135.692,24.022,136.939,22.744l11.667,11.362l-5.834-5.681   l5.846,5.671c-4.701,4.86-113.783,121.175,1.075,306.248L135.851,348.932z"/>
	<rect x="162.371" y="23.982" style="fill:#EBF0F3;" width="16.287" height="325.12"/>
	<path style="fill:#EBF0F3;" d="M200.662,348.932l-13.843-8.588c114.858-185.073,5.776-301.388,1.075-306.248l11.68-11.352   C200.821,24.022,322.441,152.7,200.662,348.932z"/>
	<path style="fill:#EBF0F3;" d="M170.038,357.227c-93.209,0-169.045-76.574-169.045-170.696S76.828,15.835,170.038,15.835   s169.045,76.574,169.045,170.696S263.247,357.227,170.038,357.227z M170.038,32.121c-84.233,0-152.76,69.268-152.76,154.411   s68.527,154.411,152.76,154.411s152.76-69.268,152.76-154.411S254.271,32.121,170.038,32.121z"/>
</g>
<circle style="fill:#3EA69B;" cx="305.408" cy="239.887" r="49.679"/>
<path style="fill:#44C4A1;" d="M409.6,393.765c0-57.546-46.65-104.196-104.196-104.196s-104.196,46.65-104.196,104.196H409.6z"/>
<path style="fill:#3EA69B;" d="M201.209,393.765c0-57.546,46.65-104.196,104.196-104.196v104.196H201.209z"/>
<path style="fill:#44C4A1;" d="M305.404,289.569c27.438,0,49.681-22.243,49.681-49.681s-22.243-49.681-49.681-49.681V289.569z"/>
<g>
	<circle style="fill:#3A556A;" cx="305.408" cy="315.187" r="10.86"/>
	<circle style="fill:#3A556A;" cx="305.408" cy="344.627" r="10.86"/>
	<circle style="fill:#3A556A;" cx="305.408" cy="372.89" r="10.86"/>
</g>
<g>
</g>
<g>
</g>
<g>
</g>
<g>
</g>
<g>
</g>
<g>
</g>
<g>
</g>
<g>
</g>
<g>
</g>
<g>
</g>
<g>
</g>
<g>
</g>
<g>
</g>
<g>
</g>
<g>
</g>
</svg>
