<?xml version="1.0" encoding="iso-8859-1"?>
<!-- Generator: Adobe Illustrator 19.0.0, SVG Export Plug-In . SVG Version: 6.00 Build 0)  -->
<svg xmlns="http://www.w3.org/2000/svg" xmlns:xlink="http://www.w3.org/1999/xlink" version="1.1" id="Capa_1" x="0px" y="0px" viewBox="0 0 408.45 408.45" style="enable-background:new 0 0 408.45 408.45;" xml:space="preserve">
<g>
	<path style="fill:#D15241;" d="M8.289,199.048h369.423c5.214,0,9.439,4.225,9.439,9.439c0,5.214-4.225,9.439-9.439,9.439H8.289"/>
	<path style="fill:#D15241;" d="M196.392,127.252c-87.673,0-146.181-38.564-147.051-39.154l10.567-15.645   c1.209,0.826,123.394,80.808,277.731-0.524l8.805,16.703C291.514,117.577,240.292,127.252,196.392,127.252z"/>
	<path style="fill:#D15241;" d="M336.718,342.497c-140.694-96.08-271.072-4.115-276.551-0.151l-11.084-15.28   c1.445-1.051,146.365-103.878,298.283-0.159L336.718,342.497z"/>
	<path style="fill:#D15241;" d="M156.328,392.48c-141.166-227.471-0.184-376.635,1.261-378.117l13.524,13.171l-6.762-6.585   l6.777,6.574c-5.45,5.634-131.897,140.466,1.246,355.003L156.328,392.48z"/>
	<rect x="187.071" y="15.799" style="fill:#D15241;" width="18.877" height="376.832"/>
	<path style="fill:#D15241;" d="M231.457,392.48l-16.046-9.955c133.143-214.537,6.696-349.369,1.246-355.003l13.539-13.159   C231.642,15.845,372.623,165.008,231.457,392.48z"/>
	<path style="fill:#D15241;" d="M195.957,402.096C87.909,402.096,0,313.331,0,204.225S87.909,6.354,195.957,6.354   s195.957,88.764,195.957,197.871S304.006,402.096,195.957,402.096z M195.957,25.232c-97.643,0-177.079,80.295-177.079,178.993   s79.436,178.993,177.079,178.993s177.079-80.295,177.079-178.993S293.6,25.232,195.957,25.232z"/>
</g>
<path style="fill:#64798A;" d="M398.784,164.232H264.467c-5.338,0-9.665,4.327-9.665,9.665v213.438c0,5.338,4.327,9.665,9.665,9.665  h134.317c5.338,0,9.665-4.327,9.665-9.665V173.898C408.45,168.559,404.122,164.232,398.784,164.232z"/>
<path style="fill:#D5D6DB;" d="M388.92,185.763H274.331c-2.937,0-5.317,2.38-5.317,5.317v179.073c0,2.937,2.38,5.317,5.317,5.317  H388.92c2.936,0,5.317-2.38,5.317-5.317V191.08C394.237,188.144,391.856,185.763,388.92,185.763z"/>
<ellipse style="fill:#FFFFFF;" cx="327.144" cy="386.087" rx="6.799" ry="6.748"/>
<ellipse style="fill:#EBF0F3;" cx="327.144" cy="386.087" rx="5.217" ry="5.171"/>
<path style="fill:#D5D6DB;" d="M327.865,389.347h-1.458c-1.385,0-2.513-1.128-2.513-2.513v-1.488c0-1.385,1.128-2.513,2.513-2.513  h1.458c1.385,0,2.513,1.128,2.513,2.513v1.488C330.378,388.219,329.25,389.347,327.865,389.347z M326.407,383.673  c-0.924,0-1.674,0.75-1.674,1.674v1.488c0,0.924,0.75,1.674,1.674,1.674h1.458c0.924,0,1.674-0.75,1.674-1.674v-1.488  c0-0.924-0.75-1.674-1.674-1.674H326.407z"/>
<path style="fill:#FFFFFF;" d="M349.209,178.221h-35.168c-0.572,0-1.036-0.464-1.036-1.036v-0.984c0-0.572,0.464-1.036,1.036-1.036  h35.168c0.572,0,1.036,0.464,1.036,1.036v0.984C350.245,177.757,349.781,178.221,349.209,178.221z"/>
<circle style="fill:#3A556A;" cx="332.366" cy="275.828" r="21.55"/>
<path style="fill:#2F4859;" d="M287.159,342.566c0-24.959,20.233-45.192,45.193-45.192c24.959,0,45.192,20.233,45.192,45.192"/>
<g>
</g>
<g>
</g>
<g>
</g>
<g>
</g>
<g>
</g>
<g>
</g>
<g>
</g>
<g>
</g>
<g>
</g>
<g>
</g>
<g>
</g>
<g>
</g>
<g>
</g>
<g>
</g>
<g>
</g>
</svg>
