<?xml version="1.0" encoding="iso-8859-1"?>
<!-- Generator: Adobe Illustrator 19.0.0, SVG Export Plug-In . SVG Version: 6.00 Build 0)  -->
<svg xmlns="http://www.w3.org/2000/svg" xmlns:xlink="http://www.w3.org/1999/xlink" version="1.1" id="Capa_1" x="0px" y="0px" viewBox="0 0 408.541 408.541" style="enable-background:new 0 0 408.541 408.541;" xml:space="preserve">
<g>
	<path style="fill:#EBF0F3;" d="M7.629,199.506h340.005c4.798,0,8.687,3.889,8.687,8.687s-3.889,8.687-8.687,8.687H7.629"/>
	<path style="fill:#EBF0F3;" d="M180.753,133.427c-80.691,0-134.54-35.493-135.341-36.036l9.726-14.399   c1.113,0.76,113.568,74.373,255.614-0.482l8.104,15.373C268.299,124.523,221.156,133.427,180.753,133.427z"/>
	<path style="fill:#EBF0F3;" d="M309.904,331.531c-129.49-88.429-249.486-3.787-254.528-0.139l-10.201-14.063   c1.33-0.967,134.71-95.606,274.53-0.146L309.904,331.531z"/>
	<path style="fill:#EBF0F3;" d="M143.879,377.534c-129.925-209.357-0.17-346.642,1.161-348.007l12.447,12.122l-6.224-6.061   l6.237,6.051c-5.016,5.185-121.393,129.28,1.147,326.732L143.879,377.534z"/>
	<rect x="172.176" y="30.856" style="fill:#EBF0F3;" width="17.377" height="346.844"/>
	<path style="fill:#EBF0F3;" d="M213.025,377.534l-14.769-9.163c122.54-197.453,6.163-321.547,1.147-326.732l12.461-12.112   C213.195,30.892,342.95,168.177,213.025,377.534z"/>
	<path style="fill:#EBF0F3;" d="M180.353,386.384C80.909,386.384,0,304.689,0,204.271S80.909,22.157,180.353,22.157   s180.353,81.696,180.353,182.114S279.797,386.384,180.353,386.384z M180.353,39.532c-89.867,0-162.978,73.901-162.978,164.739   S90.485,369.01,180.353,369.01S343.33,295.109,343.33,204.271S270.22,39.532,180.353,39.532z"/>
</g>
<rect x="212.635" y="171.876" style="fill:#FCD462;" width="164.762" height="140.513"/>
<rect x="212.635" y="171.876" style="fill:#F6C358;" width="83.108" height="140.513"/>
<polygon style="fill:#64798A;" points="408.541,173.767 296.698,96.156 180.279,173.767 "/>
<rect x="259.452" y="206.728" style="fill:#3A556A;" width="71.142" height="84.081"/>
<g>
</g>
<g>
</g>
<g>
</g>
<g>
</g>
<g>
</g>
<g>
</g>
<g>
</g>
<g>
</g>
<g>
</g>
<g>
</g>
<g>
</g>
<g>
</g>
<g>
</g>
<g>
</g>
<g>
</g>
</svg>
