<?xml version="1.0" encoding="iso-8859-1"?>
<!-- Generator: Adobe Illustrator 19.0.0, SVG Export Plug-In . SVG Version: 6.00 Build 0)  -->
<svg xmlns="http://www.w3.org/2000/svg" xmlns:xlink="http://www.w3.org/1999/xlink" version="1.1" id="Capa_1" x="0px" y="0px" viewBox="0 0 409.585 409.585" style="enable-background:new 0 0 409.585 409.585;" xml:space="preserve">
<g>
	<path style="fill:#3A556A;" d="M374.077,218.193H32.991c-4.814,0-8.715-3.901-8.715-8.715c0-4.814,3.901-8.715,8.715-8.715h341.087   c4.814,0,8.715,3.901,8.715,8.715C382.792,214.291,378.891,218.193,374.077,218.193z"/>
	<path style="fill:#3A556A;" d="M206.666,134.473c-80.948,0-134.968-35.606-135.772-36.151l9.757-14.445   c1.117,0.763,113.929,74.609,256.428-0.483l8.13,15.422C294.491,125.54,247.198,134.473,206.666,134.473z"/>
	<path style="fill:#3A556A;" d="M336.228,333.208c-129.902-88.71-250.28-3.799-255.338-0.14l-10.233-14.108   c1.334-0.97,135.138-95.91,275.404-0.146L336.228,333.208z"/>
	<path style="fill:#3A556A;" d="M169.674,379.357c-130.338-210.023-0.17-347.746,1.164-349.114l12.487,12.16l-6.244-6.08l6.257,6.07   c-5.032,5.202-121.78,129.691,1.151,327.772L169.674,379.357z"/>
	<rect x="198.062" y="31.59" style="fill:#3A556A;" width="17.428" height="347.95"/>
	<path style="fill:#3A556A;" d="M239.041,379.357l-14.816-9.192c122.93-198.081,6.182-322.571,1.151-327.772l12.501-12.15   C239.211,31.611,369.379,169.334,239.041,379.357z"/>
	<path style="fill:#3A556A;" d="M206.264,388.236c-99.76,0-180.927-81.956-180.927-182.693S106.504,22.849,206.264,22.849   s180.927,81.956,180.927,182.693S306.025,388.236,206.264,388.236z M206.264,40.279c-90.153,0-163.496,74.136-163.496,165.263   s73.343,165.263,163.496,165.263s163.496-74.136,163.496-165.263S296.418,40.279,206.264,40.279z"/>
</g>
<circle style="fill:#E56353;" cx="203.535" cy="209.48" r="30.244"/>
<circle style="fill:#EBF0F3;" cx="375.444" cy="209.48" r="30.244"/>
<circle style="fill:#44C4A1;" cx="34.14" cy="204.8" r="30.244"/>
<circle style="fill:#27A2DB;" cx="206.792" cy="30.244" r="30.244"/>
<circle style="fill:#DC8744;" cx="206.792" cy="379.341" r="30.244"/>
<g>
</g>
<g>
</g>
<g>
</g>
<g>
</g>
<g>
</g>
<g>
</g>
<g>
</g>
<g>
</g>
<g>
</g>
<g>
</g>
<g>
</g>
<g>
</g>
<g>
</g>
<g>
</g>
<g>
</g>
</svg>
