<?xml version="1.0" encoding="iso-8859-1"?>
<!-- Generator: Adobe Illustrator 19.0.0, SVG Export Plug-In . SVG Version: 6.00 Build 0)  -->
<svg xmlns="http://www.w3.org/2000/svg" xmlns:xlink="http://www.w3.org/1999/xlink" version="1.1" id="Capa_1" x="0px" y="0px" viewBox="0 0 409.6 409.6" style="enable-background:new 0 0 409.6 409.6;" xml:space="preserve">
<g>
	<path style="fill:#EBF0F3;" d="M365.106,280.682H106.51c-3.65,0-6.607-2.958-6.607-6.607c0-3.65,2.958-6.607,6.607-6.607h258.596   c3.65,0,6.607,2.958,6.607,6.607C371.713,277.724,368.755,280.682,365.106,280.682z"/>
	<path style="fill:#EBF0F3;" d="M238.182,217.21c-61.371,0-102.326-26.995-102.935-27.408l7.397-10.951   c0.847,0.578,86.376,56.565,194.411-0.367l6.163,11.692C304.767,210.437,268.912,217.21,238.182,217.21z"/>
	<path style="fill:#EBF0F3;" d="M336.41,367.881c-98.486-67.256-189.75-2.88-193.585-0.106l-7.758-10.696   c1.012-0.736,102.455-72.715,208.798-0.111L336.41,367.881z"/>
	<path style="fill:#EBF0F3;" d="M210.137,402.869c-98.816-159.23-0.129-263.644,0.883-264.682l9.467,9.219l-4.734-4.61l4.744,4.602   c-3.815,3.944-92.328,98.326,0.872,248.501L210.137,402.869z"/>
	<rect x="231.68" y="139.213" style="fill:#EBF0F3;" width="13.215" height="263.782"/>
	<path style="fill:#EBF0F3;" d="M262.728,402.869l-11.232-6.969c93.2-150.176,4.687-244.558,0.872-248.501l9.477-9.212   C262.857,139.225,361.544,243.639,262.728,402.869z"/>
	<path style="fill:#EBF0F3;" d="M237.878,409.6c-75.634,0-137.17-62.135-137.17-138.509s61.536-138.509,137.17-138.509   s137.17,62.135,137.17,138.509S313.511,409.6,237.878,409.6z M237.878,145.796c-68.35,0-123.955,56.206-123.955,125.295   s55.605,125.295,123.955,125.295s123.955-56.206,123.955-125.295S306.228,145.796,237.878,145.796z"/>
</g>
<rect x="34.555" y="130.171" style="fill:#44C4A1;" width="235.279" height="86.897"/>
<path style="fill:#E1E6E9;" d="M34.552,235.999c0,4.95,4.013,8.963,8.963,8.963H260.87c4.95,0,8.963-4.013,8.963-8.963v-18.929  H34.552V235.999z"/>
<path style="fill:#3EA69B;" d="M93.31,179.008c0,14.523,5.283,27.796,13.999,38.063h89.768c8.716-10.267,13.999-23.54,13.999-38.063  c0-20.331-10.305-38.255-25.975-48.835h-65.816C103.614,140.753,93.31,158.677,93.31,179.008z"/>
<path style="fill:#D5D6DB;" d="M152.193,237.89c17.997,0,34.083-8.096,44.884-20.819h-89.768  C118.11,229.794,134.196,237.89,152.193,237.89z"/>
<path style="fill:#2F4859;" d="M77.895,92.308H52.48c-1.147,0-2.076,0.93-2.076,2.076v7.392h29.567v-7.392  C79.971,93.238,79.041,92.308,77.895,92.308z"/>
<path style="fill:#D5D6DB;" d="M186.883,79.536c-1.027-2.424-3.405-3.999-6.038-3.999H123.54c-2.633,0-5.01,1.575-6.038,3.999  l-10.727,25.315h90.835L186.883,79.536z"/>
<path style="fill:#E1E6E9;" d="M269.833,109.396c0-4.95-4.013-8.963-8.963-8.963H43.515c-4.95,0-8.963,4.013-8.963,8.963v20.777  h235.281V109.396z"/>
<circle style="fill:#64798A;" cx="152.192" cy="172.027" r="58.885"/>
<circle style="fill:#3A556A;" cx="152.192" cy="172.027" r="42.778"/>
<circle style="fill:#64798A;" cx="152.192" cy="172.027" r="26.312"/>
<circle style="fill:#27A2DB;" cx="152.192" cy="172.027" r="13.727"/>
<g>
	<circle style="fill:#FFFFFF;" cx="161.326" cy="162.893" r="3.092"/>
	<circle style="fill:#FFFFFF;" cx="143.186" cy="181.043" r="2.427"/>
</g>
<path style="fill:#3A556A;" d="M172.622,85.797h-40.859c-2.428,0-4.397,1.968-4.397,4.397c0,2.428,1.969,4.397,4.397,4.397h40.859  c2.428,0,4.397-1.969,4.397-4.397C177.019,87.765,175.05,85.797,172.622,85.797z"/>
<g>
	<path style="fill:#2F4859;" d="M343.178,96.763l15.417,1.597c2.839-27.41-6.907-54.11-26.647-73.263   C314.036,7.752,289.482-1.336,264.579,0.159l0.93,15.472c20.573-1.236,40.858,6.273,55.655,20.601   C337.448,52.026,345.523,74.115,343.178,96.763z"/>
	<path style="fill:#2F4859;" d="M310.103,95.065l15.417,1.597c1.826-17.622-4.438-34.764-17.132-47.097   c-11.512-11.149-27.296-16.992-43.305-16.031l0.93,15.472c11.68-0.701,23.195,3.562,31.593,11.695   C306.885,69.669,311.435,82.205,310.103,95.065z"/>
	<path style="fill:#2F4859;" d="M281.012,104.874l15.417,1.597c1.274-12.311-3.082-24.31-11.968-32.904   c-8.045-7.79-19.074-11.873-30.256-11.202l0.926,15.471c6.857-0.411,13.617,2.092,18.547,6.866   C279.15,89.984,281.793,97.325,281.012,104.874z"/>
</g>
<g>
</g>
<g>
</g>
<g>
</g>
<g>
</g>
<g>
</g>
<g>
</g>
<g>
</g>
<g>
</g>
<g>
</g>
<g>
</g>
<g>
</g>
<g>
</g>
<g>
</g>
<g>
</g>
<g>
</g>
</svg>
