<?xml version="1.0" encoding="iso-8859-1"?>
<!-- Generator: Adobe Illustrator 19.0.0, SVG Export Plug-In . SVG Version: 6.00 Build 0)  -->
<svg xmlns="http://www.w3.org/2000/svg" xmlns:xlink="http://www.w3.org/1999/xlink" version="1.1" id="Capa_1" x="0px" y="0px" viewBox="0 0 409.58 409.58" style="enable-background:new 0 0 409.58 409.58;" xml:space="preserve">
<rect x="63.636" y="181.709" style="fill:#FCD462;" width="267.213" height="227.871"/>
<rect x="63.636" y="181.709" style="fill:#F6C358;" width="134.779" height="227.871"/>
<polygon style="fill:#64798A;" points="381.347,184.798 199.968,58.933 11.168,184.798 "/>
<g>
	<rect x="139.561" y="238.234" style="fill:#3A556A;" width="115.374" height="136.356"/>
	<path style="fill:#3A556A;" d="M306.437,15.877L306.3,0.003c28.221-0.243,54.502,12.277,72.12,34.257   c15.951,19.94,22.842,45.855,18.908,71.1l-15.685-2.445c3.251-20.856-2.442-42.266-15.62-58.738   C351.496,26.047,329.756,15.677,306.437,15.877z"/>
	<path style="fill:#3A556A;" d="M304.968,49.764l-0.137-15.874c18.144-0.157,35.015,7.888,46.362,22.024   c10.253,12.816,14.684,29.475,12.155,45.705l-15.685-2.445c1.845-11.841-1.387-23.994-8.867-33.343   C330.55,55.502,318.209,49.649,304.968,49.764z"/>
	<path style="fill:#3A556A;" d="M292.153,78.475l-0.137-15.874c12.675-0.108,24.488,5.494,32.391,15.386   c7.164,8.956,10.26,20.596,8.494,31.932l-15.685-2.441c1.082-6.952-0.815-14.086-5.206-19.575   C307.155,81.814,299.925,78.41,292.153,78.475z"/>
</g>
<g>
</g>
<g>
</g>
<g>
</g>
<g>
</g>
<g>
</g>
<g>
</g>
<g>
</g>
<g>
</g>
<g>
</g>
<g>
</g>
<g>
</g>
<g>
</g>
<g>
</g>
<g>
</g>
<g>
</g>
</svg>
