<?xml version="1.0" encoding="iso-8859-1"?>
<!-- Generator: Adobe Illustrator 19.0.0, SVG Export Plug-In . SVG Version: 6.00 Build 0)  -->
<svg xmlns="http://www.w3.org/2000/svg" xmlns:xlink="http://www.w3.org/1999/xlink" version="1.1" id="Capa_1" x="0px" y="0px" viewBox="0 0 409.605 409.605" style="enable-background:new 0 0 409.605 409.605;" xml:space="preserve">
<g>
	<rect x="194.972" y="196.096" style="fill:#DC8744;" width="19.666" height="213.509"/>
	<circle style="fill:#DC8744;" cx="204.803" cy="196.096" r="23.834"/>
</g>
<g>
	<path style="fill:#EBF0F3;" d="M370.338,165.535h-26.223c0-76.82-62.492-139.312-139.312-139.312S65.491,88.715,65.491,165.535   H39.267C39.267,74.259,113.526,0,204.803,0S370.338,74.259,370.338,165.535z"/>
	<path style="fill:#EBF0F3;" d="M301.501,155.42h-26.223c0-38.861-31.614-70.475-70.475-70.475s-70.475,31.614-70.475,70.475   h-26.223c0-53.318,43.381-96.699,96.699-96.699S301.501,102.102,301.501,155.42z"/>
	<path style="fill:#EBF0F3;" d="M255.61,165.535h-26.223c0-13.553-11.031-24.584-24.584-24.584s-24.584,11.031-24.584,24.584   h-26.223c0-28.016,22.792-50.808,50.808-50.808S255.61,137.519,255.61,165.535z"/>
</g>
<g>
</g>
<g>
</g>
<g>
</g>
<g>
</g>
<g>
</g>
<g>
</g>
<g>
</g>
<g>
</g>
<g>
</g>
<g>
</g>
<g>
</g>
<g>
</g>
<g>
</g>
<g>
</g>
<g>
</g>
</svg>
