<?xml version="1.0" encoding="iso-8859-1"?>
<!-- Generator: Adobe Illustrator 19.0.0, SVG Export Plug-In . SVG Version: 6.00 Build 0)  -->
<svg xmlns="http://www.w3.org/2000/svg" xmlns:xlink="http://www.w3.org/1999/xlink" version="1.1" id="Capa_1" x="0px" y="0px" viewBox="0 0 409.61 409.61" style="enable-background:new 0 0 409.61 409.61;" xml:space="preserve">
<path style="fill:#EBF0F3;" d="M387.259,26.507H75.346c-12.338,0-22.341,10.003-22.341,22.341v311.914  c0,12.338,10.003,22.341,22.341,22.341h311.914c12.339,0,22.341-10.003,22.341-22.341V48.848  C409.6,36.51,399.598,26.507,387.259,26.507z"/>
<path style="fill:#F6C358;" d="M372.689,296.755c7.496,0,13.188-6.896,11.629-14.228c-6.543-30.78-33.88-53.871-66.611-53.871  c-32.731,0-60.068,23.091-66.611,53.871c-1.559,7.332,4.133,14.228,11.629,14.228H372.689z"/>
<g>
	<path style="fill:#FCD462;" d="M251.096,282.527c6.543-30.78,33.88-53.871,66.611-53.871v68.1h-54.982   C255.229,296.755,249.537,289.859,251.096,282.527z"/>
	<path style="fill:#FCD462;" d="M350.283,189.634c0,17.991-14.585,40.235-32.576,40.235c-17.991,0-32.576-22.244-32.576-40.235   s14.585-32.576,32.576-32.576C335.698,157.058,350.283,171.643,350.283,189.634z"/>
</g>
<path style="fill:#F6C358;" d="M317.707,229.869c17.991,0,32.576-22.244,32.576-40.235s-14.585-32.576-32.576-32.576V229.869z"/>
<path style="fill:#D15241;" d="M0.023,186.598c0,0-3.832,124.008,87.775,179.382c0,0,83.028-35.876,89.267-179.382l-89.267-33.537  L0.023,186.598z"/>
<path style="fill:#E56353;" d="M87.798,365.98C-3.809,310.606,0.023,186.598,0.023,186.598l87.775-33.537V365.98z"/>
<path style="fill:#D5D6DB;" d="M26.284,208.234c0,0-2.695,87.214,61.732,126.159c0,0,58.393-25.232,62.781-126.159l-62.781-23.586  L26.284,208.234z"/>
<path style="fill:#E1E6E9;" d="M88.016,184.648l-61.732,23.586c0,0-2.695,87.214,61.732,126.159V184.648z"/>
<path style="fill:#64798A;" d="M409.6,48.848c0-12.338-10.002-22.341-22.341-22.341H75.346c-12.338,0-22.341,10.003-22.341,22.341  v29.937H409.6V48.848z"/>
<rect x="53.002" y="78.787" style="fill:#3A556A;" width="356.608" height="16.246"/>
<path style="fill:#FCD462;" d="M303.12,45.876c7.767,12.778-5.58,26.126-18.358,18.358c-1.137-0.691-2.133-1.687-2.824-2.824  c-7.767-12.778,5.58-26.126,18.358-18.358C301.433,43.744,302.428,44.739,303.12,45.876z"/>
<path style="fill:#44C4A1;" d="M338.007,45.876c7.767,12.778-5.58,26.126-18.358,18.358c-1.137-0.691-2.133-1.687-2.824-2.824  c-7.767-12.778,5.58-26.126,18.358-18.358C336.32,43.744,337.315,44.739,338.007,45.876z"/>
<path style="fill:#E56353;" d="M372.893,45.876c7.767,12.778-5.58,26.126-18.358,18.358c-1.137-0.691-2.133-1.687-2.824-2.824  c-7.767-12.778,5.58-26.126,18.358-18.358C371.206,43.744,372.202,44.739,372.893,45.876z"/>
<g>
</g>
<g>
</g>
<g>
</g>
<g>
</g>
<g>
</g>
<g>
</g>
<g>
</g>
<g>
</g>
<g>
</g>
<g>
</g>
<g>
</g>
<g>
</g>
<g>
</g>
<g>
</g>
<g>
</g>
</svg>
