<?xml version="1.0" encoding="iso-8859-1"?>
<!-- Generator: Adobe Illustrator 19.0.0, SVG Export Plug-In . SVG Version: 6.00 Build 0)  -->
<svg xmlns="http://www.w3.org/2000/svg" xmlns:xlink="http://www.w3.org/1999/xlink" version="1.1" id="Capa_1" x="0px" y="0px" viewBox="0 0 409.6 409.6" style="enable-background:new 0 0 409.6 409.6;" xml:space="preserve">
<path style="fill:#F6C358;" d="M314.387,409.6c0-41.243-49.064-74.678-109.587-74.678S95.214,368.356,95.214,409.6H314.387z"/>
<circle style="fill:#2D93BA;" cx="204.8" cy="194.427" r="194.427"/>
<path style="fill:#27A2DB;" d="M204.8,388.856c-107.38,0-194.428-87.048-194.428-194.428S97.421,0,204.8,0V388.856z"/>
<circle style="fill:#F6C358;" cx="204.8" cy="194.427" r="92.467"/>
<circle style="fill:#EBF0F3;" cx="204.8" cy="194.427" r="61.542"/>
<circle style="fill:#334D5C;" cx="204.8" cy="194.427" r="28.739"/>
<path style="fill:#2F4859;" d="M206.327,35.659h-3.052c-10.424,0-18.875,8.45-18.875,18.874s8.451,18.875,18.875,18.875h3.052  c10.425,0,18.874-8.45,18.874-18.875S216.751,35.659,206.327,35.659z"/>
<g>
</g>
<g>
</g>
<g>
</g>
<g>
</g>
<g>
</g>
<g>
</g>
<g>
</g>
<g>
</g>
<g>
</g>
<g>
</g>
<g>
</g>
<g>
</g>
<g>
</g>
<g>
</g>
<g>
</g>
</svg>
