<?xml version="1.0" encoding="iso-8859-1"?>
<!-- Generator: Adobe Illustrator 19.0.0, SVG Export Plug-In . SVG Version: 6.00 Build 0)  -->
<svg xmlns="http://www.w3.org/2000/svg" xmlns:xlink="http://www.w3.org/1999/xlink" version="1.1" id="Capa_1" x="0px" y="0px" viewBox="0 0 409.6 409.6" style="enable-background:new 0 0 409.6 409.6;" xml:space="preserve">
<rect x="75.837" y="71.414" style="fill:#44C4A1;" width="261.002" height="272.538"/>
<circle style="fill:#FFFFFF;" cx="205.21" cy="207.688" r="57.743"/>
<polygon style="fill:#E56353;" points="189.756,169.155 236.782,206.384 189.756,246.225 "/>
<path style="fill:#31978C;" d="M78.764,374.763H7.468c-4.124,0-7.468-3.344-7.468-7.468V42.305c0-4.124,3.344-7.468,7.468-7.468  h71.296c4.124,0,7.468,3.344,7.468,7.468v324.991C86.232,371.42,82.888,374.763,78.764,374.763z"/>
<g>
	<path style="fill:#D5D6DB;" d="M64.337,106.059H22.761V64.484h41.576V106.059z"/>
	<path style="fill:#D5D6DB;" d="M64.626,181.993H23.05v-41.576h41.576V181.993z"/>
	<path style="fill:#D5D6DB;" d="M64.626,259.948H23.05v-41.576h41.576V259.948z"/>
	<path style="fill:#D5D6DB;" d="M64.626,336.748H23.05v-41.576h41.576V336.748z"/>
</g>
<path style="fill:#31978C;" d="M399.892,374.763h-66.816c-5.362,0-9.708-4.346-9.708-9.708V44.545c0-5.362,4.346-9.708,9.708-9.708  h66.816c5.362,0,9.708,4.346,9.708,9.708v320.511C409.6,370.417,405.254,374.763,399.892,374.763z"/>
<g>
	<path style="fill:#D5D6DB;" d="M384.962,105.771h-41.576V64.195h41.576V105.771z"/>
	<path style="fill:#D5D6DB;" d="M384.962,181.993h-41.576v-41.576h41.576V181.993z"/>
	<path style="fill:#D5D6DB;" d="M384.962,259.948h-41.576v-41.576h41.576V259.948z"/>
	<path style="fill:#D5D6DB;" d="M384.962,336.748h-41.576v-41.576h41.576V336.748z"/>
</g>
<g>
</g>
<g>
</g>
<g>
</g>
<g>
</g>
<g>
</g>
<g>
</g>
<g>
</g>
<g>
</g>
<g>
</g>
<g>
</g>
<g>
</g>
<g>
</g>
<g>
</g>
<g>
</g>
<g>
</g>
</svg>
