<?xml version="1.0" encoding="iso-8859-1"?>
<!-- Generator: Adobe Illustrator 19.0.0, SVG Export Plug-In . SVG Version: 6.00 Build 0)  -->
<svg xmlns="http://www.w3.org/2000/svg" xmlns:xlink="http://www.w3.org/1999/xlink" version="1.1" id="Capa_1" x="0px" y="0px" viewBox="0 0 409.6 409.6" style="enable-background:new 0 0 409.6 409.6;" xml:space="preserve">
<g>
	
		<rect x="138.059" y="127.821" transform="matrix(-0.8562 0.5166 -0.5166 -0.8562 525.1869 131.5424)" style="fill:#DC8744;" width="212.459" height="22.067"/>
	
		<rect x="233.281" y="169.474" transform="matrix(-0.5165 0.8563 -0.8563 -0.5165 606.583 208.8973)" style="fill:#DC8744;" width="22.067" height="212.459"/>
</g>
<circle style="fill:#D15241;" cx="104.238" cy="193.732" r="104.238"/>
<circle style="fill:#FCD462;" cx="340.941" cy="82.034" r="68.644"/>
<circle style="fill:#3EA69B;" cx="335.258" cy="327.563" r="68.644"/>
<path style="fill:#E56353;" d="M104.238,297.971c57.569,0,104.238-46.669,104.238-104.238S161.807,89.495,104.238,89.495V297.971z"/>
<path style="fill:#F6C358;" d="M340.954,150.704c37.912,0,68.646-30.734,68.646-68.646s-30.734-68.646-68.646-68.646V150.704z"/>
<path style="fill:#31978C;" d="M335.255,396.21c37.912,0,68.646-30.734,68.646-68.646s-30.734-68.646-68.646-68.646V396.21z"/>
<circle style="fill:#3A556A;" cx="104.238" cy="150.283" r="30.925"/>
<path style="fill:#2F4859;" d="M39.331,246.115c0-35.847,29.06-64.907,64.907-64.907s64.907,29.06,64.907,64.907"/>
<circle style="fill:#3A556A;" cx="340.941" cy="55.83" r="17.859"/>
<path style="fill:#2F4859;" d="M303.503,111.136c0-20.684,16.768-37.451,37.451-37.451s37.451,16.768,37.451,37.451"/>
<circle style="fill:#3A556A;" cx="335.258" cy="301.328" r="17.859"/>
<path style="fill:#2F4859;" d="M297.804,356.635c0-20.684,16.768-37.451,37.451-37.451s37.451,16.768,37.451,37.451"/>
<g>
</g>
<g>
</g>
<g>
</g>
<g>
</g>
<g>
</g>
<g>
</g>
<g>
</g>
<g>
</g>
<g>
</g>
<g>
</g>
<g>
</g>
<g>
</g>
<g>
</g>
<g>
</g>
<g>
</g>
</svg>
