<?xml version="1.0" encoding="iso-8859-1"?>
<!-- Generator: Adobe Illustrator 19.0.0, SVG Export Plug-In . SVG Version: 6.00 Build 0)  -->
<svg xmlns="http://www.w3.org/2000/svg" xmlns:xlink="http://www.w3.org/1999/xlink" version="1.1" id="Capa_1" x="0px" y="0px" viewBox="0 0 409.6 409.6" style="enable-background:new 0 0 409.6 409.6;" xml:space="preserve">
<path style="fill:#DC8744;" d="M327.367,0H82.233c-6.969,0-12.619,5.65-12.619,12.619v384.362c0,6.97,5.65,12.619,12.619,12.619  h245.135c6.969,0,12.619-5.65,12.619-12.619V12.619C339.986,5.65,334.336,0,327.367,0z"/>
<path style="fill:#D5D6DB;" d="M301.457,37.888H108.143c-7.466,0-13.519,6.053-13.519,13.52v306.785  c0,7.466,6.053,13.519,13.519,13.519h193.315c7.466,0,13.52-6.053,13.52-13.519V51.407  C314.977,43.941,308.924,37.888,301.457,37.888z"/>
<ellipse style="fill:#FFFFFF;" cx="196.915" cy="390.4" rx="11.96" ry="11.868"/>
<ellipse style="fill:#EBF0F3;" cx="196.915" cy="390.4" rx="9.175" ry="9.108"/>
<path style="fill:#D5D6DB;" d="M198.183,396.131h-2.566c-2.437,0-4.422-1.986-4.422-4.422v-2.619c0-2.437,1.986-4.422,4.422-4.422  h2.566c2.437,0,4.422,1.986,4.422,4.422v2.619C202.606,394.146,200.62,396.131,198.183,396.131z M195.617,386.145  c-1.626,0-2.945,1.319-2.945,2.945v2.619c0,1.626,1.319,2.945,2.945,2.945h2.566c1.626,0,2.945-1.319,2.945-2.945v-2.619  c0-1.626-1.319-2.945-2.945-2.945H195.617z"/>
<path style="fill:#FFFFFF;" d="M236.409,24.616h-63.218c-0.638,0-1.155-0.517-1.155-1.155v-3.065c0-0.638,0.517-1.155,1.155-1.155  h63.218c0.638,0,1.155,0.517,1.155,1.155v3.065C237.564,24.099,237.047,24.616,236.409,24.616z"/>
<circle style="fill:#3A556A;" cx="206.08" cy="196.352" r="37.919"/>
<path style="fill:#2F4859;" d="M126.553,313.812c0-43.92,35.604-79.524,79.524-79.524s79.524,35.604,79.524,79.524"/>
<g>
</g>
<g>
</g>
<g>
</g>
<g>
</g>
<g>
</g>
<g>
</g>
<g>
</g>
<g>
</g>
<g>
</g>
<g>
</g>
<g>
</g>
<g>
</g>
<g>
</g>
<g>
</g>
<g>
</g>
</svg>
