<?xml version="1.0" encoding="iso-8859-1"?>
<!-- Generator: Adobe Illustrator 19.0.0, SVG Export Plug-In . SVG Version: 6.00 Build 0)  -->
<svg xmlns="http://www.w3.org/2000/svg" xmlns:xlink="http://www.w3.org/1999/xlink" version="1.1" id="Capa_1" x="0px" y="0px" viewBox="0 0 409.6 409.6" style="enable-background:new 0 0 409.6 409.6;" xml:space="preserve">
<g>
	<path style="fill:#DC8744;" d="M124.52,112.509l-9.304-8.659c25.842-27.769,62.404-43.691,100.316-43.691   c29.76,0,58.064,9.384,81.856,27.133l-7.596,10.188c-21.582-16.101-47.261-24.611-74.26-24.611   C181.139,72.869,147.964,87.317,124.52,112.509z"/>
	<path style="fill:#DC8744;" d="M139.693,311.303c-32.182-21.423-53.924-55.532-59.648-93.578l12.571-1.887   c5.188,34.501,24.914,65.442,54.117,84.89L139.693,311.303z"/>
	<path style="fill:#DC8744;" d="M276.828,319.743l-5.69-11.36c36.492-18.286,61.704-53.238,67.448-93.499l12.581,1.797   C344.837,261.068,317.048,299.595,276.828,319.743z"/>
</g>
<circle style="fill:#3A556A;" cx="206.746" cy="243.202" r="38.41"/>
<path style="fill:#2F4859;" d="M264.344,362.171c7.855,0,13.82-8.157,12.187-16.83c-6.856-36.409-35.504-63.723-69.803-63.723  s-62.947,27.314-69.803,63.723c-1.633,8.673,4.331,16.83,12.187,16.83H264.344z"/>
<path style="fill:#3A556A;" d="M136.925,345.341c6.856-36.409,35.504-63.723,69.803-63.723v80.553h-57.616  C141.257,362.171,135.292,354.014,136.925,345.341z"/>
<path style="fill:#2F4859;" d="M206.728,281.619c21.212,0,38.408-17.196,38.408-38.408s-17.196-38.408-38.408-38.408V281.619z"/>
<circle style="fill:#F6C358;" cx="339.507" cy="85.839" r="38.41"/>
<path style="fill:#FCD462;" d="M397.142,204.802c7.855,0,13.82-8.157,12.187-16.83c-6.856-36.409-35.504-63.723-69.803-63.723  s-62.947,27.314-69.803,63.723c-1.633,8.673,4.331,16.83,12.187,16.83H397.142z"/>
<path style="fill:#F6C358;" d="M269.723,187.972c6.856-36.409,35.504-63.723,69.803-63.723v80.553H281.91  C274.055,204.802,268.09,196.645,269.723,187.972z"/>
<path style="fill:#FCD462;" d="M339.526,124.249c21.212,0,38.408-17.196,38.408-38.408s-17.196-38.408-38.408-38.408V124.249z"/>
<circle style="fill:#D5D6DB;" cx="70.072" cy="85.839" r="38.41"/>
<path style="fill:#EBF0F3;" d="M127.69,204.802c7.855,0,13.82-8.157,12.187-16.83c-6.856-36.409-35.504-63.723-69.803-63.723  S7.127,151.563,0.271,187.972c-1.633,8.673,4.331,16.83,12.187,16.83H127.69z"/>
<path style="fill:#D5D6DB;" d="M0.271,187.972c6.856-36.409,35.504-63.723,69.803-63.723v80.553H12.458  C4.602,204.802-1.362,196.645,0.271,187.972z"/>
<path style="fill:#EBF0F3;" d="M70.074,124.249c21.212,0,38.408-17.196,38.408-38.408S91.286,47.432,70.074,47.432V124.249z"/>
<g>
</g>
<g>
</g>
<g>
</g>
<g>
</g>
<g>
</g>
<g>
</g>
<g>
</g>
<g>
</g>
<g>
</g>
<g>
</g>
<g>
</g>
<g>
</g>
<g>
</g>
<g>
</g>
<g>
</g>
</svg>
