<?xml version="1.0" encoding="iso-8859-1"?>
<!-- Generator: Adobe Illustrator 19.0.0, SVG Export Plug-In . SVG Version: 6.00 Build 0)  -->
<svg xmlns="http://www.w3.org/2000/svg" xmlns:xlink="http://www.w3.org/1999/xlink" version="1.1" id="Capa_1" x="0px" y="0px" viewBox="0 0 409.6 409.6" style="enable-background:new 0 0 409.6 409.6;" xml:space="preserve">
<circle style="fill:#D15241;" cx="119.142" cy="203.53" r="56.781"/>
<path id="SVGCleanerId_0" style="fill:#E56353;" d="M238.24,379.447c0-65.788-53.332-119.12-119.12-119.12S0,313.659,0,379.447  H238.24z"/>
<path id="SVGCleanerId_1" style="fill:#D15241;" d="M0,379.447c0-65.788,53.332-119.12,119.12-119.12v119.12H0z"/>
<path id="SVGCleanerId_2" style="fill:#E56353;" d="M119.12,260.327c31.368,0,56.798-25.429,56.798-56.798  s-25.429-56.798-56.798-56.798V260.327z"/>
<polygon style="fill:#44C4A1;" points="209.636,146.587 256.041,146.587 184.324,196.368 "/>
<g>
	<rect x="194.447" y="43.653" style="fill:#31978C;" width="187.31" height="21.514"/>
	<rect x="194.447" y="77.619" style="fill:#31978C;" width="187.31" height="21.514"/>
	<rect x="194.447" y="111.718" style="fill:#31978C;" width="187.31" height="21.514"/>
</g>
<circle style="fill:#D15241;" cx="119.142" cy="203.53" r="56.781"/>
<g>
	<path id="SVGCleanerId_0_1_" style="fill:#E56353;" d="M238.24,379.447c0-65.788-53.332-119.12-119.12-119.12S0,313.659,0,379.447   H238.24z"/>
</g>
<g>
	<path id="SVGCleanerId_1_1_" style="fill:#D15241;" d="M0,379.447c0-65.788,53.332-119.12,119.12-119.12v119.12H0z"/>
</g>
<g>
	<path id="SVGCleanerId_2_1_" style="fill:#E56353;" d="M119.12,260.327c31.368,0,56.798-25.429,56.798-56.798   s-25.429-56.798-56.798-56.798V260.327z"/>
</g>
<path style="fill:#FCD462;" d="M387.258,30.153H188.947c-12.339,0-22.342,10.003-22.342,22.342v71.751  c0,12.339,10.003,22.342,22.342,22.342h20.688l-25.311,49.78l71.716-49.78h131.217c12.339,0,22.342-10.003,22.342-22.342V52.495  C409.6,40.155,399.597,30.153,387.258,30.153z"/>
<g>
	<rect x="194.447" y="43.653" style="fill:#DC8744;" width="187.31" height="21.514"/>
	<rect x="194.447" y="77.619" style="fill:#DC8744;" width="187.31" height="21.514"/>
	<rect x="194.447" y="111.718" style="fill:#DC8744;" width="187.31" height="21.514"/>
</g>
<g>
</g>
<g>
</g>
<g>
</g>
<g>
</g>
<g>
</g>
<g>
</g>
<g>
</g>
<g>
</g>
<g>
</g>
<g>
</g>
<g>
</g>
<g>
</g>
<g>
</g>
<g>
</g>
<g>
</g>
</svg>
