<?xml version="1.0" encoding="iso-8859-1"?>
<!-- Generator: Adobe Illustrator 19.0.0, SVG Export Plug-In . SVG Version: 6.00 Build 0)  -->
<svg xmlns="http://www.w3.org/2000/svg" xmlns:xlink="http://www.w3.org/1999/xlink" version="1.1" id="Capa_1" x="0px" y="0px" viewBox="0 0 409.6 409.6" style="enable-background:new 0 0 409.6 409.6;" xml:space="preserve">
<rect x="126.234" style="fill:#D5D6DB;" width="159.795" height="113.203"/>
<rect x="101.903" y="113.203" style="fill:#3EA69B;" width="205.773" height="19.415"/>
<polygon style="fill:#44C4A1;" points="297.68,409.6 111.92,409.6 68.212,353.082 68.212,132.609 341.388,132.609 341.388,353.082   "/>
<g>
	<rect x="233.861" y="16.712" style="fill:#2F4859;" width="23.296" height="84.183"/>
	<rect x="156.938" y="16.712" style="fill:#2F4859;" width="23.296" height="84.183"/>
</g>
<path style="fill:#FFFFFF;" d="M263.459,250.624H230.34c-4.718,0-8.546,3.825-8.546,8.546c0,4.721,3.828,8.547,8.546,8.547h8.013  v20.913l-25.596,9.102v-79.111l19.403,19.614c3.311,3.358,8.731,3.386,12.086,0.067c3.355-3.319,3.389-8.73,0.067-12.086  l-38.922-39.348l-39.318,39.314c-3.339,3.336-3.339,8.747,0,12.086c1.669,1.669,3.856,2.504,6.044,2.504  c2.186,0,4.373-0.835,6.042-2.504l17.505-17.504v88.4c-0.026,0.317-0.009,0.637,0,0.959v15.763L167.13,315.74v-21.553  c0-0.243-0.051-0.472-0.071-0.709h7.789c4.718,0,8.547-3.825,8.547-8.547c0-4.721-3.829-8.547-8.547-8.547h-33.119  c-4.718,0-8.546,3.825-8.546,8.547c0,4.721,3.828,8.547,8.546,8.547h8.379c-0.02,0.238-0.071,0.466-0.071,0.709v33.616  l45.627,16.225v7.226c-2.597,2.5-4.227,5.995-4.227,9.884c0,7.589,6.151,13.74,13.74,13.74c7.589,0,13.74-6.152,13.74-13.74  c0-4.784-2.451-8.988-6.16-11.449v-33.815l42.689-15.18v-32.976h8.013c4.718,0,8.547-3.825,8.547-8.547  C272.006,254.45,268.177,250.624,263.459,250.624z"/>
<g>
</g>
<g>
</g>
<g>
</g>
<g>
</g>
<g>
</g>
<g>
</g>
<g>
</g>
<g>
</g>
<g>
</g>
<g>
</g>
<g>
</g>
<g>
</g>
<g>
</g>
<g>
</g>
<g>
</g>
</svg>
