<?xml version="1.0" encoding="iso-8859-1"?>
<!-- Generator: Adobe Illustrator 19.0.0, SVG Export Plug-In . SVG Version: 6.00 Build 0)  -->
<svg xmlns="http://www.w3.org/2000/svg" xmlns:xlink="http://www.w3.org/1999/xlink" version="1.1" id="Capa_1" x="0px" y="0px" viewBox="0 0 409.61 409.61" style="enable-background:new 0 0 409.61 409.61;" xml:space="preserve">
<rect x="112.568" y="382.208" style="fill:#D15241;" width="184.474" height="27.402"/>
<g>
	
		<rect x="148.23" y="19.811" transform="matrix(-0.8617 0.5074 -0.5074 -0.8617 324.5483 48.3896)" style="fill:#2F4859;" width="14.899" height="97.229"/>
	
		<rect x="197.64" y="58.055" transform="matrix(-0.5283 0.8491 -0.8491 -0.5283 431.963 -108.9802)" style="fill:#2F4859;" width="97.229" height="14.894"/>
</g>
<circle style="fill:#E56353;" cx="128.66" cy="20.05" r="20.05"/>
<path style="fill:#DC8744;" d="M148.709,131.54c0-19.138,23.936-34.652,53.464-34.652s53.464,15.514,53.464,34.652"/>
<circle style="fill:#E56353;" cx="275.686" cy="20.05" r="20.05"/>
<rect x="5.32" y="122.568" style="fill:#2F4859;" width="398.971" height="264.643"/>
<rect x="30.868" y="141.281" style="fill:#1C75A1;" width="309.146" height="227.226"/>
<polygon style="fill:#2D93BA;" points="339.983,141.28 229.188,141.28 30.846,368.5 82.163,368.5 "/>
<g>
	<circle style="fill:#D15241;" cx="372.526" cy="338.074" r="22.39"/>
	<circle style="fill:#D15241;" cx="372.526" cy="285.967" r="22.39"/>
</g>
<g>
	<rect x="350.152" y="168.678" style="fill:#D5D6DB;" width="41.436" height="11.361"/>
	<rect x="350.152" y="192.737" style="fill:#D5D6DB;" width="41.436" height="11.361"/>
	<rect x="350.152" y="216.781" style="fill:#D5D6DB;" width="41.436" height="11.361"/>
</g>
<g>
</g>
<g>
</g>
<g>
</g>
<g>
</g>
<g>
</g>
<g>
</g>
<g>
</g>
<g>
</g>
<g>
</g>
<g>
</g>
<g>
</g>
<g>
</g>
<g>
</g>
<g>
</g>
<g>
</g>
</svg>
