<?xml version="1.0" encoding="iso-8859-1"?>
<!-- Generator: Adobe Illustrator 19.0.0, SVG Export Plug-In . SVG Version: 6.00 Build 0)  -->
<svg xmlns="http://www.w3.org/2000/svg" xmlns:xlink="http://www.w3.org/1999/xlink" version="1.1" id="Capa_1" x="0px" y="0px" viewBox="0 0 409.6 409.6" style="enable-background:new 0 0 409.6 409.6;" xml:space="preserve">
<g>
	<path style="fill:#DC8744;" d="M177.812,290.672L177.812,290.672c-5.589,0.961-8.374,8.529-6.471,15.933l6.538,25.437   c0.995,3.87,4.552,6.267,8.026,5.67l0,0c3.474-0.598,6.025-4.046,5.67-8.026l-2.338-26.16   C188.555,295.912,183.4,289.71,177.812,290.672z"/>
	<path style="fill:#DC8744;" d="M226.538,291.389L226.538,291.389c-5.418-1.674-11.329,3.812-12.985,11.275l-5.69,25.64   c-0.866,3.901,1.22,7.649,4.588,8.689l0,0c3.368,1.04,7.204-0.879,8.689-4.588l9.761-24.383   C233.743,300.926,231.956,293.063,226.538,291.389z"/>
</g>
<rect x="63.478" y="127.76" style="fill:#3A556A;" width="283.546" height="172.728"/>
<rect x="63.478" y="127.76" style="fill:#64798A;" width="283.546" height="145.178"/>
<rect x="77.926" y="135.557" style="fill:#F6C358;" width="254.669" height="137.523"/>
<polyline style="fill:#FCD462;" points="77.916,245.784 77.916,273.077 332.586,135.555 271.176,135.555 "/>
<circle style="fill:#FFFFFF;" cx="205.261" cy="288.615" r="8.289"/>
<circle style="fill:#D5D6DB;" cx="205.261" cy="288.615" r="5.1"/>
<path style="fill:#3A556A;" d="M248.884,337.802c0-8.907-21.819-16.127-48.735-16.127s-48.735,7.22-48.735,16.127H248.884z"/>
<rect x="349.071" y="332.063" style="fill:#FCD462;" width="47.114" height="14.326"/>
<path style="fill:#2F4859;" d="M345.256,333.667h54.742c5.303,0,9.602-4.299,9.602-9.602V215.827c0-5.303-4.299-9.602-9.602-9.602  h-54.742c-5.303,0-9.602,4.299-9.602,9.602v108.238C335.654,329.368,339.953,333.667,345.256,333.667z"/>
<path style="fill:#3A556A;" d="M372.627,333.667h29.875c3.92,0,7.098-3.178,7.098-7.098V213.324c0-3.92-3.178-7.098-7.098-7.098  h-29.875V333.667z"/>
<path style="fill:#64798A;" d="M346.769,243.739c0-14.255,11.6-25.855,25.858-25.855c14.258,0,25.858,11.6,25.858,25.855  c0,14.258-11.6,25.858-25.858,25.858C358.369,269.597,346.769,257.997,346.769,243.739z M352.598,243.739  c0,11.045,8.987,20.029,20.029,20.029c11.042,0,20.029-8.984,20.029-20.029c0-11.042-8.987-20.027-20.029-20.027  C361.585,223.712,352.598,232.697,352.598,243.739z"/>
<circle style="fill:#FCD462;" cx="372.634" cy="243.763" r="13.368"/>
<g>
	<circle style="fill:#64798A;" cx="346.778" cy="316.897" r="4.372"/>
	<circle style="fill:#64798A;" cx="397.722" cy="316.897" r="4.372"/>
</g>
<rect x="13.414" y="332.539" style="fill:#FCD462;" width="47.114" height="14.326"/>
<path style="fill:#2F4859;" d="M64.344,334.14H9.602c-5.303,0-9.602-4.299-9.602-9.602V216.3c0-5.303,4.299-9.602,9.602-9.602  h54.742c5.303,0,9.602,4.299,9.602,9.602v108.238C73.946,329.841,69.647,334.14,64.344,334.14z"/>
<path style="fill:#3A556A;" d="M36.973,334.14H7.098c-3.92,0-7.098-3.178-7.098-7.098V213.797c0-3.92,3.178-7.098,7.098-7.098  h29.875V334.14z"/>
<path style="fill:#64798A;" d="M36.973,270.07c-14.258,0-25.858-11.6-25.858-25.858c0-14.255,11.6-25.855,25.858-25.855  s25.858,11.6,25.858,25.855C62.831,258.47,51.231,270.07,36.973,270.07z M36.973,224.185c-11.042,0-20.029,8.985-20.029,20.027  c0,11.045,8.987,20.029,20.029,20.029s20.029-8.985,20.029-20.029C57.002,233.17,48.015,224.185,36.973,224.185z"/>
<circle style="fill:#FCD462;" cx="36.972" cy="244.214" r="13.368"/>
<g>
	<circle style="fill:#64798A;" cx="62.833" cy="317.374" r="4.372"/>
	<circle style="fill:#64798A;" cx="11.884" cy="317.374" r="4.372"/>
</g>
<g>
	<path style="fill:#2F4859;" d="M178.087,81.315l-5.267-4.401c7.825-9.365,19.312-14.515,31.487-14.161   c11.037,0.331,21.504,5.32,28.718,13.688l-5.199,4.482c-5.96-6.913-14.607-11.035-23.725-11.309   C194.059,69.321,184.553,73.577,178.087,81.315z"/>
	<path style="fill:#2F4859;" d="M188.839,91.292l-5.267-4.401c5.031-6.021,12.407-9.325,20.242-9.103   c7.094,0.213,13.823,3.419,18.461,8.799l-5.199,4.482c-3.384-3.925-8.293-6.264-13.468-6.419   C197.895,84.472,192.51,86.898,188.839,91.292z"/>
	<path style="fill:#2F4859;" d="M194.707,103.556l-5.267-4.401c3.515-4.206,8.669-6.528,14.142-6.36   c4.957,0.149,9.659,2.39,12.899,6.147l-5.198,4.483c-1.987-2.304-4.869-3.677-7.907-3.769   C200.009,99.549,196.863,100.977,194.707,103.556z"/>
	<circle style="fill:#2F4859;" cx="202.941" cy="112.743" r="5.263"/>
</g>
<g>
</g>
<g>
</g>
<g>
</g>
<g>
</g>
<g>
</g>
<g>
</g>
<g>
</g>
<g>
</g>
<g>
</g>
<g>
</g>
<g>
</g>
<g>
</g>
<g>
</g>
<g>
</g>
<g>
</g>
</svg>
