<?xml version="1.0" encoding="iso-8859-1"?>
<!-- Generator: Adobe Illustrator 19.0.0, SVG Export Plug-In . SVG Version: 6.00 Build 0)  -->
<svg xmlns="http://www.w3.org/2000/svg" xmlns:xlink="http://www.w3.org/1999/xlink" version="1.1" id="Capa_1" x="0px" y="0px" viewBox="0 0 409.6 409.6" style="enable-background:new 0 0 409.6 409.6;" xml:space="preserve">
<path style="fill:#27A2DB;" d="M303.925,343.735H14.027C6.279,343.735,0,337.456,0,329.708s6.279-14.027,14.027-14.027h289.897  c10.827,0,19.638-8.811,19.638-19.638c0-10.827-8.811-19.638-19.638-19.638h-37.403V40.276c0-17.271,14.055-31.326,31.326-31.326  h87.436c7.748,0,14.027,6.279,14.027,14.027s-6.28,14.027-14.027,14.027h-87.436c-1.803,0-3.271,1.469-3.271,3.271v208.072h9.348  c26.296,0,47.693,21.397,47.693,47.693S330.221,343.735,303.925,343.735z"/>
<polygon style="fill:#E1E6E9;" points="201.058,295.108 58.914,295.108 23.377,82.826 236.595,82.826 "/>
<g>
	<path style="fill:#64798A;" d="M210.56,306.332H49.414L10.121,71.602h239.727L210.56,306.332z M68.417,283.888h123.14   l31.781-189.842H36.63L68.417,283.888z"/>
	<path style="fill:#64798A;" d="M223.853,149.225H36.121c-6.197,0-11.222-5.025-11.222-11.222c0-6.197,5.025-11.222,11.222-11.222   h187.732c6.197,0,11.222,5.025,11.222,11.222C235.075,144.2,230.05,149.225,223.853,149.225z"/>
	<path style="fill:#64798A;" d="M218.242,203.68H41.732c-6.197,0-11.222-5.025-11.222-11.222s5.025-11.222,11.222-11.222h176.51   c6.197,0,11.222,5.025,11.222,11.222S224.439,203.68,218.242,203.68z"/>
	<path style="fill:#64798A;" d="M208.538,257.702H51.43c-6.197,0-11.222-5.025-11.222-11.222c0-6.197,5.025-11.222,11.222-11.222   h157.108c6.197,0,11.222,5.025,11.222,11.222C219.76,252.677,214.735,257.702,208.538,257.702z"/>
</g>
<path style="fill:#D15241;" d="M397.362,40.276h-86.889V5.656h86.889c6.759,0,12.238,5.479,12.238,12.238v10.143  C409.6,34.797,404.121,40.276,397.362,40.276z"/>
<g>
	<circle style="fill:#3A556A;" cx="241.92" cy="374.017" r="29.926"/>
	<circle style="fill:#3A556A;" cx="102.656" cy="374.017" r="29.926"/>
</g>
<g>
</g>
<g>
</g>
<g>
</g>
<g>
</g>
<g>
</g>
<g>
</g>
<g>
</g>
<g>
</g>
<g>
</g>
<g>
</g>
<g>
</g>
<g>
</g>
<g>
</g>
<g>
</g>
<g>
</g>
</svg>
