<?xml version="1.0" encoding="iso-8859-1"?>
<!-- Generator: Adobe Illustrator 19.0.0, SVG Export Plug-In . SVG Version: 6.00 Build 0)  -->
<svg xmlns="http://www.w3.org/2000/svg" xmlns:xlink="http://www.w3.org/1999/xlink" version="1.1" id="Capa_1" x="0px" y="0px" viewBox="0 0 409.6 409.6" style="enable-background:new 0 0 409.6 409.6;" xml:space="preserve">
<path style="fill:#D5D6DB;" d="M238.907,189.495H178.97c-23.594,0-42.788-20.695-42.788-46.129V108.56h19.39v34.805  c0,13.91,10.497,25.224,23.398,25.224h59.937c13.167,0,23.878-11.552,23.878-25.748V108.56h19.39v34.281  C282.175,168.565,262.766,189.495,238.907,189.495z"/>
<path style="fill:#3EA69B;" d="M141.088,179.042h131.393c9.875,0,19.158,5.082,24.984,13.679l65.185,96.172  c3.774,5.568,5.808,12.286,5.808,19.182v49.679c0,16.427-12.351,29.744-27.588,29.744H72.878c-15.236,0-27.588-13.317-27.588-29.744  v-40.849c0-14.102,4.221-27.828,12.036-39.136l58.947-85.297C122.114,184.021,131.313,179.042,141.088,179.042z"/>
<path style="fill:#44C4A1;" d="M45.291,308.075v64.573c0,16.427-2.543,14.85,12.693,14.85h297.781  c15.236,0,12.693,1.578,12.693-14.85v-64.573H45.291z"/>
<g>
	<polygon style="fill:#EBF0F3;" points="131.38,290.013 90.969,290.013 104.049,265.161 139.972,265.161  "/>
	<polygon style="fill:#EBF0F3;" points="196.418,290.013 156.006,290.013 161.862,265.161 197.785,265.161  "/>
	<polygon style="fill:#EBF0F3;" points="261.455,290.013 221.043,290.013 219.676,265.161 255.599,265.161  "/>
</g>
<polygon style="fill:#E56353;" points="326.493,290.013 286.081,290.013 277.49,265.161 313.413,265.161 "/>
<g>
	<polygon style="fill:#EBF0F3;" points="143.783,254.136 109.851,254.136 119.24,236.297 149.95,236.297  "/>
	<polygon style="fill:#EBF0F3;" points="198.392,254.136 164.46,254.136 168.664,236.297 199.374,236.297  "/>
	<polygon style="fill:#EBF0F3;" points="253.001,254.136 219.069,254.136 218.087,236.297 248.798,236.297  "/>
</g>
<polygon style="fill:#FCD462;" points="307.61,254.136 273.678,254.136 267.511,236.297 298.221,236.297 "/>
<g>
	<polygon style="fill:#EBF0F3;" points="152.758,228.174 123.514,228.174 130.581,214.748 157.399,214.748  "/>
	<polygon style="fill:#EBF0F3;" points="199.821,228.174 170.578,228.174 173.741,214.748 200.559,214.748  "/>
	<polygon style="fill:#EBF0F3;" points="246.884,228.174 217.641,228.174 216.902,214.748 243.72,214.748  "/>
</g>
<polygon style="fill:#27A2DB;" points="293.947,228.174 264.704,228.174 260.062,214.748 286.88,214.748 "/>
<g>
	<polygon style="fill:#EBF0F3;" points="159.553,208.516 133.86,208.516 139.37,198.047 163.172,198.047  "/>
	<polygon style="fill:#EBF0F3;" points="200.902,208.516 175.21,208.516 177.677,198.047 201.478,198.047  "/>
	<polygon style="fill:#EBF0F3;" points="242.251,208.516 216.559,208.516 215.983,198.047 239.785,198.047  "/>
</g>
<polygon style="fill:#64798A;" points="283.601,208.516 257.908,208.516 254.289,198.047 278.091,198.047 "/>
<g>
	<polygon style="fill:#E1E6E9;" points="159.553,208.516 133.86,208.516 135.614,205.185 160.705,205.185  "/>
	<polygon style="fill:#E1E6E9;" points="200.902,208.516 175.21,208.516 175.995,205.185 201.086,205.185  "/>
	<polygon style="fill:#E1E6E9;" points="242.251,208.516 216.559,208.516 216.375,205.185 241.466,205.185  "/>
</g>
<polygon style="fill:#3A556A;" points="283.601,208.516 257.908,208.516 256.756,205.185 281.847,205.185 "/>
<g>
	<polygon style="fill:#E1E6E9;" points="152.758,228.174 123.514,228.174 125.779,223.872 154.245,223.872  "/>
	<polygon style="fill:#E1E6E9;" points="199.821,228.174 170.578,228.174 171.591,223.872 200.057,223.872  "/>
	<polygon style="fill:#E1E6E9;" points="246.884,228.174 217.641,228.174 217.404,223.872 245.87,223.872  "/>
</g>
<polygon style="fill:#2D93BA;" points="293.947,228.174 264.704,228.174 263.216,223.872 291.682,223.872 "/>
<g>
	<polygon style="fill:#E1E6E9;" points="143.783,254.136 109.851,254.136 112.886,248.368 145.777,248.368  "/>
	<polygon style="fill:#E1E6E9;" points="198.392,254.136 164.46,254.136 165.819,248.368 198.709,248.368  "/>
	<polygon style="fill:#E1E6E9;" points="253.001,254.136 219.069,254.136 218.752,248.368 251.642,248.368  "/>
</g>
<polygon style="fill:#F6C358;" points="307.61,254.136 273.678,254.136 271.684,248.368 304.575,248.368 "/>
<g>
	<polygon style="fill:#E1E6E9;" points="131.38,290.013 90.969,290.013 95.249,281.88 134.192,281.88  "/>
	<polygon style="fill:#E1E6E9;" points="196.418,290.013 156.006,290.013 157.923,281.88 196.865,281.88  "/>
	<polygon style="fill:#E1E6E9;" points="261.455,290.013 221.043,290.013 220.596,281.88 259.539,281.88  "/>
</g>
<polygon style="fill:#D15241;" points="326.493,290.013 286.081,290.013 283.269,281.88 322.212,281.88 "/>
<g>
	<path style="fill:#1C75A1;" d="M153.797,123.813h-16.041c-1.918,0-3.472-1.555-3.472-3.472V96.798c0-1.918,1.555-3.472,3.472-3.472   h16.041c1.918,0,3.472,1.555,3.472,3.472v23.543C157.269,122.258,155.715,123.813,153.797,123.813z"/>
	<path style="fill:#1C75A1;" d="M279.705,127.515h-16.041c-1.918,0-3.472-1.555-3.472-3.472V100.5c0-1.918,1.555-3.472,3.472-3.472   h16.041c1.918,0,3.472,1.555,3.472,3.472v23.543C283.177,125.96,281.623,127.515,279.705,127.515z"/>
</g>
<path style="fill:#FCD462;" d="M0.013,171.82c-0.515,12.864,14.709,25.398,27.584,25.454l34.483-2.952  c32.835-3.148,58.386-4.287,61.068-53.229c0.764-13.948-11.11-40.83,28.594-48.006c32.914-5.949,110.936-8.053,132.803,16.212  c12.282,13.629,7.4,32.097,5.436,42.669c-6.874,36.99,24.464,50.02,57.27,53.455c0,0,27.382,2.999,36.549,3.451  c12.859,0.634,20.429-9.595,23.413-23.209c0,0,13.514-59.099-28.055-106.805c-29.834-34.238-67.194-52.772-172.574-56.701  C155.231,20.246,31.287,46.137,15.149,97.016C9.247,115.625,2.06,120.665,0.013,171.82z"/>
<g>
	<path style="fill:#2F4859;" d="M5.051,133.357l118.092,4.632c0.524,6.399-1.544,16.806-1.544,16.806L0.803,154.267   c0,0,0.728-14.535,1.518-20.923L5.051,133.357z"/>
	<path style="fill:#2F4859;" d="M409.344,163.397l-120.297-0.526c0,0-0.885-1.961,3.325-25.588l114.748,0.501   C407.121,137.784,410.546,157.965,409.344,163.397z"/>
</g>
<g>
</g>
<g>
</g>
<g>
</g>
<g>
</g>
<g>
</g>
<g>
</g>
<g>
</g>
<g>
</g>
<g>
</g>
<g>
</g>
<g>
</g>
<g>
</g>
<g>
</g>
<g>
</g>
<g>
</g>
</svg>
