<?xml version="1.0" encoding="iso-8859-1"?>
<!-- Generator: Adobe Illustrator 19.0.0, SVG Export Plug-In . SVG Version: 6.00 Build 0)  -->
<svg xmlns="http://www.w3.org/2000/svg" xmlns:xlink="http://www.w3.org/1999/xlink" version="1.1" id="Capa_1" x="0px" y="0px" viewBox="0 0 409.6 409.6" style="enable-background:new 0 0 409.6 409.6;" xml:space="preserve">
<circle style="fill:#D15241;" cx="89.349" cy="132.768" r="42.604"/>
<path style="fill:#E56353;" d="M178.701,264.72c0-49.347-40.004-89.351-89.351-89.351S0,215.373,0,264.72H178.701z"/>
<path style="fill:#D15241;" d="M0,264.72c0-49.347,40.004-89.351,89.351-89.351v89.351H0z"/>
<path style="fill:#E56353;" d="M89.351,175.369c23.529,0,42.603-19.074,42.603-42.603S112.88,90.163,89.351,90.163V175.369z"/>
<circle style="fill:#44C4A1;" cx="320.256" cy="130.674" r="42.604"/>
<path style="fill:#3EA69B;" d="M409.6,262.63c0-49.347-40.004-89.351-89.351-89.351s-89.351,40.004-89.351,89.351H409.6z"/>
<path style="fill:#44C4A1;" d="M230.899,262.63c0-49.347,40.004-89.351,89.351-89.351v89.351H230.899z"/>
<path style="fill:#3EA69B;" d="M320.249,173.279c23.529,0,42.603-19.074,42.603-42.603s-19.074-42.603-42.603-42.603V173.279z"/>
<circle style="fill:#3A556A;" cx="201.165" cy="146.633" r="56.474"/>
<path style="fill:#2F4859;" d="M296.8,321.53c13.036,0,22.935-11.993,20.224-24.744c-11.378-53.529-58.92-93.686-115.841-93.686  S96.72,243.257,85.342,296.786c-2.71,12.751,7.188,24.744,20.224,24.744H296.8z"/>
<path style="fill:#3A556A;" d="M85.342,296.786c11.378-53.529,58.92-93.686,115.841-93.686v118.43h-95.617  C92.53,321.53,82.632,309.537,85.342,296.786z"/>
<path style="fill:#2F4859;" d="M201.183,203.1c31.187,0,56.469-25.282,56.469-56.469s-25.282-56.469-56.469-56.469V203.1z"/>
<g>
</g>
<g>
</g>
<g>
</g>
<g>
</g>
<g>
</g>
<g>
</g>
<g>
</g>
<g>
</g>
<g>
</g>
<g>
</g>
<g>
</g>
<g>
</g>
<g>
</g>
<g>
</g>
<g>
</g>
</svg>
