<?xml version="1.0" encoding="iso-8859-1"?>
<!-- Generator: Adobe Illustrator 19.0.0, SVG Export Plug-In . SVG Version: 6.00 Build 0)  -->
<svg xmlns="http://www.w3.org/2000/svg" xmlns:xlink="http://www.w3.org/1999/xlink" version="1.1" id="Capa_1" x="0px" y="0px" viewBox="0 0 409.6 409.6" style="enable-background:new 0 0 409.6 409.6;" xml:space="preserve">
<path style="fill:#CE412D;" d="M204.985,374.541c-95.062,0-172.405-78.096-172.405-174.089S109.923,26.363,204.985,26.363  s172.405,78.096,172.405,174.089S300.047,374.541,204.985,374.541z"/>
<path style="fill:#D5D6DB;" d="M204.985,42.972c-85.908,0-155.796,70.645-155.796,157.48s69.889,157.48,155.796,157.48  s155.796-70.645,155.796-157.48S290.893,42.972,204.985,42.972z"/>
<g>
	<path style="fill:#CE412D;" d="M39.872,195.898h325.022c4.587,0,8.305,3.718,8.305,8.305c0,4.587-3.718,8.305-8.305,8.305H39.872"/>
	<path style="fill:#CE412D;" d="M205.368,132.73c-77.136,0-128.611-33.929-129.377-34.448l9.297-13.764   c1.064,0.727,108.564,71.095,244.351-0.461l7.747,14.695C289.057,124.218,243.991,132.73,205.368,132.73z"/>
	<path style="fill:#CE412D;" d="M328.828,322.105c-123.784-84.532-238.492-3.62-243.313-0.133l-9.751-13.443   c1.272-0.925,128.774-91.393,262.433-0.139L328.828,322.105z"/>
	<path style="fill:#CE412D;" d="M170.119,366.081c-124.2-200.132-0.162-331.368,1.109-332.672l11.899,11.588l-5.949-5.794   l5.962,5.784c-4.795,4.957-116.044,123.583,1.096,312.335L170.119,366.081z"/>
	<rect x="197.171" y="34.673" style="fill:#CE412D;" width="16.609" height="331.561"/>
	<path style="fill:#CE412D;" d="M236.218,366.081l-14.118-8.759c117.141-188.752,5.891-307.378,1.096-312.335l11.912-11.578   C236.381,34.713,360.418,165.949,236.218,366.081z"/>
</g>
<g>
	<polygon style="fill:#3A556A;" points="390.301,84.058 377.014,84.058 377.014,13.287 304.978,13.287 304.978,0 390.301,0  "/>
	<polygon style="fill:#3A556A;" points="390.301,409.6 304.978,409.6 304.978,396.313 377.014,396.313 377.014,325.542    390.301,325.542  "/>
	<polygon style="fill:#3A556A;" points="104.622,409.6 19.299,409.6 19.299,325.542 32.586,325.542 32.586,396.313 104.622,396.313     "/>
	<polygon style="fill:#3A556A;" points="32.586,84.058 19.299,84.058 19.299,0 104.622,0 104.622,13.287 32.586,13.287  "/>
</g>
<g>
</g>
<g>
</g>
<g>
</g>
<g>
</g>
<g>
</g>
<g>
</g>
<g>
</g>
<g>
</g>
<g>
</g>
<g>
</g>
<g>
</g>
<g>
</g>
<g>
</g>
<g>
</g>
<g>
</g>
</svg>
