<?xml version="1.0" encoding="iso-8859-1"?>
<!-- Generator: Adobe Illustrator 19.0.0, SVG Export Plug-In . SVG Version: 6.00 Build 0)  -->
<svg xmlns="http://www.w3.org/2000/svg" xmlns:xlink="http://www.w3.org/1999/xlink" version="1.1" id="Capa_1" x="0px" y="0px" viewBox="0 0 409.61 409.61" style="enable-background:new 0 0 409.61 409.61;" xml:space="preserve">
<path style="fill:#44C4A1;" d="M333.896,386.598H75.714c-24.889,0-45.066-20.177-45.066-45.066V83.349  c0-24.889,20.177-45.066,45.066-45.066h258.182c24.889,0,45.066,20.177,45.066,45.066v258.182  C378.963,366.421,358.786,386.598,333.896,386.598z"/>
<g>
	<path style="fill:#64798A;" d="M256.559,71.963h-94.637c-19.839,0-35.982-16.142-35.982-35.982S142.084,0,161.923,0h94.637   c19.839,0,35.982,16.142,35.982,35.982S276.399,71.963,256.559,71.963z M161.923,15.773c-11.144,0-20.209,9.065-20.209,20.209   s9.065,20.209,20.209,20.209h94.637c11.144,0,20.209-9.065,20.209-20.209s-9.065-20.209-20.209-20.209H161.923z"/>
	<rect x="278.738" y="383.805" style="fill:#64798A;" width="32.205" height="25.805"/>
	<rect x="113.772" y="383.805" style="fill:#64798A;" width="32.205" height="25.805"/>
</g>
<path style="fill:#D5D6DB;" d="M334.404,38.283H75.206c-24.609,0-44.558,19.949-44.558,44.558v49.256h348.315V82.841  C378.963,58.232,359.013,38.283,334.404,38.283z"/>
<circle style="fill:#1C75A1;" cx="190.111" cy="88.474" r="16.527"/>
<circle style="fill:#2F4859;" cx="233.615" cy="88.474" r="16.527"/>
<circle style="fill:#27A2DB;" cx="107.448" cy="88.474" r="16.527"/>
<circle style="fill:#2F4859;" cx="275.487" cy="88.474" r="16.527"/>
<circle style="fill:#CE412D;" cx="65.577" cy="88.474" r="16.527"/>
<circle style="fill:#DC8744;" cx="148.588" cy="88.474" r="16.527"/>
<rect x="30.648" y="116.326" style="fill:#F6C358;" width="348.314" height="27.039"/>
<circle style="fill:#2F4859;" cx="299.474" cy="243.302" r="64.732"/>
<circle style="fill:#D5D6DB;" cx="299.474" cy="243.302" r="35.441"/>
<circle style="fill:#2F4859;" cx="113.772" cy="243.302" r="64.732"/>
<circle style="fill:#D5D6DB;" cx="113.772" cy="243.302" r="35.441"/>
<g>
</g>
<g>
</g>
<g>
</g>
<g>
</g>
<g>
</g>
<g>
</g>
<g>
</g>
<g>
</g>
<g>
</g>
<g>
</g>
<g>
</g>
<g>
</g>
<g>
</g>
<g>
</g>
<g>
</g>
</svg>
