<?xml version="1.0" encoding="iso-8859-1"?>
<!-- Generator: Adobe Illustrator 19.0.0, SVG Export Plug-In . SVG Version: 6.00 Build 0)  -->
<svg xmlns="http://www.w3.org/2000/svg" xmlns:xlink="http://www.w3.org/1999/xlink" version="1.1" id="Capa_1" x="0px" y="0px" viewBox="0 0 409.6 409.6" style="enable-background:new 0 0 409.6 409.6;" xml:space="preserve">
<g>
	<path style="fill:#E56353;" d="M223.487,397.252c-4.955,0-10.082-0.222-15.388-0.656l0.989-11.952   c35.383,2.973,61.737-4.56,78.334-22.266c25.907-27.627,19.796-71.334,19.731-71.773l11.859-1.756   c0.299,2.025,6.977,49.923-22.845,81.729C279.544,388.308,255.135,397.252,223.487,397.252z"/>
	<path style="fill:#E56353;" d="M79.288,296.132c-27.396-31.62-42.482-72.107-42.482-114.006   c0-99.152,70.981-173.922,165.105-173.922c95.822,0,170.882,76.146,170.882,173.358c0,40.842-14.007,75.697-44.078,109.706   l-16.664-14.738c26.27-29.694,38.504-59.873,38.504-94.968c0-84.739-65.292-151.12-148.644-151.12   c-81.449,0-142.867,65.208-142.867,151.685c0,36.549,13.157,71.861,37.052,99.441L79.288,296.132z"/>
</g>
<path style="fill:#27A2DB;" d="M108.917,170.401L108.917,170.401c21.411,0,38.93,17.518,38.93,38.93v91.563  c0,21.411-17.518,38.93-38.93,38.93h0"/>
<rect x="88.673" y="170.394" style="fill:#DC8744;" width="21.176" height="169.421"/>
<rect x="65.065" y="208.394" style="fill:#FCD462;" width="23.608" height="93.619"/>
<path style="fill:#27A2DB;" d="M300.14,170.401L300.14,170.401c-21.411,0-38.93,17.518-38.93,38.93v91.563  c0,21.411,17.518,38.93,38.93,38.93h0"/>
<rect x="299.182" y="170.394" style="fill:#DC8744;" width="21.176" height="169.421"/>
<g>
	<rect x="320.404" y="208.399" style="fill:#FCD462;" width="23.608" height="93.619"/>
	<path style="fill:#FCD462;" d="M322.373,110.943c-23.676-42.553-68.595-68.987-117.229-68.987   c-49.457,0-94.577,26.381-117.753,68.84l-36.829-20.1C81.095,34.751,140.327,0,205.143,0c63.853,0,122.819,34.698,153.894,90.55   L322.373,110.943z"/>
</g>
<path style="fill:#D15241;" d="M222.515,409.6h-44.204c-6.799,0-12.362-5.563-12.362-12.362V386c0-6.799,5.563-12.362,12.362-12.362  h44.204c6.799,0,12.362,5.563,12.362,12.362v11.238C234.877,404.037,229.314,409.6,222.515,409.6z"/>
<g>
</g>
<g>
</g>
<g>
</g>
<g>
</g>
<g>
</g>
<g>
</g>
<g>
</g>
<g>
</g>
<g>
</g>
<g>
</g>
<g>
</g>
<g>
</g>
<g>
</g>
<g>
</g>
<g>
</g>
</svg>
