<?xml version="1.0" encoding="iso-8859-1"?>
<!-- Generator: Adobe Illustrator 19.0.0, SVG Export Plug-In . SVG Version: 6.00 Build 0)  -->
<svg xmlns="http://www.w3.org/2000/svg" xmlns:xlink="http://www.w3.org/1999/xlink" version="1.1" id="Capa_1" x="0px" y="0px" viewBox="0 0 409.6 409.6" style="enable-background:new 0 0 409.6 409.6;" xml:space="preserve">
<path style="fill:#64798A;" d="M163.669,257.606h-17.978v64.284h17.978c5.115,0,9.261-4.147,9.261-9.261v-45.762  C172.93,261.752,168.784,257.606,163.669,257.606z"/>
<path style="fill:#D15241;" d="M177.578,379.092h-4.518l-26.824-150.324H80.318l30.68,171.931c0.919,5.15,5.398,8.9,10.629,8.9  h56.821c8.943,0,16.089-7.696,15.175-16.827C192.828,384.833,185.557,379.092,177.578,379.092z"/>
<path style="fill:#E56353;" d="M155.383,104.339h-103.1c-16.191,0-29.439,13.248-29.439,29.439v71.372  c0,16.191,13.248,29.439,29.439,29.439h103.1c16.259,0,29.439-13.18,29.439-29.439v-71.372  C184.822,117.519,171.642,104.339,155.383,104.339z"/>
<polygon style="fill:#D5D6DB;" points="150.227,234.589 315.76,335.025 315.76,0 150.227,104.339 "/>
<rect x="315.75" style="fill:#64798A;" width="28.867" height="335.002"/>
<ellipse style="fill:#2F4859;" cx="344.627" cy="167.511" rx="6.042" ry="167.511"/>
<path style="fill:#D5D6DB;" d="M386.756,169.464c0-29.706-20.541-54.554-48.175-61.285v122.57  C366.215,224.018,386.756,199.17,386.756,169.464z"/>
<g>
</g>
<g>
</g>
<g>
</g>
<g>
</g>
<g>
</g>
<g>
</g>
<g>
</g>
<g>
</g>
<g>
</g>
<g>
</g>
<g>
</g>
<g>
</g>
<g>
</g>
<g>
</g>
<g>
</g>
</svg>
