<?xml version="1.0" encoding="iso-8859-1"?>
<!-- Generator: Adobe Illustrator 19.0.0, SVG Export Plug-In . SVG Version: 6.00 Build 0)  -->
<svg xmlns="http://www.w3.org/2000/svg" xmlns:xlink="http://www.w3.org/1999/xlink" version="1.1" id="Capa_1" x="0px" y="0px" viewBox="0 0 409.6 409.6" style="enable-background:new 0 0 409.6 409.6;" xml:space="preserve">
<path style="fill:#64798A;" d="M8.89,152.185c-4.91,0-8.89,3.98-8.89,8.89v91.718c0,4.91,3.98,8.89,8.89,8.89h58.212V152.185H8.89z"/>
<polygon style="fill:#D5D6DB;" points="67.101,261.683 213.955,342.889 213.955,66.706 67.101,152.185 "/>
<rect x="213.955" y="66.711" style="fill:#64798A;" width="26.598" height="276.183"/>
<path style="fill:#F6C358;" d="M240.552,152.719v104.108c4.26,0,8.378-0.568,12.34-1.533V154.252  C248.93,153.287,244.812,152.719,240.552,152.719z"/>
<path style="fill:#3A556A;" d="M292.606,204.773c0-24.489-16.933-44.972-39.714-50.521v101.042  C275.673,249.746,292.606,229.262,292.606,204.773z"/>
<g>
	<path style="fill:#2F4859;" d="M359.867,273.412l11.781,14.1c25.066-20.947,38.852-51.692,37.906-84.284   c-0.886-29.543-14.241-57.561-36.64-76.871l-11.997,13.917c18.505,15.953,29.538,39.1,30.27,63.506   C391.972,230.66,380.578,256.105,359.867,273.412z"/>
	<path style="fill:#2F4859;" d="M333.162,244.634l11.781,14.1c16.116-13.466,24.961-33.211,24.367-54.182   c-0.569-18.989-9.153-37-23.552-49.415l-11.997,13.917c10.506,9.058,16.768,22.197,17.182,36.049   C351.417,220.393,344.924,234.806,333.162,244.634z"/>
	<path style="fill:#2F4859;" d="M300.334,228.926l11.781,14.1c11.257-9.409,17.473-23.206,17.024-37.854   c-0.398-13.269-6.397-25.854-16.454-34.526l-12,13.913c6.167,5.318,9.844,13.032,10.088,21.164   C311.058,214.733,307.236,223.156,300.334,228.926z"/>
</g>
<g>
</g>
<g>
</g>
<g>
</g>
<g>
</g>
<g>
</g>
<g>
</g>
<g>
</g>
<g>
</g>
<g>
</g>
<g>
</g>
<g>
</g>
<g>
</g>
<g>
</g>
<g>
</g>
<g>
</g>
</svg>
