<?xml version="1.0" encoding="iso-8859-1"?>
<!-- Generator: Adobe Illustrator 19.0.0, SVG Export Plug-In . SVG Version: 6.00 Build 0)  -->
<svg xmlns="http://www.w3.org/2000/svg" xmlns:xlink="http://www.w3.org/1999/xlink" version="1.1" id="Capa_1" x="0px" y="0px" viewBox="0 0 409.62 409.62" style="enable-background:new 0 0 409.62 409.62;" xml:space="preserve">
<path style="fill:#EBF0F3;" d="M293.571,355.684H33.983c-6.938,0-12.561-5.623-12.561-12.561c0-6.938,5.623-12.561,12.561-12.561  h259.588c9.695,0,17.585-7.89,17.585-17.585c0-9.695-7.89-17.585-17.585-17.585h-33.492V83.953  c0-15.466,12.585-28.051,28.051-28.051h78.294c6.938,0,12.561,5.623,12.561,12.561c0,6.938-5.623,12.561-12.561,12.561H288.13  c-1.614,0-2.929,1.315-2.929,2.929V270.27h8.371c23.547,0,42.707,19.16,42.707,42.707  C336.278,336.524,317.118,355.684,293.571,355.684z"/>
<polygon style="fill:#E1E6E9;" points="201.46,312.141 74.177,312.141 42.356,122.054 233.281,122.054 "/>
<g>
	<path style="fill:#64798A;" d="M209.968,322.192H65.67L30.485,112.003h214.663L209.968,322.192z M82.686,302.094h110.266   l28.458-169.993H54.223L82.686,302.094z"/>
	<path style="fill:#64798A;" d="M221.871,181.51H53.767c-5.549,0-10.049-4.499-10.049-10.049s4.499-10.049,10.049-10.049h168.104   c5.549,0,10.049,4.499,10.049,10.049S227.421,181.51,221.871,181.51z"/>
	<path style="fill:#64798A;" d="M216.847,230.272H58.791c-5.549,0-10.049-4.499-10.049-10.049c0-5.549,4.499-10.049,10.049-10.049   h158.056c5.549,0,10.049,4.499,10.049,10.049C226.896,225.772,222.396,230.272,216.847,230.272z"/>
	<path style="fill:#64798A;" d="M208.157,278.646H67.476c-5.549,0-10.049-4.499-10.049-10.049c0-5.549,4.499-10.049,10.049-10.049   h140.682c5.549,0,10.049,4.499,10.049,10.049C218.206,274.146,213.707,278.646,208.157,278.646z"/>
</g>
<path style="fill:#D15241;" d="M376.297,83.953l-76.863,0v-31h76.863c6.572,0,11.901,5.328,11.901,11.901v7.199  C388.198,78.624,382.87,83.953,376.297,83.953z"/>
<g>
	<circle style="fill:#3A556A;" cx="238.039" cy="382.822" r="26.798"/>
	<circle style="fill:#3A556A;" cx="113.316" cy="382.822" r="26.798"/>
</g>
<polygon style="fill:#F6C358;" points="108.677,43.807 131.374,43.807 131.374,0 153.051,0 153.051,43.807 176.513,43.807   142.595,105.905 "/>
<polygon style="fill:#FCD462;" points="131.374,0 131.374,43.807 108.677,43.807 142.595,105.905 142.595,0 "/>
<g>
</g>
<g>
</g>
<g>
</g>
<g>
</g>
<g>
</g>
<g>
</g>
<g>
</g>
<g>
</g>
<g>
</g>
<g>
</g>
<g>
</g>
<g>
</g>
<g>
</g>
<g>
</g>
<g>
</g>
</svg>
