<?xml version="1.0" encoding="iso-8859-1"?>
<!-- Generator: Adobe Illustrator 19.0.0, SVG Export Plug-In . SVG Version: 6.00 Build 0)  -->
<svg xmlns="http://www.w3.org/2000/svg" xmlns:xlink="http://www.w3.org/1999/xlink" version="1.1" id="Capa_1" x="0px" y="0px" viewBox="0 0 409.6 409.6" style="enable-background:new 0 0 409.6 409.6;" xml:space="preserve">
<g>
	<path style="fill:#EBF0F3;" d="M82.902,85.715l-10.273-9.561c28.534-30.661,68.904-48.242,110.765-48.242   c32.859,0,64.112,10.361,90.382,29.959l-8.388,11.249c-23.83-17.778-52.183-27.174-81.995-27.174   C145.419,41.947,108.788,57.9,82.902,85.715z"/>
	<path style="fill:#EBF0F3;" d="M93.448,287.251c-35.535-23.655-59.54-61.317-65.861-103.325l13.881-2.083   c5.729,38.095,27.509,72.259,59.754,93.732L93.448,287.251z"/>
	<path style="fill:#EBF0F3;" d="M251.074,303.403l-6.282-12.543c40.293-20.19,68.131-58.784,74.473-103.238l13.891,1.984   C326.167,238.616,295.484,281.157,251.074,303.403z"/>
	<rect x="253.338" y="170.752" style="fill:#EBF0F3;" width="13.21" height="8.806"/>
	<rect x="363.407" y="170.752" style="fill:#EBF0F3;" width="13.21" height="8.806"/>
</g>
<path style="fill:#3EA69B;" d="M399.289,58.365c0-2.485-2.014-4.5-4.5-4.5H242.487c-2.485,0-4.5,2.014-4.5,4.5v93.609h161.302  V58.365z"/>
<path style="fill:#31978C;" d="M237.987,149.28v19.786c0,2.788,2.014,5.047,4.5,5.047H394.79c2.485,0,4.5-2.26,4.5-5.047V149.28  H237.987z"/>
<rect x="246.784" y="62.669" style="fill:#D5D6DB;" width="143.718" height="99.41"/>
<path style="fill:#44C4A1;" d="M409.6,173.412v10.951c0,4.552-4.177,8.242-9.33,8.242H237.006c-5.153,0-9.33-3.69-9.33-8.242  v-10.951H409.6z"/>
<g>
	<path style="fill:#EBF0F3;" d="M336.072,186.859h-34.868c-1.514,0-2.752-1.239-2.752-2.752v-2.196c0-1.514,1.239-2.752,2.752-2.752   h34.868c1.514,0,2.752,1.239,2.752,2.752v2.196C338.825,185.621,337.586,186.859,336.072,186.859z"/>
	<circle style="fill:#EBF0F3;" cx="316.513" cy="58.194" r="3.277"/>
</g>
<g>
	<circle style="fill:#D5D6DB;" cx="316.513" cy="58.194" r="1.987"/>
	<path style="fill:#D5D6DB;" d="M327.704,186.859h-18.131c-1.514,0-2.752-1.239-2.752-2.752v-2.196c0-1.514,1.239-2.752,2.752-2.752   h18.131c1.514,0,2.752,1.239,2.752,2.752v2.196C330.456,185.621,329.217,186.859,327.704,186.859z"/>
</g>
<rect x="150.374" y="357.878" style="fill:#2F4859;" width="45.66" height="14.474"/>
<path style="fill:#64798A;" d="M254.849,242.248c0-2.516-2.039-4.555-4.555-4.555H96.109c-2.516,0-4.555,2.039-4.555,4.555v94.766  h163.295V242.248z"/>
<rect x="100.46" y="246.579" style="fill:#D5D6DB;" width="145.48" height="90.414"/>
<path style="fill:#64798A;" d="M91.554,337.014v17.857c0,2.516,2.039,4.555,4.555,4.555h154.184c2.516,0,4.555-2.039,4.555-4.555  v-17.857H91.554z"/>
<circle style="fill:#D5D6DB;" cx="173.199" cy="348.211" r="6.19"/>
<path style="fill:#64798A;" d="M201.569,371.322h-56.735c-5.724,0-10.365,4.641-10.365,10.365v0h77.465v0  C211.934,375.963,207.294,371.322,201.569,371.322z"/>
<path style="fill:#F6C358;" d="M78.53,187.968H3.463c-1.913,0-3.463-1.551-3.463-3.463V59.531c0-2.55,2.067-4.617,4.617-4.617  h74.256c2.078,0,3.762,1.684,3.762,3.762v125.186C82.635,186.13,80.797,187.968,78.53,187.968z"/>
<path style="fill:#D5D6DB;" d="M70.605,175.774H12.031c-1.598,0-2.894-1.296-2.894-2.894V71.224c0-1.598,1.296-2.894,2.894-2.894  h58.574c1.598,0,2.894,1.296,2.894,2.894V172.88C73.498,174.478,72.203,175.774,70.605,175.774z"/>
<ellipse style="fill:#FFFFFF;" cx="37.176" cy="181.791" rx="3.492" ry="3.82"/>
<ellipse style="fill:#EBF0F3;" cx="37.176" cy="181.791" rx="2.683" ry="2.929"/>
<path style="fill:#D5D6DB;" d="M37.553,183.633h-0.749c-0.712,0-1.292-0.639-1.292-1.423v-0.843c0-0.784,0.58-1.423,1.292-1.423  h0.749c0.712,0,1.292,0.639,1.292,1.423v0.843C38.845,182.994,38.265,183.633,37.553,183.633z M36.804,180.419  c-0.475,0-0.86,0.425-0.86,0.948v0.843c0,0.523,0.385,0.948,0.86,0.948h0.749c0.475,0,0.86-0.425,0.86-0.948v-0.843  c0-0.523-0.385-0.948-0.86-0.948H36.804z"/>
<path style="fill:#FFFFFF;" d="M48.367,64.059H30.604c-0.38,0-0.689-0.308-0.689-0.689v-0.353c0-0.38,0.308-0.689,0.689-0.689  h17.763c0.38,0,0.689,0.308,0.689,0.689v0.353C49.056,63.75,48.747,64.059,48.367,64.059z"/>
<g>
</g>
<g>
</g>
<g>
</g>
<g>
</g>
<g>
</g>
<g>
</g>
<g>
</g>
<g>
</g>
<g>
</g>
<g>
</g>
<g>
</g>
<g>
</g>
<g>
</g>
<g>
</g>
<g>
</g>
</svg>
