<?xml version="1.0" encoding="iso-8859-1"?>
<!-- Generator: Adobe Illustrator 19.0.0, SVG Export Plug-In . SVG Version: 6.00 Build 0)  -->
<svg xmlns="http://www.w3.org/2000/svg" xmlns:xlink="http://www.w3.org/1999/xlink" version="1.1" id="Capa_1" x="0px" y="0px" viewBox="0 0 409.605 409.605" style="enable-background:new 0 0 409.605 409.605;" xml:space="preserve">
<g>
	
		<rect x="125.47" y="121.531" transform="matrix(-0.8562 0.5166 -0.5166 -0.8562 520.5074 122.6507)" style="fill:#DC8744;" width="235.433" height="24.453"/>
	
		<rect x="230.954" y="167.659" transform="matrix(-0.5165 0.8563 -0.8563 -0.5165 613.1459 224.5352)" style="fill:#DC8744;" width="24.453" height="235.432"/>
</g>
<circle style="fill:#D15241;" cx="88.003" cy="194.552" r="88.003"/>
<circle style="fill:#FCD462;" cx="344.003" cy="68.16" r="65.603"/>
<circle style="fill:#3EA69B;" cx="344.003" cy="341.445" r="65.603"/>
<path style="fill:#E56353;" d="M87.99,282.558c48.601,0,88-39.399,88-88s-39.399-88-88-88V282.558z"/>
<path style="fill:#F6C358;" d="M343.99,133.758c36.23,0,65.6-29.37,65.6-65.6s-29.37-65.6-65.6-65.6V133.758z"/>
<path style="fill:#31978C;" d="M343.99,407.027c36.23,0,65.6-29.37,65.6-65.6s-29.37-65.6-65.6-65.6V407.027z"/>
<g>
</g>
<g>
</g>
<g>
</g>
<g>
</g>
<g>
</g>
<g>
</g>
<g>
</g>
<g>
</g>
<g>
</g>
<g>
</g>
<g>
</g>
<g>
</g>
<g>
</g>
<g>
</g>
<g>
</g>
</svg>
