<?xml version="1.0" encoding="iso-8859-1"?>
<!-- Generator: Adobe Illustrator 19.0.0, SVG Export Plug-In . SVG Version: 6.00 Build 0)  -->
<svg xmlns="http://www.w3.org/2000/svg" xmlns:xlink="http://www.w3.org/1999/xlink" version="1.1" id="Capa_1" x="0px" y="0px" viewBox="0 0 409.6 409.6" style="enable-background:new 0 0 409.6 409.6;" xml:space="preserve">
<path style="fill:#31978C;" d="M362.042,71.028c-0.196-1.546-1.355-2.816-2.617-2.835l-20.564-0.319  c-2.688-7.072-6.39-13.573-10.927-19.376l9.26-17.859c0.581-1.121,0.013-2.743-1.256-3.648L316.95,13.449  c-1.269-0.905-2.988-0.914-3.858,0.001L300.49,26.69c-7.224-3.362-15.019-5.584-23.165-6.489l-4.996-18.34  c-0.332-1.218-1.849-2.026-3.396-1.832l-23.141,2.902c-1.547,0.194-2.817,1.352-2.837,2.614l-0.312,19.006  c-7.343,2.765-14.073,6.627-20.049,11.377l-16.4-9.224c-1.1-0.619-2.741-0.106-3.689,1.132l-14.179,18.516  c-0.948,1.238-1.015,2.955-0.131,3.856l12.897,13.14c-3.259,7.094-5.423,14.734-6.321,22.71l-19.434,5.597  c-1.213,0.35-2,1.878-1.784,3.422l3.238,23.096c0.216,1.544,1.393,2.797,2.655,2.8l19.721,0.038  c2.76,7.278,6.596,13.952,11.308,19.883L199.8,158.638c-0.651,1.081-0.187,2.737,1.023,3.72l18.093,14.716  c1.21,0.984,2.925,1.101,3.851,0.243l15.794-14.619c6.842,3.064,14.177,5.114,21.827,5.999l5.618,20.622  c0.332,1.218,1.848,2.026,3.395,1.832l23.141-2.902c1.547-0.194,2.817-1.352,2.838-2.614l0.351-21.37  c7.148-2.729,13.711-6.496,19.557-11.114l16.822,10.301c1.077,0.659,2.735,0.208,3.728-0.993l14.857-17.977  c0.993-1.201,1.123-2.916,0.273-3.849L337.06,125.37c3.188-6.999,5.311-14.522,6.207-22.375l19.869-5.432  c1.217-0.333,2.025-1.851,1.829-3.397L362.042,71.028z"/>
<g transform="matrix(0.99223 -0.12445 0.12445 0.99223 -3.054 8)">
	
		<ellipse transform="matrix(-0.9922 -0.1244 0.1244 -0.9922 501.4739 270.5919)" style="fill:#DC8744;" cx="259.188" cy="119.633" rx="48.425" ry="48.425"/>
	
		<ellipse transform="matrix(-0.9922 -0.1244 0.1244 -0.9922 501.4739 270.5919)" style="fill:#EBF0F3;" cx="259.188" cy="119.633" rx="28.6" ry="28.6"/>
</g>
<path style="fill:#FCD462;" d="M302.404,263.535c-0.002-2.115-1.349-4.019-3.044-4.259l-25.967-3.667  c-2.506-10.589-6.644-20.519-12.137-29.563l14.517-21.079c0.971-1.41,0.48-3.69-1.075-5.123l-23.274-21.435  c-1.555-1.433-3.868-1.735-5.194-0.651l-17.927,14.655c-9.582-6.081-20.218-10.611-31.598-13.267l-3.393-23.87  c-0.241-1.696-2.146-3.04-4.261-3.04h-31.641c-2.115,0-4.021,1.345-4.262,3.04l-3.393,23.87  c-10.948,2.555-21.196,6.858-30.493,12.596l-19.173-14.189c-1.377-1.019-3.672-0.606-5.157,0.9l-22.214,22.532  c-1.485,1.506-1.865,3.807-0.827,5.169l14.133,18.541c-5.939,9.449-10.378,19.908-13.003,31.091l-25.438,3.993  c-1.692,0.266-3.009,2.19-2.978,4.305l0.459,31.638c0.031,2.114,1.403,4,3.102,4.217l24.886,3.17  c2.557,10.832,6.822,20.977,12.497,30.188L69.205,354.08c-1.059,1.346-0.713,3.653,0.749,5.181l21.872,22.865  c1.462,1.528,3.751,1.975,5.143,0.978l22.359-16.031c9.15,5.638,19.224,9.879,29.976,12.44l3.844,27.047  c0.241,1.696,2.147,3.04,4.262,3.04h31.641c2.115,0,4.02-1.345,4.261-3.04l3.844-27.047c10.656-2.539,20.644-6.728,29.729-12.29  l19.616,15.677c1.338,1.069,3.647,0.742,5.187-0.708l23.035-21.692c1.539-1.45,2.004-3.735,1.018-5.135l-15.169-21.511  c5.838-9.342,10.212-19.663,12.821-30.693l26.002-3.72c1.695-0.242,3.038-2.149,3.037-4.264L302.404,263.535z"/>
<circle style="fill:#2F4859;" cx="173.23" cy="279.398" r="65.7"/>
<circle style="fill:#EBF0F3;" cx="173.23" cy="279.398" r="38.799"/>
<g>
</g>
<g>
</g>
<g>
</g>
<g>
</g>
<g>
</g>
<g>
</g>
<g>
</g>
<g>
</g>
<g>
</g>
<g>
</g>
<g>
</g>
<g>
</g>
<g>
</g>
<g>
</g>
<g>
</g>
</svg>
