<?xml version="1.0" encoding="iso-8859-1"?>
<!-- Generator: Adobe Illustrator 19.0.0, SVG Export Plug-In . SVG Version: 6.00 Build 0)  -->
<svg xmlns="http://www.w3.org/2000/svg" xmlns:xlink="http://www.w3.org/1999/xlink" version="1.1" id="Capa_1" x="0px" y="0px" viewBox="0 0 409.62 409.62" style="enable-background:new 0 0 409.62 409.62;" xml:space="preserve">
<g>
	<rect x="200.704" y="279.921" style="fill:#3A556A;" width="15.672" height="73.83"/>
	<path style="fill:#3A556A;" d="M154.644,365.173H30.232c-4.328,0-7.837-3.505-7.837-7.837c0-4.332,3.509-7.837,7.837-7.837h124.411   c4.328,0,7.837,3.505,7.837,7.837C162.481,361.668,158.972,365.173,154.644,365.173z"/>
	<path style="fill:#3A556A;" d="M386.813,365.173H262.402c-4.328,0-7.837-3.505-7.837-7.837c0-4.332,3.509-7.837,7.837-7.837   h124.411c4.328,0,7.837,3.505,7.837,7.837C394.65,361.668,391.141,365.173,386.813,365.173z"/>
</g>
<g>
	<path style="fill:#64798A;" d="M253.762,378.887h-90.478c-4.772,0-8.64-3.868-8.64-8.64v-25.823c0-4.772,3.868-8.64,8.64-8.64   h90.478c4.772,0,8.64,3.868,8.64,8.64v25.823C262.402,375.019,258.533,378.887,253.762,378.887z"/>
	<circle style="fill:#64798A;" cx="22.395" cy="358.18" r="22.395"/>
	<circle style="fill:#64798A;" cx="387.226" cy="357.335" r="22.395"/>
</g>
<path style="fill:#F6C358;" d="M363.228,147.112H59.401c-16.732,0-30.295-13.564-30.295-30.295V59.341  c0-16.732,13.564-30.295,30.295-30.295h303.827c16.732,0,30.295,13.564,30.295,30.295v57.475  C393.523,133.548,379.96,147.112,363.228,147.112z"/>
<path style="fill:#FCD462;" d="M58.98,29.046c-16.499,0-29.875,13.375-29.875,29.875v58.317c0,16.499,13.375,29.875,29.875,29.875  h149.033V29.046H58.98z"/>
<g>
	<circle style="fill:#D5D6DB;" cx="91.31" cy="88.074" r="37.176"/>
	<circle style="fill:#D5D6DB;" cx="333.773" cy="88.074" r="37.176"/>
</g>
<path style="fill:#D15241;" d="M363.228,288.42H59.401c-16.732,0-30.295-13.564-30.295-30.295v-57.475  c0-16.732,13.564-30.295,30.295-30.295h303.827c16.732,0,30.295,13.564,30.295,30.295v57.475  C393.523,274.856,379.96,288.42,363.228,288.42z"/>
<path style="fill:#E56353;" d="M58.843,170.354c-16.423,0-29.737,13.314-29.737,29.737v58.592c0,16.423,13.314,29.737,29.737,29.737  h149.171V170.354H58.843z"/>
<g>
	<circle style="fill:#D5D6DB;" cx="91.31" cy="229.386" r="37.176"/>
	<circle style="fill:#D5D6DB;" cx="333.773" cy="229.386" r="37.176"/>
	<rect x="139.725" y="72.714" style="fill:#D5D6DB;" width="145.178" height="30.71"/>
	<rect x="139.725" y="217.917" style="fill:#D5D6DB;" width="145.178" height="30.71"/>
</g>
<g>
</g>
<g>
</g>
<g>
</g>
<g>
</g>
<g>
</g>
<g>
</g>
<g>
</g>
<g>
</g>
<g>
</g>
<g>
</g>
<g>
</g>
<g>
</g>
<g>
</g>
<g>
</g>
<g>
</g>
</svg>
