<?xml version="1.0" encoding="iso-8859-1"?>
<!-- Generator: Adobe Illustrator 19.0.0, SVG Export Plug-In . SVG Version: 6.00 Build 0)  -->
<svg xmlns="http://www.w3.org/2000/svg" xmlns:xlink="http://www.w3.org/1999/xlink" version="1.1" id="Capa_1" x="0px" y="0px" viewBox="0 0 409.6 409.6" style="enable-background:new 0 0 409.6 409.6;" xml:space="preserve">
<path style="fill:#3EA69B;" d="M335.28,250.593H48.8c-16.732,0-30.295,13.564-30.295,30.295v51.855  c0,16.732,13.564,30.295,30.295,30.295h286.48c16.732,0,30.295-13.564,30.295-30.295v-51.855  C365.575,264.157,352.012,250.593,335.28,250.593z"/>
<path style="fill:#44C4A1;" d="M49.714,250.593c-17.236,0-31.209,13.972-31.209,31.209v50.028c0,17.236,13.972,31.209,31.209,31.209  h139.182V250.593H49.714z"/>
<g>
	<circle style="fill:#D5D6DB;" cx="77.773" cy="306.816" r="35.405"/>
	<circle style="fill:#D5D6DB;" cx="308.685" cy="306.816" r="35.405"/>
</g>
<path style="fill:#F6C358;" d="M335.28,126.2H48.8c-16.732,0-30.295,13.564-30.295,30.295v51.855  c0,16.732,13.564,30.295,30.295,30.295h286.48c16.732,0,30.295-13.564,30.295-30.295v-51.855  C365.575,139.763,352.012,126.2,335.28,126.2z"/>
<path style="fill:#FCD462;" d="M49.588,126.2c-17.167,0-31.083,13.917-31.083,31.083v50.279c0,17.167,13.916,31.083,31.083,31.083  h139.308V126.2H49.588z"/>
<g>
	<circle style="fill:#D5D6DB;" cx="77.773" cy="182.42" r="35.405"/>
	<circle style="fill:#D5D6DB;" cx="308.685" cy="182.42" r="35.405"/>
</g>
<path style="fill:#D15241;" d="M335.28,0H48.8C32.069,0,18.505,13.564,18.505,30.295V82.15c0,16.732,13.564,30.295,30.295,30.295  h286.48c16.732,0,30.295-13.564,30.295-30.295V30.295C365.575,13.564,352.012,0,335.28,0z"/>
<path style="fill:#E56353;" d="M49.003,0C32.159,0,18.505,13.654,18.505,30.498v51.45c0,16.843,13.654,30.498,30.498,30.498h139.893  V0H49.003z"/>
<g>
	<circle style="fill:#D5D6DB;" cx="77.773" cy="56.223" r="35.405"/>
	<circle style="fill:#D5D6DB;" cx="308.685" cy="56.223" r="35.405"/>
</g>
<path style="fill:#CE412D;" d="M201.891,217.896c0,0-4.095,132.526,93.805,191.704c0,0,88.731-38.341,95.399-191.704l-95.399-35.84  L201.891,217.896z"/>
<path style="fill:#D15241;" d="M295.696,409.6c-97.9-59.178-93.805-191.704-93.805-191.704l93.805-35.84V409.6z"/>
<path style="fill:#D5D6DB;" d="M229.956,241.018c0,0-2.88,93.205,65.973,134.825c0,0,62.404-26.965,67.094-134.825l-67.094-25.206  L229.956,241.018z"/>
<path style="fill:#E1E6E9;" d="M295.929,215.812l-65.973,25.206c0,0-2.88,93.205,65.973,134.825V215.812z"/>
<g>
</g>
<g>
</g>
<g>
</g>
<g>
</g>
<g>
</g>
<g>
</g>
<g>
</g>
<g>
</g>
<g>
</g>
<g>
</g>
<g>
</g>
<g>
</g>
<g>
</g>
<g>
</g>
<g>
</g>
</svg>
