<?xml version="1.0" encoding="iso-8859-1"?>
<!-- Generator: Adobe Illustrator 19.0.0, SVG Export Plug-In . SVG Version: 6.00 Build 0)  -->
<svg xmlns="http://www.w3.org/2000/svg" xmlns:xlink="http://www.w3.org/1999/xlink" version="1.1" id="Capa_1" x="0px" y="0px" viewBox="0 0 409.6 409.6" style="enable-background:new 0 0 409.6 409.6;" xml:space="preserve">
<path style="fill:#3EA69B;" d="M360.063,132.662H30.295C13.564,132.662,0,119.098,0,102.366V46.302  C0,29.57,13.564,16.007,30.295,16.007h329.768V132.662z"/>
<rect y="15.985" style="fill:#44C4A1;" width="176.768" height="116.654"/>
<circle style="fill:#D5D6DB;" cx="61.44" cy="74.333" r="36.731"/>
<path style="fill:#F6C358;" d="M360.063,262.648H30.295C13.564,262.648,0,249.084,0,232.352v-56.065  c0-16.732,13.564-30.295,30.295-30.295h329.768V262.648z"/>
<rect y="145.992" style="fill:#FCD462;" width="176.768" height="116.654"/>
<circle style="fill:#D5D6DB;" cx="61.44" cy="204.319" r="36.731"/>
<path style="fill:#D15241;" d="M360.063,393.615H30.295C13.564,393.615,0,380.051,0,363.32v-56.065  c0-16.732,13.564-30.295,30.295-30.295h329.623c0.08,0,0.145,0.065,0.145,0.145V393.615z"/>
<rect y="276.951" style="fill:#E56353;" width="176.768" height="116.654"/>
<g>
	<circle style="fill:#D5D6DB;" cx="61.44" cy="335.268" r="36.731"/>
	<circle style="fill:#D5D6DB;" cx="301.046" cy="335.268" r="36.731"/>
</g>
<path style="fill:#DC8744;" d="M394.269,393.615H242.545c-10.106,0-18.298-8.192-18.298-18.298V241.37H409.6v136.914  C409.6,386.751,402.736,393.615,394.269,393.615z"/>
<g>
	<ellipse style="fill:#D5D6DB;" cx="316.923" cy="288.318" rx="16.712" ry="18.99"/>
	<rect x="307.046" y="300.504" style="fill:#D5D6DB;" width="19.753" height="47.478"/>
</g>
<g>
	<rect x="224.246" y="223.596" style="fill:#EBF0F3;" width="185.344" height="17.777"/>
	<path style="fill:#EBF0F3;" d="M379.784,223.595h-22.789v-45.294c0-5.813-4.729-10.54-10.54-10.54h-60.391   c-5.811,0-10.54,4.727-10.54,10.54v45.294h-22.789v-45.294c0-18.378,14.951-33.329,33.329-33.329h60.391   c18.378,0,33.329,14.951,33.329,33.329V223.595z"/>
</g>
<g>
</g>
<g>
</g>
<g>
</g>
<g>
</g>
<g>
</g>
<g>
</g>
<g>
</g>
<g>
</g>
<g>
</g>
<g>
</g>
<g>
</g>
<g>
</g>
<g>
</g>
<g>
</g>
<g>
</g>
</svg>
