<?xml version="1.0" encoding="iso-8859-1"?>
<!-- Generator: Adobe Illustrator 19.0.0, SVG Export Plug-In . SVG Version: 6.00 Build 0)  -->
<svg xmlns="http://www.w3.org/2000/svg" xmlns:xlink="http://www.w3.org/1999/xlink" version="1.1" id="Capa_1" x="0px" y="0px" viewBox="0 0 409.6 409.6" style="enable-background:new 0 0 409.6 409.6;" xml:space="preserve">
<path style="fill:#2D93BA;" d="M245.117,145.028c-27.601-11.99-38.601,6.211-38.601,6.211  c-31.374-4.799-32.852,21.849-32.852,21.849c-9.026,3.223-18.241,11.205-18.241,20.541c0,12.187,10.884,22.066,24.311,22.066h69.544  c7.912-1.195,24.311-9.879,24.311-22.066c0-9.336-5.32-20.392-14.345-23.616C259.243,170.014,260.064,151.521,245.117,145.028z"/>
<path style="fill:#27A2DB;" d="M179.733,215.695c-13.426,0-24.311-9.879-24.311-22.066c0-9.336,9.215-17.318,18.241-20.541  c0,0,1.478-26.648,32.852-21.849c0,0,4.596-7.605,15.301-9.745v74.201H179.733z"/>
<g>
	<rect x="63.324" y="107.146" style="fill:#EBF0F3;" width="12.109" height="8.069"/>
	<rect x="164.198" y="107.146" style="fill:#EBF0F3;" width="12.109" height="8.069"/>
</g>
<g>
	<path style="fill:#64798A;" d="M197.108,4.124c0-2.278-1.846-4.124-4.124-4.124H53.381c-2.278,0-4.124,1.846-4.124,4.124v85.803   h147.851V4.124z"/>
	<path style="fill:#64798A;" d="M49.257,87.458v18.136c0,2.555,1.846,4.626,4.124,4.626h139.602c2.278,0,4.124-2.071,4.124-4.626   V87.458H49.257z"/>
</g>
<rect x="57.344" y="8.064" style="fill:#D5D6DB;" width="131.722" height="91.121"/>
<path style="fill:#3A556A;" d="M206.559,109.578v10.038c0,4.172-3.829,7.555-8.552,7.555H48.358c-4.723,0-8.552-3.382-8.552-7.555  v-10.038H206.559z"/>
<g>
	<path style="fill:#EBF0F3;" d="M139.259,121.903h-32.154c-1.334,0-2.426-1.092-2.426-2.426v-2.206c0-1.334,1.092-2.426,2.426-2.426   h32.154c1.334,0,2.426,1.092,2.426,2.426v2.206C141.685,120.811,140.594,121.903,139.259,121.903z"/>
	<circle style="fill:#EBF0F3;" cx="121.236" cy="3.968" r="3.005"/>
</g>
<g>
	<circle style="fill:#D5D6DB;" cx="121.236" cy="3.968" r="1.823"/>
	<path style="fill:#D5D6DB;" d="M131.588,121.903h-16.812c-1.334,0-2.426-1.092-2.426-2.426v-2.206c0-1.334,1.092-2.426,2.426-2.426   h16.812c1.334,0,2.426,1.092,2.426,2.426v2.206C134.015,120.811,132.923,121.903,131.588,121.903z"/>
</g>
<path style="fill:#F6C358;" d="M319.177,237.648h39.432c6.178,0,11.185,5.518,11.185,12.326v147.301  c0,6.807-5.008,12.326-11.185,12.326h-39.432"/>
<path style="fill:#FCD462;" d="M319.177,409.6h-39.432c-6.178,0-11.185-5.518-11.185-12.326V249.973  c0-6.807,5.008-12.326,11.185-12.326h39.432"/>
<path style="fill:#D5D6DB;" d="M357.653,253.553H282.47c-2.421,0-4.383,1.962-4.383,4.383v131.375c0,2.421,1.962,4.383,4.383,4.383  h75.183c2.421,0,4.383-1.963,4.383-4.383V257.936C362.036,255.515,360.074,253.553,357.653,253.553z"/>
<ellipse style="fill:#FFFFFF;" cx="317.051" cy="401.562" rx="4.557" ry="4.982"/>
<ellipse style="fill:#EBF0F3;" cx="317.051" cy="401.562" rx="3.497" ry="3.825"/>
<path style="fill:#D5D6DB;" d="M317.541,403.946h-0.978c-0.928,0-1.685-0.834-1.685-1.856v-1.099c0-1.023,0.757-1.856,1.685-1.856  h0.978c0.928,0,1.685,0.834,1.685,1.856v1.099C319.226,403.112,318.469,403.946,317.541,403.946z M316.563,399.754  c-0.619,0-1.122,0.554-1.122,1.236v1.099c0,0.683,0.503,1.236,1.122,1.236h0.978c0.619,0,1.122-0.554,1.122-1.236v-1.099  c0-0.683-0.503-1.236-1.122-1.236H316.563z"/>
<path style="fill:#FFFFFF;" d="M331.768,247.981h-23.413c-0.428,0-0.776-0.347-0.776-0.776V246.5c0-0.428,0.347-0.776,0.776-0.776  h23.413c0.428,0,0.776,0.347,0.776,0.776v0.705C332.544,247.634,332.197,247.981,331.768,247.981z"/>
<g>
	<polygon style="fill:#EBF0F3;" points="146.822,196.597 89.412,196.597 89.412,153.884 96.76,153.884 96.76,189.249    146.822,189.249  "/>
	<polygon style="fill:#EBF0F3;" points="115.591,162.61 93.086,133.216 70.581,162.61  "/>
	<polygon style="fill:#EBF0F3;" points="323.736,215.693 316.388,215.693 316.388,187.871 281.391,187.871 281.391,180.522    323.736,180.522  "/>
	<polygon style="fill:#EBF0F3;" points="296.672,205.783 319.177,235.177 341.681,205.783  "/>
</g>
<g>
</g>
<g>
</g>
<g>
</g>
<g>
</g>
<g>
</g>
<g>
</g>
<g>
</g>
<g>
</g>
<g>
</g>
<g>
</g>
<g>
</g>
<g>
</g>
<g>
</g>
<g>
</g>
<g>
</g>
</svg>
