<?xml version="1.0" encoding="iso-8859-1"?>
<!-- Generator: Adobe Illustrator 19.0.0, SVG Export Plug-In . SVG Version: 6.00 Build 0)  -->
<svg xmlns="http://www.w3.org/2000/svg" xmlns:xlink="http://www.w3.org/1999/xlink" version="1.1" id="Capa_1" x="0px" y="0px" viewBox="0 0 409.6 409.6" style="enable-background:new 0 0 409.6 409.6;" xml:space="preserve">
<path style="fill:#3A556A;" d="M400.39,166.678H9.21c-5.086,0-9.21-4.123-9.21-9.21v-71.28c0-5.086,4.123-9.21,9.21-9.21h391.18  c5.087,0,9.21,4.123,9.21,9.21v71.28C409.6,162.554,405.477,166.678,400.39,166.678z"/>
<path style="fill:#FCD462;" d="M372.814,166.678c0,91.649-74.296,165.945-165.945,165.945S40.925,258.326,40.925,166.678"/>
<circle style="fill:#64798A;" cx="206.848" cy="257.075" r="66.319"/>
<circle style="fill:#3A556A;" cx="206.848" cy="257.075" r="48.179"/>
<circle style="fill:#64798A;" cx="206.848" cy="257.075" r="29.635"/>
<circle style="fill:#27A2DB;" cx="206.848" cy="257.075" r="15.462"/>
<g>
	<circle style="fill:#FFFFFF;" cx="217.139" cy="246.784" r="5.652"/>
	<circle style="fill:#FFFFFF;" cx="196.71" cy="267.213" r="3.564"/>
</g>
<rect x="40.924" y="166.676" style="fill:#F6C358;" width="331.264" height="14.566"/>
<g>
</g>
<g>
</g>
<g>
</g>
<g>
</g>
<g>
</g>
<g>
</g>
<g>
</g>
<g>
</g>
<g>
</g>
<g>
</g>
<g>
</g>
<g>
</g>
<g>
</g>
<g>
</g>
<g>
</g>
</svg>
