<?xml version="1.0" encoding="iso-8859-1"?>
<!-- Generator: Adobe Illustrator 19.0.0, SVG Export Plug-In . SVG Version: 6.00 Build 0)  -->
<svg xmlns="http://www.w3.org/2000/svg" xmlns:xlink="http://www.w3.org/1999/xlink" version="1.1" id="Capa_1" x="0px" y="0px" viewBox="0 0 412.033 412.033" style="enable-background:new 0 0 412.033 412.033;" xml:space="preserve">
<g>
	<path style="fill:#3A556A;" d="M304.953,67.803l1.104-14.231c25.301,1.965,47.877,15.213,61.961,36.266   c12.748,19.097,16.918,42.846,11.442,65.158l-13.862-3.403c4.525-18.433,1.08-38.053-9.452-53.83   C344.533,80.398,325.858,69.427,304.953,67.803z"/>
	<path style="fill:#3A556A;" d="M301.016,98.048l1.105-14.231c16.267,1.262,30.759,9.774,39.831,23.315   c8.195,12.274,10.876,27.541,7.356,41.885l-13.862-3.403c2.569-10.465,0.612-21.603-5.366-30.556   C323.491,105.166,312.888,98.969,301.016,98.048z"/>
	<path style="fill:#3A556A;" d="M287.315,122.779l1.104-14.231c11.364,0.884,21.513,6.815,27.828,16.289   c5.726,8.577,7.599,19.245,5.141,29.264l-13.863-3.399c1.507-6.144,0.359-12.683-3.15-17.939   C300.497,126.93,294.284,123.321,287.315,122.779z"/>
</g>
<path style="fill:#E56353;" d="M199.459,128.144l-67.721,53.584c-2.864,2.266-7.023,1.782-9.29-1.083L30.391,64.302  c-2.266-2.864-1.782-7.023,1.083-9.29L99.194,1.427c2.864-2.266,7.023-1.782,9.29,1.083l92.058,116.345  C202.808,121.719,202.324,125.878,199.459,128.144z"/>
<path style="fill:#D15241;" d="M167.564,153.382l-33.398,26.427c-4.204,3.327-10.31,2.615-13.637-1.589L32.311,66.728  c-3.327-4.204-2.615-10.31,1.589-13.637l33.398-26.427L167.564,153.382z"/>
<path style="fill:#FCD462;" d="M210.089,277.068l72.405-57.291l-72.285-91.354l-72.405,57.291  c-3.141,2.486-3.673,7.047-1.187,10.189l63.283,79.978C202.386,279.022,206.948,279.554,210.089,277.068z"/>
<path style="fill:#F6C358;" d="M170.917,159.514l-30.451,24.095c-4.611,3.649-5.392,10.345-1.743,14.956l59.071,74.655  c3.649,4.611,10.345,5.392,14.956,1.743l30.451-24.095L170.917,159.514z"/>
<polygon style="fill:#FCD462;" points="190.411,263.888 167.758,274.624 130.45,227.473 146.107,207.896 "/>
<g>
	
		<rect x="127.719" y="153.234" transform="matrix(-0.7842 0.6205 -0.6205 -0.7842 398.6345 174.7215)" style="fill:#64798A;" width="82.432" height="6.892"/>
	
		<rect x="204.273" y="249.999" transform="matrix(-0.7842 0.6205 -0.6205 -0.7842 595.2657 299.8682)" style="fill:#64798A;" width="82.432" height="6.892"/>
</g>
<path style="fill:#E56353;" d="M380.559,357.021l-67.721,53.584c-2.864,2.266-7.023,1.782-9.29-1.083l-92.058-116.345  c-2.266-2.864-1.782-7.023,1.083-9.29l67.721-53.584c2.864-2.266,7.023-1.782,9.29,1.083l92.058,116.345  C383.908,350.595,383.424,354.754,380.559,357.021z"/>
<path style="fill:#D15241;" d="M348.664,382.258l-33.398,26.427c-4.204,3.327-10.31,2.615-13.637-1.589l-88.218-111.491  c-3.327-4.204-2.615-10.31,1.589-13.637l33.398-26.427L348.664,382.258z"/>
<path style="fill:#64798A;" d="M309.272,198.952c-14.692,11.625-42.653,0.764-62.453-24.26s-23.941-54.733-9.249-66.358"/>
<ellipse transform="matrix(-0.6205 -0.7842 0.7842 -0.6205 322.617 463.3762)" style="fill:#3A556A;" cx="273.427" cy="153.627" rx="57.779" ry="4.603"/>
<g>
</g>
<g>
</g>
<g>
</g>
<g>
</g>
<g>
</g>
<g>
</g>
<g>
</g>
<g>
</g>
<g>
</g>
<g>
</g>
<g>
</g>
<g>
</g>
<g>
</g>
<g>
</g>
<g>
</g>
</svg>
