<?xml version="1.0" encoding="iso-8859-1"?>
<!-- Generator: Adobe Illustrator 19.0.0, SVG Export Plug-In . SVG Version: 6.00 Build 0)  -->
<svg xmlns="http://www.w3.org/2000/svg" xmlns:xlink="http://www.w3.org/1999/xlink" version="1.1" id="Capa_1" x="0px" y="0px" viewBox="0 0 409.6 409.6" style="enable-background:new 0 0 409.6 409.6;" xml:space="preserve">
<rect x="277.197" y="374.579" style="fill:#3A556A;" width="57.856" height="18.34"/>
<path style="fill:#64798A;" d="M409.6,228.078c0-3.188-2.584-5.772-5.772-5.772H208.466c-3.188,0-5.772,2.584-5.772,5.772v120.075  H409.6V228.078z"/>
<rect x="213.98" y="233.595" style="fill:#D5D6DB;" width="184.32" height="114.56"/>
<path style="fill:#64798A;" d="M202.694,348.153v22.627c0,3.188,2.584,5.772,5.772,5.772h195.362c3.188,0,5.772-2.584,5.772-5.772  v-22.627H202.694z"/>
<circle style="fill:#EBF0F3;" cx="306.145" cy="362.342" r="7.844"/>
<path style="fill:#64798A;" d="M342.091,391.624h-71.887c-7.253,0-13.133,5.88-13.133,13.133v0h98.154v0  C355.224,397.504,349.344,391.624,342.091,391.624z"/>
<path style="fill:#2F4859;" d="M68.428,90.01l-36.446,14.201c-2.476,0.965-5.266-0.26-6.231-2.737l-1.468-3.768  c-0.965-2.476,0.26-5.266,2.737-6.231l36.446-14.201c2.476-0.965,5.266,0.26,6.231,2.737l1.468,3.768  C72.13,86.256,70.904,89.046,68.428,90.01z"/>
<path style="fill:#FCD462;" d="M90.17,10.31C59.343,22.232,44.018,56.887,55.94,87.713s46.576,46.152,77.403,34.231L90.17,10.31z"/>
<path style="fill:#F6C358;" d="M90.171,10.311c-3.097,1.198,4.058,27.158,15.979,57.985c11.922,30.827,24.097,54.846,27.193,53.648  L90.171,10.311z"/>
<ellipse transform="matrix(-0.4057 -0.914 0.914 -0.4057 91.6367 194.9741)" style="fill:#3A556A;" cx="109.206" cy="67.695" rx="5.898" ry="1.751"/>
<g>
	<path style="fill:#64798A;" d="M30.021,167.134h-4.624c-3.039,0-5.503-2.464-5.503-5.503V83.965c0-3.039,2.464-5.503,5.503-5.503   h4.624c3.039,0,5.503,2.464,5.503,5.503v77.666C35.524,164.67,33.06,167.134,30.021,167.134z"/>
	<path style="fill:#64798A;" d="M106.496,64.798l68.702-28.505c1.685-0.693,3.632,0.1,4.335,1.793   c0.703,1.693-0.1,3.634-1.795,4.337l-68.702,28.505"/>
</g>
<g>
	<ellipse style="fill:#EBF0F3;" cx="176.485" cy="39.227" rx="5.412" ry="5.412"/>
	<path style="fill:#EBF0F3;" d="M159.088,36.072c-0.631,0-1.269-0.178-1.835-0.55c-1.547-1.016-1.976-3.091-0.962-4.638   c9.564-14.577,22.016-12.297,27.253-9.057c1.573,0.971,2.061,3.035,1.089,4.609c-0.965,1.565-3.019,2.054-4.589,1.102   c-1.021-0.605-9.993-5.408-18.153,7.023C161.247,35.54,160.177,36.072,159.088,36.072z"/>
	<path style="fill:#EBF0F3;" d="M148.059,28.123c-0.517,0-1.043-0.119-1.534-0.375c-1.645-0.849-2.286-2.87-1.439-4.512   c4.73-9.145,11.095-14.961,18.925-17.285c11.85-3.518,22.537,2.437,22.985,2.689c1.609,0.914,2.172,2.959,1.256,4.568   c-0.909,1.603-2.95,2.169-4.556,1.263c-0.111-0.064-8.769-4.803-17.839-2.079c-5.989,1.797-10.974,6.481-14.817,13.919   C150.443,27.463,149.272,28.123,148.059,28.123z"/>
	<path style="fill:#EBF0F3;" d="M177.026,58.562c-3.693,0-6.882-1.125-8.952-2.402c-1.573-0.971-2.061-3.035-1.089-4.609   c0.962-1.568,3.012-2.062,4.586-1.107c0.998,0.595,9.98,5.417,18.154-7.031c1.011-1.547,3.088-1.979,4.638-0.965   c1.547,1.016,1.976,3.091,0.962,4.638C189.537,55.911,182.691,58.562,177.026,58.562z"/>
	<path style="fill:#EBF0F3;" d="M179.819,73.136c-8.383,0-14.84-3.591-15.187-3.789c-1.609-0.913-2.175-2.957-1.263-4.565   c0.913-1.606,2.95-2.175,4.56-1.266c0.2,0.111,8.809,4.782,17.843,2.067c5.986-1.802,10.967-6.488,14.807-13.927   c0.847-1.644,2.862-2.29,4.514-1.441c1.642,0.849,2.286,2.869,1.439,4.512c-4.723,9.147-11.085,14.966-18.912,17.295   C184.925,72.825,182.289,73.136,179.819,73.136z"/>
	<path style="fill:#EBF0F3;" d="M59.467,173.532H4.435c-2.45,0-4.435-1.986-4.435-4.435v-3.727c0-2.45,1.986-4.435,4.435-4.435   h55.032c2.45,0,4.435,1.986,4.435,4.435v3.727C63.903,171.546,61.917,173.532,59.467,173.532z"/>
</g>
<g>
	<polygon style="fill:#2F4859;" points="350.809,210.014 336.361,210.014 336.361,46.441 220.777,46.441 220.777,31.993    350.809,31.993  "/>
	<polygon style="fill:#2F4859;" points="191.745,331.947 13.725,331.947 13.725,201.915 28.173,201.915 28.173,317.499    191.745,317.499  "/>
</g>
<g>
</g>
<g>
</g>
<g>
</g>
<g>
</g>
<g>
</g>
<g>
</g>
<g>
</g>
<g>
</g>
<g>
</g>
<g>
</g>
<g>
</g>
<g>
</g>
<g>
</g>
<g>
</g>
<g>
</g>
</svg>
