<?xml version="1.0" encoding="iso-8859-1"?>
<!-- Generator: Adobe Illustrator 19.0.0, SVG Export Plug-In . SVG Version: 6.00 Build 0)  -->
<svg xmlns="http://www.w3.org/2000/svg" xmlns:xlink="http://www.w3.org/1999/xlink" version="1.1" id="Capa_1" x="0px" y="0px" viewBox="0 0 409.6 409.6" style="enable-background:new 0 0 409.6 409.6;" xml:space="preserve">
<path style="fill:#3A556A;" d="M35.836,143.185L0,113.241c53.239-63.71,131.383-98.748,214.22-96.345  c75.088,2.253,146.3,36.197,195.38,93.125l-35.371,30.491C333.682,93.48,274.851,65.438,212.82,63.577  C144.499,61.584,79.827,90.543,35.836,143.185z"/>
<path style="fill:#1C75A1;" d="M108.982,211.059l-35.836-29.944c34.226-40.962,84.41-63.441,137.713-61.931  c48.264,1.446,94.042,23.263,125.596,59.861l-35.371,30.491c-23.021-26.702-56.418-42.618-91.625-43.671  C170.594,164.66,133.96,181.165,108.982,211.059z"/>
<path style="fill:#2D93BA;" d="M148.904,294.497l-35.836-29.944c23.915-28.612,58.981-44.41,96.213-43.27  c33.725,1.012,65.712,16.258,87.753,41.82l-35.362,30.501c-13.517-15.674-33.123-25.019-53.791-25.639  C184.978,267.239,163.571,276.953,148.904,294.497z"/>
<circle style="fill:#27A2DB;" cx="204.902" cy="357.016" r="35.804"/>
<g>
</g>
<g>
</g>
<g>
</g>
<g>
</g>
<g>
</g>
<g>
</g>
<g>
</g>
<g>
</g>
<g>
</g>
<g>
</g>
<g>
</g>
<g>
</g>
<g>
</g>
<g>
</g>
<g>
</g>
</svg>
