<?xml version="1.0" encoding="iso-8859-1"?>
<!-- Generator: Adobe Illustrator 19.0.0, SVG Export Plug-In . SVG Version: 6.00 Build 0)  -->
<svg xmlns="http://www.w3.org/2000/svg" xmlns:xlink="http://www.w3.org/1999/xlink" version="1.1" id="Capa_1" x="0px" y="0px" viewBox="0 0 409.62 409.62" style="enable-background:new 0 0 409.62 409.62;" xml:space="preserve">
<path style="fill:#64798A;" d="M67.231,97.816c-0.262-5.088-4.464-9.079-9.559-9.079s-9.297,3.991-9.559,9.079L37.119,311.4h41.107  L67.231,97.816z"/>
<g>
	<rect x="37.868" y="393.472" style="fill:#2F4859;" width="57.789" height="16.148"/>
	<rect x="313.979" y="393.472" style="fill:#2F4859;" width="57.789" height="16.148"/>
</g>
<rect x="8.458" y="306.888" style="fill:#E1E6E9;" width="392.704" height="89.687"/>
<g>
	<path style="fill:#44C4A1;" d="M368.081,383.899h-4.97c-1.056,0-1.92-0.864-1.92-1.92v-58.993c0-1.056,0.864-1.92,1.92-1.92h4.97   c1.056,0,1.92,0.864,1.92,1.92v58.993C370.001,383.035,369.137,383.899,368.081,383.899z"/>
	<path style="fill:#44C4A1;" d="M347.158,383.899h-4.97c-1.056,0-1.92-0.864-1.92-1.92v-58.993c0-1.056,0.864-1.92,1.92-1.92h4.97   c1.056,0,1.92,0.864,1.92,1.92v58.993C349.078,383.035,348.214,383.899,347.158,383.899z"/>
	<path style="fill:#44C4A1;" d="M325.867,383.899h-4.97c-1.056,0-1.92-0.864-1.92-1.92v-58.993c0-1.056,0.864-1.92,1.92-1.92h4.97   c1.056,0,1.92,0.864,1.92,1.92v58.993C327.787,383.035,326.923,383.899,325.867,383.899z"/>
	<path style="fill:#44C4A1;" d="M305.311,383.899h-4.97c-1.056,0-1.92-0.864-1.92-1.92v-58.993c0-1.056,0.864-1.92,1.92-1.92h4.97   c1.056,0,1.92,0.864,1.92,1.92v58.993C307.231,383.035,306.367,383.899,305.311,383.899z"/>
	<path style="fill:#44C4A1;" d="M283.838,383.899h-4.97c-1.056,0-1.92-0.864-1.92-1.92v-58.993c0-1.056,0.864-1.92,1.92-1.92h4.97   c1.056,0,1.92,0.864,1.92,1.92v58.993C285.758,383.035,284.894,383.899,283.838,383.899z"/>
	<path style="fill:#44C4A1;" d="M264.016,383.899h-4.97c-1.056,0-1.92-0.864-1.92-1.92v-58.993c0-1.056,0.864-1.92,1.92-1.92h4.97   c1.056,0,1.92,0.864,1.92,1.92v58.993C265.936,383.035,265.072,383.899,264.016,383.899z"/>
</g>
<circle style="fill:#D5D6DB;" cx="58.097" cy="351.744" r="32.65"/>
<circle style="fill:#E56353;" cx="58.097" cy="351.744" r="22.835"/>
<g>
	<path style="fill:#D15241;" d="M130.194,143.348c-1.657,0.709-3.585,0.785-5.392,0.061c-3.613-1.448-5.366-5.547-3.918-9.16   c9.484-23.663-2.051-50.63-25.714-60.114c-3.613-1.448-5.366-5.547-3.918-9.16c1.448-3.613,5.547-5.366,9.16-3.918   c30.878,12.373,45.929,47.558,33.551,78.434C133.238,141.297,131.851,142.639,130.194,143.348z"/>
	<path style="fill:#D15241;" d="M159.392,155.048c-1.657,0.709-3.585,0.785-5.392,0.061c-3.613-1.448-5.366-5.547-3.918-9.16   c15.934-39.761-3.45-85.076-43.209-101.014c-3.613-1.448-5.366-5.547-3.918-9.16s5.547-5.366,9.16-3.918   c46.974,18.827,69.873,72.36,51.046,119.334C162.436,152.997,161.049,154.339,159.392,155.048z"/>
	<path style="fill:#D15241;" d="M190.742,167.616c-1.657,0.709-3.585,0.785-5.392,0.061c-3.613-1.448-5.366-5.547-3.918-9.16   c11.077-27.637,10.728-57.93-0.982-85.305c-11.71-27.375-33.377-48.549-61.014-59.626c-3.613-1.448-5.366-5.547-3.918-9.16   c1.448-3.613,5.547-5.366,9.16-3.918c31.131,12.475,55.537,36.327,68.727,67.162c13.19,30.835,13.583,64.959,1.104,96.089   C193.787,165.565,192.4,166.907,190.742,167.616z"/>
</g>
<g>
</g>
<g>
</g>
<g>
</g>
<g>
</g>
<g>
</g>
<g>
</g>
<g>
</g>
<g>
</g>
<g>
</g>
<g>
</g>
<g>
</g>
<g>
</g>
<g>
</g>
<g>
</g>
<g>
</g>
</svg>
