<?xml version="1.0" encoding="iso-8859-1"?>
<!-- Generator: Adobe Illustrator 19.0.0, SVG Export Plug-In . SVG Version: 6.00 Build 0)  -->
<svg xmlns="http://www.w3.org/2000/svg" xmlns:xlink="http://www.w3.org/1999/xlink" version="1.1" id="Capa_1" x="0px" y="0px" viewBox="0 0 409.6 409.6" style="enable-background:new 0 0 409.6 409.6;" xml:space="preserve">
<rect x="93.783" y="105.068" style="fill:#27A2DB;" width="132.623" height="19.492"/>
<path style="fill:#FCD462;" d="M275.537,120.607H15.562C6.967,120.607,0,127.574,0,136.169v141.55  c0,16.82,13.635,30.456,30.456,30.456h259.975c8.595,0,15.562-6.967,15.562-15.562v-141.55  C305.993,134.242,292.357,120.607,275.537,120.607z"/>
<polygon style="fill:#64798A;" points="409.6,284.864 324.068,245.122 324.068,189.027 409.6,149.284 "/>
<rect x="305.992" y="188.401" style="fill:#27A2DB;" width="18.074" height="56.73"/>
<g>
	<polygon style="fill:#3A556A;" points="409.6,284.864 393.781,245.122 393.781,189.027 409.6,149.284  "/>
	<rect x="35.313" y="261.003" style="fill:#3A556A;" width="179.661" height="28.815"/>
</g>
<circle style="fill:#2F4859;" cx="112.461" cy="88.423" r="40.535"/>
<circle style="fill:#D5D6DB;" cx="112.461" cy="88.423" r="23.583"/>
<circle style="fill:#2F4859;" cx="211.507" cy="80.216" r="48.727"/>
<circle style="fill:#D5D6DB;" cx="211.507" cy="80.216" r="28.349"/>
<g>
	<path style="fill:#2F4859;" d="M153,378.111c-2.807,0-5.085-2.506-5.085-5.594v-53.454c0-3.088,2.278-5.594,5.085-5.594   c2.807,0,5.085,2.506,5.085,5.594v53.454C158.084,375.606,155.807,378.111,153,378.111z"/>
	<path style="fill:#2F4859;" d="M194.922,376.334c-15.201,0-23.159-28.814-23.159-57.271c0-3.088,2.278-5.594,5.085-5.594   c2.807,0,5.085,2.506,5.085,5.594c0,29.819,8.58,46.083,12.99,46.083c2.807,0,5.085,2.506,5.085,5.594   S197.729,376.334,194.922,376.334z"/>
	<path style="fill:#2F4859;" d="M111.296,376.334c-2.807,0-5.085-2.506-5.085-5.594s2.278-5.594,5.085-5.594   c4.409,0,12.996-16.264,12.996-46.083c0-3.088,2.278-5.594,5.085-5.594c2.807,0,5.085,2.506,5.085,5.594   C134.462,347.52,126.504,376.334,111.296,376.334z"/>
</g>
<rect x="111.299" y="308.378" style="fill:#27A2DB;" width="90.394" height="14.1"/>
<g>
</g>
<g>
</g>
<g>
</g>
<g>
</g>
<g>
</g>
<g>
</g>
<g>
</g>
<g>
</g>
<g>
</g>
<g>
</g>
<g>
</g>
<g>
</g>
<g>
</g>
<g>
</g>
<g>
</g>
</svg>
