<?xml version="1.0" encoding="iso-8859-1"?>
<!-- Generator: Adobe Illustrator 19.0.0, SVG Export Plug-In . SVG Version: 6.00 Build 0)  -->
<svg xmlns="http://www.w3.org/2000/svg" xmlns:xlink="http://www.w3.org/1999/xlink" version="1.1" id="Capa_1" x="0px" y="0px" viewBox="0 0 409.595 409.595" style="enable-background:new 0 0 409.595 409.595;" xml:space="preserve">
<rect x="11.748" y="101.985" style="fill:#64798A;" width="386.099" height="307.61"/>
<path style="fill:#2F4859;" d="M64.882,106.495c-2.986,0-5.829-1.738-7.089-4.649c-1.704-3.914,0.09-8.461,4.004-10.158  L235.14,16.396c3.921-1.712,8.461,0.098,10.158,4.004c1.704,3.914-0.09,8.461-4.004,10.158L67.951,105.85  C66.948,106.287,65.907,106.495,64.882,106.495z"/>
<ellipse style="fill:#3A556A;" cx="61.212" cy="99.092" rx="19.384" ry="12.549"/>
<rect x="11.748" y="101.985" style="fill:#44C4A1;" width="386.099" height="95.242"/>
<circle style="fill:#EBF0F3;" cx="119.718" cy="302.172" r="89.247"/>
<circle style="fill:#E1E6E9;" cx="119.718" cy="302.172" r="64.445"/>
<rect x="38.607" y="127.406" style="fill:#CE412D;" width="20.751" height="31.37"/>
<rect x="70.223" y="127.406" style="fill:#FCD462;" width="20.751" height="31.37"/>
<rect x="101.112" y="127.406" style="fill:#2F4859;" width="20.751" height="31.37"/>
<g>
	<rect x="130.793" y="127.406" style="fill:#FFFFFF;" width="20.751" height="31.37"/>
	<circle style="fill:#FFFFFF;" cx="330.294" cy="143.094" r="25.18"/>
	<circle style="fill:#FFFFFF;" cx="268.444" cy="143.094" r="25.18"/>
</g>
<g>
	<circle style="fill:#2F4859;" cx="237.263" cy="21.238" r="21.238"/>
	<rect x="243.254" y="221.942" style="fill:#2F4859;" width="132.475" height="10.465"/>
	<rect x="243.254" y="251.945" style="fill:#2F4859;" width="132.475" height="10.465"/>
	<rect x="243.254" y="281.948" style="fill:#2F4859;" width="132.475" height="10.465"/>
	<rect x="243.254" y="311.956" style="fill:#2F4859;" width="132.475" height="10.465"/>
	<rect x="243.254" y="341.955" style="fill:#2F4859;" width="132.475" height="10.465"/>
	<rect x="243.254" y="371.958" style="fill:#2F4859;" width="132.475" height="10.465"/>
</g>
<g>
</g>
<g>
</g>
<g>
</g>
<g>
</g>
<g>
</g>
<g>
</g>
<g>
</g>
<g>
</g>
<g>
</g>
<g>
</g>
<g>
</g>
<g>
</g>
<g>
</g>
<g>
</g>
<g>
</g>
</svg>
