<?xml version="1.0" encoding="iso-8859-1"?>
<!-- Generator: Adobe Illustrator 19.0.0, SVG Export Plug-In . SVG Version: 6.00 Build 0)  -->
<svg xmlns="http://www.w3.org/2000/svg" xmlns:xlink="http://www.w3.org/1999/xlink" version="1.1" id="Capa_1" x="0px" y="0px" viewBox="0 0 409.6 409.6" style="enable-background:new 0 0 409.6 409.6;" xml:space="preserve">
<rect x="83.558" y="109.036" style="fill:#2F4859;" width="326.042" height="232.704"/>
<rect y="67.86" style="fill:#64798A;" width="344.832" height="232.704"/>
<rect y="181.484" style="fill:#3A556A;" width="344.832" height="119.081"/>
<path style="fill:#D5D6DB;" d="M309.155,261.389c7.249,0,12.754-6.669,11.246-13.76c-6.327-29.767-32.764-52.097-64.417-52.097  s-58.09,22.331-64.417,52.097c-1.507,7.091,3.997,13.76,11.246,13.76H309.155z"/>
<g>
	<path style="fill:#EBF0F3;" d="M191.567,247.629c6.327-29.767,32.764-52.097,64.417-52.097v65.857h-53.171   C195.564,261.389,190.06,254.72,191.567,247.629z"/>
	<path style="fill:#EBF0F3;" d="M287.487,157.795c0,17.399-14.104,38.91-31.503,38.91s-31.503-21.512-31.503-38.91   s14.104-31.503,31.503-31.503S287.487,140.396,287.487,157.795z"/>
</g>
<path style="fill:#D5D6DB;" d="M255.985,196.705c17.399,0,31.503-21.512,31.503-38.91s-14.104-31.503-31.503-31.503V196.705z"/>
<rect y="67.86" style="fill:#FCD462;" width="344.832" height="45.061"/>
<g>
	<rect x="18.821" y="138.798" style="fill:#DC8744;" width="163.021" height="22.717"/>
	<rect x="18.811" y="176.379" style="fill:#DC8744;" width="135.588" height="22.717"/>
	<rect x="18.811" y="214.036" style="fill:#DC8744;" width="94.049" height="22.717"/>
</g>
<rect x="266.496" y="79.611" style="fill:#E56353;" width="54.175" height="21.944"/>
<g>
	<rect x="199.071" y="79.611" style="fill:#D15241;" width="54.175" height="21.944"/>
	<rect x="131.671" y="79.611" style="fill:#D15241;" width="54.175" height="21.944"/>
</g>
<g>
</g>
<g>
</g>
<g>
</g>
<g>
</g>
<g>
</g>
<g>
</g>
<g>
</g>
<g>
</g>
<g>
</g>
<g>
</g>
<g>
</g>
<g>
</g>
<g>
</g>
<g>
</g>
<g>
</g>
</svg>
