<?xml version="1.0" encoding="iso-8859-1"?>
<!-- Generator: Adobe Illustrator 19.0.0, SVG Export Plug-In . SVG Version: 6.00 Build 0)  -->
<svg xmlns="http://www.w3.org/2000/svg" xmlns:xlink="http://www.w3.org/1999/xlink" version="1.1" id="Capa_1" x="0px" y="0px" viewBox="0 0 409.6 409.6" style="enable-background:new 0 0 409.6 409.6;" xml:space="preserve">
<g>
	<rect x="69.791" y="364.442" style="fill:#EBF0F3;" width="27.31" height="18.207"/>
	<rect x="297.37" y="364.442" style="fill:#EBF0F3;" width="27.31" height="18.207"/>
</g>
<path style="fill:#3EA69B;" d="M371.542,132.063c0-5.138-4.165-9.303-9.303-9.303H47.36c-5.138,0-9.303,4.165-9.303,9.303v193.533  h333.485V132.063z"/>
<path style="fill:#31978C;" d="M38.058,320.026v40.907c0,5.763,4.165,10.435,9.303,10.435H362.24c5.138,0,9.303-4.672,9.303-10.435  v-40.907H38.058z"/>
<rect x="56.248" y="140.954" style="fill:#D5D6DB;" width="297.114" height="205.517"/>
<path style="fill:#44C4A1;" d="M392.859,369.919v22.641c0,9.411-8.636,17.04-19.289,17.04H36.03  c-10.653,0-19.289-7.629-19.289-17.04v-22.641H392.859z"/>
<g>
	<path style="fill:#EBF0F3;" d="M241.347,397.719h-73.094c-2.853,0-5.188-2.334-5.188-5.188v-5.544c0-2.853,2.335-5.188,5.188-5.188   h73.094c2.853,0,5.188,2.335,5.188,5.188v5.544C246.535,395.385,244.2,397.719,241.347,397.719z"/>
	<circle style="fill:#EBF0F3;" cx="200.397" cy="131.712" r="6.779"/>
</g>
<g>
	<circle style="fill:#D5D6DB;" cx="200.397" cy="131.712" r="4.111"/>
	<path style="fill:#D5D6DB;" d="M224.045,397.719h-38.49c-2.853,0-5.188-2.335-5.188-5.188v-5.544c0-2.853,2.335-5.188,5.188-5.188   h38.49c2.853,0,5.188,2.334,5.188,5.188v5.544C229.233,395.385,226.898,397.719,224.045,397.719z"/>
</g>
<circle style="fill:#D15241;" cx="196.301" cy="206.643" r="38.359"/>
<path style="fill:#E56353;" d="M276.752,320.434c0-44.433-36.02-80.454-80.454-80.454s-80.454,36.02-80.454,80.454H276.752z"/>
<path style="fill:#D15241;" d="M115.845,320.434c0-44.433,36.02-80.454,80.454-80.454v80.454H115.845z"/>
<path style="fill:#E56353;" d="M196.299,245.011c21.186,0,38.361-17.175,38.361-38.361s-17.175-38.361-38.361-38.361V245.011z"/>
<g>
	<path style="fill:#3A556A;" d="M274.563,52.403l14.856-12.414c-22.071-26.412-54.466-40.937-88.807-39.941   c-31.129,0.934-60.65,15.006-80.997,38.606l14.663,12.641c16.809-19.498,41.198-31.123,66.914-31.894   C229.516,18.574,256.326,30.579,274.563,52.403z"/>
	<path style="fill:#3A556A;" d="M244.24,80.54l14.856-12.414c-14.189-16.981-34.993-26.3-57.09-25.674   c-20.008,0.599-38.986,9.644-52.067,24.816l14.664,12.641c9.544-11.069,23.389-17.668,37.984-18.104   C218.698,61.305,233.885,68.148,244.24,80.54z"/>
	<path style="fill:#3A556A;" d="M227.69,115.131l14.856-12.414c-9.914-11.862-24.451-18.411-39.886-17.938   c-13.981,0.42-27.242,6.74-36.379,17.337l14.66,12.644c5.604-6.498,13.731-10.372,22.3-10.629   C212.735,103.831,221.609,107.858,227.69,115.131z"/>
</g>
<g>
</g>
<g>
</g>
<g>
</g>
<g>
</g>
<g>
</g>
<g>
</g>
<g>
</g>
<g>
</g>
<g>
</g>
<g>
</g>
<g>
</g>
<g>
</g>
<g>
</g>
<g>
</g>
<g>
</g>
</svg>
