<?xml version="1.0" encoding="iso-8859-1"?>
<!-- Generator: Adobe Illustrator 19.0.0, SVG Export Plug-In . SVG Version: 6.00 Build 0)  -->
<svg xmlns="http://www.w3.org/2000/svg" xmlns:xlink="http://www.w3.org/1999/xlink" version="1.1" id="Capa_1" x="0px" y="0px" viewBox="0 0 409.61 409.61" style="enable-background:new 0 0 409.61 409.61;" xml:space="preserve">
<path style="fill:#EBF0F3;" d="M387.259,23.659H75.345c-12.338,0-22.341,10.003-22.341,22.341v311.914  c0,12.338,10.003,22.341,22.341,22.341h311.914c12.339,0,22.341-10.003,22.341-22.341V46  C409.6,33.661,399.598,23.659,387.259,23.659z"/>
<path style="fill:#F6C358;" d="M372.689,293.907c7.496,0,13.188-6.896,11.629-14.228c-6.543-30.78-33.88-53.871-66.611-53.871  s-60.068,23.091-66.611,53.871c-1.559,7.332,4.133,14.228,11.629,14.228H372.689z"/>
<g>
	<path style="fill:#FCD462;" d="M251.096,279.678c6.543-30.78,33.88-53.871,66.611-53.871v68.1h-54.982   C255.229,293.907,249.537,287.011,251.096,279.678z"/>
	<path style="fill:#FCD462;" d="M350.283,186.785c0,17.991-14.585,40.235-32.576,40.235c-17.991,0-32.576-22.244-32.576-40.235   s14.585-32.576,32.576-32.576C335.698,154.209,350.283,168.794,350.283,186.785z"/>
</g>
<path style="fill:#F6C358;" d="M317.707,227.02c17.991,0,32.576-22.244,32.576-40.235s-14.585-32.576-32.576-32.576V227.02z"/>
<path style="fill:#64798A;" d="M409.6,46c0-12.338-10.002-22.341-22.341-22.341H75.345c-12.338,0-22.341,10.003-22.341,22.341  v29.937H409.6V46z"/>
<rect x="53.002" y="75.935" style="fill:#3A556A;" width="356.608" height="16.246"/>
<path style="fill:#FCD462;" d="M303.12,43.028c7.767,12.778-5.58,26.126-18.358,18.358c-1.137-0.691-2.133-1.687-2.824-2.824  c-7.767-12.778,5.58-26.126,18.358-18.358C301.433,40.895,302.428,41.89,303.12,43.028z"/>
<path style="fill:#44C4A1;" d="M338.007,43.028c7.767,12.778-5.58,26.126-18.358,18.358c-1.137-0.691-2.133-1.687-2.824-2.824  c-7.767-12.778,5.58-26.126,18.358-18.358C336.32,40.895,337.315,41.89,338.007,43.028z"/>
<path style="fill:#E56353;" d="M372.893,43.028c7.767,12.778-5.58,26.126-18.358,18.358c-1.137-0.691-2.133-1.687-2.824-2.824  c-7.767-12.778,5.58-26.126,18.358-18.358C371.206,40.895,372.202,41.89,372.893,43.028z"/>
<rect x="85.893" y="251.962" transform="matrix(-0.7874 -0.6165 0.6165 -0.7874 11.9826 535.117)" style="fill:#DC8744;" width="24.771" height="27.059"/>
<path style="fill:#D15241;" d="M6.79,382.344L6.79,382.344c-10.266-8.038-8.562-26.033,2.889-39.142l67.798-76.809l24.924,19.516  l-58.304,84.243C34.116,384.411,17.056,390.382,6.79,382.344z"/>
<g>
	<polygon style="fill:#D5D6DB;" points="86.344,308.851 59.055,287.484 70.225,274.695 96.08,294.94  "/>
	<polygon style="fill:#D5D6DB;" points="66.618,337.037 36.424,313.395 50.022,297.825 78.471,320.1  "/>
</g>
<g transform="matrix(0.6165 -0.78736 0.78736 0.6165 -24.285 48.903)">
	
		<ellipse transform="matrix(-0.6165 -0.7874 0.7874 -0.6165 -205.2543 352.7966)" style="fill:#64798A;" cx="-16.708" cy="226.385" rx="76.385" ry="76.385"/>
	
		<ellipse transform="matrix(-0.6165 -0.7874 0.7874 -0.6165 -205.2543 352.7965)" style="fill:#D5D6DB;" cx="-16.708" cy="226.385" rx="53.105" ry="53.105"/>
</g>
<g>
</g>
<g>
</g>
<g>
</g>
<g>
</g>
<g>
</g>
<g>
</g>
<g>
</g>
<g>
</g>
<g>
</g>
<g>
</g>
<g>
</g>
<g>
</g>
<g>
</g>
<g>
</g>
<g>
</g>
</svg>
