<?xml version="1.0" encoding="iso-8859-1"?>
<!-- Generator: Adobe Illustrator 19.0.0, SVG Export Plug-In . SVG Version: 6.00 Build 0)  -->
<svg xmlns="http://www.w3.org/2000/svg" xmlns:xlink="http://www.w3.org/1999/xlink" version="1.1" id="Capa_1" x="0px" y="0px" viewBox="0 0 409.6 409.6" style="enable-background:new 0 0 409.6 409.6;" xml:space="preserve">
<rect x="198.139" y="301.983" style="fill:#E56353;" width="13.312" height="56.576"/>
<rect x="86.231" y="22.984" style="fill:#3A556A;" width="243.62" height="75.945"/>
<path style="fill:#64798A;" d="M376.415,98.926v215.467c0,1.93-1.586,3.447-3.447,3.447H36.633c-1.931,0-3.447-1.517-3.447-3.447  V98.926c0-1.931,1.517-3.447,3.447-3.447h336.335C374.829,95.479,376.415,96.995,376.415,98.926z"/>
<rect x="85.079" y="227.123" style="fill:#3A556A;" width="241.306" height="90.89"/>
<rect x="108.083" y="229.263" style="fill:#D5D6DB;" width="195.379" height="100.229"/>
<circle style="fill:#D15241;" cx="322.867" cy="130.816" r="15.34"/>
<circle style="fill:#FCD462;" cx="282.726" cy="130.816" r="15.34"/>
<rect x="107.346" style="fill:#D5D6DB;" width="196.792" height="95.478"/>
<g>
	<rect x="131.046" y="17.285" style="fill:#64798A;" width="154.01" height="14.94"/>
	<rect x="131.046" y="46.013" style="fill:#64798A;" width="154.01" height="14.94"/>
</g>
<rect x="177.956" y="351.898" style="fill:#D5D6DB;" width="53.253" height="51.031"/>
<g>
	<path style="fill:#E56353;" d="M237.865,409.6H171.3v-64.348h66.565V409.6z M184.613,396.287h39.939v-37.722h-39.939V396.287z"/>
	<rect x="67.021" y="370.79" style="fill:#E56353;" width="110.945" height="13.312"/>
	<rect x="234.537" y="370.79" style="fill:#E56353;" width="103.644" height="13.312"/>
</g>
<g>
</g>
<g>
</g>
<g>
</g>
<g>
</g>
<g>
</g>
<g>
</g>
<g>
</g>
<g>
</g>
<g>
</g>
<g>
</g>
<g>
</g>
<g>
</g>
<g>
</g>
<g>
</g>
<g>
</g>
</svg>
