<?xml version="1.0" encoding="iso-8859-1"?>
<!-- Generator: Adobe Illustrator 19.0.0, SVG Export Plug-In . SVG Version: 6.00 Build 0)  -->
<svg xmlns="http://www.w3.org/2000/svg" xmlns:xlink="http://www.w3.org/1999/xlink" version="1.1" id="Capa_1" x="0px" y="0px" viewBox="0 0 409.6 409.6" style="enable-background:new 0 0 409.6 409.6;" xml:space="preserve">
<path style="fill:#2F4859;" d="M280.422,409.6H129.178c-11.163,0-20.213-9.05-20.213-20.213V20.213  C108.965,9.05,118.015,0,129.178,0h151.244c11.163,0,20.213,9.05,20.213,20.213v369.174C300.635,400.55,291.585,409.6,280.422,409.6  z"/>
<path style="fill:#64798A;" d="M296.191,215.271H114c-2.703,0-4.895-2.191-4.895-4.895V18.83c0-10.4,8.431-18.83,18.83-18.83  h153.719c10.4,0,18.83,8.431,18.83,18.83v192.146C300.486,213.348,298.563,215.271,296.191,215.271z"/>
<rect x="125.235" y="24.084" style="fill:#EBF0F3;" width="155.29" height="175.565"/>
<g>
	<path style="fill:#64798A;" d="M158.087,285.359h-21.193c-1.831,0-3.315,1.713-3.315,3.825v9.891c0,2.113,1.484,3.825,3.315,3.825   h21.193c1.831,0,3.315-1.712,3.315-3.825v-9.891C161.402,287.071,159.918,285.359,158.087,285.359z"/>
	<path style="fill:#64798A;" d="M214.435,285.359h-21.193c-1.83,0-3.315,1.713-3.315,3.825v9.891c0,2.113,1.484,3.825,3.315,3.825   h21.193c1.83,0,3.315-1.712,3.315-3.825v-9.891C217.75,287.071,216.266,285.359,214.435,285.359z"/>
	<path style="fill:#64798A;" d="M270.783,285.359H249.59c-1.831,0-3.315,1.713-3.315,3.825v9.891c0,2.113,1.484,3.825,3.315,3.825   h21.193c1.831,0,3.315-1.712,3.315-3.825v-9.891C274.097,287.071,272.613,285.359,270.783,285.359z"/>
	<path style="fill:#64798A;" d="M158.087,316.542h-21.193c-1.831,0-3.315,1.713-3.315,3.825v9.89c0,2.113,1.484,3.825,3.315,3.825   h21.193c1.831,0,3.315-1.712,3.315-3.825v-9.89C161.402,318.255,159.918,316.542,158.087,316.542z"/>
	<path style="fill:#64798A;" d="M214.435,316.542h-21.193c-1.83,0-3.315,1.713-3.315,3.825v9.89c0,2.113,1.484,3.825,3.315,3.825   h21.193c1.83,0,3.315-1.712,3.315-3.825v-9.89C217.75,318.255,216.266,316.542,214.435,316.542z"/>
	<path style="fill:#64798A;" d="M270.783,316.542H249.59c-1.831,0-3.315,1.713-3.315,3.825v9.89c0,2.113,1.484,3.825,3.315,3.825   h21.193c1.831,0,3.315-1.712,3.315-3.825v-9.89C274.097,318.255,272.613,316.542,270.783,316.542z"/>
	<path style="fill:#64798A;" d="M158.087,347.726h-21.193c-1.831,0-3.315,1.713-3.315,3.825v9.89c0,2.113,1.484,3.825,3.315,3.825   h21.193c1.831,0,3.315-1.713,3.315-3.825v-9.89C161.402,349.438,159.918,347.726,158.087,347.726z"/>
	<path style="fill:#64798A;" d="M214.435,347.726h-21.193c-1.83,0-3.315,1.713-3.315,3.825v9.89c0,2.113,1.484,3.825,3.315,3.825   h21.193c1.83,0,3.315-1.713,3.315-3.825v-9.89C217.75,349.438,216.266,347.726,214.435,347.726z"/>
	<path style="fill:#64798A;" d="M270.783,347.726H249.59c-1.831,0-3.315,1.713-3.315,3.825v9.89c0,2.113,1.484,3.825,3.315,3.825   h21.193c1.831,0,3.315-1.713,3.315-3.825v-9.89C274.097,349.438,272.613,347.726,270.783,347.726z"/>
</g>
<path style="fill:#E56353;" d="M158.087,378.909h-21.193c-1.831,0-3.315,1.713-3.315,3.825v9.89c0,2.113,1.484,3.825,3.315,3.825  h21.193c1.831,0,3.315-1.713,3.315-3.825v-9.89C161.402,380.622,159.918,378.909,158.087,378.909z"/>
<path style="fill:#64798A;" d="M214.435,378.909h-21.193c-1.83,0-3.315,1.713-3.315,3.825v9.89c0,2.113,1.484,3.825,3.315,3.825  h21.193c1.83,0,3.315-1.713,3.315-3.825v-9.89C217.75,380.622,216.266,378.909,214.435,378.909z"/>
<path style="fill:#3EA69B;" d="M270.783,378.397H249.59c-1.831,0-3.315,1.713-3.315,3.825v9.89c0,2.113,1.484,3.825,3.315,3.825  h21.193c1.831,0,3.315-1.713,3.315-3.825v-9.89C274.097,380.11,272.613,378.397,270.783,378.397z"/>
<g>
	<path style="fill:#64798A;" d="M216.719,272.066h-22.814c-5.066,0-9.173-4.107-9.173-9.173V231.38c0-5.066,4.107-9.173,9.173-9.173   h22.814c5.066,0,9.173,4.107,9.173,9.173v31.513C225.892,267.959,221.785,272.066,216.719,272.066z"/>
	<path style="fill:#64798A;" d="M158.087,226.302h-21.193c-1.831,0-3.315,1.713-3.315,3.825v9.891c0,2.113,1.484,3.825,3.315,3.825   h21.193c1.831,0,3.315-1.712,3.315-3.825v-9.891C161.402,228.015,159.918,226.302,158.087,226.302z"/>
</g>
<path style="fill:#44C4A1;" d="M158.087,254.59h-21.193c-1.831,0-3.315,1.713-3.315,3.825v9.89c0,2.113,1.484,3.825,3.315,3.825  h21.193c1.831,0,3.315-1.712,3.315-3.825v-9.89C161.402,256.303,159.918,254.59,158.087,254.59z"/>
<path style="fill:#64798A;" d="M270.783,227.58H249.59c-1.831,0-3.315,1.713-3.315,3.825v9.891c0,2.113,1.484,3.825,3.315,3.825  h21.193c1.831,0,3.315-1.712,3.315-3.825v-9.891C274.097,229.293,272.613,227.58,270.783,227.58z"/>
<path style="fill:#CE412D;" d="M270.783,255.868H249.59c-1.831,0-3.315,1.713-3.315,3.825v9.89c0,2.113,1.484,3.825,3.315,3.825  h21.193c1.831,0,3.315-1.712,3.315-3.825v-9.89C274.097,257.58,272.613,255.868,270.783,255.868z"/>
<rect x="171.448" y="11.346" style="fill:#FCD462;" width="63.887" height="5.76"/>
<g>
</g>
<g>
</g>
<g>
</g>
<g>
</g>
<g>
</g>
<g>
</g>
<g>
</g>
<g>
</g>
<g>
</g>
<g>
</g>
<g>
</g>
<g>
</g>
<g>
</g>
<g>
</g>
<g>
</g>
</svg>
