<?xml version="1.0" encoding="iso-8859-1"?>
<!-- Generator: Adobe Illustrator 19.0.0, SVG Export Plug-In . SVG Version: 6.00 Build 0)  -->
<svg xmlns="http://www.w3.org/2000/svg" xmlns:xlink="http://www.w3.org/1999/xlink" version="1.1" id="Capa_1" x="0px" y="0px" viewBox="0 0 413.107 413.107" style="enable-background:new 0 0 413.107 413.107;" xml:space="preserve">
<rect x="19.073" y="310.269" transform="matrix(0.665 0.7468 -0.7468 0.665 269.5686 49.5481)" style="fill:#FCD462;" width="120.961" height="29.978"/>
<rect x="29.118" y="287.853" transform="matrix(0.665 0.7468 -0.7468 0.665 246.1392 56.9486)" style="fill:#F6C358;" width="60.944" height="29.978"/>
<rect x="51.448" y="151.614" transform="matrix(-0.7468 0.665 -0.665 -0.7468 501.9582 233.102)" style="fill:#1C75A1;" width="310.325" height="120.961"/>
<polygon style="fill:#E56353;" points="28.836,290.86 0,393.354 108.484,380.311 "/>
<rect x="77.511" y="220.059" transform="matrix(-0.7468 0.665 -0.665 -0.7468 566.9514 266.9019)" style="fill:#27A2DB;" width="310.325" height="42.614"/>
<polygon style="fill:#D15241;" points="108.484,380.311 0,393.354 69.302,336.306 "/>
<polygon style="fill:#1C75A1;" points="0,393.354 35.66,388.93 9.508,359.559 "/>
<rect x="49.161" y="188.231" transform="matrix(-0.7469 0.6649 -0.6649 -0.7469 496.2603 230.1994)" style="fill:#2D93BA;" width="310.325" height="42.614"/>
<rect x="273.232" y="83.966" transform="matrix(0.665 0.7468 -0.7468 0.665 185.6986 -216.0815)" style="fill:#FCD462;" width="120.961" height="29.978"/>
<rect x="283.278" y="61.546" transform="matrix(0.665 0.7468 -0.7468 0.665 162.2669 -208.6835)" style="fill:#F6C358;" width="60.944" height="29.978"/>
<path style="fill:#D15241;" d="M352.837,26.027l55.528,62.362c6.879,7.725,6.192,19.564-1.533,26.443l-21.715,19.335L304.68,43.829  l21.715-19.335C334.12,17.615,345.959,18.301,352.837,26.027z"/>
<path style="fill:#E56353;" d="M352.837,26.027l27.372,30.741l-35.702,31.79L304.68,43.829l21.715-19.335  C334.12,17.615,345.959,18.301,352.837,26.027z"/>
<g>
</g>
<g>
</g>
<g>
</g>
<g>
</g>
<g>
</g>
<g>
</g>
<g>
</g>
<g>
</g>
<g>
</g>
<g>
</g>
<g>
</g>
<g>
</g>
<g>
</g>
<g>
</g>
<g>
</g>
</svg>
