<?xml version="1.0" encoding="iso-8859-1"?>
<!-- Generator: Adobe Illustrator 19.0.0, SVG Export Plug-In . SVG Version: 6.00 Build 0)  -->
<svg xmlns="http://www.w3.org/2000/svg" xmlns:xlink="http://www.w3.org/1999/xlink" version="1.1" id="Capa_1" x="0px" y="0px" viewBox="0 0 409.6 409.6" style="enable-background:new 0 0 409.6 409.6;" xml:space="preserve">
<rect x="197.647" y="307.761" style="fill:#E56353;" width="16.384" height="58.67"/>
<rect y="5.947" style="fill:#3A556A;" width="409.6" height="318.976"/>
<rect y="5.947" style="fill:#2F4859;" width="205.824" height="318.976"/>
<rect x="20.838" y="27.108" style="fill:#F6C358;" width="367.882" height="258.253"/>
<polyline style="fill:#FCD462;" points="20.859,245.916 20.859,285.342 388.741,27.108 300.031,27.108 "/>
<circle style="fill:#FFFFFF;" cx="204.8" cy="307.761" r="11.976"/>
<circle style="fill:#D5D6DB;" cx="204.8" cy="307.761" r="7.368"/>
<path style="fill:#E56353;" d="M332.79,285.892v-15.307c0.035-2.099-1.268-4.015-2.948-4.282l-30.425-4.849  c-2.073-8.828-5.307-17.198-9.597-24.936l17.562-24.553c0.99-1.384,0.542-3.656-0.977-5.106l-22.731-21.695  c-1.52-1.45-3.81-1.79-5.146-0.737l-21.63,17.051c-8.238-5.276-17.307-9.335-27-11.964l-3.516-28.344  c-0.209-1.688-2.077-3.056-4.177-3.095l-31.417-0.558c-2.1-0.037-4.015,1.265-4.285,2.944l-4.559,28.436  c-9.003,2.267-17.525,5.822-25.392,10.505l-23.125-17.759c-1.349-1.035-3.635-0.666-5.136,0.803l-22.455,21.98  c-1.501,1.469-1.919,3.747-0.912,5.118l17.316,23.575c-4.842,7.725-8.718,16.089-11.405,24.94l-30.992,4.301  c-1.685,0.234-3.026,2.122-3.033,4.222l0.024,19.313h39.341l0.001-0.301h182.838L332.79,285.892z"/>
<path style="fill:#D15241;" d="M139.016,285.689c0.64-36.029,30.366-67.519,66.395-66.878s64.716,30.85,64.076,66.878"/>
<path style="fill:#E1E6E9;" d="M165.727,285.689c0.378-21.277,17.933-40.546,39.21-40.168c21.277,0.378,38.218,18.891,37.84,40.168"/>
<g>
	<rect x="8.192" y="370.173" style="fill:#E56353;" width="143.032" height="16.384"/>
	<rect x="261.325" y="370.173" style="fill:#E56353;" width="143.043" height="16.384"/>
</g>
<rect x="143.032" y="353.134" style="fill:#FCD462;" width="126.464" height="50.519"/>
<g>
</g>
<g>
</g>
<g>
</g>
<g>
</g>
<g>
</g>
<g>
</g>
<g>
</g>
<g>
</g>
<g>
</g>
<g>
</g>
<g>
</g>
<g>
</g>
<g>
</g>
<g>
</g>
<g>
</g>
</svg>
