<?xml version="1.0" encoding="iso-8859-1"?>
<!-- Generator: Adobe Illustrator 19.0.0, SVG Export Plug-In . SVG Version: 6.00 Build 0)  -->
<svg xmlns="http://www.w3.org/2000/svg" xmlns:xlink="http://www.w3.org/1999/xlink" version="1.1" id="Capa_1" x="0px" y="0px" viewBox="0 0 409.6 409.6" style="enable-background:new 0 0 409.6 409.6;" xml:space="preserve">
<g>
	<rect x="57.774" y="311.803" style="fill:#EBF0F3;" width="29.737" height="19.825"/>
	<rect x="305.613" y="311.803" style="fill:#EBF0F3;" width="29.737" height="19.825"/>
</g>
<path style="fill:#3EA69B;" d="M386.385,58.744c0-5.595-4.536-10.131-10.131-10.131H33.345c-5.595,0-10.131,4.536-10.131,10.131  v210.761h363.171V58.744z"/>
<path style="fill:#31978C;" d="M23.215,263.439v44.549c0,6.276,4.536,11.364,10.131,11.364h342.909  c5.595,0,10.131-5.088,10.131-11.364v-44.549H23.215z"/>
<rect x="43.023" y="68.424" style="fill:#EBF0F3;" width="323.533" height="223.816"/>
<path style="fill:#44C4A1;" d="M409.6,317.773v24.656c0,10.249-9.405,18.557-21.006,18.557H21.006C9.405,360.987,0,352.678,0,342.43  v-24.656H409.6z"/>
<g>
	<path style="fill:#EBF0F3;" d="M245.062,348.048h-80.524c-2.853,0-5.188-2.335-5.188-5.188v-6.961c0-2.853,2.335-5.188,5.188-5.188   h80.524c2.853,0,5.188,2.334,5.188,5.188v6.961C250.25,345.714,247.915,348.048,245.062,348.048z"/>
	<circle style="fill:#EBF0F3;" cx="200.038" cy="58.358" r="7.383"/>
</g>
<g>
	<circle style="fill:#D5D6DB;" cx="200.038" cy="58.358" r="4.475"/>
	<path style="fill:#D5D6DB;" d="M226.22,348.048h-42.84c-2.853,0-5.188-2.335-5.188-5.188v-6.961c0-2.853,2.335-5.188,5.188-5.188   h42.84c2.853,0,5.188,2.335,5.188,5.188v6.961C231.408,345.714,229.073,348.048,226.22,348.048z"/>
</g>
<path style="fill:#E56353;" d="M325.162,124.517H173.486c-5.293,0-9.584,4.291-9.584,9.585v81.754c0,5.294,4.291,9.585,9.584,9.585  h86.021l63.484,44.065l-22.406-44.065h24.577c5.293,0,9.584-4.291,9.584-9.585v-81.754  C334.746,128.808,330.456,124.517,325.162,124.517z"/>
<path style="fill:#FCD462;" d="M291.89,109.589H100.001c-3.92,0-7.097,3.178-7.097,7.097v84.554c0,3.92,3.178,7.098,7.097,7.098  h27.29l-19.36,38.075l54.853-38.075H291.89c3.92,0,7.098-3.178,7.098-7.098v-84.554C298.987,112.767,295.81,109.589,291.89,109.589z  "/>
<g>
	<rect x="116.516" y="121.037" style="fill:#F6C358;" width="158.874" height="18.248"/>
	<rect x="116.516" y="149.862" style="fill:#F6C358;" width="158.874" height="18.248"/>
	<rect x="116.516" y="178.765" style="fill:#F6C358;" width="158.874" height="18.248"/>
</g>
<g>
</g>
<g>
</g>
<g>
</g>
<g>
</g>
<g>
</g>
<g>
</g>
<g>
</g>
<g>
</g>
<g>
</g>
<g>
</g>
<g>
</g>
<g>
</g>
<g>
</g>
<g>
</g>
<g>
</g>
</svg>
