<?xml version="1.0" encoding="iso-8859-1"?>
<!-- Generator: Adobe Illustrator 19.0.0, SVG Export Plug-In . SVG Version: 6.00 Build 0)  -->
<svg xmlns="http://www.w3.org/2000/svg" xmlns:xlink="http://www.w3.org/1999/xlink" version="1.1" id="Capa_1" x="0px" y="0px" viewBox="0 0 409.6 409.6" style="enable-background:new 0 0 409.6 409.6;" xml:space="preserve">
<rect x="83.635" y="287.59" style="fill:#D15241;" width="64.927" height="20.582"/>
<path style="fill:#E56353;" d="M232.198,123.164c0-3.577-2.9-6.477-6.477-6.477H6.477c-3.577,0-6.477,2.9-6.477,6.477v134.753  h232.198V123.164z"/>
<rect x="12.667" y="129.331" style="fill:#EBF0F3;" width="206.848" height="128.563"/>
<path style="fill:#E56353;" d="M0,257.917v25.393c0,3.577,2.9,6.477,6.477,6.477H225.72c3.577,0,6.477-2.9,6.477-6.477v-25.393H0z"/>
<circle style="fill:#EBF0F3;" cx="116.101" cy="273.869" r="8.801"/>
<path style="fill:#E56353;" d="M156.436,306.702H75.761c-8.14,0-14.739,6.599-14.739,14.739v0h110.152v0  C171.175,313.301,164.576,306.702,156.436,306.702z"/>
<g>
	<polygon style="fill:#3A556A;" points="311.308,310.162 267.34,310.162 267.34,90.78 311.308,90.78 311.308,104.475    281.035,104.475 281.035,296.467 311.308,296.467  "/>
	<rect x="243.953" y="199.347" style="fill:#3A556A;" width="47.775" height="13.696"/>
	<rect x="354.099" y="130.068" style="fill:#3A556A;" width="24.248" height="7.69"/>
</g>
<path style="fill:#64798A;" d="M409.6,68.656c0-1.336-1.083-2.419-2.419-2.419h-81.89c-1.336,0-2.419,1.083-2.419,2.419v50.332  H409.6V68.656z"/>
<rect x="327.603" y="70.968" style="fill:#D5D6DB;" width="77.261" height="48.02"/>
<path style="fill:#64798A;" d="M322.871,118.987v9.484c0,1.336,1.083,2.419,2.419,2.419h81.89c1.336,0,2.419-1.083,2.419-2.419  v-9.484H322.871z"/>
<circle style="fill:#EBF0F3;" cx="366.234" cy="124.938" r="3.287"/>
<path style="fill:#64798A;" d="M381.302,137.209h-30.133c-3.04,0-5.505,2.465-5.505,5.505v0h41.143v0  C386.807,139.674,384.342,137.209,381.302,137.209z"/>
<rect x="354.099" y="236.442" style="fill:#F6C358;" width="24.248" height="7.69"/>
<path style="fill:#FCD462;" d="M409.6,175.024c0-1.336-1.083-2.419-2.419-2.419h-81.89c-1.336,0-2.419,1.083-2.419,2.419v50.332  H409.6V175.024z"/>
<rect x="327.603" y="177.336" style="fill:#D5D6DB;" width="77.261" height="48.02"/>
<path style="fill:#FCD462;" d="M322.871,225.356v9.484c0,1.336,1.083,2.419,2.419,2.419h81.89c1.336,0,2.419-1.083,2.419-2.419  v-9.484H322.871z"/>
<circle style="fill:#EBF0F3;" cx="366.234" cy="231.322" r="3.287"/>
<path style="fill:#FCD462;" d="M381.302,243.578h-30.133c-3.04,0-5.505,2.465-5.505,5.505v0h41.143v0  C386.807,246.043,384.342,243.578,381.302,243.578z"/>
<rect x="354.099" y="330.701" style="fill:#F6C358;" width="24.248" height="7.69"/>
<path style="fill:#DC8744;" d="M409.6,269.305c0-1.336-1.083-2.419-2.419-2.419h-81.89c-1.336,0-2.419,1.083-2.419,2.419v50.332  H409.6V269.305z"/>
<rect x="327.603" y="271.616" style="fill:#D5D6DB;" width="77.261" height="48.02"/>
<path style="fill:#DC8744;" d="M322.871,319.637v9.484c0,1.336,1.083,2.419,2.419,2.419h81.89c1.336,0,2.419-1.083,2.419-2.419  v-9.484H322.871z"/>
<circle style="fill:#EBF0F3;" cx="366.234" cy="325.581" r="3.287"/>
<path style="fill:#DC8744;" d="M381.302,337.859h-30.133c-3.04,0-5.505,2.465-5.505,5.505v0h41.143v0  C386.807,340.323,384.342,337.859,381.302,337.859z"/>
<g>
</g>
<g>
</g>
<g>
</g>
<g>
</g>
<g>
</g>
<g>
</g>
<g>
</g>
<g>
</g>
<g>
</g>
<g>
</g>
<g>
</g>
<g>
</g>
<g>
</g>
<g>
</g>
<g>
</g>
</svg>
