<?xml version="1.0" encoding="iso-8859-1"?>
<!-- Generator: Adobe Illustrator 19.0.0, SVG Export Plug-In . SVG Version: 6.00 Build 0)  -->
<svg xmlns="http://www.w3.org/2000/svg" xmlns:xlink="http://www.w3.org/1999/xlink" version="1.1" id="Capa_1" x="0px" y="0px" viewBox="0 0 409.6 409.6" style="enable-background:new 0 0 409.6 409.6;" xml:space="preserve">
<path style="fill:#3A556A;" d="M162.938,164.392h-16.522v-3.924c0-42.021,34.186-76.207,76.207-76.207h68.772  c18.677,0,33.87-15.192,33.87-33.87s-15.192-33.87-33.87-33.87H74.959V0h216.436c27.784,0,50.392,22.605,50.392,50.392  s-22.608,50.392-50.392,50.392h-68.772c-32.908,0-59.685,26.774-59.685,59.685V164.392z"/>
<path style="fill:#D5D6DB;" d="M154.678,138.719L154.678,138.719c-47.974,0-86.865,38.891-86.865,86.865v97.152  c0,47.974,38.891,86.865,86.865,86.865l0,0c47.974,0,86.864-38.891,86.864-86.865v-97.152  C241.543,177.61,202.652,138.719,154.678,138.719z"/>
<path style="fill:#D15241;" d="M154.679,256.592c-9.077,0-16.462-7.385-16.462-16.461V194.2c0-9.076,7.385-16.461,16.462-16.461  c9.075,0,16.459,7.385,16.459,16.461v45.931C171.138,249.207,163.754,256.592,154.679,256.592z"/>
<g>
</g>
<g>
</g>
<g>
</g>
<g>
</g>
<g>
</g>
<g>
</g>
<g>
</g>
<g>
</g>
<g>
</g>
<g>
</g>
<g>
</g>
<g>
</g>
<g>
</g>
<g>
</g>
<g>
</g>
</svg>
