<?xml version="1.0" encoding="iso-8859-1"?>
<!-- Generator: Adobe Illustrator 19.0.0, SVG Export Plug-In . SVG Version: 6.00 Build 0)  -->
<svg xmlns="http://www.w3.org/2000/svg" xmlns:xlink="http://www.w3.org/1999/xlink" version="1.1" id="Capa_1" x="0px" y="0px" viewBox="0 0 409.6 409.6" style="enable-background:new 0 0 409.6 409.6;" xml:space="preserve">
<path style="fill:#3A556A;" d="M318.797,0H90.802C79.1,0,69.614,9.486,69.614,21.188v367.223c0,11.702,9.486,21.189,21.188,21.189  h227.995c11.702,0,21.189-9.486,21.189-21.189V21.188C339.986,9.486,330.5,0,318.797,0z"/>
<path style="fill:#D5D6DB;" d="M298.984,37.888H110.616c-8.833,0-15.993,7.16-15.993,15.993v301.838  c0,8.833,7.16,15.993,15.993,15.993h188.367c8.833,0,15.993-7.16,15.993-15.993V53.881  C314.976,45.048,307.816,37.888,298.984,37.888z"/>
<ellipse style="fill:#FFFFFF;" cx="196.915" cy="390.4" rx="11.96" ry="11.868"/>
<ellipse style="fill:#EBF0F3;" cx="196.915" cy="390.4" rx="9.175" ry="9.108"/>
<path style="fill:#D5D6DB;" d="M199.074,395.95h-4.345c-1.847,0-3.353-1.505-3.353-3.353v-4.396c0-1.847,1.505-3.353,3.353-3.353  h4.345c1.847,0,3.353,1.505,3.353,3.353v4.396C202.426,394.445,200.921,395.95,199.074,395.95z M194.728,385.969  c-1.233,0-2.233,1-2.233,2.233v4.396c0,1.233,1,2.233,2.233,2.233h4.345c1.233,0,2.233-1,2.233-2.233v-4.396  c0-1.233-1-2.233-2.233-2.233H194.728z"/>
<path style="fill:#FFFFFF;" d="M235.9,24.616H173.7c-0.919,0-1.664-0.745-1.664-1.664v-2.048c0-0.919,0.745-1.664,1.664-1.664H235.9  c0.919,0,1.664,0.745,1.664,1.664v2.048C237.564,23.871,236.819,24.616,235.9,24.616z"/>
<g>
</g>
<g>
</g>
<g>
</g>
<g>
</g>
<g>
</g>
<g>
</g>
<g>
</g>
<g>
</g>
<g>
</g>
<g>
</g>
<g>
</g>
<g>
</g>
<g>
</g>
<g>
</g>
<g>
</g>
</svg>
