<?xml version="1.0" encoding="iso-8859-1"?>
<!-- Generator: Adobe Illustrator 19.0.0, SVG Export Plug-In . SVG Version: 6.00 Build 0)  -->
<svg xmlns="http://www.w3.org/2000/svg" xmlns:xlink="http://www.w3.org/1999/xlink" version="1.1" id="Capa_1" x="0px" y="0px" viewBox="0 0 409.6 409.6" style="enable-background:new 0 0 409.6 409.6;" xml:space="preserve">
<path style="fill:#64798A;" d="M254.104,0H17.016C7.825,0,0.374,7.451,0.374,16.642v376.317c0,9.191,7.45,16.641,16.641,16.641  h237.089c9.191,0,16.642-7.45,16.642-16.641V16.642C270.746,7.451,263.295,0,254.104,0z"/>
<g>
	<path style="fill:#FFFFFF;" d="M234.357,37.888H36.763c-6.285,0-11.38,5.095-11.38,11.379v311.065c0,6.285,5.095,11.38,11.38,11.38   h197.594c6.284,0,11.379-5.095,11.379-11.38V49.268C245.736,42.983,240.642,37.888,234.357,37.888z"/>
	<ellipse style="fill:#FFFFFF;" cx="127.662" cy="390.4" rx="11.96" ry="11.868"/>
</g>
<ellipse style="fill:#EBF0F3;" cx="127.662" cy="390.4" rx="9.175" ry="9.108"/>
<path style="fill:#D5D6DB;" d="M128.944,396.131h-2.566c-2.437,0-4.422-1.986-4.422-4.422v-2.619c0-2.437,1.986-4.422,4.422-4.422  h2.566c2.436,0,4.422,1.986,4.422,4.422v2.619C133.366,394.146,131.38,396.131,128.944,396.131z M126.378,386.146  c-1.626,0-2.945,1.319-2.945,2.945v2.619c0,1.626,1.319,2.945,2.945,2.945h2.566c1.626,0,2.945-1.319,2.945-2.945v-2.619  c0-1.626-1.319-2.945-2.945-2.945H126.378z"/>
<path style="fill:#FFFFFF;" d="M167.169,24.616h-63.218c-0.638,0-1.155-0.517-1.155-1.155v-3.065c0-0.638,0.517-1.155,1.155-1.155  h63.218c0.638,0,1.155,0.517,1.155,1.155v3.065C168.325,24.099,167.807,24.616,167.169,24.616z"/>
<path style="fill:#1C75A1;" d="M349.733,285.533H186.529c-5.63,0-10.192-4.563-10.192-10.192c0-5.63,4.563-10.192,10.192-10.192  h163.204c4.833,0,8.763-3.93,8.763-8.761c0-4.831-3.93-8.761-8.763-8.761h-23.354v-135.23c0-10.99,8.942-19.93,19.934-19.93h49.224  c5.63,0,10.192,4.563,10.192,10.192c0,5.63-4.563,10.192-10.192,10.192h-48.775v114.392h2.97c16.072,0,29.147,13.075,29.147,29.145  C378.88,272.458,365.805,285.533,349.733,285.533z"/>
<path style="fill:#FCD462;" d="M280.066,262.178h-53.608c-7.623,0-14.13-5.508-15.388-13.026L193.244,142.67h120.035  l-17.825,106.482C294.195,256.67,287.689,262.178,280.066,262.178z"/>
<path style="fill:#CE412D;" d="M403.49,112.398h-50.07v-19.49h50.07c3.168,0,5.735,2.568,5.735,5.735v8.019  C409.226,109.83,406.658,112.398,403.49,112.398z"/>
<g>
	<circle style="fill:#3A556A;" cx="314.829" cy="300.288" r="16.845"/>
	<circle style="fill:#3A556A;" cx="236.39" cy="300.288" r="16.845"/>
</g>
<g>
</g>
<g>
</g>
<g>
</g>
<g>
</g>
<g>
</g>
<g>
</g>
<g>
</g>
<g>
</g>
<g>
</g>
<g>
</g>
<g>
</g>
<g>
</g>
<g>
</g>
<g>
</g>
<g>
</g>
</svg>
