<?xml version="1.0" encoding="iso-8859-1"?>
<!-- Generator: Adobe Illustrator 19.0.0, SVG Export Plug-In . SVG Version: 6.00 Build 0)  -->
<svg xmlns="http://www.w3.org/2000/svg" xmlns:xlink="http://www.w3.org/1999/xlink" version="1.1" id="Capa_1" x="0px" y="0px" viewBox="0 0 409.6 409.6" style="enable-background:new 0 0 409.6 409.6;" xml:space="preserve">
<path style="fill:#DC8744;" d="M322.366,0H87.234c-9.731,0-17.62,7.889-17.62,17.62v374.36c0,9.731,7.889,17.62,17.62,17.62h235.133  c9.731,0,17.62-7.889,17.62-17.62V17.62C339.986,7.889,332.098,0,322.366,0z"/>
<path style="fill:#D5D6DB;" d="M301.987,37.887H107.613c-7.174,0-12.99,5.816-12.99,12.99v307.845c0,7.175,5.815,12.99,12.99,12.99  h194.374c7.174,0,12.99-5.815,12.99-12.99V50.877C314.977,43.704,309.161,37.887,301.987,37.887z"/>
<ellipse style="fill:#FFFFFF;" cx="196.915" cy="390.4" rx="11.96" ry="11.868"/>
<ellipse style="fill:#EBF0F3;" cx="196.915" cy="390.4" rx="9.175" ry="9.108"/>
<path style="fill:#D5D6DB;" d="M198.184,396.131h-2.566c-2.437,0-4.422-1.986-4.422-4.422v-2.619c0-2.437,1.986-4.422,4.422-4.422  h2.566c2.437,0,4.422,1.986,4.422,4.422v2.619C202.606,394.146,200.62,396.131,198.184,396.131z M195.617,386.145  c-1.626,0-2.945,1.319-2.945,2.945v2.619c0,1.626,1.319,2.945,2.945,2.945h2.566c1.626,0,2.945-1.319,2.945-2.945v-2.619  c0-1.626-1.319-2.945-2.945-2.945H195.617z"/>
<path style="fill:#FFFFFF;" d="M236.409,24.616l-63.218,0c-0.638,0-1.155-0.517-1.155-1.155v-3.065c0-0.638,0.517-1.155,1.155-1.155  h63.218c0.638,0,1.155,0.517,1.155,1.155v3.065C237.565,24.099,237.047,24.616,236.409,24.616z"/>
<rect x="212.85" y="198.333" transform="matrix(-0.8482 0.5297 -0.5297 -0.8482 524.9995 270.123)" style="fill:#DC8744;" width="21.888" height="23.91"/>
<path style="fill:#D15241;" d="M293.25,321.52L293.25,321.52c-9.772,6.102-24.204-0.74-31.64-14.204l-43.348-79.477l23.726-14.816  l52.386,73.834C303.209,299.447,303.022,315.418,293.25,321.52z"/>
<g>
	<polygon style="fill:#FFFFFF;" points="256.202,233.279 230.225,249.501 222.971,236.366 247.584,220.997  "/>
	<polygon style="fill:#FFFFFF;" points="273.663,258.164 244.92,276.112 236.09,260.122 263.171,243.211  "/>
</g>
<g transform="matrix(0.84821 -0.52966 0.52966 0.84821 -14.174 30.44)">
	
		<ellipse transform="matrix(-0.8482 -0.5297 0.5297 -0.8482 80.089 441.8275)" style="fill:#64798A;" cx="103.354" cy="209.438" rx="67.497" ry="67.497"/>
	
		<ellipse transform="matrix(-0.8482 -0.5297 0.5297 -0.8482 80.089 441.8275)" style="fill:#F6C358;" cx="103.354" cy="209.438" rx="46.925" ry="46.925"/>
</g>
<path style="fill:#FFFFFF;" d="M220.459,165.733c-2.736,0-4.99-2.178-5.063-4.931c-0.396-14.595-4.677-25.024-12.72-31.004  c-13.793-10.245-34.447-4.805-34.658-4.753c-2.69,0.726-5.485-0.858-6.218-3.564c-0.736-2.7,0.861-5.485,3.564-6.218  c1.04-0.29,25.661-6.766,43.361,6.396c10.667,7.934,16.321,21.011,16.803,38.866c0.076,2.799-2.129,5.129-4.928,5.208  C220.551,165.733,220.505,165.733,220.459,165.733z"/>
<g>
</g>
<g>
</g>
<g>
</g>
<g>
</g>
<g>
</g>
<g>
</g>
<g>
</g>
<g>
</g>
<g>
</g>
<g>
</g>
<g>
</g>
<g>
</g>
<g>
</g>
<g>
</g>
<g>
</g>
</svg>
