<?xml version="1.0" encoding="iso-8859-1"?>
<!-- Generator: Adobe Illustrator 19.0.0, SVG Export Plug-In . SVG Version: 6.00 Build 0)  -->
<svg xmlns="http://www.w3.org/2000/svg" xmlns:xlink="http://www.w3.org/1999/xlink" version="1.1" id="Capa_1" x="0px" y="0px" viewBox="0 0 409.6 409.6" style="enable-background:new 0 0 409.6 409.6;" xml:space="preserve">
<path style="fill:#64798A;" d="M327.269,0H82.331c-7.024,0-12.717,5.695-12.717,12.717v384.166c0,7.024,5.694,12.716,12.717,12.716  h244.938c7.024,0,12.717-5.693,12.717-12.716V12.717C339.986,5.695,334.292,0,327.269,0z"/>
<g>
	<path style="fill:#FFFFFF;" d="M299.614,37.888H109.986c-8.485,0-15.363,6.878-15.363,15.363v303.098   c0,8.485,6.878,15.364,15.363,15.364h189.628c8.485,0,15.363-6.878,15.363-15.364V53.251   C314.977,44.766,308.098,37.888,299.614,37.888z"/>
	<ellipse style="fill:#FFFFFF;" cx="196.915" cy="390.4" rx="11.96" ry="11.868"/>
</g>
<ellipse style="fill:#EBF0F3;" cx="196.915" cy="390.4" rx="9.175" ry="9.108"/>
<path style="fill:#D5D6DB;" d="M198.183,396.132h-2.566c-2.437,0-4.422-1.986-4.422-4.422v-2.619c0-2.437,1.986-4.422,4.422-4.422  h2.566c2.437,0,4.422,1.986,4.422,4.422v2.619C202.605,394.146,200.62,396.132,198.183,396.132z M195.617,386.146  c-1.626,0-2.945,1.319-2.945,2.945v2.619c0,1.626,1.319,2.945,2.945,2.945h2.566c1.626,0,2.945-1.319,2.945-2.945v-2.619  c0-1.626-1.319-2.945-2.945-2.945H195.617z"/>
<path style="fill:#FFFFFF;" d="M236.409,24.616h-63.218c-0.638,0-1.155-0.517-1.155-1.155v-3.065c0-0.638,0.517-1.155,1.155-1.155  h63.218c0.638,0,1.155,0.517,1.155,1.155v3.065C237.564,24.099,237.047,24.616,236.409,24.616z"/>
<circle style="fill:#64798A;" cx="208.865" cy="218.9" r="86.072"/>
<circle style="fill:#EBF0F3;" cx="208.865" cy="218.9" r="66.048"/>
<polygon style="fill:#E56353;" points="191.215,174.826 245.005,217.41 191.215,262.98 "/>
<g>
</g>
<g>
</g>
<g>
</g>
<g>
</g>
<g>
</g>
<g>
</g>
<g>
</g>
<g>
</g>
<g>
</g>
<g>
</g>
<g>
</g>
<g>
</g>
<g>
</g>
<g>
</g>
<g>
</g>
</svg>
