<?xml version="1.0" encoding="iso-8859-1"?>
<!-- Generator: Adobe Illustrator 19.0.0, SVG Export Plug-In . SVG Version: 6.00 Build 0)  -->
<svg xmlns="http://www.w3.org/2000/svg" xmlns:xlink="http://www.w3.org/1999/xlink" version="1.1" id="Capa_1" x="0px" y="0px" viewBox="0 0 409.6 409.6" style="enable-background:new 0 0 409.6 409.6;" xml:space="preserve">
<path style="fill:#F6C358;" d="M257.121,409.6H105.877c-11.163,0-20.213-9.05-20.213-20.213V20.213C85.664,9.05,94.714,0,105.877,0  h151.244c11.163,0,20.213,9.05,20.213,20.213v369.174C277.334,400.55,268.284,409.6,257.121,409.6z"/>
<path style="fill:#FCD462;" d="M272.89,215.271H90.7c-2.703,0-4.895-2.191-4.895-4.895V18.83c0-10.4,8.431-18.83,18.83-18.83  h153.719c10.4,0,18.83,8.431,18.83,18.83v192.146C277.185,213.348,275.262,215.271,272.89,215.271z"/>
<rect x="101.934" y="24.084" style="fill:#EBF0F3;" width="155.29" height="175.565"/>
<g>
	<path style="fill:#64798A;" d="M134.787,285.359h-21.193c-1.831,0-3.315,1.713-3.315,3.825v9.891c0,2.113,1.484,3.825,3.315,3.825   h21.193c1.831,0,3.315-1.712,3.315-3.825v-9.891C138.101,287.071,136.617,285.359,134.787,285.359z"/>
	<path style="fill:#64798A;" d="M191.134,285.359h-21.193c-1.83,0-3.315,1.713-3.315,3.825v9.891c0,2.113,1.484,3.825,3.315,3.825   h21.193c1.83,0,3.315-1.712,3.315-3.825v-9.891C194.449,287.071,192.965,285.359,191.134,285.359z"/>
	<path style="fill:#64798A;" d="M247.482,285.359h-21.193c-1.831,0-3.315,1.713-3.315,3.825v9.891c0,2.113,1.484,3.825,3.315,3.825   h21.193c1.831,0,3.315-1.712,3.315-3.825v-9.891C250.797,287.071,249.312,285.359,247.482,285.359z"/>
	<path style="fill:#64798A;" d="M134.787,316.542h-21.193c-1.831,0-3.315,1.713-3.315,3.825v9.89c0,2.113,1.484,3.825,3.315,3.825   h21.193c1.831,0,3.315-1.712,3.315-3.825v-9.89C138.101,318.255,136.617,316.542,134.787,316.542z"/>
	<path style="fill:#64798A;" d="M191.134,316.542h-21.193c-1.83,0-3.315,1.713-3.315,3.825v9.89c0,2.113,1.484,3.825,3.315,3.825   h21.193c1.83,0,3.315-1.712,3.315-3.825v-9.89C194.449,318.255,192.965,316.542,191.134,316.542z"/>
	<path style="fill:#64798A;" d="M247.482,316.542h-21.193c-1.831,0-3.315,1.713-3.315,3.825v9.89c0,2.113,1.484,3.825,3.315,3.825   h21.193c1.831,0,3.315-1.712,3.315-3.825v-9.89C250.797,318.255,249.312,316.542,247.482,316.542z"/>
	<path style="fill:#64798A;" d="M134.787,347.726h-21.193c-1.831,0-3.315,1.713-3.315,3.825v9.89c0,2.113,1.484,3.825,3.315,3.825   h21.193c1.831,0,3.315-1.713,3.315-3.825v-9.89C138.101,349.438,136.617,347.726,134.787,347.726z"/>
	<path style="fill:#64798A;" d="M191.134,347.726h-21.193c-1.83,0-3.315,1.713-3.315,3.825v9.89c0,2.113,1.484,3.825,3.315,3.825   h21.193c1.83,0,3.315-1.713,3.315-3.825v-9.89C194.449,349.438,192.965,347.726,191.134,347.726z"/>
	<path style="fill:#64798A;" d="M247.482,347.726h-21.193c-1.831,0-3.315,1.713-3.315,3.825v9.89c0,2.113,1.484,3.825,3.315,3.825   h21.193c1.831,0,3.315-1.713,3.315-3.825v-9.89C250.797,349.438,249.312,347.726,247.482,347.726z"/>
</g>
<path style="fill:#E56353;" d="M134.787,378.909h-21.193c-1.831,0-3.315,1.713-3.315,3.825v9.89c0,2.113,1.484,3.825,3.315,3.825  h21.193c1.831,0,3.315-1.713,3.315-3.825v-9.89C138.101,380.622,136.617,378.909,134.787,378.909z"/>
<path style="fill:#64798A;" d="M191.134,378.909h-21.193c-1.83,0-3.315,1.713-3.315,3.825v9.89c0,2.113,1.484,3.825,3.315,3.825  h21.193c1.83,0,3.315-1.713,3.315-3.825v-9.89C194.449,380.622,192.965,378.909,191.134,378.909z"/>
<path style="fill:#3EA69B;" d="M247.482,378.397h-21.193c-1.831,0-3.315,1.713-3.315,3.825v9.89c0,2.113,1.484,3.825,3.315,3.825  h21.193c1.831,0,3.315-1.713,3.315-3.825v-9.89C250.797,380.11,249.312,378.397,247.482,378.397z"/>
<g>
	<path style="fill:#64798A;" d="M193.418,272.066h-22.814c-5.066,0-9.173-4.107-9.173-9.173V231.38c0-5.066,4.107-9.173,9.173-9.173   h22.814c5.066,0,9.173,4.107,9.173,9.173v31.513C202.592,267.959,198.485,272.066,193.418,272.066z"/>
	<path style="fill:#64798A;" d="M134.787,226.302h-21.193c-1.831,0-3.315,1.713-3.315,3.825v9.891c0,2.113,1.484,3.825,3.315,3.825   h21.193c1.831,0,3.315-1.712,3.315-3.825v-9.891C138.101,228.015,136.617,226.302,134.787,226.302z"/>
</g>
<path style="fill:#44C4A1;" d="M134.787,254.59h-21.193c-1.831,0-3.315,1.713-3.315,3.825v9.89c0,2.113,1.484,3.825,3.315,3.825  h21.193c1.831,0,3.315-1.712,3.315-3.825v-9.89C138.101,256.303,136.617,254.59,134.787,254.59z"/>
<path style="fill:#64798A;" d="M247.482,227.58h-21.193c-1.831,0-3.315,1.713-3.315,3.825v9.891c0,2.113,1.484,3.825,3.315,3.825  h21.193c1.831,0,3.315-1.712,3.315-3.825v-9.891C250.797,229.293,249.312,227.58,247.482,227.58z"/>
<path style="fill:#CE412D;" d="M247.482,255.868h-21.193c-1.831,0-3.315,1.713-3.315,3.825v9.89c0,2.113,1.484,3.825,3.315,3.825  h21.193c1.831,0,3.315-1.712,3.315-3.825v-9.89C250.797,257.58,249.312,255.868,247.482,255.868z"/>
<rect x="148.147" y="11.346" style="fill:#3A556A;" width="63.887" height="5.76"/>
<g>
	<path style="fill:#64798A;" d="M318.389,136.697H196.052c-3.063,0-5.547-2.483-5.547-5.547V66.53c0-3.063,2.483-5.547,5.547-5.547   h122.337c3.063,0,5.547,2.483,5.547,5.547v64.621C323.936,134.214,321.452,136.697,318.389,136.697z"/>
	<polygon style="fill:#64798A;" points="213.468,133.594 201.676,162.762 237.051,133.594  "/>
</g>
<g>
	<path style="fill:#3A556A;" d="M301.518,94.487h-86.051c-3.358,0-6.08-2.722-6.08-6.08V82.88c0-3.358,2.722-6.08,6.08-6.08h86.051   c3.358,0,6.08,2.722,6.08,6.08v5.527C307.598,91.765,304.876,94.487,301.518,94.487z"/>
	<circle style="fill:#3A556A;" cx="226.355" cy="118.323" r="10.706"/>
	<circle style="fill:#3A556A;" cx="261.478" cy="118.323" r="10.706"/>
	<circle style="fill:#3A556A;" cx="296.893" cy="118.323" r="10.706"/>
</g>
<g>
</g>
<g>
</g>
<g>
</g>
<g>
</g>
<g>
</g>
<g>
</g>
<g>
</g>
<g>
</g>
<g>
</g>
<g>
</g>
<g>
</g>
<g>
</g>
<g>
</g>
<g>
</g>
<g>
</g>
</svg>
