<?xml version="1.0" encoding="iso-8859-1"?>
<!-- Generator: Adobe Illustrator 19.0.0, SVG Export Plug-In . SVG Version: 6.00 Build 0)  -->
<svg xmlns="http://www.w3.org/2000/svg" xmlns:xlink="http://www.w3.org/1999/xlink" version="1.1" id="Capa_1" x="0px" y="0px" viewBox="0 0 409.6 409.6" style="enable-background:new 0 0 409.6 409.6;" xml:space="preserve">
<path style="fill:#27A2DB;" d="M319.78,0H91.737c-11.688,0-21.178,9.448-21.23,21.136l-1.63,367.408  C68.826,400.158,78.226,409.6,89.84,409.6h228.005c11.699,0,21.197-9.456,21.249-21.155l1.629-367.408  C340.775,9.433,331.383,0,319.78,0z"/>
<path style="fill:#2D93BA;" d="M91.512,0C79.948,0,70.559,9.347,70.508,20.911l-1.631,367.853  C68.826,400.256,78.128,409.6,89.62,409.6h111.951L203.387,0H91.512z"/>
<path style="fill:#D5D6DB;" d="M298.914,37.888H112.398c-9.334,0-17.004,7.636-17.045,16.97L94.022,354.98  c-0.041,9.202,7.455,16.732,16.658,16.732h186.529c9.331,0,16.999-7.634,17.04-16.965l1.331-300.119  C315.62,45.421,308.121,37.888,298.914,37.888z"/>
<path style="fill:#FFFFFF;" d="M208.038,390.4c-0.029,6.556-5.406,11.871-12.009,11.871s-11.932-5.315-11.903-11.871  c0.029-6.556,5.405-11.871,12.009-11.871C202.738,378.529,208.067,383.844,208.038,390.4z"/>
<path style="fill:#EBF0F3;" d="M205.254,390.4c-0.022,5.029-4.147,9.106-9.212,9.106c-5.065,0-9.154-4.077-9.131-9.106  c0.022-5.029,4.147-9.106,9.212-9.106C201.188,381.294,205.276,385.371,205.254,390.4z"/>
<path style="fill:#D5D6DB;" d="M197.339,396.131h-2.565c-2.435,0-4.411-1.986-4.4-4.422l0.012-2.619  c0.011-2.437,2.004-4.422,4.439-4.422h2.565c2.435,0,4.411,1.986,4.4,4.422l-0.012,2.619  C201.768,394.146,199.774,396.131,197.339,396.131z M194.819,386.145c-1.625,0-2.949,1.319-2.956,2.945l-0.012,2.619  c-0.007,1.626,1.305,2.945,2.93,2.945h2.565c1.625,0,2.949-1.319,2.956-2.945l0.012-2.619c0.007-1.626-1.305-2.945-2.93-2.945  H194.819z"/>
<path style="fill:#FFFFFF;" d="M236.695,24.616h-62.131c-0.939,0-1.706-0.77-1.702-1.71l0.009-2.015  c0.004-0.917,0.742-1.651,1.658-1.651h62.131c0.939,0,1.706,0.77,1.702,1.71l-0.009,2.015  C238.348,23.881,237.611,24.616,236.695,24.616z"/>
<path style="fill:#E56353;" d="M262.834,301.22c-0.053,11.899-27.316,21.545-60.894,21.545s-60.756-9.646-60.703-21.545  c0.053-11.899,27.316-21.545,60.894-21.545S262.887,289.32,262.834,301.22z"/>
<path style="fill:#FCD462;" d="M272.199,149.289c8.145-37.561-30.803-69.53-69.182-69.53s-77.61,31.969-69.798,69.53  c8.695,41.806,68.797,156.182,68.797,156.182S263.134,191.095,272.199,149.289z"/>
<path style="fill:#3A556A;" d="M235.526,149.289c-0.08,18.135-14.838,32.836-32.962,32.836s-32.751-14.701-32.671-32.836  c0.08-18.135,14.838-32.836,32.962-32.836S235.606,131.154,235.526,149.289z"/>
<g>
	<path style="fill:#FFFFFF;" d="M232.474,128.508c-0.016,3.535-2.892,6.4-6.425,6.4c-3.533,0-6.384-2.866-6.368-6.4   c0.016-3.535,2.892-6.4,6.425-6.4C229.638,122.107,232.489,124.973,232.474,128.508z"/>
	<circle style="fill:#FFFFFF;" cx="178.954" cy="171.315" r="5.023"/>
</g>
<g>
</g>
<g>
</g>
<g>
</g>
<g>
</g>
<g>
</g>
<g>
</g>
<g>
</g>
<g>
</g>
<g>
</g>
<g>
</g>
<g>
</g>
<g>
</g>
<g>
</g>
<g>
</g>
<g>
</g>
</svg>
