<?xml version="1.0" encoding="iso-8859-1"?>
<!-- Generator: Adobe Illustrator 19.0.0, SVG Export Plug-In . SVG Version: 6.00 Build 0)  -->
<svg xmlns="http://www.w3.org/2000/svg" xmlns:xlink="http://www.w3.org/1999/xlink" version="1.1" id="Capa_1" x="0px" y="0px" viewBox="0 0 409.6 409.6" style="enable-background:new 0 0 409.6 409.6;" xml:space="preserve">
<g>
	<path style="fill:#64798A;" d="M238.903,17.214l-3.627-14.632c26.014-6.448,53.049-0.68,74.171,15.737   c19.131,14.9,31.212,37.318,33.146,61.503l-15.027,1.201c-1.597-19.981-11.577-38.501-27.382-50.81   C282.765,16.67,260.398,11.886,238.903,17.214z"/>
	<path style="fill:#64798A;" d="M245.02,48.839l-3.627-14.632c16.724-4.147,34.082-0.436,47.68,10.118   c12.297,9.577,20.064,23.987,21.307,39.535l-15.027,1.201c-0.907-11.344-6.573-21.857-15.544-28.842   C269.915,48.496,257.225,45.812,245.02,48.839z"/>
	<path style="fill:#64798A;" d="M239.514,78.185l-3.627-14.632c11.684-2.895,23.83-0.326,33.312,7.068   c8.592,6.692,14.019,16.762,14.888,27.622l-15.026,1.205c-0.533-6.66-3.859-12.831-9.125-16.933   C254.108,77.96,246.679,76.41,239.514,78.185z"/>
</g>
<path style="fill:#27A2DB;" d="M242.036,87.17H85.125c-10.005,0-18.117,8.111-18.117,18.116v286.196  c0,10.005,8.111,18.117,18.117,18.117h156.911c10.006,0,18.117-8.112,18.117-18.117V105.287  C260.153,95.281,252.041,87.17,242.036,87.17z"/>
<path style="fill:#D5D6DB;" d="M226.77,116.996H100.39c-8.57,0-15.516,6.946-15.516,15.516v231.747  c0,8.569,6.947,15.516,15.516,15.516h126.38c8.57,0,15.517-6.947,15.517-15.516V132.512  C242.287,123.942,235.34,116.996,226.77,116.996z"/>
<circle style="fill:#FFFFFF;" cx="157.937" cy="394.496" r="11.172"/>
<circle style="fill:#EBF0F3;" cx="157.937" cy="394.496" r="8.571"/>
<path style="fill:#D5D6DB;" d="M159.135,399.879h-2.396c-2.275,0-4.129-1.869-4.129-4.162v-2.464c0-2.293,1.854-4.161,4.129-4.161  h2.396c2.275,0,4.129,1.869,4.129,4.161v2.464C163.264,398.011,161.41,399.879,159.135,399.879z M156.739,390.482  c-1.518,0-2.75,1.241-2.75,2.771v2.464c0,1.53,1.232,2.771,2.75,2.771h2.396c1.518,0,2.75-1.241,2.75-2.771v-2.464  c0-1.53-1.232-2.771-2.75-2.771H156.739z"/>
<path style="fill:#FFFFFF;" d="M185.831,106.548H141.33c-0.638,0-1.155-0.517-1.155-1.155v-1.921c0-0.638,0.517-1.155,1.155-1.155  h44.501c0.638,0,1.155,0.517,1.155,1.155v1.921C186.986,106.03,186.469,106.548,185.831,106.548z"/>
<g>
</g>
<g>
</g>
<g>
</g>
<g>
</g>
<g>
</g>
<g>
</g>
<g>
</g>
<g>
</g>
<g>
</g>
<g>
</g>
<g>
</g>
<g>
</g>
<g>
</g>
<g>
</g>
<g>
</g>
</svg>
