<?xml version="1.0" encoding="iso-8859-1"?>
<!-- Generator: Adobe Illustrator 19.0.0, SVG Export Plug-In . SVG Version: 6.00 Build 0)  -->
<svg xmlns="http://www.w3.org/2000/svg" xmlns:xlink="http://www.w3.org/1999/xlink" version="1.1" id="Capa_1" x="0px" y="0px" viewBox="0 0 409.6 409.6" style="enable-background:new 0 0 409.6 409.6;" xml:space="preserve">
<path style="fill:#F6C358;" d="M266.32,383.142h-50.994v-9.418h50.994c15.665,0,28.412-12.747,28.412-28.412v-35.335h9.418v35.335  C304.15,366.171,287.179,383.142,266.32,383.142z"/>
<path style="fill:#E56353;" d="M215.465,409.6H50.885c-8.1,0-14.666-6.566-14.666-14.666V106.378c0-8.1,6.566-14.666,14.666-14.666  h164.58c8.1,0,14.666,6.566,14.666,14.666v288.556C230.131,403.034,223.565,409.6,215.465,409.6z"/>
<circle style="fill:#FFFFFF;" cx="133.171" cy="327.347" r="56.028"/>
<circle style="fill:#D15241;" cx="133.171" cy="327.347" r="28.017"/>
<rect x="55.532" y="110.305" style="fill:#D5D6DB;" width="157.409" height="135.142"/>
<g>
	<polygon style="fill:#D15241;" points="133.175,276.432 122.657,286.951 143.693,286.951  "/>
	<polygon style="fill:#D15241;" points="133.175,378.433 143.693,367.915 122.657,367.915  "/>
	<polygon style="fill:#D15241;" points="82.175,327.345 92.693,337.863 92.693,316.827  "/>
	<polygon style="fill:#D15241;" points="184.175,327.345 173.657,316.827 173.657,337.863  "/>
</g>
<g>
	<polygon style="fill:#FCD462;" points="117.398,327.345 127.916,337.863 127.916,316.827  "/>
	<rect x="134.502" y="316.826" style="fill:#FCD462;" width="3.18" height="21.033"/>
	<rect x="142.106" y="316.826" style="fill:#FCD462;" width="3.18" height="21.033"/>
</g>
<path style="fill:#F6C358;" d="M299.441,314.686c-21.619,0-39.21-17.591-39.21-39.21v-20.436h9.418v20.436  c0,16.426,13.366,29.792,29.792,29.792s29.792-13.366,29.792-29.792v-20.436h9.418v20.436  C338.651,297.096,321.06,314.686,299.441,314.686z"/>
<g>
	<path style="fill:#D15241;" d="M266.979,260.994h-4.082c-2.48,0-4.49-2.01-4.49-4.49v-19.646c0-2.48,2.01-4.491,4.49-4.491h4.082   c2.48,0,4.49,2.01,4.49,4.491v19.646C271.47,258.984,269.459,260.994,266.979,260.994z"/>
	<path style="fill:#D15241;" d="M335.98,260.994h-4.082c-2.48,0-4.491-2.01-4.491-4.49v-19.646c0-2.48,2.01-4.491,4.491-4.491h4.082   c2.48,0,4.491,2.01,4.491,4.491v19.646C340.471,258.984,338.46,260.994,335.98,260.994z"/>
</g>
<path style="fill:#FCD462;" d="M264.938,183.827c-15.659,0-28.471,12.812-28.471,28.471c0,15.659,12.812,28.471,28.471,28.471  c15.659,0,28.471-12.812,28.471-28.471C293.409,196.639,280.598,183.827,264.938,183.827z"/>
<path style="fill:#F6C358;" d="M236.467,212.298L236.467,212.298c0-15.659,12.812-28.471,28.471-28.471h0  c15.659,0,28.471,12.812,28.471,28.471v0"/>
<circle style="fill:#E56353;" cx="264.94" cy="212.275" r="18.089"/>
<circle style="fill:#CE412D;" cx="264.94" cy="212.275" r="9.713"/>
<path style="fill:#E56353;" d="M346.6,203.687v19.783c0,4.914,3.983,8.897,8.897,8.897h8.444c4.914,0,8.897-3.983,8.897-8.897  v-19.783c0-4.914-3.983-8.897-8.897-8.897h-8.444C350.584,194.79,346.6,198.773,346.6,203.687z"/>
<path style="fill:#CE412D;" d="M372.708,203.417c-0.556,0-1.342,2.541-1.342,10.556s0.011,11.345,0.567,11.345  c0.557,0,1.448-3.33,1.448-11.345S373.264,203.417,372.708,203.417z"/>
<path style="fill:#FCD462;" d="M326.29,237.212h25.789v-49.829H326.29c-12.337-0.512-19.584,9.135-19.584,16.616v13.629  C306.706,228.444,315.474,237.212,326.29,237.212z"/>
<path style="fill:#F6C358;" d="M352.078,212.298v-24.915h-27.693c-9.765,0-17.68,7.916-17.68,17.68v7.234H352.078z"/>
<g>
	<path style="fill:#D15241;" d="M239.318,13.919l-0.12-13.916c24.741-0.213,47.781,10.763,63.227,30.033   C316.408,47.517,322.45,70.236,319,92.368l-13.75-2.144c2.85-18.284-2.141-37.054-13.694-51.495   C278.82,22.835,259.76,13.744,239.318,13.919z"/>
	<path style="fill:#D15241;" d="M238.03,43.627l-0.12-13.916c15.907-0.138,30.697,6.916,40.645,19.308   c8.989,11.236,12.873,25.84,10.656,40.069l-13.75-2.144c1.618-10.381-1.216-21.035-7.774-29.231   C260.457,48.657,249.638,43.527,238.03,43.627z"/>
	<path style="fill:#D15241;" d="M226.794,68.798l-0.12-13.916c11.112-0.094,21.468,4.817,28.397,13.489   c6.281,7.852,8.995,18.056,7.447,27.995l-13.751-2.14c0.949-6.095-0.715-12.349-4.564-17.161   C239.946,71.725,233.609,68.741,226.794,68.798z"/>
</g>
<g>
</g>
<g>
</g>
<g>
</g>
<g>
</g>
<g>
</g>
<g>
</g>
<g>
</g>
<g>
</g>
<g>
</g>
<g>
</g>
<g>
</g>
<g>
</g>
<g>
</g>
<g>
</g>
<g>
</g>
</svg>
