<?xml version="1.0" encoding="iso-8859-1"?>
<!-- Generator: Adobe Illustrator 19.0.0, SVG Export Plug-In . SVG Version: 6.00 Build 0)  -->
<svg xmlns="http://www.w3.org/2000/svg" xmlns:xlink="http://www.w3.org/1999/xlink" version="1.1" id="Capa_1" x="0px" y="0px" viewBox="0 0 409.6 409.6" style="enable-background:new 0 0 409.6 409.6;" xml:space="preserve">
<path style="fill:#E56353;" d="M276.58,409.6H50.687c-12.283,0-22.24-9.957-22.24-22.24V22.24C28.448,9.957,38.405,0,50.687,0  H276.58c12.283,0,22.24,9.957,22.24,22.24V387.36C298.82,399.643,288.863,409.6,276.58,409.6z"/>
<path style="fill:#D15241;" d="M161.311,409.6H57.808c-16.215,0-29.36-13.145-29.36-29.36V29.36C28.448,13.145,41.593,0,57.808,0  h103.503"/>
<path style="fill:#D5D6DB;" d="M255.872,37.888H71.396c-9.907,0-17.939,8.031-17.939,17.938v297.947  c0,9.907,8.031,17.938,17.939,17.938h184.476c9.907,0,17.938-8.031,17.938-17.938V55.826  C273.81,45.919,265.779,37.888,255.872,37.888z"/>
<ellipse style="fill:#FFFFFF;" cx="155.75" cy="390.4" rx="11.96" ry="11.868"/>
<ellipse style="fill:#EBF0F3;" cx="155.75" cy="390.4" rx="9.175" ry="9.108"/>
<path style="fill:#D5D6DB;" d="M157.017,396.131h-2.566c-2.437,0-4.422-1.986-4.422-4.422v-2.619c0-2.437,1.986-4.422,4.422-4.422  h2.566c2.437,0,4.422,1.986,4.422,4.422v2.619C161.439,394.146,159.454,396.131,157.017,396.131z M154.451,386.145  c-1.626,0-2.945,1.319-2.945,2.945v2.619c0,1.626,1.319,2.945,2.945,2.945h2.566c1.626,0,2.945-1.319,2.945-2.945v-2.619  c0-1.626-1.319-2.945-2.945-2.945H154.451z"/>
<path style="fill:#FFFFFF;" d="M195.243,24.616h-63.218c-0.638,0-1.155-0.517-1.155-1.155v-3.065c0-0.638,0.517-1.155,1.155-1.155  h63.218c0.638,0,1.155,0.517,1.155,1.155v3.065C196.398,24.099,195.881,24.616,195.243,24.616z"/>
<path style="fill:#44C4A1;" d="M288.775,117.288c-51.018,0-92.377,30.767-92.377,68.72c0,20.789,12.461,39.381,32.071,51.982  l-19.428,39.551l39.323-29.809c12.22,4.436,25.897,6.996,40.41,6.996c51.019,0,92.377-30.767,92.377-68.72  S339.794,117.288,288.775,117.288z"/>
<g>
	<rect x="232.704" y="156.718" style="fill:#31978C;" width="121.667" height="13.517"/>
	<rect x="232.704" y="179.251" style="fill:#31978C;" width="121.667" height="13.517"/>
	<rect x="232.704" y="200.653" style="fill:#31978C;" width="121.667" height="13.517"/>
</g>
<g>
</g>
<g>
</g>
<g>
</g>
<g>
</g>
<g>
</g>
<g>
</g>
<g>
</g>
<g>
</g>
<g>
</g>
<g>
</g>
<g>
</g>
<g>
</g>
<g>
</g>
<g>
</g>
<g>
</g>
</svg>
