<?xml version="1.0" encoding="iso-8859-1"?>
<!-- Generator: Adobe Illustrator 19.0.0, SVG Export Plug-In . SVG Version: 6.00 Build 0)  -->
<svg xmlns="http://www.w3.org/2000/svg" xmlns:xlink="http://www.w3.org/1999/xlink" version="1.1" id="Capa_1" x="0px" y="0px" viewBox="0 0 409.6 409.6" style="enable-background:new 0 0 409.6 409.6;" xml:space="preserve">
<path style="fill:#DC8744;" d="M204.797,314.321c-70.819,0-128.436-49.654-128.436-110.691v-81.508h72.975v28.023h-44.952v53.485  c0,45.581,45.045,82.668,100.413,82.668c55.373,0,100.418-37.087,100.418-82.668v-53.485h-46.238v-28.023h74.261v81.508  C333.239,264.668,275.621,314.321,204.797,314.321z"/>
<path style="fill:#E56353;" d="M204.799,0c-35.468,0-64.221,28.752-64.221,64.221v126.097c0,35.468,28.753,64.221,64.221,64.221  s64.221-28.753,64.221-64.221V64.221C269.02,28.753,240.267,0,204.799,0z"/>
<path style="fill:#CE412D;" d="M269.02,122.602v69.508c0,34.479-26.034,62.429-58.148,62.429h-12.145  c-32.114,0-58.148-27.95-58.148-62.429v-69.508H269.02z"/>
<rect x="190.771" y="300.288" style="fill:#DC8744;" width="28.022" height="72.863"/>
<path style="fill:#F6C358;" d="M259.795,351.685H149.804c-21.99,0-39.816,17.827-39.816,39.816V409.6h189.623v-18.098  C299.611,369.512,281.784,351.685,259.795,351.685z"/>
<path style="fill:#FCD462;" d="M259.871,351.685h-52.736V409.6h92.477v-18.174C299.611,369.478,281.818,351.685,259.871,351.685z"/>
<g>
	<rect x="199.629" style="fill:#F6C358;" width="11.208" height="39.69"/>
	<path style="fill:#F6C358;" d="M214.243,0.079v27.005h11.209V1.844C225.452,1.844,218.9,0.155,214.243,0.079z"/>
	<path style="fill:#F6C358;" d="M195.355,0.079v33.546h-11.209V1.844C184.146,1.844,190.656,0.155,195.355,0.079z"/>
</g>
<g>
</g>
<g>
</g>
<g>
</g>
<g>
</g>
<g>
</g>
<g>
</g>
<g>
</g>
<g>
</g>
<g>
</g>
<g>
</g>
<g>
</g>
<g>
</g>
<g>
</g>
<g>
</g>
<g>
</g>
</svg>
