<?xml version="1.0" encoding="iso-8859-1"?>
<!-- Generator: Adobe Illustrator 19.0.0, SVG Export Plug-In . SVG Version: 6.00 Build 0)  -->
<svg xmlns="http://www.w3.org/2000/svg" xmlns:xlink="http://www.w3.org/1999/xlink" version="1.1" id="Capa_1" x="0px" y="0px" viewBox="0 0 409.6 409.6" style="enable-background:new 0 0 409.6 409.6;" xml:space="preserve">
<rect y="144.628" style="fill:#E56353;" width="409.6" height="227.226"/>
<polygon style="fill:#D15241;" points="409.6,371.831 207.612,229.826 0,371.831 "/>
<polygon style="fill:#FCD462;" points="409.6,144.623 207.612,286.628 0,144.623 "/>
<path style="fill:#44C4A1;" d="M304.707,37.746H118.532c-7.854,0-14.221,6.367-14.221,14.22v93.341  c0,7.854,6.367,14.22,14.221,14.22h20.695l-16.948,41.925l50.845-41.925h131.584c7.853,0,14.22-6.367,14.22-14.22V51.967  C318.927,44.113,312.56,37.746,304.707,37.746z"/>
<g>
	<path style="fill:#31978C;" d="M286.569,91.636H140.761c-3.358,0-6.08-2.722-6.08-6.08V69.267c0-3.358,2.722-6.08,6.08-6.08   h145.807c3.358,0,6.08,2.722,6.08,6.08v16.289C292.649,88.914,289.927,91.636,286.569,91.636z"/>
	<circle style="fill:#31978C;" cx="171.059" cy="118.004" r="12.928"/>
	<circle style="fill:#31978C;" cx="213.524" cy="118.004" r="12.928"/>
	<circle style="fill:#31978C;" cx="256.256" cy="118.004" r="12.928"/>
</g>
<g>
</g>
<g>
</g>
<g>
</g>
<g>
</g>
<g>
</g>
<g>
</g>
<g>
</g>
<g>
</g>
<g>
</g>
<g>
</g>
<g>
</g>
<g>
</g>
<g>
</g>
<g>
</g>
<g>
</g>
</svg>
