<?xml version="1.0" encoding="iso-8859-1"?>
<!-- Generator: Adobe Illustrator 19.0.0, SVG Export Plug-In . SVG Version: 6.00 Build 0)  -->
<svg xmlns="http://www.w3.org/2000/svg" xmlns:xlink="http://www.w3.org/1999/xlink" version="1.1" id="Capa_1" x="0px" y="0px" viewBox="0 0 409.6 409.6" style="enable-background:new 0 0 409.6 409.6;" xml:space="preserve">
<rect y="30.2" style="fill:#2F4859;" width="409.6" height="267.622"/>
<path style="fill:#27A2DB;" d="M369.531,53.411H38.206c-8.796,0-15.927,7.131-15.927,15.927v189.329  c0,8.796,7.131,15.927,15.927,15.927h331.325c8.796,0,15.927-7.131,15.927-15.927V69.338  C385.458,60.542,378.327,53.411,369.531,53.411z"/>
<polygon style="fill:#FFFFFF;" points="385.458,151.875 385.458,166.539 329.967,166.539 325.235,141.85 298.054,234.565   279.15,130.147 263.75,166.539 144.135,166.539 139.404,141.854 112.23,234.568 93.29,129.975 77.898,165.955 22.279,165.955   22.279,151.291 68.35,151.291 98.965,79.732 115.578,171.472 142.355,80.09 156.123,151.875 254.16,151.875 284.754,79.56   301.402,171.476 328.186,80.093 341.954,151.875 "/>
<rect y="297.823" style="fill:#D5D6DB;" width="409.6" height="53.248"/>
<g>
	<rect x="312.73" y="351.071" style="fill:#3A556A;" width="48.128" height="28.329"/>
	<rect x="51.123" y="351.071" style="fill:#3A556A;" width="48.128" height="28.329"/>
</g>
<circle style="fill:#CE412D;" cx="336.794" cy="324.447" r="18.089"/>
<circle style="fill:#F6C358;" cx="287.642" cy="324.447" r="18.089"/>
<g>
</g>
<g>
</g>
<g>
</g>
<g>
</g>
<g>
</g>
<g>
</g>
<g>
</g>
<g>
</g>
<g>
</g>
<g>
</g>
<g>
</g>
<g>
</g>
<g>
</g>
<g>
</g>
<g>
</g>
</svg>
