<?xml version="1.0" encoding="iso-8859-1"?>
<!-- Generator: Adobe Illustrator 19.0.0, SVG Export Plug-In . SVG Version: 6.00 Build 0)  -->
<svg xmlns="http://www.w3.org/2000/svg" xmlns:xlink="http://www.w3.org/1999/xlink" version="1.1" id="Capa_1" x="0px" y="0px" viewBox="0 0 409.6 409.6" style="enable-background:new 0 0 409.6 409.6;" xml:space="preserve">
<path style="fill:#27A2DB;" d="M314.988,409.6H94.612c-23.462,0-42.481-19.02-42.481-42.481V158.8H357.47v208.318  C357.47,390.58,338.45,409.6,314.988,409.6z"/>
<path style="fill:#2D93BA;" d="M52.13,158.8v208.733c0,23.232,18.834,42.066,42.066,42.066H204.8V158.8H52.13z"/>
<g>
	<ellipse style="fill:#D5D6DB;" cx="204.8" cy="236.186" rx="27.53" ry="31.283"/>
	<rect x="188.534" y="256.205" style="fill:#D5D6DB;" width="32.538" height="78.213"/>
	<rect x="52.122" y="129.536" style="fill:#D5D6DB;" width="305.357" height="29.281"/>
</g>
<path style="fill:#64798A;" d="M308.353,129.519h-37.542V54.905c0-9.576-7.791-17.363-17.363-17.363h-99.486  c-9.572,0-17.363,7.787-17.363,17.363v74.614H99.057V54.905C99.057,24.629,123.687,0,153.962,0h99.486  c30.275,0,54.905,24.629,54.905,54.905V129.519z"/>
<g>
</g>
<g>
</g>
<g>
</g>
<g>
</g>
<g>
</g>
<g>
</g>
<g>
</g>
<g>
</g>
<g>
</g>
<g>
</g>
<g>
</g>
<g>
</g>
<g>
</g>
<g>
</g>
<g>
</g>
</svg>
