<?xml version="1.0" encoding="iso-8859-1"?>
<!-- Generator: Adobe Illustrator 19.0.0, SVG Export Plug-In . SVG Version: 6.00 Build 0)  -->
<svg xmlns="http://www.w3.org/2000/svg" xmlns:xlink="http://www.w3.org/1999/xlink" version="1.1" id="Capa_1" x="0px" y="0px" viewBox="0 0 409.6 409.6" style="enable-background:new 0 0 409.6 409.6;" xml:space="preserve">
<path style="fill:#E56353;" d="M214.504,248.197H68.92C30.917,248.197,0,217.28,0,179.277c0-37.999,30.917-68.915,68.92-68.915  h145.584c28.817,0,64.233,12.707,65.872,47.619h-24.693c-6.37-14.451-22.709-21.775-41.179-21.775H68.92  c-23.754,0-43.076,19.322-43.076,43.071c0,23.754,19.322,43.076,43.076,43.076h145.584c18.707,0,37.475-12.493,41.179-29.937h24.693  C277.608,223.234,244.436,248.197,214.504,248.197z"/>
<path style="fill:#27A2DB;" d="M340.68,299.239H195.096c-25.703,0-55.968-15.4-62.389-45.605h22.896  c7.511,14.345,23.441,19.761,39.493,19.761H340.68c23.754,0,43.077-19.322,43.077-43.076c0-23.749-19.322-43.071-43.077-43.071  H195.096c-17.783,0-33.158,15.097-39.493,31.82h-22.896c0.929-29.72,33.925-57.664,62.389-57.664H340.68  c38.004,0,68.92,30.917,68.92,68.915C409.6,268.322,378.683,299.239,340.68,299.239z"/>
<g>
</g>
<g>
</g>
<g>
</g>
<g>
</g>
<g>
</g>
<g>
</g>
<g>
</g>
<g>
</g>
<g>
</g>
<g>
</g>
<g>
</g>
<g>
</g>
<g>
</g>
<g>
</g>
<g>
</g>
</svg>
