<?xml version="1.0" encoding="iso-8859-1"?>
<!-- Generator: Adobe Illustrator 19.0.0, SVG Export Plug-In . SVG Version: 6.00 Build 0)  -->
<svg xmlns="http://www.w3.org/2000/svg" xmlns:xlink="http://www.w3.org/1999/xlink" version="1.1" id="Capa_1" x="0px" y="0px" viewBox="0 0 409.6 409.6" style="enable-background:new 0 0 409.6 409.6;" xml:space="preserve">
<rect x="162.514" y="323.635" style="fill:#3A556A;" width="84.572" height="67.589"/>
<rect x="183.311" y="323.635" style="fill:#64798A;" width="42.982" height="67.589"/>
<path style="fill:#FCD462;" d="M266.958,299.35c-1.139,3.317-4.156,8.986-7.289,14.472c-5.288,9.26-15.355,12.283-26.01,11.853  H172.67c-11.345-0.457-21.495-7.272-26.126-17.639c-1.934-4.329-3.669-8.474-4.445-11.012c-18.198-59.5-21.449-76.114-34.329-98.896  c-12.718-22.496-24.604-46.543-24.604-74.539C83.167,55.333,137.624,0,204.8,0s121.633,55.333,121.633,123.589  c0,29.062-12.927,53.712-26.396,76.884C286.939,223.009,276.646,271.132,266.958,299.35z"/>
<path style="fill:#F6C358;" d="M203.321,325.675h30.338c10.655,0.43,20.722-2.593,26.01-11.853  c3.133-5.485,6.15-11.154,7.289-14.472c9.688-28.218,19.981-76.341,33.079-98.877c13.468-23.172,26.396-47.822,26.396-76.884  C326.433,55.333,271.976,0,204.8,0L203.321,325.675z"/>
<g>
	<rect x="162.514" y="332.585" style="fill:#D5D6DB;" width="84.572" height="11.244"/>
	<rect x="162.514" y="353.741" style="fill:#D5D6DB;" width="84.572" height="10.982"/>
	<rect x="162.514" y="374.016" style="fill:#D5D6DB;" width="84.572" height="10.982"/>
</g>
<path style="fill:#DC8744;" d="M225.544,391.237c0,10.142-9.287,18.363-20.744,18.363c-11.456,0-20.744-8.221-20.744-18.363H225.544  z"/>
<g>
</g>
<g>
</g>
<g>
</g>
<g>
</g>
<g>
</g>
<g>
</g>
<g>
</g>
<g>
</g>
<g>
</g>
<g>
</g>
<g>
</g>
<g>
</g>
<g>
</g>
<g>
</g>
<g>
</g>
</svg>
