<?xml version="1.0" encoding="iso-8859-1"?>
<!-- Generator: Adobe Illustrator 19.0.0, SVG Export Plug-In . SVG Version: 6.00 Build 0)  -->
<svg xmlns="http://www.w3.org/2000/svg" xmlns:xlink="http://www.w3.org/1999/xlink" version="1.1" id="Capa_1" x="0px" y="0px" viewBox="0 0 409.6 409.6" style="enable-background:new 0 0 409.6 409.6;" xml:space="preserve">
<rect x="147.533" y="325.683" style="fill:#D15241;" width="114.529" height="36.311"/>
<path style="fill:#E56353;" d="M409.6,35.632c0-6.31-5.115-11.426-11.426-11.426H11.426C5.115,24.206,0,29.321,0,35.632v237.705  h409.6V35.632z"/>
<rect x="22.344" y="46.541" style="fill:#27A2DB;" width="364.902" height="226.765"/>
<path style="fill:#E56353;" d="M0,273.337v44.793c0,6.31,5.115,11.426,11.426,11.426h386.748c6.31,0,11.426-5.115,11.426-11.426  v-44.793H0z"/>
<circle style="fill:#EBF0F3;" cx="204.8" cy="301.445" r="15.529"/>
<path style="fill:#E56353;" d="M275.956,359.395H133.644c-14.359,0-25.999,11.64-25.999,25.999v0h194.31v0  C301.955,371.035,290.314,359.395,275.956,359.395z"/>
<g>
</g>
<g>
</g>
<g>
</g>
<g>
</g>
<g>
</g>
<g>
</g>
<g>
</g>
<g>
</g>
<g>
</g>
<g>
</g>
<g>
</g>
<g>
</g>
<g>
</g>
<g>
</g>
<g>
</g>
</svg>
