<?xml version="1.0" encoding="iso-8859-1"?>
<!-- Generator: Adobe Illustrator 19.0.0, SVG Export Plug-In . SVG Version: 6.00 Build 0)  -->
<svg xmlns="http://www.w3.org/2000/svg" xmlns:xlink="http://www.w3.org/1999/xlink" version="1.1" id="Capa_1" x="0px" y="0px" viewBox="0 0 409.6 409.6" style="enable-background:new 0 0 409.6 409.6;" xml:space="preserve">
<g>
	<rect x="57.774" y="311.803" style="fill:#EBF0F3;" width="29.737" height="19.825"/>
	<rect x="305.613" y="311.803" style="fill:#EBF0F3;" width="29.737" height="19.825"/>
</g>
<path style="fill:#3EA69B;" d="M386.385,58.744c0-5.595-4.536-10.131-10.131-10.131H33.345c-5.595,0-10.131,4.536-10.131,10.131  v210.761h363.171V58.744z"/>
<path style="fill:#31978C;" d="M23.215,263.439v44.549c0,6.276,4.536,11.364,10.131,11.364h342.909  c5.595,0,10.131-5.088,10.131-11.364v-44.549H23.215z"/>
<rect x="43.023" y="68.424" style="fill:#D5D6DB;" width="323.533" height="223.816"/>
<path style="fill:#44C4A1;" d="M409.6,317.773v24.656c0,10.249-9.405,18.557-21.006,18.557H21.006C9.405,360.987,0,352.678,0,342.43  v-24.656H409.6z"/>
<g>
	<path style="fill:#EBF0F3;" d="M245.062,348.048h-80.524c-2.853,0-5.188-2.335-5.188-5.188v-6.961c0-2.853,2.335-5.188,5.188-5.188   h80.524c2.853,0,5.188,2.334,5.188,5.188v6.961C250.25,345.714,247.915,348.048,245.062,348.048z"/>
	<circle style="fill:#EBF0F3;" cx="200.038" cy="58.358" r="7.383"/>
</g>
<g>
	<circle style="fill:#D5D6DB;" cx="200.038" cy="58.358" r="4.475"/>
	<path style="fill:#D5D6DB;" d="M226.22,348.048h-42.84c-2.853,0-5.188-2.335-5.188-5.188v-6.961c0-2.853,2.335-5.188,5.188-5.188   h42.84c2.853,0,5.188,2.335,5.188,5.188v6.961C231.408,345.714,229.073,348.048,226.22,348.048z"/>
</g>
<g>
</g>
<g>
</g>
<g>
</g>
<g>
</g>
<g>
</g>
<g>
</g>
<g>
</g>
<g>
</g>
<g>
</g>
<g>
</g>
<g>
</g>
<g>
</g>
<g>
</g>
<g>
</g>
<g>
</g>
</svg>
