<?xml version="1.0" encoding="iso-8859-1"?>
<!-- Generator: Adobe Illustrator 19.0.0, SVG Export Plug-In . SVG Version: 6.00 Build 0)  -->
<svg xmlns="http://www.w3.org/2000/svg" xmlns:xlink="http://www.w3.org/1999/xlink" version="1.1" id="Capa_1" x="0px" y="0px" viewBox="0 0 409.6 409.6" style="enable-background:new 0 0 409.6 409.6;" xml:space="preserve">
<path style="fill:#64798A;" d="M191.639,229.128c-4.219,0-7.632-3.414-7.632-7.632v-18.76c0-26.132,21.257-47.389,47.381-47.389  H348.66c9.734,0,17.65-7.916,17.65-17.65c0-10.606-8.631-19.237-19.237-19.237H238.387c-29.985,0-54.38-24.395-54.38-54.38V31.642  c0-4.219,3.414-7.632,7.632-7.632c4.219,0,7.632,3.414,7.632,7.632v32.437c0,21.57,17.545,39.116,39.116,39.116h108.686  c19.021,0,34.502,15.481,34.502,34.502c0,18.149-14.765,32.914-32.914,32.914H231.388c-17.709,0-32.117,14.407-32.117,32.124v18.76  C199.271,225.714,195.858,229.128,191.639,229.128z"/>
<path style="fill:#27A2DB;" d="M399.002,212.591H10.598C4.745,212.591,0,217.336,0,223.189v151.803  c0,5.853,4.745,10.598,10.598,10.598h388.404c5.853,0,10.598-4.745,10.598-10.598V223.189  C409.6,217.336,404.855,212.591,399.002,212.591z"/>
<g>
	<rect x="46.643" y="241.664" style="fill:#CE412D;" width="20.352" height="23.532"/>
	<rect x="76.242" y="241.664" style="fill:#CE412D;" width="20.352" height="23.532"/>
	<rect x="105.82" y="241.664" style="fill:#CE412D;" width="20.352" height="23.532"/>
	<rect x="135.869" y="241.664" style="fill:#CE412D;" width="20.352" height="23.532"/>
	<rect x="164.506" y="241.664" style="fill:#CE412D;" width="20.352" height="23.532"/>
	<rect x="193.592" y="241.664" style="fill:#CE412D;" width="20.352" height="23.532"/>
	<rect x="223.165" y="241.664" style="fill:#CE412D;" width="20.352" height="23.532"/>
	<rect x="252.723" y="241.664" style="fill:#CE412D;" width="20.352" height="23.532"/>
	<rect x="282.778" y="241.664" style="fill:#CE412D;" width="20.352" height="23.532"/>
	<rect x="312.986" y="241.664" style="fill:#CE412D;" width="20.352" height="23.532"/>
</g>
<rect x="342.118" y="242.074" style="fill:#F6C358;" width="27.008" height="23.532"/>
<g>
	<rect x="16.538" y="290.355" style="fill:#D5D6DB;" width="36.454" height="23.532"/>
	<rect x="63.867" y="290.355" style="fill:#D5D6DB;" width="20.352" height="23.532"/>
	<rect x="97.382" y="290.355" style="fill:#D5D6DB;" width="20.352" height="23.532"/>
	<rect x="164.403" y="290.355" style="fill:#D5D6DB;" width="20.352" height="23.532"/>
	<rect x="130.883" y="290.355" style="fill:#D5D6DB;" width="20.352" height="23.532"/>
	<rect x="197.898" y="290.355" style="fill:#D5D6DB;" width="20.352" height="23.532"/>
	<rect x="231.424" y="290.355" style="fill:#D5D6DB;" width="20.352" height="23.532"/>
	<rect x="264.909" y="290.355" style="fill:#D5D6DB;" width="20.352" height="23.532"/>
	<rect x="298.394" y="290.355" style="fill:#D5D6DB;" width="20.352" height="23.532"/>
	<rect x="331.924" y="290.355" style="fill:#D5D6DB;" width="20.352" height="23.532"/>
</g>
<rect x="363.095" y="242.074" style="fill:#F6C358;" width="30.126" height="71.782"/>
<g>
	<rect x="16.538" y="339.968" style="fill:#D5D6DB;" width="20.352" height="23.532"/>
	<rect x="45.635" y="339.968" style="fill:#D5D6DB;" width="20.352" height="23.532"/>
	<rect x="75.208" y="339.968" style="fill:#D5D6DB;" width="20.352" height="23.532"/>
</g>
<rect x="104.786" y="339.968" style="fill:#FFFFFF;" width="20.352" height="23.532"/>
<rect x="104.622" y="339.968" style="fill:#FCD462;" width="199.327" height="23.532"/>
<g>
	<rect x="314.214" y="339.968" style="fill:#D5D6DB;" width="20.352" height="23.532"/>
	<rect x="343.296" y="339.968" style="fill:#D5D6DB;" width="20.352" height="23.532"/>
	<rect x="372.89" y="339.968" style="fill:#D5D6DB;" width="20.352" height="23.532"/>
</g>
<g>
</g>
<g>
</g>
<g>
</g>
<g>
</g>
<g>
</g>
<g>
</g>
<g>
</g>
<g>
</g>
<g>
</g>
<g>
</g>
<g>
</g>
<g>
</g>
<g>
</g>
<g>
</g>
<g>
</g>
</svg>
