<?xml version="1.0" encoding="iso-8859-1"?>
<!-- Generator: Adobe Illustrator 19.0.0, SVG Export Plug-In . SVG Version: 6.00 Build 0)  -->
<svg xmlns="http://www.w3.org/2000/svg" xmlns:xlink="http://www.w3.org/1999/xlink" version="1.1" id="Capa_1" x="0px" y="0px" viewBox="0 0 409.6 409.6" style="enable-background:new 0 0 409.6 409.6;" xml:space="preserve">
<path style="fill:#DC8744;" d="M265.74,182.649H143.86c-4.573,0-8.28,3.707-8.28,8.28V401.32c0,4.573,3.707,8.28,8.28,8.28h121.88  c4.573,0,8.28-3.707,8.28-8.28V190.929C274.02,186.356,270.313,182.649,265.74,182.649z"/>
<circle style="fill:#FFFFFF;" cx="204.8" cy="350.874" r="40.003"/>
<circle style="fill:#E56353;" cx="204.8" cy="350.874" r="19.999"/>
<rect x="149.35" y="195.942" style="fill:#EBF0F3;" width="112.379" height="96.481"/>
<g>
	<polygon style="fill:#E56353;" points="204.8,314.527 197.291,322.037 212.309,322.037  "/>
	<polygon style="fill:#E56353;" points="204.8,387.349 212.309,379.84 197.291,379.84  "/>
	<polygon style="fill:#E56353;" points="168.389,350.876 175.898,358.385 175.898,343.366  "/>
	<polygon style="fill:#E56353;" points="241.211,350.876 233.702,343.366 233.702,358.385  "/>
</g>
<g>
	<polygon style="fill:#FCD462;" points="193.536,350.876 201.045,358.385 201.045,343.366  "/>
	<rect x="205.722" y="343.347" style="fill:#FCD462;" width="2.268" height="15.017"/>
	<rect x="211.2" y="343.347" style="fill:#FCD462;" width="2.268" height="15.017"/>
</g>
<path style="fill:#D5D6DB;" d="M57.51,308.047c-27.683-31.951-42.927-72.863-42.927-115.201  c0-100.191,99.009-189.387,194.12-189.387c96.826,0,186.315,90.586,186.315,188.817c0,41.27-14.154,76.491-44.54,110.856  l-16.839-14.893c26.545-30.005,38.908-60.501,38.908-95.963c0-85.627-79.618-166.346-163.844-166.346  c-82.303,0-171.649,79.534-171.649,166.916c0,36.932,13.295,72.614,37.441,100.484L57.51,308.047z"/>
<path style="fill:#27A2DB;" d="M87.449,201.46L87.449,201.46c21.636,0,39.338,17.702,39.338,39.338v51.598  c0,21.636-17.702,39.338-39.338,39.338h0"/>
<rect x="66.97" y="201.472" style="fill:#CE412D;" width="21.402" height="130.273"/>
<rect x="43.141" y="219.392" style="fill:#E56353;" width="23.854" height="94.602"/>
<path style="fill:#27A2DB;" d="M321.602,201.46L321.602,201.46c-21.636,0-39.338,17.702-39.338,39.338v51.598  c0,21.636,17.702,39.338,39.338,39.338h0"/>
<rect x="320.666" y="201.452" style="fill:#CE412D;" width="21.402" height="130.273"/>
<rect x="342.072" y="219.407" style="fill:#E56353;" width="23.854" height="94.602"/>
<path style="fill:#2F4859;" d="M342.057,112.106c-23.925-42.999-80.526-69.71-129.671-69.71  c-49.976,0-119.008,26.657-142.427,69.562L32.745,91.647C63.598,35.115,146.891,0,212.387,0c64.523,0,138.122,32.377,168.244,93.758  L342.057,112.106z"/>
<g>
</g>
<g>
</g>
<g>
</g>
<g>
</g>
<g>
</g>
<g>
</g>
<g>
</g>
<g>
</g>
<g>
</g>
<g>
</g>
<g>
</g>
<g>
</g>
<g>
</g>
<g>
</g>
<g>
</g>
</svg>
