<?xml version="1.0" encoding="iso-8859-1"?>
<!-- Generator: Adobe Illustrator 19.0.0, SVG Export Plug-In . SVG Version: 6.00 Build 0)  -->
<svg xmlns="http://www.w3.org/2000/svg" xmlns:xlink="http://www.w3.org/1999/xlink" version="1.1" id="Capa_1" x="0px" y="0px" viewBox="0 0 409.6 409.6" style="enable-background:new 0 0 409.6 409.6;" xml:space="preserve">
<g>
	<path style="fill:#44C4A1;" d="M190.806,395.608C85.597,395.608,0,310.011,0,204.802C0,99.589,85.597,13.992,190.806,13.992   c90.251,0,168.865,64.078,186.93,152.367c1.006,4.924-2.169,9.735-7.093,10.741c-4.9,1.003-9.735-2.165-10.741-7.093   c-16.338-79.851-87.453-137.81-169.096-137.81c-95.172,0-172.601,77.43-172.601,172.605c0,95.172,77.43,172.601,172.601,172.601   c80.751,0,149.889-54.848,168.129-133.384c1.138-4.896,6.037-7.94,10.926-6.809c4.896,1.138,7.947,6.03,6.809,10.926   C356.499,334.968,280.069,395.608,190.806,395.608z"/>
	<path style="fill:#44C4A1;" d="M211.595,218.011H9.305c-5.028,0-9.102-4.075-9.102-9.102c0-5.028,4.075-9.102,9.102-9.102h202.29   c5.028,0,9.102,4.075,9.102,9.102C220.698,213.936,216.623,218.011,211.595,218.011z"/>
	<path style="fill:#44C4A1;" d="M190.696,130.572c-84.548,0-140.964-37.188-141.803-37.757l10.187-15.086   c1.173,0.796,119.008,77.92,267.823-0.505l8.484,16.107C282.415,121.242,233.025,130.572,190.696,130.572z"/>
	<path style="fill:#44C4A1;" d="M326.01,338.139c-135.993-92.857-265.377-1.088-266.668-0.153L48.64,323.259   c1.401-1.013,141.167-100.16,287.638-0.153L326.01,338.139z"/>
	<path style="fill:#44C4A1;" d="M152.061,386.338C15.929,166.985,151.883,23.144,153.27,21.715l13.049,12.7l-6.524-6.35l6.532,6.34   c-5.252,5.433-127.186,135.453,1.202,342.334L152.061,386.338z"/>
	<path style="fill:#44C4A1;" d="M219.62,390.641c-1.639,0-3.3-0.441-4.793-1.369c-4.27-2.649-5.586-8.263-2.933-12.533   c24.629-39.687,41.653-79.446,50.599-118.173c1.131-4.9,6.016-7.947,10.916-6.82c4.9,1.131,7.954,6.02,6.82,10.916   c-9.394,40.676-27.182,82.287-52.868,123.677C225.636,389.115,222.664,390.641,219.62,390.641z"/>
	<path style="fill:#44C4A1;" d="M276.044,162.135c-4.416,0-8.295-3.218-8.985-7.719c-11.602-75.467-53.543-119.577-53.963-120.011   c-3.492-3.612-3.406-9.372,0.199-12.868c3.612-3.495,9.355-3.413,12.857,0.178c1.884,1.941,46.368,48.434,58.898,129.935   c0.764,4.967-2.645,9.614-7.612,10.379C276.968,162.103,276.502,162.135,276.044,162.135z"/>
	<rect x="181.709" y="23.096" style="fill:#44C4A1;" width="18.207" height="363.412"/>
</g>
<polygon style="fill:#EBF0F3;" points="313.195,260.017 313.195,225.817 409.6,225.817 409.6,193.155 313.195,193.155   313.195,157.802 219.626,208.91 "/>
<polygon style="fill:#E1E6E9;" points="409.6,225.817 313.195,225.817 313.195,260.017 219.626,208.91 409.6,208.91 "/>
<g>
</g>
<g>
</g>
<g>
</g>
<g>
</g>
<g>
</g>
<g>
</g>
<g>
</g>
<g>
</g>
<g>
</g>
<g>
</g>
<g>
</g>
<g>
</g>
<g>
</g>
<g>
</g>
<g>
</g>
</svg>
