<?xml version="1.0" encoding="iso-8859-1"?>
<!-- Generator: Adobe Illustrator 19.0.0, SVG Export Plug-In . SVG Version: 6.00 Build 0)  -->
<svg xmlns="http://www.w3.org/2000/svg" xmlns:xlink="http://www.w3.org/1999/xlink" version="1.1" id="Capa_1" x="0px" y="0px" viewBox="0 0 409.62 409.62" style="enable-background:new 0 0 409.62 409.62;" xml:space="preserve">
<path style="fill:#64798A;" d="M176.874,267.13l-14.115-10.329c0.592-0.814,14.787-19.855,38.423-22.537  c15.852-1.851,31.764,4.065,47.237,17.441l-11.439,13.233c-11.624-10.05-23.018-14.485-33.825-13.295  C187.302,253.442,176.974,266.994,176.874,267.13z"/>
<path style="fill:#2F4859;" d="M399.058,267.768c-3.052,0-6.016-1.6-7.624-4.447c-0.917-1.623-93.751-162.061-286.167-174.702  c-4.82-0.319-8.473-4.481-8.154-9.304c0.313-4.817,4.569-8.41,9.298-8.154c202.084,13.278,299.3,181.865,300.259,183.567  c2.369,4.208,0.88,9.537-3.325,11.906C401.987,267.404,400.512,267.768,399.058,267.768z"/>
<path style="fill:#3A556A;" d="M14.468,267.768c-1.455,0-2.93-0.364-4.288-1.133c-4.205-2.369-5.694-7.698-3.325-11.906  c0.959-1.702,98.178-170.289,300.262-183.567c4.757-0.268,8.982,3.337,9.298,8.154c0.319,4.823-3.334,8.985-8.154,9.304  C115.846,101.26,23.009,261.698,22.093,263.321C20.484,266.168,17.52,267.768,14.468,267.768z"/>
<ellipse style="fill:#EBF0F3;" cx="91.105" cy="272.148" rx="91.105" ry="66.324"/>
<path style="fill:#E1E6E9;" d="M96.691,205.846c0,0,21.565,1.581,33.057,6.266L55.689,333.276c0,0-16.734-5.484-24.848-11.385  L96.691,205.846z"/>
<ellipse style="fill:#EBF0F3;" cx="318.515" cy="272.148" rx="91.105" ry="66.324"/>
<path style="fill:#E1E6E9;" d="M324.084,205.846c0,0,21.565,1.581,33.057,6.266l-74.059,121.164c0,0-16.734-5.484-24.848-11.385  L324.084,205.846z"/>
<g>
</g>
<g>
</g>
<g>
</g>
<g>
</g>
<g>
</g>
<g>
</g>
<g>
</g>
<g>
</g>
<g>
</g>
<g>
</g>
<g>
</g>
<g>
</g>
<g>
</g>
<g>
</g>
<g>
</g>
</svg>
