<?xml version="1.0" encoding="iso-8859-1"?>
<!-- Generator: Adobe Illustrator 19.0.0, SVG Export Plug-In . SVG Version: 6.00 Build 0)  -->
<svg xmlns="http://www.w3.org/2000/svg" xmlns:xlink="http://www.w3.org/1999/xlink" version="1.1" id="Capa_1" x="0px" y="0px" viewBox="0 0 409.6 409.6" style="enable-background:new 0 0 409.6 409.6;" xml:space="preserve">
<path style="fill:#64798A;" d="M204.798,206.878c-4.113,0-7.447-3.335-7.447-7.447v-26.724c0-13.324-10.84-24.164-24.164-24.164  h-18.935c-17.451,0-31.651-14.2-31.651-31.651s14.2-31.651,31.651-31.651h136.891c8.556,0,15.516-6.96,15.516-15.516  s-6.96-15.516-15.516-15.516H122.602V19.987c0-4.113,3.335-7.447,7.447-7.447c4.113,0,7.447,3.335,7.447,7.447v19.327h153.647  c16.767,0,30.411,13.644,30.411,30.411s-13.644,30.411-30.411,30.411H154.253c-9.24,0-16.756,7.516-16.756,16.756  s7.516,16.756,16.756,16.756h18.935c21.538,0,39.058,17.52,39.058,39.058v26.724C212.246,203.543,208.911,206.878,204.798,206.878z"/>
<path style="fill:#D5D6DB;" d="M337.92,155.397c-11.657,0-22.66,4.699-32.387,13.026c-10.416,8.918-23.404,14.28-37.116,14.28  H141.183c-13.712,0-26.7-5.362-37.116-14.28c-9.727-8.328-20.731-13.026-32.388-13.026C32.092,155.397,0,209.495,0,276.229  C0,342.962,32.092,397.06,71.68,397.06c10.693,0,20.825-3.978,29.93-11.073c9.471-7.379,21.455-10.772,33.461-10.772h139.457  c12.006,0,23.99,3.393,33.461,10.772c9.106,7.095,19.237,11.073,29.93,11.073c39.588,0,71.68-54.099,71.68-120.832  C409.6,209.495,377.508,155.397,337.92,155.397z"/>
<rect x="130.048" y="214.42" style="fill:#27A2DB;" width="149.504" height="128.051"/>
<rect x="130.048" y="333.261" style="fill:#1C75A1;" width="149.504" height="9.211"/>
<path style="fill:#EBF0F3;" d="M331.065,231.609l-33.516,33.516c-6.317,6.317-6.317,16.558,0,22.875  c6.317,6.317,16.559,6.317,22.875,0l33.516-33.516c6.317-6.317,6.317-16.559,0-22.875  C347.623,225.292,337.382,225.292,331.065,231.609z"/>
<ellipse style="fill:#E56353;" cx="309.004" cy="276.552" rx="12.155" ry="12.155"/>
<ellipse style="fill:#44C4A1;" cx="342.481" cy="243.069" rx="12.155" ry="12.155"/>
<path style="fill:#EBF0F3;" d="M360.495,261.04l-33.516,33.516c-6.317,6.317-6.317,16.558,0,22.875  c6.317,6.317,16.559,6.317,22.875,0l33.516-33.516c6.317-6.317,6.317-16.559,0-22.875  C377.053,254.723,366.812,254.723,360.495,261.04z"/>
<ellipse style="fill:#F6C358;" cx="338.442" cy="305.97" rx="12.155" ry="12.155"/>
<ellipse style="fill:#27A2DB;" cx="371.932" cy="272.496" rx="12.155" ry="12.155"/>
<path style="fill:#D15241;" d="M109.7,263.31H82.727v-26.973c0-2.587-2.097-4.685-4.685-4.685H60.439  c-2.587,0-4.685,2.097-4.685,4.685v26.973H28.781c-2.587,0-4.685,2.097-4.685,4.685v17.603c0,2.587,2.097,4.685,4.685,4.685h26.973  v26.973c0,2.587,2.097,4.685,4.685,4.685h17.603c2.587,0,4.685-2.097,4.685-4.685v-26.973H109.7c2.587,0,4.685-2.097,4.685-4.685  v-17.603C114.385,265.407,112.288,263.31,109.7,263.31z"/>
<g>
	<polygon style="fill:#E56353;" points="69.241,239.212 62.214,246.238 76.267,246.238  "/>
	<polygon style="fill:#E56353;" points="69.241,314.381 76.267,307.354 62.214,307.354  "/>
	<polygon style="fill:#E56353;" points="106.825,276.796 99.799,269.769 99.799,283.823  "/>
	<polygon style="fill:#E56353;" points="31.656,276.796 38.683,283.823 38.683,269.769  "/>
</g>
<g>
</g>
<g>
</g>
<g>
</g>
<g>
</g>
<g>
</g>
<g>
</g>
<g>
</g>
<g>
</g>
<g>
</g>
<g>
</g>
<g>
</g>
<g>
</g>
<g>
</g>
<g>
</g>
<g>
</g>
</svg>
