<?xml version="1.0" encoding="iso-8859-1"?>
<!-- Generator: Adobe Illustrator 19.0.0, SVG Export Plug-In . SVG Version: 6.00 Build 0)  -->
<svg xmlns="http://www.w3.org/2000/svg" xmlns:xlink="http://www.w3.org/1999/xlink" version="1.1" id="Capa_1" x="0px" y="0px" viewBox="0 0 409.605 409.605" style="enable-background:new 0 0 409.605 409.605;" xml:space="preserve">
<path style="fill:#E56353;" d="M361.787,334.171H48.143c-4.172,0-7.554-3.382-7.554-7.554V71.43h328.426v255.513  C369.016,330.935,365.779,334.171,361.787,334.171z"/>
<g>
	<path style="fill:#D5D6DB;" d="M358.501,35.291H159.949L130.16,0H40.589v40.307h1.783c-1.119,1.721-1.783,3.765-1.783,5.971v38.276   h328.426V45.805C369.016,39.998,364.308,35.291,358.501,35.291z"/>
	<rect x="85.373" y="149.043" style="fill:#D5D6DB;" width="229.898" height="111.964"/>
</g>
<g>
	<rect x="201.014" y="332.723" style="fill:#27A2DB;" width="13.138" height="47.043"/>
	<rect x="49.093" y="382.771" style="fill:#27A2DB;" width="114.688" height="13.138"/>
	<rect x="252.06" y="382.771" style="fill:#27A2DB;" width="114.693" height="13.138"/>
</g>
<rect x="157.212" y="369.101" style="fill:#D5D6DB;" width="101.402" height="40.504"/>
<g>
</g>
<g>
</g>
<g>
</g>
<g>
</g>
<g>
</g>
<g>
</g>
<g>
</g>
<g>
</g>
<g>
</g>
<g>
</g>
<g>
</g>
<g>
</g>
<g>
</g>
<g>
</g>
<g>
</g>
</svg>
