<?xml version="1.0" encoding="iso-8859-1"?>
<!-- Generator: Adobe Illustrator 19.0.0, SVG Export Plug-In . SVG Version: 6.00 Build 0)  -->
<svg xmlns="http://www.w3.org/2000/svg" xmlns:xlink="http://www.w3.org/1999/xlink" version="1.1" id="Capa_1" x="0px" y="0px" viewBox="0 0 409.585 409.585" style="enable-background:new 0 0 409.585 409.585;" xml:space="preserve">
<rect x="12.306" y="292.966" style="fill:#FCD462;" width="145.772" height="116.618"/>
<g>
	<polygon style="fill:#DC8744;" points="66.819,281.054 52.062,263.164 12.306,263.164 12.306,281.054 12.306,302.92    158.079,302.92 158.079,281.054  "/>
	<rect x="32.182" y="327.439" style="fill:#DC8744;" width="102.042" height="49.695"/>
</g>
<rect x="251.487" y="292.966" style="fill:#44C4A1;" width="145.772" height="116.618"/>
<g>
	<polygon style="fill:#31978C;" points="306.019,281.054 291.262,263.164 251.506,263.164 251.506,281.054 251.506,302.92    397.279,302.92 397.279,281.054  "/>
	<rect x="271.403" y="327.439" style="fill:#31978C;" width="102.042" height="49.695"/>
</g>
<rect x="131.904" y="29.819" style="fill:#E56353;" width="145.772" height="116.618"/>
<g>
	<polygon style="fill:#CE412D;" points="186.419,17.89 171.662,0 131.906,0 131.906,17.89 131.906,39.756 277.679,39.756    277.679,17.89  "/>
	<rect x="151.785" y="64.271" style="fill:#CE412D;" width="102.042" height="49.695"/>
</g>
<path style="fill:#64798A;" d="M210.182,198.072v-39.351c0-4.079-3.3-7.379-7.379-7.379c-4.079,0-7.379,3.3-7.379,7.379v39.351  H65.553v59.03c0,4.079,3.3,7.379,7.379,7.379c4.079,0,7.379-3.3,7.379-7.379v-44.273h248.414v44.273c0,4.079,3.3,7.379,7.379,7.379  c4.079,0,7.379-3.3,7.379-7.379v-59.03H210.182z"/>
<g>
</g>
<g>
</g>
<g>
</g>
<g>
</g>
<g>
</g>
<g>
</g>
<g>
</g>
<g>
</g>
<g>
</g>
<g>
</g>
<g>
</g>
<g>
</g>
<g>
</g>
<g>
</g>
<g>
</g>
</svg>
