<?xml version="1.0" encoding="iso-8859-1"?>
<!-- Generator: Adobe Illustrator 19.0.0, SVG Export Plug-In . SVG Version: 6.00 Build 0)  -->
<svg xmlns="http://www.w3.org/2000/svg" xmlns:xlink="http://www.w3.org/1999/xlink" version="1.1" id="Capa_1" x="0px" y="0px" viewBox="0 0 409.6 409.6" style="enable-background:new 0 0 409.6 409.6;" xml:space="preserve">
<path style="fill:#DC8744;" d="M404.065,47.236v338.283c0,13.3-10.781,24.081-24.081,24.081H27.027  c-11.869,0-21.492-9.622-21.492-21.492V20.753C5.535,9.292,14.827,0,26.289,0h233.302l42.808,35.425L308.303,0h47.231  L404.065,47.236z"/>
<rect x="56.627" y="0.205" style="fill:#FFFFFF;" width="124.16" height="141.885"/>
<rect x="100.265" style="fill:#27A2DB;" width="209.065" height="141.885"/>
<g>
	<rect x="250.644" y="15.411" style="fill:#FFFFFF;" width="37.637" height="115.871"/>
	<rect x="367.718" y="44.37" style="fill:#FFFFFF;" width="18.821" height="39.578"/>
	<rect x="367.718" y="350.464" style="fill:#FFFFFF;" width="18.821" height="39.578"/>
	<rect x="21.545" y="350.464" style="fill:#FFFFFF;" width="18.821" height="39.578"/>
	<polygon style="fill:#FFFFFF;" points="41.99,63.314 30.844,48.851 20.369,63.208 12.432,57.421 30.623,32.47 49.773,57.316  "/>
	<rect x="26.214" y="42.296" style="fill:#FFFFFF;" width="9.825" height="49.956"/>
	<path style="fill:#FFFFFF;" d="M337.076,390.043H71.219c-5.303,0-9.601-4.299-9.601-9.601V198.714c0-5.303,4.299-9.601,9.601-9.601   h265.857c5.303,0,9.601,4.299,9.601,9.601v181.727C346.677,385.744,342.379,390.043,337.076,390.043z"/>
</g>
<g>
	<rect x="61.594" y="231.475" style="fill:#2F4859;" width="285.061" height="38.574"/>
	<rect x="61.594" y="308.173" style="fill:#2F4859;" width="285.061" height="41.539"/>
</g>
<g>
</g>
<g>
</g>
<g>
</g>
<g>
</g>
<g>
</g>
<g>
</g>
<g>
</g>
<g>
</g>
<g>
</g>
<g>
</g>
<g>
</g>
<g>
</g>
<g>
</g>
<g>
</g>
<g>
</g>
</svg>
