<?xml version="1.0" encoding="iso-8859-1"?>
<!-- Generator: Adobe Illustrator 19.0.0, SVG Export Plug-In . SVG Version: 6.00 Build 0)  -->
<svg xmlns="http://www.w3.org/2000/svg" xmlns:xlink="http://www.w3.org/1999/xlink" version="1.1" id="Capa_1" x="0px" y="0px" viewBox="0 0 409.6 409.6" style="enable-background:new 0 0 409.6 409.6;" xml:space="preserve">
<rect x="161.644" y="363.981" style="fill:#D5D6DB;" width="16.113" height="26.527"/>
<rect x="58.875" y="31.437" style="fill:#E56353;" width="99.758" height="91.284"/>
<rect x="58.875" y="111.611" style="fill:#D5D6DB;" width="99.758" height="11.121"/>
<path style="fill:#44C4A1;" d="M168.161,121.171v262.378c0,14.388-11.663,26.051-26.051,26.051H77.3  c-14.388,0-26.051-11.663-26.051-26.051V121.171H168.161z"/>
<g>
	<rect x="123.802" y="40.023" style="fill:#3A556A;" width="15.882" height="66.504"/>
	<rect x="77.824" y="40.023" style="fill:#3A556A;" width="15.882" height="66.504"/>
</g>
<path style="fill:#E56353;" d="M210.608,386.436l-20.032-3.809c-4.928-0.937-8.082-5.79-6.938-10.674l58.16-256.339  c1.078-4.601,5.59-7.534,10.233-6.652l0,0c4.642,0.883,7.763,5.268,7.077,9.943l-38.128,260.148  C220.251,384.017,215.536,387.373,210.608,386.436z"/>
<polygon style="fill:#FCD462;" points="177.052,360.223 177.052,394.268 232.484,385.031 232.484,369.46 "/>
<g>
	<path style="fill:#D15241;" d="M285.633,142.018c-1.642,0.702-3.552,0.778-5.342,0.061c-3.579-1.435-5.316-5.496-3.882-9.075   c9.396-23.444-2.032-50.161-25.476-59.557c-3.579-1.435-5.316-5.496-3.882-9.075c1.435-3.579,5.496-5.316,9.075-3.882   c30.592,12.259,45.503,47.117,33.24,77.707C288.649,139.987,287.275,141.316,285.633,142.018z"/>
	<path style="fill:#D15241;" d="M314.561,153.61c-1.642,0.702-3.552,0.778-5.342,0.061c-3.579-1.435-5.316-5.496-3.882-9.075   c15.786-39.392-3.418-84.287-42.809-100.077c-3.579-1.435-5.316-5.496-3.882-9.075c1.435-3.579,5.496-5.316,9.075-3.882   c46.538,18.653,69.225,71.689,50.572,118.227C317.577,151.578,316.203,152.907,314.561,153.61z"/>
	<path style="fill:#D15241;" d="M345.62,166.061c-1.642,0.702-3.552,0.778-5.342,0.061c-3.579-1.435-5.316-5.496-3.882-9.075   c10.974-27.381,10.629-57.393-0.972-84.514s-33.067-48.099-60.448-59.073c-3.579-1.435-5.316-5.496-3.882-9.075   s5.496-5.316,9.075-3.882c30.842,12.359,55.022,35.99,68.09,66.539s13.457,64.357,1.094,95.197   C348.636,164.03,347.262,165.359,345.62,166.061z"/>
</g>
<path style="fill:#3EA69B;" d="M109.276,409.6h32.833c14.388,0,26.051-11.663,26.051-26.051V121.171h-58.884V409.6z"/>
<g>
</g>
<g>
</g>
<g>
</g>
<g>
</g>
<g>
</g>
<g>
</g>
<g>
</g>
<g>
</g>
<g>
</g>
<g>
</g>
<g>
</g>
<g>
</g>
<g>
</g>
<g>
</g>
<g>
</g>
</svg>
