<?xml version="1.0" encoding="iso-8859-1"?>
<!-- Generator: Adobe Illustrator 19.0.0, SVG Export Plug-In . SVG Version: 6.00 Build 0)  -->
<svg xmlns="http://www.w3.org/2000/svg" xmlns:xlink="http://www.w3.org/1999/xlink" version="1.1" id="Capa_1" x="0px" y="0px" viewBox="0 0 409.6 409.6" style="enable-background:new 0 0 409.6 409.6;" xml:space="preserve">
<polygon style="fill:#2F4859;" points="152.872,289.127 152.872,0 395.632,0 395.632,322.775 195.583,322.775 "/>
<g>
	<rect x="226.883" y="132.792" style="fill:#64798A;" width="143.037" height="18.565"/>
	<rect x="223.805" y="242.555" style="fill:#64798A;" width="143.037" height="18.565"/>
	<rect x="223.805" y="206.868" style="fill:#64798A;" width="143.037" height="18.565"/>
	<rect x="223.805" y="169.697" style="fill:#64798A;" width="143.037" height="18.565"/>
	<rect x="228.434" y="59.244" style="fill:#64798A;" width="143.037" height="18.565"/>
	<rect x="225.347" y="96.169" style="fill:#64798A;" width="143.037" height="18.565"/>
</g>
<polygon style="fill:#D5D6DB;" points="305.275,62.653 305.275,409.6 13.968,409.6 13.968,22.276 254.023,22.276 "/>
<g>
	<rect x="44.81" y="227.942" style="fill:#64798A;" width="171.638" height="22.277"/>
	<rect x="48.522" y="96.271" style="fill:#64798A;" width="171.638" height="22.277"/>
	<rect x="48.522" y="139.11" style="fill:#64798A;" width="171.638" height="22.277"/>
	<rect x="48.522" y="183.665" style="fill:#64798A;" width="171.638" height="22.277"/>
	<rect x="42.957" y="316.211" style="fill:#64798A;" width="171.638" height="22.277"/>
	<rect x="46.643" y="271.923" style="fill:#64798A;" width="171.638" height="22.277"/>
</g>
<polygon style="fill:#3A556A;" points="254.023,22.276 305.275,62.653 254.023,62.653 "/>
<g>
</g>
<g>
</g>
<g>
</g>
<g>
</g>
<g>
</g>
<g>
</g>
<g>
</g>
<g>
</g>
<g>
</g>
<g>
</g>
<g>
</g>
<g>
</g>
<g>
</g>
<g>
</g>
<g>
</g>
</svg>
