<?xml version="1.0" encoding="iso-8859-1"?>
<!-- Generator: Adobe Illustrator 19.0.0, SVG Export Plug-In . SVG Version: 6.00 Build 0)  -->
<svg xmlns="http://www.w3.org/2000/svg" xmlns:xlink="http://www.w3.org/1999/xlink" version="1.1" id="Capa_1" x="0px" y="0px" viewBox="0 0 409.574 409.574" style="enable-background:new 0 0 409.574 409.574;" xml:space="preserve">
<rect x="130.563" y="30.362" style="fill:#E56353;" width="148.449" height="118.733"/>
<g>
	<polygon style="fill:#CE412D;" points="182.55,18.218 171.05,0 130.564,0 130.564,18.218 130.564,40.485 279.012,40.485    279.012,18.218  "/>
	<rect x="150.808" y="65.449" style="fill:#CE412D;" width="103.916" height="50.606"/>
</g>
<rect x="8.769" y="290.842" style="fill:#FCD462;" width="148.449" height="118.733"/>
<g>
	<polygon style="fill:#DC8744;" points="60.756,278.696 49.256,260.478 8.77,260.478 8.77,278.696 8.77,300.963 157.217,300.963    157.217,278.696  "/>
	<rect x="29.013" y="325.939" style="fill:#DC8744;" width="103.916" height="50.606"/>
</g>
<rect x="252.353" y="290.842" style="fill:#44C4A1;" width="148.449" height="118.733"/>
<g>
	<polygon style="fill:#31978C;" points="304.344,278.696 292.844,260.478 252.359,260.478 252.359,278.696 252.359,300.963    400.806,300.963 400.806,278.696  "/>
	<rect x="272.577" y="325.939" style="fill:#31978C;" width="103.916" height="50.606"/>
</g>
<path style="fill:#64798A;" d="M161.519,255.07l-12.756-7.695l44.535-73.862c2.687-4.458,7.378-7.105,12.571-7.105  c0.055,0,0.113,0,0.167,0.007c5.258,0.051,9.956,2.807,12.571,7.367l42.291,73.738l-12.924,7.404l-42.287-73.731L161.519,255.07z"/>
<g>
</g>
<g>
</g>
<g>
</g>
<g>
</g>
<g>
</g>
<g>
</g>
<g>
</g>
<g>
</g>
<g>
</g>
<g>
</g>
<g>
</g>
<g>
</g>
<g>
</g>
<g>
</g>
<g>
</g>
</svg>
