<?xml version="1.0" encoding="iso-8859-1"?>
<!-- Generator: Adobe Illustrator 19.0.0, SVG Export Plug-In . SVG Version: 6.00 Build 0)  -->
<svg xmlns="http://www.w3.org/2000/svg" xmlns:xlink="http://www.w3.org/1999/xlink" version="1.1" id="Capa_1" x="0px" y="0px" viewBox="0 0 409.6 409.6" style="enable-background:new 0 0 409.6 409.6;" xml:space="preserve">
<g>
	<polygon style="fill:#3A556A;" points="361.056,181.123 344.117,181.123 344.117,92.815 220.983,92.815 220.983,75.876    361.056,75.876  "/>
	<polygon style="fill:#3A556A;" points="320.286,299.62 95.456,299.62 95.456,165.044 112.395,165.044 112.395,282.681    320.286,282.681  "/>
</g>
<g>
	<rect x="33.695" y="165.018" style="fill:#EBF0F3;" width="17.347" height="11.561"/>
	<rect x="178.232" y="165.018" style="fill:#EBF0F3;" width="17.347" height="11.561"/>
</g>
<path style="fill:#3EA69B;" d="M225.346,17.454c0-3.263-2.645-5.908-5.908-5.908H19.448c-3.263,0-5.908,2.645-5.908,5.908v122.919  h211.807V17.454z"/>
<path style="fill:#31978C;" d="M13.539,136.835v25.982c0,3.66,2.645,6.627,5.908,6.627h199.99c3.263,0,5.908-2.967,5.908-6.627  v-25.982H13.539z"/>
<rect x="25.093" y="23.096" style="fill:#D5D6DB;" width="188.703" height="130.534"/>
<path style="fill:#44C4A1;" d="M238.886,168.524v14.38c0,5.977-5.485,10.823-12.251,10.823H12.251  C5.485,193.727,0,188.881,0,182.904v-14.38H238.886z"/>
<g>
	<path style="fill:#EBF0F3;" d="M142.266,186.181H96.619c-2.026,0-3.683-1.658-3.683-3.683v-2.744c0-2.026,1.658-3.683,3.683-3.683   h45.647c2.026,0,3.683,1.658,3.683,3.683v2.744C145.95,184.523,144.292,186.181,142.266,186.181z"/>
	<circle style="fill:#EBF0F3;" cx="116.654" cy="17.229" r="4.306"/>
</g>
<g>
	<circle style="fill:#D5D6DB;" cx="116.654" cy="17.229" r="2.611"/>
	<path style="fill:#D5D6DB;" d="M131.278,186.181h-23.67c-2.026,0-3.683-1.658-3.683-3.683v-2.744c0-2.026,1.658-3.683,3.683-3.683   h23.67c2.026,0,3.683,1.658,3.683,3.683v2.744C134.961,184.523,133.303,186.181,131.278,186.181z"/>
</g>
<path style="fill:#2F4859;" d="M389.387,398.055h-71.359c-11.163,0-20.213-9.05-20.213-20.213v-198.46  c0-11.163,9.05-20.213,20.213-20.213h71.359c11.163,0,20.213,9.05,20.213,20.213v198.46  C409.6,389.005,400.55,398.055,389.387,398.055z"/>
<path style="fill:#64798A;" d="M405.218,284.719H302.792c-2.703,0-4.895-2.191-4.895-4.895V177.999c0-10.4,8.431-18.83,18.83-18.83  h73.955c10.4,0,18.83,8.431,18.83,18.83v102.424C409.513,282.796,407.59,284.719,405.218,284.719z"/>
<rect x="307.302" y="173.215" style="fill:#EBF0F3;" width="90.568" height="102.4"/>
<g>
	<path style="fill:#64798A;" d="M326.464,325.595h-12.36c-1.068,0-1.933,0.999-1.933,2.231v5.768c0,1.232,0.866,2.231,1.933,2.231   h12.36c1.068,0,1.933-0.999,1.933-2.231v-5.768C328.397,326.594,327.532,325.595,326.464,325.595z"/>
	<path style="fill:#64798A;" d="M359.327,325.595h-12.36c-1.068,0-1.933,0.999-1.933,2.231v5.768c0,1.232,0.866,2.231,1.933,2.231   h12.36c1.068,0,1.933-0.999,1.933-2.231v-5.768C361.26,326.594,360.394,325.595,359.327,325.595z"/>
	<path style="fill:#64798A;" d="M392.19,325.595h-12.36c-1.068,0-1.933,0.999-1.933,2.231v5.768c0,1.232,0.866,2.231,1.933,2.231   h12.36c1.068,0,1.933-0.999,1.933-2.231v-5.768C394.123,326.594,393.257,325.595,392.19,325.595z"/>
	<path style="fill:#64798A;" d="M326.464,343.782h-12.36c-1.068,0-1.933,0.999-1.933,2.231v5.768c0,1.232,0.866,2.231,1.933,2.231   h12.36c1.068,0,1.933-0.999,1.933-2.231v-5.768C328.397,344.781,327.532,343.782,326.464,343.782z"/>
	<path style="fill:#64798A;" d="M359.327,343.782h-12.36c-1.068,0-1.933,0.999-1.933,2.231v5.768c0,1.232,0.866,2.231,1.933,2.231   h12.36c1.068,0,1.933-0.999,1.933-2.231v-5.768C361.26,344.781,360.394,343.782,359.327,343.782z"/>
	<path style="fill:#64798A;" d="M392.19,343.782h-12.36c-1.068,0-1.933,0.999-1.933,2.231v5.768c0,1.232,0.866,2.231,1.933,2.231   h12.36c1.068,0,1.933-0.999,1.933-2.231v-5.768C394.123,344.781,393.257,343.782,392.19,343.782z"/>
	<path style="fill:#64798A;" d="M326.464,361.969h-12.36c-1.068,0-1.933,0.999-1.933,2.231v5.768c0,1.232,0.866,2.231,1.933,2.231   h12.36c1.068,0,1.933-0.999,1.933-2.231v-5.768C328.397,362.967,327.532,361.969,326.464,361.969z"/>
	<path style="fill:#64798A;" d="M359.327,361.969h-12.36c-1.068,0-1.933,0.999-1.933,2.231v5.768c0,1.232,0.866,2.231,1.933,2.231   h12.36c1.068,0,1.933-0.999,1.933-2.231v-5.768C361.26,362.967,360.394,361.969,359.327,361.969z"/>
	<path style="fill:#64798A;" d="M392.19,361.969h-12.36c-1.068,0-1.933,0.999-1.933,2.231v5.768c0,1.232,0.866,2.231,1.933,2.231   h12.36c1.068,0,1.933-0.999,1.933-2.231v-5.768C394.123,362.967,393.257,361.969,392.19,361.969z"/>
</g>
<path style="fill:#E56353;" d="M326.464,380.155h-12.36c-1.068,0-1.933,0.999-1.933,2.231v5.768c0,1.232,0.866,2.231,1.933,2.231  h12.36c1.068,0,1.933-0.999,1.933-2.231v-5.768C328.397,381.154,327.532,380.155,326.464,380.155z"/>
<path style="fill:#64798A;" d="M359.327,380.155h-12.36c-1.068,0-1.933,0.999-1.933,2.231v5.768c0,1.232,0.866,2.231,1.933,2.231  h12.36c1.068,0,1.933-0.999,1.933-2.231v-5.768C361.26,381.154,360.394,380.155,359.327,380.155z"/>
<path style="fill:#3EA69B;" d="M392.19,379.857h-12.36c-1.068,0-1.933,0.999-1.933,2.231v5.768c0,1.232,0.866,2.231,1.933,2.231  h12.36c1.068,0,1.933-0.999,1.933-2.231v-5.768C394.123,380.856,393.257,379.857,392.19,379.857z"/>
<g>
	<path style="fill:#64798A;" d="M357.264,317.843h-6.516c-4.83,0-8.745-3.915-8.745-8.745v-11.589c0-4.83,3.915-8.745,8.745-8.745   h6.516c4.83,0,8.745,3.915,8.745,8.745v11.589C366.009,313.927,362.094,317.843,357.264,317.843z"/>
	<path style="fill:#64798A;" d="M326.464,291.152h-12.36c-1.068,0-1.933,0.999-1.933,2.231v5.768c0,1.232,0.866,2.231,1.933,2.231   h12.36c1.068,0,1.933-0.999,1.933-2.231v-5.768C328.397,292.151,327.532,291.152,326.464,291.152z"/>
</g>
<path style="fill:#44C4A1;" d="M326.464,307.65h-12.36c-1.068,0-1.933,0.999-1.933,2.231v5.768c0,1.232,0.866,2.231,1.933,2.231  h12.36c1.068,0,1.933-0.999,1.933-2.231v-5.768C328.397,308.649,327.532,307.65,326.464,307.65z"/>
<path style="fill:#64798A;" d="M392.19,291.897h-12.36c-1.068,0-1.933,0.999-1.933,2.231v5.768c0,1.232,0.866,2.231,1.933,2.231  h12.36c1.068,0,1.933-0.999,1.933-2.231v-5.768C394.123,292.896,393.257,291.897,392.19,291.897z"/>
<path style="fill:#CE412D;" d="M392.19,308.395h-12.36c-1.068,0-1.933,0.999-1.933,2.231v5.768c0,1.232,0.866,2.231,1.933,2.231  h12.36c1.068,0,1.933-0.999,1.933-2.231v-5.768C394.123,309.394,393.257,308.395,392.19,308.395z"/>
<rect x="334.234" y="165.786" style="fill:#FCD462;" width="37.263" height="3.359"/>
<g>
</g>
<g>
</g>
<g>
</g>
<g>
</g>
<g>
</g>
<g>
</g>
<g>
</g>
<g>
</g>
<g>
</g>
<g>
</g>
<g>
</g>
<g>
</g>
<g>
</g>
<g>
</g>
<g>
</g>
</svg>
