<?xml version="1.0" encoding="iso-8859-1"?>
<!-- Generator: Adobe Illustrator 19.0.0, SVG Export Plug-In . SVG Version: 6.00 Build 0)  -->
<svg xmlns="http://www.w3.org/2000/svg" xmlns:xlink="http://www.w3.org/1999/xlink" version="1.1" id="Capa_1" x="0px" y="0px" viewBox="0 0 409.6 409.6" style="enable-background:new 0 0 409.6 409.6;" xml:space="preserve">
<circle style="fill:#44C4A1;" cx="204.8" cy="204.8" r="204.8"/>
<circle style="fill:#EBF0F3;" cx="204.8" cy="204.8" r="160.563"/>
<g>
	<path style="fill:#3A556A;" d="M185.756,123.028c-6.167-6.167-9.25-13.725-9.25-22.676c0-8.945,3.083-16.509,9.25-22.676   c6.172-6.167,13.725-9.25,22.676-9.25c8.945,0,16.509,3.083,22.676,9.25c6.172,6.167,9.255,13.731,9.255,22.676   c0,8.95-3.083,16.509-9.255,22.676c-6.167,6.167-13.73,9.25-22.676,9.25C199.481,132.278,191.928,129.195,185.756,123.028z"/>
	<polygon style="fill:#3A556A;" points="142.326,142.518 240.363,142.518 240.363,319.41 273.681,319.41 273.681,341.174    176.505,341.174 176.505,170.54 142.326,170.54  "/>
	<rect x="139.571" y="319.283" style="fill:#3A556A;" width="90.491" height="21.908"/>
</g>
<g>
</g>
<g>
</g>
<g>
</g>
<g>
</g>
<g>
</g>
<g>
</g>
<g>
</g>
<g>
</g>
<g>
</g>
<g>
</g>
<g>
</g>
<g>
</g>
<g>
</g>
<g>
</g>
<g>
</g>
</svg>
