<?xml version="1.0" encoding="iso-8859-1"?>
<!-- Generator: Adobe Illustrator 19.0.0, SVG Export Plug-In . SVG Version: 6.00 Build 0)  -->
<svg xmlns="http://www.w3.org/2000/svg" xmlns:xlink="http://www.w3.org/1999/xlink" version="1.1" id="Capa_1" x="0px" y="0px" viewBox="0 0 409.601 409.601" style="enable-background:new 0 0 409.601 409.601;" xml:space="preserve">
<rect x="208.683" y="195.238" transform="matrix(-0.7935 0.6086 -0.6086 -0.7935 541.5091 249.7656)" style="fill:#DC8744;" width="39.393" height="43.034"/>
<path style="fill:#D15241;" d="M372.023,404.036L372.023,404.036c-16.455,12.62-43.493,2.852-59.139-19.987l-91.385-134.911  l39.951-30.64l106.603,123.24C386.054,362.769,388.477,391.416,372.023,404.036z"/>
<g>
	<polygon style="fill:#D5D6DB;" points="290.412,252.335 246.67,285.883 231.408,263.603 272.851,231.818  "/>
	<polygon style="fill:#D5D6DB;" points="325.992,293.905 277.593,331.024 259.012,303.9 304.613,268.927  "/>
</g>
<g transform="matrix(0.7935 -0.60857 0.60857 0.7935 -12.492 30.646)">
	
		<ellipse transform="matrix(-0.7935 -0.6086 0.6086 -0.7935 25.9594 348.3689)" style="fill:#64798A;" cx="72.084" cy="169.78" rx="121.492" ry="121.492"/>
	
		<ellipse transform="matrix(-0.7935 -0.6086 0.6086 -0.7935 25.9594 348.3689)" style="fill:#D5D6DB;" cx="72.084" cy="169.78" rx="84.46" ry="84.46"/>
</g>
<path style="fill:#2F4859;" d="M181.27,140.704c2.509,0,4.72-2,6.633-6.004c1.905-4,2.858-9.029,2.858-15.08  c0-13.127-3.767-23.996-11.309-32.607c-7.542-8.607-17.644-12.916-30.298-12.916c-12.662,0-23.324,4.516-31.978,13.545  c-8.662,9.029-12.989,19.851-12.989,32.465s4.073,23.109,12.218,31.487c8.145,8.378,18.225,12.567,30.233,12.567  c9.404,0,17.687-3.444,24.858-10.331l5.724,9.913c-3.724,3.258-8.473,5.887-14.24,7.891c-5.775,2-11.222,3-16.342,3  c-15.549,0-28.553-5.189-39.025-15.567c-10.473-10.378-15.709-23.367-15.709-38.96c0-15.593,5.513-28.905,16.545-39.935  c11.033-11.033,24.32-16.549,39.869-16.549c15.542,0,28.531,5.305,38.953,15.92c10.429,10.611,15.644,23.833,15.644,39.655  c0,10.244-2.116,18.458-6.356,24.647c-4.233,6.193-9.796,9.287-16.684,9.287c-3.542,0-6.771-1.069-9.709-3.211  c-2.931-2.142-4.953-4.84-6.073-8.102c-5.12,6.611-11.615,9.916-19.476,9.916c-7.869,0-14.713-2.978-20.531-8.938  c-5.818-5.956-8.727-13.52-8.727-22.691c0-9.167,2.633-16.895,7.891-23.178c5.258-6.284,12.167-9.425,20.735-9.425  c2.887,0,5.636,0.625,8.24,1.884c2.604,1.258,4.473,2.491,5.585,3.702l1.818,1.815v-5.727h17.455v44.545  C177.081,138.38,178.477,140.704,181.27,140.704z M159.764,119.62c0-4.655-1.236-8.52-3.702-11.593  c-2.465-3.069-5.702-4.607-9.702-4.607c-4.007,0-7.193,1.538-9.571,4.607c-2.371,3.073-3.556,6.869-3.556,11.382  c0,4.516,1.185,8.447,3.556,11.8c2.378,3.353,5.615,5.025,9.709,5.025c4.095,0,7.331-1.604,9.702-4.815  C158.579,128.206,159.764,124.275,159.764,119.62z"/>
<g>
</g>
<g>
</g>
<g>
</g>
<g>
</g>
<g>
</g>
<g>
</g>
<g>
</g>
<g>
</g>
<g>
</g>
<g>
</g>
<g>
</g>
<g>
</g>
<g>
</g>
<g>
</g>
<g>
</g>
</svg>
