<?xml version="1.0" encoding="iso-8859-1"?>
<!-- Generator: Adobe Illustrator 19.0.0, SVG Export Plug-In . SVG Version: 6.00 Build 0)  -->
<svg xmlns="http://www.w3.org/2000/svg" xmlns:xlink="http://www.w3.org/1999/xlink" version="1.1" id="Capa_1" x="0px" y="0px" viewBox="0 0 409.6 409.6" style="enable-background:new 0 0 409.6 409.6;" xml:space="preserve">
<polyline style="fill:#FCD462;" points="240.854,101.898 240.854,366.508 0,366.508 0,56.917 191.027,56.917 "/>
<polyline style="fill:#D5D6DB;" points="280.565,88.073 280.565,352.683 39.711,352.683 39.711,43.092 230.738,43.092 "/>
<g>
	<rect x="65.213" y="202.501" style="fill:#3A556A;" width="189.85" height="18.417"/>
	<rect x="65.213" y="237.926" style="fill:#3A556A;" width="189.85" height="18.417"/>
	<rect x="69.315" y="93.645" style="fill:#3A556A;" width="120.627" height="18.417"/>
	<rect x="69.315" y="129.024" style="fill:#3A556A;" width="147.251" height="18.417"/>
	<rect x="69.315" y="165.888" style="fill:#3A556A;" width="189.85" height="18.417"/>
	<polygon style="fill:#3A556A;" points="230.738,43.092 280.565,88.073 230.738,88.073  "/>
</g>
<path style="fill:#F6C358;" d="M377.275,139.481c8.318-8.637,20.727-10.182,27.715-3.452c6.988,6.73,5.91,19.188-2.409,27.825"/>
<path style="fill:#FCD462;" d="M402.581,163.855c8.318-8.637,9.397-21.094,2.409-27.825l-15.062,15.638L402.581,163.855z"/>
<rect x="368.948" y="150.281" transform="matrix(0.7203 0.6937 -0.6937 0.7203 215.8176 -224.7)" style="fill:#D15241;" width="35.134" height="9.923"/>
<rect x="294.034" y="129.952" transform="matrix(0.7203 0.6937 -0.6937 0.7203 248.779 -150.9887)" style="fill:#2F4859;" width="35.134" height="206.03"/>
<polygon style="fill:#F6C358;" points="220.599,302.154 205.074,344.005 245.905,326.527 "/>
<rect x="216.783" y="234.708" transform="matrix(-0.6937 0.7203 -0.7203 -0.6937 715.1417 177.6491)" style="fill:#64798A;" width="206.03" height="12.349"/>
<polygon style="fill:#FCD462;" points="245.905,326.527 205.074,344.005 233.456,314.537 "/>
<rect x="219.136" y="305.78" transform="matrix(0.7203 0.6937 -0.6937 0.7203 281.7797 -77.275)" style="fill:#D15241;" width="35.134" height="9.923"/>
<polygon style="fill:#2F4859;" points="205.074,344.005 218.429,338.289 210.193,330.206 "/>
<rect x="208.06" y="226.557" transform="matrix(-0.6937 0.7203 -0.7203 -0.6937 694.3249 169.7228)" style="fill:#3A556A;" width="206.03" height="11.873"/>
<g>
</g>
<g>
</g>
<g>
</g>
<g>
</g>
<g>
</g>
<g>
</g>
<g>
</g>
<g>
</g>
<g>
</g>
<g>
</g>
<g>
</g>
<g>
</g>
<g>
</g>
<g>
</g>
<g>
</g>
</svg>
