<?xml version="1.0" encoding="iso-8859-1"?>
<!-- Generator: Adobe Illustrator 19.0.0, SVG Export Plug-In . SVG Version: 6.00 Build 0)  -->
<svg xmlns="http://www.w3.org/2000/svg" xmlns:xlink="http://www.w3.org/1999/xlink" version="1.1" id="Capa_1" x="0px" y="0px" viewBox="0 0 409.6 409.6" style="enable-background:new 0 0 409.6 409.6;" xml:space="preserve">
<path style="fill:#DC8744;" d="M265.106,285.566c-4.971,0-10.109-0.163-15.435-0.495c-3.678-0.228-6.473-3.401-6.242-7.076  c0.231-3.675,3.368-6.32,7.076-6.242c60.489,3.772,95.414-16.269,114.038-33.769c20.452-19.214,31.714-45.282,31.714-73.409  c0-59.088-54.807-107.165-122.176-107.165s-122.176,48.077-122.176,107.165c0,3.688-2.987,6.672-6.672,6.672  s-6.672-2.984-6.672-6.672c0-66.45,60.795-120.508,135.519-120.508S409.6,98.126,409.6,164.576  c0,31.847-12.757,61.375-35.922,83.136C354.809,265.434,321.05,285.56,265.106,285.566z"/>
<path style="fill:#FCD462;" d="M307.436,137.546l22.724,26.189c15.377,17.721,12.417,44.782-6.428,58.759L141.575,357.602  c-16.911,12.543-40.628,9.948-54.427-5.954l0,0c-13.799-15.902-13.025-39.749,1.776-54.723l159.433-161.297  C264.851,118.941,292.059,119.825,307.436,137.546z"/>
<circle style="fill:#27A2DB;" cx="274.074" cy="190.464" r="39.107"/>
<circle style="fill:#FFFFFF;" cx="274.074" cy="190.464" r="22.057"/>
<path style="fill:#DC8744;" d="M192.99,264.303l-65.956,59.995c-1.835,1.669-4.676,1.535-6.346-0.3l-2.748-3.021  c-1.669-1.835-1.535-4.676,0.3-6.346l65.956-59.995c1.835-1.669,4.676-1.535,6.346,0.3l2.748,3.021  C194.96,259.793,194.825,262.634,192.99,264.303z"/>
<g>
	<path style="fill:#27A2DB;" d="M111.995,209.756c1.075,1.101,1.731,2.612,1.712,4.273c-0.038,3.322-2.76,5.982-6.083,5.943   c-21.76-0.252-39.667,17.246-39.919,39.006c-0.038,3.322-2.76,5.982-6.083,5.943c-3.322-0.038-5.982-2.76-5.943-6.083   c0.326-28.394,23.69-51.223,52.084-50.893C109.424,207.966,110.919,208.656,111.995,209.756z"/>
	<path style="fill:#27A2DB;" d="M112.303,182.908c1.075,1.101,1.731,2.612,1.712,4.273c-0.038,3.322-2.76,5.982-6.083,5.943   c-36.562-0.421-66.653,28.983-67.078,65.545c-0.038,3.322-2.76,5.982-6.083,5.943c-3.322-0.038-5.982-2.76-5.943-6.083   c0.499-43.196,36.047-77.931,79.243-77.431C109.732,181.117,111.227,181.807,112.303,182.908z"/>
	<path style="fill:#27A2DB;" d="M112.638,154.078c1.075,1.101,1.731,2.612,1.712,4.273c-0.038,3.322-2.76,5.982-6.083,5.943   C82.853,164,58.849,173.62,40.67,191.382s-28.35,41.538-28.644,66.952c-0.038,3.322-2.76,5.982-6.083,5.943   c-3.322-0.038-5.982-2.76-5.943-6.083c0.329-28.626,11.788-55.408,32.264-75.416s47.516-30.844,76.142-30.511   C110.067,152.287,111.563,152.977,112.638,154.078z"/>
</g>
<g>
</g>
<g>
</g>
<g>
</g>
<g>
</g>
<g>
</g>
<g>
</g>
<g>
</g>
<g>
</g>
<g>
</g>
<g>
</g>
<g>
</g>
<g>
</g>
<g>
</g>
<g>
</g>
<g>
</g>
</svg>
