<?xml version="1.0" encoding="iso-8859-1"?>
<!-- Generator: Adobe Illustrator 19.0.0, SVG Export Plug-In . SVG Version: 6.00 Build 0)  -->
<svg xmlns="http://www.w3.org/2000/svg" xmlns:xlink="http://www.w3.org/1999/xlink" version="1.1" id="Capa_1" x="0px" y="0px" viewBox="0 0 409.6 409.6" style="enable-background:new 0 0 409.6 409.6;" xml:space="preserve">
<path style="fill:#2D93BA;" d="M229.141,88.067c55.532-24.124,77.663,12.496,77.663,12.496  c63.122-9.656,66.097,43.958,66.097,43.958c18.159,6.485,36.699,22.544,36.699,41.328c0,24.519-21.898,44.395-48.911,44.395H220.77  c-15.918-2.404-48.911-19.876-48.911-44.395c0-18.784,10.703-41.028,28.861-47.513C200.72,138.336,199.067,101.131,229.141,88.067z"/>
<path style="fill:#27A2DB;" d="M360.689,230.244c27.013,0,48.911-19.876,48.911-44.395c0-18.784-18.54-34.843-36.699-41.328  c0,0-2.974-53.615-66.097-43.958c0,0-9.247-15.301-30.785-19.606v149.287H360.689z"/>
<polygon style="fill:#64798A;" points="160.914,80.678 60.562,80.678 2.101,208.435 2.101,296.146 160.914,296.146 "/>
<polygon style="fill:#27A2DB;" points="131.504,104.402 73.98,104.402 31.492,205.683 131.504,205.683 "/>
<rect x="135.706" y="254.612" style="fill:#64798A;" width="271.411" height="41.528"/>
<circle style="fill:#E56353;" cx="72.704" cy="296.146" r="33.613"/>
<circle style="fill:#E1E6E9;" cx="72.704" cy="296.146" r="20.332"/>
<circle style="fill:#E56353;" cx="349.952" cy="296.146" r="33.613"/>
<circle style="fill:#E1E6E9;" cx="349.952" cy="296.146" r="20.332"/>
<ellipse style="fill:#F6C358;" cx="4.029" cy="243.763" rx="4.029" ry="15.544"/>
<g>
</g>
<g>
</g>
<g>
</g>
<g>
</g>
<g>
</g>
<g>
</g>
<g>
</g>
<g>
</g>
<g>
</g>
<g>
</g>
<g>
</g>
<g>
</g>
<g>
</g>
<g>
</g>
<g>
</g>
</svg>
