<?xml version="1.0" encoding="iso-8859-1"?>
<!-- Generator: Adobe Illustrator 19.0.0, SVG Export Plug-In . SVG Version: 6.00 Build 0)  -->
<svg xmlns="http://www.w3.org/2000/svg" xmlns:xlink="http://www.w3.org/1999/xlink" version="1.1" id="Capa_1" x="0px" y="0px" viewBox="0 0 409.6 409.6" style="enable-background:new 0 0 409.6 409.6;" xml:space="preserve">
<path style="fill:#FCD462;" d="M382.859,102.47H151.154c-14.769,0-26.741,11.973-26.741,26.742V256.67  c0,14.769,11.972,26.741,26.741,26.741h132.85l105.974,79.005l-37.402-79.005h30.284c14.769,0,26.741-11.972,26.741-26.741V129.211  C409.6,114.442,397.628,102.47,382.859,102.47z"/>
<path style="fill:#44C4A1;" d="M279.458,47.185H22.102C9.895,47.185,0,57.08,0,69.287V199.6c0,12.206,9.895,22.103,22.102,22.103  h28.216l-28.33,67.289l80.268-67.289h177.201c12.207,0,22.102-9.896,22.102-22.103V69.287  C301.56,57.08,291.665,47.185,279.458,47.185z"/>
<g>
	<rect x="34.555" y="67.43" style="fill:#3EA69B;" width="232.448" height="32.246"/>
	<rect x="34.555" y="118.323" style="fill:#3EA69B;" width="232.448" height="32.246"/>
	<rect x="34.555" y="169.421" style="fill:#3EA69B;" width="232.448" height="32.246"/>
</g>
<g>
</g>
<g>
</g>
<g>
</g>
<g>
</g>
<g>
</g>
<g>
</g>
<g>
</g>
<g>
</g>
<g>
</g>
<g>
</g>
<g>
</g>
<g>
</g>
<g>
</g>
<g>
</g>
<g>
</g>
</svg>
