<?xml version="1.0" encoding="iso-8859-1"?>
<!-- Generator: Adobe Illustrator 19.0.0, SVG Export Plug-In . SVG Version: 6.00 Build 0)  -->
<svg xmlns="http://www.w3.org/2000/svg" xmlns:xlink="http://www.w3.org/1999/xlink" version="1.1" id="Capa_1" x="0px" y="0px" viewBox="0 0 409.6 409.6" style="enable-background:new 0 0 409.6 409.6;" xml:space="preserve">
<path style="fill:#64798A;" d="M386.041,409.6H23.559C10.548,409.6,0,399.052,0,386.041V23.559C0,10.548,10.548,0,23.559,0h362.482  C399.052,0,409.6,10.548,409.6,23.559v362.482C409.6,399.052,399.052,409.6,386.041,409.6z"/>
<rect x="39.311" y="39.311" style="fill:#EBF0F3;" width="330.957" height="330.957"/>
<g>
	<rect x="307.2" y="39.311" style="fill:#D15241;" width="18.432" height="330.957"/>
	<rect x="231.885" y="39.311" style="fill:#D15241;" width="16.809" height="330.957"/>
	<rect x="158.874" y="39.311" style="fill:#D15241;" width="18.089" height="330.957"/>
	<rect x="86.036" y="39.311" style="fill:#D15241;" width="17.556" height="330.957"/>
</g>
<path style="fill:#31978C;" d="M334.825,132.713h-35.413c-4.359,0-7.893-3.534-7.893-7.893v-9.472c0-4.359,3.534-7.893,7.893-7.893  h35.413c4.359,0,7.893,3.534,7.893,7.893v9.472C342.719,129.179,339.185,132.713,334.825,132.713z"/>
<path style="fill:#2F4859;" d="M258.005,213.267h-35.413c-4.359,0-7.893-3.534-7.893-7.893v-9.472c0-4.359,3.534-7.893,7.893-7.893  h35.413c4.359,0,7.893,3.534,7.893,7.893v9.472C265.899,209.733,262.365,213.267,258.005,213.267z"/>
<path style="fill:#27A2DB;" d="M185.643,297.235h-35.413c-4.359,0-7.893-3.534-7.893-7.893v-9.472c0-4.359,3.534-7.893,7.893-7.893  h35.413c4.359,0,7.893,3.534,7.893,7.893v9.472C193.536,293.701,190.002,297.235,185.643,297.235z"/>
<path style="fill:#DC8744;" d="M111.232,157.971H75.819c-4.359,0-7.893-3.534-7.893-7.893v-9.472c0-4.359,3.534-7.893,7.893-7.893  h35.413c4.359,0,7.893,3.534,7.893,7.893v9.472C119.125,154.437,115.591,157.971,111.232,157.971z"/>
<g>
</g>
<g>
</g>
<g>
</g>
<g>
</g>
<g>
</g>
<g>
</g>
<g>
</g>
<g>
</g>
<g>
</g>
<g>
</g>
<g>
</g>
<g>
</g>
<g>
</g>
<g>
</g>
<g>
</g>
</svg>
