<?xml version="1.0" encoding="iso-8859-1"?>
<!-- Generator: Adobe Illustrator 19.0.0, SVG Export Plug-In . SVG Version: 6.00 Build 0)  -->
<svg xmlns="http://www.w3.org/2000/svg" xmlns:xlink="http://www.w3.org/1999/xlink" version="1.1" id="Capa_1" x="0px" y="0px" viewBox="0 0 409.6 409.6" style="enable-background:new 0 0 409.6 409.6;" xml:space="preserve">
<path style="fill:#2F4859;" d="M234.48,409.6c-31.304,0-60.691-47.056-64.014-52.548c-1.981-3.272-0.933-7.524,2.339-9.502  c3.269-1.988,7.524-0.93,9.505,2.332c8.052,13.284,33.349,47.495,53.492,45.822c8.981-0.703,16.823-9.099,23.306-24.953  c9.17-22.428,28.329-60.086,53.613-60.319c15.245,0.085,28.759,13.041,40.495,40.299c1.511,3.512-0.108,7.585-3.62,9.096  c-3.519,1.508-7.585-0.108-9.096-3.62c-8.995-20.893-18.52-31.929-27.549-31.929c-0.037,0-0.071,0-0.105,0  c-14.653,0.135-31.203,27.944-40.921,51.714c-8.63,21.099-20.423,32.375-35.056,33.518C236.075,409.57,235.277,409.6,234.48,409.6z"/>
<g>
	<path style="fill:#3A556A;" d="M98.832,194.17c-8.151-1.892-13.458-9.847-13.458-18.215V18.896c0-9.365,6.727-17.981,16.055-18.822   c10.511-0.947,19.338,7.308,19.338,17.622v159.269C120.767,188.12,110.444,196.866,98.832,194.17z"/>
	<path style="fill:#3A556A;" d="M245.467,194.17c-8.151-1.892-13.458-9.847-13.458-18.215V18.707   c0-8.368,5.307-16.323,13.458-18.215c11.613-2.696,21.935,6.05,21.935,17.204v159.269   C267.402,188.12,257.079,196.866,245.467,194.17z"/>
	<path style="fill:#3A556A;" d="M193.366,359.441h-33.957c-0.107,0-0.198-0.076-0.217-0.181l-13.763-73.804   c-0.025-0.136,0.079-0.262,0.217-0.262h61.483c0.138,0,0.243,0.126,0.217,0.262l-13.763,73.804   C193.564,359.365,193.473,359.441,193.366,359.441z"/>
</g>
<path style="fill:#64798A;" d="M296.957,156.173c0,75.828-53.981,137.299-120.569,137.299S55.818,232.002,55.818,156.173"/>
<path style="fill:#EBF0F3;" d="M296.805,162.231H55.971c-0.084,0-0.152-0.068-0.152-0.152v-33.444c0-0.084,0.068-0.152,0.152-0.152  h240.834c0.084,0,0.152,0.068,0.152,0.152v33.444C296.957,162.163,296.889,162.231,296.805,162.231z"/>
<g>
</g>
<g>
</g>
<g>
</g>
<g>
</g>
<g>
</g>
<g>
</g>
<g>
</g>
<g>
</g>
<g>
</g>
<g>
</g>
<g>
</g>
<g>
</g>
<g>
</g>
<g>
</g>
<g>
</g>
</svg>
