<?xml version="1.0" encoding="iso-8859-1"?>
<!-- Generator: Adobe Illustrator 19.0.0, SVG Export Plug-In . SVG Version: 6.00 Build 0)  -->
<svg xmlns="http://www.w3.org/2000/svg" xmlns:xlink="http://www.w3.org/1999/xlink" version="1.1" id="Capa_1" x="0px" y="0px" viewBox="0 0 409.6 409.6" style="enable-background:new 0 0 409.6 409.6;" xml:space="preserve">
<g>
	<path style="fill:#DC8744;" d="M322.816,409.6H130.453c-28.61,0-51.887-23.27-51.887-51.879V195.402   c0-5.511,4.467-9.978,9.978-9.978c5.511,0,9.978,4.467,9.978,9.978v162.319c0,17.602,14.32,31.923,31.931,31.923h192.363   c15.108,0,27.394-12.286,27.394-27.386v-157.54c0-5.511,4.467-9.978,9.978-9.978c5.511,0,9.978,4.467,9.978,9.978v157.54   C370.166,388.365,348.923,409.6,322.816,409.6z"/>
	<rect x="30.771" y="0.512" style="fill:#DC8744;" width="115.517" height="64.748"/>
</g>
<rect x="30.771" y="52.367" style="fill:#E1E6E9;" width="115.517" height="12.877"/>
<path style="fill:#44C4A1;" d="M157.344,65.242v118.29c0,15.944-13.506,28.868-30.167,28.868H52.125  c-16.661,0-30.167-12.925-30.167-28.868V65.242H157.344z"/>
<g>
	<rect x="105.974" y="10.445" style="fill:#3A556A;" width="18.396" height="36.045"/>
	<rect x="52.726" y="10.445" style="fill:#3A556A;" width="18.396" height="36.045"/>
</g>
<path style="fill:#DC8744;" d="M352.204,50.889V7.983c0-4.412,3.57-7.983,7.983-7.983c4.412,0,7.983,3.57,7.983,7.983v42.907  c0,4.412-3.57,7.983-7.983,7.983C355.774,58.872,352.204,55.302,352.204,50.889z"/>
<rect x="348.027" y="57.83" style="fill:#2F4859;" width="24.315" height="56.474"/>
<g>
	<rect x="347.965" y="50.888" style="fill:#D5D6DB;" width="24.443" height="8.105"/>
	<rect x="347.965" y="70.661" style="fill:#D5D6DB;" width="24.443" height="8.105"/>
	<rect x="347.965" y="90.685" style="fill:#D5D6DB;" width="24.443" height="8.105"/>
</g>
<path style="fill:#44C4A1;" d="M387.642,118.133v83.512c0,14.98-12.256,27.236-27.236,27.236h0  c-14.98,0-27.236-12.256-27.236-27.236v-83.512H387.642z"/>
<rect x="333.158" y="113.459" style="fill:#D5D6DB;" width="54.472" height="8.033"/>
<path style="fill:#FFFFFF;" d="M132.624,113.604H108.64c-3.417,0-6.189,2.77-6.189,6.189c0,3.419,2.772,6.19,6.189,6.19h5.803  v15.145l-18.536,6.592V90.428l14.051,14.204c2.398,2.432,6.323,2.452,8.752,0.048c2.43-2.404,2.454-6.322,0.049-8.752L90.572,67.433  L62.099,95.904c-2.418,2.416-2.418,6.334,0,8.752c1.209,1.209,2.793,1.813,4.377,1.813c1.583,0,3.167-0.604,4.376-1.813  L83.528,91.98v64.018c-0.019,0.23-0.007,0.461,0,0.694v11.415l-20.664-7.348v-15.609c0-0.176-0.037-0.342-0.051-0.514h5.64  c3.417,0,6.19-2.77,6.19-6.19c0-3.419-2.773-6.189-6.19-6.189H44.469c-3.417,0-6.189,2.77-6.189,6.189  c0,3.419,2.772,6.19,6.189,6.19h6.068c-0.015,0.172-0.052,0.338-0.052,0.514v24.345l33.042,11.75v5.233  c-1.881,1.81-3.061,4.341-3.061,7.158c0,5.496,4.455,9.951,9.95,9.951c5.496,0,9.95-4.455,9.95-9.951  c0-3.465-1.775-6.509-4.461-8.291v-24.488l30.915-10.993v-23.881h5.803c3.417,0,6.189-2.77,6.189-6.19  C138.814,116.374,136.041,113.604,132.624,113.604z"/>
<g>
	<rect x="345.958" y="227.379" style="fill:#2F4859;" width="27.986" height="17.654"/>
	<rect x="345.805" y="264.243" style="fill:#2F4859;" width="27.73" height="16.937"/>
</g>
<path style="fill:#D5D6DB;" d="M384.473,266.422h-48.135c-0.748,0-1.36-0.612-1.36-1.36v-21.745c0-0.748,0.612-1.36,1.36-1.36  h48.135c0.748,0,1.36,0.612,1.36,1.36v21.745C385.833,265.81,385.221,266.422,384.473,266.422z"/>
<g>
	<rect x="75.177" y="212.378" style="fill:#2F4859;" width="27.986" height="17.654"/>
	<rect x="75.034" y="249.252" style="fill:#2F4859;" width="27.73" height="16.937"/>
</g>
<path style="fill:#D5D6DB;" d="M113.718,251.427H65.583c-0.748,0-1.36-0.612-1.36-1.36v-21.745c0-0.748,0.612-1.36,1.36-1.36h48.135  c0.748,0,1.36,0.612,1.36,1.36v21.745C115.078,250.815,114.466,251.427,113.718,251.427z"/>
<g>
</g>
<g>
</g>
<g>
</g>
<g>
</g>
<g>
</g>
<g>
</g>
<g>
</g>
<g>
</g>
<g>
</g>
<g>
</g>
<g>
</g>
<g>
</g>
<g>
</g>
<g>
</g>
<g>
</g>
</svg>
