<?xml version="1.0" encoding="iso-8859-1"?>
<!-- Generator: Adobe Illustrator 19.0.0, SVG Export Plug-In . SVG Version: 6.00 Build 0)  -->
<svg xmlns="http://www.w3.org/2000/svg" xmlns:xlink="http://www.w3.org/1999/xlink" version="1.1" id="Capa_1" x="0px" y="0px" viewBox="0 0 409.6 409.6" style="enable-background:new 0 0 409.6 409.6;" xml:space="preserve">
<path style="fill:#FCD462;" d="M279.417,405.719H106.566c-28.101,0-50.965-22.856-50.965-50.957V195.327  c0-5.413,4.387-9.801,9.801-9.801s9.801,4.387,9.801,9.801v159.434c0,17.289,14.066,31.355,31.363,31.355h172.851  c14.839,0,26.907-12.067,26.907-26.899v-154.74c0-5.413,4.387-9.801,9.801-9.801c5.414,0,9.801,4.387,9.801,9.801v154.74  C325.926,384.861,305.061,405.719,279.417,405.719z"/>
<rect x="8.673" y="3.881" style="fill:#F6C358;" width="113.459" height="63.601"/>
<rect x="8.673" y="54.836" style="fill:#E1E6E9;" width="113.459" height="12.646"/>
<path style="fill:#44C4A1;" d="M132.979,65.33v117.917c0,15.893-13.266,28.777-29.631,28.777H29.631  C13.266,212.024,0,199.14,0,183.246V65.33H132.979z"/>
<g>
	<rect x="82.534" y="13.64" style="fill:#3A556A;" width="18.068" height="35.415"/>
	<rect x="30.218" y="13.64" style="fill:#3A556A;" width="18.068" height="35.415"/>
</g>
<rect x="228.966" y="67.482" style="fill:#F6C358;" width="169.779" height="63.601"/>
<rect x="228.966" y="118.426" style="fill:#E1E6E9;" width="169.779" height="12.646"/>
<path style="fill:#44C4A1;" d="M409.6,127.689v62.951c0,15.827-13.266,28.657-29.631,28.657H249.927  c-16.365,0-29.631-12.83-29.631-28.657v-62.951H409.6z"/>
<g>
	<rect x="359.168" y="77.261" style="fill:#3A556A;" width="18.068" height="35.415"/>
	<rect x="250.516" y="77.261" style="fill:#3A556A;" width="18.068" height="35.415"/>
</g>
<g>
	<path style="fill:#FFFFFF;" d="M109.783,114.983H86.226c-3.356,0-6.079,2.721-6.079,6.079c0,3.358,2.723,6.079,6.079,6.079h5.699   v14.876l-18.207,6.474V92.219l13.802,13.952c2.355,2.389,6.21,2.409,8.597,0.047c2.386-2.361,2.41-6.21,0.048-8.597L68.479,69.633   L40.511,97.598c-2.375,2.373-2.375,6.222,0,8.597c1.187,1.187,2.743,1.781,4.299,1.781c1.555,0,3.111-0.594,4.298-1.781   L61.56,93.744v62.88c-0.018,0.226-0.007,0.453,0,0.682v11.212l-20.297-7.217V145.97c0-0.173-0.036-0.336-0.05-0.505h5.54   c3.356,0,6.08-2.721,6.08-6.079c0-3.358-2.723-6.079-6.08-6.079H23.195c-3.356,0-6.079,2.721-6.079,6.079   c0,3.358,2.723,6.079,6.079,6.079h5.96c-0.014,0.169-0.051,0.332-0.051,0.505v23.912l32.455,11.541v5.14   c-1.847,1.778-3.007,4.264-3.007,7.03c0,5.398,4.375,9.774,9.773,9.774s9.773-4.376,9.773-9.774c0-3.403-1.743-6.394-4.382-8.144   v-24.053l30.366-10.798v-23.457h5.699c3.356,0,6.079-2.721,6.079-6.079C115.863,117.705,113.14,114.983,109.783,114.983z"/>
	<path style="fill:#FFFFFF;" d="M341.062,158.419h-14.8c-2.108,0-3.819,1.709-3.819,3.819c0,2.11,1.711,3.819,3.819,3.819h3.581   v9.345l-11.438,4.067v-35.352l8.67,8.765c1.479,1.501,3.902,1.513,5.401,0.03c1.499-1.483,1.514-3.901,0.03-5.401l-17.393-17.583   l-17.57,17.568c-1.492,1.491-1.492,3.909,0,5.401c0.746,0.746,1.723,1.119,2.701,1.119c0.977,0,1.954-0.373,2.7-1.119l7.823-7.822   v39.503c-0.012,0.142-0.004,0.285,0,0.428v7.044l-12.751-4.534v-9.631c0-0.109-0.023-0.211-0.032-0.317h3.48   c2.108,0,3.819-1.709,3.819-3.819c0-2.11-1.711-3.819-3.819-3.819h-14.8c-2.108,0-3.819,1.709-3.819,3.819   c0,2.11,1.711,3.819,3.819,3.819h3.744c-0.009,0.106-0.032,0.208-0.032,0.317v15.022l20.389,7.25v3.229   c-1.16,1.117-1.889,2.679-1.889,4.417c0,3.391,2.749,6.14,6.14,6.14c3.391,0,6.14-2.749,6.14-6.14c0-2.138-1.095-4.017-2.753-5.116   v-15.111l19.076-6.783v-14.736h3.581c2.108,0,3.819-1.709,3.819-3.819C344.882,160.129,343.171,158.419,341.062,158.419z"/>
</g>
<g>
	<rect x="303.155" y="219.295" style="fill:#CE412D;" width="27.489" height="17.341"/>
	<rect x="303.002" y="255.494" style="fill:#CE412D;" width="27.238" height="16.635"/>
</g>
<path style="fill:#3A556A;" d="M340.971,257.631H293.74c-0.748,0-1.36-0.612-1.36-1.36v-21.31c0-0.748,0.612-1.36,1.36-1.36h47.231  c0.748,0,1.36,0.612,1.36,1.36v21.31C342.331,257.019,341.719,257.631,340.971,257.631z"/>
<g>
	<rect x="52.275" y="212.02" style="fill:#CE412D;" width="27.489" height="17.341"/>
	<rect x="52.122" y="248.218" style="fill:#CE412D;" width="27.238" height="16.635"/>
</g>
<path style="fill:#3A556A;" d="M90.105,250.357H42.874c-0.748,0-1.36-0.612-1.36-1.36v-21.31c0-0.748,0.612-1.36,1.36-1.36h47.231  c0.748,0,1.36,0.612,1.36,1.36v21.31C91.465,249.745,90.853,250.357,90.105,250.357z"/>
<g>
</g>
<g>
</g>
<g>
</g>
<g>
</g>
<g>
</g>
<g>
</g>
<g>
</g>
<g>
</g>
<g>
</g>
<g>
</g>
<g>
</g>
<g>
</g>
<g>
</g>
<g>
</g>
<g>
</g>
</svg>
