<?xml version="1.0" encoding="iso-8859-1"?>
<!-- Generator: Adobe Illustrator 19.0.0, SVG Export Plug-In . SVG Version: 6.00 Build 0)  -->
<svg xmlns="http://www.w3.org/2000/svg" xmlns:xlink="http://www.w3.org/1999/xlink" version="1.1" id="Capa_1" x="0px" y="0px" viewBox="0 0 409.6 409.6" style="enable-background:new 0 0 409.6 409.6;" xml:space="preserve">
<path style="fill:#44C4A1;" d="M388.053,380.928H21.547C9.647,380.928,0,371.281,0,359.381V50.219  c0-11.9,9.647-21.547,21.547-21.547h366.507c11.9,0,21.547,9.647,21.547,21.547v309.163  C409.6,371.281,399.953,380.928,388.053,380.928z"/>
<ellipse style="fill:#EBF0F3;" cx="209.306" cy="199.885" rx="151.962" ry="135.168"/>
<path style="fill:#D5D6DB;" d="M361.267,199.885c0,74.651-68.036,135.168-151.962,135.168S57.344,274.536,57.344,199.885H361.267z"/>
<g>
	<circle style="fill:#3EA69B;" cx="120.392" cy="199.885" r="32.415"/>
	<circle style="fill:#3EA69B;" cx="208.993" cy="199.885" r="32.415"/>
	<circle style="fill:#3EA69B;" cx="295.762" cy="199.885" r="32.415"/>
</g>
<g>
	<path style="fill:#31978C;" d="M152.808,199.885c0,17.902-14.512,32.414-32.414,32.414s-32.414-14.512-32.414-32.414"/>
	<path style="fill:#31978C;" d="M241.406,199.885c0,17.902-14.512,32.414-32.414,32.414s-32.414-14.512-32.414-32.414"/>
	<path style="fill:#31978C;" d="M328.174,199.885c0,17.902-14.512,32.414-32.414,32.414s-32.414-14.512-32.414-32.414"/>
</g>
<polygon style="fill:#D5D6DB;" points="112.039,271.545 71.27,355.533 176.578,312.341 "/>
<g>
</g>
<g>
</g>
<g>
</g>
<g>
</g>
<g>
</g>
<g>
</g>
<g>
</g>
<g>
</g>
<g>
</g>
<g>
</g>
<g>
</g>
<g>
</g>
<g>
</g>
<g>
</g>
<g>
</g>
</svg>
