<?xml version="1.0" encoding="iso-8859-1"?>
<!-- Generator: Adobe Illustrator 19.0.0, SVG Export Plug-In . SVG Version: 6.00 Build 0)  -->
<svg xmlns="http://www.w3.org/2000/svg" xmlns:xlink="http://www.w3.org/1999/xlink" version="1.1" id="Capa_1" x="0px" y="0px" viewBox="0 0 409.6 409.6" style="enable-background:new 0 0 409.6 409.6;" xml:space="preserve">
<path style="fill:#27A2DB;" d="M308.918,169.242c-93.88-40.782-131.294,21.126-131.294,21.126  c-106.711-16.324-111.74,74.314-111.74,74.314c-30.698,10.962-62.041,38.111-62.041,69.867c0,41.45,37.02,75.051,82.687,75.051  h236.54c26.91-4.064,82.687-33.602,82.687-75.052c0-31.755-18.093-69.361-48.792-80.323  C356.966,254.225,359.759,191.328,308.918,169.242z"/>
<path style="fill:#2D93BA;" d="M86.53,409.6c-45.667,0-82.687-33.602-82.687-75.051c0-31.755,31.343-58.904,62.041-69.867  c0,0,5.028-90.638,111.74-74.314c0,0,15.632-25.867,52.043-33.146V409.6H86.53z"/>
<path style="fill:#FFFFFF;" d="M336.269,260.643c-3.03,0-5.697-2.196-6.194-5.286c-7.132-44.505-53.422-62.867-80.379-69.858  c-3.358-0.871-5.372-4.293-4.501-7.654c0.868-3.355,4.278-5.403,7.654-4.501c29.925,7.752,81.36,28.468,89.627,80.026  c0.552,3.422-1.785,6.648-5.207,7.194C336.931,260.618,336.6,260.643,336.269,260.643z"/>
<g>
	<path style="fill:#3A556A;" d="M304.516,55.997l15.875-13.265c-23.585-28.223-58.202-43.745-94.898-42.68   c-33.264,0.998-64.81,16.035-86.552,41.254l15.669,13.507c17.962-20.835,44.024-33.258,71.503-34.082   C256.379,19.848,285.029,32.677,304.516,55.997z"/>
	<path style="fill:#3A556A;" d="M272.113,86.064l15.875-13.265c-15.162-18.146-37.393-28.104-61.006-27.435   c-21.38,0.64-41.66,10.305-55.638,26.518l15.669,13.507c10.198-11.829,24.993-18.879,40.589-19.346   C244.819,65.51,261.048,72.821,272.113,86.064z"/>
	<path style="fill:#3A556A;" d="M254.428,123.027l15.875-13.265c-10.594-12.675-26.128-19.673-42.622-19.168   c-14.94,0.448-29.11,7.202-38.874,18.526l15.665,13.512c5.988-6.944,14.673-11.083,23.829-11.358   C238.448,110.952,247.931,115.255,254.428,123.027z"/>
</g>
<g>
</g>
<g>
</g>
<g>
</g>
<g>
</g>
<g>
</g>
<g>
</g>
<g>
</g>
<g>
</g>
<g>
</g>
<g>
</g>
<g>
</g>
<g>
</g>
<g>
</g>
<g>
</g>
<g>
</g>
</svg>
