<?xml version="1.0" encoding="iso-8859-1"?>
<!-- Generator: Adobe Illustrator 19.0.0, SVG Export Plug-In . SVG Version: 6.00 Build 0)  -->
<svg xmlns="http://www.w3.org/2000/svg" xmlns:xlink="http://www.w3.org/1999/xlink" version="1.1" id="Capa_1" x="0px" y="0px" viewBox="0 0 409.6 409.6" style="enable-background:new 0 0 409.6 409.6;" xml:space="preserve">
<path style="fill:#3A556A;" d="M310.908,58.753c-95.675-41.562-133.805,21.53-133.805,21.53  C68.352,63.646,63.227,156.018,63.227,156.018C31.942,167.19,0,194.858,0,227.221c0,42.242,37.728,76.487,84.268,76.487h241.063  c27.424-4.142,84.268-34.244,84.268-76.487c0-32.362-18.439-70.687-49.725-81.859C359.875,145.362,362.722,81.262,310.908,58.753z"/>
<path style="fill:#64798A;" d="M84.268,303.707C37.728,303.707,0,269.463,0,227.221c0-32.362,31.942-60.031,63.227-71.203  c0,0,5.124-92.371,113.876-75.735c0,0,15.931-26.361,53.038-33.779v257.203H84.268z"/>
<polygon style="fill:#FCD462;" points="150.87,245.84 203.917,245.84 203.917,365.018 254.579,365.018 254.579,245.84   309.413,245.84 230.142,155.015 "/>
<polygon style="fill:#F6C358;" points="203.917,365.018 203.917,245.84 150.87,245.84 230.142,155.015 230.142,365.018 "/>
<path style="fill:#FFFFFF;" d="M338.781,152.95c-3.593,0-6.756-2.604-7.345-6.269c-7.178-44.778-53.92-63.287-81.142-70.342  c-3.978-1.025-6.371-5.091-5.338-9.076c1.025-3.978,5.105-6.415,9.076-5.338c30.742,7.964,83.593,29.251,92.109,82.4  c0.655,4.058-2.116,7.884-6.175,8.531C339.566,152.921,339.174,152.95,338.781,152.95z"/>
<g>
</g>
<g>
</g>
<g>
</g>
<g>
</g>
<g>
</g>
<g>
</g>
<g>
</g>
<g>
</g>
<g>
</g>
<g>
</g>
<g>
</g>
<g>
</g>
<g>
</g>
<g>
</g>
<g>
</g>
</svg>
