<?xml version="1.0" encoding="iso-8859-1"?>
<!-- Generator: Adobe Illustrator 19.0.0, SVG Export Plug-In . SVG Version: 6.00 Build 0)  -->
<svg xmlns="http://www.w3.org/2000/svg" xmlns:xlink="http://www.w3.org/1999/xlink" version="1.1" id="Capa_1" x="0px" y="0px" viewBox="0 0 409.6 409.6" style="enable-background:new 0 0 409.6 409.6;" xml:space="preserve">
<g>
	<rect x="24.125" y="346.579" style="fill:#3A556A;" width="361.37" height="27.305"/>
	<rect x="201.472" y="241.056" style="fill:#3A556A;" width="27.305" height="112.691"/>
</g>
<path style="fill:#2D93BA;" d="M310.908,15.122c-95.675-41.562-133.805,21.53-133.805,21.53  C68.352,20.015,63.227,112.387,63.227,112.387C31.942,123.559,0,151.227,0,183.589c0,42.242,37.728,76.487,84.268,76.487h241.063  c27.424-4.142,84.268-34.244,84.268-76.487c0-32.362-18.439-70.687-49.725-81.859C359.875,101.73,362.722,37.63,310.908,15.122z"/>
<path style="fill:#27A2DB;" d="M84.268,260.076C37.728,260.076,0,225.832,0,183.589c0-32.362,31.942-60.031,63.227-71.203  c0,0,5.124-92.371,113.876-75.735c0,0,15.931-26.361,53.038-33.779v257.203H84.268z"/>
<circle style="fill:#64798A;" cx="215.142" cy="358.714" r="49.935"/>
<g>
</g>
<g>
</g>
<g>
</g>
<g>
</g>
<g>
</g>
<g>
</g>
<g>
</g>
<g>
</g>
<g>
</g>
<g>
</g>
<g>
</g>
<g>
</g>
<g>
</g>
<g>
</g>
<g>
</g>
</svg>
