<?xml version="1.0" encoding="iso-8859-1"?>
<!-- Generator: Adobe Illustrator 19.0.0, SVG Export Plug-In . SVG Version: 6.00 Build 0)  -->
<svg xmlns="http://www.w3.org/2000/svg" xmlns:xlink="http://www.w3.org/1999/xlink" version="1.1" id="Capa_1" x="0px" y="0px" viewBox="0 0 409.6 409.6" style="enable-background:new 0 0 409.6 409.6;" xml:space="preserve">
<path style="fill:#2D93BA;" d="M342.275,27.794c-65.268-32.992-91.279,17.091-91.279,17.091  c-74.188-13.206-77.684,60.119-77.684,60.119c-21.342,8.869-43.133,30.832-43.133,56.521c0,33.532,25.738,60.716,57.486,60.716  h164.448c18.708-3.288,57.486-27.183,57.486-60.716c0-25.69-12.579-56.112-33.921-64.98  C375.679,96.544,377.621,45.661,342.275,27.794z"/>
<path style="fill:#27A2DB;" d="M187.665,222.241c-31.749,0-57.486-27.183-57.486-60.716c0-25.69,21.79-47.653,43.133-56.521  c0,0,3.496-73.325,77.684-60.119c0,0,10.868-20.926,36.182-26.814v204.171H187.665z"/>
<rect x="116.106" y="352.461" style="fill:#3A556A;" width="90.132" height="24.673"/>
<path style="fill:#64798A;" d="M322.347,155.389c0-4.288-4.026-7.764-8.992-7.764H8.992c-4.966,0-8.992,3.476-8.992,7.764v161.523  h322.347V155.389z"/>
<rect x="17.582" y="162.806" style="fill:#D5D6DB;" width="287.181" height="154.112"/>
<path style="fill:#64798A;" d="M0,316.912v30.437c0,4.288,4.026,7.764,8.992,7.764h304.363c4.966,0,8.992-3.476,8.992-7.764v-30.437  H0z"/>
<ellipse style="fill:#EBF0F3;" cx="161.172" cy="336.026" rx="12.221" ry="10.552"/>
<path style="fill:#64798A;" d="M217.172,375.388H105.176c-11.3,0-20.461,7.91-20.461,17.667v0h152.918v0  C237.633,383.298,228.472,375.388,217.172,375.388z"/>
<g>
</g>
<g>
</g>
<g>
</g>
<g>
</g>
<g>
</g>
<g>
</g>
<g>
</g>
<g>
</g>
<g>
</g>
<g>
</g>
<g>
</g>
<g>
</g>
<g>
</g>
<g>
</g>
<g>
</g>
</svg>
