<?xml version="1.0" encoding="iso-8859-1"?>
<!-- Generator: Adobe Illustrator 19.0.0, SVG Export Plug-In . SVG Version: 6.00 Build 0)  -->
<svg xmlns="http://www.w3.org/2000/svg" xmlns:xlink="http://www.w3.org/1999/xlink" version="1.1" id="Capa_1" x="0px" y="0px" viewBox="0 0 409.6 409.6" style="enable-background:new 0 0 409.6 409.6;" xml:space="preserve">
<path style="fill:#2D93BA;" d="M310.908,50.297c-95.675-41.562-133.805,21.53-133.805,21.53  C68.352,55.19,63.227,147.561,63.227,147.561C31.942,158.733,0,186.401,0,218.764c0,42.242,37.728,76.487,84.268,76.487h241.063  c27.424-4.142,84.268-34.244,84.268-76.487c0-32.362-18.439-70.687-49.725-81.859C359.875,136.905,362.722,72.805,310.908,50.297z"/>
<path style="fill:#27A2DB;" d="M84.268,295.25C37.728,295.25,0,261.006,0,218.764c0-32.362,31.942-60.031,63.227-71.203  c0,0,5.124-92.371,113.876-75.735c0,0,15.931-26.361,53.038-33.779V295.25H84.268z"/>
<circle style="fill:#EBF0F3;" cx="216.525" cy="259.81" r="113.664"/>
<path style="fill:#DC8744;" d="M271.153,276.982c-4.263,17.324-16.089,32.622-33.526,40.626  c-30.344,13.928-66.361,0.572-80.289-29.77l16.515-7.581l-44.98-24.343l-13.413,51.147l17.42-7.997  c20.119,43.83,72.144,63.12,115.973,43.002c24.209-11.112,40.932-31.96,47.662-55.783"/>
<path style="fill:#E56353;" d="M151.337,238.742c4.263-17.324,16.089-32.622,33.526-40.626c30.344-13.928,66.361-0.572,80.289,29.77  l-16.515,7.581l44.98,24.343l13.413-51.147l-17.42,7.997c-20.119-43.83-72.144-63.12-115.973-43.002  c-24.21,11.113-40.932,31.96-47.662,55.783"/>
<g>
</g>
<g>
</g>
<g>
</g>
<g>
</g>
<g>
</g>
<g>
</g>
<g>
</g>
<g>
</g>
<g>
</g>
<g>
</g>
<g>
</g>
<g>
</g>
<g>
</g>
<g>
</g>
<g>
</g>
</svg>
