<?xml version="1.0" encoding="iso-8859-1"?>
<!-- Generator: Adobe Illustrator 19.0.0, SVG Export Plug-In . SVG Version: 6.00 Build 0)  -->
<svg xmlns="http://www.w3.org/2000/svg" xmlns:xlink="http://www.w3.org/1999/xlink" version="1.1" id="Capa_1" x="0px" y="0px" viewBox="0 0 409.6 409.6" style="enable-background:new 0 0 409.6 409.6;" xml:space="preserve">
<g>
	<path style="fill:#44C4A1;" d="M366.357,323.132H101.39V49.284h264.967V323.132z M114.639,309.884h238.47V62.532h-238.47V309.884z"/>
	<path style="fill:#44C4A1;" d="M302.292,269.149H150.512V112.371h151.781V269.149z M160.516,259.144h131.771V122.375H160.516   V259.144z"/>
</g>
<path style="fill:#64798A;" d="M377.482,409.6H246.451c-4.339,0-7.856-3.517-7.856-7.856V181.18c0-4.339,3.517-7.856,7.856-7.856  h131.031c4.339,0,7.856,3.517,7.856,7.856v220.564C385.338,406.083,381.821,409.6,377.482,409.6z"/>
<path style="fill:#D5D6DB;" d="M365.555,387.945H258.378c-1.965,0-3.559-1.593-3.559-3.559V200.706c0-1.965,1.593-3.559,3.559-3.559  h107.177c1.965,0,3.559,1.593,3.559,3.559v183.681C369.113,386.352,367.52,387.945,365.555,387.945z"/>
<ellipse style="fill:#FFFFFF;" cx="307.866" cy="398.643" rx="6.205" ry="6.784"/>
<ellipse style="fill:#EBF0F3;" cx="307.866" cy="398.643" rx="4.762" ry="5.207"/>
<path style="fill:#D5D6DB;" d="M308.535,401.902h-1.331c-1.264,0-2.294-1.135-2.294-2.528v-1.497c0-1.393,1.03-2.527,2.294-2.527  h1.331c1.264,0,2.294,1.135,2.294,2.527v1.497C310.828,400.767,309.798,401.902,308.535,401.902z M307.204,396.194  c-0.843,0-1.527,0.754-1.527,1.683v1.497c0,0.929,0.684,1.683,1.527,1.683h1.331c0.843,0,1.527-0.754,1.527-1.683v-1.497  c0-0.929-0.684-1.683-1.527-1.683H307.204z"/>
<path style="fill:#FFFFFF;" d="M327.806,189.561h-31.678c-0.638,0-1.155-0.517-1.155-1.155v-0.762c0-0.638,0.517-1.155,1.155-1.155  h31.678c0.638,0,1.155,0.517,1.155,1.155v0.762C328.961,189.044,328.444,189.561,327.806,189.561z"/>
<path style="fill:#D15241;" d="M203.314,8.161c-55.099-23.936-77.058,12.399-77.058,12.399  c-62.63-9.581-65.581,43.616-65.581,43.616c-18.017,6.434-36.413,22.368-36.413,41.006c0,24.327,21.728,44.049,48.53,44.049H211.62  c15.794-2.385,48.53-19.721,48.53-44.049c0-18.637-10.619-40.708-28.636-47.142C231.513,58.039,233.153,21.124,203.314,8.161z"/>
<path style="fill:#E56353;" d="M72.792,149.23c-26.802,0-48.53-19.721-48.53-44.049c0-18.637,18.395-34.572,36.413-41.006  c0,0,2.951-53.197,65.581-43.616c0,0,9.175-15.181,30.545-19.453V149.23H72.792z"/>
<polygon style="fill:#3A556A;" points="278.382,306.563 302.266,306.563 302.266,373.889 325.077,373.889 325.077,306.563   349.766,306.563 314.074,241.218 "/>
<polygon style="fill:#64798A;" points="302.266,373.889 302.266,306.563 278.382,306.563 314.074,241.218 314.074,373.889 "/>
<g>
</g>
<g>
</g>
<g>
</g>
<g>
</g>
<g>
</g>
<g>
</g>
<g>
</g>
<g>
</g>
<g>
</g>
<g>
</g>
<g>
</g>
<g>
</g>
<g>
</g>
<g>
</g>
<g>
</g>
</svg>
