<?xml version="1.0" encoding="iso-8859-1"?>
<!-- Generator: Adobe Illustrator 19.0.0, SVG Export Plug-In . SVG Version: 6.00 Build 0)  -->
<svg xmlns="http://www.w3.org/2000/svg" xmlns:xlink="http://www.w3.org/1999/xlink" version="1.1" id="Capa_1" x="0px" y="0px" viewBox="0 0 409.6 409.6" style="enable-background:new 0 0 409.6 409.6;" xml:space="preserve">
<path style="fill:#2D93BA;" d="M310.908,70.526c-95.675-48.363-133.805,25.053-133.805,25.053  C68.352,76.22,63.227,183.707,63.227,183.707C31.942,196.707,0,228.903,0,266.561c0,49.155,37.728,89.003,84.268,89.003h241.063  c27.424-4.819,84.268-39.848,84.268-89.003c0-37.658-18.439-82.254-49.725-95.254C359.875,171.307,362.722,96.718,310.908,70.526z"/>
<path style="fill:#27A2DB;" d="M84.268,355.564C37.728,355.564,0,315.716,0,266.561c0-37.658,31.942-69.854,63.227-82.854  c0,0,5.124-107.487,113.876-88.128c0,0,15.931-30.675,53.038-39.307v299.291H84.268z"/>
<polygon style="fill:#FFFFFF;" points="137.899,224.6 199.625,224.6 199.625,130.276 258.578,130.276 258.578,224.6 322.385,224.6   230.142,316.149 "/>
<polygon style="fill:#D5D6DB;" points="199.625,130.276 199.625,224.6 137.899,224.6 230.142,316.149 230.142,130.276 "/>
<g>
</g>
<g>
</g>
<g>
</g>
<g>
</g>
<g>
</g>
<g>
</g>
<g>
</g>
<g>
</g>
<g>
</g>
<g>
</g>
<g>
</g>
<g>
</g>
<g>
</g>
<g>
</g>
<g>
</g>
</svg>
