<?xml version="1.0" encoding="iso-8859-1"?>
<!-- Generator: Adobe Illustrator 19.0.0, SVG Export Plug-In . SVG Version: 6.00 Build 0)  -->
<svg xmlns="http://www.w3.org/2000/svg" xmlns:xlink="http://www.w3.org/1999/xlink" version="1.1" id="Capa_1" x="0px" y="0px" viewBox="0 0 409.6 409.6" style="enable-background:new 0 0 409.6 409.6;" xml:space="preserve">
<rect x="172.349" y="380.365" style="fill:#3A556A;" width="64.901" height="17.766"/>
<path style="fill:#64798A;" d="M320.857,238.462c0-3.088-2.899-5.591-6.475-5.591H95.217c-3.576,0-6.475,2.503-6.475,5.591v116.309  h232.115V238.462z"/>
<rect x="101.402" y="243.814" style="fill:#D5D6DB;" width="206.797" height="110.966"/>
<path style="fill:#64798A;" d="M88.743,354.771v21.917c0,3.088,2.899,5.591,6.475,5.591h219.165c3.576,0,6.475-2.503,6.475-5.591  v-21.917H88.743z"/>
<ellipse style="fill:#EBF0F3;" cx="204.8" cy="368.522" rx="8.801" ry="7.598"/>
<path style="fill:#64798A;" d="M245.123,396.878h-80.646c-8.137,0-14.733,5.696-14.733,12.721v0h110.113v0  C259.856,402.574,253.26,396.878,245.123,396.878z"/>
<path style="fill:#2D93BA;" d="M248.123,8.1c-46.998-23.757-65.728,12.306-65.728,12.306c-53.421-9.51-55.939,43.29-55.939,43.29  c-15.368,6.386-31.059,22.201-31.059,40.7c0,24.146,18.533,43.72,41.395,43.72h118.416c13.471-2.367,41.395-19.574,41.395-43.72  c0-18.499-9.058-40.405-24.426-46.791C272.176,57.606,273.575,20.966,248.123,8.1z"/>
<path style="fill:#27A2DB;" d="M136.792,148.117c-22.862,0-41.395-19.574-41.395-43.72c0-18.499,15.691-34.314,31.059-40.7  c0,0,2.517-52.8,55.939-43.29c0,0,7.826-15.068,26.054-19.308v147.019H136.792z"/>
<polygon style="fill:#E56353;" points="196,139.976 173.395,139.976 173.395,203.696 151.806,203.696 151.806,139.976   128.439,139.976 162.219,78.13 "/>
<polygon style="fill:#D15241;" points="173.395,203.696 173.395,139.976 196,139.976 162.219,78.13 162.219,203.696 "/>
<g>
	<polygon style="fill:#EBF0F3;" points="270.404,164.356 248.219,164.356 248.219,101.821 227.031,101.821 227.031,164.356    204.099,164.356 237.251,225.052  "/>
	<polygon style="fill:#EBF0F3;" points="248.219,101.821 248.219,164.356 270.404,164.356 237.251,225.052 237.251,101.821  "/>
</g>
<g>
</g>
<g>
</g>
<g>
</g>
<g>
</g>
<g>
</g>
<g>
</g>
<g>
</g>
<g>
</g>
<g>
</g>
<g>
</g>
<g>
</g>
<g>
</g>
<g>
</g>
<g>
</g>
<g>
</g>
</svg>
