<?xml version="1.0" encoding="iso-8859-1"?>
<!-- Generator: Adobe Illustrator 19.0.0, SVG Export Plug-In . SVG Version: 6.00 Build 0)  -->
<svg xmlns="http://www.w3.org/2000/svg" xmlns:xlink="http://www.w3.org/1999/xlink" version="1.1" id="Capa_1" x="0px" y="0px" viewBox="0 0 409.6 409.6" style="enable-background:new 0 0 409.6 409.6;" xml:space="preserve">
<path style="fill:#3EA69B;" d="M356.173,225.686c-51.794-22.5-72.436,11.655-72.436,11.655  c-58.873-9.006-61.647,40.999-61.647,40.999c-16.936,6.048-34.228,21.026-34.228,38.546c0,22.868,20.424,41.406,45.619,41.406h130.5  c14.846-2.242,45.619-18.538,45.619-41.406c0-17.52-9.982-38.267-26.919-44.315C382.681,272.571,384.223,237.871,356.173,225.686z"/>
<path style="fill:#44C4A1;" d="M233.481,358.292c-25.195,0-45.619-18.538-45.619-41.406c0-17.52,17.292-32.498,34.228-38.546  c0,0,2.774-50.006,61.647-40.999c0,0,8.625-14.271,28.712-18.287v139.238H233.481z"/>
<g>
	<polygon style="fill:#D15241;" points="171.535,320.952 63.805,320.952 63.805,240.8 77.594,240.8 77.594,307.162 171.535,307.162     "/>
	<polygon style="fill:#D15241;" points="112.93,257.175 70.699,202.018 28.469,257.175  "/>
	<polygon style="fill:#D15241;" points="331.132,165.457 317.343,165.457 317.343,98.589 222.353,98.589 222.353,84.799    331.132,84.799  "/>
	<polygon style="fill:#D15241;" points="280.345,146.86 322.576,202.018 364.806,146.86  "/>
</g>
<path style="fill:#3A556A;" d="M168.311,58.979c-51.794-22.5-72.436,11.655-72.436,11.655  c-58.873-9.006-61.647,40.999-61.647,40.999C17.292,117.682,0,132.66,0,150.179c0,22.868,20.424,41.406,45.619,41.406h130.5  c14.846-2.242,45.619-18.538,45.619-41.406c0-17.52-9.982-38.267-26.919-44.315C194.82,105.865,196.361,71.164,168.311,58.979z"/>
<path style="fill:#64798A;" d="M45.619,191.586C20.424,191.586,0,173.048,0,150.179c0-17.52,17.292-32.498,34.228-38.546  c0,0,2.774-50.006,61.647-40.999c0,0,8.625-14.271,28.712-18.287v139.238H45.619z"/>
<g>
</g>
<g>
</g>
<g>
</g>
<g>
</g>
<g>
</g>
<g>
</g>
<g>
</g>
<g>
</g>
<g>
</g>
<g>
</g>
<g>
</g>
<g>
</g>
<g>
</g>
<g>
</g>
<g>
</g>
</svg>
