<?xml version="1.0" encoding="iso-8859-1"?>
<!-- Generator: Adobe Illustrator 19.0.0, SVG Export Plug-In . SVG Version: 6.00 Build 0)  -->
<svg xmlns="http://www.w3.org/2000/svg" xmlns:xlink="http://www.w3.org/1999/xlink" version="1.1" id="Capa_1" x="0px" y="0px" viewBox="0 0 409.6 409.6" style="enable-background:new 0 0 409.6 409.6;" xml:space="preserve">
<circle style="fill:#D5D6DB;" cx="204.8" cy="204.8" r="191.974"/>
<path style="fill:#1C75A1;" d="M204.804,409.6C91.871,409.6,0,317.729,0,204.8S91.871,0,204.804,0  C317.729,0,409.6,91.871,409.6,204.8S317.729,409.6,204.804,409.6z M204.804,25.655c-98.786,0-179.149,80.363-179.149,179.145  s80.363,179.145,179.149,179.145c98.778,0,179.141-80.363,179.141-179.145S303.582,25.655,204.804,25.655z"/>
<g>
	<path style="fill:#2F4859;" d="M180.135,43.527h13.404v36.902h-5.913V49.073h-7.491V43.527z"/>
	<path style="fill:#2F4859;" d="M218.302,57.942c1.055-1.444,1.585-2.905,1.585-4.382c0-1.48-0.567-2.738-1.695-3.775   c-1.12-1.04-2.545-1.56-4.269-1.56c-3.033,0-5.549,1.549-7.549,4.647l-5.018-2.905c1.615-2.425,3.404-4.258,5.36-5.487   c1.949-1.233,4.465-1.851,7.549-1.851c3.076,0,5.782,0.978,8.102,2.931c2.32,1.953,3.484,4.618,3.484,8   c0,1.898-0.495,3.713-1.476,5.436c-0.989,1.724-2.8,3.942-5.44,6.651l-8.655,8.818h16.735v5.964h-25.236v-5.28l11.193-11.244   C215.466,61.371,217.247,59.382,218.302,57.942z"/>
	<path style="fill:#2F4859;" d="M55.815,218.156c3.273,0,5.68-1.109,7.229-3.324c1.549-2.218,2.342-5.211,2.378-8.975   c-0.88,0.985-2.145,1.909-3.804,2.771c-1.651,0.862-3.484,1.295-5.491,1.295c-3.309,0-6.08-1.102-8.313-3.302   c-2.233-2.2-3.353-5.12-3.353-8.764c0-3.64,1.207-6.571,3.615-8.789c2.415-2.218,5.447-3.324,9.113-3.324   c5.913,0,9.993,2.636,12.247,7.916c1.265,3.029,1.898,6.44,1.898,10.244c0,3.8-0.407,6.967-1.215,9.502   c-0.807,2.535-1.92,4.538-3.324,6.018c-2.749,2.884-6.116,4.327-10.109,4.327c-4,0-7.615-1.247-10.851-3.749l3.113-4.593   c0.807,0.705,1.891,1.338,3.251,1.902C53.553,217.876,54.76,218.156,55.815,218.156z M56.949,204.433   c2.131,0,3.905-0.589,5.331-1.771c1.425-1.178,2.138-2.709,2.138-4.593c0-1.88-0.684-3.502-2.058-4.855   c-1.375-1.356-3.091-2.033-5.149-2.033c-2.058,0-3.753,0.607-5.091,1.822c-1.338,1.215-2.007,2.771-2.007,4.669   c0,1.902,0.604,3.505,1.818,4.807C53.146,203.782,54.818,204.433,56.949,204.433z"/>
	<path style="fill:#2F4859;" d="M207.269,336.713c-3.273,0-5.687,1.109-7.236,3.327c-1.549,2.218-2.342,5.207-2.371,8.975   c0.873-0.985,2.145-1.909,3.796-2.771c1.658-0.862,3.484-1.295,5.491-1.295c3.309,0,6.08,1.102,8.313,3.298   c2.24,2.2,3.353,5.124,3.353,8.764c0,3.644-1.207,6.575-3.615,8.793c-2.415,2.215-5.447,3.324-9.105,3.324   c-5.913,0-10-2.64-12.247-7.916c-1.265-3.029-1.898-6.444-1.898-10.244c0-3.8,0.4-6.967,1.207-9.502   c0.815-2.535,1.92-4.542,3.331-6.018c2.742-2.887,6.116-4.327,10.109-4.327c3.993,0,7.607,1.247,10.851,3.745l-3.12,4.593   c-0.807-0.702-1.891-1.335-3.244-1.898C209.524,336.996,208.324,336.713,207.269,336.713z M206.135,350.44   c-2.131,0-3.913,0.589-5.338,1.767c-1.425,1.182-2.138,2.713-2.138,4.593c0,1.884,0.691,3.502,2.065,4.858   c1.367,1.356,3.091,2.033,5.171,2.033c2.073,0,3.804-0.607,5.171-1.822c1.375-1.215,2.058-2.764,2.058-4.647   c0-1.88-0.633-3.484-1.898-4.804C209.96,351.098,208.258,350.44,206.135,350.44z"/>
	<path style="fill:#2F4859;" d="M340.876,200.527v-5.545h21.593v4.858l-8.924,9.978c3.382,0.105,6.022,1.171,7.92,3.193   c1.898,2.025,2.851,4.444,2.851,7.258c0,3.767-1.28,6.724-3.825,8.869c-2.553,2.149-5.84,3.222-9.847,3.222   c-4.015,0-7.942-1.287-11.775-3.855l2.64-5.015c3.025,2.109,6.196,3.167,9.505,3.167c2.145,0,3.913-0.502,5.302-1.505   c1.389-1.004,2.087-2.447,2.087-4.327c0-1.884-0.778-3.389-2.327-4.516c-1.549-1.124-3.695-1.687-6.436-1.687   c-1.375,0-2.691,0.193-3.964,0.578v-4.749l8.553-9.924H340.876z"/>
	<rect x="206.131" y="113.203" style="fill:#2F4859;" width="7.875" height="99.768"/>
	<rect x="129.638" y="208.722" style="fill:#2F4859;" width="72.581" height="8.55"/>
</g>
<rect x="233.817" y="155.234" transform="matrix(-0.751 0.6603 -0.6603 -0.751 572.6041 265.1696)" style="fill:#E56353;" width="4.966" height="170.649"/>
<circle style="fill:#27A2DB;" cx="209.823" cy="212.997" r="12.826"/>
<g>
</g>
<g>
</g>
<g>
</g>
<g>
</g>
<g>
</g>
<g>
</g>
<g>
</g>
<g>
</g>
<g>
</g>
<g>
</g>
<g>
</g>
<g>
</g>
<g>
</g>
<g>
</g>
<g>
</g>
</svg>
