<?xml version="1.0" encoding="iso-8859-1"?>
<!-- Generator: Adobe Illustrator 19.0.0, SVG Export Plug-In . SVG Version: 6.00 Build 0)  -->
<svg xmlns="http://www.w3.org/2000/svg" xmlns:xlink="http://www.w3.org/1999/xlink" version="1.1" id="Capa_1" x="0px" y="0px" viewBox="0 0 409.6 409.6" style="enable-background:new 0 0 409.6 409.6;" xml:space="preserve">
<path style="fill:#E1E6E9;" d="M151.255,112.474H78.477c-3.654,0-6.616-2.962-6.616-6.616c0-3.654,2.962-6.616,6.616-6.616h72.778  c3.654,0,6.616,2.962,6.616,6.616C157.871,109.512,154.909,112.474,151.255,112.474z"/>
<path style="fill:#FCD462;" d="M165.546,409.6c-27.989,0-54.748-9.927-76.138-28.416c-44.124-38.129-49.201-102.242-12.935-163.319  c2.574-4.309,8.149-5.731,12.48-3.179c4.316,2.567,5.746,8.156,3.179,12.48c-23.957,40.334-35.918,101.268,9.18,140.251  c19.911,17.209,45.354,25.578,71.572,23.715c26.247-1.913,50.175-13.931,67.384-33.841c20.409-23.623,28.444-55.928,21.49-86.399  c-1.116-4.899,1.948-9.785,6.848-10.901c4.921-1.109,9.778,1.956,10.901,6.848c8.242,36.103-1.28,74.36-25.465,102.356  c-20.387,23.587-48.739,37.824-79.835,40.092C171.313,409.5,168.426,409.6,165.546,409.6z"/>
<path style="fill:#E1E6E9;" d="M151.255,173.124H78.477c-3.654,0-6.616-2.962-6.616-6.616c0-3.654,2.962-6.616,6.616-6.616h72.778  c3.654,0,6.616,2.962,6.616,6.616C157.871,170.162,154.909,173.124,151.255,173.124z"/>
<g>
	<rect x="144.077" y="62.31" style="fill:#31978C;" width="43.279" height="145.556"/>
	<rect x="252.979" y="273.664" style="fill:#31978C;" width="39.9" height="12.155"/>
</g>
<rect x="245.54" y="256.614" style="fill:#CE412D;" width="55.629" height="17.884"/>
<path style="fill:#FCD462;" d="M339.226,257.481H203.121c-9.918,0-17.958-8.04-17.958-17.958V17.958  C185.163,8.04,193.203,0,203.121,0h136.105c9.918,0,17.958,8.04,17.958,17.958v221.565  C357.184,249.441,349.144,257.481,339.226,257.481z"/>
<rect x="172.605" y="62.31" style="fill:#D5D6DB;" width="14.761" height="145.556"/>
<g>
</g>
<g>
</g>
<g>
</g>
<g>
</g>
<g>
</g>
<g>
</g>
<g>
</g>
<g>
</g>
<g>
</g>
<g>
</g>
<g>
</g>
<g>
</g>
<g>
</g>
<g>
</g>
<g>
</g>
</svg>
