<?xml version="1.0" encoding="iso-8859-1"?>
<!-- Generator: Adobe Illustrator 19.0.0, SVG Export Plug-In . SVG Version: 6.00 Build 0)  -->
<svg xmlns="http://www.w3.org/2000/svg" xmlns:xlink="http://www.w3.org/1999/xlink" version="1.1" id="Capa_1" x="0px" y="0px" viewBox="0 0 409.6 409.6" style="enable-background:new 0 0 409.6 409.6;" xml:space="preserve">
<path style="fill:#3A556A;" d="M253.13,152.008h-7.363c-4.473,0-8.099-3.626-8.099-8.099V47.814c0-4.473,3.626-8.099,8.099-8.099  h7.363c4.473,0,8.099,3.626,8.099,8.099v96.094C261.229,148.382,257.603,152.008,253.13,152.008z"/>
<path style="fill:#D5D6DB;" d="M256.488,409.6h-83.79c-9.561,0-17.312-7.751-17.312-17.312V270.567H273.8v121.721  C273.8,401.849,266.049,409.6,256.488,409.6z"/>
<path style="fill:#F6C358;" d="M273.8,274.268l12.335-18.913V152.123c0-9.327-7.561-16.888-16.888-16.888H160.762  c-9.327,0-16.888,7.561-16.888,16.888v103.231l11.512,18.913"/>
<g>
	<rect x="199.588" y="103.322" style="fill:#EBF0F3;" width="20.531" height="31.928"/>
	<rect x="168.76" y="103.322" style="fill:#EBF0F3;" width="20.531" height="31.928"/>
</g>
<g>
	<ellipse style="fill:#3A556A;" cx="209.864" cy="103.322" rx="10.404" ry="2.57"/>
	<ellipse style="fill:#3A556A;" cx="179.036" cy="103.322" rx="10.404" ry="2.57"/>
</g>
<rect x="160.973" y="162.534" style="fill:#64798A;" width="105.774" height="92.262"/>
<g>
	<rect x="160.973" y="242.227" style="fill:#3A556A;" width="105.774" height="12.534"/>
	<circle style="fill:#3A556A;" cx="217.856" cy="349.491" r="26.696"/>
</g>
<circle style="fill:#F6C358;" cx="217.856" cy="349.491" r="14.1"/>
<rect x="234.22" y="291.308" style="fill:#D15241;" width="32.522" height="14.1"/>
<rect x="164.864" y="291.308" style="fill:#44C4A1;" width="32.522" height="14.1"/>
<rect x="234.22" y="302.08" style="fill:#CE412D;" width="32.522" height="3.323"/>
<rect x="164.864" y="302.024" style="fill:#3EA69B;" width="32.522" height="3.384"/>
<g>
	<path style="fill:#E56353;" d="M135.274,52.867l-11.809-3.947c7.018-20.994,23.008-37.293,43.805-44.754   c18.859-6.745,39.838-5.246,57.559,4.111l-5.814,11.01c-14.64-7.731-31.972-8.969-47.551-3.397   C154.31,22.041,141.073,35.521,135.274,52.867z"/>
	<path style="fill:#E56353;" d="M160.033,62.601l-11.809-3.947c4.512-13.498,14.782-23.959,28.161-28.77   c12.121-4.336,25.607-3.373,37,2.642l-5.814,11.01c-8.312-4.389-18.151-5.091-26.993-1.928   C170.814,45.09,163.326,52.75,160.033,62.601z"/>
	<path style="fill:#E56353;" d="M178.06,79.43l-11.809-3.947c3.153-9.429,10.321-16.761,19.674-20.1   c8.47-3.029,17.894-2.356,25.851,1.845l-5.811,11.011c-4.88-2.576-10.656-2.989-15.847-1.132   C184.363,69.154,179.994,73.648,178.06,79.43z"/>
</g>
<g>
</g>
<g>
</g>
<g>
</g>
<g>
</g>
<g>
</g>
<g>
</g>
<g>
</g>
<g>
</g>
<g>
</g>
<g>
</g>
<g>
</g>
<g>
</g>
<g>
</g>
<g>
</g>
<g>
</g>
</svg>
