<?xml version="1.0" encoding="iso-8859-1"?>
<!-- Generator: Adobe Illustrator 19.0.0, SVG Export Plug-In . SVG Version: 6.00 Build 0)  -->
<svg xmlns="http://www.w3.org/2000/svg" xmlns:xlink="http://www.w3.org/1999/xlink" version="1.1" id="Capa_1" x="0px" y="0px" viewBox="0 0 409.6 409.6" style="enable-background:new 0 0 409.6 409.6;" xml:space="preserve">
<rect y="152.438" style="fill:#44C4A1;" width="409.6" height="151.281"/>
<path style="fill:#E1E6E9;" d="M0,336.673c0,8.618,6.986,15.604,15.604,15.604h378.393c8.617,0,15.604-6.986,15.604-15.604V303.72H0  V336.673z"/>
<path style="fill:#3EA69B;" d="M102.291,237.456c0,25.284,9.197,48.39,24.371,66.264h156.276  c15.174-17.875,24.371-40.98,24.371-66.264c0-35.394-17.939-66.597-45.22-85.017H147.511  C120.23,170.858,102.291,202.062,102.291,237.456z"/>
<path style="fill:#D5D6DB;" d="M204.8,339.964c31.331,0,59.335-14.095,78.138-36.245H126.662  C145.465,325.869,173.469,339.964,204.8,339.964z"/>
<path style="fill:#2F4859;" d="M75.455,86.521H31.211c-1.996,0-3.615,1.618-3.615,3.615v12.868h51.473V90.135  C79.069,88.139,77.451,86.521,75.455,86.521z"/>
<path style="fill:#D5D6DB;" d="M265.193,64.285c-1.788-4.22-5.927-6.961-10.511-6.961h-99.764c-4.584,0-8.723,2.741-10.511,6.961  l-18.675,44.071h158.135L265.193,64.285z"/>
<path style="fill:#E1E6E9;" d="M409.6,116.269c0-8.618-6.986-15.604-15.604-15.604H15.604C6.986,100.665,0,107.651,0,116.269v36.17  h409.6V116.269z"/>
<circle style="fill:#64798A;" cx="204.8" cy="225.28" r="102.502"/>
<circle style="fill:#3A556A;" cx="204.8" cy="225.28" r="74.47"/>
<circle style="fill:#64798A;" cx="204.8" cy="225.28" r="45.804"/>
<circle style="fill:#27A2DB;" cx="204.8" cy="225.28" r="23.895"/>
<g>
	<circle style="fill:#FFFFFF;" cx="220.723" cy="209.403" r="5.386"/>
	<circle style="fill:#FFFFFF;" cx="189.117" cy="240.998" r="4.224"/>
</g>
<path style="fill:#3A556A;" d="M240.365,75.185h-71.131c-4.227,0-7.655,3.427-7.655,7.655c0,4.228,3.427,7.655,7.655,7.655h71.131  c4.227,0,7.655-3.427,7.655-7.655C248.02,78.612,244.593,75.185,240.365,75.185z"/>
<g>
</g>
<g>
</g>
<g>
</g>
<g>
</g>
<g>
</g>
<g>
</g>
<g>
</g>
<g>
</g>
<g>
</g>
<g>
</g>
<g>
</g>
<g>
</g>
<g>
</g>
<g>
</g>
<g>
</g>
</svg>
