<?xml version="1.0" encoding="iso-8859-1"?>
<!-- Generator: Adobe Illustrator 19.0.0, SVG Export Plug-In . SVG Version: 6.00 Build 0)  -->
<svg xmlns="http://www.w3.org/2000/svg" xmlns:xlink="http://www.w3.org/1999/xlink" version="1.1" id="Capa_1" x="0px" y="0px" viewBox="0 0 409.6 409.6" style="enable-background:new 0 0 409.6 409.6;" xml:space="preserve">
<path style="fill:#FCD462;" d="M330,360.974c10.951-8.093,11.209-28.95,2.731-39.606l-25.268-26.488  c-24.338-24.999-42.197-45.32-84.341-15.125c-12.011,8.605-26.321,36.2-58.53,8.202c-26.701-23.209-80.099-86.171-74.563-120.274  c3.109-19.155,21.574-27.357,31.596-32.737c35.061-18.823,25.059-53.299,6.169-82.633c0,0-15.657-24.571-21.354-32.431  C98.447,8.855,84.997,9.384,71.792,15.938c0,0-57.695,27.986-69.519,93.862c-8.486,47.279,5.243,89.056,67.502,179.888  c30.73,44.833,91.879,113.977,188.502,108.333C278.892,396.817,286.45,393.158,330,360.974z"/>
<g>
	<path style="fill:#64798A;" d="M294.938,382.288l-74.374-100.473c4.931-4.669,14.884-9.855,14.884-9.855l79.55,99.985   c0,0-12.471,9.024-18.262,12.602L294.938,382.288z"/>
	<path style="fill:#64798A;" d="M52.012,28.924l79.221,99.572c0,0-1.032,2.028-23.308,14.201L32.358,47.717   C32.358,47.717,46.736,31.53,52.012,28.924z"/>
</g>
<path style="fill:#44C4A1;" d="M305.733,231.721v-53.22h82.898c11.581,0,20.969-11.378,20.969-25.414v0  c0-14.036-9.388-25.414-20.969-25.414h-82.898V72.658L204.92,152.19L305.733,231.721z"/>
<path style="fill:#3EA69B;" d="M388.631,178.501h-82.898v53.22L204.92,152.19H409.6v0.897  C409.6,167.123,400.212,178.501,388.631,178.501z"/>
<g>
</g>
<g>
</g>
<g>
</g>
<g>
</g>
<g>
</g>
<g>
</g>
<g>
</g>
<g>
</g>
<g>
</g>
<g>
</g>
<g>
</g>
<g>
</g>
<g>
</g>
<g>
</g>
<g>
</g>
</svg>
