<?xml version="1.0" encoding="iso-8859-1"?>
<!-- Generator: Adobe Illustrator 19.0.0, SVG Export Plug-In . SVG Version: 6.00 Build 0)  -->
<svg xmlns="http://www.w3.org/2000/svg" xmlns:xlink="http://www.w3.org/1999/xlink" version="1.1" id="Capa_1" x="0px" y="0px" viewBox="0 0 409.6 409.6" style="enable-background:new 0 0 409.6 409.6;" xml:space="preserve">
<path style="fill:#DC8744;" d="M371.813,370.055c11.588-8.564,11.861-30.633,2.89-41.909l-26.737-28.028  c-25.753-26.453-44.65-47.955-89.245-16.005c-12.709,9.106-27.852,38.304-61.934,8.679c-28.253-24.559-84.757-91.181-78.899-127.268  c3.29-20.268,22.829-28.948,33.433-34.641c37.1-19.918,26.516-56.399,6.528-87.438c0,0-16.568-26-22.596-34.317  c-8.456-11.667-22.688-11.108-36.661-4.173c0,0-61.049,29.613-73.561,99.32c-8.979,50.028,5.548,94.235,71.427,190.348  c32.517,47.44,97.221,120.604,199.462,114.632C317.733,407.982,325.731,404.111,371.813,370.055z"/>
<g>
	<path style="fill:#64798A;" d="M334.713,392.608l-78.699-106.315c5.217-4.941,15.75-10.428,15.75-10.428l84.176,105.799   c0,0-13.196,9.549-19.324,13.335L334.713,392.608z"/>
	<path style="fill:#64798A;" d="M77.662,18.698l83.828,105.362c0,0-1.092,2.146-24.663,15.026L56.865,38.584   C56.865,38.584,72.079,21.455,77.662,18.698z"/>
</g>
<path style="fill:#E56353;" d="M280.301,233.626v-56.315h-87.719c-12.254,0-22.188-12.04-22.188-26.892v0  c0-14.852,9.934-26.892,22.188-26.892h87.719V65.315l106.674,84.156L280.301,233.626z"/>
<path style="fill:#D15241;" d="M192.582,177.312h87.719v56.315l106.674-84.156H170.394v0.949  C170.394,165.272,180.328,177.312,192.582,177.312z"/>
<g>
</g>
<g>
</g>
<g>
</g>
<g>
</g>
<g>
</g>
<g>
</g>
<g>
</g>
<g>
</g>
<g>
</g>
<g>
</g>
<g>
</g>
<g>
</g>
<g>
</g>
<g>
</g>
<g>
</g>
</svg>
