<?xml version="1.0" encoding="iso-8859-1"?>
<!-- Generator: Adobe Illustrator 19.0.0, SVG Export Plug-In . SVG Version: 6.00 Build 0)  -->
<svg xmlns="http://www.w3.org/2000/svg" xmlns:xlink="http://www.w3.org/1999/xlink" version="1.1" id="Capa_1" x="0px" y="0px" viewBox="0 0 409.62 409.62" style="enable-background:new 0 0 409.62 409.62;" xml:space="preserve">
<g>
	
		<rect x="160.861" y="179.651" transform="matrix(-0.4988 0.8667 -0.8667 -0.4988 612.4076 20.0485)" style="fill:#F6C358;" width="279.091" height="14.904"/>
	
		<rect x="97.358" y="43.579" transform="matrix(-0.8955 0.4451 -0.4451 -0.8955 280.1638 300.4646)" style="fill:#F6C358;" width="14.894" height="279.092"/>
</g>
<path style="fill:#DC8744;" d="M45.711,292.063c0-60.871,67.962-133.977,151.797-133.977s151.797,73.106,151.797,133.977"/>
<path style="fill:#FFFFFF;" d="M78.613,292.063c0-47.678,53.231-104.938,118.895-104.938s118.895,57.26,118.895,104.938"/>
<polygon style="fill:#64798A;" points="203.455,279.853 182.665,279.853 187.945,194.715 198.175,194.715 "/>
<ellipse style="fill:#27A2DB;" cx="193.06" cy="292.413" rx="18.811" ry="20.787"/>
<path style="fill:#FCD462;" d="M384.451,391.061H10.565C4.73,391.061,0,386.331,0,380.496v-77.869  c0-5.835,4.73-10.565,10.565-10.565h373.886c5.835,0,10.565,4.73,10.565,10.565v77.869  C395.015,386.331,390.285,391.061,384.451,391.061z"/>
<path style="fill:#F6C358;" d="M0,340.084v34.635c0,9.025,7.316,16.342,16.342,16.342h362.332c9.025,0,16.342-7.316,16.342-16.342  v-34.635H0z"/>
<g>
	<circle style="fill:#FCD462;" cx="45.711" cy="58.158" r="39.598"/>
	<circle style="fill:#FCD462;" cx="370.022" cy="66.181" r="39.598"/>
	<polygon style="fill:#FCD462;" points="203.835,116.873 145.268,46.597 98.759,110.182 86.737,101.382 144.497,22.408    204.737,94.691 275.305,22.786 328.585,101.615 316.25,109.95 273.166,46.219  "/>
</g>
<g>
</g>
<g>
</g>
<g>
</g>
<g>
</g>
<g>
</g>
<g>
</g>
<g>
</g>
<g>
</g>
<g>
</g>
<g>
</g>
<g>
</g>
<g>
</g>
<g>
</g>
<g>
</g>
<g>
</g>
</svg>
