<?xml version="1.0" encoding="iso-8859-1"?>
<!-- Generator: Adobe Illustrator 19.0.0, SVG Export Plug-In . SVG Version: 6.00 Build 0)  -->
<svg xmlns="http://www.w3.org/2000/svg" xmlns:xlink="http://www.w3.org/1999/xlink" version="1.1" id="Capa_1" x="0px" y="0px" viewBox="0 0 409.6 409.6" style="enable-background:new 0 0 409.6 409.6;" xml:space="preserve">
<path style="fill:#3A556A;" d="M242.839,0h-76.078c-2.988,0-5.409,2.422-5.409,5.409v43.939h86.897V5.409  C248.248,2.422,245.827,0,242.839,0z"/>
<path style="fill:#64798A;" d="M318.029,33.822H91.571c-6.346,0-11.49,5.144-11.49,11.49V398.11c0,6.346,5.144,11.49,11.49,11.49  h226.458c6.346,0,11.49-5.144,11.49-11.49V45.312C329.519,38.966,324.375,33.822,318.029,33.822z"/>
<g>
	<rect x="106.639" y="316.483" style="fill:#44C4A1;" width="196.301" height="69.028"/>
	<rect x="106.639" y="234.158" style="fill:#44C4A1;" width="196.301" height="69.028"/>
	<rect x="106.639" y="151.828" style="fill:#44C4A1;" width="196.301" height="69.028"/>
	<rect x="106.639" y="69.499" style="fill:#44C4A1;" width="196.301" height="69.028"/>
</g>
<g>
	<rect x="106.639" y="122.061" style="fill:#3EA69B;" width="196.301" height="16.466"/>
	<rect x="106.639" y="204.39" style="fill:#3EA69B;" width="196.301" height="16.466"/>
	<rect x="106.639" y="286.72" style="fill:#3EA69B;" width="196.301" height="16.466"/>
	<rect x="106.639" y="369.05" style="fill:#3EA69B;" width="196.301" height="16.466"/>
</g>
<g>
</g>
<g>
</g>
<g>
</g>
<g>
</g>
<g>
</g>
<g>
</g>
<g>
</g>
<g>
</g>
<g>
</g>
<g>
</g>
<g>
</g>
<g>
</g>
<g>
</g>
<g>
</g>
<g>
</g>
</svg>
