<?xml version="1.0" encoding="iso-8859-1"?>
<!-- Generator: Adobe Illustrator 19.0.0, SVG Export Plug-In . SVG Version: 6.00 Build 0)  -->
<svg xmlns="http://www.w3.org/2000/svg" xmlns:xlink="http://www.w3.org/1999/xlink" version="1.1" id="Capa_1" x="0px" y="0px" viewBox="0 0 409.615 409.615" style="enable-background:new 0 0 409.615 409.615;" xml:space="preserve">
<g>
	
		<rect x="273.548" y="358.227" transform="matrix(-0.7071 0.7071 -0.7071 -0.7071 753.0059 458.0338)" style="fill:#F6C358;" width="16.2" height="53.463"/>
	
		<rect x="98.551" y="376.885" transform="matrix(-0.7071 0.7071 -0.7071 -0.7071 486.0964 568.6224)" style="fill:#F6C358;" width="53.463" height="16.2"/>
</g>
<g>
	
		<rect x="101.647" y="100.727" transform="matrix(-0.7071 0.7071 -0.7071 -0.7071 269.599 120.9643)" style="fill:#3A556A;" width="16.2" height="31.181"/>
	
		<rect x="281.498" y="115.529" transform="matrix(-0.7071 0.7071 -0.7071 -0.7071 594.5755 0.9768)" style="fill:#3A556A;" width="31.176" height="16.2"/>
</g>
<circle style="fill:#EBF0F3;" cx="202.247" cy="244.306" r="131.697"/>
<path style="fill:#64798A;" d="M202.233,391.464c-81.147,0-147.16-66.013-147.16-147.157s66.013-147.157,147.16-147.157  c81.141,0,147.154,66.013,147.154,147.157S283.374,391.464,202.233,391.464z M202.233,115.583  c-70.982,0-128.726,57.744-128.726,128.723S131.251,373.03,202.233,373.03c70.976,0,128.72-57.744,128.72-128.723  S273.209,115.583,202.233,115.583z"/>
<g>
	<path style="fill:#2F4859;" d="M184.502,128.42h9.635v26.516h-4.248v-22.529h-5.387V128.42z"/>
	<path style="fill:#2F4859;" d="M211.927,138.775c0.759-1.036,1.139-2.08,1.139-3.148c0-1.06-0.407-1.962-1.214-2.713   c-0.811-0.744-1.835-1.115-3.073-1.115c-2.175,0-3.983,1.115-5.423,3.338l-3.603-2.088c1.163-1.74,2.444-3.061,3.848-3.947   c1.404-0.878,3.212-1.321,5.423-1.321c2.215,0,4.157,0.696,5.822,2.104c1.669,1.4,2.504,3.315,2.504,5.743   c0,1.369-0.352,2.674-1.06,3.908c-0.708,1.242-2.009,2.832-3.908,4.778l-6.222,6.336h12.024v4.288h-18.131v-3.797l8.041-8.077   C209.89,141.243,211.168,139.811,211.927,138.775z"/>
	<path style="fill:#2F4859;" d="M95.176,253.905c2.353,0,4.086-0.799,5.197-2.389c1.111-1.59,1.681-3.742,1.705-6.447   c-0.629,0.704-1.543,1.369-2.729,1.993c-1.191,0.617-2.504,0.926-3.943,0.926c-2.377,0-4.371-0.791-5.976-2.373   c-1.606-1.574-2.409-3.678-2.409-6.297c0-2.618,0.866-4.723,2.599-6.313c1.732-1.59,3.912-2.389,6.542-2.389   c4.252,0,7.183,1.899,8.8,5.688c0.914,2.175,1.369,4.628,1.369,7.357c0,2.737-0.293,5.007-0.874,6.835   c-0.581,1.819-1.38,3.259-2.389,4.319c-1.974,2.073-4.394,3.109-7.266,3.109c-2.868,0-5.466-0.894-7.796-2.69l2.239-3.299   c0.581,0.506,1.361,0.957,2.334,1.361C93.55,253.707,94.416,253.905,95.176,253.905z M95.99,244.04   c1.531,0,2.808-0.419,3.833-1.266c1.024-0.846,1.535-1.946,1.535-3.299s-0.49-2.523-1.479-3.496   c-0.985-0.973-2.219-1.456-3.698-1.456c-1.479,0-2.697,0.435-3.659,1.305c-0.961,0.87-1.444,1.993-1.444,3.362   c0,1.361,0.439,2.516,1.309,3.449C93.261,243.574,94.46,244.04,95.99,244.04z"/>
	<path style="fill:#2F4859;" d="M204.001,339.093c-2.353,0-4.086,0.799-5.197,2.389c-1.111,1.598-1.681,3.742-1.705,6.447   c0.629-0.704,1.539-1.369,2.729-1.986c1.191-0.625,2.504-0.933,3.943-0.933c2.377,0,4.371,0.791,5.976,2.373   c1.606,1.582,2.409,3.678,2.409,6.297c0,2.618-0.866,4.723-2.599,6.313c-1.732,1.598-3.912,2.389-6.542,2.389   c-4.248,0-7.183-1.891-8.8-5.688c-0.91-2.175-1.369-4.628-1.369-7.357c0-2.729,0.293-5.007,0.874-6.827   c0.581-1.819,1.376-3.267,2.389-4.327c1.974-2.073,4.394-3.109,7.266-3.109c2.868,0,5.466,0.894,7.796,2.69l-2.239,3.299   c-0.581-0.498-1.361-0.957-2.334-1.361C205.627,339.299,204.76,339.093,204.001,339.093z M203.186,348.958   c-1.531,0-2.808,0.419-3.833,1.274c-1.024,0.846-1.535,1.946-1.535,3.299s0.49,2.516,1.479,3.489   c0.985,0.973,2.223,1.456,3.718,1.456c1.491,0,2.729-0.435,3.718-1.305c0.985-0.87,1.479-1.986,1.479-3.338s-0.459-2.5-1.369-3.449   C205.935,349.432,204.717,348.958,203.186,348.958z"/>
	<path style="fill:#2F4859;" d="M299.999,241.24v-3.987h15.513v3.489l-6.408,7.175c2.429,0.071,4.327,0.839,5.688,2.294   c1.369,1.456,2.049,3.188,2.049,5.213c0,2.705-0.918,4.833-2.745,6.376c-1.835,1.543-4.193,2.31-7.08,2.31   c-2.879,0-5.703-0.926-8.456-2.769l1.899-3.599c2.175,1.511,4.446,2.27,6.827,2.27c1.543,0,2.816-0.356,3.813-1.076   c0.997-0.72,1.495-1.764,1.495-3.117c0-1.353-0.554-2.429-1.669-3.243c-1.107-0.807-2.65-1.21-4.628-1.21   c-0.981,0-1.93,0.142-2.84,0.419v-3.417l6.139-7.127H299.999z"/>
	<rect x="203.195" y="178.504" style="fill:#2F4859;" width="5.658" height="71.68"/>
	<rect x="148.211" y="247.142" style="fill:#2F4859;" width="52.152" height="6.144"/>
</g>
<rect x="223.084" y="208.701" transform="matrix(-0.751 0.6603 -0.6603 -0.751 572.0367 324.2932)" style="fill:#E56353;" width="3.569" height="122.623"/>
<circle style="fill:#27A2DB;" cx="205.831" cy="250.194" r="9.216"/>
<g>
	<polyline style="fill:#2F4859;" points="186.55,184.651 205.711,165.031 225.491,184.651  "/>
	<polyline style="fill:#2F4859;" points="154.333,269.651 133.965,251.287 152.781,230.741  "/>
</g>
<g>
	<path style="fill:#F6C358;" d="M59.742,154.936c-16.671-20.06-9.523-53.493,15.965-74.675s59.665-22.091,76.335-2.032"/>
	<path style="fill:#F6C358;" d="M349.996,154.936c16.575-20.139,9.268-53.538-16.32-74.598s-59.769-21.807-76.344-1.668"/>
</g>
<g>
	<rect x="195.028" style="fill:#E56353;" width="16.2" height="72.141"/>
	
		<rect x="154.479" y="1.628" transform="matrix(-0.9239 0.3826 -0.3826 -0.9239 328.2281 15.4411)" style="fill:#E56353;" width="16.2" height="77.466"/>
	
		<rect x="208.847" y="32.261" transform="matrix(-0.4317 0.902 -0.902 -0.4317 390.8683 -165.5354)" style="fill:#E56353;" width="77.465" height="16.2"/>
</g>
<g>
</g>
<g>
</g>
<g>
</g>
<g>
</g>
<g>
</g>
<g>
</g>
<g>
</g>
<g>
</g>
<g>
</g>
<g>
</g>
<g>
</g>
<g>
</g>
<g>
</g>
<g>
</g>
<g>
</g>
</svg>
