<?xml version="1.0" encoding="iso-8859-1"?>
<!-- Generator: Adobe Illustrator 19.0.0, SVG Export Plug-In . SVG Version: 6.00 Build 0)  -->
<svg xmlns="http://www.w3.org/2000/svg" xmlns:xlink="http://www.w3.org/1999/xlink" version="1.1" id="Capa_1" x="0px" y="0px" viewBox="0 0 409.6 409.6" style="enable-background:new 0 0 409.6 409.6;" xml:space="preserve">
<rect x="139.878" style="fill:#FCD462;" width="89.928" height="75.914"/>
<rect x="139.878" y="65.889" style="fill:#D5D6DB;" width="89.928" height="10.025"/>
<path style="fill:#44C4A1;" d="M237.531,73.949v242.908c0,12.97-10.514,23.485-23.485,23.485H155.62  c-12.97,0-23.485-10.514-23.485-23.485V73.949H237.531z"/>
<g>
	<rect x="198.4" y="7.731" style="fill:#3A556A;" width="14.321" height="43.72"/>
	<rect x="156.943" y="7.731" style="fill:#3A556A;" width="14.321" height="43.72"/>
</g>
<path style="fill:#3EA69B;" d="M184.833,340.342H155.62c-12.97,0-23.485-10.514-23.485-23.485V73.949h52.698V340.342z"/>
<path style="fill:#44C4A1;" d="M337.154,340.342h-68.377c-10.222,0-18.509-8.287-18.509-18.509v-85.654h105.395v85.654  C355.663,332.055,347.377,340.342,337.154,340.342z"/>
<path style="fill:#3EA69B;" d="M303.284,236.179h-53.016v81.108c0,12.733,10.322,23.054,23.054,23.054h29.962V236.179z"/>
<g>
	<path style="fill:#3A556A;" d="M124.539,397.535l0.269,12.047c-21.419,0.477-41.497-8.754-55.098-25.255   c-12.315-14.97-17.814-34.57-15.09-53.773l11.931,1.693c-2.251,15.865,2.292,32.056,12.466,44.423   C90.232,390.283,106.841,397.929,124.539,397.535z"/>
	<path style="fill:#3A556A;" d="M125.303,371.798l0.269,12.047c-13.771,0.307-26.66-5.624-35.419-16.236   c-7.916-9.622-11.452-22.221-9.701-34.566l11.931,1.693c-1.278,9.007,1.302,18.198,7.076,25.217   C105.825,367.708,115.253,372.022,125.303,371.798z"/>
	<ellipse style="fill:#3A556A;" cx="120.805" cy="342.266" rx="9.236" ry="9.236"/>
</g>
<g>
</g>
<g>
</g>
<g>
</g>
<g>
</g>
<g>
</g>
<g>
</g>
<g>
</g>
<g>
</g>
<g>
</g>
<g>
</g>
<g>
</g>
<g>
</g>
<g>
</g>
<g>
</g>
<g>
</g>
</svg>
