<?xml version="1.0" encoding="iso-8859-1"?>
<!-- Generator: Adobe Illustrator 19.0.0, SVG Export Plug-In . SVG Version: 6.00 Build 0)  -->
<svg xmlns="http://www.w3.org/2000/svg" xmlns:xlink="http://www.w3.org/1999/xlink" version="1.1" id="Capa_1" x="0px" y="0px" viewBox="0 0 409.6 409.6" style="enable-background:new 0 0 409.6 409.6;" xml:space="preserve">
<g>
	<path style="fill:#D5D6DB;" d="M165.163,235.961L165.163,235.961c-8.073,1.389-12.097,12.32-9.348,23.016l9.445,36.745   c1.437,5.59,6.575,9.053,11.593,8.19h0c5.018-0.863,8.704-5.844,8.19-11.593l-3.378-37.789   C180.682,243.531,173.236,234.572,165.163,235.961z"/>
	<path style="fill:#D5D6DB;" d="M235.55,236.998L235.55,236.998c-7.827-2.418-16.365,5.507-18.757,16.288l-8.219,37.039   c-1.25,5.635,1.763,11.049,6.628,12.552h0c4.865,1.503,10.407-1.269,12.552-6.628l14.101-35.222   C245.958,250.774,243.376,239.415,235.55,236.998z"/>
</g>
<rect y="0.627" style="fill:#3A556A;" width="409.6" height="249.513"/>
<rect x="20.838" y="11.891" style="fill:#2D93BA;" width="367.882" height="198.656"/>
<polyline style="fill:#27A2DB;" points="20.859,171.119 20.859,210.545 388.741,11.889 300.031,11.889 "/>
<circle style="fill:#FFFFFF;" cx="204.8" cy="232.957" r="11.976"/>
<g>
	<circle style="fill:#D5D6DB;" cx="204.8" cy="232.957" r="7.368"/>
	<path style="fill:#D5D6DB;" d="M267.83,304.044c0-12.866-31.519-23.296-70.4-23.296s-70.4,10.43-70.4,23.296H267.83z"/>
</g>
<rect y="304.433" style="fill:#3A556A;" width="409.6" height="104.54"/>
<rect x="277.146" y="327.985" style="fill:#E1E6E9;" width="107.878" height="59.392"/>
<g>
	<path style="fill:#DC8744;" d="M388.747,391.079H273.438v-66.836h115.309V391.079z M280.885,383.632h100.415V331.69H280.885   V383.632z"/>
	<rect x="277.146" y="353.943" style="fill:#DC8744;" width="107.878" height="7.45"/>
</g>
<circle style="fill:#EBF0F3;" cx="52.818" cy="356.708" r="30.208"/>
<g>
</g>
<g>
</g>
<g>
</g>
<g>
</g>
<g>
</g>
<g>
</g>
<g>
</g>
<g>
</g>
<g>
</g>
<g>
</g>
<g>
</g>
<g>
</g>
<g>
</g>
<g>
</g>
<g>
</g>
</svg>
