<?xml version="1.0" encoding="iso-8859-1"?>
<!-- Generator: Adobe Illustrator 19.0.0, SVG Export Plug-In . SVG Version: 6.00 Build 0)  -->
<svg xmlns="http://www.w3.org/2000/svg" xmlns:xlink="http://www.w3.org/1999/xlink" version="1.1" id="Capa_1" x="0px" y="0px" viewBox="0 0 409.6 409.6" style="enable-background:new 0 0 409.6 409.6;" xml:space="preserve">
<path style="fill:#D15241;" d="M306.157,13.536c-91.391-39.701-127.813,20.566-127.813,20.566  C74.462,18.21,69.567,106.445,69.567,106.445c-29.884,10.672-60.396,37.101-60.396,68.014c0,40.351,36.039,73.061,80.495,73.061  h230.268c26.196-3.956,80.495-32.711,80.495-73.061c0-30.913-17.614-67.521-47.498-78.193  C352.931,96.266,355.65,35.037,306.157,13.536z"/>
<path style="fill:#E56353;" d="M89.666,247.521c-44.456,0-80.495-32.711-80.495-73.061c0-30.913,30.512-57.342,60.396-68.014  c0,0,4.895-88.235,108.777-72.343c0,0,15.218-25.181,50.663-32.267v245.685H89.666z"/>
<path style="fill:#FFFFFF;" d="M332.783,102.513c-2.949,0-5.546-2.137-6.03-5.146c-6.943-43.325-52.006-61.2-78.247-68.006  c-3.269-0.848-5.23-4.179-4.382-7.451c0.845-3.266,4.164-5.26,7.451-4.382c29.131,7.546,79.202,27.713,87.25,77.904  c0.537,3.331-1.737,6.472-5.069,7.003C333.428,102.489,333.105,102.513,332.783,102.513z"/>
<g>
	<path style="fill:#3A556A;" d="M301.872,355.088l15.454,12.913c-22.959,27.475-56.659,42.585-92.382,41.548   c-32.382-0.972-63.092-15.61-84.257-40.16l15.254-13.149c17.486,20.283,42.856,32.376,69.607,33.178   C255.012,390.278,282.901,377.79,301.872,355.088z"/>
	<path style="fill:#3A556A;" d="M270.328,325.818l15.454,12.913c-14.76,17.665-36.402,27.359-59.388,26.708   c-20.814-0.623-40.555-10.032-54.163-25.815l15.254-13.149c9.928,11.515,24.33,18.379,39.513,18.833   C243.758,345.827,259.557,338.71,270.328,325.818z"/>
	<path style="fill:#3A556A;" d="M253.112,289.835l15.454,12.913c-10.313,12.339-25.435,19.152-41.491,18.66   c-14.544-0.437-28.338-7.011-37.843-18.035l15.25-13.153c5.829,6.76,14.284,10.789,23.197,11.057   C237.555,301.59,246.787,297.401,253.112,289.835z"/>
</g>
<g>
</g>
<g>
</g>
<g>
</g>
<g>
</g>
<g>
</g>
<g>
</g>
<g>
</g>
<g>
</g>
<g>
</g>
<g>
</g>
<g>
</g>
<g>
</g>
<g>
</g>
<g>
</g>
<g>
</g>
</svg>
