<?xml version="1.0" encoding="iso-8859-1"?>
<!-- Generator: Adobe Illustrator 19.0.0, SVG Export Plug-In . SVG Version: 6.00 Build 0)  -->
<svg xmlns="http://www.w3.org/2000/svg" xmlns:xlink="http://www.w3.org/1999/xlink" version="1.1" id="Capa_1" x="0px" y="0px" viewBox="0 0 409.6 409.6" style="enable-background:new 0 0 409.6 409.6;" xml:space="preserve">
<g>
	<path style="fill:#EBF0F3;" d="M357.672,231.591h-15.546c0-75.722-61.603-137.325-137.325-137.325S67.476,155.869,67.476,231.591   H51.93c0-84.295,68.579-152.871,152.871-152.871S357.672,147.296,357.672,231.591z"/>
	<path style="fill:#EBF0F3;" d="M204.801,374.098c-56.107,0-107.614-30.652-134.418-79.998l13.659-7.419   c24.084,44.331,70.355,71.871,120.759,71.871c50.824,0,97.278-27.879,121.232-72.757l13.714,7.318   C313.086,343.066,261.376,374.098,204.801,374.098z"/>
</g>
<path style="fill:#F6C358;" d="M249.915,181.234h-90.23c-3.227,0-5.842-2.616-5.842-5.842V30.129c0-3.207,2.6-5.807,5.807-5.807  h90.3c3.207,0,5.807,2.6,5.807,5.807v145.262C255.757,178.618,253.141,181.234,249.915,181.234z"/>
<path style="fill:#FCD462;" d="M249.915,181.234H204.8V24.322h45.15c3.207,0,5.807,2.6,5.807,5.807v145.262  C255.757,178.618,253.141,181.234,249.915,181.234z"/>
<g>
	<rect x="172.411" y="43.095" style="fill:#DC8744;" width="66.074" height="18.785"/>
	<circle style="fill:#DC8744;" cx="204.8" cy="153.216" r="15.544"/>
</g>
<path style="fill:#E1E6E9;" d="M95.539,385.278H6.376c-3.521,0-6.376-2.854-6.376-6.376V233.693c0-2.942,2.385-5.327,5.327-5.327  h91.26c2.942,0,5.327,2.385,5.327,5.327v145.209C101.914,382.424,99.06,385.278,95.539,385.278z"/>
<path style="fill:#EBF0F3;" d="M95.539,385.278H50.957V228.366h45.63c2.942,0,5.327,2.385,5.327,5.327v145.209  C101.914,382.424,99.06,385.278,95.539,385.278z"/>
<g>
	<rect x="18.57" y="247.142" style="fill:#64798A;" width="66.074" height="18.785"/>
	<circle style="fill:#64798A;" cx="50.959" cy="357.274" r="15.544"/>
</g>
<path style="fill:#3EA69B;" d="M403.598,385.278h-89.91c-3.315,0-6.002-2.687-6.002-6.002V234.813c0-3.561,2.886-6.447,6.447-6.447  h89.02c3.561,0,6.447,2.886,6.447,6.447v144.462C409.6,382.591,406.913,385.278,403.598,385.278z"/>
<path style="fill:#44C4A1;" d="M403.598,385.278h-44.955V228.366h44.51c3.561,0,6.447,2.886,6.447,6.447v144.462  C409.6,382.591,406.913,385.278,403.598,385.278z"/>
<g>
	<rect x="326.246" y="247.142" style="fill:#E1E6E9;" width="66.074" height="18.785"/>
	<circle style="fill:#E1E6E9;" cx="358.656" cy="357.274" r="15.544"/>
</g>
<g>
</g>
<g>
</g>
<g>
</g>
<g>
</g>
<g>
</g>
<g>
</g>
<g>
</g>
<g>
</g>
<g>
</g>
<g>
</g>
<g>
</g>
<g>
</g>
<g>
</g>
<g>
</g>
<g>
</g>
</svg>
