<?xml version="1.0" encoding="iso-8859-1"?>
<!-- Generator: Adobe Illustrator 19.0.0, SVG Export Plug-In . SVG Version: 6.00 Build 0)  -->
<svg xmlns="http://www.w3.org/2000/svg" xmlns:xlink="http://www.w3.org/1999/xlink" version="1.1" id="Capa_1" x="0px" y="0px" viewBox="0 0 409.6 409.6" style="enable-background:new 0 0 409.6 409.6;" xml:space="preserve">
<circle style="fill:#F6C358;" cx="96.829" cy="236.288" r="47.017"/>
<path style="fill:#FCD462;" d="M176.444,367.966c10.855,0,19.097-9.986,16.84-20.603c-9.474-44.571-49.06-78.007-96.455-78.007  S9.848,302.792,0.374,347.363c-2.257,10.617,5.985,20.603,16.84,20.603H176.444z"/>
<path style="fill:#F6C358;" d="M0.374,347.363c9.474-44.571,49.06-78.007,96.455-78.007v98.61H17.214  C6.359,367.966-1.883,357.98,0.374,347.363z"/>
<path style="fill:#FCD462;" d="M96.829,283.31c25.968,0,47.018-21.051,47.018-47.018s-21.051-47.018-47.018-47.018V283.31z"/>
<polygon style="fill:#44C4A1;" points="302.762,381.225 302.762,339.359 215.942,339.359 215.942,299.375 302.762,299.375   302.762,256.097 387.028,318.661 "/>
<polygon style="fill:#3EA69B;" points="215.942,339.359 302.762,339.359 302.762,381.225 387.028,318.661 215.942,318.661 "/>
<circle style="fill:#27A2DB;" cx="312.781" cy="90.936" r="47.017"/>
<path style="fill:#2D93BA;" d="M392.386,222.614c10.855,0,19.097-9.986,16.84-20.603c-9.474-44.571-49.06-78.007-96.455-78.007  s-86.981,33.436-96.455,78.007c-2.257,10.617,5.985,20.603,16.84,20.603H392.386z"/>
<path style="fill:#27A2DB;" d="M216.316,202.011c9.474-44.571,49.06-78.007,96.455-78.007v98.61h-79.615  C222.301,222.614,214.06,212.628,216.316,202.011z"/>
<path style="fill:#2D93BA;" d="M312.771,137.957c25.967,0,47.018-21.051,47.018-47.018s-21.051-47.018-47.018-47.018V137.957z"/>
<polygon style="fill:#E56353;" points="106.838,153.503 106.838,111.637 193.658,111.637 193.658,71.652 106.838,71.652   106.838,28.375 22.572,90.939 "/>
<polygon style="fill:#D15241;" points="193.658,111.637 106.838,111.637 106.838,153.503 22.572,90.939 193.658,90.939 "/>
<g>
</g>
<g>
</g>
<g>
</g>
<g>
</g>
<g>
</g>
<g>
</g>
<g>
</g>
<g>
</g>
<g>
</g>
<g>
</g>
<g>
</g>
<g>
</g>
<g>
</g>
<g>
</g>
<g>
</g>
</svg>
