<?xml version="1.0" encoding="iso-8859-1"?>
<!-- Generator: Adobe Illustrator 19.0.0, SVG Export Plug-In . SVG Version: 6.00 Build 0)  -->
<svg xmlns="http://www.w3.org/2000/svg" xmlns:xlink="http://www.w3.org/1999/xlink" version="1.1" id="Capa_1" x="0px" y="0px" viewBox="0 0 409.6 409.6" style="enable-background:new 0 0 409.6 409.6;" xml:space="preserve">
<path style="fill:#2D93BA;" d="M310.908,29.953c-95.675-41.562-133.805,21.53-133.805,21.53  C68.352,34.846,63.227,127.218,63.227,127.218C31.942,138.39,0,166.058,0,198.421c0,42.242,37.728,76.487,84.268,76.487h241.063  c27.424-4.142,84.268-34.244,84.268-76.487c0-32.362-18.439-70.687-49.725-81.859C359.875,116.562,362.722,52.462,310.908,29.953z"/>
<path style="fill:#27A2DB;" d="M84.268,274.907C37.728,274.907,0,240.663,0,198.421c0-32.362,31.942-60.031,63.227-71.203  c0,0,5.124-92.371,113.876-75.735c0,0,15.931-26.361,53.038-33.779v257.203H84.268z"/>
<polygon style="fill:#2F4859;" points="150.87,302.993 203.917,302.993 203.917,209.415 254.579,209.415 254.579,302.993   309.413,302.993 230.142,393.818 "/>
<polygon style="fill:#3A556A;" points="203.917,209.415 203.917,302.993 150.87,302.993 230.142,393.818 230.142,209.415 "/>
<path style="fill:#FFFFFF;" d="M338.781,123.579c-3.316,0-6.236-2.403-6.779-5.786c-7.222-45.086-54.208-63.72-81.568-70.814  c-3.672-0.953-5.88-4.705-4.927-8.377c0.946-3.672,4.705-5.914,8.377-4.927c30.615,7.934,83.225,29.138,91.69,81.943  c0.604,3.745-1.953,7.276-5.699,7.873C339.506,123.553,339.144,123.579,338.781,123.579z"/>
<g>
</g>
<g>
</g>
<g>
</g>
<g>
</g>
<g>
</g>
<g>
</g>
<g>
</g>
<g>
</g>
<g>
</g>
<g>
</g>
<g>
</g>
<g>
</g>
<g>
</g>
<g>
</g>
<g>
</g>
</svg>
