<?xml version="1.0" encoding="iso-8859-1"?>
<!-- Generator: Adobe Illustrator 19.0.0, SVG Export Plug-In . SVG Version: 6.00 Build 0)  -->
<svg xmlns="http://www.w3.org/2000/svg" xmlns:xlink="http://www.w3.org/1999/xlink" version="1.1" id="Capa_1" x="0px" y="0px" viewBox="0 0 409.6 409.6" style="enable-background:new 0 0 409.6 409.6;" xml:space="preserve">
<rect x="168.888" y="169.523" style="fill:#D15241;" width="62.505" height="19.82"/>
<path style="fill:#E56353;" d="M311.914,11.221c0-3.444-2.792-6.236-6.236-6.236H94.605c-3.444,0-6.236,2.792-6.236,6.236v129.731  h223.545V11.221z"/>
<rect x="100.562" y="17.178" style="fill:#27A2DB;" width="199.158" height="123.75"/>
<path style="fill:#E56353;" d="M88.369,140.952v24.446c0,3.444,2.792,6.236,6.236,6.236h211.073c3.444,0,6.236-2.792,6.236-6.236  v-24.446H88.369z"/>
<circle style="fill:#EBF0F3;" cx="200.141" cy="156.293" r="8.474"/>
<path style="fill:#E56353;" d="M238.976,187.919h-77.668c-7.836,0-14.189,6.353-14.189,14.189v0h106.047v0  C253.165,194.272,246.812,187.919,238.976,187.919z"/>
<rect x="196.71" y="208.154" style="fill:#2F4859;" width="13.184" height="112.533"/>
<g>
	<polygon style="fill:#3A556A;" points="57.32,320.683 44.135,320.683 44.135,257.825 189.055,257.825 189.055,271.01 57.32,271.01     "/>
	<polygon style="fill:#3A556A;" points="369.312,315.147 356.128,315.147 356.128,271.01 221.334,271.01 221.334,257.825    369.312,257.825  "/>
	<rect x="36.557" y="389.837" style="fill:#3A556A;" width="28.37" height="8.996"/>
</g>
<path style="fill:#64798A;" d="M101.459,317.977c0-1.563-1.267-2.83-2.83-2.83H2.83c-1.563,0-2.83,1.267-2.83,2.83v58.88h101.459  V317.977z"/>
<rect x="5.53" y="320.666" style="fill:#D5D6DB;" width="90.388" height="56.177"/>
<path style="fill:#64798A;" d="M0,376.858v11.095c0,1.563,1.267,2.83,2.83,2.83h95.799c1.563,0,2.83-1.267,2.83-2.83v-11.095H0z"/>
<circle style="fill:#EBF0F3;" cx="50.729" cy="383.821" r="3.845"/>
<path style="fill:#64798A;" d="M68.355,398.174H33.104c-3.557,0-6.44,2.883-6.44,6.44v0h48.131v0  C74.795,401.058,71.912,398.174,68.355,398.174z"/>
<rect x="192.968" y="389.837" style="fill:#D5D6DB;" width="28.37" height="8.996"/>
<path style="fill:#EBF0F3;" d="M257.88,317.977c0-1.563-1.267-2.83-2.83-2.83h-95.799c-1.563,0-2.83,1.267-2.83,2.83v58.88H257.88  V317.977z"/>
<rect x="161.956" y="320.666" style="fill:#64798A;" width="90.388" height="56.177"/>
<g>
	<path style="fill:#EBF0F3;" d="M156.42,376.858v11.095c0,1.563,1.267,2.83,2.83,2.83h95.799c1.563,0,2.83-1.267,2.83-2.83v-11.095   H156.42z"/>
	<circle style="fill:#EBF0F3;" cx="207.155" cy="383.821" r="3.845"/>
	<path style="fill:#EBF0F3;" d="M224.776,398.174h-35.251c-3.557,0-6.44,2.883-6.44,6.44v0h48.131v0   C231.216,401.058,228.332,398.174,224.776,398.174z"/>
</g>
<rect x="344.678" y="389.837" style="fill:#F6C358;" width="28.37" height="8.996"/>
<path style="fill:#DC8744;" d="M409.6,317.977c0-1.563-1.267-2.83-2.83-2.83h-95.799c-1.563,0-2.83,1.267-2.83,2.83v58.88H409.6  V317.977z"/>
<rect x="313.651" y="320.666" style="fill:#D5D6DB;" width="90.388" height="56.177"/>
<path style="fill:#DC8744;" d="M308.141,376.858v11.095c0,1.563,1.267,2.83,2.83,2.83h95.799c1.563,0,2.83-1.267,2.83-2.83v-11.095  H308.141z"/>
<circle style="fill:#EBF0F3;" cx="358.861" cy="383.821" r="3.845"/>
<path style="fill:#DC8744;" d="M376.496,398.174h-35.251c-3.557,0-6.44,2.883-6.44,6.44v0h48.131v0  C382.936,401.058,380.053,398.174,376.496,398.174z"/>
<rect x="189.056" y="249.585" style="fill:#D5D6DB;" width="28.493" height="29.665"/>
<path style="fill:#3A556A;" d="M224.141,285.842h-41.678v-42.85h41.678V285.842z M195.648,272.658h15.309v-16.481h-15.309V272.658z"/>
<g>
</g>
<g>
</g>
<g>
</g>
<g>
</g>
<g>
</g>
<g>
</g>
<g>
</g>
<g>
</g>
<g>
</g>
<g>
</g>
<g>
</g>
<g>
</g>
<g>
</g>
<g>
</g>
<g>
</g>
</svg>
