<?xml version="1.0" encoding="iso-8859-1"?>
<!-- Generator: Adobe Illustrator 19.0.0, SVG Export Plug-In . SVG Version: 6.00 Build 0)  -->
<svg xmlns="http://www.w3.org/2000/svg" xmlns:xlink="http://www.w3.org/1999/xlink" version="1.1" id="Capa_1" x="0px" y="0px" viewBox="0 0 409.6 409.6" style="enable-background:new 0 0 409.6 409.6;" xml:space="preserve">
<path style="fill:#2D93BA;" d="M304.247,107.485c0,54.923-44.524,122.83-99.447,122.83s-99.447-67.907-99.447-122.83  S149.877,8.037,204.8,8.037S304.247,52.561,304.247,107.485z"/>
<path style="fill:#1C75A1;" d="M204.8,230.315c54.923,0,99.447-67.907,99.447-122.83S259.723,8.037,204.8,8.037V230.315z"/>
<path style="fill:#2D93BA;" d="M408.808,357.985c-14.683-69.08-63.636-125.38-128.156-150.607  c-18.242,21.52-45.431,35.215-75.851,35.215c-30.421,0-57.612-13.696-75.854-35.215C64.427,232.605,15.475,288.905,0.792,357.985  c-4.774,22.457,12.659,43.577,35.616,43.577h336.783C396.15,401.563,413.582,380.442,408.808,357.985z"/>
<path style="fill:#1C75A1;" d="M204.801,401.563h168.39c22.959,0,40.391-21.12,35.617-43.577  c-14.683-69.08-63.636-125.38-128.156-150.607c-18.242,21.52-45.431,35.215-75.851,35.215V401.563z"/>
<path style="fill:#FCD462;" d="M303.987,100.261h18.847c6.256,0,11.328,5.072,11.328,11.328v49.454  c0,8.375-6.79,15.165-15.165,15.165H212.832v-19.676h101.654v-36.594l-10.968,0.005"/>
<g>
	<path style="fill:#F6C358;" d="M221.61,194.127h-16.85c-5.05,0-9.144-4.094-9.144-9.143v-38.161c0-5.05,4.094-9.144,9.144-9.144   h16.85c5.05,0,9.143,4.094,9.143,9.144v38.161C230.754,190.033,226.66,194.127,221.61,194.127z"/>
	<circle style="fill:#F6C358;" cx="204.8" cy="292.813" r="11.684"/>
	<circle style="fill:#F6C358;" cx="204.8" cy="331.469" r="11.684"/>
	<circle style="fill:#F6C358;" cx="204.8" cy="368.353" r="11.684"/>
</g>
<g>
</g>
<g>
</g>
<g>
</g>
<g>
</g>
<g>
</g>
<g>
</g>
<g>
</g>
<g>
</g>
<g>
</g>
<g>
</g>
<g>
</g>
<g>
</g>
<g>
</g>
<g>
</g>
<g>
</g>
</svg>
