<?xml version="1.0" encoding="iso-8859-1"?>
<!-- Generator: Adobe Illustrator 19.0.0, SVG Export Plug-In . SVG Version: 6.00 Build 0)  -->
<svg xmlns="http://www.w3.org/2000/svg" xmlns:xlink="http://www.w3.org/1999/xlink" version="1.1" id="Capa_1" x="0px" y="0px" viewBox="0 0 409.6 409.6" style="enable-background:new 0 0 409.6 409.6;" xml:space="preserve">
<circle style="fill:#E56353;" cx="328.141" cy="228.413" r="44.646"/>
<path style="fill:#D15241;" d="M395.119,366.695c9.131,0,16.064-9.482,14.166-19.563c-7.97-42.322-41.27-74.071-81.139-74.071  s-73.169,31.749-81.139,74.071c-1.899,10.082,5.035,19.563,14.166,19.563H395.119z"/>
<path style="fill:#E56353;" d="M247.008,347.132c7.97-42.322,41.27-74.071,81.139-74.071v93.634h-66.973  C252.042,366.695,245.109,357.213,247.008,347.132z"/>
<path style="fill:#D15241;" d="M328.146,273.061c24.657,0,44.646-19.989,44.646-44.646s-19.989-44.646-44.646-44.646V273.061z"/>
<circle style="fill:#3EA69B;" cx="81.454" cy="228.413" r="44.646"/>
<path style="fill:#44C4A1;" d="M148.427,366.695c9.131,0,16.064-9.482,14.166-19.563c-7.97-42.322-41.27-74.071-81.139-74.071  S8.285,304.81,0.315,347.132c-1.899,10.082,5.035,19.563,14.166,19.563H148.427z"/>
<path style="fill:#3EA69B;" d="M0.315,347.132c7.97-42.322,41.27-74.071,81.139-74.071v93.634H14.481  C5.35,366.695-1.584,357.213,0.315,347.132z"/>
<path style="fill:#44C4A1;" d="M81.454,273.061c24.657,0,44.646-19.989,44.646-44.646s-19.989-44.646-44.646-44.646V273.061z"/>
<path style="fill:#EBF0F3;" d="M298.882,55.886H179.107c-7.948,0-14.391,6.443-14.391,14.391v58.975  c0,7.948,6.443,14.391,14.391,14.391h68.742l55.203,38.317l-19.484-38.317h15.314c7.948,0,14.392-6.443,14.392-14.391V70.277  C313.274,62.329,306.83,55.886,298.882,55.886z"/>
<path style="fill:#FCD462;" d="M269.981,42.905H115.176c-6.737,0-12.198,5.461-12.198,12.198v61.472  c0,6.737,5.461,12.198,12.198,12.198h17.704l-16.835,33.108l47.699-33.108h106.238c6.737,0,12.198-5.461,12.198-12.198V55.103  C282.179,48.366,276.718,42.905,269.981,42.905z"/>
<g>
	<rect x="123.494" y="52.859" style="fill:#DC8744;" width="138.132" height="15.867"/>
	<rect x="123.494" y="77.926" style="fill:#DC8744;" width="138.132" height="15.867"/>
	<rect x="123.494" y="103.066" style="fill:#DC8744;" width="138.132" height="15.867"/>
</g>
<g>
</g>
<g>
</g>
<g>
</g>
<g>
</g>
<g>
</g>
<g>
</g>
<g>
</g>
<g>
</g>
<g>
</g>
<g>
</g>
<g>
</g>
<g>
</g>
<g>
</g>
<g>
</g>
<g>
</g>
</svg>
