<?xml version="1.0" encoding="iso-8859-1"?>
<!-- Generator: Adobe Illustrator 19.0.0, SVG Export Plug-In . SVG Version: 6.00 Build 0)  -->
<svg xmlns="http://www.w3.org/2000/svg" xmlns:xlink="http://www.w3.org/1999/xlink" version="1.1" id="Capa_1" x="0px" y="0px" viewBox="0 0 409.6 409.6" style="enable-background:new 0 0 409.6 409.6;" xml:space="preserve">
<rect y="111.532" style="fill:#64798A;" width="409.6" height="247.91"/>
<polygon style="fill:#EBF0F3;" points="409.6,111.534 207.612,266.462 42.797,143.47 0,111.534 "/>
<polyline style="fill:#D5D6DB;" points="357.602,91.406 357.602,273.088 45.818,273.088 45.818,50.157 311.992,50.157 "/>
<polygon style="fill:#64798A;" points="218.77,275.095 37.017,139.157 37.017,323.487 373.631,323.487 373.586,139.157 "/>
<g>
	<path style="fill:#2F4859;" d="M243.834,168.184c3.112,0,5.848-2.476,8.208-7.428c2.36-4.956,3.544-11.176,3.544-18.664   c0-16.244-4.672-29.696-14-40.352c-9.336-10.656-21.832-15.988-37.504-15.988c-15.664,0-28.856,5.592-39.568,16.764   c-10.72,11.176-16.072,24.568-16.072,40.18c0,15.612,5.04,28.6,15.12,38.968c10.08,10.368,22.552,15.552,37.416,15.552   c11.632,0,21.888-4.264,30.76-12.788l7.08,12.272c-4.608,4.032-10.48,7.284-17.624,9.764c-7.144,2.476-13.888,3.716-20.216,3.716   c-19.248,0-35.344-6.424-48.304-19.272c-12.96-12.844-19.44-28.916-19.44-48.212s6.824-35.772,20.48-49.424   c13.648-13.652,30.096-20.48,49.336-20.48s35.312,6.568,48.216,19.7c12.896,13.136,19.352,29.496,19.352,49.08   c0,12.676-2.624,22.84-7.864,30.5c-5.24,7.664-12.128,11.492-20.648,11.492c-4.384,0-8.384-1.32-12.016-3.972   c-3.624-2.652-6.128-5.992-7.512-10.024c-6.336,8.18-14.376,12.268-24.112,12.268s-18.2-3.684-25.4-11.06   c-7.2-7.372-10.8-16.732-10.8-28.08c0-11.348,3.256-20.912,9.76-28.688c6.512-7.776,15.064-11.664,25.664-11.664   c3.568,0,6.968,0.776,10.2,2.332c3.224,1.556,5.528,3.084,6.912,4.58l2.248,2.248v-7.088h21.6v55.128   C238.65,165.308,240.378,168.184,243.834,168.184z M217.218,142.092c0-5.76-1.528-10.544-4.576-14.344   c-3.056-3.804-7.064-5.704-12.016-5.704c-4.952,0-8.896,1.9-11.832,5.704c-2.936,3.8-4.408,8.496-4.408,14.084   c0,5.588,1.472,10.456,4.408,14.6c2.936,4.148,6.936,6.224,12.008,6.224s9.072-1.988,12.008-5.964   C215.754,152.721,217.218,147.852,217.218,142.092z"/>
	<polygon style="fill:#2F4859;" points="311.992,50.157 357.602,91.406 311.992,91.406  "/>
</g>
<g>
	<polygon style="fill:#3A556A;" points="0,359.419 0,351.252 144.238,219.35 151.418,224.528  "/>
	<polygon style="fill:#3A556A;" points="409.6,359.419 284.077,217.751 291.03,211.646 409.6,349.716  "/>
</g>
<g>
</g>
<g>
</g>
<g>
</g>
<g>
</g>
<g>
</g>
<g>
</g>
<g>
</g>
<g>
</g>
<g>
</g>
<g>
</g>
<g>
</g>
<g>
</g>
<g>
</g>
<g>
</g>
<g>
</g>
</svg>
