<?xml version="1.0" encoding="iso-8859-1"?>
<!-- Generator: Adobe Illustrator 19.0.0, SVG Export Plug-In . SVG Version: 6.00 Build 0)  -->
<svg xmlns="http://www.w3.org/2000/svg" xmlns:xlink="http://www.w3.org/1999/xlink" version="1.1" id="Capa_1" x="0px" y="0px" viewBox="0 0 409.6 409.6" style="enable-background:new 0 0 409.6 409.6;" xml:space="preserve">
<path style="fill:#2F4859;" d="M331.246,409.6H180.002c-11.163,0-20.213-9.05-20.213-20.213V20.213  C159.789,9.05,168.838,0,180.002,0h151.244c11.163,0,20.213,9.05,20.213,20.213v369.174C351.458,400.55,342.409,409.6,331.246,409.6  z"/>
<path style="fill:#64798A;" d="M347.014,215.271h-182.19c-2.703,0-4.895-2.191-4.895-4.895V18.83c0-10.4,8.431-18.83,18.83-18.83  h153.719c10.4,0,18.83,8.431,18.83,18.83v192.146C351.309,213.348,349.386,215.271,347.014,215.271z"/>
<rect x="176.077" y="24.084" style="fill:#D5D6DB;" width="155.29" height="175.565"/>
<g>
	<path style="fill:#64798A;" d="M208.911,285.359h-21.193c-1.831,0-3.315,1.713-3.315,3.825v9.891c0,2.113,1.484,3.825,3.315,3.825   h21.193c1.831,0,3.315-1.712,3.315-3.825v-9.891C212.226,287.071,210.742,285.359,208.911,285.359z"/>
	<path style="fill:#64798A;" d="M265.259,285.359h-21.193c-1.83,0-3.315,1.713-3.315,3.825v9.891c0,2.113,1.484,3.825,3.315,3.825   h21.193c1.83,0,3.315-1.712,3.315-3.825v-9.891C268.573,287.071,267.089,285.359,265.259,285.359z"/>
	<path style="fill:#64798A;" d="M321.606,285.359h-21.193c-1.831,0-3.315,1.713-3.315,3.825v9.891c0,2.113,1.484,3.825,3.315,3.825   h21.193c1.831,0,3.315-1.712,3.315-3.825v-9.891C324.921,287.071,323.437,285.359,321.606,285.359z"/>
	<path style="fill:#64798A;" d="M208.911,316.542h-21.193c-1.831,0-3.315,1.713-3.315,3.825v9.89c0,2.113,1.484,3.825,3.315,3.825   h21.193c1.831,0,3.315-1.712,3.315-3.825v-9.89C212.226,318.255,210.742,316.542,208.911,316.542z"/>
	<path style="fill:#64798A;" d="M265.259,316.542h-21.193c-1.83,0-3.315,1.713-3.315,3.825v9.89c0,2.113,1.484,3.825,3.315,3.825   h21.193c1.83,0,3.315-1.712,3.315-3.825v-9.89C268.573,318.255,267.089,316.542,265.259,316.542z"/>
	<path style="fill:#64798A;" d="M321.606,316.542h-21.193c-1.831,0-3.315,1.713-3.315,3.825v9.89c0,2.113,1.484,3.825,3.315,3.825   h21.193c1.831,0,3.315-1.712,3.315-3.825v-9.89C324.921,318.255,323.437,316.542,321.606,316.542z"/>
	<path style="fill:#64798A;" d="M208.911,347.726h-21.193c-1.831,0-3.315,1.713-3.315,3.825v9.89c0,2.113,1.484,3.825,3.315,3.825   h21.193c1.831,0,3.315-1.713,3.315-3.825v-9.89C212.226,349.438,210.742,347.726,208.911,347.726z"/>
	<path style="fill:#64798A;" d="M265.259,347.726h-21.193c-1.83,0-3.315,1.713-3.315,3.825v9.89c0,2.113,1.484,3.825,3.315,3.825   h21.193c1.83,0,3.315-1.713,3.315-3.825v-9.89C268.573,349.438,267.089,347.726,265.259,347.726z"/>
	<path style="fill:#64798A;" d="M321.606,347.726h-21.193c-1.831,0-3.315,1.713-3.315,3.825v9.89c0,2.113,1.484,3.825,3.315,3.825   h21.193c1.831,0,3.315-1.713,3.315-3.825v-9.89C324.921,349.438,323.437,347.726,321.606,347.726z"/>
</g>
<path style="fill:#E56353;" d="M208.911,378.909h-21.193c-1.831,0-3.315,1.713-3.315,3.825v9.89c0,2.113,1.484,3.825,3.315,3.825  h21.193c1.831,0,3.315-1.713,3.315-3.825v-9.89C212.226,380.622,210.742,378.909,208.911,378.909z"/>
<path style="fill:#64798A;" d="M265.259,378.909h-21.193c-1.83,0-3.315,1.713-3.315,3.825v9.89c0,2.113,1.484,3.825,3.315,3.825  h21.193c1.83,0,3.315-1.713,3.315-3.825v-9.89C268.573,380.622,267.089,378.909,265.259,378.909z"/>
<path style="fill:#3EA69B;" d="M321.606,378.397h-21.193c-1.831,0-3.315,1.713-3.315,3.825v9.89c0,2.113,1.484,3.825,3.315,3.825  h21.193c1.831,0,3.315-1.713,3.315-3.825v-9.89C324.921,380.11,323.437,378.397,321.606,378.397z"/>
<g>
	<path style="fill:#64798A;" d="M267.543,272.066h-22.814c-5.066,0-9.173-4.107-9.173-9.173V231.38c0-5.066,4.107-9.173,9.173-9.173   h22.814c5.066,0,9.173,4.107,9.173,9.173v31.513C276.716,267.959,272.609,272.066,267.543,272.066z"/>
	<path style="fill:#64798A;" d="M208.911,226.302h-21.193c-1.831,0-3.315,1.713-3.315,3.825v9.891c0,2.113,1.484,3.825,3.315,3.825   h21.193c1.831,0,3.315-1.712,3.315-3.825v-9.891C212.226,228.015,210.742,226.302,208.911,226.302z"/>
</g>
<path style="fill:#44C4A1;" d="M208.911,254.59h-21.193c-1.831,0-3.315,1.713-3.315,3.825v9.89c0,2.113,1.484,3.825,3.315,3.825  h21.193c1.831,0,3.315-1.712,3.315-3.825v-9.89C212.226,256.303,210.742,254.59,208.911,254.59z"/>
<path style="fill:#64798A;" d="M321.606,227.58h-21.193c-1.831,0-3.315,1.713-3.315,3.825v9.891c0,2.113,1.484,3.825,3.315,3.825  h21.193c1.831,0,3.315-1.712,3.315-3.825v-9.891C324.921,229.293,323.437,227.58,321.606,227.58z"/>
<path style="fill:#CE412D;" d="M321.606,255.868h-21.193c-1.831,0-3.315,1.713-3.315,3.825v9.89c0,2.113,1.484,3.825,3.315,3.825  h21.193c1.831,0,3.315-1.712,3.315-3.825v-9.89C324.921,257.58,323.437,255.868,321.606,255.868z"/>
<rect x="222.259" y="11.346" style="fill:#FCD462;" width="63.887" height="5.76"/>
<polygon style="fill:#F6C358;" points="144.539,48.423 144.539,88.047 225.416,88.047 225.416,125.889 144.539,125.889   144.539,166.848 58.142,107.636 "/>
<polygon style="fill:#FCD462;" points="225.416,88.047 144.539,88.047 144.539,48.423 58.142,107.636 225.416,107.636 "/>
<g>
	<path style="fill:#D15241;" d="M144.297,105.83v3.611c0,2.185-1.787,3.972-3.972,3.972h-13.516c-2.185,0-3.972-1.788-3.972-3.972   v-3.611c0-2.185,1.788-3.972,3.972-3.972h13.516C142.51,101.858,144.297,103.645,144.297,105.83z"/>
	<path style="fill:#D15241;" d="M180.064,105.83v3.611c0,2.185-1.787,3.972-3.972,3.972h-13.516c-2.185,0-3.972-1.788-3.972-3.972   v-3.611c0-2.185,1.788-3.972,3.972-3.972h13.516C178.277,101.858,180.064,103.645,180.064,105.83z"/>
	<path style="fill:#D15241;" d="M214.181,105.83v3.611c0,2.185-1.788,3.972-3.972,3.972h-13.516c-2.185,0-3.972-1.788-3.972-3.972   v-3.611c0-2.185,1.788-3.972,3.972-3.972h13.516C212.393,101.858,214.181,103.645,214.181,105.83z"/>
</g>
<g>
</g>
<g>
</g>
<g>
</g>
<g>
</g>
<g>
</g>
<g>
</g>
<g>
</g>
<g>
</g>
<g>
</g>
<g>
</g>
<g>
</g>
<g>
</g>
<g>
</g>
<g>
</g>
<g>
</g>
</svg>
