<?xml version="1.0" encoding="iso-8859-1"?>
<!-- Generator: Adobe Illustrator 19.0.0, SVG Export Plug-In . SVG Version: 6.00 Build 0)  -->
<svg xmlns="http://www.w3.org/2000/svg" xmlns:xlink="http://www.w3.org/1999/xlink" version="1.1" id="Capa_1" x="0px" y="0px" viewBox="0 0 409.6 409.6" style="enable-background:new 0 0 409.6 409.6;" xml:space="preserve">
<path style="fill:#3A556A;" d="M277.184,76.756H132.388c-6.695,0-12.123,5.427-12.123,12.122v231.843  c0,6.695,5.427,12.122,12.123,12.122h144.795c6.695,0,12.123-5.427,12.123-12.122V88.878  C289.306,82.183,283.879,76.756,277.184,76.756z"/>
<path style="fill:#D5D6DB;" d="M267.366,100.444H142.204c-3.481,0-6.303,2.822-6.303,6.303v196.105c0,3.481,2.822,6.303,6.303,6.303  h125.162c3.481,0,6.304-2.822,6.304-6.303V106.748C273.67,103.267,270.847,100.444,267.366,100.444z"/>
<ellipse style="fill:#FFFFFF;" cx="199.834" cy="320.819" rx="7.48" ry="7.424"/>
<ellipse style="fill:#EBF0F3;" cx="199.834" cy="320.819" rx="5.74" ry="5.693"/>
<path style="fill:#D5D6DB;" d="M200.649,324.423h-1.604c-1.523,0-2.765-1.241-2.765-2.765v-1.637c0-1.523,1.241-2.765,2.765-2.765  h1.604c1.523,0,2.765,1.241,2.765,2.765v1.637C203.414,323.182,202.172,324.423,200.649,324.423z M199.044,318.18  c-1.017,0-1.841,0.825-1.841,1.841v1.637c0,1.017,0.825,1.841,1.841,1.841h1.604c1.017,0,1.841-0.825,1.841-1.841v-1.637  c0-1.017-0.825-1.841-1.841-1.841H199.044z"/>
<path style="fill:#FFFFFF;" d="M224.115,92.147h-38.659c-0.638,0-1.155-0.517-1.155-1.155v-1.05c0-0.638,0.517-1.155,1.155-1.155  h38.659c0.638,0,1.155,0.517,1.155,1.155v1.05C225.27,91.629,224.753,92.147,224.115,92.147z"/>
<g>
	<path style="fill:#EBF0F3;" d="M43.685,263.193l-10.349,12.385C11.319,257.179-0.791,230.173,0.04,201.545   c0.779-25.95,12.509-50.561,32.184-67.522l10.538,12.224c-16.254,14.013-25.945,34.344-26.588,55.782   C15.484,225.64,25.492,247.99,43.685,263.193z"/>
	<path style="fill:#EBF0F3;" d="M67.142,237.914l-10.349,12.385c-14.156-11.828-21.925-29.172-21.403-47.593   c0.5-16.68,8.04-32.5,20.688-43.405l10.538,12.224c-9.228,7.956-14.728,19.498-15.093,31.665   C51.107,216.622,56.81,229.282,67.142,237.914z"/>
	<path style="fill:#EBF0F3;" d="M95.978,224.117l-10.349,12.385c-9.888-8.265-15.348-20.383-14.954-33.251   c0.35-11.655,5.619-22.71,14.453-30.327l10.541,12.221c-5.417,4.671-8.646,11.447-8.861,18.59   C86.557,211.651,89.914,219.049,95.978,224.117z"/>
	<path style="fill:#EBF0F3;" d="M365.915,263.106l10.349,12.385c22.018-18.399,34.127-45.405,33.296-74.033   c-0.779-25.95-12.509-50.561-32.184-67.522l-10.538,12.224c16.254,14.013,25.945,34.344,26.588,55.782   C394.116,225.553,384.108,247.904,365.915,263.106z"/>
	<path style="fill:#EBF0F3;" d="M342.458,237.828l10.349,12.385c14.156-11.828,21.925-29.172,21.403-47.593   c-0.5-16.68-8.04-32.5-20.688-43.405l-10.538,12.224c9.228,7.956,14.728,19.498,15.093,31.665   C358.493,216.535,352.79,229.196,342.458,237.828z"/>
	<path style="fill:#EBF0F3;" d="M313.622,224.031l10.349,12.385c9.888-8.265,15.348-20.383,14.954-33.251   c-0.35-11.655-5.619-22.71-14.453-30.327l-10.541,12.221c5.417,4.672,8.646,11.447,8.861,18.59   C323.043,211.564,319.686,218.962,313.622,224.031z"/>
</g>
<g>
</g>
<g>
</g>
<g>
</g>
<g>
</g>
<g>
</g>
<g>
</g>
<g>
</g>
<g>
</g>
<g>
</g>
<g>
</g>
<g>
</g>
<g>
</g>
<g>
</g>
<g>
</g>
<g>
</g>
</svg>
