<?xml version="1.0" encoding="iso-8859-1"?>
<!-- Generator: Adobe Illustrator 19.0.0, SVG Export Plug-In . SVG Version: 6.00 Build 0)  -->
<svg xmlns="http://www.w3.org/2000/svg" xmlns:xlink="http://www.w3.org/1999/xlink" version="1.1" id="Capa_1" x="0px" y="0px" viewBox="0 0 409.6 409.6" style="enable-background:new 0 0 409.6 409.6;" xml:space="preserve">
<path style="fill:#1C75A1;" d="M391.674,347.009H104.63c-28.264,0-51.26-22.995-51.26-51.263c0-28.261,22.995-51.256,51.26-51.256  h5.224V43.296h-85.78c-9.901,0-17.926-8.025-17.926-17.926S14.172,7.445,24.073,7.445h86.579c19.33,0,35.053,15.727,35.053,35.06  v237.836H104.63c-8.497,0-15.408,6.911-15.408,15.405c0,8.501,6.911,15.412,15.408,15.412h287.044  c9.901,0,17.926,8.025,17.926,17.926S401.575,347.009,391.674,347.009z M110.652,43.296h0.07H110.652z"/>
<path style="fill:#DC8744;" d="M227.164,305.934h94.285c13.407,0,24.851-9.688,27.064-22.91l31.351-187.279H168.749l31.351,187.279  C202.313,296.246,213.757,305.934,227.164,305.934z"/>
<path style="fill:#CE412D;" d="M12.238,43.707H98.15V7.018H12.238C5.479,7.018,0,12.883,0,20.118v10.491  C0,37.843,5.479,43.707,12.238,43.707z"/>
<g>
	<circle style="fill:#3A556A;" cx="166.042" cy="372.952" r="29.629"/>
	<circle style="fill:#3A556A;" cx="303.923" cy="372.952" r="29.629"/>
</g>
<g>
</g>
<g>
</g>
<g>
</g>
<g>
</g>
<g>
</g>
<g>
</g>
<g>
</g>
<g>
</g>
<g>
</g>
<g>
</g>
<g>
</g>
<g>
</g>
<g>
</g>
<g>
</g>
<g>
</g>
</svg>
