<?xml version="1.0" encoding="iso-8859-1"?>
<!-- Generator: Adobe Illustrator 19.0.0, SVG Export Plug-In . SVG Version: 6.00 Build 0)  -->
<svg xmlns="http://www.w3.org/2000/svg" xmlns:xlink="http://www.w3.org/1999/xlink" version="1.1" id="Capa_1" x="0px" y="0px" viewBox="0 0 409.605 409.605" style="enable-background:new 0 0 409.605 409.605;" xml:space="preserve">
<g>
	<polygon style="fill:#EBF0F3;" points="101.229,224.492 83.588,224.492 83.588,94.502 220.512,94.502 220.512,112.143    101.229,112.143  "/>
	<polygon style="fill:#EBF0F3;" points="326.782,326.948 196.794,326.948 196.794,309.307 309.141,309.307 309.141,190.024    326.782,190.024  "/>
</g>
<rect x="189.087" y="12.915" style="fill:#27A2DB;" width="220.518" height="182.287"/>
<rect x="189.087" y="103.324" style="fill:#2D93BA;" width="220.518" height="91.878"/>
<rect x="220.518" y="40.845" style="fill:#D5D6DB;" width="159.334" height="125.691"/>
<rect x="235.397" y="52.59" style="fill:#3A556A;" width="129.551" height="51.507"/>
<rect x="255.242" y="104.092" style="fill:#2F4859;" width="86.548" height="23.869"/>
<rect x="273.971" y="127.946" style="fill:#3A556A;" width="51.82" height="13.399"/>
<g>
	<rect x="342.963" y="58.99" style="fill:#F6C358;" width="9.098" height="32.799"/>
	<rect x="327.255" y="58.99" style="fill:#F6C358;" width="9.098" height="32.799"/>
	<rect x="312.371" y="58.99" style="fill:#F6C358;" width="9.098" height="32.799"/>
	<rect x="297.472" y="58.99" style="fill:#F6C358;" width="9.098" height="32.799"/>
	<rect x="281.498" y="58.99" style="fill:#F6C358;" width="9.098" height="32.799"/>
	<rect x="264.96" y="58.99" style="fill:#F6C358;" width="9.098" height="32.799"/>
	<rect x="248.269" y="58.99" style="fill:#F6C358;" width="9.098" height="32.799"/>
</g>
<rect y="214.403" style="fill:#27A2DB;" width="220.518" height="182.287"/>
<rect y="304.796" style="fill:#2D93BA;" width="220.518" height="91.878"/>
<rect x="31.437" y="242.332" style="fill:#D5D6DB;" width="159.334" height="125.691"/>
<rect x="46.285" y="254.057" style="fill:#3A556A;" width="129.551" height="51.507"/>
<rect x="66.156" y="305.564" style="fill:#2F4859;" width="86.548" height="23.869"/>
<rect x="84.895" y="329.423" style="fill:#3A556A;" width="51.82" height="13.399"/>
<g>
	<rect x="153.856" y="260.477" style="fill:#F6C358;" width="9.098" height="32.799"/>
	<rect x="138.163" y="260.477" style="fill:#F6C358;" width="9.098" height="32.799"/>
	<rect x="123.29" y="260.477" style="fill:#F6C358;" width="9.098" height="32.799"/>
	<rect x="108.39" y="260.477" style="fill:#F6C358;" width="9.098" height="32.799"/>
	<rect x="92.416" y="260.477" style="fill:#F6C358;" width="9.098" height="32.799"/>
	<rect x="75.868" y="260.477" style="fill:#F6C358;" width="9.098" height="32.799"/>
	<rect x="59.192" y="260.477" style="fill:#F6C358;" width="9.098" height="32.799"/>
</g>
<g>
</g>
<g>
</g>
<g>
</g>
<g>
</g>
<g>
</g>
<g>
</g>
<g>
</g>
<g>
</g>
<g>
</g>
<g>
</g>
<g>
</g>
<g>
</g>
<g>
</g>
<g>
</g>
<g>
</g>
</svg>
