<?xml version="1.0" encoding="iso-8859-1"?>
<!-- Generator: Adobe Illustrator 19.0.0, SVG Export Plug-In . SVG Version: 6.00 Build 0)  -->
<svg xmlns="http://www.w3.org/2000/svg" xmlns:xlink="http://www.w3.org/1999/xlink" version="1.1" id="Capa_1" x="0px" y="0px" viewBox="0 0 409.602 409.602" style="enable-background:new 0 0 409.602 409.602;" xml:space="preserve">
<g>
	
		<rect x="30.372" y="195.941" transform="matrix(-0.6995 0.7146 -0.7146 -0.6995 373.4516 256.1407)" style="fill:#64798A;" width="205.006" height="21.289"/>
	
		<rect x="277.002" y="109.633" transform="matrix(-0.7403 0.6723 -0.6723 -0.7403 643.2036 175.7852)" style="fill:#64798A;" width="21.289" height="205.005"/>
	<rect x="198.73" y="111.476" style="fill:#64798A;" width="21.274" height="205.67"/>
</g>
<circle style="fill:#EBF0F3;" cx="213.511" cy="111.963" r="76.616"/>
<ellipse style="fill:#FCD462;" cx="57.127" cy="278.878" rx="57.114" ry="57.114"/>
<ellipse style="fill:#3EA69B;" cx="352.466" cy="288.818" rx="57.114" ry="57.114"/>
<path style="fill:#E1E6E9;" d="M290.126,111.96c0,42.314-34.303,76.617-76.617,76.617s-76.617-34.303-76.617-76.617H290.126z"/>
<path style="fill:#F6C358;" d="M112.716,292.02c-7.247,30.7-38.01,49.711-68.709,42.464c-30.7-7.247-49.711-38.01-42.464-68.709  L112.716,292.02z"/>
<path style="fill:#31978C;" d="M408.513,277.762c6.099,30.948-14.046,60.981-44.994,67.08c-30.948,6.099-60.981-14.046-67.08-44.994  L408.513,277.762z"/>
<ellipse style="fill:#2F4859;" cx="209.366" cy="317.141" rx="57.113" ry="57.113"/>
<path style="fill:#3A556A;" d="M266.473,316.298c0.464,31.54-24.728,57.485-56.268,57.949s-57.485-24.728-57.949-56.268  L266.473,316.298z"/>
<g>
</g>
<g>
</g>
<g>
</g>
<g>
</g>
<g>
</g>
<g>
</g>
<g>
</g>
<g>
</g>
<g>
</g>
<g>
</g>
<g>
</g>
<g>
</g>
<g>
</g>
<g>
</g>
<g>
</g>
</svg>
