<?xml version="1.0" encoding="iso-8859-1"?>
<!-- Generator: Adobe Illustrator 19.0.0, SVG Export Plug-In . SVG Version: 6.00 Build 0)  -->
<svg xmlns="http://www.w3.org/2000/svg" xmlns:xlink="http://www.w3.org/1999/xlink" version="1.1" id="Capa_1" x="0px" y="0px" viewBox="0 0 409.6 409.6" style="enable-background:new 0 0 409.6 409.6;" xml:space="preserve">
<g>
	<rect x="198.207" y="308.838" style="fill:#EBF0F3;" width="21.094" height="65.044"/>
	<rect x="126.148" y="377.446" style="fill:#EBF0F3;" width="42.189" height="21.094"/>
	<rect x="52.619" y="377.446" style="fill:#EBF0F3;" width="42.189" height="21.094"/>
	<rect x="254.439" y="377.446" style="fill:#EBF0F3;" width="42.189" height="21.094"/>
	<rect x="314.779" y="377.446" style="fill:#EBF0F3;" width="42.189" height="21.094"/>
</g>
<path style="fill:#DC8744;" d="M245.801,409.6h-68.822c-4.772,0-8.64-3.868-8.64-8.64v-25.951c0-4.772,3.868-8.64,8.64-8.64h68.822  c4.772,0,8.64,3.868,8.64,8.64v25.951C254.441,405.732,250.573,409.6,245.801,409.6z"/>
<path style="fill:#3EA69B;" d="M346.688,94.339H76.091c-5.684,0-10.292-4.608-10.292-10.292V10.292C65.799,4.608,70.407,0,76.091,0  h270.597c5.684,0,10.292,4.608,10.292,10.292v73.754C356.981,89.731,352.373,94.339,346.688,94.339z"/>
<path style="fill:#44C4A1;" d="M208.752,94.339H71.903c-3.371,0-6.104-2.733-6.104-6.104V6.104C65.799,2.733,68.532,0,71.903,0  h136.849V94.339z"/>
<g>
	<circle style="fill:#D5D6DB;" cx="115.503" cy="47.171" r="29.706"/>
	<circle style="fill:#D5D6DB;" cx="309.249" cy="47.171" r="29.706"/>
</g>
<path style="fill:#F6C358;" d="M346.688,206.905H76.091c-5.684,0-10.292-4.608-10.292-10.292v-73.754  c0-5.684,4.608-10.292,10.292-10.292h270.597c5.684,0,10.292,4.608,10.292,10.292v73.754  C356.981,202.297,352.373,206.905,346.688,206.905z"/>
<path style="fill:#FCD462;" d="M208.752,206.905H71.903c-3.371,0-6.104-2.733-6.104-6.104v-82.13c0-3.371,2.733-6.104,6.104-6.104  h136.849V206.905z"/>
<g>
	<circle style="fill:#D5D6DB;" cx="115.503" cy="159.744" r="29.706"/>
	<circle style="fill:#D5D6DB;" cx="309.249" cy="159.744" r="29.706"/>
</g>
<path style="fill:#D15241;" d="M346.688,319.815H76.091c-5.684,0-10.292-4.608-10.292-10.292v-73.754  c0-5.684,4.608-10.292,10.292-10.292h270.597c5.684,0,10.292,4.608,10.292,10.292v73.754  C356.981,315.207,352.373,319.815,346.688,319.815z"/>
<path style="fill:#E56353;" d="M208.752,319.815H71.903c-3.371,0-6.104-2.733-6.104-6.104v-82.13c0-3.371,2.733-6.104,6.104-6.104  h136.849V319.815z"/>
<g>
	<circle style="fill:#D5D6DB;" cx="115.503" cy="272.64" r="29.706"/>
	<circle style="fill:#D5D6DB;" cx="309.249" cy="272.64" r="29.706"/>
</g>
<g>
</g>
<g>
</g>
<g>
</g>
<g>
</g>
<g>
</g>
<g>
</g>
<g>
</g>
<g>
</g>
<g>
</g>
<g>
</g>
<g>
</g>
<g>
</g>
<g>
</g>
<g>
</g>
<g>
</g>
</svg>
