<?xml version="1.0" encoding="iso-8859-1"?>
<!-- Generator: Adobe Illustrator 19.0.0, SVG Export Plug-In . SVG Version: 6.00 Build 0)  -->
<svg xmlns="http://www.w3.org/2000/svg" xmlns:xlink="http://www.w3.org/1999/xlink" version="1.1" id="Capa_1" x="0px" y="0px" viewBox="0 0 409.593 409.593" style="enable-background:new 0 0 409.593 409.593;" xml:space="preserve">
<rect x="19.751" y="363.647" transform="matrix(-0.734 -0.6792 0.6792 -0.734 -200.1344 689.9138)" style="fill:#2F4859;" width="30.597" height="41.011"/>
<path style="fill:#E56353;" d="M47.934,383.308l-14.451-13.14c-12.024-10.934-14.966-28.621-6.138-40.069L221.415,79.672  c26.079-33.777,67.783-46.889,90.672-26.076l27.508,25.012c22.889,20.812,13.791,63.572-17.361,92.736L88.335,385.555  C77.816,395.465,59.959,394.241,47.934,383.308z"/>
<ellipse style="fill:#64798A;" cx="304.001" cy="95.699" rx="95.698" ry="95.698"/>
<path style="fill:#E1E6E9;" d="M378.162,155.977c-50.075-35.912-94.555-81.479-132.831-135.77  c-3.808,2.964-7.446,6.227-10.857,9.839c38.597,54.435,83.389,100.235,133.716,136.6c2.275-2.064,4.484-4.234,6.594-6.554  C375.992,158.764,377.043,157.353,378.162,155.977z"/>
<g>
</g>
<g>
</g>
<g>
</g>
<g>
</g>
<g>
</g>
<g>
</g>
<g>
</g>
<g>
</g>
<g>
</g>
<g>
</g>
<g>
</g>
<g>
</g>
<g>
</g>
<g>
</g>
<g>
</g>
</svg>
