<?xml version="1.0" encoding="iso-8859-1"?>
<!-- Generator: Adobe Illustrator 19.0.0, SVG Export Plug-In . SVG Version: 6.00 Build 0)  -->
<svg xmlns="http://www.w3.org/2000/svg" xmlns:xlink="http://www.w3.org/1999/xlink" version="1.1" id="Capa_1" x="0px" y="0px" viewBox="0 0 409.6 409.6" style="enable-background:new 0 0 409.6 409.6;" xml:space="preserve">
<circle style="fill:#F6C358;" cx="74.624" cy="257.843" r="36.234"/>
<path style="fill:#FCD462;" d="M135.978,359.329c8.365,0,14.717-7.695,12.978-15.878c-7.301-34.349-37.808-60.117-74.334-60.117  S7.59,309.102,0.288,343.451c-1.739,8.182,4.612,15.878,12.978,15.878H135.978z"/>
<path style="fill:#F6C358;" d="M0.288,343.451c7.301-34.349,37.808-60.117,74.334-60.117v75.995H13.266  C4.901,359.329-1.451,351.633,0.288,343.451z"/>
<path style="fill:#FCD462;" d="M74.622,294.088c20.012,0,36.235-16.223,36.235-36.235s-16.223-36.235-36.235-36.235V294.088z"/>
<circle style="fill:#27A2DB;" cx="335.002" cy="86.508" r="36.234"/>
<path style="fill:#2D93BA;" d="M396.334,187.982c8.365,0,14.717-7.695,12.978-15.878c-7.301-34.349-37.808-60.117-74.334-60.117  c-36.525,0-67.032,25.768-74.334,60.117c-1.739,8.182,4.612,15.878,12.978,15.878H396.334z"/>
<path style="fill:#27A2DB;" d="M260.644,172.105c7.301-34.349,37.808-60.117,74.334-60.117v75.995h-61.356  C265.257,187.982,258.905,180.287,260.644,172.105z"/>
<path style="fill:#2D93BA;" d="M334.978,122.741c20.012,0,36.235-16.223,36.235-36.235s-16.223-36.235-36.235-36.235V122.741z"/>
<path style="fill:#3A556A;" d="M295.85,295.753H168.872v-14.832H295.85c17.488,0,31.712-14.224,31.712-31.712  s-14.224-31.712-31.712-31.712H131.786c-28.168,0-51.088-22.915-51.088-51.083s22.92-51.088,51.088-51.088h116.192v14.832H131.786  c-19.989,0-36.255,16.266-36.255,36.255s16.266,36.25,36.255,36.25H295.85c25.667,0,46.544,20.877,46.544,46.544  S321.517,295.753,295.85,295.753z"/>
<g>
	<circle style="fill:#2F4859;" cx="247.962" cy="122.742" r="24.719"/>
	<circle style="fill:#2F4859;" cx="168.868" cy="289.331" r="24.719"/>
</g>
<g>
</g>
<g>
</g>
<g>
</g>
<g>
</g>
<g>
</g>
<g>
</g>
<g>
</g>
<g>
</g>
<g>
</g>
<g>
</g>
<g>
</g>
<g>
</g>
<g>
</g>
<g>
</g>
<g>
</g>
</svg>
