<?xml version="1.0" encoding="iso-8859-1"?>
<!-- Generator: Adobe Illustrator 19.0.0, SVG Export Plug-In . SVG Version: 6.00 Build 0)  -->
<svg xmlns="http://www.w3.org/2000/svg" xmlns:xlink="http://www.w3.org/1999/xlink" version="1.1" id="Capa_1" x="0px" y="0px" viewBox="0 0 409.6 409.6" style="enable-background:new 0 0 409.6 409.6;" xml:space="preserve">
<g>
	<rect x="182.226" y="220.262" style="fill:#EBF0F3;" width="19.22" height="12.815"/>
	<rect x="342.39" y="220.262" style="fill:#EBF0F3;" width="19.22" height="12.815"/>
</g>
<path style="fill:#3EA69B;" d="M394.597,56.739c0-3.616-2.931-6.547-6.547-6.547H166.44c-3.616,0-6.547,2.931-6.547,6.547v136.207  h234.704V56.739z"/>
<path style="fill:#31978C;" d="M159.893,189.026v28.79c0,4.056,2.931,7.344,6.547,7.344h221.61c3.616,0,6.547-3.288,6.547-7.344  v-28.79H159.893z"/>
<rect x="172.698" y="62.996" style="fill:#D5D6DB;" width="209.101" height="144.64"/>
<path style="fill:#44C4A1;" d="M409.6,224.141v15.935c0,6.623-6.078,11.993-13.576,11.993H158.466  c-7.498,0-13.576-5.369-13.576-11.993v-15.935H409.6z"/>
<g>
	<path style="fill:#EBF0F3;" d="M302.766,243.706h-51.042c-2.118,0-3.851-1.733-3.851-3.851v-3.501c0-2.118,1.733-3.851,3.851-3.851   h51.042c2.118,0,3.851,1.733,3.851,3.851v3.501C306.618,241.973,304.884,243.706,302.766,243.706z"/>
	<circle style="fill:#EBF0F3;" cx="274.176" cy="56.474" r="4.772"/>
</g>
<g>
	<circle style="fill:#D5D6DB;" cx="274.176" cy="56.474" r="2.893"/>
	<path style="fill:#D5D6DB;" d="M290.589,243.706h-26.689c-2.118,0-3.851-1.733-3.851-3.851v-3.501c0-2.118,1.733-3.851,3.851-3.851   h26.689c2.118,0,3.851,1.733,3.851,3.851v3.501C294.441,241.973,292.708,243.706,290.589,243.706z"/>
</g>
<g>
	<rect x="37.335" y="327.624" style="fill:#EBF0F3;" width="19.22" height="12.815"/>
	<rect x="197.499" y="327.624" style="fill:#EBF0F3;" width="19.22" height="12.815"/>
</g>
<g>
	<path style="fill:#FCD462;" d="M249.707,164.079c0-3.616-2.931-6.547-6.547-6.547H21.55c-3.616,0-6.547,2.931-6.547,6.547v136.207   h234.704V164.079z"/>
	<path style="fill:#FCD462;" d="M15.003,296.366v28.79c0,4.056,2.931,7.344,6.547,7.344h221.61c3.616,0,6.547-3.288,6.547-7.344   v-28.79H15.003z"/>
</g>
<rect x="27.807" y="170.342" style="fill:#D5D6DB;" width="209.101" height="144.64"/>
<path style="fill:#DC8744;" d="M264.71,331.481v15.935c0,6.623-6.078,11.993-13.576,11.993H13.576  C6.078,359.408,0,354.039,0,347.415v-15.935H264.71z"/>
<g>
	<path style="fill:#EBF0F3;" d="M157.876,351.046h-51.042c-2.118,0-3.851-1.733-3.851-3.851v-3.501c0-2.118,1.733-3.851,3.851-3.851   h51.042c2.118,0,3.851,1.733,3.851,3.851v3.501C161.727,349.313,159.994,351.046,157.876,351.046z"/>
	<circle style="fill:#EBF0F3;" cx="129.28" cy="163.83" r="4.772"/>
</g>
<g>
	<circle style="fill:#D5D6DB;" cx="129.28" cy="163.83" r="2.893"/>
	<path style="fill:#D5D6DB;" d="M145.699,351.046h-26.689c-2.118,0-3.851-1.733-3.851-3.851v-3.501c0-2.118,1.733-3.851,3.851-3.851   h26.689c2.118,0,3.851,1.733,3.851,3.851v3.501C149.551,349.313,147.818,351.046,145.699,351.046z"/>
</g>
<g>
</g>
<g>
</g>
<g>
</g>
<g>
</g>
<g>
</g>
<g>
</g>
<g>
</g>
<g>
</g>
<g>
</g>
<g>
</g>
<g>
</g>
<g>
</g>
<g>
</g>
<g>
</g>
<g>
</g>
</svg>
