<?xml version="1.0" encoding="iso-8859-1"?>
<!-- Generator: Adobe Illustrator 19.0.0, SVG Export Plug-In . SVG Version: 6.00 Build 0)  -->
<svg xmlns="http://www.w3.org/2000/svg" xmlns:xlink="http://www.w3.org/1999/xlink" version="1.1" id="Capa_1" x="0px" y="0px" viewBox="0 0 408.421 408.421" style="enable-background:new 0 0 408.421 408.421;" xml:space="preserve">
<g>
	<path style="fill:#E56353;" d="M8.495,198.905h378.61c5.343,0,9.674,4.331,9.674,9.674s-4.331,9.674-9.674,9.674H8.495"/>
	<path style="fill:#E56353;" d="M201.276,125.323c-89.853,0-149.816-39.523-150.708-40.128l10.83-16.034   c1.239,0.846,126.463,82.817,284.637-0.537l9.024,17.118C298.763,115.408,246.267,125.323,201.276,125.323z"/>
	<path style="fill:#E56353;" d="M345.091,345.921c-144.193-98.469-277.813-4.217-283.428-0.155l-11.359-15.66   c1.481-1.077,150.005-106.461,305.701-0.162L345.091,345.921z"/>
	<path style="fill:#E56353;" d="M160.215,397.147c-144.677-233.128-0.189-386.001,1.292-387.52l13.861,13.498l-6.93-6.749   l6.946,6.738c-5.585,5.774-135.177,143.959,1.277,363.831L160.215,397.147z"/>
	<rect x="191.722" y="11.094" style="fill:#E56353;" width="19.348" height="386.253"/>
	<path style="fill:#E56353;" d="M237.213,397.147l-16.446-10.203c136.454-219.872,6.862-358.056,1.277-363.831l13.876-13.487   C237.402,11.146,381.89,164.019,237.213,397.147z"/>
	<path style="fill:#E56353;" d="M200.83,407.002C90.095,407.002,0,316.03,0,204.21S90.095,1.419,200.83,1.419   S401.66,92.391,401.66,204.21S311.565,407.002,200.83,407.002z M200.83,20.767c-100.071,0-181.483,82.292-181.483,183.444   s81.411,183.444,181.483,183.444s181.483-82.292,181.483-183.444S300.901,20.767,200.83,20.767z"/>
</g>
<path style="fill:#64798A;" d="M302.478,267.018h-37.201c-14.644,0-26.557-12.844-26.557-28.631v-21.602h12.035v21.602  c0,8.633,6.515,15.655,14.522,15.655h37.201c8.172,0,14.82-7.17,14.82-15.981v-21.277h12.035v21.277  C329.333,254.028,317.286,267.018,302.478,267.018z"/>
<path style="fill:#3EA69B;" d="M241.765,260.531h81.551c6.129,0,11.891,3.154,15.507,8.49l40.458,59.691  c2.342,3.456,3.605,7.625,3.605,11.906v30.834c0,10.196-7.666,18.461-17.123,18.461H199.43c-9.457,0-17.123-8.265-17.123-18.461  v-25.354c0-8.753,2.62-17.272,7.47-24.291l36.586-52.941C229.988,263.621,235.698,260.531,241.765,260.531z"/>
<path style="fill:#44C4A1;" d="M182.307,340.617v40.078c0,10.196-1.578,9.217,7.878,9.217h184.822c9.457,0,7.878,0.979,7.878-9.217  v-40.078H182.307z"/>
<g>
	<polygon style="fill:#EBF0F3;" points="235.74,329.407 210.658,329.407 218.776,313.981 241.072,313.981  "/>
	<polygon style="fill:#EBF0F3;" points="276.106,329.407 251.024,329.407 254.659,313.981 276.955,313.981  "/>
	<polygon style="fill:#EBF0F3;" points="316.473,329.407 291.391,329.407 290.542,313.981 312.838,313.981  "/>
</g>
<polygon style="fill:#E56353;" points="356.839,329.407 331.757,329.407 326.425,313.981 348.721,313.981 "/>
<g>
	<polygon style="fill:#EBF0F3;" points="243.438,307.139 222.377,307.139 228.205,296.066 247.265,296.066  "/>
	<polygon style="fill:#EBF0F3;" points="277.332,307.139 256.271,307.139 258.88,296.066 277.941,296.066  "/>
	<polygon style="fill:#EBF0F3;" points="311.226,307.139 290.165,307.139 289.556,296.066 308.617,296.066  "/>
</g>
<polygon style="fill:#FCD462;" points="345.12,307.139 324.059,307.139 320.232,296.066 339.292,296.066 "/>
<g>
	<polygon style="fill:#EBF0F3;" points="249.008,291.025 230.858,291.025 235.244,282.692 251.889,282.692  "/>
	<polygon style="fill:#EBF0F3;" points="278.218,291.025 260.068,291.025 262.032,282.692 278.677,282.692  "/>
	<polygon style="fill:#EBF0F3;" points="307.429,291.025 289.279,291.025 288.82,282.692 305.465,282.692  "/>
</g>
<polygon style="fill:#27A2DB;" points="336.639,291.025 318.489,291.025 315.608,282.692 332.253,282.692 "/>
<g>
	<polygon style="fill:#EBF0F3;" points="253.226,278.824 237.279,278.824 240.699,272.326 255.472,272.326  "/>
	<polygon style="fill:#EBF0F3;" points="278.89,278.824 262.943,278.824 264.474,272.326 279.247,272.326  "/>
	<polygon style="fill:#EBF0F3;" points="304.554,278.824 288.607,278.824 288.25,272.326 303.023,272.326  "/>
</g>
<polygon style="fill:#64798A;" points="330.218,278.824 314.271,278.824 312.025,272.326 326.798,272.326 "/>
<g>
	<polygon style="fill:#E1E6E9;" points="253.226,278.824 237.279,278.824 238.368,276.756 253.941,276.756  "/>
	<polygon style="fill:#E1E6E9;" points="278.89,278.824 262.943,278.824 263.431,276.756 279.004,276.756  "/>
	<polygon style="fill:#E1E6E9;" points="304.554,278.824 288.607,278.824 288.493,276.756 304.066,276.756  "/>
</g>
<polygon style="fill:#3A556A;" points="330.218,278.824 314.271,278.824 313.556,276.756 329.129,276.756 "/>
<g>
	<polygon style="fill:#E1E6E9;" points="249.008,291.025 230.858,291.025 232.263,288.355 249.931,288.355  "/>
	<polygon style="fill:#E1E6E9;" points="278.218,291.025 260.068,291.025 260.697,288.355 278.365,288.355  "/>
	<polygon style="fill:#E1E6E9;" points="307.429,291.025 289.279,291.025 289.132,288.355 306.799,288.355  "/>
</g>
<polygon style="fill:#2D93BA;" points="336.639,291.025 318.489,291.025 317.566,288.355 335.234,288.355 "/>
<g>
	<polygon style="fill:#E1E6E9;" points="243.438,307.139 222.377,307.139 224.261,303.559 244.675,303.559  "/>
	<polygon style="fill:#E1E6E9;" points="277.332,307.139 256.271,307.139 257.115,303.559 277.529,303.559  "/>
	<polygon style="fill:#E1E6E9;" points="311.226,307.139 290.165,307.139 289.968,303.559 310.382,303.559  "/>
</g>
<polygon style="fill:#F6C358;" points="345.12,307.139 324.059,307.139 322.822,303.559 343.236,303.559 "/>
<g>
	<polygon style="fill:#E1E6E9;" points="235.74,329.407 210.658,329.407 213.315,324.358 237.485,324.358  "/>
	<polygon style="fill:#E1E6E9;" points="276.106,329.407 251.024,329.407 252.214,324.358 276.384,324.358  "/>
	<polygon style="fill:#E1E6E9;" points="316.473,329.407 291.391,329.407 291.113,324.358 315.283,324.358  "/>
</g>
<polygon style="fill:#D15241;" points="356.839,329.407 331.757,329.407 330.012,324.358 354.182,324.358 "/>
<g>
	<path style="fill:#64798A;" d="M248.638,226.252h-7.925c-1.751,0-3.171-1.42-3.171-3.171V210.5c0-1.751,1.42-3.171,3.171-3.171   h7.925c1.751,0,3.171,1.42,3.171,3.171v12.581C251.808,224.832,250.389,226.252,248.638,226.252z"/>
	<path style="fill:#64798A;" d="M326.784,228.55h-7.925c-1.751,0-3.171-1.42-3.171-3.171v-12.581c0-1.751,1.42-3.171,3.171-3.171   h7.925c1.751,0,3.171,1.42,3.171,3.171v12.581C329.955,227.13,328.535,228.55,326.784,228.55z"/>
</g>
<path style="fill:#FCD462;" d="M154.205,256.048c-0.319,7.984,9.13,15.764,17.12,15.798l21.402-1.832  c20.38-1.954,36.238-2.661,37.903-33.037c0.474-8.657-6.896-25.342,17.748-29.796c20.429-3.692,68.854-4.998,82.426,10.062  c7.623,8.459,4.593,19.921,3.374,26.483c-4.266,22.958,15.184,31.046,35.546,33.177c0,0,16.995,1.861,22.684,2.142  c7.981,0.393,12.68-5.955,14.531-14.405c0,0,8.388-36.681-17.413-66.29c-18.517-21.25-41.705-32.754-107.111-35.192  c-31.872-1.188-108.8,14.881-118.816,46.461C159.936,221.17,155.475,224.298,154.205,256.048z"/>
<g>
	<path style="fill:#64798A;" d="M157.332,232.175l73.296,2.875c0.325,3.971-0.958,10.431-0.958,10.431l-74.974-0.328   c0,0,0.452-9.021,0.942-12.986L157.332,232.175z"/>
	<path style="fill:#64798A;" d="M408.262,250.82l-74.664-0.326c0,0-0.549-1.217,2.064-15.882l71.22,0.311   C406.883,234.924,409.008,247.449,408.262,250.82z"/>
</g>
<g>
</g>
<g>
</g>
<g>
</g>
<g>
</g>
<g>
</g>
<g>
</g>
<g>
</g>
<g>
</g>
<g>
</g>
<g>
</g>
<g>
</g>
<g>
</g>
<g>
</g>
<g>
</g>
<g>
</g>
</svg>
