<?xml version="1.0" encoding="iso-8859-1"?>
<!-- Generator: Adobe Illustrator 19.0.0, SVG Export Plug-In . SVG Version: 6.00 Build 0)  -->
<svg xmlns="http://www.w3.org/2000/svg" xmlns:xlink="http://www.w3.org/1999/xlink" version="1.1" id="Capa_1" x="0px" y="0px" viewBox="0 0 409.6 409.6" style="enable-background:new 0 0 409.6 409.6;" xml:space="preserve">
<g>
	<path style="fill:#DC8744;" d="M144.449,107.927l-8.527-7.935c23.683-25.449,57.19-40.041,91.934-40.041   c27.273,0,53.213,8.6,75.017,24.866l-6.962,9.337c-19.779-14.756-43.312-22.555-68.055-22.555   C196.338,71.599,165.934,84.84,144.449,107.927z"/>
	<path style="fill:#DC8744;" d="M153.203,275.201c-29.494-19.634-49.418-50.892-54.664-85.76l11.521-1.729   c4.755,31.618,22.832,59.974,49.596,77.797L153.203,275.201z"/>
	<path style="fill:#DC8744;" d="M284.031,288.606l-5.214-10.411c33.443-16.758,56.548-48.79,61.813-85.687l11.53,1.647   C346.358,234.833,320.891,270.142,284.031,288.606z"/>
</g>
<path style="fill:#E1E6E9;" d="M258.197,237.085c-43.966-19.099-61.487,9.894-61.487,9.894c-49.975-7.645-52.33,34.802-52.33,34.802  c-14.377,5.134-29.055,17.848-29.055,32.72c0,19.412,17.337,35.148,38.724,35.148h110.776c12.602-1.903,38.724-15.736,38.724-35.148  c0-14.872-8.473-32.483-22.85-37.617C280.699,276.885,282.007,247.429,258.197,237.085z"/>
<path style="fill:#EBF0F3;" d="M154.05,349.649c-21.387,0-38.724-15.736-38.724-35.148c0-14.872,14.678-27.586,29.055-32.72  c0,0,2.355-42.447,52.33-34.802c0,0,7.321-12.114,24.373-15.523v118.193H154.05z"/>
<path style="fill:#2D93BA;" d="M364.248,79.945c-43.966-19.099-61.487,9.894-61.487,9.894c-49.975-7.645-52.33,34.802-52.33,34.802  c-14.377,5.134-29.055,17.848-29.055,32.72c0,19.412,17.337,35.148,38.724,35.148h110.776c12.602-1.903,38.724-15.736,38.724-35.148  c0-14.872-8.473-32.483-22.85-37.617C386.75,119.744,388.058,90.288,364.248,79.945z"/>
<path style="fill:#27A2DB;" d="M260.1,192.509c-21.387,0-38.724-15.736-38.724-35.148c0-14.872,14.678-27.586,29.055-32.72  c0,0,2.355-42.447,52.33-34.802c0,0,7.321-12.114,24.373-15.523v118.193H260.1z"/>
<path style="fill:#D15241;" d="M142.872,79.945c-43.966-19.099-61.487,9.894-61.487,9.894c-49.975-7.645-52.33,34.802-52.33,34.802  C14.678,129.775,0,142.489,0,157.361c0,19.412,17.337,35.148,38.724,35.148H149.5c12.602-1.903,38.724-15.736,38.724-35.148  c0-14.872-8.473-32.483-22.85-37.617C165.374,119.744,166.682,90.288,142.872,79.945z"/>
<path style="fill:#E56353;" d="M38.724,192.509C17.337,192.509,0,176.773,0,157.361c0-14.872,14.678-27.586,29.055-32.72  c0,0,2.355-42.447,52.33-34.802c0,0,7.321-12.114,24.373-15.523v118.193H38.724z"/>
<g>
</g>
<g>
</g>
<g>
</g>
<g>
</g>
<g>
</g>
<g>
</g>
<g>
</g>
<g>
</g>
<g>
</g>
<g>
</g>
<g>
</g>
<g>
</g>
<g>
</g>
<g>
</g>
<g>
</g>
</svg>
