<?xml version="1.0" encoding="iso-8859-1"?>
<!-- Generator: Adobe Illustrator 19.0.0, SVG Export Plug-In . SVG Version: 6.00 Build 0)  -->
<svg xmlns="http://www.w3.org/2000/svg" xmlns:xlink="http://www.w3.org/1999/xlink" version="1.1" id="Capa_1" x="0px" y="0px" viewBox="0 0 409.6 409.6" style="enable-background:new 0 0 409.6 409.6;" xml:space="preserve">
<path style="fill:#2D93BA;" d="M293.232,11.81c-79.736-34.638-111.514,17.943-111.514,17.943  C91.083,15.888,86.812,92.871,86.812,92.871c-26.073,9.311-52.694,32.37-52.694,59.341c0,35.205,31.443,63.745,70.23,63.745h200.904  c22.856-3.452,70.23-28.539,70.23-63.745c0-26.971-15.368-58.911-41.441-68.222C334.041,83.99,336.414,30.569,293.232,11.81z"/>
<path style="fill:#27A2DB;" d="M104.348,215.957c-38.787,0-70.23-28.539-70.23-63.745c0-26.971,26.621-50.03,52.694-59.341  c0,0,4.271-76.983,94.906-63.118c0,0,13.277-21.97,44.202-28.152v214.356H104.348z"/>
<polygon style="fill:#D15241;" points="111.431,275.829 125.6,275.829 125.6,219.259 139.131,219.259 139.131,275.829   153.777,275.829 132.604,318.941 "/>
<polygon style="fill:#E56353;" points="125.6,219.259 125.6,275.829 111.431,275.829 132.604,318.941 132.604,219.259 "/>
<path style="fill:#FFFFFF;" d="M316.457,90.318c-2.994,0-5.631-2.17-6.119-5.225c-5.976-37.306-44.934-52.744-67.624-58.63  c-3.318-0.861-5.31-4.249-4.449-7.564c0.861-3.315,4.255-5.34,7.564-4.449c25.624,6.643,69.673,24.396,76.765,68.679  c0.542,3.382-1.761,6.57-5.146,7.11C317.115,90.293,316.785,90.318,316.457,90.318z"/>
<polygon style="fill:#D15241;" points="173.849,301.562 194.561,301.562 194.561,218.865 214.341,218.865 214.341,301.562   235.751,301.562 204.8,364.586 "/>
<polygon style="fill:#E56353;" points="194.561,218.865 194.561,301.562 173.849,301.562 204.8,364.586 204.8,218.865 "/>
<polygon style="fill:#D15241;" points="238.023,275.829 252.191,275.829 252.191,219.259 265.723,219.259 265.723,275.829   280.368,275.829 259.196,318.941 "/>
<polygon style="fill:#E56353;" points="252.191,219.259 252.191,275.829 238.023,275.829 259.196,318.941 259.196,219.259 "/>
<polygon style="fill:#D15241;" points="138.02,366.488 152.188,366.488 152.188,309.918 165.719,309.918 165.719,366.488   180.365,366.488 159.192,409.6 "/>
<polygon style="fill:#E56353;" points="152.188,309.918 152.188,366.488 138.02,366.488 159.192,409.6 159.192,309.918 "/>
<g>
</g>
<g>
</g>
<g>
</g>
<g>
</g>
<g>
</g>
<g>
</g>
<g>
</g>
<g>
</g>
<g>
</g>
<g>
</g>
<g>
</g>
<g>
</g>
<g>
</g>
<g>
</g>
<g>
</g>
</svg>
