<?xml version="1.0" encoding="iso-8859-1"?>
<!-- Generator: Adobe Illustrator 19.0.0, SVG Export Plug-In . SVG Version: 6.00 Build 0)  -->
<svg xmlns="http://www.w3.org/2000/svg" xmlns:xlink="http://www.w3.org/1999/xlink" version="1.1" id="Capa_1" x="0px" y="0px" viewBox="0 0 409.6 409.6" style="enable-background:new 0 0 409.6 409.6;" xml:space="preserve">
<path style="fill:#EBF0F3;" d="M337.201,108.36H236.297c-5.331,0-9.652,4.321-9.652,9.651V352.44c0,5.331,4.321,9.652,9.652,9.652  h100.904c5.331,0,9.653-4.321,9.653-9.652V118.01C346.854,112.68,342.532,108.36,337.201,108.36z"/>
<g>
	<rect x="246.118" y="318.413" style="fill:#64798A;" width="81.29" height="19.891"/>
	<rect x="246.118" y="282.419" style="fill:#64798A;" width="81.29" height="19.891"/>
	<rect x="246.118" y="246.989" style="fill:#64798A;" width="81.29" height="19.891"/>
	<circle style="fill:#64798A;" cx="286.771" cy="151.598" r="16.379"/>
</g>
<rect x="94.397" y="325.888" style="fill:#DC8744;" width="73.283" height="23.235"/>
<path style="fill:#FCD462;" d="M262.077,140.284c0-4.038-3.273-7.311-7.311-7.311H7.311c-4.038,0-7.311,3.273-7.311,7.311v152.093  h262.077V140.284z"/>
<rect x="14.295" y="147.272" style="fill:#27A2DB;" width="233.487" height="145.106"/>
<path style="fill:#FCD462;" d="M0,292.377v28.66c0,4.038,3.273,7.311,7.311,7.311h247.456c4.038,0,7.311-3.273,7.311-7.311v-28.66H0  z"/>
<circle style="fill:#DC8744;" cx="131.036" cy="310.374" r="9.938"/>
<path style="fill:#FCD462;" d="M176.567,347.44H85.511c-9.187,0-16.635,7.448-16.635,16.635v0h124.326v0  C193.202,354.888,185.754,347.44,176.567,347.44z"/>
<g>
	<path style="fill:#64798A;" d="M354.33,54.772l-0.524-9.159c16.284-0.931,31.805,5.559,42.591,17.752   c9.767,11.063,14.471,25.829,12.908,40.512l-9.122-0.972c1.291-12.13-2.595-24.329-10.664-33.468   C380.625,59.379,367.785,54.002,354.33,54.772z"/>
	<path style="fill:#64798A;" d="M354.432,74.374l-0.524-9.159c10.469-0.599,20.433,3.572,27.379,11.413   c6.278,7.111,9.303,16.602,8.298,26.042l-9.122-0.972c0.733-6.887-1.474-13.811-6.053-18.998   C369.36,76.969,362.072,73.937,354.432,74.374z"/>
	<path style="fill:#64798A;" d="M347.84,91.307l-0.524-9.159c7.314-0.418,14.289,2.485,19.129,7.973   c4.387,4.969,6.5,11.601,5.798,18.195l-9.122-0.969c0.43-4.043-0.865-8.108-3.554-11.153   C356.593,92.814,352.325,91.051,347.84,91.307z"/>
	<ellipse style="fill:#64798A;" cx="346.409" cy="107.739" rx="7.035" ry="7.035"/>
</g>
<g>
</g>
<g>
</g>
<g>
</g>
<g>
</g>
<g>
</g>
<g>
</g>
<g>
</g>
<g>
</g>
<g>
</g>
<g>
</g>
<g>
</g>
<g>
</g>
<g>
</g>
<g>
</g>
<g>
</g>
</svg>
