<?xml version="1.0" encoding="iso-8859-1"?>
<!-- Generator: Adobe Illustrator 19.0.0, SVG Export Plug-In . SVG Version: 6.00 Build 0)  -->
<svg xmlns="http://www.w3.org/2000/svg" xmlns:xlink="http://www.w3.org/1999/xlink" version="1.1" id="Capa_1" x="0px" y="0px" viewBox="0 0 409.6 409.6" style="enable-background:new 0 0 409.6 409.6;" xml:space="preserve">
<path style="fill:#EBF0F3;" d="M160.403,205.131H59.405c-5.184,0-9.387-4.203-9.387-9.387v-10.833c0-5.184,4.203-9.387,9.387-9.387  h100.998c5.184,0,9.387,4.203,9.387,9.387v10.833C169.789,200.929,165.587,205.131,160.403,205.131z"/>
<path style="fill:#64798A;" d="M65.612,349.961H53.337c-5.874,0-10.636-4.762-10.636-10.636V162.2  c0-5.874,4.762-10.636,10.636-10.636h12.275c5.874,0,10.636,4.762,10.636,10.636v177.125  C76.248,345.199,71.486,349.961,65.612,349.961z"/>
<path style="fill:#EBF0F3;" d="M128.585,363.693H8.573c-4.735,0-8.573-3.838-8.573-8.573v-9.894c0-4.735,3.838-8.573,8.573-8.573  h120.012c4.735,0,8.573,3.838,8.573,8.573v9.894C137.158,359.855,133.32,363.693,128.585,363.693z"/>
<g>
	
		<rect x="259.623" y="122.749" transform="matrix(-0.6008 0.7994 -0.7994 -0.6008 558.272 45.8002)" style="fill:#3A556A;" width="16.154" height="79.105"/>
	
		<rect x="228.17" y="210.277" transform="matrix(-0.7996 0.6005 -0.6005 -0.7996 612.9202 232.202)" style="fill:#3A556A;" width="79.104" height="16.154"/>
</g>
<path style="fill:#2D93BA;" d="M244.172,63.793c-70.941-0.006-128.455,55.465-128.461,123.898  c-0.006,68.433,57.498,123.913,128.439,123.919L244.172,63.793z"/>
<path style="fill:#1C75A1;" d="M244.15,311.61c-70.941-0.006-128.445-55.486-128.439-123.919H244.15V311.61z"/>
<circle style="fill:#27A2DB;" cx="306.381" cy="187.689" r="30.674"/>
<g>
	<path style="fill:#3A556A;" d="M311.179,63.586l-4.797-12.532c22.281-8.528,46.794-6.374,67.241,5.831   c18.524,11.082,31.636,29.572,35.977,50.73l-13.145,2.696c-3.586-17.479-14.418-32.755-29.721-41.91   C349.871,58.332,329.589,56.54,311.179,63.586z"/>
	<path style="fill:#3A556A;" d="M320.025,90.86l-4.797-12.532c14.324-5.484,30.064-4.095,43.226,3.75   c11.907,7.123,20.336,19.008,23.127,32.61l-13.145,2.696c-2.036-9.924-8.186-18.594-16.872-23.79   C341.982,87.848,330.479,86.858,320.025,90.86z"/>
	<path style="fill:#3A556A;" d="M318.355,117.386l-4.797-12.532c10.008-3.829,21.018-2.881,30.2,2.619   c8.32,4.978,14.21,13.283,16.16,22.783l-13.144,2.7c-1.196-5.826-4.806-10.916-9.905-13.967   C331.223,115.6,324.492,115.039,318.355,117.386z"/>
	<ellipse style="fill:#3A556A;" cx="323.642" cy="140.932" rx="10.291" ry="10.291"/>
</g>
<g>
</g>
<g>
</g>
<g>
</g>
<g>
</g>
<g>
</g>
<g>
</g>
<g>
</g>
<g>
</g>
<g>
</g>
<g>
</g>
<g>
</g>
<g>
</g>
<g>
</g>
<g>
</g>
<g>
</g>
</svg>
