<?xml version="1.0" encoding="iso-8859-1"?>
<!-- Generator: Adobe Illustrator 19.0.0, SVG Export Plug-In . SVG Version: 6.00 Build 0)  -->
<svg xmlns="http://www.w3.org/2000/svg" xmlns:xlink="http://www.w3.org/1999/xlink" version="1.1" id="Capa_1" x="0px" y="0px" viewBox="0 0 409.6 409.6" style="enable-background:new 0 0 409.6 409.6;" xml:space="preserve">
<rect y="223.928" style="fill:#E56353;" width="301.256" height="111.268"/>
<path style="fill:#E1E6E9;" d="M0,359.431c0,6.338,5.138,11.476,11.476,11.476h278.304c6.338,0,11.476-5.138,11.476-11.476v-24.236  H0V359.431z"/>
<path style="fill:#D1554B;" d="M75.234,286.458c0,18.596,6.765,35.59,17.925,48.737h114.94  c11.16-13.147,17.925-30.141,17.925-48.737c0-26.032-13.194-48.982-33.259-62.529h-84.271  C88.428,237.477,75.234,260.426,75.234,286.458z"/>
<path style="fill:#D5D6DB;" d="M150.629,361.853c23.044,0,43.64-10.367,57.47-26.658H93.159  C106.989,351.486,127.585,361.853,150.629,361.853z"/>
<path style="fill:#2F4859;" d="M55.496,175.447H22.955c-1.468,0-2.658,1.19-2.658,2.658v9.464h37.858v-9.464  C58.155,176.637,56.964,175.447,55.496,175.447z"/>
<path style="fill:#D5D6DB;" d="M195.047,159.093c-1.315-3.104-4.359-5.12-7.731-5.12h-73.375c-3.371,0-6.415,2.016-7.731,5.12  l-13.735,32.414h116.307L195.047,159.093z"/>
<path style="fill:#E1E6E9;" d="M301.257,197.327c0-6.338-5.138-11.476-11.476-11.476H11.476C5.138,185.85,0,190.988,0,197.327  v26.603h301.257V197.327z"/>
<circle style="fill:#64798A;" cx="150.63" cy="277.504" r="75.392"/>
<circle style="fill:#3A556A;" cx="150.63" cy="277.504" r="54.774"/>
<circle style="fill:#64798A;" cx="150.63" cy="277.504" r="33.69"/>
<circle style="fill:#27A2DB;" cx="150.63" cy="277.504" r="17.577"/>
<g>
	<circle style="fill:#FFFFFF;" cx="162.324" cy="265.825" r="3.958"/>
	<circle style="fill:#FFFFFF;" cx="139.11" cy="289.075" r="3.108"/>
</g>
<g>
	<path style="fill:#3A556A;" d="M176.787,167.11h-52.316c-3.109,0-5.63,2.52-5.63,5.63s2.521,5.63,5.63,5.63h52.316   c3.109,0,5.63-2.521,5.63-5.63S179.896,167.11,176.787,167.11z"/>
	<path style="fill:#3A556A;" d="M280.099,61.954l-6.312-16.49c29.317-11.221,61.571-8.387,88.475,7.672   c24.373,14.582,41.627,38.911,47.338,66.749l-17.296,3.547c-4.718-22.999-18.972-43.098-39.107-55.144   C331.01,55.041,304.323,52.683,280.099,61.954z"/>
	<path style="fill:#3A556A;" d="M291.738,97.841l-6.312-16.49c18.848-7.215,39.557-5.388,56.876,4.934   c15.667,9.372,26.758,25.011,30.431,42.908l-17.296,3.547c-2.679-13.057-10.771-24.466-22.199-31.302   C320.629,93.878,305.493,92.575,291.738,97.841z"/>
	<path style="fill:#3A556A;" d="M289.541,132.743l-6.312-16.49c13.168-5.038,27.655-3.791,39.736,3.446   c10.947,6.549,18.697,17.477,21.263,29.978l-17.295,3.552c-1.574-7.666-6.324-14.364-13.033-18.377   C306.473,130.393,297.616,129.655,289.541,132.743z"/>
	<ellipse style="fill:#3A556A;" cx="296.507" cy="163.691" rx="13.537" ry="13.537"/>
</g>
<g>
</g>
<g>
</g>
<g>
</g>
<g>
</g>
<g>
</g>
<g>
</g>
<g>
</g>
<g>
</g>
<g>
</g>
<g>
</g>
<g>
</g>
<g>
</g>
<g>
</g>
<g>
</g>
<g>
</g>
</svg>
