<?xml version="1.0" encoding="iso-8859-1"?>
<!-- Generator: Adobe Illustrator 19.0.0, SVG Export Plug-In . SVG Version: 6.00 Build 0)  -->
<svg xmlns="http://www.w3.org/2000/svg" xmlns:xlink="http://www.w3.org/1999/xlink" version="1.1" id="Capa_1" x="0px" y="0px" viewBox="0 0 409.6 409.6" style="enable-background:new 0 0 409.6 409.6;" xml:space="preserve">
<path style="fill:#3A556A;" d="M247.019,124.35h-8.154c-4.953,0-8.969-4.016-8.969-8.969V8.969c0-4.953,4.016-8.969,8.969-8.969  h8.154c4.953,0,8.969,4.016,8.969,8.969v106.412C255.988,120.334,251.972,124.35,247.019,124.35z"/>
<path style="fill:#D5D6DB;" d="M252.597,409.6h-96.504c-9.561,0-17.312-7.751-17.312-17.312V255.639h131.128v136.649  C269.909,401.849,262.158,409.6,252.597,409.6z"/>
<path style="fill:#F6C358;" d="M269.909,259.737l13.659-20.944V124.477c0-10.329-8.373-18.701-18.701-18.701H144.734  c-10.329,0-18.701,8.373-18.701,18.701v114.315l12.749,20.944"/>
<g>
	<rect x="187.73" y="70.42" style="fill:#1C75A1;" width="22.758" height="35.359"/>
	<rect x="153.59" y="70.42" style="fill:#1C75A1;" width="22.758" height="35.359"/>
</g>
<g>
	<ellipse style="fill:#3A556A;" cx="199.112" cy="70.42" rx="11.52" ry="2.847"/>
	<ellipse style="fill:#3A556A;" cx="164.966" cy="70.42" rx="11.52" ry="2.847"/>
</g>
<rect x="144.947" y="136.008" style="fill:#2D93BA;" width="117.135" height="102.144"/>
<rect x="144.947" y="224.276" style="fill:#1C75A1;" width="117.135" height="13.88"/>
<circle style="fill:#3A556A;" cx="207.969" cy="343.03" r="29.563"/>
<circle style="fill:#F6C358;" cx="207.969" cy="343.03" r="15.611"/>
<rect x="226.099" y="278.63" style="fill:#D15241;" width="35.994" height="15.611"/>
<rect x="149.248" y="278.63" style="fill:#44C4A1;" width="35.994" height="15.611"/>
<rect x="226.099" y="290.545" style="fill:#CE412D;" width="35.994" height="3.676"/>
<rect x="149.248" y="290.473" style="fill:#3EA69B;" width="35.994" height="3.748"/>
<g>
</g>
<g>
</g>
<g>
</g>
<g>
</g>
<g>
</g>
<g>
</g>
<g>
</g>
<g>
</g>
<g>
</g>
<g>
</g>
<g>
</g>
<g>
</g>
<g>
</g>
<g>
</g>
<g>
</g>
</svg>
