<?xml version="1.0" encoding="iso-8859-1"?>
<!-- Generator: Adobe Illustrator 19.0.0, SVG Export Plug-In . SVG Version: 6.00 Build 0)  -->
<svg xmlns="http://www.w3.org/2000/svg" xmlns:xlink="http://www.w3.org/1999/xlink" version="1.1" id="Capa_1" x="0px" y="0px" viewBox="0 0 409.6 409.6" style="enable-background:new 0 0 409.6 409.6;" xml:space="preserve">
<g>
	<path style="fill:#3A556A;" d="M197.166,55.689l-4.111-10.738c19.091-7.307,40.096-5.462,57.616,4.996   c15.872,9.496,27.108,25.339,30.827,43.468l-11.263,2.31c-3.073-14.977-12.355-28.066-25.467-35.911   C230.32,51.188,212.941,49.652,197.166,55.689z"/>
	<path style="fill:#3A556A;" d="M204.746,79.059l-4.111-10.738c12.274-4.699,25.76-3.508,37.038,3.213   c10.202,6.103,17.425,16.287,19.817,27.942l-11.263,2.31c-1.745-8.503-7.014-15.933-14.457-20.385   C223.559,76.479,213.703,75.63,204.746,79.059z"/>
	<path style="fill:#3A556A;" d="M203.315,101.788l-4.111-10.738c8.575-3.281,18.01-2.469,25.877,2.244   c7.129,4.265,12.176,11.381,13.846,19.522l-11.263,2.313c-1.025-4.992-4.118-9.354-8.487-11.967   C214.341,100.258,208.573,99.777,203.315,101.788z"/>
	<ellipse style="fill:#3A556A;" cx="207.849" cy="121.935" rx="8.817" ry="8.817"/>
</g>
<path style="fill:#FCD462;" d="M337.92,127.395c-11.657,0-22.66,4.699-32.387,13.026c-10.416,8.918-23.404,14.28-37.116,14.28  H141.183c-13.712,0-26.7-5.362-37.116-14.28c-9.727-8.328-20.731-13.026-32.388-13.026C32.092,127.395,0,181.493,0,248.227  c0,66.733,32.092,120.832,71.68,120.832c10.693,0,20.825-3.978,29.93-11.073c9.471-7.38,21.455-10.772,33.461-10.772h139.457  c12.006,0,23.99,3.393,33.461,10.772c9.106,7.095,19.237,11.073,29.93,11.073c39.588,0,71.68-54.099,71.68-120.832  C409.6,181.493,377.508,127.395,337.92,127.395z"/>
<rect x="43.802" y="186.419" style="fill:#27A2DB;" width="276.168" height="128.051"/>
<rect x="43.802" y="305.254" style="fill:#1C75A1;" width="276.168" height="9.211"/>
<rect x="184.059" y="140.58" style="fill:#3A556A;" width="39.096" height="14.121"/>
<circle style="fill:#E56353;" cx="347.29" cy="229.243" r="14.275"/>
<circle style="fill:#44C4A1;" cx="347.29" cy="277.043" r="14.275"/>
<g>
</g>
<g>
</g>
<g>
</g>
<g>
</g>
<g>
</g>
<g>
</g>
<g>
</g>
<g>
</g>
<g>
</g>
<g>
</g>
<g>
</g>
<g>
</g>
<g>
</g>
<g>
</g>
<g>
</g>
</svg>
